<svg width="14" height="22" viewBox="0 0 14 22" fill="none" xmlns="http://www.w3.org/2000/svg">
<path d="M7.80786 21.6294C6.38989 21.6294 5.09302 21.1997 3.91724 20.3454C2.73755 19.4911 1.80005 18.2713 1.10474 16.6911C0.417236 15.1108 0.0734863 13.2689 0.0734863 11.1602C0.0734863 9.04171 0.405517 7.17011 1.07349 5.55035C1.73755 3.92072 2.68677 2.65653 3.91724 1.75776C5.15552 0.863934 6.60474 0.414551 8.26099 0.414551C9.68677 0.414551 10.9563 0.784921 12.0735 1.52072C13.1985 2.24665 13.761 3.36764 13.761 4.87875C13.7688 5.8269 13.5422 6.63677 13.0735 7.30838C12.6125 7.97011 11.9875 8.29603 11.1985 8.29603C10.9055 8.29603 10.6555 8.23184 10.4485 8.0985C10.2375 7.95529 10.0813 7.79233 9.97974 7.60467C9.87427 7.40714 9.8313 7.259 9.85474 7.15035C9.85474 7.11085 9.96802 7.00221 10.1985 6.81455C10.4368 6.61702 10.6438 6.35529 10.8235 6.02443C11.011 5.68369 11.1047 5.26887 11.1047 4.77998C11.1047 3.83183 10.8469 3.08122 10.3391 2.52813C9.82739 1.96517 9.12427 1.67875 8.22974 1.67875C7.2063 1.67875 6.30005 2.04912 5.51099 2.78492C4.71802 3.51085 4.10474 4.57751 3.66724 5.98492C3.22974 7.38245 3.01099 9.04665 3.01099 10.9825C3.01099 12.6713 3.24536 14.2022 3.71411 15.5849C4.19067 16.9578 4.86255 18.0491 5.72974 18.8639C6.59302 19.6837 7.5813 20.0886 8.69849 20.0886C9.60474 20.0886 10.3743 19.8516 11.011 19.3775C11.6555 18.9034 12.2375 18.1429 12.761 17.0862C12.843 16.8886 12.9563 16.7899 13.1047 16.7899C13.2375 16.7899 13.3899 16.859 13.5579 16.9874C13.8157 17.2146 13.9485 17.4417 13.9485 17.6787C13.9485 17.8121 13.9172 17.9158 13.8547 17.9948C13.218 19.0121 12.6204 19.7726 12.0579 20.2862C11.5032 20.7997 10.9016 21.1454 10.2454 21.3331C9.59692 21.5306 8.78442 21.6294 7.80786 21.6294Z" fill="black"/>
</svg>
