<svg width="118" height="113" viewBox="0 0 118 113" fill="none" xmlns="http://www.w3.org/2000/svg">
<path d="M59.9026 112.899C38.8167 112.899 23.301 107.417 13.3557 96.4446C4.55103 86.7261 0.152588 73.5014 0.152588 56.7606C0.152588 39.9853 4.55103 26.736 13.3557 17.0174C23.301 6.04953 38.8167 0.56311 59.9026 0.56311C71.9026 0.56311 81.887 2.27175 89.8557 5.67916C97.8245 9.07669 104.074 13.7187 108.606 19.6051C113.145 25.4915 116.246 32.2668 117.903 39.931H79.637C75.6252 32.9681 69.0471 29.4816 59.9026 29.4816C51.2542 29.4816 44.8909 32.6174 40.8088 38.8841C37.5588 43.9409 35.9338 49.9014 35.9338 56.7606C35.9338 63.6248 37.5588 69.5606 40.8088 74.5779C44.8909 80.8347 51.2542 83.9606 59.9026 83.9606C66.8713 83.9606 72.1057 83.2001 75.6057 81.6693C79.1135 80.1434 81.6838 78.1532 83.3088 75.7039H69.3401V56.7606H117.903V110.647H103.043L100.012 100.198C90.5432 108.667 77.1721 112.899 59.9026 112.899Z" fill="#008B8B"/>
</svg>
