<svg width="17" height="21" viewBox="0 0 17 21" fill="none" xmlns="http://www.w3.org/2000/svg">
<path d="M0.802124 20.4813C0.653687 20.4813 0.540405 20.4122 0.458374 20.2838C0.384155 20.1406 0.348999 19.9776 0.348999 19.79C0.36853 19.4739 0.419311 19.2862 0.505249 19.2171C0.58728 19.1529 0.74353 19.1183 0.973999 19.1183C1.46228 19.1183 1.81775 19.0097 2.0365 18.7825C2.26306 18.5603 2.40369 18.2986 2.45837 17.9924C2.50916 17.6912 2.54041 17.2566 2.55212 16.6887L2.599 4.14551C2.599 3.51341 2.54431 3.0344 2.44275 2.70353C2.33728 2.37761 2.16541 2.14057 1.92712 1.99242C1.69666 1.84921 1.36462 1.72576 0.927124 1.61711C0.645874 1.55292 0.466187 1.48872 0.395874 1.41958C0.333374 1.35539 0.302124 1.17761 0.302124 0.886249C0.302124 0.639335 0.352905 0.471434 0.458374 0.392422C0.571655 0.303534 0.74353 0.25415 0.973999 0.25415C2.01306 0.25415 2.83337 0.347978 3.42712 0.530694C4.02869 0.703533 4.55994 1.01958 5.02087 1.47884C5.47791 1.94304 5.98181 2.64427 6.5365 3.59242L13.3802 14.9702H13.4584L13.4115 4.14551C13.3881 3.56773 13.3529 3.12822 13.3021 2.82205C13.2474 2.52082 13.1068 2.25909 12.8802 2.03193C12.6615 1.80971 12.3099 1.69613 11.8334 1.69613H11.6771C11.5092 1.69613 11.3881 1.6665 11.3177 1.59736C11.2435 1.51835 11.1967 1.33563 11.1771 1.04427C11.1771 0.846743 11.2162 0.68378 11.3021 0.550447C11.3842 0.422052 11.4935 0.352916 11.6302 0.352916C12.6927 0.407237 13.4935 0.431928 14.0365 0.431928C14.349 0.431928 14.9506 0.412175 15.849 0.372669L16.3802 0.352916C16.5248 0.352916 16.6342 0.422052 16.7084 0.550447C16.7904 0.68378 16.8334 0.846743 16.8334 1.04427C16.8099 1.36032 16.7592 1.55292 16.6771 1.61711C16.5912 1.67143 16.4349 1.69613 16.2084 1.69613C15.7162 1.69613 15.3568 1.80971 15.1302 2.03193C14.9115 2.25909 14.7748 2.52082 14.724 2.82205C14.681 3.12822 14.6498 3.56773 14.6302 4.14551L14.5834 20.0665C14.5599 20.343 14.3529 20.4813 13.9584 20.4813C13.6342 20.4813 13.3881 20.343 13.224 20.0665L3.80212 4.14551H3.724L3.7865 16.6887C3.79431 17.2566 3.82556 17.6912 3.88025 17.9924C3.93103 18.2986 4.06775 18.5603 4.2865 18.7825C4.51306 19.0097 4.86853 19.1183 5.349 19.1183H5.50525C5.66931 19.1183 5.7904 19.1579 5.86462 19.2369C5.93494 19.306 5.98181 19.4887 6.00525 19.79C6.00525 19.9776 5.96619 20.1406 5.89587 20.2838C5.82165 20.4122 5.70837 20.4813 5.55212 20.4813C4.48962 20.4122 3.68103 20.3825 3.13025 20.3825C2.79431 20.3825 2.21228 20.4023 1.38025 20.4418L0.802124 20.4813Z" fill="black"/>
</svg>
