<svg width="17" height="22" viewBox="0 0 17 22" fill="none" xmlns="http://www.w3.org/2000/svg">
<path d="M0.491699 21.0961C0.335449 21.0961 0.222168 21.0269 0.147949 20.8985C0.0776372 20.7553 0.0385742 20.5924 0.0385742 20.4047C0.0502932 20.0886 0.0971682 19.901 0.179199 19.8319C0.265137 19.7677 0.358887 19.7331 0.476074 19.7331C0.601074 19.7331 0.679199 19.7331 0.710449 19.7331C1.21045 19.7331 1.57373 19.5701 1.8042 19.2393C2.04248 18.9133 2.22998 18.543 2.3667 18.1331C2.51123 17.7282 2.60889 17.4516 2.66357 17.3035L7.03857 4.20717C7.13232 3.89112 7.1792 3.64421 7.1792 3.45655C7.1792 3.0763 7.06201 2.8047 6.83545 2.64667C6.60498 2.47877 6.28076 2.3405 5.8667 2.23186C5.57373 2.16766 5.39795 2.10347 5.33545 2.03433C5.27295 1.97013 5.2417 1.79235 5.2417 1.501C5.2417 1.25408 5.29248 1.08618 5.39795 1.00717C5.49951 0.91828 5.67139 0.868896 5.91357 0.868896C6.74561 0.868896 7.40576 0.947909 7.89795 1.10593C8.38623 1.26396 8.81201 1.58001 9.1792 2.05408C9.5542 2.52816 9.89795 3.24914 10.2104 4.20717L14.4136 17.3035C14.6636 18.1084 14.9019 18.7059 15.1323 19.101C15.3706 19.4961 15.7183 19.7084 16.1792 19.7331H16.3354C16.4995 19.7331 16.6167 19.7726 16.6792 19.8516C16.7495 19.9207 16.7925 20.1035 16.8042 20.4047C16.8042 20.5924 16.7651 20.7553 16.6948 20.8985C16.6206 21.0269 16.5112 21.0961 16.3667 21.0961C15.2925 21.0269 14.3745 20.9973 13.6167 20.9973C12.6167 20.9973 11.5776 21.0269 10.5073 21.0961C10.3589 21.0961 10.2456 21.0269 10.1636 20.8985C10.0894 20.7553 10.0542 20.5924 10.0542 20.4047C10.0737 20.1035 10.1167 19.9207 10.1792 19.8516C10.2495 19.7726 10.3706 19.7331 10.5386 19.7331C11.1011 19.7331 11.4956 19.6689 11.7261 19.5356C11.9644 19.3924 12.0854 19.1405 12.0854 18.7849C12.0854 18.5084 11.9839 18.0146 11.7886 17.3035L10.9292 14.6763H4.75732C4.33936 15.98 4.10107 16.7405 4.03857 16.9479C3.98389 17.1603 3.96045 17.2788 3.96045 17.3035C3.76123 18.1084 3.66357 18.622 3.66357 18.8442C3.66357 19.1998 3.78857 19.4368 4.03857 19.5553C4.28857 19.6738 4.76123 19.7331 5.46045 19.7331H5.6167C5.78076 19.7331 5.89795 19.7726 5.96045 19.8516C6.02295 19.9207 6.06201 20.1035 6.08545 20.4047C6.08545 20.5924 6.04639 20.7553 5.97607 20.8985C5.90185 21.0269 5.78857 21.0961 5.63232 21.0961C4.56982 21.0269 3.66357 20.9973 2.91357 20.9973C2.38232 20.9973 1.57373 21.0269 0.491699 21.0961ZM5.2417 13.3133H10.4917L7.96045 5.19482H7.88232L5.2417 13.3133Z" fill="black"/>
</svg>
