<svg width="15" height="21" viewBox="0 0 15 21" fill="none" xmlns="http://www.w3.org/2000/svg">
<path d="M1.12732 20.7109C0.9906 20.7109 0.881225 20.6418 0.799194 20.5134C0.713257 20.3702 0.674194 20.2072 0.674194 20.0196C0.693725 19.7035 0.744507 19.5159 0.830444 19.4467C0.924194 19.3825 1.08826 19.348 1.33044 19.348C1.80701 19.348 2.16248 19.2393 2.39294 19.0122C2.63123 18.7899 2.77576 18.5183 2.83044 18.2023C2.89294 17.8764 2.93201 17.4467 2.95544 16.9183V4.37511C2.93201 3.85166 2.89294 3.42203 2.83044 3.09116C2.77576 2.76524 2.63123 2.48869 2.39294 2.26153C2.16248 2.03931 1.80701 1.92573 1.33044 1.92573H1.17419C1.00623 1.92573 0.885131 1.8961 0.814819 1.82696C0.7406 1.74795 0.693725 1.56524 0.674194 1.27388C0.674194 1.07635 0.713257 0.913384 0.799194 0.78005C0.881225 0.651656 0.9906 0.58252 1.12732 0.58252C2.20935 0.636841 3.20935 0.661532 4.12732 0.661532H7.87732C9.32263 0.661532 10.725 1.04672 12.0804 1.80721C13.4437 2.57264 14.1273 4.08869 14.1273 6.35042C14.1273 7.61462 13.8226 8.75042 13.2211 9.74795C12.6273 10.7356 11.85 11.506 10.8929 12.0591C9.93201 12.6023 8.93982 12.8689 7.90857 12.8689C6.94763 12.8689 6.1156 12.701 5.40857 12.3554V16.9183C5.41638 17.4467 5.44763 17.8764 5.50232 18.2023C5.56482 18.5183 5.70935 18.7899 5.93982 19.0122C6.1781 19.2393 6.54138 19.348 7.03357 19.348H7.17419C7.33826 19.348 7.45935 19.3875 7.53357 19.4665C7.6156 19.5356 7.66248 19.7183 7.67419 20.0196C7.67419 20.2072 7.63513 20.3702 7.56482 20.5134C7.4906 20.6418 7.37732 20.7109 7.22107 20.7109C6.15857 20.6418 5.1156 20.6122 4.09607 20.6122C3.19763 20.6122 2.20935 20.6418 1.12732 20.7109ZM7.17419 11.4467C7.77576 11.4467 8.39685 11.2986 9.03357 10.9924C9.6781 10.6912 10.225 10.1628 10.6742 9.41215C11.1195 8.66153 11.3461 7.67388 11.3461 6.44919C11.3461 4.5924 10.8773 3.36277 9.93982 2.75536C9.01013 2.15289 8.02185 1.84672 6.97107 1.84672C6.54138 1.84672 6.22107 1.90598 6.00232 2.0245C5.78357 2.13314 5.62732 2.35536 5.53357 2.6961C5.44763 3.02696 5.40857 3.55536 5.40857 4.27635V11.0912C5.8031 11.3282 6.39294 11.4467 7.17419 11.4467Z" fill="black"/>
</svg>
