<svg width="17" height="22" viewBox="0 0 17 22" fill="none" xmlns="http://www.w3.org/2000/svg">
<path d="M8.02844 21.6294C6.4425 21.6294 5.04797 21.1454 3.84094 20.1874C2.63 19.2294 1.6925 17.9553 1.02844 16.375C0.372192 14.7948 0.0440674 13.1059 0.0440674 11.2985C0.0440674 9.08616 0.438598 7.16023 1.23157 5.51085C2.02063 3.8664 3.03235 2.60714 4.26282 1.73801C5.5011 0.858995 6.755 0.414551 8.02844 0.414551C9.62219 0.414551 11.0284 0.898501 12.2472 1.85653C13.4738 2.81949 14.4191 4.08369 15.0753 5.64912C15.7394 7.21949 16.0753 8.90838 16.0753 10.7257C16.0753 12.938 15.673 14.8738 14.8722 16.5331C14.0675 18.1825 13.0441 19.4467 11.7941 20.3257C10.5441 21.1948 9.28625 21.6294 8.02844 21.6294ZM7.99719 20.2467C9.13 20.2467 10.0753 19.822 10.8253 18.9627C11.5831 18.1084 12.1534 16.9627 12.5284 15.5257C12.9034 14.0787 13.0909 12.4787 13.0909 10.7257C13.0909 9.10591 12.8956 7.61949 12.5128 6.26146C12.1378 4.89356 11.5636 3.80714 10.7941 3.00221C10.0323 2.18739 9.09875 1.77751 7.99719 1.77751C6.32922 1.77751 5.07532 2.67628 4.23157 4.46393C3.38782 6.24171 2.96594 8.48863 2.96594 11.1997C2.96594 12.8491 3.15344 14.3553 3.52844 15.7232C3.90344 17.096 4.46594 18.1923 5.21594 19.022C5.96594 19.8417 6.89172 20.2467 7.99719 20.2467Z" fill="black"/>
</svg>
