<svg width="16" height="19" viewBox="0 0 16 19" fill="none" xmlns="http://www.w3.org/2000/svg">
<path d="M7.98254 18.9518C6.60754 18.9518 5.37317 18.5864 4.27942 17.8456C3.19348 17.1098 2.34192 16.058 1.71692 14.6851C1.09192 13.3172 0.779419 11.7172 0.779419 9.88513C0.779419 8.06784 1.09192 6.46784 1.71692 5.08513C2.34973 3.70241 3.22082 2.64562 4.32629 1.90488C5.42786 1.16908 6.66223 0.798706 8.02942 0.798706C9.3927 0.798706 10.6232 1.16908 11.7169 1.90488C12.8185 2.64562 13.6896 3.70241 14.3263 5.08513C14.9591 6.46784 15.2794 8.06784 15.2794 9.88513C15.2794 11.6925 14.9552 13.2827 14.3107 14.6654C13.674 16.0481 12.799 17.1098 11.6857 17.8456C10.5802 18.5864 9.34583 18.9518 7.98254 18.9518ZM7.98254 14.2703C8.79504 14.2703 9.48645 13.895 10.0607 13.1444C10.631 12.3839 10.92 11.2975 10.92 9.88513C10.92 8.4629 10.6388 7.37648 10.0763 6.62587C9.52161 5.86537 8.84192 5.48019 8.02942 5.48019C7.19348 5.48019 6.50208 5.8555 5.95129 6.60611C5.39661 7.35673 5.12317 8.45303 5.12317 9.88513C5.12317 11.2975 5.3927 12.3839 5.93567 13.1444C6.47473 13.895 7.15833 14.2703 7.98254 14.2703Z" fill="white"/>
</svg>
