<svg width="14" height="21" viewBox="0 0 14 21" fill="none" xmlns="http://www.w3.org/2000/svg">
<path d="M1.16882 20.4814C1.0321 20.4814 0.926635 20.4123 0.856323 20.2839C0.782104 20.1407 0.746948 19.9777 0.746948 19.7901C0.754761 19.474 0.801635 19.2864 0.887573 19.2172C0.969604 19.153 1.12976 19.1185 1.37195 19.1185C1.84851 19.1185 2.20398 19.0098 2.43445 18.7827C2.67273 18.5604 2.81726 18.2888 2.87195 17.9728C2.93445 17.6469 2.97351 17.2172 2.99695 16.6888V4.14562C2.97351 3.62216 2.93445 3.19253 2.87195 2.86167C2.81726 2.53574 2.67273 2.2592 2.43445 2.03204C2.20398 1.80982 1.84851 1.69624 1.37195 1.69624H1.2157C1.04773 1.69624 0.926635 1.66661 0.856323 1.59747C0.793823 1.51846 0.754761 1.33574 0.746948 1.04439C0.746948 0.846855 0.782104 0.683892 0.856323 0.550558C0.926635 0.422164 1.0321 0.353027 1.16882 0.353027C2.27039 0.407349 3.26257 0.43204 4.13757 0.43204H11.9969C12.4227 0.43204 12.6376 0.68883 12.6376 1.20241L12.7157 5.6271C12.7157 5.81476 12.6376 5.9629 12.4813 6.08142C12.3329 6.19994 12.1884 6.2592 12.0438 6.2592C11.8446 6.2592 11.6688 6.21476 11.5126 6.12093C11.3641 6.01723 11.2821 5.87402 11.2626 5.68636C11.1376 4.6592 10.9891 3.87895 10.8251 3.33574C10.6688 2.79747 10.4344 2.39747 10.1219 2.13081C9.81726 1.86908 9.38757 1.72587 8.82507 1.69624H5.4657V9.73574H9.99695C10.1102 9.75056 10.2001 9.82957 10.2626 9.97278C10.3329 10.1061 10.3719 10.2691 10.3719 10.4666C10.3719 10.6246 10.3329 10.7728 10.2626 10.9012C10.2001 11.0345 10.1102 11.0987 9.99695 11.0987H5.4657V17.0641C5.49695 17.5135 5.53601 17.8691 5.5907 18.1308C5.64148 18.3975 5.79382 18.6345 6.04382 18.8419C6.29382 19.0543 6.68445 19.1481 7.2157 19.1185H9.51257C10.0946 19.0938 10.536 18.9753 10.8407 18.7629C11.1415 18.5407 11.3798 18.1999 11.5594 17.7357C11.7352 17.2617 11.9501 16.5012 12.2001 15.4444C12.3134 15.079 12.5946 14.9308 13.0438 15.0098C13.2079 15.0493 13.3563 15.1382 13.4813 15.2666C13.6063 15.3851 13.6571 15.5432 13.6376 15.7407L13.1376 19.7111C13.0946 19.9876 13.0204 20.1753 12.9188 20.2641C12.8134 20.3432 12.6454 20.3827 12.4188 20.3827H4.16882C3.27039 20.3827 2.27039 20.4123 1.16882 20.4814Z" fill="black"/>
</svg>
