<svg width="16" height="22" viewBox="0 0 16 22" fill="none" xmlns="http://www.w3.org/2000/svg">
<path d="M7.95215 21.6294C6.50293 21.6294 5.19043 21.2442 4.01465 20.4837C2.84668 19.7084 1.9209 18.538 1.2334 16.9676C0.545898 15.4022 0.202148 13.4664 0.202148 11.1602C0.202148 9.04171 0.569336 7.17011 1.31152 5.55035C2.06152 3.92072 3.09277 2.65653 4.40527 1.75776C5.72559 0.863934 7.2373 0.414551 8.93652 0.414551C9.76855 0.414551 10.5928 0.572575 11.4053 0.888625C12.2256 1.20467 12.9053 1.70838 13.4365 2.38986C13.9678 3.06146 14.2334 3.89109 14.2334 4.87875C14.2334 5.80221 14.0146 6.60714 13.5771 7.28863C13.1475 7.96023 12.5771 8.29603 11.8584 8.29603C11.5029 8.29603 11.1631 8.19233 10.8428 7.97998C10.5186 7.77258 10.3467 7.49603 10.3271 7.15035C10.3271 7.14048 10.4404 7.0269 10.6709 6.81455C10.8975 6.60714 11.1084 6.32072 11.2959 5.96517C11.4834 5.59974 11.5771 5.16517 11.5771 4.66146C11.5771 3.78245 11.2998 3.06146 10.749 2.50838C10.2061 1.95529 9.50293 1.67875 8.63965 1.67875C7.59668 1.67875 6.65918 2.04912 5.82715 2.78492C4.99121 3.51085 4.33496 4.57751 3.8584 5.98492C3.37793 7.38245 3.13965 9.04665 3.13965 10.9825C3.13965 12.8541 3.37402 14.4738 3.84277 15.8417C4.31934 17.2146 4.9873 18.2664 5.84277 19.0022C6.70605 19.7281 7.70215 20.0886 8.82715 20.0886C9.36621 20.0886 9.83496 20.0491 10.2334 19.9701C10.6279 19.8911 11.0615 19.7627 11.5303 19.575V16.3553C11.5303 15.6195 11.5068 15.1059 11.4678 14.8146C11.4248 14.5133 11.2881 14.2911 11.0615 14.1429C10.8428 13.9997 10.4678 13.9257 9.93652 13.9257C9.74902 13.9257 9.6123 13.8862 9.53027 13.8071C9.44434 13.7281 9.39746 13.5454 9.38965 13.2541C9.38965 13.0713 9.42871 12.9133 9.51465 12.78C9.6084 12.6368 9.7373 12.5627 9.90527 12.5627C10.9561 12.6318 11.874 12.6615 12.6553 12.6615C13.4053 12.6615 14.3037 12.6318 15.3584 12.5627C15.5029 12.5627 15.6162 12.6368 15.7021 12.78C15.7842 12.9133 15.8271 13.0713 15.8271 13.2541C15.8154 13.5454 15.7686 13.7281 15.6865 13.8071C15.6006 13.8862 15.4678 13.9257 15.2803 13.9257C14.7803 13.9257 14.4209 14.0146 14.2021 14.1825C13.9912 14.3405 13.8623 14.5775 13.8115 14.8936C13.7568 15.1997 13.7334 15.6837 13.7334 16.3553V20.0886C12.7529 20.6713 11.8506 21.0664 11.0303 21.2936C10.2178 21.5158 9.19043 21.6294 7.95215 21.6294Z" fill="black"/>
</svg>
