<svg width="17" height="21" viewBox="0 0 17 21" fill="none" xmlns="http://www.w3.org/2000/svg">
<path d="M0.693115 20.4813C0.544678 20.4813 0.431396 20.4122 0.349365 20.2838C0.275146 20.1406 0.23999 19.9776 0.23999 19.79C0.259521 19.4739 0.310302 19.2862 0.39624 19.2171C0.478271 19.1529 0.634521 19.1183 0.86499 19.1183C1.35327 19.1183 1.70874 19.0097 1.92749 18.7825C2.15405 18.5603 2.29468 18.2986 2.34937 17.9924C2.40015 17.6912 2.4314 17.2566 2.44312 16.6887L2.48999 4.14551C2.48999 3.51341 2.4353 3.0344 2.33374 2.70353C2.22827 2.37761 2.0564 2.14057 1.81812 1.99242C1.58765 1.84921 1.25562 1.72576 0.818115 1.61711C0.536865 1.55292 0.357178 1.48872 0.286865 1.41958C0.224365 1.35539 0.193115 1.17761 0.193115 0.886249C0.193115 0.639335 0.243896 0.471434 0.349365 0.392422C0.462646 0.303534 0.634521 0.25415 0.86499 0.25415C1.90405 0.25415 2.72437 0.347978 3.31812 0.530694C3.91968 0.703533 4.45093 1.01958 4.91187 1.47884C5.3689 1.94304 5.8728 2.64427 6.42749 3.59242L13.2712 14.9702H13.3494L13.3025 4.14551C13.2791 3.56773 13.2439 3.12822 13.1931 2.82205C13.1384 2.52082 12.9978 2.25909 12.7712 2.03193C12.5525 1.80971 12.2009 1.69613 11.7244 1.69613H11.5681C11.4001 1.69613 11.2791 1.6665 11.2087 1.59736C11.1345 1.51835 11.0876 1.33563 11.0681 1.04427C11.0681 0.846743 11.1072 0.68378 11.1931 0.550447C11.2751 0.422052 11.3845 0.352916 11.5212 0.352916C12.5837 0.407237 13.3845 0.431928 13.9275 0.431928C14.24 0.431928 14.8416 0.412175 15.74 0.372669L16.2712 0.352916C16.4158 0.352916 16.5251 0.422052 16.5994 0.550447C16.6814 0.68378 16.7244 0.846743 16.7244 1.04427C16.7009 1.36032 16.6501 1.55292 16.5681 1.61711C16.4822 1.67143 16.3259 1.69613 16.0994 1.69613C15.6072 1.69613 15.2478 1.80971 15.0212 2.03193C14.8025 2.25909 14.6658 2.52082 14.615 2.82205C14.572 3.12822 14.5408 3.56773 14.5212 4.14551L14.4744 20.0665C14.4509 20.343 14.2439 20.4813 13.8494 20.4813C13.5251 20.4813 13.2791 20.343 13.115 20.0665L3.69312 4.14551H3.61499L3.67749 16.6887C3.6853 17.2566 3.71655 17.6912 3.77124 17.9924C3.82202 18.2986 3.95874 18.5603 4.17749 18.7825C4.40405 19.0097 4.75952 19.1183 5.23999 19.1183H5.39624C5.5603 19.1183 5.6814 19.1579 5.75562 19.2369C5.82593 19.306 5.8728 19.4887 5.89624 19.79C5.89624 19.9776 5.85718 20.1406 5.78687 20.2838C5.71265 20.4122 5.59937 20.4813 5.44312 20.4813C4.38062 20.4122 3.57202 20.3825 3.02124 20.3825C2.6853 20.3825 2.10327 20.4023 1.27124 20.4418L0.693115 20.4813Z" fill="black"/>
</svg>
