<svg width="6" height="10" viewBox="0 0 6 10" fill="none" xmlns="http://www.w3.org/2000/svg">
<path d="M1.35156 9.17505C1.19531 9.25406 1.05859 9.22443 0.945312 9.09603C0.828125 8.97752 0.773438 8.82443 0.773438 8.64171C0.773438 8.42937 0.855468 8.27628 1.02344 8.18739C1.74219 7.85653 2.27344 7.46147 2.61719 7.00221C2.96875 6.55282 3.14844 6.01455 3.14844 5.38245C3.14844 5.0269 3.0625 4.74048 2.89844 4.51332C2.73047 4.2911 2.49609 4.05406 2.19531 3.80221C1.89063 3.55529 1.66406 3.32319 1.50781 3.11085C1.35156 2.90344 1.27344 2.63677 1.27344 2.32073C1.27344 1.91579 1.39844 1.55036 1.64844 1.23431C1.89844 0.90838 2.1875 0.740479 2.52344 0.740479C2.99219 0.740479 3.41406 0.928132 3.78906 1.29356C4.17188 1.66394 4.48047 2.14295 4.71094 2.73554C4.9375 3.31826 5.05469 3.90097 5.05469 4.49357C5.05469 5.68863 4.69531 6.67134 3.97656 7.43678C3.25781 8.21208 2.38281 8.78986 1.35156 9.17505Z" fill="black"/>
</svg>
