<svg width="15" height="21" viewBox="0 0 15 21" fill="none" xmlns="http://www.w3.org/2000/svg">
<path d="M4.16443 20.0961C4.01599 20.0961 3.90662 20.027 3.8363 19.8986C3.76209 19.7554 3.72693 19.5924 3.72693 19.4048C3.73474 19.0887 3.78162 18.9011 3.86755 18.8319C3.94959 18.7677 4.10974 18.7332 4.35193 18.7332C4.82849 18.7332 5.18396 18.6245 5.41443 18.3974C5.65271 18.1751 5.79724 17.9035 5.85193 17.5875C5.91443 17.2616 5.95349 16.8319 5.97693 16.3035V1.23194H4.24255C3.68005 1.24675 3.24255 1.39984 2.93005 1.68626C2.62537 1.9628 2.39099 2.38749 2.22693 2.95046C2.07068 3.50354 1.93396 4.30354 1.82068 5.34058C1.79724 5.49861 1.69568 5.63194 1.50818 5.73564C1.32849 5.84428 1.14099 5.89367 0.945679 5.89367C0.797241 5.89367 0.664429 5.84428 0.539429 5.73564C0.414429 5.61712 0.351929 5.4591 0.351929 5.26157L0.414429 0.817123C0.414429 0.303543 0.640991 0.0467529 1.10193 0.0467529H13.3207C13.7582 0.0467529 13.9769 0.303543 13.9769 0.817123L14.0707 5.26157C14.0707 5.4591 14.0004 5.61712 13.8676 5.73564C13.7308 5.84428 13.5902 5.89367 13.4457 5.89367C13.2465 5.89367 13.059 5.84428 12.8832 5.73564C12.7035 5.63194 12.6097 5.49861 12.6019 5.34058C12.4652 4.28873 12.3207 3.48379 12.1644 2.9307C12.016 2.37762 11.7816 1.9628 11.4613 1.68626C11.1488 1.39984 10.7113 1.24675 10.1488 1.23194H8.44568V16.3035C8.46521 16.8319 8.50037 17.2616 8.55505 17.5875C8.61755 17.9035 8.76209 18.1751 8.99255 18.3974C9.23084 18.6245 9.59021 18.7332 10.0707 18.7332H10.2269C10.3715 18.7332 10.4808 18.7727 10.5551 18.8517C10.6254 18.9208 10.6722 19.1035 10.6957 19.4048C10.6957 19.5924 10.6566 19.7554 10.5863 19.8986C10.5121 20.027 10.3988 20.0961 10.2426 20.0961C9.18005 20.027 8.19568 19.9974 7.28943 19.9974C6.28943 19.9974 5.24646 20.027 4.16443 20.0961Z" fill="black"/>
</svg>
