<svg width="18" height="21" viewBox="0 0 18 21" fill="none" xmlns="http://www.w3.org/2000/svg">
<path d="M0.844727 20.4814C0.688477 20.4814 0.571289 20.4123 0.500977 20.2839C0.426758 20.1407 0.391602 19.9777 0.391602 19.7901C0.399415 19.474 0.446289 19.2864 0.532227 19.2172C0.614258 19.153 0.774415 19.1185 1.0166 19.1185C1.49316 19.1185 1.84863 19.0098 2.0791 18.7827C2.31738 18.5604 2.46191 18.2888 2.5166 17.9728C2.5791 17.6469 2.61816 17.2172 2.6416 16.6888V4.14562C2.61816 3.62216 2.5791 3.19253 2.5166 2.86167C2.46191 2.53574 2.31738 2.2592 2.0791 2.03204C1.84863 1.80982 1.49316 1.69624 1.0166 1.69624H0.860352C0.692383 1.69624 0.571289 1.66661 0.500977 1.59747C0.438477 1.51846 0.399415 1.33574 0.391602 1.04439C0.391602 0.846855 0.426758 0.683892 0.500977 0.550558C0.571289 0.422164 0.688477 0.353027 0.844727 0.353027C1.92676 0.407349 2.90723 0.43204 3.78223 0.43204C4.78223 0.43204 5.82129 0.407349 6.90723 0.353027C7.06348 0.353027 7.17676 0.422164 7.25098 0.550558C7.32129 0.683892 7.36035 0.846855 7.36035 1.04439C7.34863 1.36043 7.30176 1.55303 7.21973 1.61723C7.13379 1.67155 6.97363 1.69624 6.73535 1.69624C6.25488 1.69624 5.89551 1.80982 5.65723 2.03204C5.42676 2.2592 5.28223 2.53574 5.21973 2.86167C5.16504 3.19253 5.12988 3.62216 5.11035 4.14562V9.73574H12.9697V4.14562C12.9463 3.62216 12.9072 3.19253 12.8447 2.86167C12.79 2.53574 12.6455 2.2592 12.4072 2.03204C12.1768 1.80982 11.8213 1.69624 11.3447 1.69624H11.1885C11.0205 1.69624 10.8994 1.66661 10.8291 1.59747C10.7549 1.51846 10.708 1.33574 10.6885 1.04439C10.6885 0.846855 10.7275 0.683892 10.8135 0.550558C10.8955 0.422164 11.0049 0.353027 11.1416 0.353027C12.2236 0.407349 13.2666 0.43204 14.2666 0.43204C15.1807 0.43204 16.1729 0.407349 17.2354 0.353027C17.3916 0.353027 17.5049 0.422164 17.5791 0.550558C17.6494 0.683892 17.6885 0.846855 17.6885 1.04439C17.665 1.36043 17.6104 1.55303 17.5166 1.61723C17.4307 1.67155 17.2822 1.69624 17.0635 1.69624C16.583 1.69624 16.2197 1.80982 15.9697 2.03204C15.7275 2.2592 15.5791 2.53574 15.5166 2.86167C15.4619 3.19253 15.4268 3.62216 15.4072 4.14562V16.6888C15.4268 17.2172 15.4619 17.6469 15.5166 17.9728C15.5791 18.2888 15.7275 18.5604 15.9697 18.7827C16.2197 19.0098 16.583 19.1185 17.0635 19.1185H17.2197C17.3643 19.1185 17.4736 19.158 17.5479 19.237C17.6182 19.3061 17.665 19.4888 17.6885 19.7901C17.6885 19.9777 17.6494 20.1407 17.5791 20.2839C17.5049 20.4123 17.3916 20.4814 17.2354 20.4814C16.1729 20.4123 15.1729 20.3827 14.2354 20.3827C13.2549 20.3827 12.2236 20.4123 11.1416 20.4814C11.0049 20.4814 10.8955 20.4123 10.8135 20.2839C10.7275 20.1407 10.6885 19.9777 10.6885 19.7901C10.708 19.474 10.7588 19.2864 10.8447 19.2172C10.9385 19.153 11.1025 19.1185 11.3447 19.1185C11.8213 19.1185 12.1768 19.0098 12.4072 18.7827C12.6455 18.5604 12.79 18.2888 12.8447 17.9728C12.9072 17.6469 12.9463 17.2172 12.9697 16.6888V11.0987H5.11035V16.6888C5.12988 17.2172 5.16504 17.6469 5.21973 17.9728C5.28223 18.2888 5.42676 18.5604 5.65723 18.7827C5.89551 19.0098 6.25488 19.1185 6.73535 19.1185H6.8916C7.05566 19.1185 7.17285 19.158 7.23535 19.237C7.30566 19.3061 7.34863 19.4888 7.36035 19.7901C7.36035 19.9777 7.32129 20.1407 7.25098 20.2839C7.17676 20.4123 7.06348 20.4814 6.90723 20.4814C5.84473 20.4123 4.81348 20.3827 3.81348 20.3827C2.91504 20.3827 1.92676 20.4123 0.844727 20.4814Z" fill="black"/>
</svg>
