<svg width="14" height="21" viewBox="0 0 14 21" fill="none" xmlns="http://www.w3.org/2000/svg">
<path d="M1.22498 20.7109C1.08826 20.7109 0.982788 20.6418 0.912476 20.5134C0.838257 20.3702 0.803101 20.2072 0.803101 20.0196C0.810914 19.7035 0.857788 19.5159 0.943726 19.4467C1.02576 19.3825 1.18591 19.348 1.4281 19.348C1.90466 19.348 2.26013 19.2393 2.4906 19.0122C2.72888 18.7899 2.87341 18.5183 2.9281 18.2023C2.9906 17.8764 3.02966 17.4467 3.0531 16.9183V4.37511C3.02966 3.85166 2.9906 3.42203 2.9281 3.09116C2.87341 2.76524 2.72888 2.48869 2.4906 2.26153C2.26013 2.03931 1.90466 1.92573 1.4281 1.92573H1.27185C1.10388 1.92573 0.982788 1.8961 0.912476 1.82696C0.849976 1.74795 0.810914 1.56524 0.803101 1.27388C0.803101 1.07635 0.838257 0.913384 0.912476 0.78005C0.982788 0.651656 1.08826 0.58252 1.22498 0.58252C2.32654 0.636841 3.31873 0.661532 4.19373 0.661532C5.19373 0.661532 6.23279 0.636841 7.31873 0.58252C7.47498 0.58252 7.58826 0.651656 7.66248 0.78005C7.73279 0.913384 7.77185 1.07635 7.77185 1.27388C7.76013 1.58993 7.70935 1.78252 7.6156 1.84672C7.52185 1.90104 7.3656 1.92573 7.14685 1.92573C6.66638 1.92573 6.30701 2.03931 6.06873 2.26153C5.83826 2.48869 5.69373 2.76524 5.63123 3.09116C5.57654 3.42203 5.54138 3.85166 5.52185 4.37511V17.3924C5.5531 17.827 5.59216 18.1726 5.64685 18.4196C5.69763 18.6566 5.84998 18.8838 6.09998 19.0912C6.34998 19.2887 6.7406 19.3776 7.27185 19.348H9.52185C10.1039 19.3233 10.5453 19.2047 10.85 18.9924C11.1508 18.7702 11.3851 18.4294 11.5531 17.9652C11.7289 17.4912 11.9437 16.7307 12.1937 15.6739C12.3187 15.3084 12.6039 15.1603 13.0531 15.2393C13.1976 15.2788 13.3383 15.3677 13.475 15.4961C13.6078 15.6146 13.6664 15.7726 13.6469 15.9702L13.1469 19.9405C13.0922 20.2171 13.014 20.4047 12.9125 20.4936C12.8187 20.5726 12.6547 20.6122 12.4281 20.6122H4.22498C3.32654 20.6122 2.32654 20.6418 1.22498 20.7109Z" fill="black"/>
</svg>
