<svg width="17" height="21" viewBox="0 0 17 21" fill="none" xmlns="http://www.w3.org/2000/svg">
<path d="M1.07751 20.4814C0.921265 20.4814 0.804077 20.4123 0.733765 20.2839C0.659546 20.1407 0.62439 19.9777 0.62439 19.7901C0.632203 19.474 0.679077 19.2864 0.765015 19.2172C0.847046 19.153 1.0072 19.1185 1.24939 19.1185C1.72595 19.1185 2.08142 19.0098 2.31189 18.7827C2.55017 18.5604 2.6947 18.2888 2.74939 17.9728C2.81189 17.6469 2.85095 17.2172 2.87439 16.6888V4.16537C2.85095 3.6271 2.81189 3.19747 2.74939 2.88142C2.6947 2.56537 2.55017 2.28883 2.31189 2.05179C2.08142 1.81476 1.72595 1.69624 1.24939 1.69624H1.09314C0.925171 1.69624 0.804077 1.66661 0.733765 1.59747C0.671265 1.51846 0.632203 1.33574 0.62439 1.04439C0.62439 0.846855 0.659546 0.683892 0.733765 0.550558C0.804077 0.422164 0.921265 0.353027 1.07751 0.353027C2.15955 0.407349 3.14783 0.43204 4.04626 0.43204H8.34314C9.62439 0.46167 10.6908 0.723398 11.5463 1.22216C12.4095 1.71105 13.0385 2.34315 13.4369 3.11846C13.8431 3.88389 14.0463 4.70858 14.0463 5.5876C14.0463 6.74809 13.6791 7.81476 12.9525 8.7876C12.2338 9.75056 11.2494 10.4419 9.99939 10.8617L10.4213 11.7308C11.1166 13.153 11.7494 14.3777 12.3119 15.4049C12.8822 16.432 13.5033 17.3901 14.1713 18.2691C14.64 18.758 15.14 19.0394 15.6713 19.1185C15.7025 19.1185 15.7728 19.1283 15.89 19.1382C16.015 19.153 16.1127 19.2123 16.1869 19.316C16.2572 19.4246 16.2963 19.5827 16.2963 19.7901C16.2963 19.9777 16.2572 20.1407 16.1869 20.2839C16.1127 20.4123 15.9994 20.4814 15.8431 20.4814L15.2025 20.4419C14.4603 20.4024 13.9252 20.3827 13.5931 20.3827C12.9252 20.2148 12.351 19.9185 11.8744 19.4938C11.4056 19.0592 10.9369 18.4419 10.4681 17.637C9.98767 16.837 9.3158 15.5234 8.45251 13.7061L7.99939 12.7975C7.74939 12.3135 7.5033 11.9827 7.26501 11.8098C7.03455 11.6271 6.64001 11.5333 6.07751 11.5333H5.34314V16.6888C5.36267 17.2172 5.39783 17.6469 5.45251 17.9728C5.51501 18.2888 5.65955 18.5604 5.89001 18.7827C6.1283 19.0098 6.48767 19.1185 6.96814 19.1185H7.12439C7.26892 19.1185 7.3783 19.158 7.45251 19.237C7.53455 19.3061 7.58142 19.4888 7.59314 19.7901C7.59314 19.9777 7.55408 20.1407 7.48376 20.2839C7.40955 20.4123 7.29626 20.4814 7.14001 20.4814C6.07751 20.4123 5.03455 20.3827 4.01501 20.3827C3.14001 20.3827 2.15955 20.4123 1.07751 20.4814ZM7.54626 10.3086C10.0228 10.3086 11.265 8.83698 11.265 5.88389C11.265 4.67402 10.9408 3.66167 10.2963 2.84192C9.64783 2.0271 8.58142 1.61723 7.09314 1.61723C6.61267 1.61723 6.24939 1.6913 5.99939 1.83451C5.74939 1.98266 5.57751 2.22957 5.48376 2.58513C5.39001 2.94068 5.34314 3.48883 5.34314 4.22463V10.3086H7.54626Z" fill="black"/>
</svg>
