<svg width="13" height="22" viewBox="0 0 13 22" fill="none" xmlns="http://www.w3.org/2000/svg">
<path d="M6.24158 21.6294C4.49158 21.6294 3.15173 21.2442 2.22595 20.4837C1.29627 19.7084 0.835327 18.5775 0.835327 17.0862C0.835327 16.3257 1.03845 15.6985 1.4447 15.2096C1.85877 14.7108 2.39002 14.459 3.03845 14.459C3.42127 14.4738 3.71423 14.5923 3.91345 14.8146C4.10877 15.0417 4.21033 15.2442 4.21033 15.4269C4.21033 15.4565 4.12439 15.5355 3.96033 15.6639C3.79236 15.7825 3.64002 15.975 3.5072 16.2368C3.3822 16.4886 3.3197 16.8294 3.3197 17.2639C3.3197 18.2516 3.55408 19.017 4.02283 19.5553C4.49939 20.0985 5.24158 20.3652 6.24158 20.3652C6.92908 20.3652 7.52673 20.2022 8.03845 19.8713C8.55798 19.5306 8.95252 19.0812 9.22595 18.5281C9.5072 17.9652 9.64783 17.3775 9.64783 16.7701C9.64783 16.0096 9.47595 15.3578 9.1322 14.8146C8.78845 14.2615 8.36658 13.8022 7.86658 13.4318C7.36658 13.0664 6.68298 12.6368 5.8197 12.1479C4.8197 11.5849 4.0072 11.0713 3.3822 10.6071C2.76502 10.1331 2.24158 9.51579 1.80408 8.75035C1.37439 7.98986 1.16345 7.03184 1.16345 5.88616C1.16345 4.05899 1.65564 2.68616 2.64783 1.77751C3.64783 0.868872 4.95252 0.414551 6.5697 0.414551C7.82752 0.414551 8.92908 0.76023 9.86658 1.44171C10.8119 2.11332 11.2885 3.10097 11.2885 4.40467C11.2885 5.17011 11.0853 5.80221 10.6791 6.30097C10.2728 6.78986 9.74158 7.03184 9.08533 7.03184C8.71033 7.00714 8.41736 6.88863 8.21033 6.67628C8.01111 6.45406 7.91345 6.24171 7.91345 6.04418C7.91345 6.0343 8.02283 5.96023 8.24158 5.8269C8.46814 5.6985 8.67127 5.50591 8.85095 5.25406C9.02673 5.00714 9.11658 4.65653 9.11658 4.20714C9.11658 3.43184 8.87439 2.82443 8.39783 2.38986C7.92908 1.94542 7.32361 1.71825 6.58533 1.71825C5.57361 1.71825 4.80408 2.02443 4.27283 2.6269C3.74939 3.21949 3.49158 3.96023 3.49158 4.83924C3.49158 5.57998 3.64783 6.19727 3.96033 6.69603C4.28064 7.19974 4.79236 7.68369 5.49158 8.15776C6.05408 8.54295 6.66736 8.92319 7.33533 9.30344C8.40564 9.91085 9.2572 10.4689 9.8822 10.9825C10.5072 11.4862 11.0267 12.1479 11.4447 12.9775C11.8705 13.7973 12.0853 14.8146 12.0853 16.0392C12.0853 17.096 11.8236 18.0491 11.3041 18.9034C10.7806 19.7479 10.0736 20.4146 9.17908 20.8985C8.28064 21.3825 7.30408 21.6294 6.24158 21.6294Z" fill="black"/>
</svg>
