<svg width="18" height="21" viewBox="0 0 18 21" fill="none" xmlns="http://www.w3.org/2000/svg">
<path d="M0.841064 20.4813C0.684814 20.4813 0.571533 20.4122 0.497314 20.2838C0.427002 20.1406 0.387939 19.9776 0.387939 19.79C0.399658 19.4739 0.446533 19.2862 0.528564 19.2171C0.614502 19.1529 0.708252 19.1183 0.825439 19.1183C0.950439 19.1183 1.02856 19.1183 1.05981 19.1183C1.55981 19.1183 1.9231 18.9554 2.15356 18.6245C2.39185 18.2986 2.57935 17.9282 2.71606 17.5183C2.8606 17.1134 2.95825 16.8369 3.01294 16.6887L7.38794 3.59242C7.48169 3.27637 7.52856 3.02946 7.52856 2.8418C7.52856 2.46156 7.41138 2.18995 7.18481 2.03193C6.95435 1.86403 6.63013 1.72576 6.21606 1.61711C5.9231 1.55292 5.74731 1.48872 5.68481 1.41958C5.62231 1.35539 5.59106 1.17761 5.59106 0.886249C5.59106 0.639335 5.64185 0.471434 5.74731 0.392422C5.84888 0.303534 6.02075 0.25415 6.26294 0.25415C7.09497 0.25415 7.75513 0.333163 8.24731 0.491187C8.7356 0.649212 9.16138 0.965262 9.52856 1.43934C9.90356 1.91341 10.2473 2.6344 10.5598 3.59242L14.7629 16.6887C15.0129 17.4937 15.2512 18.0912 15.4817 18.4862C15.72 18.8813 16.0676 19.0937 16.5286 19.1183H16.6848C16.8489 19.1183 16.9661 19.1579 17.0286 19.2369C17.0989 19.306 17.1418 19.4887 17.1536 19.79C17.1536 19.9776 17.1145 20.1406 17.0442 20.2838C16.97 20.4122 16.8606 20.4813 16.7161 20.4813C15.6418 20.4122 14.7239 20.3825 13.9661 20.3825C12.9661 20.3825 11.927 20.4122 10.8567 20.4813C10.7083 20.4813 10.595 20.4122 10.5129 20.2838C10.4387 20.1406 10.4036 19.9776 10.4036 19.79C10.4231 19.4887 10.4661 19.306 10.5286 19.2369C10.5989 19.1579 10.72 19.1183 10.8879 19.1183C11.4504 19.1183 11.845 19.0542 12.0754 18.9208C12.3137 18.7776 12.4348 18.5258 12.4348 18.1702C12.4348 17.8937 12.3333 17.3998 12.1379 16.6887L11.2786 14.0616H5.10669C4.68872 15.3653 4.45044 16.1258 4.38794 16.3332C4.33325 16.5455 4.30981 16.664 4.30981 16.6887C4.1106 17.4937 4.01294 18.0072 4.01294 18.2295C4.01294 18.585 4.13794 18.8221 4.38794 18.9406C4.63794 19.0591 5.1106 19.1183 5.80981 19.1183H5.96606C6.13013 19.1183 6.24731 19.1579 6.30981 19.2369C6.37231 19.306 6.41138 19.4887 6.43481 19.79C6.43481 19.9776 6.39575 20.1406 6.32544 20.2838C6.25122 20.4122 6.13794 20.4813 5.98169 20.4813C4.91919 20.4122 4.01294 20.3825 3.26294 20.3825C2.73169 20.3825 1.9231 20.4122 0.841064 20.4813ZM5.59106 12.6986H10.8411L8.30981 4.58008H8.23169L5.59106 12.6986Z" fill="black"/>
</svg>
