<svg width="37" height="58" viewBox="0 0 37 58" fill="none" xmlns="http://www.w3.org/2000/svg">
<path d="M28.074 28.6422C30.6755 29.3533 32.7654 30.9929 34.3396 33.5608C35.9216 36.1188 36.7146 39.0422 36.7146 42.3311C36.7146 47.0719 35.4021 50.8348 32.7771 53.6101C30.1521 56.3904 26.488 57.778 21.7927 57.778H0.87085V0.987915H21.0896C25.6599 0.987915 29.2341 2.31137 31.8083 4.95829C34.3904 7.59532 35.6833 11.1756 35.6833 15.704C35.6833 19.0521 34.988 21.8274 33.6052 24.0398C32.2185 26.2521 30.3748 27.7879 28.074 28.6422ZM11.8083 23.9608H18.9802C20.7693 23.9608 22.1443 23.462 23.1052 22.4595C24.0623 21.462 24.5427 19.9904 24.5427 18.0546C24.5427 16.1089 24.0623 14.6274 23.1052 13.6101C22.1443 12.583 20.7693 12.0694 18.9802 12.0694H11.8083V23.9608ZM19.8708 46.6175C21.7146 46.6175 23.1365 46.0941 24.1365 45.0373C25.1365 43.9854 25.6365 42.4595 25.6365 40.4546C25.6365 38.4694 25.1091 36.9089 24.0583 35.7731C23.0154 34.6422 21.5779 34.0743 19.7458 34.0743H11.8083V46.6175H19.8708Z" fill="#008B8B"/>
</svg>
