<svg width="15" height="22" viewBox="0 0 15 22" fill="none" xmlns="http://www.w3.org/2000/svg">
<path d="M8.25635 21.6294C6.83838 21.6294 5.5415 21.1997 4.36572 20.3454C3.18603 19.4911 2.24853 18.2713 1.55322 16.6911C0.865723 15.1108 0.521973 13.2689 0.521973 11.1602C0.521973 9.04171 0.854004 7.17011 1.52197 5.55035C2.18603 3.92072 3.13525 2.65653 4.36572 1.75776C5.604 0.863934 7.05322 0.414551 8.70947 0.414551C10.1353 0.414551 11.4048 0.784921 12.522 1.52072C13.647 2.24665 14.2095 3.36764 14.2095 4.87875C14.2173 5.8269 13.9907 6.63677 13.522 7.30838C13.061 7.97011 12.436 8.29603 11.647 8.29603C11.354 8.29603 11.104 8.23184 10.897 8.0985C10.686 7.95529 10.5298 7.79233 10.4282 7.60467C10.3228 7.40714 10.2798 7.259 10.3032 7.15035C10.3032 7.11085 10.4165 7.00221 10.647 6.81455C10.8853 6.61702 11.0923 6.35529 11.272 6.02443C11.4595 5.68369 11.5532 5.26887 11.5532 4.77998C11.5532 3.83183 11.2954 3.08122 10.7876 2.52813C10.2759 1.96517 9.57275 1.67875 8.67822 1.67875C7.65478 1.67875 6.74853 2.04912 5.95947 2.78492C5.1665 3.51085 4.55322 4.57751 4.11572 5.98492C3.67822 7.38245 3.45947 9.04665 3.45947 10.9825C3.45947 12.6713 3.69385 14.2022 4.1626 15.5849C4.63916 16.9578 5.31103 18.0491 6.17822 18.8639C7.0415 19.6837 8.02978 20.0886 9.14697 20.0886C10.0532 20.0886 10.8228 19.8516 11.4595 19.3775C12.104 18.9034 12.686 18.1429 13.2095 17.0862C13.2915 16.8886 13.4048 16.7899 13.5532 16.7899C13.686 16.7899 13.8384 16.859 14.0063 16.9874C14.2642 17.2146 14.397 17.4417 14.397 17.6787C14.397 17.8121 14.3657 17.9158 14.3032 17.9948C13.6665 19.0121 13.0688 19.7726 12.5063 20.2862C11.9517 20.7997 11.3501 21.1454 10.6938 21.3331C10.0454 21.5306 9.23291 21.6294 8.25635 21.6294Z" fill="black"/>
</svg>
