<svg width="18" height="21" viewBox="0 0 18 21" fill="none" xmlns="http://www.w3.org/2000/svg">
<path d="M1.19995 20.4813C1.05151 20.4813 0.938232 20.4122 0.856201 20.2838C0.781982 20.1406 0.746826 19.9776 0.746826 19.79C0.766357 19.4739 0.817138 19.2862 0.903076 19.2171C0.985107 19.1529 1.14136 19.1183 1.37183 19.1183C1.86011 19.1183 2.21558 19.0097 2.43433 18.7825C2.66089 18.5603 2.80151 18.2986 2.8562 17.9924C2.90698 17.6912 2.93823 17.2566 2.94995 16.6887L2.99683 4.14551C2.99683 3.51341 2.94214 3.0344 2.84058 2.70353C2.73511 2.37761 2.56323 2.14057 2.32495 1.99242C2.09448 1.84921 1.76245 1.72576 1.32495 1.61711C1.0437 1.55292 0.864014 1.48872 0.793701 1.41958C0.731201 1.35539 0.699951 1.17761 0.699951 0.886249C0.699951 0.639335 0.750732 0.471434 0.856201 0.392422C0.969482 0.303534 1.14136 0.25415 1.37183 0.25415C2.41089 0.25415 3.2312 0.347978 3.82495 0.530694C4.42651 0.703533 4.95776 1.01958 5.4187 1.47884C5.87573 1.94304 6.37964 2.64427 6.93433 3.59242L13.7781 14.9702H13.8562L13.8093 4.14551C13.7859 3.56773 13.7507 3.12822 13.7 2.82205C13.6453 2.52082 13.5046 2.25909 13.2781 2.03193C13.0593 1.80971 12.7078 1.69613 12.2312 1.69613H12.075C11.907 1.69613 11.7859 1.6665 11.7156 1.59736C11.6414 1.51835 11.5945 1.33563 11.575 1.04427C11.575 0.846743 11.614 0.68378 11.7 0.550447C11.782 0.422052 11.8914 0.352916 12.0281 0.352916C13.0906 0.407237 13.8914 0.431928 14.4343 0.431928C14.7468 0.431928 15.3484 0.412175 16.2468 0.372669L16.7781 0.352916C16.9226 0.352916 17.032 0.422052 17.1062 0.550447C17.1882 0.68378 17.2312 0.846743 17.2312 1.04427C17.2078 1.36032 17.157 1.55292 17.075 1.61711C16.989 1.67143 16.8328 1.69613 16.6062 1.69613C16.114 1.69613 15.7546 1.80971 15.5281 2.03193C15.3093 2.25909 15.1726 2.52082 15.1218 2.82205C15.0789 3.12822 15.0476 3.56773 15.0281 4.14551L14.9812 20.0665C14.9578 20.343 14.7507 20.4813 14.3562 20.4813C14.032 20.4813 13.7859 20.343 13.6218 20.0665L4.19995 4.14551H4.12183L4.18433 16.6887C4.19214 17.2566 4.22339 17.6912 4.27808 17.9924C4.32886 18.2986 4.46558 18.5603 4.68433 18.7825C4.91089 19.0097 5.26636 19.1183 5.74683 19.1183H5.90308C6.06714 19.1183 6.18823 19.1579 6.26245 19.2369C6.33276 19.306 6.37964 19.4887 6.40308 19.79C6.40308 19.9776 6.36401 20.1406 6.2937 20.2838C6.21948 20.4122 6.1062 20.4813 5.94995 20.4813C4.88745 20.4122 4.07886 20.3825 3.52808 20.3825C3.19214 20.3825 2.61011 20.4023 1.77808 20.4418L1.19995 20.4813Z" fill="black"/>
</svg>
