<svg width="15" height="21" viewBox="0 0 15 21" fill="none" xmlns="http://www.w3.org/2000/svg">
<path d="M4.34692 20.4813C4.19849 20.4813 4.08911 20.4121 4.0188 20.2837C3.94458 20.1405 3.90942 19.9776 3.90942 19.7899C3.91724 19.4739 3.96411 19.2862 4.05005 19.2171C4.13208 19.1529 4.29224 19.1183 4.53442 19.1183C5.01099 19.1183 5.36646 19.0097 5.59692 18.7825C5.83521 18.5603 5.97974 18.2887 6.03442 17.9726C6.09692 17.6467 6.13599 17.2171 6.15942 16.6887V1.61707H4.42505C3.86255 1.63189 3.42505 1.78497 3.11255 2.07139C2.80786 2.34793 2.57349 2.77262 2.40942 3.33559C2.25317 3.88867 2.11645 4.68868 2.00317 5.72571C1.97974 5.88374 1.87817 6.01707 1.69067 6.12077C1.51099 6.22942 1.32349 6.2788 1.12817 6.2788C0.979736 6.2788 0.846924 6.22942 0.721924 6.12077C0.596924 6.00226 0.534424 5.84423 0.534424 5.6467L0.596924 1.20226C0.596924 0.688675 0.823486 0.431885 1.28442 0.431885H13.5032C13.9407 0.431885 14.1594 0.688675 14.1594 1.20226L14.2532 5.6467C14.2532 5.84423 14.1829 6.00226 14.0501 6.12077C13.9133 6.22942 13.7727 6.2788 13.6282 6.2788C13.429 6.2788 13.2415 6.22942 13.0657 6.12077C12.886 6.01707 12.7922 5.88374 12.7844 5.72571C12.6477 4.67386 12.5032 3.86892 12.3469 3.31584C12.1985 2.76275 11.9641 2.34793 11.6438 2.07139C11.3313 1.78497 10.8938 1.63189 10.3313 1.61707H8.62817V16.6887C8.64771 17.2171 8.68286 17.6467 8.73755 17.9726C8.80005 18.2887 8.94458 18.5603 9.17505 18.7825C9.41333 19.0097 9.77271 19.1183 10.2532 19.1183H10.4094C10.554 19.1183 10.6633 19.1578 10.7375 19.2368C10.8079 19.306 10.8547 19.4887 10.8782 19.7899C10.8782 19.9776 10.8391 20.1405 10.7688 20.2837C10.6946 20.4121 10.5813 20.4813 10.425 20.4813C9.36255 20.4121 8.37817 20.3825 7.47192 20.3825C6.47192 20.3825 5.42896 20.4121 4.34692 20.4813Z" fill="black"/>
</svg>
