<svg width="17" height="22" viewBox="0 0 17 22" fill="none" xmlns="http://www.w3.org/2000/svg">
<path d="M8.62842 21.6294C7.04248 21.6294 5.64795 21.1454 4.44092 20.1874C3.22998 19.2294 2.29248 17.9553 1.62842 16.375C0.972168 14.7948 0.644043 13.1059 0.644043 11.2985C0.644043 9.08616 1.03857 7.16023 1.83154 5.51085C2.62061 3.8664 3.63232 2.60714 4.86279 1.73801C6.10107 0.858995 7.35498 0.414551 8.62842 0.414551C10.2222 0.414551 11.6284 0.898501 12.8472 1.85653C14.0737 2.81949 15.019 4.08369 15.6753 5.64912C16.3394 7.21949 16.6753 8.90838 16.6753 10.7257C16.6753 12.938 16.2729 14.8738 15.4722 16.5331C14.6675 18.1825 13.644 19.4467 12.394 20.3257C11.144 21.1948 9.88623 21.6294 8.62842 21.6294ZM8.59717 20.2467C9.72998 20.2467 10.6753 19.822 11.4253 18.9627C12.1831 18.1084 12.7534 16.9627 13.1284 15.5257C13.5034 14.0787 13.6909 12.4787 13.6909 10.7257C13.6909 9.10591 13.4956 7.61949 13.1128 6.26146C12.7378 4.89356 12.1636 3.80714 11.394 3.00221C10.6323 2.18739 9.69873 1.77751 8.59717 1.77751C6.9292 1.77751 5.67529 2.67628 4.83154 4.46393C3.98779 6.24171 3.56592 8.48863 3.56592 11.1997C3.56592 12.8491 3.75342 14.3553 4.12842 15.7232C4.50342 17.096 5.06592 18.1923 5.81592 19.022C6.56592 19.8417 7.4917 20.2467 8.59717 20.2467Z" fill="black"/>
</svg>
