<svg width="5" height="10" viewBox="0 0 5 10" fill="none" xmlns="http://www.w3.org/2000/svg">
<path d="M0.688477 9.17505C0.532227 9.25406 0.395508 9.22443 0.282227 9.09603C0.16504 8.97752 0.110352 8.82443 0.110352 8.64171C0.110352 8.42937 0.192383 8.27628 0.360352 8.18739C1.0791 7.85653 1.61035 7.46147 1.9541 7.00221C2.30566 6.55282 2.48535 6.01455 2.48535 5.38245C2.48535 5.0269 2.39941 4.74048 2.23535 4.51332C2.06738 4.2911 1.83301 4.05406 1.53223 3.80221C1.22754 3.55529 1.00098 3.32319 0.844727 3.11085C0.688477 2.90344 0.610352 2.63677 0.610352 2.32073C0.610352 1.91579 0.735352 1.55036 0.985352 1.23431C1.23535 0.90838 1.52441 0.740479 1.86035 0.740479C2.3291 0.740479 2.75098 0.928132 3.12598 1.29356C3.50879 1.66394 3.81738 2.14295 4.04785 2.73554C4.27441 3.31826 4.3916 3.90097 4.3916 4.49357C4.3916 5.68863 4.03223 6.67134 3.31348 7.43678C2.59473 8.21208 1.71973 8.78986 0.688477 9.17505Z" fill="black"/>
</svg>
