<svg width="17" height="21" viewBox="0 0 17 21" fill="none" xmlns="http://www.w3.org/2000/svg">
<path d="M0.486938 20.4813C0.330688 20.4813 0.217407 20.4122 0.143188 20.2838C0.0728765 20.1406 0.0338135 19.9776 0.0338135 19.79C0.0455325 19.4739 0.0924075 19.2862 0.174438 19.2171C0.260376 19.1529 0.354126 19.1183 0.471313 19.1183C0.596313 19.1183 0.674438 19.1183 0.705688 19.1183C1.20569 19.1183 1.56897 18.9554 1.79944 18.6245C2.03772 18.2986 2.22522 17.9282 2.36194 17.5183C2.50647 17.1134 2.60413 16.8369 2.65881 16.6887L7.03381 3.59242C7.12756 3.27637 7.17444 3.02946 7.17444 2.8418C7.17444 2.46156 7.05725 2.18995 6.83069 2.03193C6.60022 1.86403 6.276 1.72576 5.86194 1.61711C5.56897 1.55292 5.39319 1.48872 5.33069 1.41958C5.26819 1.35539 5.23694 1.17761 5.23694 0.886249C5.23694 0.639335 5.28772 0.471434 5.39319 0.392422C5.49475 0.303534 5.66663 0.25415 5.90881 0.25415C6.74084 0.25415 7.401 0.333163 7.89319 0.491187C8.38147 0.649212 8.80725 0.965262 9.17444 1.43934C9.54944 1.91341 9.89319 2.6344 10.2057 3.59242L14.4088 16.6887C14.6588 17.4937 14.8971 18.0912 15.1276 18.4862C15.3658 18.8813 15.7135 19.0937 16.1744 19.1183H16.3307C16.4948 19.1183 16.6119 19.1579 16.6744 19.2369C16.7448 19.306 16.7877 19.4887 16.7994 19.79C16.7994 19.9776 16.7604 20.1406 16.6901 20.2838C16.6158 20.4122 16.5065 20.4813 16.3619 20.4813C15.2877 20.4122 14.3698 20.3825 13.6119 20.3825C12.6119 20.3825 11.5729 20.4122 10.5026 20.4813C10.3541 20.4813 10.2408 20.4122 10.1588 20.2838C10.0846 20.1406 10.0494 19.9776 10.0494 19.79C10.069 19.4887 10.1119 19.306 10.1744 19.2369C10.2448 19.1579 10.3658 19.1183 10.5338 19.1183C11.0963 19.1183 11.4908 19.0542 11.7213 18.9208C11.9596 18.7776 12.0807 18.5258 12.0807 18.1702C12.0807 17.8937 11.9791 17.3998 11.7838 16.6887L10.9244 14.0616H4.75256C4.33459 15.3653 4.09631 16.1258 4.03381 16.3332C3.97913 16.5455 3.95569 16.664 3.95569 16.6887C3.75647 17.4937 3.65881 18.0072 3.65881 18.2295C3.65881 18.585 3.78381 18.8221 4.03381 18.9406C4.28381 19.0591 4.75647 19.1183 5.45569 19.1183H5.61194C5.776 19.1183 5.89319 19.1579 5.95569 19.2369C6.01819 19.306 6.05725 19.4887 6.08069 19.79C6.08069 19.9776 6.04163 20.1406 5.97131 20.2838C5.89709 20.4122 5.78381 20.4813 5.62756 20.4813C4.56506 20.4122 3.65881 20.3825 2.90881 20.3825C2.37756 20.3825 1.56897 20.4122 0.486938 20.4813ZM5.23694 12.6986H10.4869L7.95569 4.58008H7.87756L5.23694 12.6986Z" fill="black"/>
</svg>
