<svg width="14" height="21" viewBox="0 0 14 21" fill="none" xmlns="http://www.w3.org/2000/svg">
<path d="M1.38403 20.4814C1.24731 20.4814 1.14185 20.4123 1.07153 20.2839C0.997314 20.1407 0.962158 19.9777 0.962158 19.7901C0.969971 19.474 1.01685 19.2864 1.10278 19.2172C1.18481 19.153 1.34497 19.1185 1.58716 19.1185C2.06372 19.1185 2.41919 19.0098 2.64966 18.7827C2.88794 18.5604 3.03247 18.2888 3.08716 17.9728C3.14966 17.6469 3.18872 17.2172 3.21216 16.6888V4.14562C3.18872 3.62216 3.14966 3.19253 3.08716 2.86167C3.03247 2.53574 2.88794 2.2592 2.64966 2.03204C2.41919 1.80982 2.06372 1.69624 1.58716 1.69624H1.43091C1.26294 1.69624 1.14185 1.66661 1.07153 1.59747C1.00903 1.51846 0.969971 1.33574 0.962158 1.04439C0.962158 0.846855 0.997314 0.683892 1.07153 0.550558C1.14185 0.422164 1.24731 0.353027 1.38403 0.353027C2.4856 0.407349 3.47778 0.43204 4.35278 0.43204C5.35278 0.43204 6.39185 0.407349 7.47778 0.353027C7.63403 0.353027 7.74731 0.422164 7.82153 0.550558C7.89185 0.683892 7.93091 0.846855 7.93091 1.04439C7.91919 1.36043 7.86841 1.55303 7.77466 1.61723C7.68091 1.67155 7.52466 1.69624 7.30591 1.69624C6.82544 1.69624 6.46606 1.80982 6.22778 2.03204C5.99731 2.2592 5.85278 2.53574 5.79028 2.86167C5.7356 3.19253 5.70044 3.62216 5.68091 4.14562V17.1629C5.71216 17.5975 5.75122 17.9432 5.80591 18.1901C5.85669 18.4271 6.00903 18.6543 6.25903 18.8617C6.50903 19.0592 6.89966 19.1481 7.43091 19.1185H9.68091C10.2629 19.0938 10.7043 18.9753 11.009 18.7629C11.3098 18.5407 11.5442 18.1999 11.7122 17.7357C11.8879 17.2617 12.1028 16.5012 12.3528 15.4444C12.4778 15.079 12.7629 14.9308 13.2122 15.0098C13.3567 15.0493 13.4973 15.1382 13.634 15.2666C13.7668 15.3851 13.8254 15.5432 13.8059 15.7407L13.3059 19.7111C13.2512 19.9876 13.1731 20.1753 13.0715 20.2641C12.9778 20.3432 12.8137 20.3827 12.5872 20.3827H4.38403C3.4856 20.3827 2.4856 20.4123 1.38403 20.4814Z" fill="black"/>
</svg>
