<svg width="17" height="23" viewBox="0 0 17 23" fill="none" xmlns="http://www.w3.org/2000/svg">
<path d="M8.64612 22.0146C7.1969 22.0146 5.8844 21.6294 4.70862 20.8689C3.54065 20.0936 2.61487 18.9233 1.92737 17.3529C1.23987 15.7875 0.896118 13.8517 0.896118 11.5455C0.896118 9.42697 1.26331 7.55536 2.00549 5.93561C2.75549 4.30598 3.78674 3.04178 5.09924 2.14301C6.41956 1.24919 7.93127 0.799805 9.63049 0.799805C10.4625 0.799805 11.2867 0.957829 12.0992 1.27388C12.9196 1.58993 13.5992 2.09363 14.1305 2.77511C14.6617 3.44672 14.9274 4.27635 14.9274 5.264C14.9274 6.18746 14.7086 6.9924 14.2711 7.67388C13.8414 8.34548 13.2711 8.68129 12.5524 8.68129C12.1969 8.68129 11.8571 8.57758 11.5367 8.36524C11.2125 8.15783 11.0406 7.88129 11.0211 7.53561C11.0211 7.52573 11.1344 7.41215 11.3649 7.1998C11.5914 6.9924 11.8024 6.70598 11.9899 6.35042C12.1774 5.98499 12.2711 5.55042 12.2711 5.04672C12.2711 4.16771 11.9938 3.44672 11.443 2.89363C10.9 2.34055 10.1969 2.064 9.33362 2.064C8.29065 2.064 7.35315 2.43437 6.52112 3.17018C5.68518 3.8961 5.02893 4.96277 4.55237 6.37018C4.0719 7.76771 3.83362 9.4319 3.83362 11.3677C3.83362 13.2393 4.06799 14.8591 4.53674 16.227C5.01331 17.5998 5.68127 18.6517 6.53674 19.3875C7.40002 20.1134 8.39612 20.4739 9.52112 20.4739C10.0602 20.4739 10.5289 20.4344 10.9274 20.3554C11.3219 20.2763 11.7555 20.148 12.2242 19.9603V16.7405C12.2242 16.0047 12.2008 15.4912 12.1617 15.1998C12.1188 14.8986 11.9821 14.6763 11.7555 14.5282C11.5367 14.385 11.1617 14.3109 10.6305 14.3109C10.443 14.3109 10.3063 14.2714 10.2242 14.1924C10.1383 14.1134 10.0914 13.9307 10.0836 13.6393C10.0836 13.4566 10.1227 13.2986 10.2086 13.1652C10.3024 13.022 10.4313 12.948 10.5992 12.948C11.65 13.0171 12.568 13.0467 13.3492 13.0467C14.0992 13.0467 14.9977 13.0171 16.0524 12.948C16.1969 12.948 16.3102 13.022 16.3961 13.1652C16.4781 13.2986 16.5211 13.4566 16.5211 13.6393C16.5094 13.9307 16.4625 14.1134 16.3805 14.1924C16.2946 14.2714 16.1617 14.3109 15.9742 14.3109C15.4742 14.3109 15.1149 14.3998 14.8961 14.5677C14.6852 14.7257 14.5563 14.9628 14.5055 15.2788C14.4508 15.585 14.4274 16.0689 14.4274 16.7405V20.4739C13.4469 21.0566 12.5446 21.4517 11.7242 21.6788C10.9117 21.901 9.8844 22.0146 8.64612 22.0146Z" fill="black"/>
</svg>
