<svg width="14" height="21" viewBox="0 0 14 21" fill="none" xmlns="http://www.w3.org/2000/svg">
<path d="M4.01746 20.4813C3.86902 20.4813 3.75964 20.4121 3.68933 20.2837C3.61511 20.1405 3.57996 19.9776 3.57996 19.7899C3.58777 19.4739 3.63464 19.2862 3.72058 19.2171C3.80261 19.1529 3.96277 19.1183 4.20496 19.1183C4.68152 19.1183 5.03699 19.0097 5.26746 18.7825C5.50574 18.5603 5.65027 18.2887 5.70496 17.9726C5.76746 17.6467 5.80652 17.2171 5.82996 16.6887V1.61707H4.09558C3.53308 1.63189 3.09558 1.78497 2.78308 2.07139C2.47839 2.34793 2.24402 2.77262 2.07996 3.33559C1.92371 3.88867 1.78699 4.68868 1.67371 5.72571C1.65027 5.88374 1.54871 6.01707 1.36121 6.12077C1.18152 6.22942 0.994018 6.2788 0.798706 6.2788C0.650268 6.2788 0.517456 6.22942 0.392456 6.12077C0.267456 6.00226 0.204956 5.84423 0.204956 5.6467L0.267456 1.20226C0.267456 0.688675 0.494018 0.431885 0.954956 0.431885H13.1737C13.6112 0.431885 13.83 0.688675 13.83 1.20226L13.9237 5.6467C13.9237 5.84423 13.8534 6.00226 13.7206 6.12077C13.5839 6.22942 13.4432 6.2788 13.2987 6.2788C13.0995 6.2788 12.912 6.22942 12.7362 6.12077C12.5565 6.01707 12.4628 5.88374 12.455 5.72571C12.3182 4.67386 12.1737 3.86892 12.0175 3.31584C11.869 2.76275 11.6346 2.34793 11.3143 2.07139C11.0018 1.78497 10.5643 1.63189 10.0018 1.61707H8.29871V16.6887C8.31824 17.2171 8.3534 17.6467 8.40808 17.9726C8.47058 18.2887 8.61511 18.5603 8.84558 18.7825C9.08386 19.0097 9.44324 19.1183 9.92371 19.1183H10.08C10.2245 19.1183 10.3339 19.1578 10.4081 19.2368C10.4784 19.306 10.5253 19.4887 10.5487 19.7899C10.5487 19.9776 10.5096 20.1405 10.4393 20.2837C10.3651 20.4121 10.2518 20.4813 10.0956 20.4813C9.03308 20.4121 8.04871 20.3825 7.14246 20.3825C6.14246 20.3825 5.09949 20.4121 4.01746 20.4813Z" fill="black"/>
</svg>
