<svg width="16" height="21" viewBox="0 0 16 21" fill="none" xmlns="http://www.w3.org/2000/svg">
<path d="M0.538574 20.4814C0.382324 20.4814 0.265136 20.4123 0.194824 20.2839C0.120605 20.1407 0.0854492 19.9777 0.0854492 19.7901C0.0932622 19.474 0.140136 19.2864 0.226074 19.2172C0.308105 19.153 0.468262 19.1185 0.710449 19.1185C1.18701 19.1185 1.54248 19.0098 1.77295 18.7827C2.01123 18.5604 2.15576 18.2888 2.21045 17.9728C2.27295 17.6469 2.31201 17.2172 2.33545 16.6888V4.16537C2.31201 3.6271 2.27295 3.19747 2.21045 2.88142C2.15576 2.56537 2.01123 2.28883 1.77295 2.05179C1.54248 1.81476 1.18701 1.69624 0.710449 1.69624H0.554199C0.38623 1.69624 0.265136 1.66661 0.194824 1.59747C0.132324 1.51846 0.0932622 1.33574 0.0854492 1.04439C0.0854492 0.846855 0.120605 0.683892 0.194824 0.550558C0.265136 0.422164 0.382324 0.353027 0.538574 0.353027C1.62061 0.407349 2.60889 0.43204 3.50732 0.43204H7.8042C9.08545 0.46167 10.1519 0.723398 11.0073 1.22216C11.8706 1.71105 12.4995 2.34315 12.8979 3.11846C13.3042 3.88389 13.5073 4.70858 13.5073 5.5876C13.5073 6.74809 13.1401 7.81476 12.4136 8.7876C11.6948 9.75056 10.7104 10.4419 9.46045 10.8617L9.88232 11.7308C10.5776 13.153 11.2104 14.3777 11.7729 15.4049C12.3433 16.432 12.9644 17.3901 13.6323 18.2691C14.1011 18.758 14.6011 19.0394 15.1323 19.1185C15.1636 19.1185 15.2339 19.1283 15.3511 19.1382C15.4761 19.153 15.5737 19.2123 15.6479 19.316C15.7183 19.4246 15.7573 19.5827 15.7573 19.7901C15.7573 19.9777 15.7183 20.1407 15.6479 20.2839C15.5737 20.4123 15.4604 20.4814 15.3042 20.4814L14.6636 20.4419C13.9214 20.4024 13.3862 20.3827 13.0542 20.3827C12.3862 20.2148 11.812 19.9185 11.3354 19.4938C10.8667 19.0592 10.3979 18.4419 9.9292 17.637C9.44873 16.837 8.77686 15.5234 7.91357 13.7061L7.46045 12.7975C7.21045 12.3135 6.96435 11.9827 6.72607 11.8098C6.4956 11.6271 6.10107 11.5333 5.53857 11.5333H4.8042V16.6888C4.82373 17.2172 4.85889 17.6469 4.91357 17.9728C4.97607 18.2888 5.1206 18.5604 5.35107 18.7827C5.58935 19.0098 5.94873 19.1185 6.4292 19.1185H6.58545C6.72998 19.1185 6.83935 19.158 6.91357 19.237C6.9956 19.3061 7.04248 19.4888 7.0542 19.7901C7.0542 19.9777 7.01514 20.1407 6.94482 20.2839C6.8706 20.4123 6.75732 20.4814 6.60107 20.4814C5.53857 20.4123 4.49561 20.3827 3.47607 20.3827C2.60107 20.3827 1.62061 20.4123 0.538574 20.4814ZM7.00732 10.3086C9.48389 10.3086 10.7261 8.83698 10.7261 5.88389C10.7261 4.67402 10.4019 3.66167 9.75732 2.84192C9.10889 2.0271 8.04248 1.61723 6.5542 1.61723C6.07373 1.61723 5.71045 1.6913 5.46045 1.83451C5.21045 1.98266 5.03857 2.22957 4.94482 2.58513C4.85107 2.94068 4.8042 3.48883 4.8042 4.22463V10.3086H7.00732Z" fill="black"/>
</svg>
