<svg width="17" height="21" viewBox="0 0 17 21" fill="none" xmlns="http://www.w3.org/2000/svg">
<path d="M5.62573 20.4813C5.47729 20.4813 5.36401 20.4122 5.28198 20.2838C5.20776 20.1406 5.17261 19.9776 5.17261 19.79C5.19214 19.4739 5.24292 19.2863 5.32886 19.2171C5.42261 19.1529 5.57886 19.1184 5.79761 19.1184C6.28589 19.1184 6.64526 19.0097 6.87573 18.7826C7.10229 18.5603 7.25073 18.2887 7.31323 17.9727C7.37573 17.6468 7.41089 17.2171 7.42261 16.6887V12.7381C7.42261 12.3974 7.00855 11.1727 6.18823 9.06405C5.36401 6.94553 4.69214 5.29121 4.17261 4.10602C3.83667 3.34553 3.46948 2.77763 3.06323 2.40726C2.66479 2.04183 2.17651 1.78504 1.59448 1.63689C1.53198 1.62701 1.43042 1.60726 1.29761 1.57763C1.16089 1.53812 1.07104 1.47393 1.03198 1.3801C0.989013 1.2764 0.969482 1.11837 0.969482 0.906025C0.969482 0.659112 1.02026 0.49121 1.12573 0.412197C1.23901 0.323308 1.41479 0.273926 1.65698 0.273926C2.98901 0.273926 4.03198 0.506025 4.78198 0.965284C5.53198 1.41467 6.19604 2.2838 6.78198 3.57269C7.06323 4.27393 7.45386 5.27146 7.95386 6.57516C8.68042 8.43195 9.16479 9.63195 9.40698 10.1702H9.46948L12.2507 3.25664C12.3953 2.83689 12.4695 2.52578 12.4695 2.32825C12.4695 2.08133 12.364 1.91343 12.157 1.83442C11.946 1.74553 11.614 1.69615 11.157 1.69615H11.0007C10.8328 1.69615 10.7117 1.66652 10.6414 1.59738C10.5789 1.51837 10.5398 1.33565 10.532 1.0443C10.532 0.846765 10.5671 0.683803 10.6414 0.550469C10.7117 0.422075 10.8171 0.352938 10.9539 0.352938C12.0359 0.407259 12.9421 0.43195 13.6726 0.43195C14.2859 0.43195 15.1296 0.407259 16.2039 0.352938C16.3484 0.352938 16.4578 0.422075 16.532 0.550469C16.614 0.683803 16.657 0.846765 16.657 1.0443C16.6335 1.33565 16.5867 1.51837 16.5164 1.59738C16.4539 1.66652 16.3367 1.69615 16.1726 1.69615C15.4929 1.69615 14.946 1.86405 14.532 2.18998C14.114 2.52084 13.739 3.07393 13.407 3.84923L10.5789 10.585C10.5242 10.7184 10.4226 10.9801 10.2664 11.3752C10.1179 11.7603 10.0203 12.1159 9.96948 12.4418C9.92651 12.7579 9.90698 13.1529 9.90698 13.627V16.6887C9.9148 17.2171 9.94605 17.6468 10.0007 17.9727C10.0632 18.2887 10.2078 18.5603 10.4382 18.7826C10.6765 19.0097 11.0398 19.1184 11.532 19.1184H11.6726C11.8367 19.1184 11.9539 19.1579 12.0164 19.2369C12.0867 19.306 12.1335 19.4887 12.157 19.79C12.157 19.9776 12.114 20.1406 12.032 20.2838C11.9578 20.4122 11.8523 20.4813 11.7195 20.4813C10.657 20.4122 9.65698 20.3826 8.71948 20.3826C7.73901 20.3826 6.70776 20.4122 5.62573 20.4813Z" fill="black"/>
</svg>
