<svg width="18" height="21" viewBox="0 0 18 21" fill="none" xmlns="http://www.w3.org/2000/svg">
<path d="M1.15381 20.711C0.997559 20.711 0.884278 20.6419 0.810059 20.5135C0.739747 20.3703 0.700684 20.2073 0.700684 20.0197C0.712403 19.7036 0.759278 19.516 0.841309 19.4468C0.927246 19.3827 1.021 19.3481 1.13818 19.3481C1.26318 19.3481 1.34131 19.3481 1.37256 19.3481C1.87256 19.3481 2.23584 19.1851 2.46631 18.8543C2.70459 18.5283 2.89209 18.158 3.02881 17.7481C3.17334 17.3431 3.271 17.0666 3.32568 16.9185L7.70068 3.82216C7.79443 3.50611 7.84131 3.2592 7.84131 3.07154C7.84131 2.69129 7.72412 2.41969 7.49756 2.26166C7.26709 2.09376 6.94287 1.95549 6.52881 1.84685C6.23584 1.78265 6.06006 1.71846 5.99756 1.64932C5.93506 1.58512 5.90381 1.40734 5.90381 1.11599C5.90381 0.869071 5.95459 0.701171 6.06006 0.622158C6.16162 0.53327 6.3335 0.483887 6.57568 0.483887C7.40772 0.483887 8.06787 0.562899 8.56006 0.720924C9.04834 0.878948 9.47412 1.195 9.84131 1.66907C10.2163 2.14315 10.5601 2.86413 10.8726 3.82216L15.0757 16.9185C15.3257 17.7234 15.564 18.3209 15.7944 18.716C16.0327 19.111 16.3804 19.3234 16.8413 19.3481H16.9976C17.1616 19.3481 17.2788 19.3876 17.3413 19.4666C17.4116 19.5357 17.4546 19.7185 17.4663 20.0197C17.4663 20.2073 17.4272 20.3703 17.3569 20.5135C17.2827 20.6419 17.1733 20.711 17.0288 20.711C15.9546 20.6419 15.0366 20.6123 14.2788 20.6123C13.2788 20.6123 12.2397 20.6419 11.1694 20.711C11.021 20.711 10.9077 20.6419 10.8257 20.5135C10.7515 20.3703 10.7163 20.2073 10.7163 20.0197C10.7358 19.7185 10.7788 19.5357 10.8413 19.4666C10.9116 19.3876 11.0327 19.3481 11.2007 19.3481C11.7632 19.3481 12.1577 19.2839 12.3882 19.1506C12.6265 19.0073 12.7476 18.7555 12.7476 18.3999C12.7476 18.1234 12.646 17.6296 12.4507 16.9185L11.5913 14.2913H5.41943C5.00147 15.595 4.76318 16.3555 4.70068 16.5629C4.646 16.7752 4.62256 16.8938 4.62256 16.9185C4.42334 17.7234 4.32568 18.237 4.32568 18.4592C4.32568 18.8148 4.45068 19.0518 4.70068 19.1703C4.95068 19.2888 5.42334 19.3481 6.12256 19.3481H6.27881C6.44287 19.3481 6.56006 19.3876 6.62256 19.4666C6.68506 19.5357 6.72412 19.7185 6.74756 20.0197C6.74756 20.2073 6.7085 20.3703 6.63818 20.5135C6.56397 20.6419 6.45068 20.711 6.29443 20.711C5.23193 20.6419 4.32568 20.6123 3.57568 20.6123C3.04443 20.6123 2.23584 20.6419 1.15381 20.711ZM5.90381 12.9283H11.1538L8.62256 4.80981H8.54443L5.90381 12.9283Z" fill="black"/>
</svg>
