<svg width="18" height="22" viewBox="0 0 18 22" fill="none" xmlns="http://www.w3.org/2000/svg">
<path d="M0.943726 21.0961C0.787476 21.0961 0.674195 21.0269 0.599976 20.8985C0.529664 20.7553 0.490601 20.5924 0.490601 20.4047C0.50232 20.0886 0.549195 19.901 0.631226 19.8319C0.717163 19.7677 0.810913 19.7331 0.928101 19.7331C1.0531 19.7331 1.13123 19.7331 1.16248 19.7331C1.66248 19.7331 2.02576 19.5701 2.25623 19.2393C2.49451 18.9133 2.68201 18.543 2.81873 18.1331C2.96326 17.7282 3.06091 17.4516 3.1156 17.3035L7.4906 4.20717C7.58435 3.89112 7.63123 3.64421 7.63123 3.45655C7.63123 3.0763 7.51404 2.8047 7.28748 2.64667C7.05701 2.47877 6.73279 2.3405 6.31873 2.23186C6.02576 2.16766 5.84998 2.10347 5.78748 2.03433C5.72498 1.97013 5.69373 1.79235 5.69373 1.501C5.69373 1.25408 5.74451 1.08618 5.84998 1.00717C5.95154 0.91828 6.12341 0.868896 6.3656 0.868896C7.19763 0.868896 7.85779 0.947909 8.34998 1.10593C8.83826 1.26396 9.26404 1.58001 9.63123 2.05408C10.0062 2.52816 10.35 3.24914 10.6625 4.20717L14.8656 17.3035C15.1156 18.1084 15.3539 18.7059 15.5844 19.101C15.8226 19.4961 16.1703 19.7084 16.6312 19.7331H16.7875C16.9515 19.7331 17.0687 19.7726 17.1312 19.8516C17.2015 19.9207 17.2445 20.1035 17.2562 20.4047C17.2562 20.5924 17.2172 20.7553 17.1469 20.8985C17.0726 21.0269 16.9633 21.0961 16.8187 21.0961C15.7445 21.0269 14.8265 20.9973 14.0687 20.9973C13.0687 20.9973 12.0297 21.0269 10.9594 21.0961C10.8109 21.0961 10.6976 21.0269 10.6156 20.8985C10.5414 20.7553 10.5062 20.5924 10.5062 20.4047C10.5258 20.1035 10.5687 19.9207 10.6312 19.8516C10.7015 19.7726 10.8226 19.7331 10.9906 19.7331C11.5531 19.7331 11.9476 19.6689 12.1781 19.5356C12.4164 19.3924 12.5375 19.1405 12.5375 18.7849C12.5375 18.5084 12.4359 18.0146 12.2406 17.3035L11.3812 14.6763H5.20935C4.79138 15.98 4.5531 16.7405 4.4906 16.9479C4.43591 17.1603 4.41248 17.2788 4.41248 17.3035C4.21326 18.1084 4.1156 18.622 4.1156 18.8442C4.1156 19.1998 4.2406 19.4368 4.4906 19.5553C4.7406 19.6738 5.21326 19.7331 5.91248 19.7331H6.06873C6.23279 19.7331 6.34998 19.7726 6.41248 19.8516C6.47498 19.9207 6.51404 20.1035 6.53748 20.4047C6.53748 20.5924 6.49841 20.7553 6.4281 20.8985C6.35388 21.0269 6.2406 21.0961 6.08435 21.0961C5.02185 21.0269 4.1156 20.9973 3.3656 20.9973C2.83435 20.9973 2.02576 21.0269 0.943726 21.0961ZM5.69373 13.3133H10.9437L8.41248 5.19482H8.33435L5.69373 13.3133Z" fill="black"/>
</svg>
