<svg width="18" height="21" viewBox="0 0 18 21" fill="none" xmlns="http://www.w3.org/2000/svg">
<path d="M1.03357 20.4813C0.885132 20.4813 0.77185 20.4122 0.689819 20.2838C0.6156 20.1406 0.580444 19.9776 0.580444 19.79C0.599975 19.4739 0.650756 19.2862 0.736694 19.2171C0.818725 19.1529 0.974975 19.1183 1.20544 19.1183C1.69373 19.1183 2.04919 19.0097 2.26794 18.7825C2.49451 18.5603 2.63513 18.2986 2.68982 17.9924C2.7406 17.6912 2.77185 17.2566 2.78357 16.6887L2.83044 4.14551C2.83044 3.51341 2.77576 3.0344 2.67419 2.70353C2.56873 2.37761 2.39685 2.14057 2.15857 1.99242C1.9281 1.84921 1.59607 1.72576 1.15857 1.61711C0.877319 1.55292 0.697632 1.48872 0.627319 1.41958C0.564819 1.35539 0.533569 1.17761 0.533569 0.886249C0.533569 0.639335 0.58435 0.471434 0.689819 0.392422C0.8031 0.303534 0.974975 0.25415 1.20544 0.25415C2.24451 0.25415 3.06482 0.347978 3.65857 0.530694C4.26013 0.703533 4.79138 1.01958 5.25232 1.47884C5.70935 1.94304 6.21326 2.64427 6.76795 3.59242L13.6117 14.9702H13.6898L13.6429 4.14551C13.6195 3.56773 13.5844 3.12822 13.5336 2.82205C13.4789 2.52082 13.3383 2.25909 13.1117 2.03193C12.8929 1.80971 12.5414 1.69613 12.0648 1.69613H11.9086C11.7406 1.69613 11.6195 1.6665 11.5492 1.59736C11.475 1.51835 11.4281 1.33563 11.4086 1.04427C11.4086 0.846743 11.4476 0.68378 11.5336 0.550447C11.6156 0.422052 11.725 0.352916 11.8617 0.352916C12.9242 0.407237 13.725 0.431928 14.2679 0.431928C14.5804 0.431928 15.182 0.412175 16.0804 0.372669L16.6117 0.352916C16.7562 0.352916 16.8656 0.422052 16.9398 0.550447C17.0219 0.68378 17.0648 0.846743 17.0648 1.04427C17.0414 1.36032 16.9906 1.55292 16.9086 1.61711C16.8226 1.67143 16.6664 1.69613 16.4398 1.69613C15.9476 1.69613 15.5883 1.80971 15.3617 2.03193C15.1429 2.25909 15.0062 2.52082 14.9554 2.82205C14.9125 3.12822 14.8812 3.56773 14.8617 4.14551L14.8148 20.0665C14.7914 20.343 14.5844 20.4813 14.1898 20.4813C13.8656 20.4813 13.6195 20.343 13.4554 20.0665L4.03357 4.14551H3.95544L4.01794 16.6887C4.02576 17.2566 4.05701 17.6912 4.11169 17.9924C4.16248 18.2986 4.29919 18.5603 4.51794 18.7825C4.74451 19.0097 5.09998 19.1183 5.58044 19.1183H5.73669C5.90076 19.1183 6.02185 19.1579 6.09607 19.2369C6.16638 19.306 6.21326 19.4887 6.23669 19.79C6.23669 19.9776 6.19763 20.1406 6.12732 20.2838C6.0531 20.4122 5.93982 20.4813 5.78357 20.4813C4.72107 20.4122 3.91248 20.3825 3.36169 20.3825C3.02576 20.3825 2.44373 20.4023 1.61169 20.4418L1.03357 20.4813Z" fill="black"/>
</svg>
