<svg width="14" height="22" viewBox="0 0 14 22" fill="none" xmlns="http://www.w3.org/2000/svg">
<path d="M1.16626 21.0962C1.02954 21.0962 0.924072 21.027 0.85376 20.8986C0.779541 20.7554 0.744385 20.5925 0.744385 20.4048C0.752198 20.0888 0.799072 19.9011 0.88501 19.832C0.967041 19.7678 1.1272 19.7332 1.36938 19.7332C1.84595 19.7332 2.20142 19.6246 2.43189 19.3974C2.67017 19.1752 2.8147 18.9036 2.86939 18.5875C2.93189 18.2616 2.97095 17.832 2.99439 17.3036V4.76037C2.97095 4.23691 2.93189 3.80728 2.86939 3.47642C2.8147 3.15049 2.67017 2.87395 2.43189 2.64679C2.20142 2.42456 1.84595 2.31098 1.36938 2.31098H1.21313C1.04517 2.31098 0.924072 2.28135 0.85376 2.21222C0.79126 2.13321 0.752198 1.95049 0.744385 1.65913C0.744385 1.4616 0.779541 1.29864 0.85376 1.1653C0.924072 1.03691 1.02954 0.967773 1.16626 0.967773C2.26782 1.02209 3.26001 1.04679 4.13501 1.04679H11.9944C12.4202 1.04679 12.635 1.30358 12.635 1.81716L12.7131 6.24185C12.7131 6.4295 12.635 6.57765 12.4788 6.69617C12.3303 6.81469 12.1858 6.87395 12.0413 6.87395C11.842 6.87395 11.6663 6.8295 11.51 6.73568C11.3616 6.63197 11.2795 6.48876 11.26 6.30111C11.135 5.27395 10.9866 4.4937 10.8225 3.95049C10.6663 3.41222 10.4319 3.01222 10.1194 2.74555C9.8147 2.48382 9.38501 2.34061 8.82251 2.31098H5.46314V10.3505H9.99439C10.1077 10.3653 10.1975 10.4443 10.26 10.5875C10.3303 10.7209 10.3694 10.8838 10.3694 11.0814C10.3694 11.2394 10.3303 11.3875 10.26 11.5159C10.1975 11.6493 10.1077 11.7135 9.99439 11.7135H5.46314V17.6789C5.49439 18.1283 5.53345 18.4838 5.58814 18.7456C5.63892 19.0122 5.79126 19.2493 6.04126 19.4567C6.29126 19.669 6.68189 19.7628 7.21314 19.7332H9.51001C10.092 19.7085 10.5334 19.59 10.8381 19.3777C11.1389 19.1554 11.3772 18.8147 11.5569 18.3505C11.7327 17.8764 11.9475 17.1159 12.1975 16.0591C12.3108 15.6937 12.592 15.5456 13.0413 15.6246C13.2053 15.6641 13.3538 15.753 13.4788 15.8814C13.6038 15.9999 13.6545 16.1579 13.635 16.3554L13.135 20.3258C13.092 20.6023 13.0178 20.79 12.9163 20.8789C12.8108 20.9579 12.6428 20.9974 12.4163 20.9974H4.16626C3.26782 20.9974 2.26782 21.027 1.16626 21.0962Z" fill="black"/>
</svg>
