<svg width="18" height="22" viewBox="0 0 18 22" fill="none" xmlns="http://www.w3.org/2000/svg">
<path d="M1.42285 21.0961C1.27441 21.0961 1.16113 21.0269 1.0791 20.8985C1.00488 20.7553 0.969727 20.5924 0.969727 20.4047C0.989258 20.0886 1.04004 19.901 1.12598 19.8319C1.20801 19.7677 1.36426 19.7331 1.59473 19.7331C2.08301 19.7331 2.43848 19.6245 2.65723 19.3973C2.88379 19.1751 3.02441 18.9133 3.0791 18.6072C3.12988 18.3059 3.16113 17.8714 3.17285 17.3035L3.21973 4.76025C3.21973 4.12816 3.16504 3.64914 3.06348 3.31828C2.95801 2.99235 2.78613 2.75532 2.54785 2.60717C2.31738 2.46396 1.98535 2.3405 1.54785 2.23186C1.2666 2.16766 1.08691 2.10347 1.0166 2.03433C0.954102 1.97013 0.922852 1.79235 0.922852 1.501C0.922852 1.25408 0.973633 1.08618 1.0791 1.00717C1.19238 0.91828 1.36426 0.868896 1.59473 0.868896C2.63379 0.868896 3.4541 0.962724 4.04785 1.14544C4.64941 1.31828 5.18066 1.63433 5.6416 2.09359C6.09863 2.55778 6.60254 3.25902 7.15723 4.20717L14.001 15.5849H14.0791L14.0322 4.76025C14.0088 4.18248 13.9736 3.74297 13.9229 3.4368C13.8682 3.13556 13.7275 2.87383 13.501 2.64667C13.2822 2.42445 12.9307 2.31087 12.4541 2.31087H12.2979C12.1299 2.31087 12.0088 2.28124 11.9385 2.21211C11.8643 2.13309 11.8174 1.95038 11.7979 1.65902C11.7979 1.46149 11.8369 1.29853 11.9229 1.16519C12.0049 1.0368 12.1143 0.967662 12.251 0.967662C13.3135 1.02198 14.1143 1.04667 14.6572 1.04667C14.9697 1.04667 15.5713 1.02692 16.4697 0.987415L17.001 0.967662C17.1455 0.967662 17.2549 1.0368 17.3291 1.16519C17.4111 1.29853 17.4541 1.46149 17.4541 1.65902C17.4307 1.97507 17.3799 2.16766 17.2979 2.23186C17.2119 2.28618 17.0557 2.31087 16.8291 2.31087C16.3369 2.31087 15.9775 2.42445 15.751 2.64667C15.5322 2.87383 15.3955 3.13556 15.3447 3.4368C15.3018 3.74297 15.2705 4.18248 15.251 4.76025L15.2041 20.6812C15.1807 20.9578 14.9736 21.0961 14.5791 21.0961C14.2549 21.0961 14.0088 20.9578 13.8447 20.6812L4.42285 4.76025H4.34473L4.40723 17.3035C4.41504 17.8714 4.44629 18.3059 4.50098 18.6072C4.55176 18.9133 4.68848 19.1751 4.90723 19.3973C5.13379 19.6245 5.48926 19.7331 5.96973 19.7331H6.12598C6.29004 19.7331 6.41113 19.7726 6.48535 19.8516C6.55566 19.9207 6.60254 20.1035 6.62598 20.4047C6.62598 20.5924 6.58691 20.7553 6.5166 20.8985C6.44238 21.0269 6.3291 21.0961 6.17285 21.0961C5.11035 21.0269 4.30176 20.9973 3.75098 20.9973C3.41504 20.9973 2.83301 21.017 2.00098 21.0566L1.42285 21.0961Z" fill="black"/>
</svg>
