<svg width="18" height="22" viewBox="0 0 18 22" fill="none" xmlns="http://www.w3.org/2000/svg">
<path d="M1.43188 21.0961C1.27563 21.0961 1.16235 21.0269 1.08813 20.8985C1.01782 20.7553 0.97876 20.5924 0.97876 20.4047C0.990479 20.0886 1.03735 19.901 1.11938 19.8319C1.20532 19.7677 1.29907 19.7331 1.41626 19.7331C1.54126 19.7331 1.61938 19.7331 1.65063 19.7331C2.15063 19.7331 2.51392 19.5701 2.74438 19.2393C2.98267 18.9133 3.17017 18.543 3.30688 18.1331C3.45142 17.7282 3.54907 17.4516 3.60376 17.3035L7.97876 4.20717C8.07251 3.89112 8.11938 3.64421 8.11938 3.45655C8.11938 3.0763 8.0022 2.8047 7.77563 2.64667C7.54517 2.47877 7.22095 2.3405 6.80688 2.23186C6.51392 2.16766 6.33813 2.10347 6.27563 2.03433C6.21313 1.97013 6.18188 1.79235 6.18188 1.501C6.18188 1.25408 6.23267 1.08618 6.33813 1.00717C6.4397 0.91828 6.61157 0.868896 6.85376 0.868896C7.68579 0.868896 8.34595 0.947909 8.83813 1.10593C9.32642 1.26396 9.7522 1.58001 10.1194 2.05408C10.4944 2.52816 10.8381 3.24914 11.1506 4.20717L15.3538 17.3035C15.6038 18.1084 15.842 18.7059 16.0725 19.101C16.3108 19.4961 16.6584 19.7084 17.1194 19.7331H17.2756C17.4397 19.7331 17.5569 19.7726 17.6194 19.8516C17.6897 19.9207 17.7327 20.1035 17.7444 20.4047C17.7444 20.5924 17.7053 20.7553 17.635 20.8985C17.5608 21.0269 17.4514 21.0961 17.3069 21.0961C16.2327 21.0269 15.3147 20.9973 14.5569 20.9973C13.5569 20.9973 12.5178 21.0269 11.4475 21.0961C11.2991 21.0961 11.1858 21.0269 11.1038 20.8985C11.0295 20.7553 10.9944 20.5924 10.9944 20.4047C11.0139 20.1035 11.0569 19.9207 11.1194 19.8516C11.1897 19.7726 11.3108 19.7331 11.4788 19.7331C12.0413 19.7331 12.4358 19.6689 12.6663 19.5356C12.9045 19.3924 13.0256 19.1405 13.0256 18.7849C13.0256 18.5084 12.9241 18.0146 12.7288 17.3035L11.8694 14.6763H5.69751C5.27954 15.98 5.04126 16.7405 4.97876 16.9479C4.92407 17.1603 4.90063 17.2788 4.90063 17.3035C4.70142 18.1084 4.60376 18.622 4.60376 18.8442C4.60376 19.1998 4.72876 19.4368 4.97876 19.5553C5.22876 19.6738 5.70142 19.7331 6.40063 19.7331H6.55688C6.72095 19.7331 6.83813 19.7726 6.90063 19.8516C6.96313 19.9207 7.0022 20.1035 7.02563 20.4047C7.02563 20.5924 6.98657 20.7553 6.91626 20.8985C6.84204 21.0269 6.72876 21.0961 6.57251 21.0961C5.51001 21.0269 4.60376 20.9973 3.85376 20.9973C3.32251 20.9973 2.51392 21.0269 1.43188 21.0961ZM6.18188 13.3133H11.4319L8.90063 5.19482H8.82251L6.18188 13.3133Z" fill="black"/>
</svg>
