<svg width="13" height="22" viewBox="0 0 13 22" fill="none" xmlns="http://www.w3.org/2000/svg">
<path d="M0.430542 21.0962C0.293823 21.0962 0.188354 21.027 0.118042 20.8986C0.043823 20.7554 0.00866699 20.5925 0.00866699 20.4048C0.01648 20.0888 0.063354 19.9011 0.149292 19.832C0.231323 19.7678 0.39148 19.7332 0.633667 19.7332C1.11023 19.7332 1.4657 19.6246 1.69617 19.3974C1.93445 19.1752 2.07898 18.9036 2.13367 18.5875C2.19617 18.2616 2.23523 17.832 2.25867 17.3036V4.76037C2.23523 4.23691 2.19617 3.80728 2.13367 3.47642C2.07898 3.15049 1.93445 2.87395 1.69617 2.64679C1.4657 2.42456 1.11023 2.31098 0.633667 2.31098H0.477417C0.309448 2.31098 0.188354 2.28135 0.118042 2.21222C0.055542 2.13321 0.01648 1.95049 0.00866699 1.65913C0.00866699 1.4616 0.043823 1.29864 0.118042 1.1653C0.188354 1.03691 0.293823 0.967773 0.430542 0.967773C1.5321 1.02209 2.52429 1.04679 3.39929 1.04679C4.39929 1.04679 5.43835 1.02209 6.52429 0.967773C6.68054 0.967773 6.79382 1.03691 6.86804 1.1653C6.93835 1.29864 6.97742 1.4616 6.97742 1.65913C6.9657 1.97518 6.91492 2.16777 6.82117 2.23197C6.72742 2.28629 6.57117 2.31098 6.35242 2.31098C5.87195 2.31098 5.51257 2.42456 5.27429 2.64679C5.04382 2.87395 4.89929 3.15049 4.83679 3.47642C4.7821 3.80728 4.74695 4.23691 4.72742 4.76037V17.7777C4.75867 18.2122 4.79773 18.5579 4.85242 18.8048C4.9032 19.0418 5.05554 19.269 5.30554 19.4764C5.55554 19.6739 5.94617 19.7628 6.47742 19.7332H8.72742C9.30945 19.7085 9.75086 19.59 10.0555 19.3777C10.3563 19.1554 10.5907 18.8147 10.7587 18.3505C10.9344 17.8764 11.1493 17.1159 11.3993 16.0591C11.5243 15.6937 11.8094 15.5456 12.2587 15.6246C12.4032 15.6641 12.5438 15.753 12.6805 15.8814C12.8134 15.9999 12.8719 16.1579 12.8524 16.3554L12.3524 20.3258C12.2977 20.6023 12.2196 20.79 12.118 20.8789C12.0243 20.9579 11.8602 20.9974 11.6337 20.9974H3.43054C2.5321 20.9974 1.5321 21.027 0.430542 21.0962Z" fill="black"/>
</svg>
