<svg width="17" height="22" viewBox="0 0 17 22" fill="none" xmlns="http://www.w3.org/2000/svg">
<path d="M7.98352 21.6294C6.39758 21.6294 5.00305 21.1454 3.79602 20.1874C2.58508 19.2294 1.64758 17.9553 0.983521 16.375C0.327271 14.7948 -0.000854492 13.1059 -0.000854492 11.2985C-0.000854492 9.08616 0.393677 7.16023 1.18665 5.51085C1.97571 3.8664 2.98743 2.60714 4.2179 1.73801C5.45618 0.858995 6.71008 0.414551 7.98352 0.414551C9.57727 0.414551 10.9835 0.898501 12.2023 1.85653C13.4288 2.81949 14.3741 4.08369 15.0304 5.64912C15.6945 7.21949 16.0304 8.90838 16.0304 10.7257C16.0304 12.938 15.6281 14.8738 14.8273 16.5331C14.0226 18.1825 12.9991 19.4467 11.7491 20.3257C10.4991 21.1948 9.24133 21.6294 7.98352 21.6294ZM7.95227 20.2467C9.08508 20.2467 10.0304 19.822 10.7804 18.9627C11.5382 18.1084 12.1085 16.9627 12.4835 15.5257C12.8585 14.0787 13.046 12.4787 13.046 10.7257C13.046 9.10591 12.8507 7.61949 12.4679 6.26146C12.0929 4.89356 11.5187 3.80714 10.7491 3.00221C9.98743 2.18739 9.05383 1.77751 7.95227 1.77751C6.2843 1.77751 5.0304 2.67628 4.18665 4.46393C3.3429 6.24171 2.92102 8.48863 2.92102 11.1997C2.92102 12.8491 3.10852 14.3553 3.48352 15.7232C3.85852 17.096 4.42102 18.1923 5.17102 19.022C5.92102 19.8417 6.8468 20.2467 7.95227 20.2467Z" fill="black"/>
</svg>
