<svg width="8" height="21" viewBox="0 0 8 21" fill="none" xmlns="http://www.w3.org/2000/svg">
<path d="M0.656738 20.4814C0.5083 20.4814 0.395019 20.4123 0.312988 20.2839C0.238769 20.1407 0.203613 19.9777 0.203613 19.7901C0.223144 19.474 0.273926 19.2864 0.359863 19.2172C0.453613 19.153 0.609863 19.1185 0.828613 19.1185C1.31689 19.1185 1.67627 19.0098 1.90674 18.7827C2.1333 18.5604 2.28174 18.2888 2.34424 17.9728C2.41455 17.6567 2.46143 17.232 2.48486 16.6888V4.14562C2.46143 3.59253 2.41455 3.15797 2.34424 2.84192C2.28174 2.52587 2.1333 2.2592 1.90674 2.03204C1.67627 1.80982 1.31689 1.69624 0.828613 1.69624H0.687988C0.531738 1.69624 0.41455 1.66661 0.344238 1.59747C0.270019 1.51846 0.223144 1.33574 0.203613 1.04439C0.203613 0.846855 0.238769 0.683892 0.312988 0.550558C0.395019 0.422164 0.5083 0.353027 0.656738 0.353027C1.73877 0.407349 2.72705 0.43204 3.62549 0.43204C4.62549 0.43204 5.66455 0.407349 6.75049 0.353027C6.90674 0.353027 7.02002 0.422164 7.09424 0.550558C7.16455 0.683892 7.20361 0.846855 7.20361 1.04439C7.1919 1.36043 7.14111 1.55303 7.04736 1.61723C6.95361 1.67155 6.78955 1.69624 6.56299 1.69624C6.0708 1.69624 5.70752 1.80982 5.46924 2.03204C5.23877 2.2592 5.09424 2.53574 5.03174 2.86167C4.97705 3.19253 4.9458 3.62216 4.93799 4.14562V16.6888C4.9458 17.2172 4.97705 17.6469 5.03174 17.9728C5.09424 18.2888 5.23877 18.5604 5.46924 18.7827C5.70752 19.0098 6.0708 19.1185 6.56299 19.1185H6.70361C6.86768 19.1185 6.98877 19.158 7.06299 19.237C7.14502 19.3061 7.1919 19.4888 7.20361 19.7901C7.20361 19.9777 7.16455 20.1407 7.09424 20.2839C7.02002 20.4123 6.90674 20.4814 6.75049 20.4814C5.68799 20.4123 4.65674 20.3827 3.65674 20.3827C2.73877 20.3827 1.73877 20.4123 0.656738 20.4814Z" fill="black"/>
</svg>
