<svg width="18" height="21" viewBox="0 0 18 21" fill="none" xmlns="http://www.w3.org/2000/svg">
<path d="M0.717773 20.4813C0.561523 20.4813 0.448242 20.4122 0.374023 20.2838C0.303711 20.1406 0.264648 19.9776 0.264648 19.79C0.276367 19.4739 0.323242 19.2862 0.405273 19.2171C0.491211 19.1529 0.584961 19.1183 0.702148 19.1183C0.827148 19.1183 0.905273 19.1183 0.936523 19.1183C1.43652 19.1183 1.7998 18.9554 2.03027 18.6245C2.26855 18.2986 2.45605 17.9282 2.59277 17.5183C2.7373 17.1134 2.83496 16.8369 2.88965 16.6887L7.26465 3.59242C7.3584 3.27637 7.40527 3.02946 7.40527 2.8418C7.40527 2.46156 7.28809 2.18995 7.06152 2.03193C6.83105 1.86403 6.50684 1.72576 6.09277 1.61711C5.7998 1.55292 5.62402 1.48872 5.56152 1.41958C5.49902 1.35539 5.46777 1.17761 5.46777 0.886249C5.46777 0.639335 5.51855 0.471434 5.62402 0.392422C5.72559 0.303534 5.89746 0.25415 6.13965 0.25415C6.97168 0.25415 7.63184 0.333163 8.12402 0.491187C8.6123 0.649212 9.03808 0.965262 9.40527 1.43934C9.78027 1.91341 10.124 2.6344 10.4365 3.59242L14.6396 16.6887C14.8896 17.4937 15.1279 18.0912 15.3584 18.4862C15.5967 18.8813 15.9443 19.0937 16.4053 19.1183H16.5615C16.7256 19.1183 16.8428 19.1579 16.9053 19.2369C16.9756 19.306 17.0186 19.4887 17.0303 19.79C17.0303 19.9776 16.9912 20.1406 16.9209 20.2838C16.8467 20.4122 16.7373 20.4813 16.5928 20.4813C15.5186 20.4122 14.6006 20.3825 13.8428 20.3825C12.8428 20.3825 11.8037 20.4122 10.7334 20.4813C10.585 20.4813 10.4717 20.4122 10.3896 20.2838C10.3154 20.1406 10.2803 19.9776 10.2803 19.79C10.2998 19.4887 10.3428 19.306 10.4053 19.2369C10.4756 19.1579 10.5967 19.1183 10.7646 19.1183C11.3271 19.1183 11.7217 19.0542 11.9521 18.9208C12.1904 18.7776 12.3115 18.5258 12.3115 18.1702C12.3115 17.8937 12.21 17.3998 12.0146 16.6887L11.1553 14.0616H4.9834C4.56543 15.3653 4.32715 16.1258 4.26465 16.3332C4.20996 16.5455 4.18652 16.664 4.18652 16.6887C3.9873 17.4937 3.88965 18.0072 3.88965 18.2295C3.88965 18.585 4.01465 18.8221 4.26465 18.9406C4.51465 19.0591 4.9873 19.1183 5.68652 19.1183H5.84277C6.00684 19.1183 6.12402 19.1579 6.18652 19.2369C6.24902 19.306 6.28809 19.4887 6.31152 19.79C6.31152 19.9776 6.27246 20.1406 6.20215 20.2838C6.12793 20.4122 6.01465 20.4813 5.8584 20.4813C4.7959 20.4122 3.88965 20.3825 3.13965 20.3825C2.6084 20.3825 1.7998 20.4122 0.717773 20.4813ZM5.46777 12.6986H10.7178L8.18652 4.58008H8.1084L5.46777 12.6986Z" fill="black"/>
</svg>
