<svg width="15" height="22" viewBox="0 0 15 22" fill="none" xmlns="http://www.w3.org/2000/svg">
<path d="M1.09814 21.0962C0.961426 21.0962 0.852051 21.027 0.77002 20.8986C0.684083 20.7554 0.64502 20.5925 0.64502 20.4048C0.664551 20.0888 0.715333 19.9011 0.80127 19.832C0.89502 19.7678 1.05908 19.7332 1.30127 19.7332C1.77783 19.7332 2.1333 19.6246 2.36377 19.3974C2.60205 19.1752 2.74658 18.9036 2.80127 18.5875C2.86377 18.2616 2.90283 17.832 2.92627 17.3036V4.76037C2.90283 4.23691 2.86377 3.80728 2.80127 3.47642C2.74658 3.15049 2.60205 2.87395 2.36377 2.64679C2.1333 2.42456 1.77783 2.31098 1.30127 2.31098H1.14502C0.977051 2.31098 0.855957 2.28135 0.785645 2.21222C0.711426 2.13321 0.664551 1.95049 0.64502 1.65913C0.64502 1.4616 0.684083 1.29864 0.77002 1.1653C0.852051 1.03691 0.961426 0.967773 1.09814 0.967773C2.18018 1.02209 3.18018 1.04679 4.09814 1.04679H7.84814C9.29346 1.04679 10.6958 1.43197 12.0513 2.19246C13.4146 2.9579 14.0981 4.47395 14.0981 6.73568C14.0981 7.99987 13.7935 9.13568 13.1919 10.1332C12.5981 11.1209 11.8208 11.8912 10.8638 12.4443C9.90283 12.9875 8.91064 13.2542 7.87939 13.2542C6.91846 13.2542 6.08643 13.0863 5.37939 12.7406V17.3036C5.38721 17.832 5.41846 18.2616 5.47314 18.5875C5.53564 18.9036 5.68018 19.1752 5.91064 19.3974C6.14893 19.6246 6.51221 19.7332 7.00439 19.7332H7.14502C7.30908 19.7332 7.43018 19.7727 7.50439 19.8517C7.58643 19.9209 7.6333 20.1036 7.64502 20.4048C7.64502 20.5925 7.60596 20.7554 7.53564 20.8986C7.46143 21.027 7.34814 21.0962 7.19189 21.0962C6.12939 21.027 5.08643 20.9974 4.06689 20.9974C3.16846 20.9974 2.18018 21.027 1.09814 21.0962ZM7.14502 11.832C7.74658 11.832 8.36768 11.6838 9.00439 11.3777C9.64893 11.0764 10.1958 10.548 10.645 9.7974C11.0903 9.04679 11.3169 8.05913 11.3169 6.83444C11.3169 4.97765 10.8481 3.74802 9.91064 3.14061C8.98096 2.53814 7.99268 2.23197 6.94189 2.23197C6.51221 2.23197 6.19189 2.29123 5.97314 2.40975C5.75439 2.51839 5.59814 2.74061 5.50439 3.08135C5.41846 3.41222 5.37939 3.94061 5.37939 4.6616V11.4764C5.77393 11.7135 6.36377 11.832 7.14502 11.832Z" fill="black"/>
</svg>
