<svg width="17" height="22" viewBox="0 0 17 22" fill="none" xmlns="http://www.w3.org/2000/svg">
<path d="M0.791138 21.0961C0.642701 21.0961 0.529419 21.0269 0.447388 20.8985C0.373169 20.7553 0.338013 20.5924 0.338013 20.4047C0.357544 20.0886 0.408325 19.901 0.494263 19.8319C0.576294 19.7677 0.732544 19.7331 0.963013 19.7331C1.45129 19.7331 1.80676 19.6245 2.02551 19.3973C2.25207 19.1751 2.3927 18.9133 2.44739 18.6072C2.49817 18.3059 2.52942 17.8714 2.54114 17.3035L2.58801 4.76025C2.58801 4.12816 2.53332 3.64914 2.43176 3.31828C2.32629 2.99235 2.15442 2.75532 1.91614 2.60717C1.68567 2.46396 1.35364 2.3405 0.916138 2.23186C0.634888 2.16766 0.455201 2.10347 0.384888 2.03433C0.322388 1.97013 0.291138 1.79235 0.291138 1.501C0.291138 1.25408 0.341919 1.08618 0.447388 1.00717C0.560669 0.91828 0.732544 0.868896 0.963013 0.868896C2.00207 0.868896 2.82239 0.962724 3.41614 1.14544C4.0177 1.31828 4.54895 1.63433 5.00989 2.09359C5.46692 2.55778 5.97082 3.25902 6.52551 4.20717L13.3693 15.5849H13.4474L13.4005 4.76025C13.3771 4.18248 13.3419 3.74297 13.2911 3.4368C13.2365 3.13556 13.0958 2.87383 12.8693 2.64667C12.6505 2.42445 12.299 2.31087 11.8224 2.31087H11.6661C11.4982 2.31087 11.3771 2.28124 11.3068 2.21211C11.2325 2.13309 11.1857 1.95038 11.1661 1.65902C11.1661 1.46149 11.2052 1.29853 11.2911 1.16519C11.3732 1.0368 11.4825 0.967662 11.6193 0.967662C12.6818 1.02198 13.4825 1.04667 14.0255 1.04667C14.338 1.04667 14.9396 1.02692 15.838 0.987415L16.3693 0.967662C16.5138 0.967662 16.6232 1.0368 16.6974 1.16519C16.7794 1.29853 16.8224 1.46149 16.8224 1.65902C16.799 1.97507 16.7482 2.16766 16.6661 2.23186C16.5802 2.28618 16.424 2.31087 16.1974 2.31087C15.7052 2.31087 15.3458 2.42445 15.1193 2.64667C14.9005 2.87383 14.7638 3.13556 14.713 3.4368C14.67 3.74297 14.6388 4.18248 14.6193 4.76025L14.5724 20.6812C14.549 20.9578 14.3419 21.0961 13.9474 21.0961C13.6232 21.0961 13.3771 20.9578 13.213 20.6812L3.79114 4.76025H3.71301L3.77551 17.3035C3.78332 17.8714 3.81457 18.3059 3.86926 18.6072C3.92004 18.9133 4.05676 19.1751 4.27551 19.3973C4.50207 19.6245 4.85754 19.7331 5.33801 19.7331H5.49426C5.65832 19.7331 5.77942 19.7726 5.85364 19.8516C5.92395 19.9207 5.97082 20.1035 5.99426 20.4047C5.99426 20.5924 5.9552 20.7553 5.88489 20.8985C5.81067 21.0269 5.69739 21.0961 5.54114 21.0961C4.47864 21.0269 3.67004 20.9973 3.11926 20.9973C2.78332 20.9973 2.20129 21.017 1.36926 21.0566L0.791138 21.0961Z" fill="black"/>
</svg>
