<svg width="17" height="22" viewBox="0 0 17 22" fill="none" xmlns="http://www.w3.org/2000/svg">
<path d="M1.22168 21.0962C1.06543 21.0962 0.948242 21.027 0.87793 20.8986C0.803711 20.7554 0.768555 20.5925 0.768555 20.4048C0.776368 20.0888 0.823242 19.9011 0.90918 19.832C0.991211 19.7678 1.15137 19.7332 1.39355 19.7332C1.87012 19.7332 2.22559 19.6246 2.45605 19.3974C2.69434 19.1752 2.83887 18.9036 2.89355 18.5875C2.95605 18.2616 2.99512 17.832 3.01855 17.3036V4.78012C2.99512 4.24185 2.95605 3.81222 2.89355 3.49617C2.83887 3.18012 2.69434 2.90358 2.45605 2.66654C2.22559 2.4295 1.87012 2.31098 1.39355 2.31098H1.2373C1.06934 2.31098 0.948242 2.28135 0.87793 2.21222C0.81543 2.13321 0.776368 1.95049 0.768555 1.65913C0.768555 1.4616 0.803711 1.29864 0.87793 1.1653C0.948242 1.03691 1.06543 0.967773 1.22168 0.967773C2.30371 1.02209 3.29199 1.04679 4.19043 1.04679H8.4873C9.76855 1.07642 10.835 1.33814 11.6904 1.83691C12.5537 2.3258 13.1826 2.9579 13.5811 3.73321C13.9873 4.49864 14.1904 5.32333 14.1904 6.20234C14.1904 7.36284 13.8232 8.4295 13.0967 9.40234C12.3779 10.3653 11.3936 11.0567 10.1436 11.4764L10.5654 12.3456C11.2607 13.7678 11.8936 14.9925 12.4561 16.0196C13.0264 17.0468 13.6475 18.0048 14.3154 18.8838C14.7842 19.3727 15.2842 19.6542 15.8154 19.7332C15.8467 19.7332 15.917 19.7431 16.0342 19.753C16.1592 19.7678 16.2568 19.827 16.3311 19.9307C16.4014 20.0394 16.4404 20.1974 16.4404 20.4048C16.4404 20.5925 16.4014 20.7554 16.3311 20.8986C16.2568 21.027 16.1436 21.0962 15.9873 21.0962L15.3467 21.0567C14.6045 21.0172 14.0693 20.9974 13.7373 20.9974C13.0693 20.8295 12.4951 20.5332 12.0186 20.1085C11.5498 19.6739 11.0811 19.0567 10.6123 18.2517C10.1318 17.4517 9.45996 16.1381 8.59668 14.3209L8.14355 13.4122C7.89355 12.9283 7.64746 12.5974 7.40918 12.4246C7.17871 12.2418 6.78418 12.148 6.22168 12.148H5.4873V17.3036C5.50684 17.832 5.54199 18.2616 5.59668 18.5875C5.65918 18.9036 5.80371 19.1752 6.03418 19.3974C6.27246 19.6246 6.63184 19.7332 7.1123 19.7332H7.26855C7.41309 19.7332 7.52246 19.7727 7.59668 19.8517C7.67871 19.9209 7.72559 20.1036 7.7373 20.4048C7.7373 20.5925 7.69824 20.7554 7.62793 20.8986C7.55371 21.027 7.44043 21.0962 7.28418 21.0962C6.22168 21.027 5.17871 20.9974 4.15918 20.9974C3.28418 20.9974 2.30371 21.027 1.22168 21.0962ZM7.69043 10.9233C10.167 10.9233 11.4092 9.45173 11.4092 6.49864C11.4092 5.28876 11.085 4.27642 10.4404 3.45666C9.79199 2.64185 8.72559 2.23197 7.2373 2.23197C6.75684 2.23197 6.39355 2.30605 6.14355 2.44926C5.89355 2.5974 5.72168 2.84432 5.62793 3.19987C5.53418 3.55543 5.4873 4.10358 5.4873 4.83938V10.9233H7.69043Z" fill="black"/>
</svg>
