<svg width="8" height="21" viewBox="0 0 8 21" fill="none" xmlns="http://www.w3.org/2000/svg">
<path d="M1.27954 20.4814C1.1311 20.4814 1.01782 20.4123 0.935791 20.2839C0.861572 20.1407 0.826416 19.9777 0.826416 19.7901C0.845947 19.474 0.896729 19.2864 0.982666 19.2172C1.07642 19.153 1.23267 19.1185 1.45142 19.1185C1.9397 19.1185 2.29907 19.0098 2.52954 18.7827C2.7561 18.5604 2.90454 18.2888 2.96704 17.9728C3.03735 17.6567 3.08423 17.232 3.10767 16.6888V4.14562C3.08423 3.59253 3.03735 3.15797 2.96704 2.84192C2.90454 2.52587 2.7561 2.2592 2.52954 2.03204C2.29907 1.80982 1.9397 1.69624 1.45142 1.69624H1.31079C1.15454 1.69624 1.03735 1.66661 0.967041 1.59747C0.892822 1.51846 0.845947 1.33574 0.826416 1.04439C0.826416 0.846855 0.861572 0.683892 0.935791 0.550558C1.01782 0.422164 1.1311 0.353027 1.27954 0.353027C2.36157 0.407349 3.34985 0.43204 4.24829 0.43204C5.24829 0.43204 6.28735 0.407349 7.37329 0.353027C7.52954 0.353027 7.64282 0.422164 7.71704 0.550558C7.78735 0.683892 7.82642 0.846855 7.82642 1.04439C7.8147 1.36043 7.76392 1.55303 7.67017 1.61723C7.57642 1.67155 7.41235 1.69624 7.18579 1.69624C6.6936 1.69624 6.33032 1.80982 6.09204 2.03204C5.86157 2.2592 5.71704 2.53574 5.65454 2.86167C5.59985 3.19253 5.5686 3.62216 5.56079 4.14562V16.6888C5.5686 17.2172 5.59985 17.6469 5.65454 17.9728C5.71704 18.2888 5.86157 18.5604 6.09204 18.7827C6.33032 19.0098 6.6936 19.1185 7.18579 19.1185H7.32642C7.49048 19.1185 7.61157 19.158 7.68579 19.237C7.76782 19.3061 7.8147 19.4888 7.82642 19.7901C7.82642 19.9777 7.78735 20.1407 7.71704 20.2839C7.64282 20.4123 7.52954 20.4814 7.37329 20.4814C6.31079 20.4123 5.27954 20.3827 4.27954 20.3827C3.36157 20.3827 2.36157 20.4123 1.27954 20.4814Z" fill="black"/>
</svg>
