<svg width="17" height="23" viewBox="0 0 17 23" fill="none" xmlns="http://www.w3.org/2000/svg">
<path d="M8.53699 22.0146C7.08777 22.0146 5.77527 21.6294 4.59949 20.8689C3.43152 20.0936 2.50574 18.9233 1.81824 17.3529C1.13074 15.7875 0.786987 13.8517 0.786987 11.5455C0.786987 9.42697 1.15418 7.55536 1.89636 5.93561C2.64636 4.30598 3.67761 3.04178 4.99011 2.14301C6.31043 1.24919 7.82214 0.799805 9.52136 0.799805C10.3534 0.799805 11.1776 0.957829 11.9901 1.27388C12.8104 1.58993 13.4901 2.09363 14.0214 2.77511C14.5526 3.44672 14.8182 4.27635 14.8182 5.264C14.8182 6.18746 14.5995 6.9924 14.162 7.67388C13.7323 8.34548 13.162 8.68129 12.4432 8.68129C12.0878 8.68129 11.7479 8.57758 11.4276 8.36524C11.1034 8.15783 10.9315 7.88129 10.912 7.53561C10.912 7.52573 11.0253 7.41215 11.2557 7.1998C11.4823 6.9924 11.6932 6.70598 11.8807 6.35042C12.0682 5.98499 12.162 5.55042 12.162 5.04672C12.162 4.16771 11.8846 3.44672 11.3339 2.89363C10.7909 2.34055 10.0878 2.064 9.22449 2.064C8.18152 2.064 7.24402 2.43437 6.41199 3.17018C5.57605 3.8961 4.9198 4.96277 4.44324 6.37018C3.96277 7.76771 3.72449 9.4319 3.72449 11.3677C3.72449 13.2393 3.95886 14.8591 4.42761 16.227C4.90418 17.5998 5.57214 18.6517 6.42761 19.3875C7.29089 20.1134 8.28699 20.4739 9.41199 20.4739C9.95105 20.4739 10.4198 20.4344 10.8182 20.3554C11.2128 20.2763 11.6464 20.148 12.1151 19.9603V16.7405C12.1151 16.0047 12.0917 15.4912 12.0526 15.1998C12.0096 14.8986 11.8729 14.6763 11.6464 14.5282C11.4276 14.385 11.0526 14.3109 10.5214 14.3109C10.3339 14.3109 10.1971 14.2714 10.1151 14.1924C10.0292 14.1134 9.9823 13.9307 9.97449 13.6393C9.97449 13.4566 10.0135 13.2986 10.0995 13.1652C10.1932 13.022 10.3221 12.948 10.4901 12.948C11.5409 13.0171 12.4589 13.0467 13.2401 13.0467C13.9901 13.0467 14.8885 13.0171 15.9432 12.948C16.0878 12.948 16.201 13.022 16.287 13.1652C16.369 13.2986 16.412 13.4566 16.412 13.6393C16.4003 13.9307 16.3534 14.1134 16.2714 14.1924C16.1854 14.2714 16.0526 14.3109 15.8651 14.3109C15.3651 14.3109 15.0057 14.3998 14.787 14.5677C14.576 14.7257 14.4471 14.9628 14.3964 15.2788C14.3417 15.585 14.3182 16.0689 14.3182 16.7405V20.4739C13.3378 21.0566 12.4354 21.4517 11.6151 21.6788C10.8026 21.901 9.77527 22.0146 8.53699 22.0146Z" fill="black"/>
</svg>
