<svg width="17" height="22" viewBox="0 0 17 22" fill="none" xmlns="http://www.w3.org/2000/svg">
<path d="M0.656738 21.0961C0.508301 21.0961 0.395019 21.0269 0.312988 20.8985C0.238769 20.7553 0.203613 20.5924 0.203613 20.4047C0.223144 20.0886 0.273925 19.901 0.359863 19.8319C0.441894 19.7677 0.598144 19.7331 0.828613 19.7331C1.31689 19.7331 1.67236 19.6245 1.89111 19.3973C2.11768 19.1751 2.2583 18.9133 2.31299 18.6072C2.36377 18.3059 2.39502 17.8714 2.40674 17.3035L2.45361 4.76025C2.45361 4.12816 2.39893 3.64914 2.29736 3.31828C2.19189 2.99235 2.02002 2.75532 1.78174 2.60717C1.55127 2.46396 1.21924 2.3405 0.781738 2.23186C0.500488 2.16766 0.320801 2.10347 0.250488 2.03433C0.187988 1.97013 0.156738 1.79235 0.156738 1.501C0.156738 1.25408 0.207519 1.08618 0.312988 1.00717C0.426269 0.91828 0.598144 0.868896 0.828613 0.868896C1.86768 0.868896 2.68799 0.962724 3.28174 1.14544C3.8833 1.31828 4.41455 1.63433 4.87549 2.09359C5.33252 2.55778 5.83643 3.25902 6.39111 4.20717L13.2349 15.5849H13.313L13.2661 4.76025C13.2427 4.18248 13.2075 3.74297 13.1567 3.4368C13.1021 3.13556 12.9614 2.87383 12.7349 2.64667C12.5161 2.42445 12.1646 2.31087 11.688 2.31087H11.5317C11.3638 2.31087 11.2427 2.28124 11.1724 2.21211C11.0981 2.13309 11.0513 1.95038 11.0317 1.65902C11.0317 1.46149 11.0708 1.29853 11.1567 1.16519C11.2388 1.0368 11.3481 0.967662 11.4849 0.967662C12.5474 1.02198 13.3481 1.04667 13.8911 1.04667C14.2036 1.04667 14.8052 1.02692 15.7036 0.987415L16.2349 0.967662C16.3794 0.967662 16.4888 1.0368 16.563 1.16519C16.645 1.29853 16.688 1.46149 16.688 1.65902C16.6646 1.97507 16.6138 2.16766 16.5317 2.23186C16.4458 2.28618 16.2896 2.31087 16.063 2.31087C15.5708 2.31087 15.2114 2.42445 14.9849 2.64667C14.7661 2.87383 14.6294 3.13556 14.5786 3.4368C14.5356 3.74297 14.5044 4.18248 14.4849 4.76025L14.438 20.6812C14.4146 20.9578 14.2075 21.0961 13.813 21.0961C13.4888 21.0961 13.2427 20.9578 13.0786 20.6812L3.65674 4.76025H3.57861L3.64111 17.3035C3.64893 17.8714 3.68018 18.3059 3.73486 18.6072C3.78564 18.9133 3.92236 19.1751 4.14111 19.3973C4.36768 19.6245 4.72314 19.7331 5.20361 19.7331H5.35986C5.52393 19.7331 5.64502 19.7726 5.71924 19.8516C5.78955 19.9207 5.83643 20.1035 5.85986 20.4047C5.85986 20.5924 5.8208 20.7553 5.75049 20.8985C5.67627 21.0269 5.56299 21.0961 5.40674 21.0961C4.34424 21.0269 3.53564 20.9973 2.98486 20.9973C2.64893 20.9973 2.06689 21.017 1.23486 21.0566L0.656738 21.0961Z" fill="black"/>
</svg>
