<svg width="8" height="21" viewBox="0 0 8 21" fill="none" xmlns="http://www.w3.org/2000/svg">
<path d="M0.547607 20.4814C0.399169 20.4814 0.285888 20.4123 0.203857 20.2839C0.129638 20.1407 0.0944824 19.9777 0.0944824 19.7901C0.114013 19.474 0.164795 19.2864 0.250732 19.2172C0.344482 19.153 0.500732 19.1185 0.719482 19.1185C1.20776 19.1185 1.56714 19.0098 1.79761 18.7827C2.02417 18.5604 2.17261 18.2888 2.23511 17.9728C2.30542 17.6567 2.3523 17.232 2.37573 16.6888V4.14562C2.3523 3.59253 2.30542 3.15797 2.23511 2.84192C2.17261 2.52587 2.02417 2.2592 1.79761 2.03204C1.56714 1.80982 1.20776 1.69624 0.719482 1.69624H0.578857C0.422607 1.69624 0.305419 1.66661 0.235107 1.59747C0.160888 1.51846 0.114013 1.33574 0.0944824 1.04439C0.0944824 0.846855 0.129638 0.683892 0.203857 0.550558C0.285888 0.422164 0.399169 0.353027 0.547607 0.353027C1.62964 0.407349 2.61792 0.43204 3.51636 0.43204C4.51636 0.43204 5.55542 0.407349 6.64136 0.353027C6.79761 0.353027 6.91089 0.422164 6.98511 0.550558C7.05542 0.683892 7.09448 0.846855 7.09448 1.04439C7.08276 1.36043 7.03198 1.55303 6.93823 1.61723C6.84448 1.67155 6.68042 1.69624 6.45386 1.69624C5.96167 1.69624 5.59839 1.80982 5.36011 2.03204C5.12964 2.2592 4.98511 2.53574 4.92261 2.86167C4.86792 3.19253 4.83667 3.62216 4.82886 4.14562V16.6888C4.83667 17.2172 4.86792 17.6469 4.92261 17.9728C4.98511 18.2888 5.12964 18.5604 5.36011 18.7827C5.59839 19.0098 5.96167 19.1185 6.45386 19.1185H6.59448C6.75855 19.1185 6.87964 19.158 6.95386 19.237C7.03589 19.3061 7.08276 19.4888 7.09448 19.7901C7.09448 19.9777 7.05542 20.1407 6.98511 20.2839C6.91089 20.4123 6.79761 20.4814 6.64136 20.4814C5.57886 20.4123 4.54761 20.3827 3.54761 20.3827C2.62964 20.3827 1.62964 20.4123 0.547607 20.4814Z" fill="black"/>
</svg>
