<svg width="16" height="24" viewBox="0 0 16 24" fill="none" xmlns="http://www.w3.org/2000/svg">
<path d="M5.08484 8.56416C5.47937 7.73453 6.05359 7.0728 6.80359 6.5691C7.55359 6.05552 8.41296 5.79873 9.38171 5.79873C10.5262 5.79873 11.5692 6.1691 12.5067 6.9049C13.4442 7.64564 14.1825 8.6975 14.7255 10.0654C15.2645 11.4382 15.538 13.0284 15.538 14.8456C15.538 16.6629 15.2645 18.2629 14.7255 19.6456C14.1825 21.0185 13.4442 22.0753 12.5067 22.8259C11.5692 23.5765 10.5262 23.9518 9.38171 23.9518C8.40125 23.9518 7.54187 23.7049 6.80359 23.221C6.07312 22.7222 5.4989 22.0555 5.08484 21.2259V23.695H0.803589V0.307373H5.08484V8.56416ZM11.1786 14.8456C11.1786 13.5024 10.8817 12.4506 10.288 11.6852C9.70203 10.9098 8.97546 10.5197 8.10046 10.5197C7.25671 10.5197 6.53796 10.9098 5.94421 11.6852C5.35046 12.4654 5.05359 13.5321 5.05359 14.8851C5.05359 16.2284 5.35046 17.2901 5.94421 18.0654C6.53796 18.8456 7.25671 19.2308 8.10046 19.2308C8.95203 19.2308 9.67859 18.8358 10.2723 18.0456C10.8739 17.2555 11.1786 16.1889 11.1786 14.8456Z" fill="white"/>
</svg>
