<svg width="14" height="21" viewBox="0 0 14 21" fill="none" xmlns="http://www.w3.org/2000/svg">
<path d="M1.13904 20.4814C1.00232 20.4814 0.89685 20.4123 0.826538 20.2839C0.752319 20.1407 0.717163 19.9777 0.717163 19.7901C0.724976 19.474 0.77185 19.2864 0.857788 19.2172C0.939819 19.153 1.09998 19.1185 1.34216 19.1185C1.81873 19.1185 2.17419 19.0098 2.40466 18.7827C2.64294 18.5604 2.78748 18.2888 2.84216 17.9728C2.90466 17.6469 2.94373 17.2172 2.96716 16.6888V4.14562C2.94373 3.62216 2.90466 3.19253 2.84216 2.86167C2.78748 2.53574 2.64294 2.2592 2.40466 2.03204C2.17419 1.80982 1.81873 1.69624 1.34216 1.69624H1.18591C1.01794 1.69624 0.89685 1.66661 0.826538 1.59747C0.764038 1.51846 0.724976 1.33574 0.717163 1.04439C0.717163 0.846855 0.752319 0.683892 0.826538 0.550558C0.89685 0.422164 1.00232 0.353027 1.13904 0.353027C2.2406 0.407349 3.23279 0.43204 4.10779 0.43204H11.9672C12.3929 0.43204 12.6078 0.68883 12.6078 1.20241L12.6859 5.6271C12.6859 5.81476 12.6078 5.9629 12.4515 6.08142C12.3031 6.19994 12.1586 6.2592 12.014 6.2592C11.8148 6.2592 11.639 6.21476 11.4828 6.12093C11.3344 6.01723 11.2523 5.87402 11.2328 5.68636C11.1078 4.6592 10.9594 3.87895 10.7953 3.33574C10.639 2.79747 10.4047 2.39747 10.0922 2.13081C9.78748 1.86908 9.35779 1.72587 8.79529 1.69624H5.43591V9.73574H9.96716C10.0804 9.75056 10.1703 9.82957 10.2328 9.97278C10.3031 10.1061 10.3422 10.2691 10.3422 10.4666C10.3422 10.6246 10.3031 10.7728 10.2328 10.9012C10.1703 11.0345 10.0804 11.0987 9.96716 11.0987H5.43591V17.0641C5.46716 17.5135 5.50623 17.8691 5.56091 18.1308C5.61169 18.3975 5.76404 18.6345 6.01404 18.8419C6.26404 19.0543 6.65466 19.1481 7.18591 19.1185H9.48279C10.0648 19.0938 10.5062 18.9753 10.8109 18.7629C11.1117 18.5407 11.35 18.1999 11.5297 17.7357C11.7054 17.2617 11.9203 16.5012 12.1703 15.4444C12.2836 15.079 12.5648 14.9308 13.014 15.0098C13.1781 15.0493 13.3265 15.1382 13.4515 15.2666C13.5765 15.3851 13.6273 15.5432 13.6078 15.7407L13.1078 19.7111C13.0648 19.9876 12.9906 20.1753 12.889 20.2641C12.7836 20.3432 12.6156 20.3827 12.389 20.3827H4.13904C3.2406 20.3827 2.2406 20.4123 1.13904 20.4814Z" fill="black"/>
</svg>
