<svg width="15" height="21" viewBox="0 0 15 21" fill="none" xmlns="http://www.w3.org/2000/svg">
<path d="M4.78455 20.4813C4.63611 20.4813 4.52673 20.4121 4.45642 20.2837C4.3822 20.1405 4.34705 19.9776 4.34705 19.7899C4.35486 19.4739 4.40173 19.2862 4.48767 19.2171C4.5697 19.1529 4.72986 19.1183 4.97205 19.1183C5.44861 19.1183 5.80408 19.0097 6.03455 18.7825C6.27283 18.5603 6.41736 18.2887 6.47205 17.9726C6.53455 17.6467 6.57361 17.2171 6.59705 16.6887V1.61707H4.86267C4.30017 1.63189 3.86267 1.78497 3.55017 2.07139C3.24548 2.34793 3.01111 2.77262 2.84705 3.33559C2.6908 3.88867 2.55408 4.68868 2.4408 5.72571C2.41736 5.88374 2.3158 6.01707 2.1283 6.12077C1.94861 6.22942 1.76111 6.2788 1.5658 6.2788C1.41736 6.2788 1.28455 6.22942 1.15955 6.12077C1.03455 6.00226 0.972046 5.84423 0.972046 5.6467L1.03455 1.20226C1.03455 0.688675 1.26111 0.431885 1.72205 0.431885H13.9408C14.3783 0.431885 14.597 0.688675 14.597 1.20226L14.6908 5.6467C14.6908 5.84423 14.6205 6.00226 14.4877 6.12077C14.351 6.22942 14.2103 6.2788 14.0658 6.2788C13.8666 6.2788 13.6791 6.22942 13.5033 6.12077C13.3236 6.01707 13.2299 5.88374 13.222 5.72571C13.0853 4.67386 12.9408 3.86892 12.7845 3.31584C12.6361 2.76275 12.4017 2.34793 12.0814 2.07139C11.7689 1.78497 11.3314 1.63189 10.7689 1.61707H9.0658V16.6887C9.08533 17.2171 9.12049 17.6467 9.17517 17.9726C9.23767 18.2887 9.3822 18.5603 9.61267 18.7825C9.85095 19.0097 10.2103 19.1183 10.6908 19.1183H10.847C10.9916 19.1183 11.101 19.1578 11.1752 19.2368C11.2455 19.306 11.2924 19.4887 11.3158 19.7899C11.3158 19.9776 11.2767 20.1405 11.2064 20.2837C11.1322 20.4121 11.0189 20.4813 10.8627 20.4813C9.80017 20.4121 8.8158 20.3825 7.90955 20.3825C6.90955 20.3825 5.86658 20.4121 4.78455 20.4813Z" fill="black"/>
</svg>
