<svg width="18" height="22" viewBox="0 0 18 22" fill="none" xmlns="http://www.w3.org/2000/svg">
<path d="M1.10815 21.0961C0.959717 21.0961 0.846435 21.0269 0.764404 20.8985C0.690185 20.7553 0.655029 20.5924 0.655029 20.4047C0.67456 20.0886 0.725341 19.901 0.811279 19.8319C0.89331 19.7677 1.04956 19.7331 1.28003 19.7331C1.76831 19.7331 2.12378 19.6245 2.34253 19.3973C2.56909 19.1751 2.70972 18.9133 2.7644 18.6072C2.81519 18.3059 2.84644 17.8714 2.85815 17.3035L2.90503 4.76025C2.90503 4.12816 2.85034 3.64914 2.74878 3.31828C2.64331 2.99235 2.47144 2.75532 2.23315 2.60717C2.00269 2.46396 1.67065 2.3405 1.23315 2.23186C0.951904 2.16766 0.772217 2.10347 0.701904 2.03433C0.639404 1.97013 0.608154 1.79235 0.608154 1.501C0.608154 1.25408 0.658935 1.08618 0.764404 1.00717C0.877685 0.91828 1.04956 0.868896 1.28003 0.868896C2.31909 0.868896 3.1394 0.962724 3.73315 1.14544C4.33472 1.31828 4.86597 1.63433 5.3269 2.09359C5.78394 2.55778 6.28784 3.25902 6.84253 4.20717L13.6863 15.5849H13.7644L13.7175 4.76025C13.6941 4.18248 13.6589 3.74297 13.6082 3.4368C13.5535 3.13556 13.4128 2.87383 13.1863 2.64667C12.9675 2.42445 12.616 2.31087 12.1394 2.31087H11.9832C11.8152 2.31087 11.6941 2.28124 11.6238 2.21211C11.5496 2.13309 11.5027 1.95038 11.4832 1.65902C11.4832 1.46149 11.5222 1.29853 11.6082 1.16519C11.6902 1.0368 11.7996 0.967662 11.9363 0.967662C12.9988 1.02198 13.7996 1.04667 14.3425 1.04667C14.655 1.04667 15.2566 1.02692 16.155 0.987415L16.6863 0.967662C16.8308 0.967662 16.9402 1.0368 17.0144 1.16519C17.0964 1.29853 17.1394 1.46149 17.1394 1.65902C17.116 1.97507 17.0652 2.16766 16.9832 2.23186C16.8972 2.28618 16.741 2.31087 16.5144 2.31087C16.0222 2.31087 15.6628 2.42445 15.4363 2.64667C15.2175 2.87383 15.0808 3.13556 15.03 3.4368C14.9871 3.74297 14.9558 4.18248 14.9363 4.76025L14.8894 20.6812C14.866 20.9578 14.6589 21.0961 14.2644 21.0961C13.9402 21.0961 13.6941 20.9578 13.53 20.6812L4.10815 4.76025H4.03003L4.09253 17.3035C4.10034 17.8714 4.13159 18.3059 4.18628 18.6072C4.23706 18.9133 4.37378 19.1751 4.59253 19.3973C4.81909 19.6245 5.17456 19.7331 5.65503 19.7331H5.81128C5.97534 19.7331 6.09644 19.7726 6.17065 19.8516C6.24097 19.9207 6.28784 20.1035 6.31128 20.4047C6.31128 20.5924 6.27222 20.7553 6.2019 20.8985C6.12769 21.0269 6.0144 21.0961 5.85815 21.0961C4.79565 21.0269 3.98706 20.9973 3.43628 20.9973C3.10034 20.9973 2.51831 21.017 1.68628 21.0566L1.10815 21.0961Z" fill="black"/>
</svg>
