<svg width="8" height="22" viewBox="0 0 8 22" fill="none" xmlns="http://www.w3.org/2000/svg">
<path d="M1.27747 21.0962C1.12903 21.0962 1.01575 21.027 0.933716 20.8986C0.859497 20.7554 0.824341 20.5925 0.824341 20.4048C0.843872 20.0888 0.894654 19.9011 0.980591 19.832C1.07434 19.7678 1.23059 19.7332 1.44934 19.7332C1.93762 19.7332 2.297 19.6246 2.52747 19.3974C2.75403 19.1752 2.90247 18.9036 2.96497 18.5875C3.03528 18.2715 3.08215 17.8468 3.10559 17.3036V4.76037C3.08215 4.20728 3.03528 3.77271 2.96497 3.45666C2.90247 3.14061 2.75403 2.87395 2.52747 2.64679C2.297 2.42456 1.93762 2.31098 1.44934 2.31098H1.30872C1.15247 2.31098 1.03528 2.28135 0.964966 2.21222C0.890747 2.13321 0.843872 1.95049 0.824341 1.65913C0.824341 1.4616 0.859497 1.29864 0.933716 1.1653C1.01575 1.03691 1.12903 0.967773 1.27747 0.967773C2.3595 1.02209 3.34778 1.04679 4.24622 1.04679C5.24622 1.04679 6.28528 1.02209 7.37122 0.967773C7.52747 0.967773 7.64075 1.03691 7.71497 1.1653C7.78528 1.29864 7.82434 1.4616 7.82434 1.65913C7.81262 1.97518 7.76184 2.16777 7.66809 2.23197C7.57434 2.28629 7.41028 2.31098 7.18372 2.31098C6.69153 2.31098 6.32825 2.42456 6.08997 2.64679C5.8595 2.87395 5.71497 3.15049 5.65247 3.47642C5.59778 3.80728 5.56653 4.23691 5.55872 4.76037V17.3036C5.56653 17.832 5.59778 18.2616 5.65247 18.5875C5.71497 18.9036 5.8595 19.1752 6.08997 19.3974C6.32825 19.6246 6.69153 19.7332 7.18372 19.7332H7.32434C7.4884 19.7332 7.6095 19.7727 7.68372 19.8517C7.76575 19.9209 7.81262 20.1036 7.82434 20.4048C7.82434 20.5925 7.78528 20.7554 7.71497 20.8986C7.64075 21.027 7.52747 21.0962 7.37122 21.0962C6.30872 21.027 5.27747 20.9974 4.27747 20.9974C3.3595 20.9974 2.3595 21.027 1.27747 21.0962Z" fill="black"/>
</svg>
