<svg width="15" height="22" viewBox="0 0 15 22" fill="none" xmlns="http://www.w3.org/2000/svg">
<path d="M1.25903 21.018C1.1106 21.018 0.997314 20.9489 0.915283 20.8205C0.841064 20.6773 0.805908 20.5143 0.805908 20.3267C0.825439 20.0106 0.876221 19.823 0.962158 19.7538C1.04419 19.6897 1.20044 19.6551 1.43091 19.6551C1.91919 19.6551 2.27856 19.5464 2.50903 19.3193C2.7356 19.0971 2.88403 18.8255 2.94653 18.5094C3.00903 18.1835 3.04419 17.7538 3.05591 17.2255V4.68224C3.04419 4.15879 3.00903 3.72916 2.94653 3.39829C2.88403 3.07236 2.7356 2.79582 2.50903 2.56866C2.27856 2.34644 1.91919 2.23286 1.43091 2.23286H1.29028C1.12231 2.23286 1.00122 2.20323 0.930908 2.13409C0.868408 2.05508 0.825439 1.87236 0.805908 1.58101C0.805908 1.38348 0.841064 1.22051 0.915283 1.08718C0.997314 0.958785 1.1106 0.889648 1.25903 0.889648C2.34106 0.94397 3.32544 0.968661 4.21216 0.968661H7.72778C8.64185 0.968661 9.38403 1.05755 9.94653 1.22545C10.5168 1.39829 11.0286 1.66002 11.4778 2.01557C11.9153 2.37113 12.259 2.86496 12.509 3.49706C12.759 4.11928 12.884 4.79582 12.884 5.53162C12.884 6.83533 12.5442 7.8773 11.8684 8.65261C11.1887 9.41805 10.4036 9.93656 9.50903 10.2131V10.2921C10.3723 10.2921 11.1575 10.5094 11.8684 10.944C12.5754 11.3785 13.1223 11.9613 13.509 12.6822C13.9036 13.4082 14.1028 14.1934 14.1028 15.0329C14.1028 16.4699 13.759 17.6353 13.0715 18.5292C12.384 19.4131 11.5168 20.0403 10.4778 20.4057C9.43482 20.7761 8.35278 20.9588 7.22778 20.9588L4.22778 20.9193C3.32935 20.9193 2.34106 20.9489 1.25903 21.018ZM6.58716 9.66002C7.25122 9.66002 7.82935 9.60076 8.32153 9.48224C8.80982 9.35385 9.24732 9.01805 9.63403 8.47483C10.0168 7.92175 10.2122 7.06743 10.2122 5.90693C10.2122 3.40817 9.2356 2.15385 7.29028 2.15385H5.54028V9.66002H6.58716ZM7.33716 19.6946C8.56372 19.6699 9.5481 19.2798 10.2903 18.5292C11.0403 17.7785 11.4153 16.5538 11.4153 14.8551C11.3293 13.7094 10.9075 12.7711 10.1497 12.0304C9.38794 11.2946 8.18872 10.9242 6.55591 10.9242H5.54028V17.2255C5.54028 17.9366 5.59106 18.4699 5.69653 18.8255C5.7981 19.1711 5.96997 19.3983 6.21216 19.5168C6.46216 19.6353 6.83716 19.6946 7.33716 19.6946Z" fill="black"/>
</svg>
