<svg width="11" height="12" viewBox="0 0 11 12" fill="none" xmlns="http://www.w3.org/2000/svg">
<path d="M0.862793 5.80648C0.862793 4.65092 1.03467 3.63364 1.37842 2.7645C1.72217 1.89536 2.19092 1.22376 2.78467 0.749685C3.37842 0.275611 4.03857 0.0385742 4.76904 0.0385742C5.39404 0.0385742 5.94092 0.206476 6.40967 0.532401C6.88623 0.848451 7.25342 1.27314 7.50342 1.7966V0.196599H10.2378V11.4361H7.50342V9.8361C7.2417 10.3645 6.87061 10.7941 6.39404 11.1201C5.92529 11.4361 5.37842 11.5941 4.75342 11.5941C4.03467 11.5941 3.37842 11.3571 2.78467 10.883C2.19092 10.4089 1.72217 9.7324 1.37842 8.84845C1.03467 7.96944 0.862793 6.95215 0.862793 5.80648ZM7.50342 5.82623C7.50342 4.95709 7.31592 4.28055 6.94092 3.79166C6.56592 3.2929 6.10498 3.04104 5.56592 3.04104C5.02295 3.04104 4.56592 3.28796 4.19092 3.77191C3.81592 4.2608 3.62842 4.93734 3.62842 5.80648C3.62842 6.66573 3.81592 7.34228 4.19092 7.84104C4.56592 8.34475 5.02295 8.59166 5.56592 8.59166C6.10498 8.59166 6.56592 8.34969 6.94092 7.8608C7.31592 7.36203 7.50342 6.68549 7.50342 5.82623Z" fill="white"/>
</svg>
