<svg width="16" height="22" viewBox="0 0 16 22" fill="none" xmlns="http://www.w3.org/2000/svg">
<path d="M0.658813 21.018C0.502563 21.018 0.385375 20.9489 0.315063 20.8205C0.240844 20.6773 0.205688 20.5143 0.205688 20.3267C0.213501 20.0106 0.260375 19.823 0.346313 19.7538C0.428344 19.6897 0.588501 19.6551 0.830688 19.6551C1.30725 19.6551 1.66272 19.5464 1.89319 19.3193C2.13147 19.0971 2.276 18.8255 2.33069 18.5094C2.39319 18.1835 2.43225 17.7538 2.45569 17.2255V4.70199C2.43225 4.16372 2.39319 3.73409 2.33069 3.41804C2.276 3.10199 2.13147 2.82545 1.89319 2.58841C1.66272 2.35138 1.30725 2.23286 0.830688 2.23286H0.674438C0.506469 2.23286 0.385375 2.20323 0.315063 2.13409C0.252563 2.05508 0.213501 1.87236 0.205688 1.58101C0.205688 1.38348 0.240844 1.22051 0.315063 1.08718C0.385375 0.958785 0.502563 0.889648 0.658813 0.889648C1.74084 0.94397 2.72913 0.968661 3.62756 0.968661H7.92444C9.20569 0.998291 10.2721 1.26002 11.1276 1.75878C11.9908 2.24767 12.6198 2.87977 13.0182 3.65508C13.4244 4.42051 13.6276 5.2452 13.6276 6.12422C13.6276 7.28471 13.2604 8.35138 12.5338 9.32422C11.8151 10.2872 10.8307 10.9785 9.58069 11.3983L10.0026 12.2674C10.6979 13.6897 11.3307 14.9143 11.8932 15.9415C12.4635 16.9687 13.0846 17.9267 13.7526 18.8057C14.2213 19.2946 14.7213 19.5761 15.2526 19.6551C15.2838 19.6551 15.3541 19.665 15.4713 19.6748C15.5963 19.6897 15.694 19.7489 15.7682 19.8526C15.8385 19.9613 15.8776 20.1193 15.8776 20.3267C15.8776 20.5143 15.8385 20.6773 15.7682 20.8205C15.694 20.9489 15.5807 21.018 15.4244 21.018L14.7838 20.9785C14.0416 20.939 13.5065 20.9193 13.1744 20.9193C12.5065 20.7514 11.9323 20.4551 11.4557 20.0304C10.9869 19.5958 10.5182 18.9785 10.0494 18.1736C9.56897 17.3736 8.89709 16.06 8.03381 14.2427L7.58069 13.3341C7.33069 12.8501 7.08459 12.5193 6.84631 12.3464C6.61584 12.1637 6.22131 12.0699 5.65881 12.0699H4.92444V17.2255C4.94397 17.7538 4.97913 18.1835 5.03381 18.5094C5.09631 18.8255 5.24084 19.0971 5.47131 19.3193C5.70959 19.5464 6.06897 19.6551 6.54944 19.6551H6.70569C6.85022 19.6551 6.95959 19.6946 7.03381 19.7736C7.11584 19.8427 7.16272 20.0255 7.17444 20.3267C7.17444 20.5143 7.13538 20.6773 7.06506 20.8205C6.99084 20.9489 6.87756 21.018 6.72131 21.018C5.65881 20.9489 4.61584 20.9193 3.59631 20.9193C2.72131 20.9193 1.74084 20.9489 0.658813 21.018ZM7.12756 10.8452C9.60413 10.8452 10.8463 9.3736 10.8463 6.42051C10.8463 5.21064 10.5221 4.19829 9.87756 3.37854C9.22913 2.56372 8.16272 2.15385 6.67444 2.15385C6.19397 2.15385 5.83069 2.22792 5.58069 2.37113C5.33069 2.51928 5.15881 2.76619 5.06506 3.12175C4.97131 3.4773 4.92444 4.02545 4.92444 4.76125V10.8452H7.12756Z" fill="black"/>
</svg>
