<svg width="18" height="22" viewBox="0 0 18 22" fill="none" xmlns="http://www.w3.org/2000/svg">
<path d="M1.2511 21.0177C1.09485 21.0177 0.981568 20.9486 0.907349 20.8202C0.837037 20.6769 0.797974 20.514 0.797974 20.3263C0.809693 20.0103 0.856568 19.8226 0.938599 19.7535C1.02454 19.6893 1.11829 19.6547 1.23547 19.6547C1.36047 19.6547 1.4386 19.6547 1.46985 19.6547C1.96985 19.6547 2.33313 19.4918 2.5636 19.1609C2.80188 18.835 2.98938 18.4646 3.1261 18.0547C3.27063 17.6498 3.36829 17.3732 3.42297 17.2251L7.79797 4.1288C7.89172 3.81275 7.9386 3.56584 7.9386 3.37818C7.9386 2.99794 7.82141 2.72633 7.59485 2.56831C7.36438 2.4004 7.04016 2.26213 6.6261 2.15349C6.33313 2.08929 6.15735 2.0251 6.09485 1.95596C6.03235 1.89176 6.0011 1.71398 6.0011 1.42263C6.0011 1.17571 6.05188 1.00781 6.15735 0.928799C6.25891 0.839911 6.43079 0.790527 6.67297 0.790527C7.505 0.790527 8.16516 0.86954 8.65735 1.02756C9.14563 1.18559 9.57141 1.50164 9.9386 1.97571C10.3136 2.44979 10.6573 3.17077 10.9698 4.1288L15.173 17.2251C15.423 18.03 15.6613 18.6276 15.8917 19.0226C16.13 19.4177 16.4777 19.63 16.9386 19.6547H17.0948C17.2589 19.6547 17.3761 19.6942 17.4386 19.7732C17.5089 19.8424 17.5519 20.0251 17.5636 20.3263C17.5636 20.514 17.5245 20.6769 17.4542 20.8202C17.38 20.9486 17.2706 21.0177 17.1261 21.0177C16.0519 20.9486 15.1339 20.9189 14.3761 20.9189C13.3761 20.9189 12.337 20.9486 11.2667 21.0177C11.1183 21.0177 11.005 20.9486 10.923 20.8202C10.8488 20.6769 10.8136 20.514 10.8136 20.3263C10.8331 20.0251 10.8761 19.8424 10.9386 19.7732C11.0089 19.6942 11.13 19.6547 11.298 19.6547C11.8605 19.6547 12.255 19.5905 12.4855 19.4572C12.7238 19.314 12.8448 19.0621 12.8448 18.7066C12.8448 18.43 12.7433 17.9362 12.548 17.2251L11.6886 14.5979H5.51672C5.09875 15.9016 4.86047 16.6621 4.79797 16.8695C4.74329 17.0819 4.71985 17.2004 4.71985 17.2251C4.52063 18.03 4.42297 18.5436 4.42297 18.7658C4.42297 19.1214 4.54797 19.3584 4.79797 19.4769C5.04797 19.5955 5.52063 19.6547 6.21985 19.6547H6.3761C6.54016 19.6547 6.65735 19.6942 6.71985 19.7732C6.78235 19.8424 6.82141 20.0251 6.84485 20.3263C6.84485 20.514 6.80579 20.6769 6.73547 20.8202C6.66125 20.9486 6.54797 21.0177 6.39172 21.0177C5.32922 20.9486 4.42297 20.9189 3.67297 20.9189C3.14172 20.9189 2.33313 20.9486 1.2511 21.0177ZM6.0011 13.235H11.2511L8.71985 5.11645H8.64172L6.0011 13.235Z" fill="black"/>
</svg>
