<svg width="8" height="22" viewBox="0 0 8 22" fill="none" xmlns="http://www.w3.org/2000/svg">
<path d="M1.19275 21.018C1.04431 21.018 0.93103 20.9489 0.848999 20.8205C0.77478 20.6773 0.739624 20.5143 0.739624 20.3267C0.759155 20.0106 0.809937 19.823 0.895874 19.7538C0.989624 19.6897 1.14587 19.6551 1.36462 19.6551C1.85291 19.6551 2.21228 19.5464 2.44275 19.3193C2.66931 19.0971 2.81775 18.8255 2.88025 18.5094C2.95056 18.1934 2.99744 17.7687 3.02087 17.2255V4.68224C2.99744 4.12916 2.95056 3.69459 2.88025 3.37854C2.81775 3.06249 2.66931 2.79582 2.44275 2.56866C2.21228 2.34644 1.85291 2.23286 1.36462 2.23286H1.224C1.06775 2.23286 0.950561 2.20323 0.880249 2.13409C0.80603 2.05508 0.759155 1.87236 0.739624 1.58101C0.739624 1.38348 0.77478 1.22051 0.848999 1.08718C0.93103 0.958785 1.04431 0.889648 1.19275 0.889648C2.27478 0.94397 3.26306 0.968661 4.1615 0.968661C5.1615 0.968661 6.20056 0.94397 7.2865 0.889648C7.44275 0.889648 7.55603 0.958785 7.63025 1.08718C7.70056 1.22051 7.73962 1.38348 7.73962 1.58101C7.72791 1.89706 7.67712 2.08965 7.58337 2.15385C7.48962 2.20817 7.32556 2.23286 7.099 2.23286C6.60681 2.23286 6.24353 2.34644 6.00525 2.56866C5.77478 2.79582 5.63025 3.07236 5.56775 3.39829C5.51306 3.72916 5.48181 4.15879 5.474 4.68224V17.2255C5.48181 17.7538 5.51306 18.1835 5.56775 18.5094C5.63025 18.8255 5.77478 19.0971 6.00525 19.3193C6.24353 19.5464 6.60681 19.6551 7.099 19.6551H7.23962C7.40369 19.6551 7.52478 19.6946 7.599 19.7736C7.68103 19.8427 7.72791 20.0255 7.73962 20.3267C7.73962 20.5143 7.70056 20.6773 7.63025 20.8205C7.55603 20.9489 7.44275 21.018 7.2865 21.018C6.224 20.9489 5.19275 20.9193 4.19275 20.9193C3.27478 20.9193 2.27478 20.9489 1.19275 21.018Z" fill="black"/>
</svg>
