<svg width="21" height="21" viewBox="0 0 21 21" fill="none" xmlns="http://www.w3.org/2000/svg">
<path d="M10.1929 20.6922C9.94287 20.6922 9.76318 20.5835 9.66162 20.3761L4.03662 4.29712H3.9585L4.021 16.8403C4.02881 17.4082 4.06006 17.8428 4.11475 18.144C4.16553 18.4502 4.30225 18.7119 4.521 18.9342C4.74756 19.1613 5.10303 19.27 5.5835 19.27H5.73975C5.90381 19.27 6.0249 19.3095 6.09912 19.3885C6.16943 19.4576 6.21631 19.6403 6.23975 19.9416C6.23975 20.1292 6.20068 20.2922 6.13037 20.4354C6.05615 20.5638 5.94287 20.6329 5.78662 20.6329L5.16162 20.5934C4.3999 20.5539 3.85303 20.5342 3.521 20.5342C2.94678 20.5342 2.11865 20.5638 1.03662 20.6329C0.888184 20.6329 0.774902 20.5638 0.692871 20.4354C0.618652 20.2922 0.583496 20.1292 0.583496 19.9416C0.603027 19.6255 0.653808 19.4379 0.739746 19.3687C0.821777 19.3045 0.978027 19.27 1.2085 19.27C1.69678 19.27 2.05225 19.1613 2.271 18.9342C2.49756 18.7119 2.63818 18.4502 2.69287 18.144C2.74365 17.8428 2.7749 17.4082 2.78662 16.8403L2.8335 4.29712C2.8335 3.64033 2.7749 3.1465 2.66162 2.81564C2.54443 2.48971 2.37256 2.25761 2.146 2.12428C1.92725 1.99589 1.59912 1.87737 1.16162 1.76872C1.09912 1.74403 0.997558 1.71934 0.864746 1.68971C0.728027 1.65021 0.638184 1.58601 0.599121 1.49218C0.556152 1.40329 0.536621 1.25021 0.536621 1.03786C0.536621 0.790946 0.587402 0.623046 0.692871 0.544033C0.806152 0.455145 0.978027 0.405762 1.2085 0.405762C2.19678 0.405762 3.00537 0.484774 3.63037 0.642799C4.26318 0.800823 4.82178 1.12675 5.30225 1.6107C5.77881 2.08477 6.17725 2.79589 6.48975 3.74403L10.7866 15.9514H10.8647L15.7866 0.58354H17.2085C18.1226 0.58354 19.1187 0.558848 20.1929 0.504527C20.3374 0.504527 20.4468 0.573664 20.521 0.702058C20.603 0.835392 20.646 0.998354 20.646 1.19589C20.6226 1.51193 20.5679 1.70453 20.4741 1.76872C20.3804 1.82305 20.228 1.84774 20.021 1.84774C19.5288 1.84774 19.1655 1.96132 18.9272 2.18354C18.6968 2.4107 18.5522 2.68724 18.4897 3.01317C18.4351 3.34403 18.4038 3.77366 18.396 4.29712V16.8403C18.4038 17.3687 18.4351 17.7984 18.4897 18.1243C18.5522 18.4403 18.6968 18.7119 18.9272 18.9342C19.1655 19.1613 19.5288 19.27 20.021 19.27H20.1616C20.3179 19.27 20.4312 19.3095 20.5054 19.3885C20.5757 19.4576 20.6226 19.6403 20.646 19.9416C20.646 20.1292 20.603 20.2922 20.521 20.4354C20.4468 20.5638 20.3374 20.6329 20.1929 20.6329C19.1187 20.5638 18.1187 20.5342 17.1929 20.5342C16.2241 20.5342 15.1968 20.5638 14.1147 20.6329C13.9663 20.6329 13.853 20.5638 13.771 20.4354C13.6968 20.2922 13.6616 20.1292 13.6616 19.9416C13.6812 19.6255 13.7319 19.4379 13.8179 19.3687C13.8999 19.3045 14.0562 19.27 14.2866 19.27C14.7749 19.27 15.1343 19.1613 15.3647 18.9342C15.5913 18.7119 15.7397 18.4403 15.8022 18.1243C15.8647 17.7984 15.8999 17.3687 15.9116 16.8403V4.29712H15.8335L10.6929 20.3761C10.6187 20.5835 10.4507 20.6922 10.1929 20.6922Z" fill="black"/>
</svg>
