<svg width="18" height="21" viewBox="0 0 18 21" fill="none" xmlns="http://www.w3.org/2000/svg">
<path d="M1.47791 20.4029C1.32947 20.4029 1.21619 20.3338 1.13416 20.2054C1.05994 20.0622 1.02478 19.8992 1.02478 19.7116C1.04431 19.3955 1.09509 19.2079 1.18103 19.1387C1.26306 19.0745 1.41931 19.04 1.64978 19.04C2.13806 19.04 2.49353 18.9313 2.71228 18.7042C2.93884 18.482 3.07947 18.2202 3.13416 17.9141C3.18494 17.6128 3.21619 17.1783 3.22791 16.6103L3.27478 4.06714C3.27478 3.43504 3.22009 2.95603 3.11853 2.62516C3.01306 2.29924 2.84119 2.0622 2.60291 1.91405C2.37244 1.77084 2.04041 1.64739 1.60291 1.53874C1.32166 1.47455 1.14197 1.41035 1.07166 1.34121C1.00916 1.27702 0.977905 1.09924 0.977905 0.80788C0.977905 0.560966 1.02869 0.393065 1.13416 0.314053C1.24744 0.225165 1.41931 0.175781 1.64978 0.175781C2.68884 0.175781 3.50916 0.269609 4.10291 0.452324C4.70447 0.625164 5.23572 0.941214 5.69666 1.40047C6.15369 1.86467 6.65759 2.5659 7.21228 3.51405L14.056 14.8918H14.1342L14.0873 4.06714C14.0638 3.48936 14.0287 3.04985 13.9779 2.74368C13.9232 2.44245 13.7826 2.18072 13.556 1.95356C13.3373 1.73134 12.9857 1.61776 12.5092 1.61776H12.3529C12.1849 1.61776 12.0638 1.58813 11.9935 1.51899C11.9193 1.43998 11.8724 1.25726 11.8529 0.965905C11.8529 0.768374 11.892 0.605411 11.9779 0.472078C12.0599 0.343683 12.1693 0.274547 12.306 0.274547C13.3685 0.328868 14.1693 0.353559 14.7123 0.353559C15.0248 0.353559 15.6263 0.333806 16.5248 0.2943L17.056 0.274547C17.2006 0.274547 17.3099 0.343683 17.3842 0.472078C17.4662 0.605411 17.5092 0.768374 17.5092 0.965905C17.4857 1.28195 17.4349 1.47455 17.3529 1.53874C17.267 1.59307 17.1107 1.61776 16.8842 1.61776C16.392 1.61776 16.0326 1.73134 15.806 1.95356C15.5873 2.18072 15.4506 2.44245 15.3998 2.74368C15.3568 3.04985 15.3256 3.48936 15.306 4.06714L15.2592 19.9881C15.2357 20.2647 15.0287 20.4029 14.6342 20.4029C14.3099 20.4029 14.0638 20.2647 13.8998 19.9881L4.47791 4.06714H4.39978L4.46228 16.6103C4.47009 17.1783 4.50134 17.6128 4.55603 17.9141C4.60681 18.2202 4.74353 18.482 4.96228 18.7042C5.18884 18.9313 5.54431 19.04 6.02478 19.04H6.18103C6.34509 19.04 6.46619 19.0795 6.54041 19.1585C6.61072 19.2276 6.65759 19.4104 6.68103 19.7116C6.68103 19.8992 6.64197 20.0622 6.57166 20.2054C6.49744 20.3338 6.38416 20.4029 6.22791 20.4029C5.16541 20.3338 4.35681 20.3042 3.80603 20.3042C3.47009 20.3042 2.88806 20.3239 2.05603 20.3634L1.47791 20.4029Z" fill="black"/>
</svg>
