<svg width="10" height="12" viewBox="0 0 10 12" fill="none" xmlns="http://www.w3.org/2000/svg">
<path d="M0.519409 5.80648C0.519409 4.65092 0.691284 3.63364 1.03503 2.7645C1.37878 1.89536 1.84753 1.22376 2.44128 0.749685C3.03503 0.275611 3.69519 0.0385742 4.42566 0.0385742C5.05066 0.0385742 5.59753 0.206476 6.06628 0.532401C6.54285 0.848451 6.91003 1.27314 7.16003 1.7966V0.196599H9.89441V11.4361H7.16003V9.8361C6.89832 10.3645 6.52722 10.7941 6.05066 11.1201C5.58191 11.4361 5.03503 11.5941 4.41003 11.5941C3.69128 11.5941 3.03503 11.3571 2.44128 10.883C1.84753 10.4089 1.37878 9.7324 1.03503 8.84845C0.691284 7.96944 0.519409 6.95215 0.519409 5.80648ZM7.16003 5.82623C7.16003 4.95709 6.97253 4.28055 6.59753 3.79166C6.22253 3.2929 5.7616 3.04104 5.22253 3.04104C4.67957 3.04104 4.22253 3.28796 3.84753 3.77191C3.47253 4.2608 3.28503 4.93734 3.28503 5.80648C3.28503 6.66573 3.47253 7.34228 3.84753 7.84104C4.22253 8.34475 4.67957 8.59166 5.22253 8.59166C5.7616 8.59166 6.22253 8.34969 6.59753 7.8608C6.97253 7.36203 7.16003 6.68549 7.16003 5.82623Z" fill="white"/>
</svg>
