<svg width="21" height="21" viewBox="0 0 21 21" fill="none" xmlns="http://www.w3.org/2000/svg">
<path d="M9.65759 20.3069C9.40759 20.3069 9.22791 20.1983 9.12634 19.9909L3.50134 3.91187H3.42322L3.48572 16.4551C3.49353 17.023 3.52478 17.4575 3.57947 17.7588C3.63025 18.065 3.76697 18.3267 3.98572 18.5489C4.21228 18.7761 4.56775 18.8847 5.04822 18.8847H5.20447C5.36853 18.8847 5.48962 18.9242 5.56384 19.0032C5.63416 19.0724 5.68103 19.2551 5.70447 19.5563C5.70447 19.744 5.66541 19.9069 5.59509 20.0501C5.52087 20.1785 5.40759 20.2477 5.25134 20.2477L4.62634 20.2082C3.86462 20.1687 3.31775 20.1489 2.98572 20.1489C2.4115 20.1489 1.58337 20.1785 0.501343 20.2477C0.352906 20.2477 0.239624 20.1785 0.157593 20.0501C0.0833738 19.9069 0.0482178 19.744 0.0482178 19.5563C0.0677488 19.2403 0.11853 19.0526 0.204468 18.9835C0.286499 18.9193 0.442749 18.8847 0.673218 18.8847C1.1615 18.8847 1.51697 18.7761 1.73572 18.5489C1.96228 18.3267 2.10291 18.065 2.15759 17.7588C2.20837 17.4575 2.23962 17.023 2.25134 16.4551L2.29822 3.91187C2.29822 3.25508 2.23962 2.76125 2.12634 2.43038C2.00916 2.10446 1.83728 1.87236 1.61072 1.73903C1.39197 1.61063 1.06384 1.49211 0.626343 1.38347C0.563843 1.35878 0.46228 1.33409 0.329468 1.30446C0.192749 1.26495 0.102906 1.20076 0.0638428 1.10693C0.0208738 1.01804 0.00134277 0.864953 0.00134277 0.652607C0.00134277 0.405692 0.0521238 0.237792 0.157593 0.158779C0.270874 0.0698912 0.442749 0.0205078 0.673218 0.0205078C1.6615 0.0205078 2.47009 0.0995202 3.09509 0.257545C3.72791 0.41557 4.2865 0.741496 4.76697 1.22545C5.24353 1.69952 5.64197 2.41063 5.95447 3.35878L10.2513 15.5662H10.3295L15.2513 0.198286H16.6732C17.5873 0.198286 18.5834 0.173595 19.6576 0.119273C19.8021 0.119273 19.9115 0.18841 19.9857 0.316804C20.0677 0.450138 20.1107 0.6131 20.1107 0.810631C20.0873 1.12668 20.0326 1.31927 19.9388 1.38347C19.8451 1.43779 19.6927 1.46248 19.4857 1.46248C18.9935 1.46248 18.6302 1.57606 18.392 1.79829C18.1615 2.02545 18.017 2.30199 17.9545 2.62792C17.8998 2.95878 17.8685 3.38841 17.8607 3.91187V16.4551C17.8685 16.9835 17.8998 17.4131 17.9545 17.739C18.017 18.0551 18.1615 18.3267 18.392 18.5489C18.6302 18.7761 18.9935 18.8847 19.4857 18.8847H19.6263C19.7826 18.8847 19.8959 18.9242 19.9701 19.0032C20.0404 19.0724 20.0873 19.2551 20.1107 19.5563C20.1107 19.744 20.0677 19.9069 19.9857 20.0501C19.9115 20.1785 19.8021 20.2477 19.6576 20.2477C18.5834 20.1785 17.5834 20.1489 16.6576 20.1489C15.6888 20.1489 14.6615 20.1785 13.5795 20.2477C13.431 20.2477 13.3177 20.1785 13.2357 20.0501C13.1615 19.9069 13.1263 19.744 13.1263 19.5563C13.1459 19.2403 13.1967 19.0526 13.2826 18.9835C13.3646 18.9193 13.5209 18.8847 13.7513 18.8847C14.2396 18.8847 14.599 18.7761 14.8295 18.5489C15.056 18.3267 15.2045 18.0551 15.267 17.739C15.3295 17.4131 15.3646 16.9835 15.3763 16.4551V3.91187H15.2982L10.1576 19.9909C10.0834 20.1983 9.91541 20.3069 9.65759 20.3069Z" fill="black"/>
</svg>
