<svg width="17" height="22" viewBox="0 0 17 22" fill="none" xmlns="http://www.w3.org/2000/svg">
<path d="M0.728271 21.0177C0.579834 21.0177 0.466552 20.9486 0.384521 20.8202C0.310302 20.6769 0.275146 20.514 0.275146 20.3263C0.294677 20.0103 0.345458 19.8226 0.431396 19.7535C0.513427 19.6893 0.669677 19.6547 0.900146 19.6547C1.38843 19.6547 1.7439 19.5461 1.96265 19.3189C2.18921 19.0967 2.32983 18.835 2.38452 18.5288C2.4353 18.2276 2.46655 17.793 2.47827 17.2251L2.52515 4.68189C2.52515 4.04979 2.47046 3.57077 2.3689 3.23991C2.26343 2.91398 2.09155 2.67695 1.85327 2.5288C1.6228 2.38559 1.29077 2.26213 0.853271 2.15349C0.572021 2.08929 0.392334 2.0251 0.322021 1.95596C0.259521 1.89176 0.228271 1.71398 0.228271 1.42263C0.228271 1.17571 0.279052 1.00781 0.384521 0.928799C0.497802 0.839911 0.669677 0.790527 0.900146 0.790527C1.93921 0.790527 2.75952 0.884355 3.35327 1.06707C3.95483 1.23991 4.48608 1.55596 4.94702 2.01522C5.40405 2.47942 5.90796 3.18065 6.46265 4.1288L13.3064 15.5066H13.3845L13.3376 4.68189C13.3142 4.10411 13.2791 3.6646 13.2283 3.35843C13.1736 3.05719 13.033 2.79546 12.8064 2.56831C12.5876 2.34608 12.2361 2.2325 11.7595 2.2325H11.6033C11.4353 2.2325 11.3142 2.20287 11.2439 2.13374C11.1697 2.05472 11.1228 1.87201 11.1033 1.58065C11.1033 1.38312 11.1423 1.22016 11.2283 1.08682C11.3103 0.958429 11.4197 0.889293 11.5564 0.889293C12.6189 0.943614 13.4197 0.968305 13.9626 0.968305C14.2751 0.968305 14.8767 0.948552 15.7751 0.909046L16.3064 0.889293C16.4509 0.889293 16.5603 0.958429 16.6345 1.08682C16.7166 1.22016 16.7595 1.38312 16.7595 1.58065C16.7361 1.8967 16.6853 2.08929 16.6033 2.15349C16.5173 2.20781 16.3611 2.2325 16.1345 2.2325C15.6423 2.2325 15.283 2.34608 15.0564 2.56831C14.8376 2.79546 14.7009 3.05719 14.6501 3.35843C14.6072 3.6646 14.5759 4.10411 14.5564 4.68189L14.5095 20.6029C14.4861 20.8794 14.2791 21.0177 13.8845 21.0177C13.5603 21.0177 13.3142 20.8794 13.1501 20.6029L3.72827 4.68189H3.65015L3.71265 17.2251C3.72046 17.793 3.75171 18.2276 3.8064 18.5288C3.85718 18.835 3.9939 19.0967 4.21265 19.3189C4.43921 19.5461 4.79468 19.6547 5.27515 19.6547H5.4314C5.59546 19.6547 5.71655 19.6942 5.79077 19.7732C5.86108 19.8424 5.90796 20.0251 5.9314 20.3263C5.9314 20.514 5.89233 20.6769 5.82202 20.8202C5.7478 20.9486 5.63452 21.0177 5.47827 21.0177C4.41577 20.9486 3.60718 20.9189 3.0564 20.9189C2.72046 20.9189 2.13843 20.9387 1.3064 20.9782L0.728271 21.0177Z" fill="black"/>
</svg>
