<svg width="17" height="21" viewBox="0 0 17 21" fill="none" xmlns="http://www.w3.org/2000/svg">
<path d="M0.691162 20.6329C0.534912 20.6329 0.421631 20.5638 0.347412 20.4354C0.2771 20.2922 0.238037 20.1292 0.238037 19.9416C0.249756 19.6255 0.296631 19.4379 0.378662 19.3687C0.4646 19.3045 0.55835 19.27 0.675537 19.27C0.800537 19.27 0.878662 19.27 0.909912 19.27C1.40991 19.27 1.77319 19.107 2.00366 18.7761C2.24194 18.4502 2.42944 18.0798 2.56616 17.67C2.71069 17.265 2.80835 16.9885 2.86304 16.8403L7.23804 3.74403C7.33179 3.42798 7.37866 3.18107 7.37866 2.99342C7.37866 2.61317 7.26147 2.34156 7.03491 2.18354C6.80444 2.01564 6.48022 1.87737 6.06616 1.76872C5.77319 1.70453 5.59741 1.64033 5.53491 1.57119C5.47241 1.507 5.44116 1.32922 5.44116 1.03786C5.44116 0.790946 5.49194 0.623046 5.59741 0.544033C5.69897 0.455145 5.87085 0.405762 6.11304 0.405762C6.94507 0.405762 7.60522 0.484774 8.09741 0.642799C8.58569 0.800823 9.01147 1.11687 9.37866 1.59095C9.75366 2.06502 10.0974 2.78601 10.4099 3.74403L14.613 16.8403C14.863 17.6453 15.1013 18.2428 15.3318 18.6379C15.5701 19.0329 15.9177 19.2453 16.3787 19.27H16.5349C16.699 19.27 16.8162 19.3095 16.8787 19.3885C16.949 19.4576 16.9919 19.6403 17.0037 19.9416C17.0037 20.1292 16.9646 20.2922 16.8943 20.4354C16.8201 20.5638 16.7107 20.6329 16.5662 20.6329C15.4919 20.5638 14.574 20.5342 13.8162 20.5342C12.8162 20.5342 11.7771 20.5638 10.7068 20.6329C10.5584 20.6329 10.4451 20.5638 10.363 20.4354C10.2888 20.2922 10.2537 20.1292 10.2537 19.9416C10.2732 19.6403 10.3162 19.4576 10.3787 19.3885C10.449 19.3095 10.5701 19.27 10.738 19.27C11.3005 19.27 11.6951 19.2058 11.9255 19.0724C12.1638 18.9292 12.2849 18.6774 12.2849 18.3218C12.2849 18.0453 12.1834 17.5514 11.988 16.8403L11.1287 14.2132H4.95679C4.53882 15.5169 4.30054 16.2774 4.23804 16.4848C4.18335 16.6971 4.15991 16.8156 4.15991 16.8403C3.96069 17.6453 3.86304 18.1588 3.86304 18.3811C3.86304 18.7366 3.98804 18.9737 4.23804 19.0922C4.48804 19.2107 4.96069 19.27 5.65991 19.27H5.81616C5.98022 19.27 6.09741 19.3095 6.15991 19.3885C6.22241 19.4576 6.26147 19.6403 6.28491 19.9416C6.28491 20.1292 6.24585 20.2922 6.17554 20.4354C6.10132 20.5638 5.98804 20.6329 5.83179 20.6329C4.76929 20.5638 3.86304 20.5342 3.11304 20.5342C2.58179 20.5342 1.77319 20.5638 0.691162 20.6329ZM5.44116 12.8502H10.6912L8.15991 4.73169H8.08179L5.44116 12.8502Z" fill="black"/>
</svg>
