<svg width="17" height="23" viewBox="0 0 17 23" fill="none" xmlns="http://www.w3.org/2000/svg">
<path d="M8.42834 22.166C6.84241 22.166 5.44788 21.682 4.24084 20.724C3.02991 19.766 2.09241 18.4919 1.42834 16.9117C0.772095 15.3314 0.44397 13.6425 0.44397 11.8351C0.44397 9.62278 0.838501 7.69685 1.63147 6.04747C2.42053 4.40302 3.43225 3.14376 4.66272 2.27463C5.901 1.39562 7.15491 0.951172 8.42834 0.951172C10.0221 0.951172 11.4283 1.43512 12.6471 2.39315C13.8737 3.35611 14.819 4.62031 15.4752 6.18574C16.1393 7.75611 16.4752 9.445 16.4752 11.2623C16.4752 13.4746 16.0729 15.4104 15.2721 17.0697C14.4674 18.7191 13.444 19.9833 12.194 20.8623C10.944 21.7314 9.68616 22.166 8.42834 22.166ZM8.39709 20.7833C9.52991 20.7833 10.4752 20.3586 11.2252 19.4993C11.983 18.645 12.5533 17.4993 12.9283 16.0623C13.3033 14.6154 13.4908 13.0154 13.4908 11.2623C13.4908 9.64253 13.2955 8.15611 12.9127 6.79809C12.5377 5.43018 11.9635 4.34377 11.194 3.53883C10.4323 2.72401 9.49866 2.31413 8.39709 2.31413C6.72913 2.31413 5.47522 3.2129 4.63147 5.00055C3.78772 6.77833 3.36584 9.02525 3.36584 11.7364C3.36584 13.3857 3.55334 14.8919 3.92834 16.2598C4.30334 17.6327 4.86584 18.729 5.61584 19.5586C6.36584 20.3783 7.29163 20.7833 8.39709 20.7833Z" fill="black"/>
</svg>
