<svg width="13" height="21" viewBox="0 0 13 21" fill="none" xmlns="http://www.w3.org/2000/svg">
<path d="M0.515503 20.6328C0.378784 20.6328 0.273315 20.5637 0.203003 20.4353C0.128784 20.2921 0.0936279 20.1291 0.0936279 19.9414C0.101441 19.6254 0.148315 19.4377 0.234253 19.3686C0.316284 19.3044 0.476441 19.2698 0.718628 19.2698C1.19519 19.2698 1.55066 19.1612 1.78113 18.934C2.01941 18.7118 2.16394 18.4402 2.21863 18.1241C2.28113 17.7982 2.32019 17.3686 2.34363 16.8402V4.29699C2.32019 3.77353 2.28113 3.3439 2.21863 3.01304C2.16394 2.68711 2.01941 2.41057 1.78113 2.18341C1.55066 1.96119 1.19519 1.8476 0.718628 1.8476H0.562378C0.394409 1.8476 0.273315 1.81797 0.203003 1.74884C0.140503 1.66983 0.101441 1.48711 0.0936279 1.19575C0.0936279 0.998222 0.128784 0.835259 0.203003 0.701925C0.273315 0.573531 0.378784 0.504395 0.515503 0.504395C1.61707 0.558716 2.60925 0.583407 3.48425 0.583407C4.48425 0.583407 5.52332 0.558716 6.60925 0.504395C6.7655 0.504395 6.87878 0.573531 6.953 0.701925C7.02332 0.835259 7.06238 0.998222 7.06238 1.19575C7.05066 1.5118 6.99988 1.7044 6.90613 1.76859C6.81238 1.82291 6.65613 1.8476 6.43738 1.8476C5.95691 1.8476 5.59753 1.96119 5.35925 2.18341C5.12878 2.41057 4.98425 2.68711 4.92175 3.01304C4.86707 3.3439 4.83191 3.77353 4.81238 4.29699V17.3143C4.84363 17.7488 4.88269 18.0945 4.93738 18.3414C4.98816 18.5785 5.1405 18.8056 5.3905 19.013C5.6405 19.2106 6.03113 19.2995 6.56238 19.2698H8.81238C9.39441 19.2451 9.83582 19.1266 10.1405 18.9143C10.4413 18.6921 10.6757 18.3513 10.8436 17.8871C11.0194 17.413 11.2343 16.6525 11.4843 15.5958C11.6093 15.2303 11.8944 15.0822 12.3436 15.1612C12.4882 15.2007 12.6288 15.2896 12.7655 15.418C12.8983 15.5365 12.9569 15.6945 12.9374 15.8921L12.4374 19.8624C12.3827 20.139 12.3046 20.3266 12.203 20.4155C12.1093 20.4945 11.9452 20.534 11.7186 20.534H3.5155C2.61707 20.534 1.61707 20.5637 0.515503 20.6328Z" fill="black"/>
</svg>
