<svg width="37" height="58" viewBox="0 0 37 58" fill="none" xmlns="http://www.w3.org/2000/svg">
<path d="M27.7559 28.5244C30.3575 29.2355 32.4473 30.8751 34.0215 33.443C35.6036 36.001 36.3965 38.9244 36.3965 42.2133C36.3965 46.9541 35.084 50.717 32.459 53.4923C29.834 56.2726 26.17 57.6602 21.4747 57.6602H0.552795V0.870117H20.7715C25.3419 0.870117 28.9161 2.19357 31.4903 4.84049C34.0723 7.47753 35.3653 11.0578 35.3653 15.5862C35.3653 18.9343 34.67 21.7096 33.2872 23.922C31.9005 26.1343 30.0567 27.6701 27.7559 28.5244ZM11.4903 23.843H18.6622C20.4512 23.843 21.8262 23.3442 22.7872 22.3417C23.7442 21.3442 24.2247 19.8726 24.2247 17.9368C24.2247 15.9911 23.7442 14.5096 22.7872 13.4923C21.8262 12.4652 20.4512 11.9516 18.6622 11.9516H11.4903V23.843ZM19.5528 46.4997C21.3965 46.4997 22.8184 45.9763 23.8184 44.9195C24.8184 43.8676 25.3184 42.3417 25.3184 40.3368C25.3184 38.3516 24.7911 36.7911 23.7403 35.6553C22.6973 34.5244 21.2598 33.9565 19.4278 33.9565H11.4903V46.4997H19.5528Z" fill="#008B8B"/>
</svg>
