<svg width="10" height="16" viewBox="0 0 10 16" fill="none" xmlns="http://www.w3.org/2000/svg">
<path d="M0.418701 9.80668C0.418701 8.65112 0.590576 7.63384 0.934326 6.7647C1.27808 5.89557 1.74683 5.22396 2.34058 4.74989C2.93433 4.27581 3.59448 4.03878 4.32495 4.03878C4.90698 4.03878 5.43823 4.1968 5.9187 4.51285C6.40698 4.81902 6.78589 5.23384 7.05933 5.7573V0.54248H9.7937V15.4363H7.05933V13.8166C6.80933 14.3598 6.44214 14.7943 5.96558 15.1203C5.49683 15.4363 4.94995 15.5943 4.32495 15.5943C3.59448 15.5943 2.93433 15.3573 2.34058 14.8832C1.74683 14.4091 1.27808 13.7326 0.934326 12.8487C0.590576 11.9696 0.418701 10.9524 0.418701 9.80668ZM7.05933 9.82643C7.05933 8.9573 6.87183 8.28075 6.49683 7.79186C6.12183 7.2931 5.66089 7.04125 5.12183 7.04125C4.57886 7.04125 4.12183 7.28816 3.74683 7.77211C3.37183 8.261 3.18433 8.93754 3.18433 9.80668C3.18433 10.6659 3.37183 11.3425 3.74683 11.8412C4.12183 12.345 4.57886 12.5919 5.12183 12.5919C5.66089 12.5919 6.12183 12.3499 6.49683 11.861C6.87183 11.3622 7.05933 10.6857 7.05933 9.82643Z" fill="white"/>
</svg>
