<svg width="17" height="21" viewBox="0 0 17 21" fill="none" xmlns="http://www.w3.org/2000/svg">
<path d="M0.563599 20.6328C0.407349 20.6328 0.290161 20.5637 0.219849 20.4353C0.14563 20.2921 0.110474 20.1291 0.110474 19.9414C0.118287 19.6254 0.165161 19.4377 0.251099 19.3686C0.33313 19.3044 0.493287 19.2698 0.735474 19.2698C1.21204 19.2698 1.5675 19.1612 1.79797 18.934C2.03625 18.7118 2.18079 18.4402 2.23547 18.1241C2.29797 17.7982 2.33704 17.3686 2.36047 16.8402V4.29699C2.33704 3.77353 2.29797 3.3439 2.23547 3.01304C2.18079 2.68711 2.03625 2.41057 1.79797 2.18341C1.5675 1.96119 1.21204 1.8476 0.735474 1.8476H0.579224C0.411255 1.8476 0.290161 1.81797 0.219849 1.74884C0.157349 1.66983 0.118287 1.48711 0.110474 1.19575C0.110474 0.998222 0.14563 0.835259 0.219849 0.701925C0.290161 0.573531 0.407349 0.504395 0.563599 0.504395C1.64563 0.558716 2.6261 0.583407 3.5011 0.583407C4.5011 0.583407 5.54016 0.558716 6.6261 0.504395C6.78235 0.504395 6.89563 0.573531 6.96985 0.701925C7.04016 0.835259 7.07922 0.998222 7.07922 1.19575C7.0675 1.5118 7.02063 1.7044 6.9386 1.76859C6.85266 1.82291 6.6925 1.8476 6.45422 1.8476C5.97375 1.8476 5.61438 1.96119 5.3761 2.18341C5.14563 2.41057 5.0011 2.68711 4.9386 3.01304C4.88391 3.3439 4.84875 3.77353 4.82922 4.29699V10.0056C5.09875 9.94143 5.39954 9.76366 5.73547 9.4723C6.0675 9.18588 6.47375 8.776 6.95422 8.24761C7.89172 7.14143 9.0675 5.53156 10.4855 3.4081C10.7863 2.98835 10.9386 2.65254 10.9386 2.40069C10.9386 2.08464 10.7081 1.91674 10.2511 1.88711C10.1339 1.86242 10.0558 1.80316 10.0167 1.70933C9.97375 1.62044 9.9386 1.45254 9.90735 1.21551C9.90735 1.03279 9.94641 0.869826 10.0323 0.721679C10.1144 0.578469 10.2238 0.504395 10.3605 0.504395C10.9425 0.558716 11.8605 0.583407 13.1105 0.583407C13.505 0.583407 14.087 0.563654 14.8605 0.524148L15.3761 0.504395C15.5323 0.504395 15.6495 0.573531 15.7355 0.701925C15.8175 0.835259 15.8605 1.0081 15.8605 1.21551C15.837 1.52168 15.7863 1.70933 15.7042 1.78835C15.6183 1.85748 15.505 1.88711 15.3605 1.88711C14.6925 1.8476 14.0636 1.98588 13.4698 2.30193C12.8761 2.61797 12.255 3.18588 11.6105 4.00069L7.5636 9.35378C8.14563 10.2525 8.74329 11.1118 9.36047 11.9414C9.97375 12.7612 10.712 13.7143 11.5792 14.8056C12.0167 15.3587 12.5323 16.0402 13.1261 16.8402C13.3136 17.0674 13.4386 17.2303 13.5011 17.334C14.0402 18.0204 14.462 18.4995 14.7667 18.776C15.0792 19.0427 15.4581 19.2056 15.9073 19.2698C15.9386 19.2698 16.0089 19.2797 16.1261 19.2896C16.2511 19.3044 16.3488 19.3637 16.423 19.4674C16.4933 19.576 16.5323 19.734 16.5323 19.9414C16.5323 20.1291 16.4933 20.2921 16.423 20.4353C16.3488 20.5637 16.2355 20.6328 16.0792 20.6328C15.88 20.6032 15.6417 20.5933 15.3605 20.5933C14.755 20.5538 14.2863 20.534 13.9542 20.534H12.3605C10.1613 17.4427 8.1925 14.6279 6.45422 12.0995C5.92297 11.3241 5.38 10.9044 4.82922 10.8353V16.8402C4.84875 17.3686 4.88391 17.7982 4.9386 18.1241C5.0011 18.4402 5.14563 18.7118 5.3761 18.934C5.61438 19.1612 5.97375 19.2698 6.45422 19.2698H6.61047C6.77454 19.2698 6.89172 19.3093 6.95422 19.3883C7.02454 19.4575 7.0675 19.6402 7.07922 19.9414C7.07922 20.1291 7.04016 20.2921 6.96985 20.4353C6.89563 20.5637 6.78235 20.6328 6.6261 20.6328C5.5636 20.5637 4.53235 20.534 3.53235 20.534C2.63391 20.534 1.64563 20.5637 0.563599 20.6328Z" fill="black"/>
</svg>
