<svg width="17" height="22" viewBox="0 0 17 22" fill="none" xmlns="http://www.w3.org/2000/svg">
<path d="M8.38599 21.5512C6.93677 21.5512 5.62427 21.1661 4.44849 20.4056C3.28052 19.6303 2.35474 18.4599 1.66724 16.8895C0.979736 15.3241 0.635986 13.3883 0.635986 11.0821C0.635986 8.96359 1.00317 7.09198 1.74536 5.47223C2.49536 3.8426 3.52661 2.5784 4.83911 1.67964C6.15942 0.785809 7.67114 0.336426 9.37036 0.336426C10.2024 0.336426 11.0266 0.49445 11.8391 0.8105C12.6594 1.12655 13.3391 1.63025 13.8704 2.31173C14.4016 2.98334 14.6672 3.81297 14.6672 4.80062C14.6672 5.72408 14.4485 6.52902 14.011 7.2105C13.5813 7.88211 13.011 8.21791 12.2922 8.21791C11.9368 8.21791 11.5969 8.1142 11.2766 7.90186C10.9524 7.69445 10.7805 7.41791 10.761 7.07223C10.761 7.06235 10.8743 6.94877 11.1047 6.73643C11.3313 6.52902 11.5422 6.2426 11.7297 5.88704C11.9172 5.52161 12.011 5.08704 12.011 4.58334C12.011 3.70433 11.7336 2.98334 11.1829 2.43025C10.6399 1.87717 9.93677 1.60062 9.07349 1.60062C8.03052 1.60062 7.09302 1.97099 6.26099 2.7068C5.42505 3.43272 4.7688 4.49939 4.29224 5.9068C3.81177 7.30433 3.57349 8.96852 3.57349 10.9043C3.57349 12.7759 3.80786 14.3957 4.27661 15.7636C4.75317 17.1364 5.42114 18.1883 6.27661 18.9241C7.13989 19.65 8.13599 20.0105 9.26099 20.0105C9.80005 20.0105 10.2688 19.971 10.6672 19.892C11.0618 19.813 11.4954 19.6846 11.9641 19.4969V16.2772C11.9641 15.5414 11.9407 15.0278 11.9016 14.7364C11.8586 14.4352 11.7219 14.213 11.4954 14.0648C11.2766 13.9216 10.9016 13.8475 10.3704 13.8475C10.1829 13.8475 10.0461 13.808 9.96411 13.729C9.87818 13.65 9.8313 13.4673 9.82349 13.1759C9.82349 12.9932 9.86255 12.8352 9.94849 12.7019C10.0422 12.5586 10.1711 12.4846 10.3391 12.4846C11.3899 12.5537 12.3079 12.5833 13.0891 12.5833C13.8391 12.5833 14.7375 12.5537 15.7922 12.4846C15.9368 12.4846 16.05 12.5586 16.136 12.7019C16.218 12.8352 16.261 12.9932 16.261 13.1759C16.2493 13.4673 16.2024 13.65 16.1204 13.729C16.0344 13.808 15.9016 13.8475 15.7141 13.8475C15.2141 13.8475 14.8547 13.9364 14.636 14.1043C14.425 14.2624 14.2961 14.4994 14.2454 14.8154C14.1907 15.1216 14.1672 15.6056 14.1672 16.2772V20.0105C13.1868 20.5932 12.2844 20.9883 11.4641 21.2154C10.6516 21.4377 9.62427 21.5512 8.38599 21.5512Z" fill="black"/>
</svg>
