<svg width="37" height="47" viewBox="0 0 37 47" fill="none" xmlns="http://www.w3.org/2000/svg">
<path d="M36.3458 22.96C36.3458 24.2637 36.2833 25.6168 36.1583 27.0094H11.3927C11.5568 29.8143 12.2716 31.9624 13.5333 33.4489C14.7911 34.9254 16.338 35.6612 18.174 35.6612C20.9005 35.6612 22.8029 34.2094 23.8771 31.2958H35.5177C34.924 34.2736 33.8458 36.9452 32.2833 39.3155C30.7286 41.6859 28.7755 43.5526 26.424 44.9057C24.0802 46.2489 21.4591 46.9205 18.5646 46.9205C15.0646 46.9205 11.9474 45.9822 9.22083 44.0958C6.49036 42.1995 4.35364 39.5032 2.81458 35.997C1.28333 32.4958 0.5177 28.3921 0.5177 23.6908C0.5177 19.0044 1.27161 14.9106 2.78333 11.4044C4.30286 7.88836 6.42786 5.19207 9.15833 3.30565C11.8849 1.42417 15.0216 0.480957 18.5646 0.480957C22.0216 0.480957 25.0958 1.39947 27.7833 3.22664C30.4708 5.05874 32.5685 7.67108 34.0802 11.0686C35.588 14.4661 36.3458 18.4316 36.3458 22.96ZM25.1583 19.3254C25.1583 16.955 24.5177 15.0736 23.2365 13.676C21.9552 12.2686 20.3536 11.5624 18.4396 11.5624C16.5958 11.5624 15.0411 12.2439 13.7833 13.597C12.5333 14.9402 11.756 16.8513 11.4552 19.3254H25.1583Z" fill="#008B8B"/>
</svg>
