<svg width="17" height="22" viewBox="0 0 17 22" fill="none" xmlns="http://www.w3.org/2000/svg">
<path d="M8.27881 21.5512C6.82959 21.5512 5.51709 21.1661 4.34131 20.4056C3.17334 19.6303 2.24756 18.4599 1.56006 16.8895C0.872559 15.3241 0.528809 13.3883 0.528809 11.0821C0.528809 8.96359 0.895997 7.09198 1.63818 5.47223C2.38818 3.8426 3.41943 2.5784 4.73193 1.67964C6.05225 0.785809 7.56396 0.336426 9.26318 0.336426C10.0952 0.336426 10.9194 0.49445 11.7319 0.8105C12.5522 1.12655 13.2319 1.63025 13.7632 2.31173C14.2944 2.98334 14.5601 3.81297 14.5601 4.80062C14.5601 5.72408 14.3413 6.52902 13.9038 7.2105C13.4741 7.88211 12.9038 8.21791 12.1851 8.21791C11.8296 8.21791 11.4897 8.1142 11.1694 7.90186C10.8452 7.69445 10.6733 7.41791 10.6538 7.07223C10.6538 7.06235 10.7671 6.94877 10.9976 6.73643C11.2241 6.52902 11.4351 6.2426 11.6226 5.88704C11.8101 5.52161 11.9038 5.08704 11.9038 4.58334C11.9038 3.70433 11.6265 2.98334 11.0757 2.43025C10.5327 1.87717 9.82959 1.60062 8.96631 1.60062C7.92334 1.60062 6.98584 1.97099 6.15381 2.7068C5.31787 3.43272 4.66162 4.49939 4.18506 5.9068C3.70459 7.30433 3.46631 8.96852 3.46631 10.9043C3.46631 12.7759 3.70068 14.3957 4.16943 15.7636C4.646 17.1364 5.31396 18.1883 6.16943 18.9241C7.03271 19.65 8.02881 20.0105 9.15381 20.0105C9.69287 20.0105 10.1616 19.971 10.5601 19.892C10.9546 19.813 11.3882 19.6846 11.8569 19.4969V16.2772C11.8569 15.5414 11.8335 15.0278 11.7944 14.7364C11.7515 14.4352 11.6147 14.213 11.3882 14.0648C11.1694 13.9216 10.7944 13.8475 10.2632 13.8475C10.0757 13.8475 9.93896 13.808 9.85693 13.729C9.771 13.65 9.72412 13.4673 9.71631 13.1759C9.71631 12.9932 9.75537 12.8352 9.84131 12.7019C9.93506 12.5586 10.064 12.4846 10.2319 12.4846C11.2827 12.5537 12.2007 12.5833 12.9819 12.5833C13.7319 12.5833 14.6304 12.5537 15.6851 12.4846C15.8296 12.4846 15.9429 12.5586 16.0288 12.7019C16.1108 12.8352 16.1538 12.9932 16.1538 13.1759C16.1421 13.4673 16.0952 13.65 16.0132 13.729C15.9272 13.808 15.7944 13.8475 15.6069 13.8475C15.1069 13.8475 14.7476 13.9364 14.5288 14.1043C14.3179 14.2624 14.189 14.4994 14.1382 14.8154C14.0835 15.1216 14.0601 15.6056 14.0601 16.2772V20.0105C13.0796 20.5932 12.1772 20.9883 11.3569 21.2154C10.5444 21.4377 9.51709 21.5512 8.27881 21.5512Z" fill="black"/>
</svg>
