<svg width="15" height="22" viewBox="0 0 15 22" fill="none" xmlns="http://www.w3.org/2000/svg">
<path d="M8.47253 21.9365C7.05457 21.9365 5.75769 21.5069 4.58191 20.6525C3.40222 19.7982 2.46472 18.5785 1.76941 16.9982C1.08191 15.418 0.738159 13.576 0.738159 11.4674C0.738159 9.34884 1.07019 7.47724 1.73816 5.85748C2.40222 4.22785 3.35144 2.96366 4.58191 2.06489C5.82019 1.17106 7.26941 0.72168 8.92566 0.72168C10.3514 0.72168 11.621 1.09205 12.7382 1.82785C13.8632 2.55378 14.4257 3.67477 14.4257 5.18588C14.4335 6.13403 14.2069 6.9439 13.7382 7.61551C13.2772 8.27724 12.6522 8.60316 11.8632 8.60316C11.5702 8.60316 11.3202 8.53896 11.1132 8.40563C10.9022 8.26242 10.746 8.09946 10.6444 7.9118C10.5389 7.71427 10.496 7.56612 10.5194 7.45748C10.5194 7.41798 10.6327 7.30933 10.8632 7.12168C11.1014 6.92415 11.3085 6.66242 11.4882 6.33156C11.6757 5.99082 11.7694 5.576 11.7694 5.08711C11.7694 4.13896 11.5116 3.38835 11.0038 2.83526C10.4921 2.2723 9.78894 1.98588 8.89441 1.98588C7.87097 1.98588 6.96472 2.35625 6.17566 3.09205C5.38269 3.81798 4.76941 4.88464 4.33191 6.29205C3.89441 7.68958 3.67566 9.35378 3.67566 11.2896C3.67566 12.9785 3.91003 14.5093 4.37878 15.8921C4.85535 17.2649 5.52722 18.3562 6.39441 19.1711C7.25769 19.9908 8.24597 20.3958 9.36316 20.3958C10.2694 20.3958 11.0389 20.1587 11.6757 19.6846C12.3202 19.2106 12.9022 18.4501 13.4257 17.3933C13.5077 17.1958 13.621 17.097 13.7694 17.097C13.9022 17.097 14.0546 17.1661 14.2225 17.2945C14.4803 17.5217 14.6132 17.7488 14.6132 17.9859C14.6132 18.1192 14.5819 18.2229 14.5194 18.3019C13.8827 19.3192 13.285 20.0797 12.7225 20.5933C12.1678 21.1069 11.5663 21.4525 10.91 21.6402C10.2616 21.8377 9.4491 21.9365 8.47253 21.9365Z" fill="black"/>
</svg>
