<svg width="17" height="21" viewBox="0 0 17 21" fill="none" xmlns="http://www.w3.org/2000/svg">
<path d="M1.00208 20.6328C0.845825 20.6328 0.728637 20.5637 0.658325 20.4353C0.584106 20.2921 0.54895 20.1291 0.54895 19.9414C0.556763 19.6254 0.603637 19.4377 0.689575 19.3686C0.771606 19.3044 0.931763 19.2698 1.17395 19.2698C1.65051 19.2698 2.00598 19.1612 2.23645 18.934C2.47473 18.7118 2.61926 18.4402 2.67395 18.1241C2.73645 17.7982 2.77551 17.3686 2.79895 16.8402V4.31674C2.77551 3.77847 2.73645 3.34884 2.67395 3.03279C2.61926 2.71674 2.47473 2.4402 2.23645 2.20316C2.00598 1.96612 1.65051 1.8476 1.17395 1.8476H1.0177C0.849731 1.8476 0.728637 1.81797 0.658325 1.74884C0.595825 1.66983 0.556763 1.48711 0.54895 1.19575C0.54895 0.998222 0.584106 0.835259 0.658325 0.701925C0.728637 0.573531 0.845825 0.504395 1.00208 0.504395C2.08411 0.558716 3.07239 0.583407 3.97083 0.583407H8.2677C9.54895 0.613037 10.6154 0.874765 11.4708 1.37353C12.3341 1.86242 12.963 2.49452 13.3615 3.26983C13.7677 4.03526 13.9708 4.85995 13.9708 5.73896C13.9708 6.89946 13.6036 7.96612 12.8771 8.93896C12.1583 9.90193 11.174 10.5933 9.92395 11.013L10.3458 11.8822C11.0411 13.3044 11.674 14.5291 12.2365 15.5562C12.8068 16.5834 13.4279 17.5414 14.0958 18.4204C14.5646 18.9093 15.0646 19.1908 15.5958 19.2698C15.6271 19.2698 15.6974 19.2797 15.8146 19.2896C15.9396 19.3044 16.0372 19.3637 16.1115 19.4674C16.1818 19.576 16.2208 19.734 16.2208 19.9414C16.2208 20.1291 16.1818 20.2921 16.1115 20.4353C16.0372 20.5637 15.924 20.6328 15.7677 20.6328L15.1271 20.5933C14.3849 20.5538 13.8497 20.534 13.5177 20.534C12.8497 20.3661 12.2755 20.0698 11.799 19.6451C11.3302 19.2106 10.8615 18.5933 10.3927 17.7883C9.91223 16.9883 9.24036 15.6748 8.37708 13.8575L7.92395 12.9488C7.67395 12.4649 7.42786 12.134 7.18958 11.9612C6.95911 11.7785 6.56458 11.6846 6.00208 11.6846H5.2677V16.8402C5.28723 17.3686 5.32239 17.7982 5.37708 18.1241C5.43958 18.4402 5.58411 18.7118 5.81458 18.934C6.05286 19.1612 6.41223 19.2698 6.8927 19.2698H7.04895C7.19348 19.2698 7.30286 19.3093 7.37708 19.3883C7.45911 19.4575 7.50598 19.6402 7.5177 19.9414C7.5177 20.1291 7.47864 20.2921 7.40833 20.4353C7.33411 20.5637 7.22083 20.6328 7.06458 20.6328C6.00208 20.5637 4.95911 20.534 3.93958 20.534C3.06458 20.534 2.08411 20.5637 1.00208 20.6328ZM7.47083 10.46C9.94739 10.46 11.1896 8.98835 11.1896 6.03526C11.1896 4.82538 10.8654 3.81304 10.2208 2.99328C9.57239 2.17847 8.50598 1.76859 7.0177 1.76859C6.53723 1.76859 6.17395 1.84267 5.92395 1.98588C5.67395 2.13402 5.50208 2.38094 5.40833 2.73649C5.31458 3.09205 5.2677 3.6402 5.2677 4.376V10.46H7.47083Z" fill="black"/>
</svg>
