<svg width="14" height="21" viewBox="0 0 14 21" fill="none" xmlns="http://www.w3.org/2000/svg">
<path d="M3.96338 20.4029C3.81494 20.4029 3.70557 20.3338 3.63525 20.2054C3.56104 20.0622 3.52588 19.8992 3.52588 19.7115C3.53369 19.3955 3.58057 19.2078 3.6665 19.1387C3.74854 19.0745 3.90869 19.0399 4.15088 19.0399C4.62744 19.0399 4.98291 18.9313 5.21338 18.7041C5.45166 18.4819 5.59619 18.2103 5.65088 17.8943C5.71338 17.5683 5.75244 17.1387 5.77588 16.6103V1.5387H4.0415C3.479 1.55352 3.0415 1.7066 2.729 1.99302C2.42432 2.26957 2.18994 2.69426 2.02588 3.25722C1.86963 3.81031 1.73291 4.61031 1.61963 5.64734C1.59619 5.80537 1.49463 5.9387 1.30713 6.0424C1.12744 6.15105 0.939941 6.20043 0.744629 6.20043C0.596191 6.20043 0.463379 6.15105 0.338379 6.0424C0.213379 5.92389 0.150879 5.76586 0.150879 5.56833L0.213379 1.12389C0.213379 0.610306 0.439941 0.353516 0.900879 0.353516H13.1196C13.5571 0.353516 13.7759 0.610306 13.7759 1.12389L13.8696 5.56833C13.8696 5.76586 13.7993 5.92389 13.6665 6.0424C13.5298 6.15105 13.3892 6.20043 13.2446 6.20043C13.0454 6.20043 12.8579 6.15105 12.6821 6.0424C12.5024 5.9387 12.4087 5.80537 12.4009 5.64734C12.2642 4.59549 12.1196 3.79055 11.9634 3.23747C11.8149 2.68438 11.5806 2.26957 11.2603 1.99302C10.9478 1.7066 10.5103 1.55352 9.94775 1.5387H8.24463V16.6103C8.26416 17.1387 8.29932 17.5683 8.354 17.8943C8.4165 18.2103 8.56104 18.4819 8.7915 18.7041C9.02979 18.9313 9.38916 19.0399 9.86963 19.0399H10.0259C10.1704 19.0399 10.2798 19.0794 10.354 19.1585C10.4243 19.2276 10.4712 19.4103 10.4946 19.7115C10.4946 19.8992 10.4556 20.0622 10.3853 20.2054C10.311 20.3338 10.1978 20.4029 10.0415 20.4029C8.979 20.3338 7.99463 20.3041 7.08838 20.3041C6.08838 20.3041 5.04541 20.3338 3.96338 20.4029Z" fill="black"/>
</svg>
