<svg width="14" height="22" viewBox="0 0 14 22" fill="none" xmlns="http://www.w3.org/2000/svg">
<path d="M1.3999 21.018C1.26318 21.018 1.15771 20.9489 1.0874 20.8205C1.01318 20.6773 0.978027 20.5143 0.978027 20.3267C0.98584 20.0106 1.03271 19.823 1.11865 19.7538C1.20068 19.6897 1.36084 19.6551 1.60303 19.6551C2.07959 19.6551 2.43506 19.5464 2.66553 19.3193C2.90381 19.0971 3.04834 18.8255 3.10303 18.5094C3.16553 18.1835 3.20459 17.7538 3.22803 17.2255V4.68224C3.20459 4.15879 3.16553 3.72916 3.10303 3.39829C3.04834 3.07236 2.90381 2.79582 2.66553 2.56866C2.43506 2.34644 2.07959 2.23286 1.60303 2.23286H1.44678C1.27881 2.23286 1.15771 2.20323 1.0874 2.13409C1.0249 2.05508 0.98584 1.87236 0.978027 1.58101C0.978027 1.38348 1.01318 1.22051 1.0874 1.08718C1.15771 0.958785 1.26318 0.889648 1.3999 0.889648C2.50146 0.94397 3.49365 0.968661 4.36865 0.968661H12.228C12.6538 0.968661 12.8687 1.22545 12.8687 1.73903L12.9468 6.16372C12.9468 6.35138 12.8687 6.49953 12.7124 6.61804C12.564 6.73656 12.4194 6.79582 12.2749 6.79582C12.0757 6.79582 11.8999 6.75138 11.7437 6.65755C11.5952 6.55385 11.5132 6.41064 11.4937 6.22298C11.3687 5.19582 11.2202 4.41557 11.0562 3.87236C10.8999 3.33409 10.6655 2.93409 10.353 2.66743C10.0483 2.4057 9.61865 2.26249 9.05615 2.23286H5.69678V10.2724H10.228C10.3413 10.2872 10.4312 10.3662 10.4937 10.5094C10.564 10.6427 10.603 10.8057 10.603 11.0032C10.603 11.1613 10.564 11.3094 10.4937 11.4378C10.4312 11.5711 10.3413 11.6353 10.228 11.6353H5.69678V17.6008C5.72803 18.0501 5.76709 18.4057 5.82178 18.6674C5.87256 18.9341 6.0249 19.1711 6.2749 19.3785C6.5249 19.5909 6.91553 19.6847 7.44678 19.6551H9.74365C10.3257 19.6304 10.7671 19.5119 11.0718 19.2995C11.3726 19.0773 11.6108 18.7366 11.7905 18.2724C11.9663 17.7983 12.1812 17.0378 12.4312 15.981C12.5444 15.6156 12.8257 15.4674 13.2749 15.5464C13.439 15.5859 13.5874 15.6748 13.7124 15.8032C13.8374 15.9217 13.8882 16.0798 13.8687 16.2773L13.3687 20.2477C13.3257 20.5242 13.2515 20.7119 13.1499 20.8008C13.0444 20.8798 12.8765 20.9193 12.6499 20.9193H4.3999C3.50146 20.9193 2.50146 20.9489 1.3999 21.018Z" fill="black"/>
</svg>
