<svg width="14" height="21" viewBox="0 0 14 21" fill="none" xmlns="http://www.w3.org/2000/svg">
<path d="M1.16992 20.4028C1.0332 20.4028 0.927734 20.3337 0.857422 20.2053C0.783203 20.0621 0.748047 19.8991 0.748047 19.7115C0.75586 19.3954 0.802734 19.2078 0.888672 19.1386C0.970703 19.0744 1.13086 19.0398 1.37305 19.0398C1.84961 19.0398 2.20508 18.9312 2.43555 18.704C2.67383 18.4818 2.81836 18.2102 2.87305 17.8942C2.93555 17.5682 2.97461 17.1386 2.99805 16.6102V4.06701C2.97461 3.54355 2.93555 3.11392 2.87305 2.78306C2.81836 2.45713 2.67383 2.18059 2.43555 1.95343C2.20508 1.7312 1.84961 1.61762 1.37305 1.61762H1.2168C1.04883 1.61762 0.927734 1.58799 0.857422 1.51886C0.794922 1.43985 0.75586 1.25713 0.748047 0.965772C0.748047 0.768241 0.783203 0.605279 0.857422 0.471945C0.927734 0.343551 1.0332 0.274414 1.16992 0.274414C2.27148 0.328735 3.26367 0.353426 4.13867 0.353426H11.998C12.4238 0.353426 12.6387 0.610217 12.6387 1.1238L12.7168 5.54849C12.7168 5.73614 12.6387 5.88429 12.4824 6.00281C12.334 6.12133 12.1895 6.18059 12.0449 6.18059C11.8457 6.18059 11.6699 6.13614 11.5137 6.04232C11.3652 5.93861 11.2832 5.7954 11.2637 5.60775C11.1387 4.58059 10.9902 3.80034 10.8262 3.25713C10.6699 2.71886 10.4355 2.31886 10.123 2.05219C9.81836 1.79046 9.38867 1.64725 8.82617 1.61762H5.4668V9.65713H9.99805C10.1113 9.67195 10.2012 9.75096 10.2637 9.89417C10.334 10.0275 10.373 10.1905 10.373 10.388C10.373 10.546 10.334 10.6942 10.2637 10.8226C10.2012 10.9559 10.1113 11.0201 9.99805 11.0201H5.4668V16.9855C5.49805 17.4349 5.53711 17.7905 5.5918 18.0522C5.64258 18.3189 5.79492 18.5559 6.04492 18.7633C6.29492 18.9757 6.68555 19.0695 7.2168 19.0398H9.51367C10.0957 19.0152 10.5371 18.8966 10.8418 18.6843C11.1426 18.4621 11.3809 18.1213 11.5605 17.6571C11.7363 17.1831 11.9512 16.4226 12.2012 15.3658C12.3145 15.0003 12.5957 14.8522 13.0449 14.9312C13.209 14.9707 13.3574 15.0596 13.4824 15.188C13.6074 15.3065 13.6582 15.4645 13.6387 15.6621L13.1387 19.6324C13.0957 19.909 13.0215 20.0966 12.9199 20.1855C12.8145 20.2645 12.6465 20.304 12.4199 20.304H4.16992C3.27148 20.304 2.27148 20.3337 1.16992 20.4028Z" fill="black"/>
</svg>
