<svg width="14" height="21" viewBox="0 0 14 21" fill="none" xmlns="http://www.w3.org/2000/svg">
<path d="M1.23901 20.4028C1.10229 20.4028 0.996826 20.3337 0.926514 20.2053C0.852295 20.0621 0.817139 19.8991 0.817139 19.7115C0.824952 19.3954 0.871826 19.2078 0.957764 19.1386C1.03979 19.0744 1.19995 19.0398 1.44214 19.0398C1.9187 19.0398 2.27417 18.9312 2.50464 18.704C2.74292 18.4818 2.88745 18.2102 2.94214 17.8942C3.00464 17.5682 3.0437 17.1386 3.06714 16.6102V4.06701C3.0437 3.54355 3.00464 3.11392 2.94214 2.78306C2.88745 2.45713 2.74292 2.18059 2.50464 1.95343C2.27417 1.7312 1.9187 1.61762 1.44214 1.61762H1.28589C1.11792 1.61762 0.996826 1.58799 0.926514 1.51886C0.864014 1.43985 0.824952 1.25713 0.817139 0.965772C0.817139 0.768241 0.852295 0.605279 0.926514 0.471945C0.996826 0.343551 1.10229 0.274414 1.23901 0.274414C2.34058 0.328735 3.33276 0.353426 4.20776 0.353426H12.0671C12.4929 0.353426 12.7078 0.610217 12.7078 1.1238L12.7859 5.54849C12.7859 5.73614 12.7078 5.88429 12.5515 6.00281C12.4031 6.12133 12.2585 6.18059 12.114 6.18059C11.9148 6.18059 11.739 6.13614 11.5828 6.04232C11.4343 5.93861 11.3523 5.7954 11.3328 5.60775C11.2078 4.58059 11.0593 3.80034 10.8953 3.25713C10.739 2.71886 10.5046 2.31886 10.1921 2.05219C9.88745 1.79046 9.45776 1.64725 8.89526 1.61762H5.53589V9.65713H10.0671C10.1804 9.67195 10.2703 9.75096 10.3328 9.89417C10.4031 10.0275 10.4421 10.1905 10.4421 10.388C10.4421 10.546 10.4031 10.6942 10.3328 10.8226C10.2703 10.9559 10.1804 11.0201 10.0671 11.0201H5.53589V16.9855C5.56714 17.4349 5.6062 17.7905 5.66089 18.0522C5.71167 18.3189 5.86401 18.5559 6.11401 18.7633C6.36401 18.9757 6.75464 19.0695 7.28589 19.0398H9.58276C10.1648 19.0152 10.6062 18.8966 10.9109 18.6843C11.2117 18.4621 11.45 18.1213 11.6296 17.6571C11.8054 17.1831 12.0203 16.4226 12.2703 15.3658C12.3835 15.0003 12.6648 14.8522 13.114 14.9312C13.2781 14.9707 13.4265 15.0596 13.5515 15.188C13.6765 15.3065 13.7273 15.4645 13.7078 15.6621L13.2078 19.6324C13.1648 19.909 13.0906 20.0966 12.989 20.1855C12.8835 20.2645 12.7156 20.304 12.489 20.304H4.23901C3.34058 20.304 2.34058 20.3337 1.23901 20.4028Z" fill="black"/>
</svg>
