<svg width="14" height="21" viewBox="0 0 14 21" fill="none" xmlns="http://www.w3.org/2000/svg">
<path d="M4.01465 20.6329C3.86621 20.6329 3.75684 20.5637 3.68652 20.4353C3.6123 20.2921 3.57715 20.1292 3.57715 19.9415C3.58496 19.6255 3.63184 19.4378 3.71777 19.3687C3.7998 19.3045 3.95996 19.2699 4.20215 19.2699C4.67871 19.2699 5.03418 19.1613 5.26465 18.9341C5.50293 18.7119 5.64746 18.4403 5.70215 18.1242C5.76465 17.7983 5.80371 17.3687 5.82715 16.8403V1.76868H4.09277C3.53027 1.7835 3.09277 1.93658 2.78027 2.223C2.47559 2.49955 2.24121 2.92424 2.07715 3.4872C1.9209 4.04029 1.78418 4.84029 1.6709 5.87732C1.64746 6.03535 1.5459 6.16868 1.3584 6.27239C1.17871 6.38103 0.991211 6.43041 0.795898 6.43041C0.64746 6.43041 0.514648 6.38103 0.389648 6.27239C0.264648 6.15387 0.202148 5.99584 0.202148 5.79831L0.264648 1.35387C0.264648 0.840286 0.49121 0.583496 0.952149 0.583496H13.1709C13.6084 0.583496 13.8272 0.840286 13.8272 1.35387L13.9209 5.79831C13.9209 5.99584 13.8506 6.15387 13.7178 6.27239C13.5811 6.38103 13.4404 6.43041 13.2959 6.43041C13.0967 6.43041 12.9092 6.38103 12.7334 6.27239C12.5537 6.16868 12.46 6.03535 12.4522 5.87732C12.3154 4.82547 12.1709 4.02053 12.0146 3.46745C11.8662 2.91436 11.6318 2.49955 11.3115 2.223C10.999 1.93658 10.5615 1.7835 9.99902 1.76868H8.2959V16.8403C8.31543 17.3687 8.35059 17.7983 8.40527 18.1242C8.46777 18.4403 8.61231 18.7119 8.84277 18.9341C9.08106 19.1613 9.44043 19.2699 9.9209 19.2699H10.0771C10.2217 19.2699 10.3311 19.3094 10.4053 19.3884C10.4756 19.4576 10.5225 19.6403 10.5459 19.9415C10.5459 20.1292 10.5068 20.2921 10.4365 20.4353C10.3623 20.5637 10.249 20.6329 10.0928 20.6329C9.03027 20.5637 8.0459 20.5341 7.13965 20.5341C6.13965 20.5341 5.09668 20.5637 4.01465 20.6329Z" fill="black"/>
</svg>
