<svg width="14" height="21" viewBox="0 0 14 21" fill="none" xmlns="http://www.w3.org/2000/svg">
<path d="M0.73645 20.4028C0.599731 20.4028 0.494262 20.3337 0.42395 20.2053C0.349731 20.0621 0.314575 19.8991 0.314575 19.7115C0.322388 19.3954 0.369262 19.2078 0.4552 19.1386C0.537231 19.0744 0.697388 19.0398 0.939575 19.0398C1.41614 19.0398 1.77161 18.9312 2.00208 18.704C2.24036 18.4818 2.38489 18.2102 2.43958 17.8942C2.50208 17.5682 2.54114 17.1386 2.56458 16.6102V4.06701C2.54114 3.54355 2.50208 3.11392 2.43958 2.78306C2.38489 2.45713 2.24036 2.18059 2.00208 1.95343C1.77161 1.7312 1.41614 1.61762 0.939575 1.61762H0.783325C0.615356 1.61762 0.494262 1.58799 0.42395 1.51886C0.36145 1.43985 0.322388 1.25713 0.314575 0.965772C0.314575 0.768241 0.349731 0.605279 0.42395 0.471945C0.494262 0.343551 0.599731 0.274414 0.73645 0.274414C1.83801 0.328735 2.8302 0.353426 3.7052 0.353426C4.7052 0.353426 5.74426 0.328735 6.8302 0.274414C6.98645 0.274414 7.09973 0.343551 7.17395 0.471945C7.24426 0.605279 7.28333 0.768241 7.28333 0.965772C7.27161 1.28182 7.22083 1.47441 7.12708 1.53861C7.03333 1.59293 6.87708 1.61762 6.65833 1.61762C6.17786 1.61762 5.81848 1.7312 5.5802 1.95343C5.34973 2.18059 5.2052 2.45713 5.1427 2.78306C5.08801 3.11392 5.05286 3.54355 5.03333 4.06701V17.0843C5.06458 17.5189 5.10364 17.8645 5.15833 18.1115C5.20911 18.3485 5.36145 18.5757 5.61145 18.7831C5.86145 18.9806 6.25208 19.0695 6.78333 19.0398H9.03333C9.61536 19.0152 10.0568 18.8966 10.3615 18.6843C10.6622 18.4621 10.8966 18.1213 11.0646 17.6571C11.2404 17.1831 11.4552 16.4226 11.7052 15.3658C11.8302 15.0003 12.1154 14.8522 12.5646 14.9312C12.7091 14.9707 12.8497 15.0596 12.9865 15.188C13.1193 15.3065 13.1779 15.4645 13.1583 15.6621L12.6583 19.6324C12.6036 19.909 12.5255 20.0966 12.424 20.1855C12.3302 20.2645 12.1661 20.304 11.9396 20.304H3.73645C2.83801 20.304 1.83801 20.3337 0.73645 20.4028Z" fill="black"/>
</svg>
