<svg width="14" height="21" viewBox="0 0 14 21" fill="none" xmlns="http://www.w3.org/2000/svg">
<path d="M0.872192 20.6328C0.735473 20.6328 0.630004 20.5637 0.559692 20.4353C0.485473 20.2921 0.450317 20.1291 0.450317 19.9414C0.45813 19.6254 0.505004 19.4377 0.590942 19.3686C0.672973 19.3044 0.83313 19.2698 1.07532 19.2698C1.55188 19.2698 1.90735 19.1612 2.13782 18.934C2.3761 18.7118 2.52063 18.4402 2.57532 18.1241C2.63782 17.7982 2.67688 17.3686 2.70032 16.8402V4.29699C2.67688 3.77353 2.63782 3.3439 2.57532 3.01304C2.52063 2.68711 2.3761 2.41057 2.13782 2.18341C1.90735 1.96119 1.55188 1.8476 1.07532 1.8476H0.919067C0.751098 1.8476 0.630004 1.81797 0.559692 1.74884C0.497192 1.66983 0.45813 1.48711 0.450317 1.19575C0.450317 0.998222 0.485473 0.835259 0.559692 0.701925C0.630004 0.573531 0.735473 0.504395 0.872192 0.504395C1.97375 0.558716 2.96594 0.583407 3.84094 0.583407H11.7003C12.1261 0.583407 12.3409 0.840197 12.3409 1.35378L12.4191 5.77847C12.4191 5.96612 12.3409 6.11427 12.1847 6.23279C12.0363 6.35131 11.8917 6.41057 11.7472 6.41057C11.548 6.41057 11.3722 6.36612 11.2159 6.2723C11.0675 6.16859 10.9855 6.02538 10.9659 5.83773C10.8409 4.81057 10.6925 4.03032 10.5284 3.48711C10.3722 2.94884 10.1378 2.54884 9.82532 2.28217C9.52063 2.02044 9.09094 1.87723 8.52844 1.8476H5.16907V9.88711H9.70032C9.8136 9.90193 9.90344 9.98094 9.96594 10.1241C10.0363 10.2575 10.0753 10.4204 10.0753 10.618C10.0753 10.776 10.0363 10.9241 9.96594 11.0525C9.90344 11.1859 9.8136 11.2501 9.70032 11.2501H5.16907V17.2155C5.20032 17.6649 5.23938 18.0204 5.29407 18.2822C5.34485 18.5488 5.49719 18.7859 5.74719 18.9933C5.99719 19.2056 6.38782 19.2995 6.91907 19.2698H9.21594C9.79797 19.2451 10.2394 19.1266 10.5441 18.9143C10.8448 18.6921 11.0831 18.3513 11.2628 17.8871C11.4386 17.413 11.6534 16.6525 11.9034 15.5958C12.0167 15.2303 12.298 15.0822 12.7472 15.1612C12.9113 15.2007 13.0597 15.2896 13.1847 15.418C13.3097 15.5365 13.3605 15.6945 13.3409 15.8921L12.8409 19.8624C12.798 20.139 12.7238 20.3266 12.6222 20.4155C12.5167 20.4945 12.3488 20.534 12.1222 20.534H3.87219C2.97375 20.534 1.97375 20.5637 0.872192 20.6328Z" fill="black"/>
</svg>
