<svg width="14" height="22" viewBox="0 0 14 22" fill="none" xmlns="http://www.w3.org/2000/svg">
<path d="M1.1969 21.018C1.06018 21.018 0.954711 20.9489 0.884399 20.8205C0.81018 20.6773 0.775024 20.5143 0.775024 20.3267C0.782837 20.0106 0.829711 19.823 0.915649 19.7538C0.99768 19.6897 1.15784 19.6551 1.40002 19.6551C1.87659 19.6551 2.23206 19.5464 2.46252 19.3193C2.70081 19.0971 2.84534 18.8255 2.90002 18.5094C2.96252 18.1835 3.00159 17.7538 3.02502 17.2255V4.68224C3.00159 4.15879 2.96252 3.72916 2.90002 3.39829C2.84534 3.07236 2.70081 2.79582 2.46252 2.56866C2.23206 2.34644 1.87659 2.23286 1.40002 2.23286H1.24377C1.07581 2.23286 0.954711 2.20323 0.884399 2.13409C0.821899 2.05508 0.782837 1.87236 0.775024 1.58101C0.775024 1.38348 0.81018 1.22051 0.884399 1.08718C0.954711 0.958785 1.06018 0.889648 1.1969 0.889648C2.29846 0.94397 3.29065 0.968661 4.16565 0.968661H12.025C12.4508 0.968661 12.6657 1.22545 12.6657 1.73903L12.7438 6.16372C12.7438 6.35138 12.6657 6.49953 12.5094 6.61804C12.361 6.73656 12.2164 6.79582 12.0719 6.79582C11.8727 6.79582 11.6969 6.75138 11.5407 6.65755C11.3922 6.55385 11.3102 6.41064 11.2907 6.22298C11.1657 5.19582 11.0172 4.41557 10.8532 3.87236C10.6969 3.33409 10.4625 2.93409 10.15 2.66743C9.84534 2.4057 9.41565 2.26249 8.85315 2.23286H5.49377V10.2724H10.025C10.1383 10.2872 10.2282 10.3662 10.2907 10.5094C10.361 10.6427 10.4 10.8057 10.4 11.0032C10.4 11.1613 10.361 11.3094 10.2907 11.4378C10.2282 11.5711 10.1383 11.6353 10.025 11.6353H5.49377V17.6008C5.52502 18.0501 5.56409 18.4057 5.61877 18.6674C5.66956 18.9341 5.8219 19.1711 6.0719 19.3785C6.3219 19.5909 6.71252 19.6847 7.24378 19.6551H9.54065C10.1227 19.6304 10.5641 19.5119 10.8688 19.2995C11.1696 19.0773 11.4078 18.7366 11.5875 18.2724C11.7633 17.7983 11.9782 17.0378 12.2282 15.981C12.3414 15.6156 12.6227 15.4674 13.0719 15.5464C13.236 15.5859 13.3844 15.6748 13.5094 15.8032C13.6344 15.9217 13.6852 16.0798 13.6657 16.2773L13.1657 20.2477C13.1227 20.5242 13.0485 20.7119 12.9469 20.8008C12.8414 20.8798 12.6735 20.9193 12.4469 20.9193H4.1969C3.29846 20.9193 2.29846 20.9489 1.1969 21.018Z" fill="black"/>
</svg>
