<svg width="14" height="21" viewBox="0 0 14 21" fill="none" xmlns="http://www.w3.org/2000/svg">
<path d="M1.24512 20.2475C1.1084 20.2475 1.00293 20.1784 0.932617 20.05C0.858398 19.9068 0.823242 19.7438 0.823242 19.5562C0.831055 19.2401 0.877929 19.0525 0.963867 18.9833C1.0459 18.9191 1.20606 18.8846 1.44824 18.8846C1.92481 18.8846 2.28027 18.7759 2.51074 18.5488C2.74902 18.3266 2.89356 18.0549 2.94824 17.7389C3.01074 17.413 3.04981 16.9833 3.07324 16.4549V3.91173C3.04981 3.38828 3.01074 2.95865 2.94824 2.62778C2.89356 2.30186 2.74902 2.02531 2.51074 1.79815C2.28027 1.57593 1.92481 1.46235 1.44824 1.46235H1.29199C1.12402 1.46235 1.00293 1.43272 0.932617 1.36359C0.870117 1.28457 0.831055 1.10186 0.823242 0.810499C0.823242 0.612968 0.858398 0.450005 0.932617 0.316672C1.00293 0.188277 1.1084 0.119141 1.24512 0.119141C2.34668 0.173462 3.33887 0.198153 4.21387 0.198153H12.0732C12.499 0.198153 12.7139 0.454943 12.7139 0.968523L12.792 5.39322C12.792 5.58087 12.7139 5.72902 12.5576 5.84754C12.4092 5.96605 12.2646 6.02531 12.1201 6.02531C11.9209 6.02531 11.7451 5.98087 11.5889 5.88704C11.4404 5.78334 11.3584 5.64013 11.3389 5.45247C11.2139 4.42531 11.0654 3.64507 10.9014 3.10186C10.7451 2.56359 10.5107 2.16359 10.1982 1.89692C9.89356 1.63519 9.46387 1.49198 8.90137 1.46235H5.54199V9.50186H10.0732C10.1865 9.51667 10.2764 9.59569 10.3389 9.7389C10.4092 9.87223 10.4482 10.0352 10.4482 10.2327C10.4482 10.3907 10.4092 10.5389 10.3389 10.6673C10.2764 10.8006 10.1865 10.8648 10.0732 10.8648H5.54199V16.8303C5.57324 17.2796 5.61231 17.6352 5.66699 17.8969C5.71777 18.1636 5.87012 18.4006 6.12012 18.608C6.37012 18.8204 6.76074 18.9142 7.29199 18.8846H9.58887C10.1709 18.8599 10.6123 18.7414 10.917 18.529C11.2178 18.3068 11.4561 17.9661 11.6357 17.5019C11.8115 17.0278 12.0264 16.2673 12.2764 15.2105C12.3896 14.8451 12.6709 14.6969 13.1201 14.7759C13.2842 14.8154 13.4326 14.9043 13.5576 15.0327C13.6826 15.1512 13.7334 15.3093 13.7139 15.5068L13.2139 19.4772C13.1709 19.7537 13.0967 19.9414 12.9951 20.0303C12.8896 20.1093 12.7217 20.1488 12.4951 20.1488H4.24512C3.34668 20.1488 2.34668 20.1784 1.24512 20.2475Z" fill="black"/>
</svg>
