<svg width="9" height="12" viewBox="0 0 9 12" fill="none" xmlns="http://www.w3.org/2000/svg">
<path d="M8.95349 5.64845C8.95349 5.9645 8.93787 6.29536 8.90662 6.6361H2.75037C2.78943 7.33734 2.96912 7.87561 3.28162 8.25586C3.59412 8.62623 3.97693 8.80894 4.43787 8.80894C5.11365 8.80894 5.5824 8.44351 5.84412 7.70277H8.75037C8.60193 8.45339 8.3324 9.12499 7.93787 9.71759C7.55115 10.3003 7.06677 10.7596 6.48474 11.1003C5.8988 11.4312 5.25037 11.5941 4.53162 11.5941C3.65662 11.5941 2.87927 11.367 2.20349 10.9028C1.5238 10.4287 0.992554 9.75709 0.609741 8.88796C0.234741 8.00894 0.0472412 6.98672 0.0472412 5.82623C0.0472412 4.65586 0.234741 3.63364 0.609741 2.7645C0.984741 1.89536 1.50818 1.22376 2.18787 0.749685C2.86365 0.275611 3.6449 0.0385742 4.53162 0.0385742C5.38318 0.0385742 6.1449 0.270673 6.81287 0.729932C7.48865 1.19413 8.01599 1.84598 8.39099 2.68549C8.76599 3.52993 8.95349 4.51759 8.95349 5.64845ZM6.17224 4.73981C6.17224 4.14722 6.00818 3.68302 5.68787 3.33734C5.37537 2.98178 4.97693 2.80401 4.50037 2.80401C4.03943 2.80401 3.65662 2.97685 3.34412 3.31759C3.03162 3.64845 2.8363 4.12252 2.76599 4.73981H6.17224Z" fill="white"/>
</svg>
