<svg width="10" height="12" viewBox="0 0 10 12" fill="none" xmlns="http://www.w3.org/2000/svg">
<path d="M5.63013 0.078125C6.66138 0.078125 7.4895 0.507755 8.1145 1.36208C8.7395 2.22134 9.052 3.39171 9.052 4.87812V11.4361H6.33325V5.33245C6.33325 4.58183 6.177 4.00405 5.8645 3.59417C5.55981 3.17442 5.14966 2.96208 4.63013 2.96208C4.11841 2.96208 3.70825 3.17442 3.39575 3.59417C3.08325 4.00405 2.927 4.58183 2.927 5.33245V11.4361H0.208252V0.196644H2.927V1.69788C3.20825 1.19911 3.58325 0.804051 4.052 0.512693C4.52075 0.226272 5.04419 0.078125 5.63013 0.078125Z" fill="white"/>
</svg>
