<svg width="18" height="21" viewBox="0 0 18 21" fill="none" xmlns="http://www.w3.org/2000/svg">
<path d="M0.481445 20.6328C0.325195 20.6328 0.208007 20.5637 0.137695 20.4353C0.0634763 20.2921 0.0283203 20.1291 0.0283203 19.9414C0.0361333 19.6254 0.0830073 19.4377 0.168945 19.3686C0.250976 19.3044 0.411133 19.2698 0.65332 19.2698C1.12988 19.2698 1.48535 19.1612 1.71582 18.934C1.9541 18.7118 2.09863 18.4402 2.15332 18.1241C2.21582 17.7982 2.25488 17.3686 2.27832 16.8402V4.29699C2.25488 3.77353 2.21582 3.3439 2.15332 3.01304C2.09863 2.68711 1.9541 2.41057 1.71582 2.18341C1.48535 1.96119 1.12988 1.8476 0.65332 1.8476H0.49707C0.329101 1.8476 0.208007 1.81797 0.137695 1.74884C0.0751953 1.66983 0.0361333 1.48711 0.0283203 1.19575C0.0283203 0.998222 0.0634763 0.835259 0.137695 0.701925C0.208007 0.573531 0.325195 0.504395 0.481445 0.504395C1.56348 0.558716 2.54395 0.583407 3.41895 0.583407C4.41895 0.583407 5.45801 0.558716 6.54395 0.504395C6.7002 0.504395 6.81348 0.573531 6.8877 0.701925C6.95801 0.835259 6.99707 0.998222 6.99707 1.19575C6.98535 1.5118 6.93848 1.7044 6.85645 1.76859C6.77051 1.82291 6.61035 1.8476 6.37207 1.8476C5.8916 1.8476 5.53223 1.96119 5.29395 2.18341C5.06348 2.41057 4.91895 2.68711 4.85645 3.01304C4.80176 3.3439 4.7666 3.77353 4.74707 4.29699V9.88711H12.6064V4.29699C12.583 3.77353 12.5439 3.3439 12.4814 3.01304C12.4268 2.68711 12.2822 2.41057 12.0439 2.18341C11.8135 1.96119 11.458 1.8476 10.9814 1.8476H10.8252C10.6572 1.8476 10.5361 1.81797 10.4658 1.74884C10.3916 1.66983 10.3447 1.48711 10.3252 1.19575C10.3252 0.998222 10.3643 0.835259 10.4502 0.701925C10.5322 0.573531 10.6416 0.504395 10.7783 0.504395C11.8604 0.558716 12.9033 0.583407 13.9033 0.583407C14.8174 0.583407 15.8096 0.558716 16.8721 0.504395C17.0283 0.504395 17.1416 0.573531 17.2158 0.701925C17.2861 0.835259 17.3252 0.998222 17.3252 1.19575C17.3018 1.5118 17.2471 1.7044 17.1533 1.76859C17.0674 1.82291 16.9189 1.8476 16.7002 1.8476C16.2197 1.8476 15.8564 1.96119 15.6064 2.18341C15.3643 2.41057 15.2158 2.68711 15.1533 3.01304C15.0986 3.3439 15.0635 3.77353 15.0439 4.29699V16.8402C15.0635 17.3686 15.0986 17.7982 15.1533 18.1241C15.2158 18.4402 15.3643 18.7118 15.6064 18.934C15.8564 19.1612 16.2197 19.2698 16.7002 19.2698H16.8564C17.001 19.2698 17.1104 19.3093 17.1846 19.3883C17.2549 19.4575 17.3018 19.6402 17.3252 19.9414C17.3252 20.1291 17.2861 20.2921 17.2158 20.4353C17.1416 20.5637 17.0283 20.6328 16.8721 20.6328C15.8096 20.5637 14.8096 20.534 13.8721 20.534C12.8916 20.534 11.8604 20.5637 10.7783 20.6328C10.6416 20.6328 10.5322 20.5637 10.4502 20.4353C10.3643 20.2921 10.3252 20.1291 10.3252 19.9414C10.3447 19.6254 10.3955 19.4377 10.4814 19.3686C10.5752 19.3044 10.7393 19.2698 10.9814 19.2698C11.458 19.2698 11.8135 19.1612 12.0439 18.934C12.2822 18.7118 12.4268 18.4402 12.4814 18.1241C12.5439 17.7982 12.583 17.3686 12.6064 16.8402V11.2501H4.74707V16.8402C4.7666 17.3686 4.80176 17.7982 4.85645 18.1241C4.91895 18.4402 5.06348 18.7118 5.29395 18.934C5.53223 19.1612 5.8916 19.2698 6.37207 19.2698H6.52832C6.69238 19.2698 6.80957 19.3093 6.87207 19.3883C6.94238 19.4575 6.98535 19.6402 6.99707 19.9414C6.99707 20.1291 6.95801 20.2921 6.8877 20.4353C6.81348 20.5637 6.7002 20.6328 6.54395 20.6328C5.48145 20.5637 4.4502 20.534 3.4502 20.534C2.55176 20.534 1.56348 20.5637 0.481445 20.6328Z" fill="black"/>
</svg>
