<svg width="16" height="21" viewBox="0 0 16 21" fill="none" xmlns="http://www.w3.org/2000/svg">
<path d="M0.719727 20.6328C0.563477 20.6328 0.446289 20.5637 0.375977 20.4353C0.301758 20.2921 0.266602 20.1291 0.266602 19.9414C0.274415 19.6254 0.321289 19.4377 0.407227 19.3686C0.489258 19.3044 0.649415 19.2698 0.891602 19.2698C1.36816 19.2698 1.72363 19.1612 1.9541 18.934C2.19238 18.7118 2.33691 18.4402 2.3916 18.1241C2.4541 17.7982 2.49316 17.3686 2.5166 16.8402V4.31674C2.49316 3.77847 2.4541 3.34884 2.3916 3.03279C2.33691 2.71674 2.19238 2.4402 1.9541 2.20316C1.72363 1.96612 1.36816 1.8476 0.891602 1.8476H0.735352C0.567383 1.8476 0.446289 1.81797 0.375977 1.74884C0.313477 1.66983 0.274415 1.48711 0.266602 1.19575C0.266602 0.998222 0.301758 0.835259 0.375977 0.701925C0.446289 0.573531 0.563477 0.504395 0.719727 0.504395C1.80176 0.558716 2.79004 0.583407 3.68848 0.583407H7.98535C9.2666 0.613037 10.333 0.874765 11.1885 1.37353C12.0518 1.86242 12.6807 2.49452 13.0791 3.26983C13.4854 4.03526 13.6885 4.85995 13.6885 5.73896C13.6885 6.89946 13.3213 7.96612 12.5947 8.93896C11.876 9.90193 10.8916 10.5933 9.6416 11.013L10.0635 11.8822C10.7588 13.3044 11.3916 14.5291 11.9541 15.5562C12.5244 16.5834 13.1455 17.5414 13.8135 18.4204C14.2822 18.9093 14.7822 19.1908 15.3135 19.2698C15.3447 19.2698 15.415 19.2797 15.5322 19.2896C15.6572 19.3044 15.7549 19.3637 15.8291 19.4674C15.8994 19.576 15.9385 19.734 15.9385 19.9414C15.9385 20.1291 15.8994 20.2921 15.8291 20.4353C15.7549 20.5637 15.6416 20.6328 15.4854 20.6328L14.8447 20.5933C14.1025 20.5538 13.5674 20.534 13.2354 20.534C12.5674 20.3661 11.9932 20.0698 11.5166 19.6451C11.0479 19.2106 10.5791 18.5933 10.1104 17.7883C9.62988 16.9883 8.95801 15.6748 8.09473 13.8575L7.6416 12.9488C7.3916 12.4649 7.14551 12.134 6.90723 11.9612C6.67676 11.7785 6.28223 11.6846 5.71973 11.6846H4.98535V16.8402C5.00488 17.3686 5.04004 17.7982 5.09473 18.1241C5.15723 18.4402 5.30176 18.7118 5.53223 18.934C5.77051 19.1612 6.12988 19.2698 6.61035 19.2698H6.7666C6.91113 19.2698 7.02051 19.3093 7.09473 19.3883C7.17676 19.4575 7.22363 19.6402 7.23535 19.9414C7.23535 20.1291 7.19629 20.2921 7.12598 20.4353C7.05176 20.5637 6.93848 20.6328 6.78223 20.6328C5.71973 20.5637 4.67676 20.534 3.65723 20.534C2.78223 20.534 1.80176 20.5637 0.719727 20.6328ZM7.18848 10.46C9.66504 10.46 10.9072 8.98835 10.9072 6.03526C10.9072 4.82538 10.583 3.81304 9.93848 2.99328C9.29004 2.17847 8.22363 1.76859 6.73535 1.76859C6.25488 1.76859 5.8916 1.84267 5.6416 1.98588C5.3916 2.13402 5.21973 2.38094 5.12598 2.73649C5.03223 3.09205 4.98535 3.6402 4.98535 4.376V10.46H7.18848Z" fill="black"/>
</svg>
