<svg width="38" height="48" viewBox="0 0 38 48" fill="none" xmlns="http://www.w3.org/2000/svg">
<path d="M18.4364 47.3121C14.9364 47.3121 11.788 46.3738 8.9989 44.4874C6.20593 42.5911 4.00671 39.8948 2.40515 36.3886C0.811401 32.8874 0.0145264 28.7837 0.0145264 24.0824C0.0145264 19.4503 0.819213 15.3664 2.4364 11.8355C4.0614 8.29478 6.28015 5.58367 9.09265 3.69725C11.913 1.81577 15.077 0.872559 18.577 0.872559C22.0653 0.872559 25.2177 1.81577 28.0302 3.69725C30.8505 5.58367 33.0692 8.29478 34.6864 11.8355C36.3114 15.3664 37.1239 19.4503 37.1239 24.0824C37.1239 28.7195 36.2997 32.8084 34.6552 36.3491C33.0184 39.88 30.7802 42.5911 27.9364 44.4874C25.1005 46.3738 21.9364 47.3121 18.4364 47.3121ZM18.4364 35.3417C20.5302 35.3417 22.3114 34.3738 23.7802 32.438C25.2567 30.4923 25.9989 27.7071 25.9989 24.0824C25.9989 20.4775 25.2802 17.7022 23.8427 15.7664C22.413 13.8207 20.6591 12.8429 18.577 12.8429C16.4403 12.8429 14.663 13.8059 13.2489 15.7269C11.8427 17.638 11.1395 20.4232 11.1395 24.0824C11.1395 27.7071 11.8309 30.4923 13.2177 32.438C14.6122 34.3738 16.3505 35.3417 18.4364 35.3417Z" fill="#008B8B"/>
</svg>
