<svg width="4" height="15" viewBox="0 0 4 15" fill="none" xmlns="http://www.w3.org/2000/svg">
<path d="M2.08447 4.70452C1.61572 4.70452 1.23291 4.52675 0.943848 4.17119C0.650879 3.80576 0.506348 3.32181 0.506348 2.72922C0.506348 2.15144 0.654786 1.67736 0.959473 1.30699C1.26025 0.941561 1.63916 0.753906 2.1001 0.753906C2.56885 0.753906 2.94775 0.941561 3.24072 1.30699C3.52979 1.67736 3.67822 2.15144 3.67822 2.72922C3.67822 3.32181 3.52979 3.80576 3.24072 4.17119C2.94775 4.52675 2.56104 4.70452 2.08447 4.70452ZM2.08447 14.6798C1.63525 14.6798 1.26025 14.4922 0.959473 14.1267C0.654786 13.7613 0.506348 13.2724 0.506348 12.665C0.506348 12.1119 0.654786 11.6527 0.959473 11.2823C1.26025 10.9169 1.63916 10.7292 2.1001 10.7292C2.56885 10.7292 2.95166 10.9169 3.25635 11.2823C3.55713 11.6527 3.70947 12.1119 3.70947 12.665C3.70947 13.2724 3.55713 13.7613 3.25635 14.1267C2.95166 14.4922 2.56104 14.6798 2.08447 14.6798Z" fill="black"/>
</svg>
