<svg width="14" height="21" viewBox="0 0 14 21" fill="none" xmlns="http://www.w3.org/2000/svg">
<path d="M1.33948 20.4028C1.20276 20.4028 1.09729 20.3337 1.02698 20.2053C0.952759 20.0621 0.917603 19.8991 0.917603 19.7115C0.925416 19.3954 0.97229 19.2078 1.05823 19.1386C1.14026 19.0744 1.30042 19.0398 1.5426 19.0398C2.01917 19.0398 2.37463 18.9312 2.6051 18.704C2.84338 18.4818 2.98792 18.2102 3.0426 17.8942C3.1051 17.5682 3.14417 17.1386 3.1676 16.6102V4.06701C3.14417 3.54355 3.1051 3.11392 3.0426 2.78306C2.98792 2.45713 2.84338 2.18059 2.6051 1.95343C2.37463 1.7312 2.01917 1.61762 1.5426 1.61762H1.38635C1.21838 1.61762 1.09729 1.58799 1.02698 1.51886C0.964478 1.43985 0.925416 1.25713 0.917603 0.965772C0.917603 0.768241 0.952759 0.605279 1.02698 0.471945C1.09729 0.343551 1.20276 0.274414 1.33948 0.274414C2.44104 0.328735 3.43323 0.353426 4.30823 0.353426H12.1676C12.5934 0.353426 12.8082 0.610217 12.8082 1.1238L12.8864 5.54849C12.8864 5.73614 12.8082 5.88429 12.652 6.00281C12.5035 6.12133 12.359 6.18059 12.2145 6.18059C12.0153 6.18059 11.8395 6.13614 11.6832 6.04232C11.5348 5.93861 11.4528 5.7954 11.4332 5.60775C11.3082 4.58059 11.1598 3.80034 10.9957 3.25713C10.8395 2.71886 10.6051 2.31886 10.2926 2.05219C9.98792 1.79046 9.55823 1.64725 8.99573 1.61762H5.63635V9.65713H10.1676C10.2809 9.67195 10.3707 9.75096 10.4332 9.89417C10.5035 10.0275 10.5426 10.1905 10.5426 10.388C10.5426 10.546 10.5035 10.6942 10.4332 10.8226C10.3707 10.9559 10.2809 11.0201 10.1676 11.0201H5.63635V16.9855C5.6676 17.4349 5.70667 17.7905 5.76135 18.0522C5.81213 18.3189 5.96448 18.5559 6.21448 18.7633C6.46448 18.9757 6.8551 19.0695 7.38635 19.0398H9.68323C10.2653 19.0152 10.7067 18.8966 11.0114 18.6843C11.3121 18.4621 11.5504 18.1213 11.7301 17.6571C11.9059 17.1831 12.1207 16.4226 12.3707 15.3658C12.484 15.0003 12.7653 14.8522 13.2145 14.9312C13.3785 14.9707 13.527 15.0596 13.652 15.188C13.777 15.3065 13.8278 15.4645 13.8082 15.6621L13.3082 19.6324C13.2653 19.909 13.191 20.0966 13.0895 20.1855C12.984 20.2645 12.816 20.304 12.5895 20.304H4.33948C3.44104 20.304 2.44104 20.3337 1.33948 20.4028Z" fill="black"/>
</svg>
