<svg width="21" height="22" viewBox="0 0 21 22" fill="none" xmlns="http://www.w3.org/2000/svg">
<path d="M9.70142 21.0769C9.45142 21.0769 9.27173 20.9683 9.17017 20.7609L3.54517 4.68189H3.46704L3.52954 17.2251C3.53735 17.793 3.5686 18.2276 3.62329 18.5288C3.67407 18.835 3.81079 19.0967 4.02954 19.3189C4.2561 19.5461 4.61157 19.6547 5.09204 19.6547H5.24829C5.41235 19.6547 5.53345 19.6942 5.60767 19.7732C5.67798 19.8424 5.72485 20.0251 5.74829 20.3263C5.74829 20.514 5.70923 20.6769 5.63892 20.8202C5.5647 20.9486 5.45142 21.0177 5.29517 21.0177L4.67017 20.9782C3.90845 20.9387 3.36157 20.9189 3.02954 20.9189C2.45532 20.9189 1.6272 20.9486 0.545166 21.0177C0.396729 21.0177 0.283447 20.9486 0.201416 20.8202C0.127197 20.6769 0.092041 20.514 0.092041 20.3263C0.111572 20.0103 0.162353 19.8226 0.248291 19.7535C0.330322 19.6893 0.486572 19.6547 0.717041 19.6547C1.20532 19.6547 1.56079 19.5461 1.77954 19.3189C2.0061 19.0967 2.14673 18.835 2.20142 18.5288C2.2522 18.2276 2.28345 17.793 2.29517 17.2251L2.34204 4.68189C2.34204 4.0251 2.28345 3.53127 2.17017 3.2004C2.05298 2.87448 1.8811 2.64238 1.65454 2.50905C1.43579 2.38065 1.10767 2.26213 0.670166 2.15349C0.607666 2.1288 0.506103 2.10411 0.373291 2.07448C0.236572 2.03497 0.146729 1.97077 0.107666 1.87695C0.064697 1.78806 0.045166 1.63497 0.045166 1.42263C0.045166 1.17571 0.095947 1.00781 0.201416 0.928799C0.314697 0.839911 0.486572 0.790527 0.717041 0.790527C1.70532 0.790527 2.51392 0.86954 3.13892 1.02756C3.77173 1.18559 4.33032 1.51152 4.81079 1.99547C5.28735 2.46954 5.68579 3.18065 5.99829 4.1288L10.2952 16.3362H10.3733L15.2952 0.968305H16.717C17.6311 0.968305 18.6272 0.943614 19.7014 0.889293C19.8459 0.889293 19.9553 0.958429 20.0295 1.08682C20.1116 1.22016 20.1545 1.38312 20.1545 1.58065C20.1311 1.8967 20.0764 2.08929 19.9827 2.15349C19.8889 2.20781 19.7366 2.2325 19.5295 2.2325C19.0374 2.2325 18.6741 2.34608 18.4358 2.56831C18.2053 2.79546 18.0608 3.07201 17.9983 3.39793C17.9436 3.7288 17.9124 4.15843 17.9045 4.68189V17.2251C17.9124 17.7535 17.9436 18.1831 17.9983 18.509C18.0608 18.8251 18.2053 19.0967 18.4358 19.3189C18.6741 19.5461 19.0374 19.6547 19.5295 19.6547H19.6702C19.8264 19.6547 19.9397 19.6942 20.0139 19.7732C20.0842 19.8424 20.1311 20.0251 20.1545 20.3263C20.1545 20.514 20.1116 20.6769 20.0295 20.8202C19.9553 20.9486 19.8459 21.0177 19.7014 21.0177C18.6272 20.9486 17.6272 20.9189 16.7014 20.9189C15.7327 20.9189 14.7053 20.9486 13.6233 21.0177C13.4749 21.0177 13.3616 20.9486 13.2795 20.8202C13.2053 20.6769 13.1702 20.514 13.1702 20.3263C13.1897 20.0103 13.2405 19.8226 13.3264 19.7535C13.4084 19.6893 13.5647 19.6547 13.7952 19.6547C14.2834 19.6547 14.6428 19.5461 14.8733 19.3189C15.0999 19.0967 15.2483 18.8251 15.3108 18.509C15.3733 18.1831 15.4084 17.7535 15.4202 17.2251V4.68189H15.342L10.2014 20.7609C10.1272 20.9683 9.95923 21.0769 9.70142 21.0769Z" fill="black"/>
</svg>
