<svg width="14" height="21" viewBox="0 0 14 21" fill="none" xmlns="http://www.w3.org/2000/svg">
<path d="M0.84082 20.6328C0.704101 20.6328 0.598632 20.5637 0.52832 20.4353C0.454101 20.2921 0.418945 20.1291 0.418945 19.9414C0.426758 19.6254 0.473632 19.4377 0.55957 19.3686C0.641601 19.3044 0.801758 19.2698 1.04395 19.2698C1.52051 19.2698 1.87598 19.1612 2.10645 18.934C2.34473 18.7118 2.48926 18.4402 2.54395 18.1241C2.60645 17.7982 2.64551 17.3686 2.66895 16.8402V4.29699C2.64551 3.77353 2.60645 3.3439 2.54395 3.01304C2.48926 2.68711 2.34473 2.41057 2.10645 2.18341C1.87598 1.96119 1.52051 1.8476 1.04395 1.8476H0.887695C0.719726 1.8476 0.598632 1.81797 0.52832 1.74884C0.46582 1.66983 0.426758 1.48711 0.418945 1.19575C0.418945 0.998222 0.454101 0.835259 0.52832 0.701925C0.598632 0.573531 0.704101 0.504395 0.84082 0.504395C1.94238 0.558716 2.93457 0.583407 3.80957 0.583407H11.6689C12.0947 0.583407 12.3096 0.840197 12.3096 1.35378L12.3877 5.77847C12.3877 5.96612 12.3096 6.11427 12.1533 6.23279C12.0049 6.35131 11.8604 6.41057 11.7158 6.41057C11.5166 6.41057 11.3408 6.36612 11.1846 6.2723C11.0361 6.16859 10.9541 6.02538 10.9346 5.83773C10.8096 4.81057 10.6611 4.03032 10.4971 3.48711C10.3408 2.94884 10.1064 2.54884 9.79395 2.28217C9.48926 2.02044 9.05957 1.87723 8.49707 1.8476H5.1377V9.88711H9.66895C9.78223 9.90193 9.87207 9.98094 9.93457 10.1241C10.0049 10.2575 10.0439 10.4204 10.0439 10.618C10.0439 10.776 10.0049 10.9241 9.93457 11.0525C9.87207 11.1859 9.78223 11.2501 9.66895 11.2501H5.1377V17.2155C5.16895 17.6649 5.20801 18.0204 5.2627 18.2822C5.31348 18.5488 5.46582 18.7859 5.71582 18.9933C5.96582 19.2056 6.35645 19.2995 6.8877 19.2698H9.18457C9.7666 19.2451 10.208 19.1266 10.5127 18.9143C10.8135 18.6921 11.0518 18.3513 11.2314 17.8871C11.4072 17.413 11.6221 16.6525 11.8721 15.5958C11.9854 15.2303 12.2666 15.0822 12.7158 15.1612C12.8799 15.2007 13.0283 15.2896 13.1533 15.418C13.2783 15.5365 13.3291 15.6945 13.3096 15.8921L12.8096 19.8624C12.7666 20.139 12.6924 20.3266 12.5908 20.4155C12.4854 20.4945 12.3174 20.534 12.0908 20.534H3.84082C2.94238 20.534 1.94238 20.5637 0.84082 20.6328Z" fill="black"/>
</svg>
