<svg width="18" height="22" viewBox="0 0 18 22" fill="none" xmlns="http://www.w3.org/2000/svg">
<path d="M1.33838 21.0177C1.18994 21.0177 1.07666 20.9486 0.994629 20.8202C0.92041 20.6769 0.885254 20.514 0.885254 20.3263C0.904785 20.0103 0.955566 19.8226 1.0415 19.7535C1.12353 19.6893 1.27978 19.6547 1.51025 19.6547C1.99853 19.6547 2.354 19.5461 2.57275 19.3189C2.79932 19.0967 2.93994 18.835 2.99463 18.5288C3.04541 18.2276 3.07666 17.793 3.08838 17.2251L3.13525 4.68189C3.13525 4.04979 3.08057 3.57077 2.979 3.23991C2.87353 2.91398 2.70166 2.67695 2.46338 2.5288C2.23291 2.38559 1.90088 2.26213 1.46338 2.15349C1.18213 2.08929 1.00244 2.0251 0.932129 1.95596C0.869629 1.89176 0.838379 1.71398 0.838379 1.42263C0.838379 1.17571 0.88916 1.00781 0.994629 0.928799C1.10791 0.839911 1.27978 0.790527 1.51025 0.790527C2.54932 0.790527 3.36963 0.884355 3.96338 1.06707C4.56494 1.23991 5.09619 1.55596 5.55713 2.01522C6.01416 2.47942 6.51807 3.18065 7.07275 4.1288L13.9165 15.5066H13.9946L13.9478 4.68189C13.9243 4.10411 13.8892 3.6646 13.8384 3.35843C13.7837 3.05719 13.6431 2.79546 13.4165 2.56831C13.1978 2.34608 12.8462 2.2325 12.3696 2.2325H12.2134C12.0454 2.2325 11.9243 2.20287 11.854 2.13374C11.7798 2.05472 11.7329 1.87201 11.7134 1.58065C11.7134 1.38312 11.7524 1.22016 11.8384 1.08682C11.9204 0.958429 12.0298 0.889293 12.1665 0.889293C13.229 0.943614 14.0298 0.968305 14.5728 0.968305C14.8853 0.968305 15.4868 0.948552 16.3853 0.909046L16.9165 0.889293C17.061 0.889293 17.1704 0.958429 17.2446 1.08682C17.3267 1.22016 17.3696 1.38312 17.3696 1.58065C17.3462 1.8967 17.2954 2.08929 17.2134 2.15349C17.1274 2.20781 16.9712 2.2325 16.7446 2.2325C16.2524 2.2325 15.8931 2.34608 15.6665 2.56831C15.4478 2.79546 15.311 3.05719 15.2603 3.35843C15.2173 3.6646 15.186 4.10411 15.1665 4.68189L15.1196 20.6029C15.0962 20.8794 14.8892 21.0177 14.4946 21.0177C14.1704 21.0177 13.9243 20.8794 13.7603 20.6029L4.33838 4.68189H4.26025L4.32275 17.2251C4.33057 17.793 4.36182 18.2276 4.4165 18.5288C4.46728 18.835 4.604 19.0967 4.82275 19.3189C5.04932 19.5461 5.40479 19.6547 5.88525 19.6547H6.0415C6.20557 19.6547 6.32666 19.6942 6.40088 19.7732C6.47119 19.8424 6.51807 20.0251 6.5415 20.3263C6.5415 20.514 6.50244 20.6769 6.43213 20.8202C6.35791 20.9486 6.24463 21.0177 6.08838 21.0177C5.02588 20.9486 4.21728 20.9189 3.6665 20.9189C3.33057 20.9189 2.74853 20.9387 1.9165 20.9782L1.33838 21.0177Z" fill="black"/>
</svg>
