<svg width="18" height="21" viewBox="0 0 18 21" fill="none" xmlns="http://www.w3.org/2000/svg">
<path d="M0.931152 20.4029C0.774902 20.4029 0.661621 20.3338 0.587402 20.2054C0.51709 20.0622 0.478027 19.8992 0.478027 19.7116C0.489746 19.3955 0.536621 19.2079 0.618652 19.1387C0.70459 19.0745 0.79834 19.04 0.915527 19.04C1.04053 19.04 1.11865 19.04 1.1499 19.04C1.6499 19.04 2.01318 18.877 2.24365 18.5462C2.48193 18.2202 2.66943 17.8499 2.80615 17.44C2.95068 17.035 3.04834 16.7585 3.10303 16.6103L7.47803 3.51405C7.57178 3.198 7.61865 2.95109 7.61865 2.76344C7.61865 2.38319 7.50146 2.11158 7.2749 1.95356C7.04443 1.78566 6.72021 1.64739 6.30615 1.53874C6.01318 1.47455 5.8374 1.41035 5.7749 1.34121C5.7124 1.27702 5.68115 1.09924 5.68115 0.80788C5.68115 0.560966 5.73193 0.393065 5.8374 0.314053C5.93896 0.225165 6.11084 0.175781 6.35303 0.175781C7.18506 0.175781 7.84521 0.254794 8.3374 0.412818C8.82568 0.570843 9.25146 0.886892 9.61865 1.36097C9.99365 1.83504 10.3374 2.55603 10.6499 3.51405L14.853 16.6103C15.103 17.4153 15.3413 18.0128 15.5718 18.4079C15.8101 18.8029 16.1577 19.0153 16.6187 19.04H16.7749C16.939 19.04 17.0562 19.0795 17.1187 19.1585C17.189 19.2276 17.2319 19.4104 17.2437 19.7116C17.2437 19.8992 17.2046 20.0622 17.1343 20.2054C17.0601 20.3338 16.9507 20.4029 16.8062 20.4029C15.7319 20.3338 14.814 20.3042 14.0562 20.3042C13.0562 20.3042 12.0171 20.3338 10.9468 20.4029C10.7983 20.4029 10.6851 20.3338 10.603 20.2054C10.5288 20.0622 10.4937 19.8992 10.4937 19.7116C10.5132 19.4104 10.5562 19.2276 10.6187 19.1585C10.689 19.0795 10.8101 19.04 10.978 19.04C11.5405 19.04 11.9351 18.9758 12.1655 18.8424C12.4038 18.6992 12.5249 18.4474 12.5249 18.0918C12.5249 17.8153 12.4233 17.3215 12.228 16.6103L11.3687 13.9832H5.19678C4.77881 15.2869 4.54053 16.0474 4.47803 16.2548C4.42334 16.4671 4.3999 16.5857 4.3999 16.6103C4.20068 17.4153 4.10303 17.9289 4.10303 18.1511C4.10303 18.5066 4.22803 18.7437 4.47803 18.8622C4.72803 18.9807 5.20068 19.04 5.8999 19.04H6.05615C6.22021 19.04 6.3374 19.0795 6.3999 19.1585C6.4624 19.2276 6.50146 19.4104 6.5249 19.7116C6.5249 19.8992 6.48584 20.0622 6.41553 20.2054C6.34131 20.3338 6.22803 20.4029 6.07178 20.4029C5.00928 20.3338 4.10303 20.3042 3.35303 20.3042C2.82178 20.3042 2.01318 20.3338 0.931152 20.4029ZM5.68115 12.6202H10.9312L8.3999 4.50171H8.32178L5.68115 12.6202Z" fill="black"/>
</svg>
