<svg width="13" height="21" viewBox="0 0 13 21" fill="none" xmlns="http://www.w3.org/2000/svg">
<path d="M0.485596 20.6328C0.348877 20.6328 0.243408 20.5637 0.173096 20.4353C0.0988767 20.2921 0.0637207 20.1291 0.0637207 19.9414C0.0715337 19.6254 0.118408 19.4377 0.204346 19.3686C0.286377 19.3044 0.446534 19.2698 0.688721 19.2698C1.16528 19.2698 1.52075 19.1612 1.75122 18.934C1.9895 18.7118 2.13403 18.4402 2.18872 18.1241C2.25122 17.7982 2.29028 17.3686 2.31372 16.8402V4.29699C2.29028 3.77353 2.25122 3.3439 2.18872 3.01304C2.13403 2.68711 1.9895 2.41057 1.75122 2.18341C1.52075 1.96119 1.16528 1.8476 0.688721 1.8476H0.532471C0.364502 1.8476 0.243408 1.81797 0.173096 1.74884C0.110596 1.66983 0.0715337 1.48711 0.0637207 1.19575C0.0637207 0.998222 0.0988767 0.835259 0.173096 0.701925C0.243408 0.573531 0.348877 0.504395 0.485596 0.504395C1.58716 0.558716 2.57935 0.583407 3.45435 0.583407C4.45435 0.583407 5.49341 0.558716 6.57935 0.504395C6.7356 0.504395 6.84888 0.573531 6.9231 0.701925C6.99341 0.835259 7.03247 0.998222 7.03247 1.19575C7.02075 1.5118 6.96997 1.7044 6.87622 1.76859C6.78247 1.82291 6.62622 1.8476 6.40747 1.8476C5.927 1.8476 5.56763 1.96119 5.32935 2.18341C5.09888 2.41057 4.95435 2.68711 4.89185 3.01304C4.83716 3.3439 4.802 3.77353 4.78247 4.29699V17.3143C4.81372 17.7488 4.85278 18.0945 4.90747 18.3414C4.95825 18.5785 5.1106 18.8056 5.3606 19.013C5.6106 19.2106 6.00122 19.2995 6.53247 19.2698H8.78247C9.3645 19.2451 9.80591 19.1266 10.1106 18.9143C10.4114 18.6921 10.6458 18.3513 10.8137 17.8871C10.9895 17.413 11.2043 16.6525 11.4543 15.5958C11.5793 15.2303 11.8645 15.0822 12.3137 15.1612C12.4583 15.2007 12.5989 15.2896 12.7356 15.418C12.8684 15.5365 12.927 15.6945 12.9075 15.8921L12.4075 19.8624C12.3528 20.139 12.2747 20.3266 12.1731 20.4155C12.0793 20.4945 11.9153 20.534 11.6887 20.534H3.4856C2.58716 20.534 1.58716 20.5637 0.485596 20.6328Z" fill="black"/>
</svg>
