<svg width="8" height="21" viewBox="0 0 8 21" fill="none" xmlns="http://www.w3.org/2000/svg">
<path d="M0.853027 20.6328C0.704589 20.6328 0.591308 20.5637 0.509277 20.4353C0.435058 20.2921 0.399902 20.1291 0.399902 19.9414C0.419433 19.6254 0.470215 19.4377 0.556152 19.3686C0.649902 19.3044 0.806152 19.2698 1.0249 19.2698C1.51318 19.2698 1.87256 19.1612 2.10303 18.934C2.32959 18.7118 2.47803 18.4402 2.54053 18.1241C2.61084 17.8081 2.65772 17.3834 2.68115 16.8402V4.29699C2.65772 3.7439 2.61084 3.30933 2.54053 2.99328C2.47803 2.67723 2.32959 2.41057 2.10303 2.18341C1.87256 1.96119 1.51318 1.8476 1.0249 1.8476H0.884277C0.728027 1.8476 0.610839 1.81797 0.540527 1.74884C0.466308 1.66983 0.419433 1.48711 0.399902 1.19575C0.399902 0.998222 0.435058 0.835259 0.509277 0.701925C0.591308 0.573531 0.704589 0.504395 0.853027 0.504395C1.93506 0.558716 2.92334 0.583407 3.82178 0.583407C4.82178 0.583407 5.86084 0.558716 6.94678 0.504395C7.10303 0.504395 7.21631 0.573531 7.29053 0.701925C7.36084 0.835259 7.3999 0.998222 7.3999 1.19575C7.38818 1.5118 7.3374 1.7044 7.24365 1.76859C7.1499 1.82291 6.98584 1.8476 6.75928 1.8476C6.26709 1.8476 5.90381 1.96119 5.66553 2.18341C5.43506 2.41057 5.29053 2.68711 5.22803 3.01304C5.17334 3.3439 5.14209 3.77353 5.13428 4.29699V16.8402C5.14209 17.3686 5.17334 17.7982 5.22803 18.1241C5.29053 18.4402 5.43506 18.7118 5.66553 18.934C5.90381 19.1612 6.26709 19.2698 6.75928 19.2698H6.8999C7.06397 19.2698 7.18506 19.3093 7.25928 19.3883C7.34131 19.4575 7.38818 19.6402 7.3999 19.9414C7.3999 20.1291 7.36084 20.2921 7.29053 20.4353C7.21631 20.5637 7.10303 20.6328 6.94678 20.6328C5.88428 20.5637 4.85303 20.534 3.85303 20.534C2.93506 20.534 1.93506 20.5637 0.853027 20.6328Z" fill="black"/>
</svg>
