<svg width="17" height="22" viewBox="0 0 17 22" fill="none" xmlns="http://www.w3.org/2000/svg">
<path d="M0.909546 21.018C0.753296 21.018 0.636108 20.9489 0.565796 20.8205C0.491577 20.6773 0.456421 20.5143 0.456421 20.3267C0.464234 20.0106 0.511108 19.823 0.597046 19.7538C0.679077 19.6897 0.839234 19.6551 1.08142 19.6551C1.55798 19.6551 1.91345 19.5464 2.14392 19.3193C2.3822 19.0971 2.52673 18.8255 2.58142 18.5094C2.64392 18.1835 2.68298 17.7538 2.70642 17.2255V4.70199C2.68298 4.16372 2.64392 3.73409 2.58142 3.41804C2.52673 3.10199 2.3822 2.82545 2.14392 2.58841C1.91345 2.35138 1.55798 2.23286 1.08142 2.23286H0.925171C0.757202 2.23286 0.636108 2.20323 0.565796 2.13409C0.503296 2.05508 0.464234 1.87236 0.456421 1.58101C0.456421 1.38348 0.491577 1.22051 0.565796 1.08718C0.636108 0.958785 0.753296 0.889648 0.909546 0.889648C1.99158 0.94397 2.97986 0.968661 3.8783 0.968661H8.17517C9.45642 0.998291 10.5228 1.26002 11.3783 1.75878C12.2416 2.24767 12.8705 2.87977 13.2689 3.65508C13.6752 4.42051 13.8783 5.2452 13.8783 6.12422C13.8783 7.28471 13.5111 8.35138 12.7845 9.32422C12.0658 10.2872 11.0814 10.9785 9.83142 11.3983L10.2533 12.2674C10.9486 13.6897 11.5814 14.9143 12.1439 15.9415C12.7142 16.9687 13.3353 17.9267 14.0033 18.8057C14.472 19.2946 14.972 19.5761 15.5033 19.6551C15.5345 19.6551 15.6049 19.665 15.722 19.6748C15.847 19.6897 15.9447 19.7489 16.0189 19.8526C16.0892 19.9613 16.1283 20.1193 16.1283 20.3267C16.1283 20.5143 16.0892 20.6773 16.0189 20.8205C15.9447 20.9489 15.8314 21.018 15.6752 21.018L15.0345 20.9785C14.2924 20.939 13.7572 20.9193 13.4252 20.9193C12.7572 20.7514 12.183 20.4551 11.7064 20.0304C11.2377 19.5958 10.7689 18.9785 10.3002 18.1736C9.8197 17.3736 9.14783 16.06 8.28455 14.2427L7.83142 13.3341C7.58142 12.8501 7.33533 12.5193 7.09705 12.3464C6.86658 12.1637 6.47205 12.0699 5.90955 12.0699H5.17517V17.2255C5.1947 17.7538 5.22986 18.1835 5.28455 18.5094C5.34705 18.8255 5.49158 19.0971 5.72205 19.3193C5.96033 19.5464 6.3197 19.6551 6.80017 19.6551H6.95642C7.10095 19.6551 7.21033 19.6946 7.28455 19.7736C7.36658 19.8427 7.41345 20.0255 7.42517 20.3267C7.42517 20.5143 7.38611 20.6773 7.3158 20.8205C7.24158 20.9489 7.1283 21.018 6.97205 21.018C5.90955 20.9489 4.86658 20.9193 3.84705 20.9193C2.97205 20.9193 1.99158 20.9489 0.909546 21.018ZM7.3783 10.8452C9.85486 10.8452 11.097 9.3736 11.097 6.42051C11.097 5.21064 10.7728 4.19829 10.1283 3.37854C9.47986 2.56372 8.41345 2.15385 6.92517 2.15385C6.4447 2.15385 6.08142 2.22792 5.83142 2.37113C5.58142 2.51928 5.40955 2.76619 5.3158 3.12175C5.22205 3.4773 5.17517 4.02545 5.17517 4.76125V10.8452H7.3783Z" fill="black"/>
</svg>
