<svg width="13" height="17" viewBox="0 0 13 17" fill="none" xmlns="http://www.w3.org/2000/svg">
<path d="M8.7345 16.8463L7.297 14.4167C6.86731 14.5204 6.45325 14.5747 6.047 14.5747C5.00403 14.5747 4.03918 14.2685 3.15637 13.6463C2.28137 13.029 1.58606 12.1648 1.07825 11.0587C0.566528 9.95249 0.312622 8.70805 0.312622 7.32533C0.312622 5.94262 0.566528 4.70805 1.07825 3.61175C1.58606 2.50558 2.28137 1.64632 3.15637 1.0241C4.03918 0.406815 5.00403 0.0957031 6.047 0.0957031C7.09778 0.0957031 8.06262 0.406815 8.93762 1.0241C9.82043 1.64632 10.5157 2.50558 11.0157 3.61175C11.5157 4.70805 11.7657 5.94262 11.7657 7.32533C11.7657 8.54015 11.5704 9.64632 11.1876 10.6439C10.8009 11.6463 10.2657 12.476 9.57825 13.1327L12.0314 16.8463H8.7345ZM3.09387 7.32533C3.09387 8.57965 3.3595 9.57718 3.89075 10.3278C4.42981 11.0685 5.14856 11.434 6.047 11.434C6.94153 11.434 7.65637 11.0587 8.18762 10.308C8.72668 9.55743 9.00012 8.56484 9.00012 7.32533C9.00012 6.09077 8.72668 5.09323 8.18762 4.34262C7.65637 3.592 6.94153 3.21669 6.047 3.21669C5.14856 3.21669 4.42981 3.592 3.89075 4.34262C3.3595 5.08336 3.09387 6.07595 3.09387 7.32533Z" fill="white"/>
</svg>
