<svg width="17" height="23" viewBox="0 0 17 23" fill="none" xmlns="http://www.w3.org/2000/svg">
<path d="M8.44446 22.166C6.85852 22.166 5.46399 21.682 4.25696 20.724C3.04602 19.766 2.10852 18.4919 1.44446 16.9117C0.788208 15.3314 0.460083 13.6425 0.460083 11.8351C0.460083 9.62278 0.854614 7.69685 1.64758 6.04747C2.43665 4.40302 3.44836 3.14376 4.67883 2.27463C5.91711 1.39562 7.17102 0.951172 8.44446 0.951172C10.0382 0.951172 11.4445 1.43512 12.6632 2.39315C13.8898 3.35611 14.8351 4.62031 15.4913 6.18574C16.1554 7.75611 16.4913 9.445 16.4913 11.2623C16.4913 13.4746 16.089 15.4104 15.2882 17.0697C14.4835 18.7191 13.4601 19.9833 12.2101 20.8623C10.9601 21.7314 9.70227 22.166 8.44446 22.166ZM8.41321 20.7833C9.54602 20.7833 10.4913 20.3586 11.2413 19.4993C11.9991 18.645 12.5695 17.4993 12.9445 16.0623C13.3195 14.6154 13.507 13.0154 13.507 11.2623C13.507 9.64253 13.3116 8.15611 12.9288 6.79809C12.5538 5.43018 11.9796 4.34377 11.2101 3.53883C10.4484 2.72401 9.51477 2.31413 8.41321 2.31413C6.74524 2.31413 5.49133 3.2129 4.64758 5.00055C3.80383 6.77833 3.38196 9.02525 3.38196 11.7364C3.38196 13.3857 3.56946 14.8919 3.94446 16.2598C4.31946 17.6327 4.88196 18.729 5.63196 19.5586C6.38196 20.3783 7.30774 20.7833 8.41321 20.7833Z" fill="black"/>
</svg>
