<svg width="12" height="23" viewBox="0 0 12 23" fill="none" xmlns="http://www.w3.org/2000/svg">
<path d="M5.72876 22.166C3.97876 22.166 2.63892 21.7808 1.71313 21.0203C0.783448 20.245 0.32251 19.1141 0.32251 17.6228C0.32251 16.8623 0.525635 16.2351 0.931885 15.7462C1.34595 15.2475 1.8772 14.9956 2.52563 14.9956C2.90845 15.0104 3.20142 15.129 3.40063 15.3512C3.59595 15.5783 3.69751 15.7808 3.69751 15.9635C3.69751 15.9931 3.61157 16.0722 3.44751 16.2006C3.27954 16.3191 3.1272 16.5117 2.99438 16.7734C2.86938 17.0252 2.80688 17.366 2.80688 17.8006C2.80688 18.7882 3.04126 19.5536 3.51001 20.0919C3.98657 20.6351 4.72876 20.9018 5.72876 20.9018C6.41626 20.9018 7.01392 20.7388 7.52563 20.408C8.04517 20.0672 8.4397 19.6178 8.71313 19.0648C8.99438 18.5018 9.13501 17.9141 9.13501 17.3067C9.13501 16.5462 8.96313 15.8944 8.61938 15.3512C8.27563 14.7981 7.85376 14.3388 7.35376 13.9685C6.85376 13.603 6.17017 13.1734 5.30688 12.6845C4.30688 12.1215 3.49438 11.608 2.86938 11.1438C2.2522 10.6697 1.72876 10.0524 1.29126 9.28697C0.861572 8.52648 0.650635 7.56846 0.650635 6.42278C0.650635 4.59562 1.14282 3.22278 2.13501 2.31413C3.13501 1.40549 4.4397 0.951172 6.05688 0.951172C7.3147 0.951172 8.41626 1.29685 9.35376 1.97833C10.2991 2.64994 10.7756 3.63759 10.7756 4.9413C10.7756 5.70673 10.5725 6.33883 10.1663 6.83759C9.76001 7.32648 9.22876 7.56846 8.57251 7.56846C8.19751 7.54377 7.90454 7.42525 7.69751 7.2129C7.49829 6.99068 7.40063 6.77833 7.40063 6.5808C7.40063 6.57092 7.51001 6.49685 7.72876 6.36352C7.95532 6.23512 8.15845 6.04253 8.33813 5.79068C8.51392 5.54376 8.60376 5.19315 8.60376 4.74376C8.60376 3.96846 8.36157 3.36105 7.88501 2.92648C7.41626 2.48204 6.81079 2.25488 6.07251 2.25488C5.06079 2.25488 4.29126 2.56105 3.76001 3.16352C3.23657 3.75611 2.97876 4.49685 2.97876 5.37586C2.97876 6.1166 3.13501 6.73389 3.44751 7.23265C3.76782 7.73636 4.27954 8.22031 4.97876 8.69438C5.54126 9.07957 6.15454 9.45981 6.82251 9.84006C7.89282 10.4475 8.74438 11.0055 9.36938 11.5191C9.99438 12.0228 10.5139 12.6845 10.9319 13.5141C11.3577 14.3339 11.5725 15.3512 11.5725 16.5759C11.5725 17.6327 11.3108 18.5857 10.7913 19.4401C10.2678 20.2845 9.56079 20.9512 8.66626 21.4351C7.76782 21.9191 6.79126 22.166 5.72876 22.166Z" fill="black"/>
</svg>
