<svg width="19" height="21" viewBox="0 0 19 21" fill="none" xmlns="http://www.w3.org/2000/svg">
<path d="M1.30835 20.4028C1.1521 20.4028 1.03491 20.3337 0.9646 20.2053C0.890381 20.0621 0.855225 19.8991 0.855225 19.7115C0.863038 19.3954 0.909912 19.2078 0.99585 19.1386C1.07788 19.0744 1.23804 19.0398 1.48022 19.0398C1.95679 19.0398 2.31226 18.9312 2.54272 18.704C2.78101 18.4818 2.92554 18.2102 2.98022 17.8942C3.04272 17.5682 3.08179 17.1386 3.10522 16.6102V4.06701C3.08179 3.54355 3.04272 3.11392 2.98022 2.78306C2.92554 2.45713 2.78101 2.18059 2.54272 1.95343C2.31226 1.7312 1.95679 1.61762 1.48022 1.61762H1.32397C1.15601 1.61762 1.03491 1.58799 0.9646 1.51886C0.9021 1.43985 0.863038 1.25713 0.855225 0.965772C0.855225 0.768241 0.890381 0.605279 0.9646 0.471945C1.03491 0.343551 1.1521 0.274414 1.30835 0.274414C2.39038 0.328735 3.37085 0.353426 4.24585 0.353426C5.24585 0.353426 6.28491 0.328735 7.37085 0.274414C7.5271 0.274414 7.64038 0.343551 7.7146 0.471945C7.78491 0.605279 7.82397 0.768241 7.82397 0.965772C7.81226 1.28182 7.76538 1.47441 7.68335 1.53861C7.59741 1.59293 7.43726 1.61762 7.19897 1.61762C6.71851 1.61762 6.35913 1.7312 6.12085 1.95343C5.89038 2.18059 5.74585 2.45713 5.68335 2.78306C5.62866 3.11392 5.59351 3.54355 5.57397 4.06701V9.65713H13.4333V4.06701C13.4099 3.54355 13.3708 3.11392 13.3083 2.78306C13.2537 2.45713 13.1091 2.18059 12.8708 1.95343C12.6404 1.7312 12.2849 1.61762 11.8083 1.61762H11.6521C11.4841 1.61762 11.363 1.58799 11.2927 1.51886C11.2185 1.43985 11.1716 1.25713 11.1521 0.965772C11.1521 0.768241 11.1912 0.605279 11.2771 0.471945C11.3591 0.343551 11.4685 0.274414 11.6052 0.274414C12.6873 0.328735 13.7302 0.353426 14.7302 0.353426C15.6443 0.353426 16.6365 0.328735 17.699 0.274414C17.8552 0.274414 17.9685 0.343551 18.0427 0.471945C18.113 0.605279 18.1521 0.768241 18.1521 0.965772C18.1287 1.28182 18.074 1.47441 17.9802 1.53861C17.8943 1.59293 17.7458 1.61762 17.5271 1.61762C17.0466 1.61762 16.6833 1.7312 16.4333 1.95343C16.1912 2.18059 16.0427 2.45713 15.9802 2.78306C15.9255 3.11392 15.8904 3.54355 15.8708 4.06701V16.6102C15.8904 17.1386 15.9255 17.5682 15.9802 17.8942C16.0427 18.2102 16.1912 18.4818 16.4333 18.704C16.6833 18.9312 17.0466 19.0398 17.5271 19.0398H17.6833C17.8279 19.0398 17.9373 19.0794 18.0115 19.1584C18.0818 19.2275 18.1287 19.4102 18.1521 19.7115C18.1521 19.8991 18.113 20.0621 18.0427 20.2053C17.9685 20.3337 17.8552 20.4028 17.699 20.4028C16.6365 20.3337 15.6365 20.304 14.699 20.304C13.7185 20.304 12.6873 20.3337 11.6052 20.4028C11.4685 20.4028 11.3591 20.3337 11.2771 20.2053C11.1912 20.0621 11.1521 19.8991 11.1521 19.7115C11.1716 19.3954 11.2224 19.2078 11.3083 19.1386C11.4021 19.0744 11.5662 19.0398 11.8083 19.0398C12.2849 19.0398 12.6404 18.9312 12.8708 18.704C13.1091 18.4818 13.2537 18.2102 13.3083 17.8942C13.3708 17.5682 13.4099 17.1386 13.4333 16.6102V11.0201H5.57397V16.6102C5.59351 17.1386 5.62866 17.5682 5.68335 17.8942C5.74585 18.2102 5.89038 18.4818 6.12085 18.704C6.35913 18.9312 6.71851 19.0398 7.19897 19.0398H7.35522C7.51929 19.0398 7.63647 19.0794 7.69897 19.1584C7.76929 19.2275 7.81226 19.4102 7.82397 19.7115C7.82397 19.8991 7.78491 20.0621 7.7146 20.2053C7.64038 20.3337 7.5271 20.4028 7.37085 20.4028C6.30835 20.3337 5.2771 20.304 4.2771 20.304C3.37866 20.304 2.39038 20.3337 1.30835 20.4028Z" fill="black"/>
</svg>
