<svg width="15" height="21" viewBox="0 0 15 21" fill="none" xmlns="http://www.w3.org/2000/svg">
<path d="M4.24829 20.4029C4.09985 20.4029 3.99048 20.3338 3.92017 20.2054C3.84595 20.0622 3.81079 19.8992 3.81079 19.7115C3.8186 19.3955 3.86548 19.2078 3.95142 19.1387C4.03345 19.0745 4.1936 19.0399 4.43579 19.0399C4.91235 19.0399 5.26782 18.9313 5.49829 18.7041C5.73657 18.4819 5.8811 18.2103 5.93579 17.8943C5.99829 17.5683 6.03735 17.1387 6.06079 16.6103V1.5387H4.32642C3.76392 1.55352 3.32642 1.7066 3.01392 1.99302C2.70923 2.26957 2.47485 2.69426 2.31079 3.25722C2.15454 3.81031 2.01782 4.61031 1.90454 5.64734C1.8811 5.80537 1.77954 5.9387 1.59204 6.0424C1.41235 6.15105 1.22485 6.20043 1.02954 6.20043C0.881103 6.20043 0.748291 6.15105 0.623291 6.0424C0.498291 5.92389 0.435791 5.76586 0.435791 5.56833L0.498291 1.12389C0.498291 0.610306 0.724853 0.353516 1.18579 0.353516H13.4045C13.842 0.353516 14.0608 0.610306 14.0608 1.12389L14.1545 5.56833C14.1545 5.76586 14.0842 5.92389 13.9514 6.0424C13.8147 6.15105 13.6741 6.20043 13.5295 6.20043C13.3303 6.20043 13.1428 6.15105 12.967 6.0424C12.7874 5.9387 12.6936 5.80537 12.6858 5.64734C12.5491 4.59549 12.4045 3.79055 12.2483 3.23747C12.0999 2.68438 11.8655 2.26957 11.5452 1.99302C11.2327 1.7066 10.7952 1.55352 10.2327 1.5387H8.52954V16.6103C8.54907 17.1387 8.58423 17.5683 8.63892 17.8943C8.70142 18.2103 8.84595 18.4819 9.07642 18.7041C9.3147 18.9313 9.67407 19.0399 10.1545 19.0399H10.3108C10.4553 19.0399 10.5647 19.0794 10.6389 19.1585C10.7092 19.2276 10.7561 19.4103 10.7795 19.7115C10.7795 19.8992 10.7405 20.0622 10.6702 20.2054C10.5959 20.3338 10.4827 20.4029 10.3264 20.4029C9.26392 20.3338 8.27954 20.3041 7.37329 20.3041C6.37329 20.3041 5.33032 20.3338 4.24829 20.4029Z" fill="black"/>
</svg>
