<svg width="18" height="22" viewBox="0 0 18 22" fill="none" xmlns="http://www.w3.org/2000/svg">
<path d="M1.2749 21.0177C1.11865 21.0177 1.00537 20.9486 0.931152 20.8202C0.86084 20.6769 0.821777 20.514 0.821777 20.3263C0.833496 20.0103 0.880371 19.8226 0.962402 19.7535C1.04834 19.6893 1.14209 19.6547 1.25928 19.6547C1.38428 19.6547 1.4624 19.6547 1.49365 19.6547C1.99365 19.6547 2.35693 19.4918 2.5874 19.1609C2.82568 18.835 3.01318 18.4646 3.1499 18.0547C3.29443 17.6498 3.39209 17.3732 3.44678 17.2251L7.82178 4.1288C7.91553 3.81275 7.9624 3.56584 7.9624 3.37818C7.9624 2.99794 7.84521 2.72633 7.61865 2.56831C7.38818 2.4004 7.06396 2.26213 6.6499 2.15349C6.35693 2.08929 6.18115 2.0251 6.11865 1.95596C6.05615 1.89176 6.0249 1.71398 6.0249 1.42263C6.0249 1.17571 6.07568 1.00781 6.18115 0.928799C6.28271 0.839911 6.45459 0.790527 6.69678 0.790527C7.52881 0.790527 8.18896 0.86954 8.68115 1.02756C9.16943 1.18559 9.59521 1.50164 9.9624 1.97571C10.3374 2.44979 10.6812 3.17077 10.9937 4.1288L15.1968 17.2251C15.4468 18.03 15.6851 18.6276 15.9155 19.0226C16.1538 19.4177 16.5015 19.63 16.9624 19.6547H17.1187C17.2827 19.6547 17.3999 19.6942 17.4624 19.7732C17.5327 19.8424 17.5757 20.0251 17.5874 20.3263C17.5874 20.514 17.5483 20.6769 17.478 20.8202C17.4038 20.9486 17.2944 21.0177 17.1499 21.0177C16.0757 20.9486 15.1577 20.9189 14.3999 20.9189C13.3999 20.9189 12.3608 20.9486 11.2905 21.0177C11.1421 21.0177 11.0288 20.9486 10.9468 20.8202C10.8726 20.6769 10.8374 20.514 10.8374 20.3263C10.8569 20.0251 10.8999 19.8424 10.9624 19.7732C11.0327 19.6942 11.1538 19.6547 11.3218 19.6547C11.8843 19.6547 12.2788 19.5905 12.5093 19.4572C12.7476 19.314 12.8687 19.0621 12.8687 18.7066C12.8687 18.43 12.7671 17.9362 12.5718 17.2251L11.7124 14.5979H5.54053C5.12256 15.9016 4.88428 16.6621 4.82178 16.8695C4.76709 17.0819 4.74365 17.2004 4.74365 17.2251C4.54443 18.03 4.44678 18.5436 4.44678 18.7658C4.44678 19.1214 4.57178 19.3584 4.82178 19.4769C5.07178 19.5955 5.54443 19.6547 6.24365 19.6547H6.3999C6.56396 19.6547 6.68115 19.6942 6.74365 19.7732C6.80615 19.8424 6.84521 20.0251 6.86865 20.3263C6.86865 20.514 6.82959 20.6769 6.75928 20.8202C6.68506 20.9486 6.57178 21.0177 6.41553 21.0177C5.35303 20.9486 4.44678 20.9189 3.69678 20.9189C3.16553 20.9189 2.35693 20.9486 1.2749 21.0177ZM6.0249 13.235H11.2749L8.74365 5.11645H8.66553L6.0249 13.235Z" fill="black"/>
</svg>
