<svg width="15" height="21" viewBox="0 0 15 21" fill="none" xmlns="http://www.w3.org/2000/svg">
<path d="M4.47754 20.4029C4.3291 20.4029 4.21973 20.3338 4.14941 20.2054C4.0752 20.0622 4.04004 19.8992 4.04004 19.7115C4.04785 19.3955 4.09473 19.2078 4.18066 19.1387C4.2627 19.0745 4.42285 19.0399 4.66504 19.0399C5.1416 19.0399 5.49707 18.9313 5.72754 18.7041C5.96582 18.4819 6.11035 18.2103 6.16504 17.8943C6.22754 17.5683 6.2666 17.1387 6.29004 16.6103V1.5387H4.55566C3.99316 1.55352 3.55566 1.7066 3.24316 1.99302C2.93848 2.26957 2.7041 2.69426 2.54004 3.25722C2.38379 3.81031 2.24707 4.61031 2.13379 5.64734C2.11035 5.80537 2.00879 5.9387 1.82129 6.0424C1.6416 6.15105 1.4541 6.20043 1.25879 6.20043C1.11035 6.20043 0.977539 6.15105 0.852539 6.0424C0.727539 5.92389 0.665039 5.76586 0.665039 5.56833L0.727539 1.12389C0.727539 0.610306 0.954101 0.353516 1.41504 0.353516H13.6338C14.0713 0.353516 14.29 0.610306 14.29 1.12389L14.3838 5.56833C14.3838 5.76586 14.3135 5.92389 14.1807 6.0424C14.0439 6.15105 13.9033 6.20043 13.7588 6.20043C13.5596 6.20043 13.3721 6.15105 13.1963 6.0424C13.0166 5.9387 12.9229 5.80537 12.915 5.64734C12.7783 4.59549 12.6338 3.79055 12.4775 3.23747C12.3291 2.68438 12.0947 2.26957 11.7744 1.99302C11.4619 1.7066 11.0244 1.55352 10.4619 1.5387H8.75879V16.6103C8.77832 17.1387 8.81348 17.5683 8.86817 17.8943C8.93067 18.2103 9.0752 18.4819 9.30567 18.7041C9.54395 18.9313 9.90332 19.0399 10.3838 19.0399H10.54C10.6846 19.0399 10.7939 19.0794 10.8682 19.1585C10.9385 19.2276 10.9854 19.4103 11.0088 19.7115C11.0088 19.8992 10.9697 20.0622 10.8994 20.2054C10.8252 20.3338 10.7119 20.4029 10.5557 20.4029C9.49317 20.3338 8.50879 20.3041 7.60254 20.3041C6.60254 20.3041 5.55957 20.3338 4.47754 20.4029Z" fill="black"/>
</svg>
