<svg width="12" height="22" viewBox="0 0 12 22" fill="none" xmlns="http://www.w3.org/2000/svg">
<path d="M5.9646 21.9365C4.2146 21.9365 2.87476 21.5513 1.94897 20.7908C1.01929 20.0155 0.55835 18.8846 0.55835 17.3933C0.55835 16.6328 0.761475 16.0056 1.16772 15.5167C1.58179 15.018 2.11304 14.7661 2.76147 14.7661C3.14429 14.7809 3.43726 14.8995 3.63647 15.1217C3.83179 15.3488 3.93335 15.5513 3.93335 15.734C3.93335 15.7637 3.84741 15.8427 3.68335 15.9711C3.51538 16.0896 3.36304 16.2822 3.23022 16.5439C3.10522 16.7958 3.04272 17.1365 3.04272 17.5711C3.04272 18.5587 3.2771 19.3242 3.74585 19.8624C4.22241 20.4056 4.9646 20.6723 5.9646 20.6723C6.6521 20.6723 7.24976 20.5093 7.76147 20.1785C8.28101 19.8377 8.67554 19.3883 8.94897 18.8353C9.23022 18.2723 9.37085 17.6846 9.37085 17.0772C9.37085 16.3167 9.19897 15.6649 8.85522 15.1217C8.51147 14.5686 8.0896 14.1093 7.5896 13.739C7.0896 13.3735 6.40601 12.9439 5.54272 12.455C4.54272 11.8921 3.73022 11.3785 3.10522 10.9143C2.48804 10.4402 1.9646 9.82292 1.5271 9.05748C1.09741 8.29699 0.886475 7.33896 0.886475 6.19328C0.886475 4.36612 1.37866 2.99328 2.37085 2.08464C3.37085 1.176 4.67554 0.72168 6.29272 0.72168C7.55054 0.72168 8.6521 1.06736 9.5896 1.74884C10.5349 2.42045 11.0115 3.4081 11.0115 4.7118C11.0115 5.47724 10.8083 6.10933 10.4021 6.6081C9.99585 7.09699 9.4646 7.33896 8.80835 7.33896C8.43335 7.31427 8.14038 7.19575 7.93335 6.98341C7.73413 6.76119 7.63647 6.54884 7.63647 6.35131C7.63647 6.34143 7.74585 6.26736 7.9646 6.13403C8.19116 6.00563 8.39429 5.81304 8.57397 5.56119C8.74976 5.31427 8.8396 4.96366 8.8396 4.51427C8.8396 3.73896 8.59741 3.13156 8.12085 2.69699C7.6521 2.25254 7.04663 2.02538 6.30835 2.02538C5.29663 2.02538 4.5271 2.33156 3.99585 2.93403C3.47241 3.52662 3.2146 4.26736 3.2146 5.14637C3.2146 5.88711 3.37085 6.5044 3.68335 7.00316C4.00366 7.50687 4.51538 7.99082 5.2146 8.46489C5.7771 8.85008 6.39038 9.23032 7.05835 9.61057C8.12866 10.218 8.98022 10.776 9.60522 11.2896C10.2302 11.7933 10.7498 12.455 11.1677 13.2846C11.5935 14.1044 11.8083 15.1217 11.8083 16.3464C11.8083 17.4032 11.5466 18.3562 11.0271 19.2106C10.5037 20.055 9.79663 20.7217 8.9021 21.2056C8.00366 21.6896 7.0271 21.9365 5.9646 21.9365Z" fill="black"/>
</svg>
