<svg width="14" height="21" viewBox="0 0 14 21" fill="none" xmlns="http://www.w3.org/2000/svg">
<path d="M0.743164 20.6328C0.606445 20.6328 0.49707 20.5637 0.415039 20.4353C0.329102 20.2921 0.290039 20.1291 0.290039 19.9414C0.30957 19.6254 0.360352 19.4377 0.446289 19.3686C0.540039 19.3044 0.704102 19.2698 0.946289 19.2698C1.42285 19.2698 1.77832 19.1612 2.00879 18.934C2.24707 18.7118 2.3916 18.4402 2.44629 18.1241C2.50879 17.7982 2.54785 17.3686 2.57129 16.8402V4.29699C2.54785 3.77353 2.50879 3.3439 2.44629 3.01304C2.3916 2.68711 2.24707 2.41057 2.00879 2.18341C1.77832 1.96119 1.42285 1.8476 0.946289 1.8476H0.790039C0.62207 1.8476 0.500976 1.81797 0.430664 1.74884C0.356445 1.66983 0.30957 1.48711 0.290039 1.19575C0.290039 0.998222 0.329102 0.835259 0.415039 0.701925C0.49707 0.573531 0.606445 0.504395 0.743164 0.504395C1.8252 0.558716 2.8252 0.583407 3.74316 0.583407H7.49316C8.93848 0.583407 10.3408 0.968593 11.6963 1.72909C13.0596 2.49452 13.7432 4.01057 13.7432 6.2723C13.7432 7.53649 13.4385 8.6723 12.8369 9.66983C12.2432 10.6575 11.4658 11.4279 10.5088 11.9809C9.54785 12.5241 8.55566 12.7908 7.52441 12.7908C6.56348 12.7908 5.73145 12.6229 5.02441 12.2772V16.8402C5.03223 17.3686 5.06348 17.7982 5.11816 18.1241C5.18066 18.4402 5.32519 18.7118 5.55566 18.934C5.79394 19.1612 6.15723 19.2698 6.64941 19.2698H6.79004C6.9541 19.2698 7.07519 19.3093 7.14941 19.3883C7.23144 19.4575 7.27832 19.6402 7.29004 19.9414C7.29004 20.1291 7.25098 20.2921 7.18066 20.4353C7.10644 20.5637 6.99316 20.6328 6.83691 20.6328C5.77441 20.5637 4.73145 20.534 3.71191 20.534C2.81348 20.534 1.8252 20.5637 0.743164 20.6328ZM6.79004 11.3686C7.3916 11.3686 8.0127 11.2204 8.64941 10.9143C9.29395 10.613 9.84082 10.0846 10.29 9.33403C10.7354 8.58341 10.9619 7.59575 10.9619 6.37106C10.9619 4.51427 10.4932 3.28464 9.55566 2.67723C8.62598 2.07477 7.6377 1.76859 6.58691 1.76859C6.15723 1.76859 5.83691 1.82785 5.61816 1.94637C5.39941 2.05501 5.24316 2.27723 5.14941 2.61797C5.06348 2.94884 5.02441 3.47723 5.02441 4.19822V11.013C5.41895 11.2501 6.00879 11.3686 6.79004 11.3686Z" fill="black"/>
</svg>
