<svg width="17" height="22" viewBox="0 0 17 22" fill="none" xmlns="http://www.w3.org/2000/svg">
<path d="M8.69275 21.9365C7.10681 21.9365 5.71228 21.4525 4.50525 20.4945C3.29431 19.5365 2.35681 18.2624 1.69275 16.6822C1.0365 15.1019 0.708374 13.413 0.708374 11.6056C0.708374 9.39328 1.10291 7.46736 1.89587 5.81798C2.68494 4.17353 3.69666 2.91427 4.92712 2.04514C6.16541 1.16612 7.41931 0.72168 8.69275 0.72168C10.2865 0.72168 11.6927 1.20563 12.9115 2.16366C14.1381 3.12662 15.0834 4.39082 15.7396 5.95625C16.4037 7.52662 16.7396 9.21551 16.7396 11.0328C16.7396 13.2451 16.3373 15.1809 15.5365 16.8402C14.7318 18.4896 13.7084 19.7538 12.4584 20.6328C11.2084 21.5019 9.95056 21.9365 8.69275 21.9365ZM8.6615 20.5538C9.79431 20.5538 10.7396 20.1291 11.4896 19.2698C12.2474 18.4155 12.8177 17.2698 13.1927 15.8328C13.5677 14.3859 13.7552 12.7859 13.7552 11.0328C13.7552 9.41304 13.5599 7.92662 13.1771 6.56859C12.8021 5.20069 12.2279 4.11427 11.4584 3.30933C10.6967 2.49452 9.76306 2.08464 8.6615 2.08464C6.99353 2.08464 5.73962 2.98341 4.89587 4.77106C4.05212 6.54884 3.63025 8.79575 3.63025 11.5069C3.63025 13.1562 3.81775 14.6624 4.19275 16.0303C4.56775 17.4032 5.13025 18.4995 5.88025 19.3291C6.63025 20.1488 7.55603 20.5538 8.6615 20.5538Z" fill="black"/>
</svg>
