<svg width="17" height="22" viewBox="0 0 17 22" fill="none" xmlns="http://www.w3.org/2000/svg">
<path d="M1.36316 21.018C1.22644 21.018 1.12097 20.9489 1.05066 20.8205C0.97644 20.6773 0.941284 20.5143 0.941284 20.3267C0.949097 20.0106 0.995971 19.823 1.08191 19.7538C1.16394 19.6897 1.3241 19.6551 1.56628 19.6551C2.04285 19.6551 2.39832 19.5464 2.62878 19.3193C2.86707 19.0971 3.0116 18.8255 3.06628 18.5094C3.12878 18.1835 3.16785 17.7538 3.19128 17.2255V4.68224C3.16785 4.15879 3.12878 3.72916 3.06628 3.39829C3.0116 3.07236 2.86707 2.79582 2.62878 2.56866C2.39832 2.34644 2.04285 2.23286 1.56628 2.23286H1.41003C1.24207 2.23286 1.12097 2.20323 1.05066 2.13409C0.988159 2.05508 0.949097 1.87236 0.941284 1.58101C0.941284 1.38348 0.97644 1.22051 1.05066 1.08718C1.12097 0.958785 1.22644 0.889648 1.36316 0.889648C2.46472 0.94397 3.45691 0.968661 4.33191 0.968661H8.23816C9.83972 0.968661 11.2928 1.37854 12.5975 2.19335C13.91 3.01311 14.9413 4.17854 15.6913 5.68965C16.4491 7.2057 16.8319 8.99829 16.8319 11.0625C16.8319 13.2106 16.4022 15.0279 15.5507 16.5143C14.6952 18.0057 13.5819 19.1119 12.2069 19.8329C10.8319 20.5588 9.35535 20.9193 7.78503 20.9193H4.33191C3.45691 20.9193 2.46472 20.9489 1.36316 21.018ZM8.16003 19.7538C10.1053 19.7538 11.535 18.9934 12.4413 17.4625C13.3553 15.9366 13.8163 13.8032 13.8163 11.0625C13.8163 9.33903 13.5663 7.79829 13.0663 6.44027C12.5741 5.07237 11.8632 4.01064 10.9257 3.26002C9.99597 2.49953 8.89441 2.11434 7.61316 2.11434L5.66003 2.15385V17.6008C5.66003 18.4205 5.85144 18.9835 6.23816 19.2995C6.63269 19.6057 7.27332 19.7538 8.16003 19.7538Z" fill="black"/>
</svg>
