<svg width="17" height="22" viewBox="0 0 17 22" fill="none" xmlns="http://www.w3.org/2000/svg">
<path d="M8.3761 21.5512C6.79016 21.5512 5.39563 21.0673 4.1886 20.1093C2.97766 19.1512 2.04016 17.8772 1.3761 16.2969C0.719849 14.7167 0.391724 13.0278 0.391724 11.2204C0.391724 9.00803 0.786255 7.08211 1.57922 5.43272C2.36829 3.78828 3.38 2.52902 4.61047 1.65988C5.84875 0.78087 7.10266 0.336426 8.3761 0.336426C9.96985 0.336426 11.3761 0.820376 12.5948 1.7784C13.8214 2.74136 14.7667 4.00556 15.423 5.57099C16.087 7.14136 16.423 8.83025 16.423 10.6475C16.423 12.8599 16.0206 14.7957 15.2198 16.4549C14.4152 18.1043 13.3917 19.3685 12.1417 20.2475C10.8917 21.1167 9.63391 21.5512 8.3761 21.5512ZM8.34485 20.1685C9.47766 20.1685 10.423 19.7438 11.173 18.8846C11.9308 18.0303 12.5011 16.8846 12.8761 15.4475C13.2511 14.0006 13.4386 12.4006 13.4386 10.6475C13.4386 9.02778 13.2433 7.54136 12.8605 6.18334C12.4855 4.81544 11.9113 3.72902 11.1417 2.92408C10.38 2.10927 9.44641 1.69939 8.34485 1.69939C6.67688 1.69939 5.42297 2.59815 4.57922 4.38581C3.73547 6.16359 3.3136 8.4105 3.3136 11.1216C3.3136 12.771 3.5011 14.2772 3.8761 15.6451C4.2511 17.0179 4.8136 18.1142 5.5636 18.9438C6.3136 19.7636 7.23938 20.1685 8.34485 20.1685Z" fill="black"/>
</svg>
