<svg width="12" height="22" viewBox="0 0 12 22" fill="none" xmlns="http://www.w3.org/2000/svg">
<path d="M5.69495 21.5512C3.94495 21.5512 2.6051 21.1661 1.67932 20.4056C0.749634 19.6303 0.288696 18.4994 0.288696 17.008C0.288696 16.2475 0.491821 15.6204 0.898071 15.1315C1.31213 14.6327 1.84338 14.3809 2.49182 14.3809C2.87463 14.3957 3.1676 14.5142 3.36682 14.7364C3.56213 14.9636 3.6637 15.1661 3.6637 15.3488C3.6637 15.3784 3.57776 15.4574 3.4137 15.5858C3.24573 15.7043 3.09338 15.8969 2.96057 16.1586C2.83557 16.4105 2.77307 16.7512 2.77307 17.1858C2.77307 18.1735 3.00745 18.9389 3.4762 19.4772C3.95276 20.0204 4.69495 20.287 5.69495 20.287C6.38245 20.287 6.9801 20.1241 7.49182 19.7932C8.01135 19.4525 8.40588 19.0031 8.67932 18.45C8.96057 17.887 9.1012 17.2994 9.1012 16.692C9.1012 15.9315 8.92932 15.2796 8.58557 14.7364C8.24182 14.1833 7.81995 13.7241 7.31995 13.3537C6.81995 12.9883 6.13635 12.5586 5.27307 12.0698C4.27307 11.5068 3.46057 10.9932 2.83557 10.529C2.21838 10.0549 1.69495 9.43766 1.25745 8.67223C0.827758 7.91174 0.616821 6.95371 0.616821 5.80803C0.616821 3.98087 1.10901 2.60803 2.1012 1.69939C3.1012 0.790747 4.40588 0.336426 6.02307 0.336426C7.28088 0.336426 8.38245 0.682105 9.31995 1.36359C10.2653 2.03519 10.7418 3.02285 10.7418 4.32655C10.7418 5.09198 10.5387 5.72408 10.1324 6.22285C9.7262 6.71174 9.19495 6.95371 8.5387 6.95371C8.1637 6.92902 7.87073 6.8105 7.6637 6.59815C7.46448 6.37593 7.36682 6.16359 7.36682 5.96606C7.36682 5.95618 7.4762 5.88211 7.69495 5.74877C7.92151 5.62038 8.12463 5.42778 8.30432 5.17593C8.4801 4.92902 8.56995 4.5784 8.56995 4.12902C8.56995 3.35371 8.32776 2.7463 7.8512 2.31173C7.38245 1.86729 6.77698 1.64013 6.0387 1.64013C5.02698 1.64013 4.25745 1.9463 3.7262 2.54877C3.20276 3.14136 2.94495 3.88211 2.94495 4.76112C2.94495 5.50186 3.1012 6.11914 3.4137 6.61791C3.73401 7.12161 4.24573 7.60556 4.94495 8.07964C5.50745 8.46482 6.12073 8.84507 6.7887 9.22532C7.85901 9.83272 8.71057 10.3907 9.33557 10.9043C9.96057 11.408 10.4801 12.0698 10.8981 12.8994C11.3239 13.7191 11.5387 14.7364 11.5387 15.9611C11.5387 17.0179 11.277 17.971 10.7574 18.8253C10.234 19.6698 9.52698 20.3364 8.63245 20.8204C7.73401 21.3043 6.75745 21.5512 5.69495 21.5512Z" fill="black"/>
</svg>
