<svg width="8" height="21" viewBox="0 0 8 21" fill="none" xmlns="http://www.w3.org/2000/svg">
<path d="M0.699097 20.4028C0.550659 20.4028 0.437378 20.3337 0.355347 20.2053C0.281128 20.0621 0.245972 19.8991 0.245972 19.7115C0.265503 19.3954 0.316285 19.2078 0.402222 19.1386C0.495972 19.0744 0.652222 19.0398 0.870972 19.0398C1.35925 19.0398 1.71863 18.9312 1.9491 18.704C2.17566 18.4818 2.3241 18.2102 2.3866 17.8942C2.45691 17.5781 2.50378 17.1534 2.52722 16.6102V4.06701C2.50378 3.51392 2.45691 3.07935 2.3866 2.7633C2.3241 2.44725 2.17566 2.18059 1.9491 1.95343C1.71863 1.7312 1.35925 1.61762 0.870972 1.61762H0.730347C0.574097 1.61762 0.456909 1.58799 0.386597 1.51886C0.312378 1.43985 0.265503 1.25713 0.245972 0.965772C0.245972 0.768241 0.281128 0.605279 0.355347 0.471945C0.437378 0.343551 0.550659 0.274414 0.699097 0.274414C1.78113 0.328735 2.76941 0.353426 3.66785 0.353426C4.66785 0.353426 5.70691 0.328735 6.79285 0.274414C6.9491 0.274414 7.06238 0.343551 7.1366 0.471945C7.20691 0.605279 7.24597 0.768241 7.24597 0.965772C7.23425 1.28182 7.18347 1.47441 7.08972 1.53861C6.99597 1.59293 6.83191 1.61762 6.60535 1.61762C6.11316 1.61762 5.74988 1.7312 5.5116 1.95343C5.28113 2.18059 5.1366 2.45713 5.0741 2.78306C5.01941 3.11392 4.98816 3.54355 4.98035 4.06701V16.6102C4.98816 17.1386 5.01941 17.5682 5.0741 17.8942C5.1366 18.2102 5.28113 18.4818 5.5116 18.704C5.74988 18.9312 6.11316 19.0398 6.60535 19.0398H6.74597C6.91004 19.0398 7.03113 19.0794 7.10535 19.1584C7.18738 19.2275 7.23425 19.4102 7.24597 19.7115C7.24597 19.8991 7.20691 20.0621 7.1366 20.2053C7.06238 20.3337 6.9491 20.4028 6.79285 20.4028C5.73035 20.3337 4.6991 20.304 3.6991 20.304C2.78113 20.304 1.78113 20.3337 0.699097 20.4028Z" fill="black"/>
</svg>
