<svg width="17" height="21" viewBox="0 0 17 21" fill="none" xmlns="http://www.w3.org/2000/svg">
<path d="M0.564941 20.6328C0.408691 20.6328 0.291503 20.5637 0.221191 20.4353C0.146972 20.2921 0.111816 20.1291 0.111816 19.9414C0.119629 19.6254 0.166503 19.4377 0.252441 19.3686C0.334472 19.3044 0.494629 19.2698 0.736816 19.2698C1.21338 19.2698 1.56885 19.1612 1.79932 18.934C2.0376 18.7118 2.18213 18.4402 2.23682 18.1241C2.29932 17.7982 2.33838 17.3686 2.36182 16.8402V4.29699C2.33838 3.77353 2.29932 3.3439 2.23682 3.01304C2.18213 2.68711 2.0376 2.41057 1.79932 2.18341C1.56885 1.96119 1.21338 1.8476 0.736816 1.8476H0.580566C0.412597 1.8476 0.291503 1.81797 0.221191 1.74884C0.158691 1.66983 0.119629 1.48711 0.111816 1.19575C0.111816 0.998222 0.146972 0.835259 0.221191 0.701925C0.291503 0.573531 0.408691 0.504395 0.564941 0.504395C1.64697 0.558716 2.62744 0.583407 3.50244 0.583407C4.50244 0.583407 5.5415 0.558716 6.62744 0.504395C6.78369 0.504395 6.89697 0.573531 6.97119 0.701925C7.0415 0.835259 7.08057 0.998222 7.08057 1.19575C7.06885 1.5118 7.02197 1.7044 6.93994 1.76859C6.854 1.82291 6.69385 1.8476 6.45557 1.8476C5.9751 1.8476 5.61572 1.96119 5.37744 2.18341C5.14697 2.41057 5.00244 2.68711 4.93994 3.01304C4.88525 3.3439 4.8501 3.77353 4.83057 4.29699V10.0056C5.1001 9.94143 5.40088 9.76366 5.73682 9.4723C6.06885 9.18588 6.4751 8.776 6.95557 8.24761C7.89307 7.14143 9.06885 5.53156 10.4868 3.4081C10.7876 2.98835 10.9399 2.65254 10.9399 2.40069C10.9399 2.08464 10.7095 1.91674 10.2524 1.88711C10.1353 1.86242 10.0571 1.80316 10.0181 1.70933C9.9751 1.62044 9.93994 1.45254 9.90869 1.21551C9.90869 1.03279 9.94775 0.869826 10.0337 0.721679C10.1157 0.578469 10.2251 0.504395 10.3618 0.504395C10.9438 0.558716 11.8618 0.583407 13.1118 0.583407C13.5063 0.583407 14.0884 0.563654 14.8618 0.524148L15.3774 0.504395C15.5337 0.504395 15.6509 0.573531 15.7368 0.701925C15.8188 0.835259 15.8618 1.0081 15.8618 1.21551C15.8384 1.52168 15.7876 1.70933 15.7056 1.78835C15.6196 1.85748 15.5063 1.88711 15.3618 1.88711C14.6938 1.8476 14.0649 1.98588 13.4712 2.30193C12.8774 2.61797 12.2563 3.18588 11.6118 4.00069L7.56494 9.35378C8.14697 10.2525 8.74463 11.1118 9.36182 11.9414C9.9751 12.7612 10.7134 13.7143 11.5806 14.8056C12.0181 15.3587 12.5337 16.0402 13.1274 16.8402C13.3149 17.0674 13.4399 17.2303 13.5024 17.334C14.0415 18.0204 14.4634 18.4995 14.7681 18.776C15.0806 19.0427 15.4595 19.2056 15.9087 19.2698C15.9399 19.2698 16.0103 19.2797 16.1274 19.2896C16.2524 19.3044 16.3501 19.3637 16.4243 19.4674C16.4946 19.576 16.5337 19.734 16.5337 19.9414C16.5337 20.1291 16.4946 20.2921 16.4243 20.4353C16.3501 20.5637 16.2368 20.6328 16.0806 20.6328C15.8813 20.6032 15.6431 20.5933 15.3618 20.5933C14.7563 20.5538 14.2876 20.534 13.9556 20.534H12.3618C10.1626 17.4427 8.19385 14.6279 6.45557 12.0995C5.92432 11.3241 5.38135 10.9044 4.83057 10.8353V16.8402C4.8501 17.3686 4.88525 17.7982 4.93994 18.1241C5.00244 18.4402 5.14697 18.7118 5.37744 18.934C5.61572 19.1612 5.9751 19.2698 6.45557 19.2698H6.61182C6.77588 19.2698 6.89307 19.3093 6.95557 19.3883C7.02588 19.4575 7.06885 19.6402 7.08057 19.9414C7.08057 20.1291 7.0415 20.2921 6.97119 20.4353C6.89697 20.5637 6.78369 20.6328 6.62744 20.6328C5.56494 20.5637 4.53369 20.534 3.53369 20.534C2.63525 20.534 1.64697 20.5637 0.564941 20.6328Z" fill="black"/>
</svg>
