<svg width="14" height="21" viewBox="0 0 14 21" fill="none" xmlns="http://www.w3.org/2000/svg">
<path d="M0.991821 20.4028C0.855102 20.4028 0.749633 20.3337 0.679321 20.2053C0.605102 20.0621 0.569946 19.8991 0.569946 19.7115C0.577759 19.3954 0.624633 19.2078 0.710571 19.1386C0.792602 19.0744 0.952759 19.0398 1.19495 19.0398C1.67151 19.0398 2.02698 18.9312 2.25745 18.704C2.49573 18.4818 2.64026 18.2102 2.69495 17.8942C2.75745 17.5682 2.79651 17.1386 2.81995 16.6102V4.06701C2.79651 3.54355 2.75745 3.11392 2.69495 2.78306C2.64026 2.45713 2.49573 2.18059 2.25745 1.95343C2.02698 1.7312 1.67151 1.61762 1.19495 1.61762H1.0387C0.870727 1.61762 0.749633 1.58799 0.679321 1.51886C0.616821 1.43985 0.577759 1.25713 0.569946 0.965772C0.569946 0.768241 0.605102 0.605279 0.679321 0.471945C0.749633 0.343551 0.855102 0.274414 0.991821 0.274414C2.09338 0.328735 3.08557 0.353426 3.96057 0.353426H11.8199C12.2457 0.353426 12.4606 0.610217 12.4606 1.1238L12.5387 5.54849C12.5387 5.73614 12.4606 5.88429 12.3043 6.00281C12.1559 6.12133 12.0114 6.18059 11.8668 6.18059C11.6676 6.18059 11.4918 6.13614 11.3356 6.04232C11.1871 5.93861 11.1051 5.7954 11.0856 5.60775C10.9606 4.58059 10.8121 3.80034 10.6481 3.25713C10.4918 2.71886 10.2574 2.31886 9.94495 2.05219C9.64026 1.79046 9.21057 1.64725 8.64807 1.61762H5.2887V9.65713H9.81995C9.93323 9.67195 10.0231 9.75096 10.0856 9.89417C10.1559 10.0275 10.1949 10.1905 10.1949 10.388C10.1949 10.546 10.1559 10.6942 10.0856 10.8226C10.0231 10.9559 9.93323 11.0201 9.81995 11.0201H5.2887V16.9855C5.31995 17.4349 5.35901 17.7905 5.4137 18.0522C5.46448 18.3189 5.61682 18.5559 5.86682 18.7633C6.11682 18.9757 6.50745 19.0695 7.0387 19.0398H9.33557C9.9176 19.0152 10.359 18.8966 10.6637 18.6843C10.9645 18.4621 11.2028 18.1213 11.3824 17.6571C11.5582 17.1831 11.7731 16.4226 12.0231 15.3658C12.1364 15.0003 12.4176 14.8522 12.8668 14.9312C13.0309 14.9707 13.1793 15.0596 13.3043 15.188C13.4293 15.3065 13.4801 15.4645 13.4606 15.6621L12.9606 19.6324C12.9176 19.909 12.8434 20.0966 12.7418 20.1855C12.6364 20.2645 12.4684 20.304 12.2418 20.304H3.99182C3.09338 20.304 2.09338 20.3337 0.991821 20.4028Z" fill="black"/>
</svg>
