<svg width="17" height="22" viewBox="0 0 17 22" fill="none" xmlns="http://www.w3.org/2000/svg">
<path d="M8.18237 21.5512C6.73315 21.5512 5.42065 21.1661 4.24487 20.4056C3.0769 19.6303 2.15112 18.4599 1.46362 16.8895C0.776123 15.3241 0.432373 13.3883 0.432373 11.0821C0.432373 8.96359 0.799561 7.09198 1.54175 5.47223C2.29175 3.8426 3.323 2.5784 4.6355 1.67964C5.95581 0.785809 7.46753 0.336426 9.16675 0.336426C9.99878 0.336426 10.823 0.49445 11.6355 0.8105C12.4558 1.12655 13.1355 1.63025 13.6667 2.31173C14.198 2.98334 14.4636 3.81297 14.4636 4.80062C14.4636 5.72408 14.2449 6.52902 13.8074 7.2105C13.3777 7.88211 12.8074 8.21791 12.0886 8.21791C11.7332 8.21791 11.3933 8.1142 11.073 7.90186C10.7488 7.69445 10.5769 7.41791 10.5574 7.07223C10.5574 7.06235 10.6707 6.94877 10.9011 6.73643C11.1277 6.52902 11.3386 6.2426 11.5261 5.88704C11.7136 5.52161 11.8074 5.08704 11.8074 4.58334C11.8074 3.70433 11.53 2.98334 10.9792 2.43025C10.4363 1.87717 9.73315 1.60062 8.86987 1.60062C7.8269 1.60062 6.8894 1.97099 6.05737 2.7068C5.22144 3.43272 4.56519 4.49939 4.08862 5.9068C3.60815 7.30433 3.36987 8.96852 3.36987 10.9043C3.36987 12.7759 3.60425 14.3957 4.073 15.7636C4.54956 17.1364 5.21753 18.1883 6.073 18.9241C6.93628 19.65 7.93237 20.0105 9.05737 20.0105C9.59644 20.0105 10.0652 19.971 10.4636 19.892C10.8582 19.813 11.2917 19.6846 11.7605 19.4969V16.2772C11.7605 15.5414 11.7371 15.0278 11.698 14.7364C11.655 14.4352 11.5183 14.213 11.2917 14.0648C11.073 13.9216 10.698 13.8475 10.1667 13.8475C9.97925 13.8475 9.84253 13.808 9.7605 13.729C9.67456 13.65 9.62768 13.4673 9.61987 13.1759C9.61987 12.9932 9.65893 12.8352 9.74487 12.7019C9.83862 12.5586 9.96753 12.4846 10.1355 12.4846C11.1863 12.5537 12.1042 12.5833 12.8855 12.5833C13.6355 12.5833 14.5339 12.5537 15.5886 12.4846C15.7332 12.4846 15.8464 12.5586 15.9324 12.7019C16.0144 12.8352 16.0574 12.9932 16.0574 13.1759C16.0457 13.4673 15.9988 13.65 15.9167 13.729C15.8308 13.808 15.698 13.8475 15.5105 13.8475C15.0105 13.8475 14.6511 13.9364 14.4324 14.1043C14.2214 14.2624 14.0925 14.4994 14.0417 14.8154C13.9871 15.1216 13.9636 15.6056 13.9636 16.2772V20.0105C12.9832 20.5932 12.0808 20.9883 11.2605 21.2154C10.448 21.4377 9.42065 21.5512 8.18237 21.5512Z" fill="black"/>
</svg>
