<svg width="8" height="22" viewBox="0 0 8 22" fill="none" xmlns="http://www.w3.org/2000/svg">
<path d="M1.27478 21.018C1.12634 21.018 1.01306 20.9489 0.93103 20.8205C0.856811 20.6773 0.821655 20.5143 0.821655 20.3267C0.841186 20.0106 0.891968 19.823 0.977905 19.7538C1.07166 19.6897 1.22791 19.6551 1.44666 19.6551C1.93494 19.6551 2.29431 19.5464 2.52478 19.3193C2.75134 19.0971 2.89978 18.8255 2.96228 18.5094C3.03259 18.1934 3.07947 17.7687 3.10291 17.2255V4.68224C3.07947 4.12916 3.03259 3.69459 2.96228 3.37854C2.89978 3.06249 2.75134 2.79582 2.52478 2.56866C2.29431 2.34644 1.93494 2.23286 1.44666 2.23286H1.30603C1.14978 2.23286 1.03259 2.20323 0.96228 2.13409C0.888061 2.05508 0.841186 1.87236 0.821655 1.58101C0.821655 1.38348 0.856811 1.22051 0.93103 1.08718C1.01306 0.958785 1.12634 0.889648 1.27478 0.889648C2.35681 0.94397 3.34509 0.968661 4.24353 0.968661C5.24353 0.968661 6.28259 0.94397 7.36853 0.889648C7.52478 0.889648 7.63806 0.958785 7.71228 1.08718C7.78259 1.22051 7.82166 1.38348 7.82166 1.58101C7.80994 1.89706 7.75916 2.08965 7.66541 2.15385C7.57166 2.20817 7.40759 2.23286 7.18103 2.23286C6.68884 2.23286 6.32556 2.34644 6.08728 2.56866C5.85681 2.79582 5.71228 3.07236 5.64978 3.39829C5.59509 3.72916 5.56384 4.15879 5.55603 4.68224V17.2255C5.56384 17.7538 5.59509 18.1835 5.64978 18.5094C5.71228 18.8255 5.85681 19.0971 6.08728 19.3193C6.32556 19.5464 6.68884 19.6551 7.18103 19.6551H7.32166C7.48572 19.6551 7.60681 19.6946 7.68103 19.7736C7.76306 19.8427 7.80994 20.0255 7.82166 20.3267C7.82166 20.5143 7.78259 20.6773 7.71228 20.8205C7.63806 20.9489 7.52478 21.018 7.36853 21.018C6.30603 20.9489 5.27478 20.9193 4.27478 20.9193C3.35681 20.9193 2.35681 20.9489 1.27478 21.018Z" fill="black"/>
</svg>
