<svg width="10" height="12" viewBox="0 0 10 12" fill="none" xmlns="http://www.w3.org/2000/svg">
<path d="M0.411621 5.82623C0.411621 4.65586 0.599121 3.63364 0.974121 2.7645C1.34912 1.89536 1.86865 1.22376 2.53662 0.749685C3.2124 0.275611 3.98975 0.0385742 4.86475 0.0385742C5.97803 0.0385742 6.91162 0.408945 7.66162 1.14475C8.41162 1.88549 8.8999 2.92252 9.13037 4.26573H6.22412C5.98193 3.41141 5.51318 2.98178 4.81787 2.98178C4.31787 2.98178 3.91553 3.2287 3.61475 3.71265C3.32178 4.20154 3.17725 4.90771 3.17725 5.82623C3.17725 6.73487 3.32178 7.43611 3.61475 7.92006C3.91553 8.40894 4.31787 8.65092 4.81787 8.65092C5.51318 8.65092 5.98193 8.22623 6.22412 7.36697H9.13037C8.8999 8.68549 8.40381 9.71759 7.646 10.4682C6.896 11.2188 5.96631 11.5941 4.86475 11.5941C3.98975 11.5941 3.2124 11.367 2.53662 10.9028C1.86865 10.4287 1.34912 9.75709 0.974121 8.88796C0.599121 8.00894 0.411621 6.98672 0.411621 5.82623Z" fill="white"/>
</svg>
