<svg width="12" height="22" viewBox="0 0 12 22" fill="none" xmlns="http://www.w3.org/2000/svg">
<path d="M5.92261 21.9365C4.17261 21.9365 2.83276 21.5513 1.90698 20.7908C0.977295 20.0155 0.516357 18.8846 0.516357 17.3933C0.516357 16.6328 0.719482 16.0056 1.12573 15.5167C1.5398 15.018 2.07105 14.7661 2.71948 14.7661C3.1023 14.7809 3.39526 14.8995 3.59448 15.1217C3.7898 15.3488 3.89136 15.5513 3.89136 15.734C3.89136 15.7637 3.80542 15.8427 3.64136 15.9711C3.47339 16.0896 3.32105 16.2822 3.18823 16.5439C3.06323 16.7958 3.00073 17.1365 3.00073 17.5711C3.00073 18.5587 3.23511 19.3242 3.70386 19.8624C4.18042 20.4056 4.92261 20.6723 5.92261 20.6723C6.61011 20.6723 7.20776 20.5093 7.71948 20.1785C8.23901 19.8377 8.63355 19.3883 8.90698 18.8353C9.18823 18.2723 9.32886 17.6846 9.32886 17.0772C9.32886 16.3167 9.15698 15.6649 8.81323 15.1217C8.46948 14.5686 8.04761 14.1093 7.54761 13.739C7.04761 13.3735 6.36401 12.9439 5.50073 12.455C4.50073 11.8921 3.68823 11.3785 3.06323 10.9143C2.44605 10.4402 1.92261 9.82292 1.48511 9.05748C1.05542 8.29699 0.844482 7.33896 0.844482 6.19328C0.844482 4.36612 1.33667 2.99328 2.32886 2.08464C3.32886 1.176 4.63355 0.72168 6.25073 0.72168C7.50855 0.72168 8.61011 1.06736 9.54761 1.74884C10.4929 2.42045 10.9695 3.4081 10.9695 4.7118C10.9695 5.47724 10.7664 6.10933 10.3601 6.6081C9.95386 7.09699 9.42261 7.33896 8.76636 7.33896C8.39136 7.31427 8.09839 7.19575 7.89136 6.98341C7.69214 6.76119 7.59448 6.54884 7.59448 6.35131C7.59448 6.34143 7.70386 6.26736 7.92261 6.13403C8.14917 6.00563 8.3523 5.81304 8.53198 5.56119C8.70776 5.31427 8.79761 4.96366 8.79761 4.51427C8.79761 3.73896 8.55542 3.13156 8.07886 2.69699C7.61011 2.25254 7.00464 2.02538 6.26636 2.02538C5.25464 2.02538 4.48511 2.33156 3.95386 2.93403C3.43042 3.52662 3.17261 4.26736 3.17261 5.14637C3.17261 5.88711 3.32886 6.5044 3.64136 7.00316C3.96167 7.50687 4.47339 7.99082 5.17261 8.46489C5.73511 8.85008 6.34839 9.23032 7.01636 9.61057C8.08667 10.218 8.93823 10.776 9.56323 11.2896C10.1882 11.7933 10.7078 12.455 11.1257 13.2846C11.5515 14.1044 11.7664 15.1217 11.7664 16.3464C11.7664 17.4032 11.5046 18.3562 10.9851 19.2106C10.4617 20.055 9.75464 20.7217 8.86011 21.2056C7.96167 21.6896 6.98511 21.9365 5.92261 21.9365Z" fill="black"/>
</svg>
