<svg width="17" height="22" viewBox="0 0 17 22" fill="none" xmlns="http://www.w3.org/2000/svg">
<path d="M8.33228 21.7807C6.74634 21.7807 5.35181 21.2968 4.14478 20.3388C2.93384 19.3807 1.99634 18.1067 1.33228 16.5264C0.676025 14.9462 0.3479 13.2573 0.3479 11.4499C0.3479 9.23752 0.742431 7.3116 1.5354 5.66221C2.32446 4.01777 3.33618 2.75851 4.56665 1.88937C5.80493 1.01036 7.05884 0.565918 8.33228 0.565918C9.92603 0.565918 11.3323 1.04987 12.551 2.00789C13.7776 2.97086 14.7229 4.23505 15.3792 5.80049C16.0432 7.37086 16.3792 9.05975 16.3792 10.877C16.3792 13.0894 15.9768 15.0252 15.176 16.6844C14.3713 18.3338 13.3479 19.598 12.0979 20.477C10.8479 21.3462 9.59009 21.7807 8.33228 21.7807ZM8.30103 20.398C9.43384 20.398 10.3792 19.9733 11.1292 19.1141C11.887 18.2597 12.4573 17.1141 12.8323 15.677C13.2073 14.2301 13.3948 12.6301 13.3948 10.877C13.3948 9.25728 13.1995 7.77086 12.8167 6.41283C12.4417 5.04493 11.8674 3.95851 11.0979 3.15357C10.3362 2.33876 9.40259 1.92888 8.30103 1.92888C6.63306 1.92888 5.37915 2.82765 4.5354 4.6153C3.69165 6.39308 3.26978 8.63999 3.26978 11.3511C3.26978 13.0005 3.45728 14.5067 3.83228 15.8746C4.20728 17.2474 4.76978 18.3437 5.51978 19.1733C6.26978 19.9931 7.19556 20.398 8.30103 20.398Z" fill="black"/>
</svg>
