<svg width="17" height="22" viewBox="0 0 17 22" fill="none" xmlns="http://www.w3.org/2000/svg">
<path d="M8.02063 21.9365C6.43469 21.9365 5.04016 21.4525 3.83313 20.4945C2.62219 19.5365 1.68469 18.2624 1.02063 16.6822C0.36438 15.1019 0.0362549 13.413 0.0362549 11.6056C0.0362549 9.39328 0.430786 7.46736 1.22375 5.81798C2.01282 4.17353 3.02454 2.91427 4.255 2.04514C5.49329 1.16612 6.74719 0.72168 8.02063 0.72168C9.61438 0.72168 11.0206 1.20563 12.2394 2.16366C13.4659 3.12662 14.4113 4.39082 15.0675 5.95625C15.7316 7.52662 16.0675 9.21551 16.0675 11.0328C16.0675 13.2451 15.6652 15.1809 14.8644 16.8402C14.0597 18.4896 13.0363 19.7538 11.7863 20.6328C10.5363 21.5019 9.27844 21.9365 8.02063 21.9365ZM7.98938 20.5538C9.12219 20.5538 10.0675 20.1291 10.8175 19.2698C11.5753 18.4155 12.1456 17.2698 12.5206 15.8328C12.8956 14.3859 13.0831 12.7859 13.0831 11.0328C13.0831 9.41304 12.8878 7.92662 12.505 6.56859C12.13 5.20069 11.5558 4.11427 10.7863 3.30933C10.0245 2.49452 9.09094 2.08464 7.98938 2.08464C6.32141 2.08464 5.0675 2.98341 4.22375 4.77106C3.38 6.54884 2.95813 8.79575 2.95813 11.5069C2.95813 13.1562 3.14563 14.6624 3.52063 16.0303C3.89563 17.4032 4.45813 18.4995 5.20813 19.3291C5.95813 20.1488 6.88391 20.5538 7.98938 20.5538Z" fill="black"/>
</svg>
