<svg width="10" height="12" viewBox="0 0 10 12" fill="none" xmlns="http://www.w3.org/2000/svg">
<path d="M0.604492 5.80648C0.604492 4.65092 0.776367 3.63364 1.12012 2.7645C1.46387 1.89536 1.93262 1.22376 2.52637 0.749685C3.12012 0.275611 3.78027 0.0385742 4.51074 0.0385742C5.13574 0.0385742 5.68262 0.206476 6.15137 0.532401C6.62793 0.848451 6.99512 1.27314 7.24512 1.7966V0.196599H9.97949V11.4361H7.24512V9.8361C6.9834 10.3645 6.61231 10.7941 6.13574 11.1201C5.66699 11.4361 5.12012 11.5941 4.49512 11.5941C3.77637 11.5941 3.12012 11.3571 2.52637 10.883C1.93262 10.4089 1.46387 9.7324 1.12012 8.84845C0.776367 7.96944 0.604492 6.95215 0.604492 5.80648ZM7.24512 5.82623C7.24512 4.95709 7.05762 4.28055 6.68262 3.79166C6.30762 3.2929 5.84668 3.04104 5.30762 3.04104C4.76465 3.04104 4.30762 3.28796 3.93262 3.77191C3.55762 4.2608 3.37012 4.93734 3.37012 5.80648C3.37012 6.66573 3.55762 7.34228 3.93262 7.84104C4.30762 8.34475 4.76465 8.59166 5.30762 8.59166C5.84668 8.59166 6.30762 8.34969 6.68262 7.8608C7.05762 7.36203 7.24512 6.68549 7.24512 5.82623Z" fill="white"/>
</svg>
