<svg width="18" height="22" viewBox="0 0 18 22" fill="none" xmlns="http://www.w3.org/2000/svg">
<path d="M1.43469 21.0177C1.28626 21.0177 1.17297 20.9486 1.09094 20.8202C1.01672 20.6769 0.981567 20.514 0.981567 20.3263C1.0011 20.0103 1.05188 19.8226 1.13782 19.7535C1.21985 19.6893 1.3761 19.6547 1.60657 19.6547C2.09485 19.6547 2.45032 19.5461 2.66907 19.3189C2.89563 19.0967 3.03626 18.835 3.09094 18.5288C3.14172 18.2276 3.17297 17.793 3.18469 17.2251L3.23157 4.68189C3.23157 4.04979 3.17688 3.57077 3.07532 3.23991C2.96985 2.91398 2.79797 2.67695 2.55969 2.5288C2.32922 2.38559 1.99719 2.26213 1.55969 2.15349C1.27844 2.08929 1.09876 2.0251 1.02844 1.95596C0.965942 1.89176 0.934692 1.71398 0.934692 1.42263C0.934692 1.17571 0.985473 1.00781 1.09094 0.928799C1.20422 0.839911 1.3761 0.790527 1.60657 0.790527C2.64563 0.790527 3.46594 0.884355 4.05969 1.06707C4.66126 1.23991 5.19251 1.55596 5.65344 2.01522C6.11047 2.47942 6.61438 3.18065 7.16907 4.1288L14.0128 15.5066H14.0909L14.0441 4.68189C14.0206 4.10411 13.9855 3.6646 13.9347 3.35843C13.88 3.05719 13.7394 2.79546 13.5128 2.56831C13.2941 2.34608 12.9425 2.2325 12.4659 2.2325H12.3097C12.1417 2.2325 12.0206 2.20287 11.9503 2.13374C11.8761 2.05472 11.8292 1.87201 11.8097 1.58065C11.8097 1.38312 11.8488 1.22016 11.9347 1.08682C12.0167 0.958429 12.1261 0.889293 12.2628 0.889293C13.3253 0.943614 14.1261 0.968305 14.6691 0.968305C14.9816 0.968305 15.5831 0.948552 16.4816 0.909046L17.0128 0.889293C17.1573 0.889293 17.2667 0.958429 17.3409 1.08682C17.423 1.22016 17.4659 1.38312 17.4659 1.58065C17.4425 1.8967 17.3917 2.08929 17.3097 2.15349C17.2238 2.20781 17.0675 2.2325 16.8409 2.2325C16.3488 2.2325 15.9894 2.34608 15.7628 2.56831C15.5441 2.79546 15.4073 3.05719 15.3566 3.35843C15.3136 3.6646 15.2823 4.10411 15.2628 4.68189L15.2159 20.6029C15.1925 20.8794 14.9855 21.0177 14.5909 21.0177C14.2667 21.0177 14.0206 20.8794 13.8566 20.6029L4.43469 4.68189H4.35657L4.41907 17.2251C4.42688 17.793 4.45813 18.2276 4.51282 18.5288C4.5636 18.835 4.70032 19.0967 4.91907 19.3189C5.14563 19.5461 5.5011 19.6547 5.98157 19.6547H6.13782C6.30188 19.6547 6.42297 19.6942 6.49719 19.7732C6.56751 19.8424 6.61438 20.0251 6.63782 20.3263C6.63782 20.514 6.59876 20.6769 6.52844 20.8202C6.45422 20.9486 6.34094 21.0177 6.18469 21.0177C5.12219 20.9486 4.3136 20.9189 3.76282 20.9189C3.42688 20.9189 2.84485 20.9387 2.01282 20.9782L1.43469 21.0177Z" fill="black"/>
</svg>
