<svg width="8" height="22" viewBox="0 0 8 22" fill="none" xmlns="http://www.w3.org/2000/svg">
<path d="M0.475464 21.018C0.327026 21.018 0.213745 20.9489 0.131714 20.8205C0.0574949 20.6773 0.0223389 20.5143 0.0223389 20.3267C0.0418699 20.0106 0.0926519 19.823 0.178589 19.7538C0.272339 19.6897 0.428589 19.6551 0.647339 19.6551C1.13562 19.6551 1.49499 19.5464 1.72546 19.3193C1.95203 19.0971 2.10046 18.8255 2.16296 18.5094C2.23328 18.1934 2.28015 17.7687 2.30359 17.2255V4.68224C2.28015 4.12916 2.23328 3.69459 2.16296 3.37854C2.10046 3.06249 1.95203 2.79582 1.72546 2.56866C1.49499 2.34644 1.13562 2.23286 0.647339 2.23286H0.506714C0.350464 2.23286 0.233276 2.20323 0.162964 2.13409C0.0887449 2.05508 0.0418699 1.87236 0.0223389 1.58101C0.0223389 1.38348 0.0574949 1.22051 0.131714 1.08718C0.213745 0.958785 0.327026 0.889648 0.475464 0.889648C1.5575 0.94397 2.54578 0.968661 3.44421 0.968661C4.44421 0.968661 5.48328 0.94397 6.56921 0.889648C6.72546 0.889648 6.83875 0.958785 6.91296 1.08718C6.98328 1.22051 7.02234 1.38348 7.02234 1.58101C7.01062 1.89706 6.95984 2.08965 6.86609 2.15385C6.77234 2.20817 6.60828 2.23286 6.38171 2.23286C5.88953 2.23286 5.52625 2.34644 5.28796 2.56866C5.0575 2.79582 4.91296 3.07236 4.85046 3.39829C4.79578 3.72916 4.76453 4.15879 4.75671 4.68224V17.2255C4.76453 17.7538 4.79578 18.1835 4.85046 18.5094C4.91296 18.8255 5.0575 19.0971 5.28796 19.3193C5.52625 19.5464 5.88953 19.6551 6.38171 19.6551H6.52234C6.6864 19.6551 6.8075 19.6946 6.88171 19.7736C6.96375 19.8427 7.01062 20.0255 7.02234 20.3267C7.02234 20.5143 6.98328 20.6773 6.91296 20.8205C6.83875 20.9489 6.72546 21.018 6.56921 21.018C5.50671 20.9489 4.47546 20.9193 3.47546 20.9193C2.5575 20.9193 1.5575 20.9489 0.475464 21.018Z" fill="black"/>
</svg>
