<svg width="14" height="21" viewBox="0 0 14 21" fill="none" xmlns="http://www.w3.org/2000/svg">
<path d="M0.583374 20.4028C0.446655 20.4028 0.341186 20.3337 0.270874 20.2053C0.196655 20.0621 0.161499 19.8991 0.161499 19.7115C0.169312 19.3954 0.216186 19.2078 0.302124 19.1386C0.384155 19.0744 0.544312 19.0398 0.786499 19.0398C1.26306 19.0398 1.61853 18.9312 1.849 18.704C2.08728 18.4818 2.23181 18.2102 2.2865 17.8942C2.349 17.5682 2.38806 17.1386 2.4115 16.6102V4.06701C2.38806 3.54355 2.349 3.11392 2.2865 2.78306C2.23181 2.45713 2.08728 2.18059 1.849 1.95343C1.61853 1.7312 1.26306 1.61762 0.786499 1.61762H0.630249C0.46228 1.61762 0.341186 1.58799 0.270874 1.51886C0.208374 1.43985 0.169312 1.25713 0.161499 0.965772C0.161499 0.768241 0.196655 0.605279 0.270874 0.471945C0.341186 0.343551 0.446655 0.274414 0.583374 0.274414C1.68494 0.328735 2.67712 0.353426 3.55212 0.353426H11.4115C11.8373 0.353426 12.0521 0.610217 12.0521 1.1238L12.1302 5.54849C12.1302 5.73614 12.0521 5.88429 11.8959 6.00281C11.7474 6.12133 11.6029 6.18059 11.4584 6.18059C11.2592 6.18059 11.0834 6.13614 10.9271 6.04232C10.7787 5.93861 10.6967 5.7954 10.6771 5.60775C10.5521 4.58059 10.4037 3.80034 10.2396 3.25713C10.0834 2.71886 9.849 2.31886 9.5365 2.05219C9.23181 1.79046 8.80212 1.64725 8.23962 1.61762H4.88025V9.65713H9.4115C9.52478 9.67195 9.61462 9.75096 9.67712 9.89417C9.74744 10.0275 9.7865 10.1905 9.7865 10.388C9.7865 10.546 9.74744 10.6942 9.67712 10.8226C9.61462 10.9559 9.52478 11.0201 9.4115 11.0201H4.88025V16.9855C4.9115 17.4349 4.95056 17.7905 5.00525 18.0522C5.05603 18.3189 5.20837 18.5559 5.45837 18.7633C5.70837 18.9757 6.099 19.0695 6.63025 19.0398H8.92712C9.50916 19.0152 9.95056 18.8966 10.2552 18.6843C10.556 18.4621 10.7943 18.1213 10.974 17.6571C11.1498 17.1831 11.3646 16.4226 11.6146 15.3658C11.7279 15.0003 12.0092 14.8522 12.4584 14.9312C12.6224 14.9707 12.7709 15.0596 12.8959 15.188C13.0209 15.3065 13.0717 15.4645 13.0521 15.6621L12.5521 19.6324C12.5092 19.909 12.4349 20.0966 12.3334 20.1855C12.2279 20.2645 12.0599 20.304 11.8334 20.304H3.58337C2.68494 20.304 1.68494 20.3337 0.583374 20.4028Z" fill="black"/>
</svg>
