<svg width="18" height="21" viewBox="0 0 18 21" fill="none" xmlns="http://www.w3.org/2000/svg">
<path d="M0.867432 20.6329C0.711182 20.6329 0.597901 20.5638 0.523682 20.4354C0.45337 20.2922 0.414307 20.1292 0.414307 19.9416C0.426026 19.6255 0.472901 19.4379 0.554932 19.3687C0.640869 19.3045 0.734619 19.27 0.851807 19.27C0.976807 19.27 1.05493 19.27 1.08618 19.27C1.58618 19.27 1.94946 19.107 2.17993 18.7761C2.41821 18.4502 2.60571 18.0798 2.74243 17.67C2.88696 17.265 2.98462 16.9885 3.03931 16.8403L7.41431 3.74403C7.50806 3.42798 7.55493 3.18107 7.55493 2.99342C7.55493 2.61317 7.43774 2.34156 7.21118 2.18354C6.98071 2.01564 6.65649 1.87737 6.24243 1.76872C5.94946 1.70453 5.77368 1.64033 5.71118 1.57119C5.64868 1.507 5.61743 1.32922 5.61743 1.03786C5.61743 0.790946 5.66821 0.623046 5.77368 0.544033C5.87524 0.455145 6.04712 0.405762 6.28931 0.405762C7.12134 0.405762 7.78149 0.484774 8.27368 0.642799C8.76196 0.800823 9.18774 1.11687 9.55493 1.59095C9.92993 2.06502 10.2737 2.78601 10.5862 3.74403L14.7893 16.8403C15.0393 17.6453 15.2776 18.2428 15.5081 18.6379C15.7463 19.0329 16.094 19.2453 16.5549 19.27H16.7112C16.8752 19.27 16.9924 19.3095 17.0549 19.3885C17.1252 19.4576 17.1682 19.6403 17.1799 19.9416C17.1799 20.1292 17.1409 20.2922 17.0706 20.4354C16.9963 20.5638 16.887 20.6329 16.7424 20.6329C15.6682 20.5638 14.7502 20.5342 13.9924 20.5342C12.9924 20.5342 11.9534 20.5638 10.8831 20.6329C10.7346 20.6329 10.6213 20.5638 10.5393 20.4354C10.4651 20.2922 10.4299 20.1292 10.4299 19.9416C10.4495 19.6403 10.4924 19.4576 10.5549 19.3885C10.6252 19.3095 10.7463 19.27 10.9143 19.27C11.4768 19.27 11.8713 19.2058 12.1018 19.0724C12.3401 18.9292 12.4612 18.6774 12.4612 18.3218C12.4612 18.0453 12.3596 17.5514 12.1643 16.8403L11.3049 14.2132H5.13306C4.71509 15.5169 4.47681 16.2774 4.41431 16.4848C4.35962 16.6971 4.33618 16.8156 4.33618 16.8403C4.13696 17.6453 4.03931 18.1588 4.03931 18.3811C4.03931 18.7366 4.16431 18.9737 4.41431 19.0922C4.66431 19.2107 5.13696 19.27 5.83618 19.27H5.99243C6.15649 19.27 6.27368 19.3095 6.33618 19.3885C6.39868 19.4576 6.43774 19.6403 6.46118 19.9416C6.46118 20.1292 6.42212 20.2922 6.35181 20.4354C6.27759 20.5638 6.16431 20.6329 6.00806 20.6329C4.94556 20.5638 4.03931 20.5342 3.28931 20.5342C2.75806 20.5342 1.94946 20.5638 0.867432 20.6329ZM5.61743 12.8502H10.8674L8.33618 4.73169H8.25806L5.61743 12.8502Z" fill="black"/>
</svg>
