<svg width="13" height="22" viewBox="0 0 13 22" fill="none" xmlns="http://www.w3.org/2000/svg">
<path d="M6.18713 21.5512C4.43713 21.5512 3.09729 21.1661 2.17151 20.4056C1.24182 19.6303 0.780884 18.4994 0.780884 17.008C0.780884 16.2475 0.984009 15.6204 1.39026 15.1315C1.80432 14.6327 2.33557 14.3809 2.98401 14.3809C3.36682 14.3957 3.65979 14.5142 3.85901 14.7364C4.05432 14.9636 4.15588 15.1661 4.15588 15.3488C4.15588 15.3784 4.06995 15.4574 3.90588 15.5858C3.73791 15.7043 3.58557 15.8969 3.45276 16.1586C3.32776 16.4105 3.26526 16.7512 3.26526 17.1858C3.26526 18.1735 3.49963 18.9389 3.96838 19.4772C4.44495 20.0204 5.18713 20.287 6.18713 20.287C6.87463 20.287 7.47229 20.1241 7.98401 19.7932C8.50354 19.4525 8.89807 19.0031 9.17151 18.45C9.45276 17.887 9.59338 17.2994 9.59338 16.692C9.59338 15.9315 9.42151 15.2796 9.07776 14.7364C8.73401 14.1833 8.31213 13.7241 7.81213 13.3537C7.31213 12.9883 6.62854 12.5586 5.76526 12.0698C4.76526 11.5068 3.95276 10.9932 3.32776 10.529C2.71057 10.0549 2.18713 9.43766 1.74963 8.67223C1.31995 7.91174 1.10901 6.95371 1.10901 5.80803C1.10901 3.98087 1.6012 2.60803 2.59338 1.69939C3.59338 0.790747 4.89807 0.336426 6.51526 0.336426C7.77307 0.336426 8.87463 0.682105 9.81213 1.36359C10.7574 2.03519 11.234 3.02285 11.234 4.32655C11.234 5.09198 11.0309 5.72408 10.6246 6.22285C10.2184 6.71174 9.68713 6.95371 9.03088 6.95371C8.65588 6.92902 8.36291 6.8105 8.15588 6.59815C7.95666 6.37593 7.85901 6.16359 7.85901 5.96606C7.85901 5.95618 7.96838 5.88211 8.18713 5.74877C8.4137 5.62038 8.61682 5.42778 8.79651 5.17593C8.97229 4.92902 9.06213 4.5784 9.06213 4.12902C9.06213 3.35371 8.81995 2.7463 8.34338 2.31173C7.87463 1.86729 7.26917 1.64013 6.53088 1.64013C5.51917 1.64013 4.74963 1.9463 4.21838 2.54877C3.69495 3.14136 3.43713 3.88211 3.43713 4.76112C3.43713 5.50186 3.59338 6.11914 3.90588 6.61791C4.2262 7.12161 4.73791 7.60556 5.43713 8.07964C5.99963 8.46482 6.61292 8.84507 7.28088 9.22532C8.3512 9.83272 9.20276 10.3907 9.82776 10.9043C10.4528 11.408 10.9723 12.0698 11.3903 12.8994C11.816 13.7191 12.0309 14.7364 12.0309 15.9611C12.0309 17.0179 11.7692 17.971 11.2496 18.8253C10.7262 19.6698 10.0192 20.3364 9.12463 20.8204C8.2262 21.3043 7.24963 21.5512 6.18713 21.5512Z" fill="black"/>
</svg>
