<svg width="21" height="21" viewBox="0 0 21 21" fill="none" xmlns="http://www.w3.org/2000/svg">
<path d="M9.92297 20.6922C9.67297 20.6922 9.49329 20.5835 9.39172 20.3761L3.76672 4.29712H3.6886L3.7511 16.8403C3.75891 17.4082 3.79016 17.8428 3.84485 18.144C3.89563 18.4502 4.03235 18.7119 4.2511 18.9342C4.47766 19.1613 4.83313 19.27 5.3136 19.27H5.46985C5.63391 19.27 5.755 19.3095 5.82922 19.3885C5.89954 19.4576 5.94641 19.6403 5.96985 19.9416C5.96985 20.1292 5.93079 20.2922 5.86047 20.4354C5.78625 20.5638 5.67297 20.6329 5.51672 20.6329L4.89172 20.5934C4.13 20.5539 3.58313 20.5342 3.2511 20.5342C2.67688 20.5342 1.84875 20.5638 0.766724 20.6329C0.618287 20.6329 0.505005 20.5638 0.422974 20.4354C0.348755 20.2922 0.313599 20.1292 0.313599 19.9416C0.33313 19.6255 0.383911 19.4379 0.469849 19.3687C0.55188 19.3045 0.70813 19.27 0.938599 19.27C1.42688 19.27 1.78235 19.1613 2.0011 18.9342C2.22766 18.7119 2.36829 18.4502 2.42297 18.144C2.47375 17.8428 2.505 17.4082 2.51672 16.8403L2.5636 4.29712C2.5636 3.64033 2.505 3.1465 2.39172 2.81564C2.27454 2.48971 2.10266 2.25761 1.8761 2.12428C1.65735 1.99589 1.32922 1.87737 0.891724 1.76872C0.829224 1.74403 0.727661 1.71934 0.594849 1.68971C0.45813 1.65021 0.368287 1.58601 0.329224 1.49218C0.286255 1.40329 0.266724 1.25021 0.266724 1.03786C0.266724 0.790946 0.317505 0.623046 0.422974 0.544033C0.536255 0.455145 0.70813 0.405762 0.938599 0.405762C1.92688 0.405762 2.73547 0.484774 3.36047 0.642799C3.99329 0.800823 4.55188 1.12675 5.03235 1.6107C5.50891 2.08477 5.90735 2.79589 6.21985 3.74403L10.5167 15.9514H10.5948L15.5167 0.58354H16.9386C17.8527 0.58354 18.8488 0.558848 19.923 0.504527C20.0675 0.504527 20.1769 0.573664 20.2511 0.702058C20.3331 0.835392 20.3761 0.998354 20.3761 1.19589C20.3527 1.51193 20.298 1.70453 20.2042 1.76872C20.1105 1.82305 19.9581 1.84774 19.7511 1.84774C19.2589 1.84774 18.8956 1.96132 18.6573 2.18354C18.4269 2.4107 18.2823 2.68724 18.2198 3.01317C18.1652 3.34403 18.1339 3.77366 18.1261 4.29712V16.8403C18.1339 17.3687 18.1652 17.7984 18.2198 18.1243C18.2823 18.4403 18.4269 18.7119 18.6573 18.9342C18.8956 19.1613 19.2589 19.27 19.7511 19.27H19.8917C20.048 19.27 20.1613 19.3095 20.2355 19.3885C20.3058 19.4576 20.3527 19.6403 20.3761 19.9416C20.3761 20.1292 20.3331 20.2922 20.2511 20.4354C20.1769 20.5638 20.0675 20.6329 19.923 20.6329C18.8488 20.5638 17.8488 20.5342 16.923 20.5342C15.9542 20.5342 14.9269 20.5638 13.8448 20.6329C13.6964 20.6329 13.5831 20.5638 13.5011 20.4354C13.4269 20.2922 13.3917 20.1292 13.3917 19.9416C13.4113 19.6255 13.462 19.4379 13.548 19.3687C13.63 19.3045 13.7863 19.27 14.0167 19.27C14.505 19.27 14.8644 19.1613 15.0948 18.9342C15.3214 18.7119 15.4698 18.4403 15.5323 18.1243C15.5948 17.7984 15.63 17.3687 15.6417 16.8403V4.29712H15.5636L10.423 20.3761C10.3488 20.5835 10.1808 20.6922 9.92297 20.6922Z" fill="black"/>
</svg>
