<svg width="15" height="23" viewBox="0 0 15 23" fill="none" xmlns="http://www.w3.org/2000/svg">
<path d="M7.96619 22.166C6.54822 22.166 5.25134 21.7364 4.07556 20.882C2.89587 20.0277 1.95837 18.808 1.26306 17.2277C0.575562 15.6475 0.231812 13.8055 0.231812 11.6969C0.231812 9.57833 0.563843 7.70673 1.23181 6.08697C1.89587 4.45735 2.84509 3.19315 4.07556 2.29438C5.31384 1.40055 6.76306 0.951172 8.41931 0.951172C9.84509 0.951172 11.1146 1.32154 12.2318 2.05734C13.3568 2.78327 13.9193 3.90426 13.9193 5.41537C13.9271 6.36352 13.7006 7.17339 13.2318 7.845C12.7709 8.50673 12.1459 8.83265 11.3568 8.83265C11.0638 8.83265 10.8138 8.76846 10.6068 8.63512C10.3959 8.49191 10.2396 8.32895 10.1381 8.1413C10.0326 7.94376 9.98962 7.79562 10.0131 7.68697C10.0131 7.64747 10.1263 7.53883 10.3568 7.35117C10.5951 7.15364 10.8021 6.89191 10.9818 6.56105C11.1693 6.22031 11.2631 5.80549 11.2631 5.3166C11.2631 4.36846 11.0052 3.61784 10.4974 3.06475C9.98572 2.50179 9.28259 2.21537 8.38806 2.21537C7.36462 2.21537 6.45837 2.58574 5.66931 3.32154C4.87634 4.04747 4.26306 5.11414 3.82556 6.52154C3.38806 7.91907 3.16931 9.58327 3.16931 11.5191C3.16931 13.208 3.40369 14.7388 3.87244 16.1215C4.349 17.4944 5.02087 18.5857 5.88806 19.4006C6.75134 20.2203 7.73962 20.6252 8.85681 20.6252C9.76306 20.6252 10.5326 20.3882 11.1693 19.9141C11.8138 19.4401 12.3959 18.6796 12.9193 17.6228C13.0013 17.4252 13.1146 17.3265 13.2631 17.3265C13.3959 17.3265 13.5482 17.3956 13.7162 17.524C13.974 17.7512 14.1068 17.9783 14.1068 18.2154C14.1068 18.3487 14.0756 18.4524 14.0131 18.5314C13.3763 19.5487 12.7787 20.3092 12.2162 20.8228C11.6615 21.3364 11.0599 21.682 10.4037 21.8697C9.75525 22.0672 8.94275 22.166 7.96619 22.166Z" fill="black"/>
</svg>
