<svg width="17" height="22" viewBox="0 0 17 22" fill="none" xmlns="http://www.w3.org/2000/svg">
<path d="M8.64856 21.9365C7.06262 21.9365 5.66809 21.4525 4.46106 20.4945C3.25012 19.5365 2.31262 18.2624 1.64856 16.6822C0.99231 15.1019 0.664185 13.413 0.664185 11.6056C0.664185 9.39328 1.05872 7.46736 1.85168 5.81798C2.64075 4.17353 3.65247 2.91427 4.88293 2.04514C6.12122 1.16612 7.37512 0.72168 8.64856 0.72168C10.2423 0.72168 11.6486 1.20563 12.8673 2.16366C14.0939 3.12662 15.0392 4.39082 15.6954 5.95625C16.3595 7.52662 16.6954 9.21551 16.6954 11.0328C16.6954 13.2451 16.2931 15.1809 15.4923 16.8402C14.6876 18.4896 13.6642 19.7538 12.4142 20.6328C11.1642 21.5019 9.90637 21.9365 8.64856 21.9365ZM8.61731 20.5538C9.75012 20.5538 10.6954 20.1291 11.4454 19.2698C12.2032 18.4155 12.7736 17.2698 13.1486 15.8328C13.5236 14.3859 13.7111 12.7859 13.7111 11.0328C13.7111 9.41304 13.5157 7.92662 13.1329 6.56859C12.7579 5.20069 12.1837 4.11427 11.4142 3.30933C10.6525 2.49452 9.71887 2.08464 8.61731 2.08464C6.94934 2.08464 5.69543 2.98341 4.85168 4.77106C4.00793 6.54884 3.58606 8.79575 3.58606 11.5069C3.58606 13.1562 3.77356 14.6624 4.14856 16.0303C4.52356 17.4032 5.08606 18.4995 5.83606 19.3291C6.58606 20.1488 7.51184 20.5538 8.61731 20.5538Z" fill="black"/>
</svg>
