<svg width="22" height="22" viewBox="0 0 22 22" fill="none" xmlns="http://www.w3.org/2000/svg">
<path d="M10.5764 21.0769C10.3264 21.0769 10.1467 20.9683 10.0452 20.7609L4.42017 4.68189H4.34204L4.40454 17.2251C4.41235 17.793 4.4436 18.2276 4.49829 18.5288C4.54907 18.835 4.68579 19.0967 4.90454 19.3189C5.1311 19.5461 5.48657 19.6547 5.96704 19.6547H6.12329C6.28735 19.6547 6.40845 19.6942 6.48267 19.7732C6.55298 19.8424 6.59985 20.0251 6.62329 20.3263C6.62329 20.514 6.58423 20.6769 6.51392 20.8202C6.4397 20.9486 6.32642 21.0177 6.17017 21.0177L5.54517 20.9782C4.78345 20.9387 4.23657 20.9189 3.90454 20.9189C3.33032 20.9189 2.5022 20.9486 1.42017 21.0177C1.27173 21.0177 1.15845 20.9486 1.07642 20.8202C1.0022 20.6769 0.967041 20.514 0.967041 20.3263C0.986572 20.0103 1.03735 19.8226 1.12329 19.7535C1.20532 19.6893 1.36157 19.6547 1.59204 19.6547C2.08032 19.6547 2.43579 19.5461 2.65454 19.3189C2.8811 19.0967 3.02173 18.835 3.07642 18.5288C3.1272 18.2276 3.15845 17.793 3.17017 17.2251L3.21704 4.68189C3.21704 4.0251 3.15845 3.53127 3.04517 3.2004C2.92798 2.87448 2.7561 2.64238 2.52954 2.50905C2.31079 2.38065 1.98267 2.26213 1.54517 2.15349C1.48267 2.1288 1.3811 2.10411 1.24829 2.07448C1.11157 2.03497 1.02173 1.97077 0.982666 1.87695C0.939697 1.78806 0.920166 1.63497 0.920166 1.42263C0.920166 1.17571 0.970947 1.00781 1.07642 0.928799C1.1897 0.839911 1.36157 0.790527 1.59204 0.790527C2.58032 0.790527 3.38892 0.86954 4.01392 1.02756C4.64673 1.18559 5.20532 1.51152 5.68579 1.99547C6.16235 2.46954 6.56079 3.18065 6.87329 4.1288L11.1702 16.3362H11.2483L16.1702 0.968305H17.592C18.5061 0.968305 19.5022 0.943614 20.5764 0.889293C20.7209 0.889293 20.8303 0.958429 20.9045 1.08682C20.9866 1.22016 21.0295 1.38312 21.0295 1.58065C21.0061 1.8967 20.9514 2.08929 20.8577 2.15349C20.7639 2.20781 20.6116 2.2325 20.4045 2.2325C19.9124 2.2325 19.5491 2.34608 19.3108 2.56831C19.0803 2.79546 18.9358 3.07201 18.8733 3.39793C18.8186 3.7288 18.7874 4.15843 18.7795 4.68189V17.2251C18.7874 17.7535 18.8186 18.1831 18.8733 18.509C18.9358 18.8251 19.0803 19.0967 19.3108 19.3189C19.5491 19.5461 19.9124 19.6547 20.4045 19.6547H20.5452C20.7014 19.6547 20.8147 19.6942 20.8889 19.7732C20.9592 19.8424 21.0061 20.0251 21.0295 20.3263C21.0295 20.514 20.9866 20.6769 20.9045 20.8202C20.8303 20.9486 20.7209 21.0177 20.5764 21.0177C19.5022 20.9486 18.5022 20.9189 17.5764 20.9189C16.6077 20.9189 15.5803 20.9486 14.4983 21.0177C14.3499 21.0177 14.2366 20.9486 14.1545 20.8202C14.0803 20.6769 14.0452 20.514 14.0452 20.3263C14.0647 20.0103 14.1155 19.8226 14.2014 19.7535C14.2834 19.6893 14.4397 19.6547 14.6702 19.6547C15.1584 19.6547 15.5178 19.5461 15.7483 19.3189C15.9749 19.0967 16.1233 18.8251 16.1858 18.509C16.2483 18.1831 16.2834 17.7535 16.2952 17.2251V4.68189H16.217L11.0764 20.7609C11.0022 20.9683 10.8342 21.0769 10.5764 21.0769Z" fill="black"/>
</svg>
