<svg width="17" height="22" viewBox="0 0 17 22" fill="none" xmlns="http://www.w3.org/2000/svg">
<path d="M8.75964 21.5512C7.17371 21.5512 5.77917 21.0673 4.57214 20.1093C3.36121 19.1512 2.42371 17.8772 1.75964 16.2969C1.10339 14.7167 0.775269 13.0278 0.775269 11.2204C0.775269 9.00803 1.1698 7.08211 1.96277 5.43272C2.75183 3.78828 3.76355 2.52902 4.99402 1.65988C6.2323 0.78087 7.48621 0.336426 8.75964 0.336426C10.3534 0.336426 11.7596 0.820376 12.9784 1.7784C14.205 2.74136 15.1503 4.00556 15.8065 5.57099C16.4706 7.14136 16.8065 8.83025 16.8065 10.6475C16.8065 12.8599 16.4042 14.7957 15.6034 16.4549C14.7987 18.1043 13.7753 19.3685 12.5253 20.2475C11.2753 21.1167 10.0175 21.5512 8.75964 21.5512ZM8.72839 20.1685C9.86121 20.1685 10.8065 19.7438 11.5565 18.8846C12.3143 18.0303 12.8846 16.8846 13.2596 15.4475C13.6346 14.0006 13.8221 12.4006 13.8221 10.6475C13.8221 9.02778 13.6268 7.54136 13.244 6.18334C12.869 4.81544 12.2948 3.72902 11.5253 2.92408C10.7635 2.10927 9.82996 1.69939 8.72839 1.69939C7.06042 1.69939 5.80652 2.59815 4.96277 4.38581C4.11902 6.16359 3.69714 8.4105 3.69714 11.1216C3.69714 12.771 3.88464 14.2772 4.25964 15.6451C4.63464 17.0179 5.19714 18.1142 5.94714 18.9438C6.69714 19.7636 7.62292 20.1685 8.72839 20.1685Z" fill="black"/>
</svg>
