<svg width="17" height="21" viewBox="0 0 17 21" fill="none" xmlns="http://www.w3.org/2000/svg">
<path d="M0.822144 20.4029C0.673707 20.4029 0.560425 20.3338 0.478394 20.2054C0.404175 20.0622 0.369019 19.8992 0.369019 19.7116C0.38855 19.3955 0.439331 19.2079 0.525269 19.1387C0.6073 19.0745 0.76355 19.04 0.994019 19.04C1.4823 19.04 1.83777 18.9313 2.05652 18.7042C2.28308 18.482 2.42371 18.2202 2.47839 17.9141C2.52917 17.6128 2.56042 17.1783 2.57214 16.6103L2.61902 4.06714C2.61902 3.43504 2.56433 2.95603 2.46277 2.62516C2.3573 2.29924 2.18542 2.0622 1.94714 1.91405C1.71667 1.77084 1.38464 1.64739 0.947144 1.53874C0.665894 1.47455 0.486207 1.41035 0.415894 1.34121C0.353394 1.27702 0.322144 1.09924 0.322144 0.80788C0.322144 0.560966 0.372925 0.393065 0.478394 0.314053C0.591675 0.225165 0.76355 0.175781 0.994019 0.175781C2.03308 0.175781 2.85339 0.269609 3.44714 0.452324C4.04871 0.625164 4.57996 0.941214 5.04089 1.40047C5.49792 1.86467 6.00183 2.5659 6.55652 3.51405L13.4003 14.8918H13.4784L13.4315 4.06714C13.4081 3.48936 13.3729 3.04985 13.3221 2.74368C13.2675 2.44245 13.1268 2.18072 12.9003 1.95356C12.6815 1.73134 12.33 1.61776 11.8534 1.61776H11.6971C11.5292 1.61776 11.4081 1.58813 11.3378 1.51899C11.2635 1.43998 11.2167 1.25726 11.1971 0.965905C11.1971 0.768374 11.2362 0.605411 11.3221 0.472078C11.4042 0.343683 11.5135 0.274547 11.6503 0.274547C12.7128 0.328868 13.5135 0.353559 14.0565 0.353559C14.369 0.353559 14.9706 0.333806 15.869 0.2943L16.4003 0.274547C16.5448 0.274547 16.6542 0.343683 16.7284 0.472078C16.8104 0.605411 16.8534 0.768374 16.8534 0.965905C16.83 1.28195 16.7792 1.47455 16.6971 1.53874C16.6112 1.59307 16.455 1.61776 16.2284 1.61776C15.7362 1.61776 15.3768 1.73134 15.1503 1.95356C14.9315 2.18072 14.7948 2.44245 14.744 2.74368C14.701 3.04985 14.6698 3.48936 14.6503 4.06714L14.6034 19.9881C14.58 20.2647 14.3729 20.4029 13.9784 20.4029C13.6542 20.4029 13.4081 20.2647 13.244 19.9881L3.82214 4.06714H3.74402L3.80652 16.6103C3.81433 17.1783 3.84558 17.6128 3.90027 17.9141C3.95105 18.2202 4.08777 18.482 4.30652 18.7042C4.53308 18.9313 4.88855 19.04 5.36902 19.04H5.52527C5.68933 19.04 5.81042 19.0795 5.88464 19.1585C5.95496 19.2276 6.00183 19.4104 6.02527 19.7116C6.02527 19.8992 5.98621 20.0622 5.91589 20.2054C5.84167 20.3338 5.72839 20.4029 5.57214 20.4029C4.50964 20.3338 3.70105 20.3042 3.15027 20.3042C2.81433 20.3042 2.2323 20.3239 1.40027 20.3634L0.822144 20.4029Z" fill="black"/>
</svg>
