<svg width="14" height="21" viewBox="0 0 14 21" fill="none" xmlns="http://www.w3.org/2000/svg">
<path d="M0.916504 20.6328C0.779785 20.6328 0.674316 20.5637 0.604004 20.4353C0.529785 20.2921 0.494629 20.1291 0.494629 19.9414C0.502442 19.6254 0.549316 19.4377 0.635254 19.3686C0.717285 19.3044 0.877442 19.2698 1.11963 19.2698C1.59619 19.2698 1.95166 19.1612 2.18213 18.934C2.42041 18.7118 2.56494 18.4402 2.61963 18.1241C2.68213 17.7982 2.72119 17.3686 2.74463 16.8402V4.29699C2.72119 3.77353 2.68213 3.3439 2.61963 3.01304C2.56494 2.68711 2.42041 2.41057 2.18213 2.18341C1.95166 1.96119 1.59619 1.8476 1.11963 1.8476H0.963379C0.79541 1.8476 0.674316 1.81797 0.604004 1.74884C0.541504 1.66983 0.502442 1.48711 0.494629 1.19575C0.494629 0.998222 0.529785 0.835259 0.604004 0.701925C0.674316 0.573531 0.779785 0.504395 0.916504 0.504395C2.01807 0.558716 3.01025 0.583407 3.88525 0.583407H11.7446C12.1704 0.583407 12.3853 0.840197 12.3853 1.35378L12.4634 5.77847C12.4634 5.96612 12.3853 6.11427 12.229 6.23279C12.0806 6.35131 11.936 6.41057 11.7915 6.41057C11.5923 6.41057 11.4165 6.36612 11.2603 6.2723C11.1118 6.16859 11.0298 6.02538 11.0103 5.83773C10.8853 4.81057 10.7368 4.03032 10.5728 3.48711C10.4165 2.94884 10.1821 2.54884 9.86963 2.28217C9.56494 2.02044 9.13525 1.87723 8.57275 1.8476H5.21338V9.88711H9.74463C9.85791 9.90193 9.94775 9.98094 10.0103 10.1241C10.0806 10.2575 10.1196 10.4204 10.1196 10.618C10.1196 10.776 10.0806 10.9241 10.0103 11.0525C9.94775 11.1859 9.85791 11.2501 9.74463 11.2501H5.21338V17.2155C5.24463 17.6649 5.28369 18.0204 5.33838 18.2822C5.38916 18.5488 5.5415 18.7859 5.7915 18.9933C6.0415 19.2056 6.43213 19.2995 6.96338 19.2698H9.26025C9.84229 19.2451 10.2837 19.1266 10.5884 18.9143C10.8892 18.6921 11.1274 18.3513 11.3071 17.8871C11.4829 17.413 11.6978 16.6525 11.9478 15.5958C12.061 15.2303 12.3423 15.0822 12.7915 15.1612C12.9556 15.2007 13.104 15.2896 13.229 15.418C13.354 15.5365 13.4048 15.6945 13.3853 15.8921L12.8853 19.8624C12.8423 20.139 12.7681 20.3266 12.6665 20.4155C12.561 20.4945 12.3931 20.534 12.1665 20.534H3.9165C3.01807 20.534 2.01807 20.5637 0.916504 20.6328Z" fill="black"/>
</svg>
