<svg width="21" height="21" viewBox="0 0 21 21" fill="none" xmlns="http://www.w3.org/2000/svg">
<path d="M9.70142 20.4622C9.45142 20.4622 9.27173 20.3536 9.17017 20.1462L3.54517 4.06714H3.46704L3.52954 16.6103C3.53735 17.1783 3.5686 17.6128 3.62329 17.9141C3.67407 18.2202 3.81079 18.482 4.02954 18.7042C4.2561 18.9313 4.61157 19.04 5.09204 19.04H5.24829C5.41235 19.04 5.53345 19.0795 5.60767 19.1585C5.67798 19.2276 5.72485 19.4104 5.74829 19.7116C5.74829 19.8992 5.70923 20.0622 5.63892 20.2054C5.5647 20.3338 5.45142 20.4029 5.29517 20.4029L4.67017 20.3634C3.90845 20.3239 3.36157 20.3042 3.02954 20.3042C2.45532 20.3042 1.6272 20.3338 0.545166 20.4029C0.396729 20.4029 0.283447 20.3338 0.201416 20.2054C0.127197 20.0622 0.092041 19.8992 0.092041 19.7116C0.111572 19.3955 0.162353 19.2079 0.248291 19.1387C0.330322 19.0745 0.486572 19.04 0.717041 19.04C1.20532 19.04 1.56079 18.9313 1.77954 18.7042C2.0061 18.482 2.14673 18.2202 2.20142 17.9141C2.2522 17.6128 2.28345 17.1783 2.29517 16.6103L2.34204 4.06714C2.34204 3.41035 2.28345 2.91652 2.17017 2.58566C2.05298 2.25973 1.8811 2.02763 1.65454 1.8943C1.43579 1.76591 1.10767 1.64739 0.670166 1.53874C0.607666 1.51405 0.506103 1.48936 0.373291 1.45973C0.236572 1.42023 0.146729 1.35603 0.107666 1.2622C0.064697 1.17331 0.045166 1.02023 0.045166 0.80788C0.045166 0.560966 0.095947 0.393065 0.201416 0.314053C0.314697 0.225165 0.486572 0.175781 0.717041 0.175781C1.70532 0.175781 2.51392 0.254794 3.13892 0.412818C3.77173 0.570843 4.33032 0.89677 4.81079 1.38072C5.28735 1.85479 5.68579 2.5659 5.99829 3.51405L10.2952 15.7215H10.3733L15.2952 0.353559H16.717C17.6311 0.353559 18.6272 0.328868 19.7014 0.274547C19.8459 0.274547 19.9553 0.343683 20.0295 0.472078C20.1116 0.605411 20.1545 0.768374 20.1545 0.965905C20.1311 1.28195 20.0764 1.47455 19.9827 1.53874C19.8889 1.59307 19.7366 1.61776 19.5295 1.61776C19.0374 1.61776 18.6741 1.73134 18.4358 1.95356C18.2053 2.18072 18.0608 2.45726 17.9983 2.78319C17.9436 3.11405 17.9124 3.54368 17.9045 4.06714V16.6103C17.9124 17.1387 17.9436 17.5684 17.9983 17.8943C18.0608 18.2104 18.2053 18.482 18.4358 18.7042C18.6741 18.9313 19.0374 19.04 19.5295 19.04H19.6702C19.8264 19.04 19.9397 19.0795 20.0139 19.1585C20.0842 19.2276 20.1311 19.4104 20.1545 19.7116C20.1545 19.8992 20.1116 20.0622 20.0295 20.2054C19.9553 20.3338 19.8459 20.4029 19.7014 20.4029C18.6272 20.3338 17.6272 20.3042 16.7014 20.3042C15.7327 20.3042 14.7053 20.3338 13.6233 20.4029C13.4749 20.4029 13.3616 20.3338 13.2795 20.2054C13.2053 20.0622 13.1702 19.8992 13.1702 19.7116C13.1897 19.3955 13.2405 19.2079 13.3264 19.1387C13.4084 19.0745 13.5647 19.04 13.7952 19.04C14.2834 19.04 14.6428 18.9313 14.8733 18.7042C15.0999 18.482 15.2483 18.2104 15.3108 17.8943C15.3733 17.5684 15.4084 17.1387 15.4202 16.6103V4.06714H15.342L10.2014 20.1462C10.1272 20.3536 9.95923 20.4622 9.70142 20.4622Z" fill="black"/>
</svg>
