<svg width="18" height="21" viewBox="0 0 18 21" fill="none" xmlns="http://www.w3.org/2000/svg">
<path d="M1.3761 20.4029C1.21985 20.4029 1.10657 20.3338 1.03235 20.2054C0.962037 20.0622 0.922974 19.8992 0.922974 19.7116C0.934693 19.3955 0.981568 19.2079 1.0636 19.1387C1.14954 19.0745 1.24329 19.04 1.36047 19.04C1.48547 19.04 1.5636 19.04 1.59485 19.04C2.09485 19.04 2.45813 18.877 2.6886 18.5462C2.92688 18.2202 3.11438 17.8499 3.2511 17.44C3.39563 17.035 3.49329 16.7585 3.54797 16.6103L7.92297 3.51405C8.01672 3.198 8.0636 2.95109 8.0636 2.76344C8.0636 2.38319 7.94641 2.11158 7.71985 1.95356C7.48938 1.78566 7.16516 1.64739 6.7511 1.53874C6.45813 1.47455 6.28235 1.41035 6.21985 1.34121C6.15735 1.27702 6.1261 1.09924 6.1261 0.80788C6.1261 0.560966 6.17688 0.393065 6.28235 0.314053C6.38391 0.225165 6.55579 0.175781 6.79797 0.175781C7.63 0.175781 8.29016 0.254794 8.78235 0.412818C9.27063 0.570843 9.69641 0.886892 10.0636 1.36097C10.4386 1.83504 10.7823 2.55603 11.0948 3.51405L15.298 16.6103C15.548 17.4153 15.7863 18.0128 16.0167 18.4079C16.255 18.8029 16.6027 19.0153 17.0636 19.04H17.2198C17.3839 19.04 17.5011 19.0795 17.5636 19.1585C17.6339 19.2276 17.6769 19.4104 17.6886 19.7116C17.6886 19.8992 17.6495 20.0622 17.5792 20.2054C17.505 20.3338 17.3956 20.4029 17.2511 20.4029C16.1769 20.3338 15.2589 20.3042 14.5011 20.3042C13.5011 20.3042 12.462 20.3338 11.3917 20.4029C11.2433 20.4029 11.13 20.3338 11.048 20.2054C10.9738 20.0622 10.9386 19.8992 10.9386 19.7116C10.9581 19.4104 11.0011 19.2276 11.0636 19.1585C11.1339 19.0795 11.255 19.04 11.423 19.04C11.9855 19.04 12.38 18.9758 12.6105 18.8424C12.8488 18.6992 12.9698 18.4474 12.9698 18.0918C12.9698 17.8153 12.8683 17.3215 12.673 16.6103L11.8136 13.9832H5.64172C5.22375 15.2869 4.98547 16.0474 4.92297 16.2548C4.86829 16.4671 4.84485 16.5857 4.84485 16.6103C4.64563 17.4153 4.54797 17.9289 4.54797 18.1511C4.54797 18.5066 4.67297 18.7437 4.92297 18.8622C5.17297 18.9807 5.64563 19.04 6.34485 19.04H6.5011C6.66516 19.04 6.78235 19.0795 6.84485 19.1585C6.90735 19.2276 6.94641 19.4104 6.96985 19.7116C6.96985 19.8992 6.93079 20.0622 6.86047 20.2054C6.78625 20.3338 6.67297 20.4029 6.51672 20.4029C5.45422 20.3338 4.54797 20.3042 3.79797 20.3042C3.26672 20.3042 2.45813 20.3338 1.3761 20.4029ZM6.1261 12.6202H11.3761L8.84485 4.50171H8.76672L6.1261 12.6202Z" fill="black"/>
</svg>
