<svg width="17" height="21" viewBox="0 0 17 21" fill="none" xmlns="http://www.w3.org/2000/svg">
<path d="M0.655762 20.4029C0.507325 20.4029 0.394043 20.3338 0.312012 20.2054C0.237793 20.0622 0.202637 19.8992 0.202637 19.7116C0.222168 19.3955 0.272949 19.2079 0.358887 19.1387C0.440918 19.0745 0.597168 19.04 0.827637 19.04C1.31592 19.04 1.67139 18.9313 1.89014 18.7042C2.1167 18.482 2.25732 18.2202 2.31201 17.9141C2.36279 17.6128 2.39404 17.1783 2.40576 16.6103L2.45264 4.06714C2.45264 3.43504 2.39795 2.95603 2.29639 2.62516C2.19092 2.29924 2.01904 2.0622 1.78076 1.91405C1.55029 1.77084 1.21826 1.64739 0.780762 1.53874C0.499512 1.47455 0.319825 1.41035 0.249512 1.34121C0.187012 1.27702 0.155762 1.09924 0.155762 0.80788C0.155762 0.560966 0.206543 0.393065 0.312012 0.314053C0.425293 0.225165 0.597168 0.175781 0.827637 0.175781C1.8667 0.175781 2.68701 0.269609 3.28076 0.452324C3.88233 0.625164 4.41358 0.941214 4.87451 1.40047C5.33154 1.86467 5.83545 2.5659 6.39014 3.51405L13.2339 14.8918H13.312L13.2651 4.06714C13.2417 3.48936 13.2065 3.04985 13.1558 2.74368C13.1011 2.44245 12.9605 2.18072 12.7339 1.95356C12.5151 1.73134 12.1636 1.61776 11.687 1.61776H11.5308C11.3628 1.61776 11.2417 1.58813 11.1714 1.51899C11.0972 1.43998 11.0503 1.25726 11.0308 0.965905C11.0308 0.768374 11.0698 0.605411 11.1558 0.472078C11.2378 0.343683 11.3472 0.274547 11.4839 0.274547C12.5464 0.328868 13.3472 0.353559 13.8901 0.353559C14.2026 0.353559 14.8042 0.333806 15.7026 0.2943L16.2339 0.274547C16.3784 0.274547 16.4878 0.343683 16.562 0.472078C16.644 0.605411 16.687 0.768374 16.687 0.965905C16.6636 1.28195 16.6128 1.47455 16.5308 1.53874C16.4448 1.59307 16.2886 1.61776 16.062 1.61776C15.5698 1.61776 15.2105 1.73134 14.9839 1.95356C14.7651 2.18072 14.6284 2.44245 14.5776 2.74368C14.5347 3.04985 14.5034 3.48936 14.4839 4.06714L14.437 19.9881C14.4136 20.2647 14.2065 20.4029 13.812 20.4029C13.4878 20.4029 13.2417 20.2647 13.0776 19.9881L3.65576 4.06714H3.57764L3.64014 16.6103C3.64795 17.1783 3.6792 17.6128 3.73389 17.9141C3.78467 18.2202 3.92139 18.482 4.14014 18.7042C4.3667 18.9313 4.72217 19.04 5.20264 19.04H5.35889C5.52295 19.04 5.64404 19.0795 5.71826 19.1585C5.78858 19.2276 5.83545 19.4104 5.85889 19.7116C5.85889 19.8992 5.81983 20.0622 5.74951 20.2054C5.67529 20.3338 5.56201 20.4029 5.40576 20.4029C4.34326 20.3338 3.53467 20.3042 2.98389 20.3042C2.64795 20.3042 2.06592 20.3239 1.23389 20.3634L0.655762 20.4029Z" fill="black"/>
</svg>
