<svg width="14" height="21" viewBox="0 0 14 21" fill="none" xmlns="http://www.w3.org/2000/svg">
<path d="M0.761231 20.4028C0.624512 20.4028 0.519042 20.3337 0.44873 20.2053C0.374511 20.0621 0.339355 19.8991 0.339355 19.7115C0.347168 19.3954 0.394042 19.2078 0.47998 19.1386C0.562011 19.0744 0.722169 19.0398 0.964356 19.0398C1.44092 19.0398 1.79639 18.9312 2.02686 18.704C2.26514 18.4818 2.40967 18.2102 2.46436 17.8942C2.52686 17.5682 2.56592 17.1386 2.58936 16.6102V4.06701C2.56592 3.54355 2.52686 3.11392 2.46436 2.78306C2.40967 2.45713 2.26514 2.18059 2.02686 1.95343C1.79639 1.7312 1.44092 1.61762 0.964356 1.61762H0.808106C0.640137 1.61762 0.519042 1.58799 0.44873 1.51886C0.38623 1.43985 0.347168 1.25713 0.339355 0.965772C0.339355 0.768241 0.374511 0.605279 0.44873 0.471945C0.519042 0.343551 0.624512 0.274414 0.761231 0.274414C1.86279 0.328735 2.85498 0.353426 3.72998 0.353426H11.5894C12.0151 0.353426 12.23 0.610217 12.23 1.1238L12.3081 5.54849C12.3081 5.73614 12.23 5.88429 12.0737 6.00281C11.9253 6.12133 11.7808 6.18059 11.6362 6.18059C11.437 6.18059 11.2612 6.13614 11.105 6.04232C10.9565 5.93861 10.8745 5.7954 10.855 5.60775C10.73 4.58059 10.5815 3.80034 10.4175 3.25713C10.2612 2.71886 10.0269 2.31886 9.71436 2.05219C9.40967 1.79046 8.97998 1.64725 8.41748 1.61762H5.05811V9.65713H9.58936C9.70264 9.67195 9.79248 9.75096 9.85498 9.89417C9.92529 10.0275 9.96436 10.1905 9.96436 10.388C9.96436 10.546 9.92529 10.6942 9.85498 10.8226C9.79248 10.9559 9.70264 11.0201 9.58936 11.0201H5.05811V16.9855C5.08936 17.4349 5.12842 17.7905 5.18311 18.0522C5.23389 18.3189 5.38623 18.5559 5.63623 18.7633C5.88623 18.9757 6.27686 19.0695 6.80811 19.0398H9.10498C9.68701 19.0152 10.1284 18.8966 10.4331 18.6843C10.7339 18.4621 10.9722 18.1213 11.1519 17.6571C11.3276 17.1831 11.5425 16.4226 11.7925 15.3658C11.9058 15.0003 12.187 14.8522 12.6362 14.9312C12.8003 14.9707 12.9487 15.0596 13.0737 15.188C13.1987 15.3065 13.2495 15.4645 13.23 15.6621L12.73 19.6324C12.687 19.909 12.6128 20.0966 12.5112 20.1855C12.4058 20.2645 12.2378 20.304 12.0112 20.304H3.76123C2.86279 20.304 1.86279 20.3337 0.761231 20.4028Z" fill="black"/>
</svg>
