<svg width="10" height="16" viewBox="0 0 10 16" fill="none" xmlns="http://www.w3.org/2000/svg">
<path d="M6.12817 4.07828C7.14771 4.07828 7.96411 4.50791 8.5813 5.36223C9.19458 6.22149 9.50317 7.39186 9.50317 8.87828V15.4363H6.78442V9.3326C6.78442 8.58199 6.62817 8.00421 6.31567 7.59433C6.01099 7.17458 5.60083 6.96223 5.0813 6.96223C4.56958 6.96223 4.15942 7.17458 3.84692 7.59433C3.53442 8.00421 3.37817 8.58199 3.37817 9.3326V15.4363H0.659424V0.54248H3.37817V5.71779C3.65942 5.21902 4.03833 4.82396 4.5188 4.5326C4.99536 4.23137 5.53442 4.07828 6.12817 4.07828Z" fill="white"/>
</svg>
