<svg width="17" height="23" viewBox="0 0 17 23" fill="none" xmlns="http://www.w3.org/2000/svg">
<path d="M8.81653 22.166C7.23059 22.166 5.83606 21.682 4.62903 20.724C3.41809 19.766 2.48059 18.4919 1.81653 16.9117C1.16028 15.3314 0.832153 13.6425 0.832153 11.8351C0.832153 9.62278 1.22668 7.69685 2.01965 6.04747C2.80872 4.40302 3.82043 3.14376 5.0509 2.27463C6.28918 1.39562 7.54309 0.951172 8.81653 0.951172C10.4103 0.951172 11.8165 1.43512 13.0353 2.39315C14.2618 3.35611 15.2072 4.62031 15.8634 6.18574C16.5275 7.75611 16.8634 9.445 16.8634 11.2623C16.8634 13.4746 16.4611 15.4104 15.6603 17.0697C14.8556 18.7191 13.8322 19.9833 12.5822 20.8623C11.3322 21.7314 10.0743 22.166 8.81653 22.166ZM8.78528 20.7833C9.91809 20.7833 10.8634 20.3586 11.6134 19.4993C12.3712 18.645 12.9415 17.4993 13.3165 16.0623C13.6915 14.6154 13.879 13.0154 13.879 11.2623C13.879 9.64253 13.6837 8.15611 13.3009 6.79809C12.9259 5.43018 12.3517 4.34377 11.5822 3.53883C10.8204 2.72401 9.88684 2.31413 8.78528 2.31413C7.11731 2.31413 5.8634 3.2129 5.01965 5.00055C4.1759 6.77833 3.75403 9.02525 3.75403 11.7364C3.75403 13.3857 3.94153 14.8919 4.31653 16.2598C4.69153 17.6327 5.25403 18.729 6.00403 19.5586C6.75403 20.3783 7.67981 20.7833 8.78528 20.7833Z" fill="black"/>
</svg>
