<svg width="18" height="22" viewBox="0 0 18 22" fill="none" xmlns="http://www.w3.org/2000/svg">
<path d="M0.987915 21.0177C0.839478 21.0177 0.726196 20.9486 0.644165 20.8202C0.569946 20.6769 0.53479 20.514 0.53479 20.3263C0.554321 20.0103 0.605102 19.8226 0.69104 19.7535C0.773071 19.6893 0.929321 19.6547 1.15979 19.6547C1.64807 19.6547 2.00354 19.5461 2.22229 19.3189C2.44885 19.0967 2.58948 18.835 2.64417 18.5288C2.69495 18.2276 2.7262 17.793 2.73792 17.2251L2.78479 4.68189C2.78479 4.04979 2.7301 3.57077 2.62854 3.23991C2.52307 2.91398 2.3512 2.67695 2.11292 2.5288C1.88245 2.38559 1.55042 2.26213 1.11292 2.15349C0.831665 2.08929 0.651978 2.0251 0.581665 1.95596C0.519165 1.89176 0.487915 1.71398 0.487915 1.42263C0.487915 1.17571 0.538696 1.00781 0.644165 0.928799C0.757446 0.839911 0.929321 0.790527 1.15979 0.790527C2.19885 0.790527 3.01917 0.884355 3.61292 1.06707C4.21448 1.23991 4.74573 1.55596 5.20667 2.01522C5.6637 2.47942 6.1676 3.18065 6.72229 4.1288L13.566 15.5066H13.6442L13.5973 4.68189C13.5739 4.10411 13.5387 3.6646 13.4879 3.35843C13.4332 3.05719 13.2926 2.79546 13.066 2.56831C12.8473 2.34608 12.4957 2.2325 12.0192 2.2325H11.8629C11.6949 2.2325 11.5739 2.20287 11.5035 2.13374C11.4293 2.05472 11.3824 1.87201 11.3629 1.58065C11.3629 1.38312 11.402 1.22016 11.4879 1.08682C11.5699 0.958429 11.6793 0.889293 11.816 0.889293C12.8785 0.943614 13.6793 0.968305 14.2223 0.968305C14.5348 0.968305 15.1364 0.948552 16.0348 0.909046L16.566 0.889293C16.7106 0.889293 16.8199 0.958429 16.8942 1.08682C16.9762 1.22016 17.0192 1.38312 17.0192 1.58065C16.9957 1.8967 16.9449 2.08929 16.8629 2.15349C16.777 2.20781 16.6207 2.2325 16.3942 2.2325C15.902 2.2325 15.5426 2.34608 15.316 2.56831C15.0973 2.79546 14.9606 3.05719 14.9098 3.35843C14.8668 3.6646 14.8356 4.10411 14.816 4.68189L14.7692 20.6029C14.7457 20.8794 14.5387 21.0177 14.1442 21.0177C13.8199 21.0177 13.5739 20.8794 13.4098 20.6029L3.98792 4.68189H3.90979L3.97229 17.2251C3.9801 17.793 4.01135 18.2276 4.06604 18.5288C4.11682 18.835 4.25354 19.0967 4.47229 19.3189C4.69885 19.5461 5.05432 19.6547 5.53479 19.6547H5.69104C5.8551 19.6547 5.9762 19.6942 6.05042 19.7732C6.12073 19.8424 6.1676 20.0251 6.19104 20.3263C6.19104 20.514 6.15198 20.6769 6.08167 20.8202C6.00745 20.9486 5.89417 21.0177 5.73792 21.0177C4.67542 20.9486 3.86682 20.9189 3.31604 20.9189C2.9801 20.9189 2.39807 20.9387 1.56604 20.9782L0.987915 21.0177Z" fill="black"/>
</svg>
