<svg width="17" height="21" viewBox="0 0 17 21" fill="none" xmlns="http://www.w3.org/2000/svg">
<path d="M0.779419 20.6328C0.6427 20.6328 0.537231 20.5637 0.466919 20.4353C0.3927 20.2921 0.357544 20.1291 0.357544 19.9414C0.365357 19.6254 0.412231 19.4377 0.498169 19.3686C0.5802 19.3044 0.740357 19.2698 0.982544 19.2698C1.45911 19.2698 1.81457 19.1612 2.04504 18.934C2.28332 18.7118 2.42786 18.4402 2.48254 18.1241C2.54504 17.7982 2.58411 17.3686 2.60754 16.8402V4.29699C2.58411 3.77353 2.54504 3.3439 2.48254 3.01304C2.42786 2.68711 2.28332 2.41057 2.04504 2.18341C1.81457 1.96119 1.45911 1.8476 0.982544 1.8476H0.826294C0.658325 1.8476 0.537231 1.81797 0.466919 1.74884C0.404419 1.66983 0.365357 1.48711 0.357544 1.19575C0.357544 0.998222 0.3927 0.835259 0.466919 0.701925C0.537231 0.573531 0.6427 0.504395 0.779419 0.504395C1.88098 0.558716 2.87317 0.583407 3.74817 0.583407H7.65442C9.25598 0.583407 10.7091 0.993284 12.0138 1.8081C13.3263 2.62785 14.3575 3.79328 15.1075 5.3044C15.8654 6.82045 16.2482 8.61304 16.2482 10.6772C16.2482 12.8254 15.8185 14.6427 14.9669 16.1291C14.1115 17.6204 12.9982 18.7266 11.6232 19.4476C10.2482 20.1735 8.77161 20.534 7.20129 20.534H3.74817C2.87317 20.534 1.88098 20.5637 0.779419 20.6328ZM7.57629 19.3686C9.52161 19.3686 10.9513 18.6081 11.8575 17.0772C12.7716 15.5513 13.2325 13.418 13.2325 10.6772C13.2325 8.95378 12.9825 7.41304 12.4825 6.05501C11.9904 4.68711 11.2794 3.62538 10.3419 2.87477C9.41223 2.11427 8.31067 1.72909 7.02942 1.72909L5.07629 1.76859V17.2155C5.07629 18.0353 5.2677 18.5982 5.65442 18.9143C6.04895 19.2204 6.68958 19.3686 7.57629 19.3686Z" fill="black"/>
</svg>
