<svg width="18" height="21" viewBox="0 0 18 21" fill="none" xmlns="http://www.w3.org/2000/svg">
<path d="M0.884277 20.4028C0.728027 20.4028 0.610839 20.3337 0.540527 20.2053C0.466308 20.0621 0.431152 19.8991 0.431152 19.7115C0.438965 19.3954 0.485839 19.2078 0.571777 19.1386C0.653808 19.0744 0.813965 19.0398 1.05615 19.0398C1.53272 19.0398 1.88818 18.9312 2.11865 18.704C2.35693 18.4818 2.50147 18.2102 2.55615 17.8942C2.61865 17.5682 2.65772 17.1386 2.68115 16.6102V4.06701C2.65772 3.54355 2.61865 3.11392 2.55615 2.78306C2.50147 2.45713 2.35693 2.18059 2.11865 1.95343C1.88818 1.7312 1.53272 1.61762 1.05615 1.61762H0.899902C0.731933 1.61762 0.610839 1.58799 0.540527 1.51886C0.478027 1.43985 0.438965 1.25713 0.431152 0.965772C0.431152 0.768241 0.466308 0.605279 0.540527 0.471945C0.610839 0.343551 0.728027 0.274414 0.884277 0.274414C1.96631 0.328735 2.94678 0.353426 3.82178 0.353426C4.82178 0.353426 5.86084 0.328735 6.94678 0.274414C7.10303 0.274414 7.21631 0.343551 7.29053 0.471945C7.36084 0.605279 7.3999 0.768241 7.3999 0.965772C7.38818 1.28182 7.34131 1.47441 7.25928 1.53861C7.17334 1.59293 7.01318 1.61762 6.7749 1.61762C6.29443 1.61762 5.93506 1.7312 5.69678 1.95343C5.46631 2.18059 5.32178 2.45713 5.25928 2.78306C5.20459 3.11392 5.16943 3.54355 5.1499 4.06701V9.65713H13.0093V4.06701C12.9858 3.54355 12.9468 3.11392 12.8843 2.78306C12.8296 2.45713 12.6851 2.18059 12.4468 1.95343C12.2163 1.7312 11.8608 1.61762 11.3843 1.61762H11.228C11.0601 1.61762 10.939 1.58799 10.8687 1.51886C10.7944 1.43985 10.7476 1.25713 10.728 0.965772C10.728 0.768241 10.7671 0.605279 10.853 0.471945C10.9351 0.343551 11.0444 0.274414 11.1812 0.274414C12.2632 0.328735 13.3062 0.353426 14.3062 0.353426C15.2202 0.353426 16.2124 0.328735 17.2749 0.274414C17.4312 0.274414 17.5444 0.343551 17.6187 0.471945C17.689 0.605279 17.728 0.768241 17.728 0.965772C17.7046 1.28182 17.6499 1.47441 17.5562 1.53861C17.4702 1.59293 17.3218 1.61762 17.103 1.61762C16.6226 1.61762 16.2593 1.7312 16.0093 1.95343C15.7671 2.18059 15.6187 2.45713 15.5562 2.78306C15.5015 3.11392 15.4663 3.54355 15.4468 4.06701V16.6102C15.4663 17.1386 15.5015 17.5682 15.5562 17.8942C15.6187 18.2102 15.7671 18.4818 16.0093 18.704C16.2593 18.9312 16.6226 19.0398 17.103 19.0398H17.2593C17.4038 19.0398 17.5132 19.0794 17.5874 19.1584C17.6577 19.2275 17.7046 19.4102 17.728 19.7115C17.728 19.8991 17.689 20.0621 17.6187 20.2053C17.5444 20.3337 17.4312 20.4028 17.2749 20.4028C16.2124 20.3337 15.2124 20.304 14.2749 20.304C13.2944 20.304 12.2632 20.3337 11.1812 20.4028C11.0444 20.4028 10.9351 20.3337 10.853 20.2053C10.7671 20.0621 10.728 19.8991 10.728 19.7115C10.7476 19.3954 10.7983 19.2078 10.8843 19.1386C10.978 19.0744 11.1421 19.0398 11.3843 19.0398C11.8608 19.0398 12.2163 18.9312 12.4468 18.704C12.6851 18.4818 12.8296 18.2102 12.8843 17.8942C12.9468 17.5682 12.9858 17.1386 13.0093 16.6102V11.0201H5.1499V16.6102C5.16943 17.1386 5.20459 17.5682 5.25928 17.8942C5.32178 18.2102 5.46631 18.4818 5.69678 18.704C5.93506 18.9312 6.29443 19.0398 6.7749 19.0398H6.93115C7.09522 19.0398 7.2124 19.0794 7.2749 19.1584C7.34522 19.2275 7.38818 19.4102 7.3999 19.7115C7.3999 19.8991 7.36084 20.0621 7.29053 20.2053C7.21631 20.3337 7.10303 20.4028 6.94678 20.4028C5.88428 20.3337 4.85303 20.304 3.85303 20.304C2.95459 20.304 1.96631 20.3337 0.884277 20.4028Z" fill="black"/>
</svg>
