<svg width="12" height="22" viewBox="0 0 12 22" fill="none" xmlns="http://www.w3.org/2000/svg">
<path d="M5.6991 21.5512C3.9491 21.5512 2.60925 21.1661 1.68347 20.4056C0.753785 19.6303 0.292847 18.4994 0.292847 17.008C0.292847 16.2475 0.495972 15.6204 0.902222 15.1315C1.31628 14.6327 1.84753 14.3809 2.49597 14.3809C2.87878 14.3957 3.17175 14.5142 3.37097 14.7364C3.56628 14.9636 3.66785 15.1661 3.66785 15.3488C3.66785 15.3784 3.58191 15.4574 3.41785 15.5858C3.24988 15.7043 3.09753 15.8969 2.96472 16.1586C2.83972 16.4105 2.77722 16.7512 2.77722 17.1858C2.77722 18.1735 3.0116 18.9389 3.48035 19.4772C3.95691 20.0204 4.6991 20.287 5.6991 20.287C6.3866 20.287 6.98425 20.1241 7.49597 19.7932C8.0155 19.4525 8.41004 19.0031 8.68347 18.45C8.96472 17.887 9.10535 17.2994 9.10535 16.692C9.10535 15.9315 8.93347 15.2796 8.58972 14.7364C8.24597 14.1833 7.8241 13.7241 7.3241 13.3537C6.8241 12.9883 6.1405 12.5586 5.27722 12.0698C4.27722 11.5068 3.46472 10.9932 2.83972 10.529C2.22253 10.0549 1.6991 9.43766 1.2616 8.67223C0.831909 7.91174 0.620972 6.95371 0.620972 5.80803C0.620972 3.98087 1.11316 2.60803 2.10535 1.69939C3.10535 0.790747 4.41003 0.336426 6.02722 0.336426C7.28503 0.336426 8.3866 0.682105 9.3241 1.36359C10.2694 2.03519 10.746 3.02285 10.746 4.32655C10.746 5.09198 10.5428 5.72408 10.1366 6.22285C9.73035 6.71174 9.1991 6.95371 8.54285 6.95371C8.16785 6.92902 7.87488 6.8105 7.66785 6.59815C7.46863 6.37593 7.37097 6.16359 7.37097 5.96606C7.37097 5.95618 7.48035 5.88211 7.6991 5.74877C7.92566 5.62038 8.12878 5.42778 8.30847 5.17593C8.48425 4.92902 8.5741 4.5784 8.5741 4.12902C8.5741 3.35371 8.33191 2.7463 7.85535 2.31173C7.3866 1.86729 6.78113 1.64013 6.04285 1.64013C5.03113 1.64013 4.2616 1.9463 3.73035 2.54877C3.20691 3.14136 2.9491 3.88211 2.9491 4.76112C2.9491 5.50186 3.10535 6.11914 3.41785 6.61791C3.73816 7.12161 4.24988 7.60556 4.9491 8.07964C5.5116 8.46482 6.12488 8.84507 6.79285 9.22532C7.86316 9.83272 8.71472 10.3907 9.33972 10.9043C9.96472 11.408 10.4843 12.0698 10.9022 12.8994C11.328 13.7191 11.5428 14.7364 11.5428 15.9611C11.5428 17.0179 11.2811 17.971 10.7616 18.8253C10.2382 19.6698 9.53113 20.3364 8.6366 20.8204C7.73816 21.3043 6.7616 21.5512 5.6991 21.5512Z" fill="black"/>
</svg>
