<svg width="15" height="22" viewBox="0 0 15 22" fill="none" xmlns="http://www.w3.org/2000/svg">
<path d="M8.10815 21.5512C6.69019 21.5512 5.39331 21.1216 4.21753 20.2673C3.03784 19.413 2.10034 18.1932 1.40503 16.613C0.717529 15.0327 0.373779 13.1907 0.373779 11.0821C0.373779 8.96359 0.70581 7.09198 1.37378 5.47223C2.03784 3.8426 2.98706 2.5784 4.21753 1.67964C5.45581 0.785809 6.90503 0.336426 8.56128 0.336426C9.98706 0.336426 11.2566 0.706796 12.3738 1.4426C13.4988 2.16852 14.0613 3.28951 14.0613 4.80062C14.0691 5.74877 13.8425 6.55865 13.3738 7.23025C12.9128 7.89198 12.2878 8.21791 11.4988 8.21791C11.2058 8.21791 10.9558 8.15371 10.7488 8.02038C10.5378 7.87717 10.3816 7.7142 10.28 7.52655C10.1746 7.32902 10.1316 7.18087 10.155 7.07223C10.155 7.03272 10.2683 6.92408 10.4988 6.73643C10.7371 6.5389 10.9441 6.27717 11.1238 5.9463C11.3113 5.60556 11.405 5.19075 11.405 4.70186C11.405 3.75371 11.1472 3.00309 10.6394 2.45001C10.1277 1.88704 9.42456 1.60062 8.53003 1.60062C7.50659 1.60062 6.60034 1.97099 5.81128 2.7068C5.01831 3.43272 4.40503 4.49939 3.96753 5.9068C3.53003 7.30433 3.31128 8.96852 3.31128 10.9043C3.31128 12.5932 3.54565 14.1241 4.0144 15.5068C4.49097 16.8796 5.16284 17.971 6.03003 18.7858C6.89331 19.6056 7.88159 20.0105 8.99878 20.0105C9.90503 20.0105 10.6746 19.7735 11.3113 19.2994C11.9558 18.8253 12.5378 18.0648 13.0613 17.008C13.1433 16.8105 13.2566 16.7117 13.405 16.7117C13.5378 16.7117 13.6902 16.7809 13.8582 16.9093C14.116 17.1364 14.2488 17.3636 14.2488 17.6006C14.2488 17.734 14.2175 17.8377 14.155 17.9167C13.5183 18.934 12.9207 19.6945 12.3582 20.208C11.8035 20.7216 11.2019 21.0673 10.5457 21.2549C9.89722 21.4525 9.08472 21.5512 8.10815 21.5512Z" fill="black"/>
</svg>
