<svg width="21" height="21" viewBox="0 0 21 21" fill="none" xmlns="http://www.w3.org/2000/svg">
<path d="M10.2206 20.4622C9.97058 20.4622 9.79089 20.3536 9.68933 20.1462L4.06433 4.06714H3.98621L4.04871 16.6103C4.05652 17.1783 4.08777 17.6128 4.14246 17.9141C4.19324 18.2202 4.32996 18.482 4.54871 18.7042C4.77527 18.9313 5.13074 19.04 5.61121 19.04H5.76746C5.93152 19.04 6.05261 19.0795 6.12683 19.1585C6.19714 19.2276 6.24402 19.4104 6.26746 19.7116C6.26746 19.8992 6.22839 20.0622 6.15808 20.2054C6.08386 20.3338 5.97058 20.4029 5.81433 20.4029L5.18933 20.3634C4.42761 20.3239 3.88074 20.3042 3.54871 20.3042C2.97449 20.3042 2.14636 20.3338 1.06433 20.4029C0.915894 20.4029 0.802612 20.3338 0.720581 20.2054C0.646362 20.0622 0.611206 19.8992 0.611206 19.7116C0.630737 19.3955 0.681518 19.2079 0.767456 19.1387C0.849487 19.0745 1.00574 19.04 1.23621 19.04C1.72449 19.04 2.07996 18.9313 2.29871 18.7042C2.52527 18.482 2.66589 18.2202 2.72058 17.9141C2.77136 17.6128 2.80261 17.1783 2.81433 16.6103L2.86121 4.06714C2.86121 3.41035 2.80261 2.91652 2.68933 2.58566C2.57214 2.25973 2.40027 2.02763 2.17371 1.8943C1.95496 1.76591 1.62683 1.64739 1.18933 1.53874C1.12683 1.51405 1.02527 1.48936 0.892456 1.45973C0.755737 1.42023 0.665894 1.35603 0.626831 1.2622C0.583862 1.17331 0.564331 1.02023 0.564331 0.80788C0.564331 0.560966 0.615112 0.393065 0.720581 0.314053C0.833862 0.225165 1.00574 0.175781 1.23621 0.175781C2.22449 0.175781 3.03308 0.254794 3.65808 0.412818C4.29089 0.570843 4.84949 0.89677 5.32996 1.38072C5.80652 1.85479 6.20496 2.5659 6.51746 3.51405L10.8143 15.7215H10.8925L15.8143 0.353559H17.2362C18.1503 0.353559 19.1464 0.328868 20.2206 0.274547C20.3651 0.274547 20.4745 0.343683 20.5487 0.472078C20.6307 0.605411 20.6737 0.768374 20.6737 0.965905C20.6503 1.28195 20.5956 1.47455 20.5018 1.53874C20.4081 1.59307 20.2557 1.61776 20.0487 1.61776C19.5565 1.61776 19.1932 1.73134 18.955 1.95356C18.7245 2.18072 18.58 2.45726 18.5175 2.78319C18.4628 3.11405 18.4315 3.54368 18.4237 4.06714V16.6103C18.4315 17.1387 18.4628 17.5684 18.5175 17.8943C18.58 18.2104 18.7245 18.482 18.955 18.7042C19.1932 18.9313 19.5565 19.04 20.0487 19.04H20.1893C20.3456 19.04 20.4589 19.0795 20.5331 19.1585C20.6034 19.2276 20.6503 19.4104 20.6737 19.7116C20.6737 19.8992 20.6307 20.0622 20.5487 20.2054C20.4745 20.3338 20.3651 20.4029 20.2206 20.4029C19.1464 20.3338 18.1464 20.3042 17.2206 20.3042C16.2518 20.3042 15.2245 20.3338 14.1425 20.4029C13.994 20.4029 13.8807 20.3338 13.7987 20.2054C13.7245 20.0622 13.6893 19.8992 13.6893 19.7116C13.7089 19.3955 13.7596 19.2079 13.8456 19.1387C13.9276 19.0745 14.0839 19.04 14.3143 19.04C14.8026 19.04 15.162 18.9313 15.3925 18.7042C15.619 18.482 15.7675 18.2104 15.83 17.8943C15.8925 17.5684 15.9276 17.1387 15.9393 16.6103V4.06714H15.8612L10.7206 20.1462C10.6464 20.3536 10.4784 20.4622 10.2206 20.4622Z" fill="black"/>
</svg>
