<svg width="14" height="21" viewBox="0 0 14 21" fill="none" xmlns="http://www.w3.org/2000/svg">
<path d="M3.92041 20.6329C3.77197 20.6329 3.6626 20.5637 3.59229 20.4353C3.51807 20.2921 3.48291 20.1292 3.48291 19.9415C3.49072 19.6255 3.5376 19.4378 3.62354 19.3687C3.70557 19.3045 3.86572 19.2699 4.10791 19.2699C4.58447 19.2699 4.93994 19.1613 5.17041 18.9341C5.40869 18.7119 5.55322 18.4403 5.60791 18.1242C5.67041 17.7983 5.70947 17.3687 5.73291 16.8403V1.76868H3.99854C3.43604 1.7835 2.99854 1.93658 2.68604 2.223C2.38135 2.49955 2.14697 2.92424 1.98291 3.4872C1.82666 4.04029 1.68994 4.84029 1.57666 5.87732C1.55322 6.03535 1.45166 6.16868 1.26416 6.27239C1.08447 6.38103 0.896972 6.43041 0.70166 6.43041C0.553222 6.43041 0.42041 6.38103 0.29541 6.27239C0.17041 6.15387 0.10791 5.99584 0.10791 5.79831L0.17041 1.35387C0.17041 0.840286 0.396972 0.583496 0.85791 0.583496H13.0767C13.5142 0.583496 13.7329 0.840286 13.7329 1.35387L13.8267 5.79831C13.8267 5.99584 13.7563 6.15387 13.6235 6.27239C13.4868 6.38103 13.3462 6.43041 13.2017 6.43041C13.0024 6.43041 12.8149 6.38103 12.6392 6.27239C12.4595 6.16868 12.3657 6.03535 12.3579 5.87732C12.2212 4.82547 12.0767 4.02053 11.9204 3.46745C11.772 2.91436 11.5376 2.49955 11.2173 2.223C10.9048 1.93658 10.4673 1.7835 9.90479 1.76868H8.20166V16.8403C8.22119 17.3687 8.25635 17.7983 8.31104 18.1242C8.37354 18.4403 8.51807 18.7119 8.74854 18.9341C8.98682 19.1613 9.34619 19.2699 9.82666 19.2699H9.98291C10.1274 19.2699 10.2368 19.3094 10.311 19.3884C10.3813 19.4576 10.4282 19.6403 10.4517 19.9415C10.4517 20.1292 10.4126 20.2921 10.3423 20.4353C10.2681 20.5637 10.1548 20.6329 9.99854 20.6329C8.93604 20.5637 7.95166 20.5341 7.04541 20.5341C6.04541 20.5341 5.00244 20.5637 3.92041 20.6329Z" fill="black"/>
</svg>
