<svg width="17" height="21" viewBox="0 0 17 21" fill="none" xmlns="http://www.w3.org/2000/svg">
<path d="M1.11194 20.6328C0.955688 20.6328 0.8385 20.5637 0.768188 20.4353C0.693969 20.2921 0.658813 20.1291 0.658813 19.9414C0.666626 19.6254 0.7135 19.4377 0.799438 19.3686C0.881469 19.3044 1.04163 19.2698 1.28381 19.2698C1.76038 19.2698 2.11584 19.1612 2.34631 18.934C2.58459 18.7118 2.72913 18.4402 2.78381 18.1241C2.84631 17.7982 2.88538 17.3686 2.90881 16.8402V4.31674C2.88538 3.77847 2.84631 3.34884 2.78381 3.03279C2.72913 2.71674 2.58459 2.4402 2.34631 2.20316C2.11584 1.96612 1.76038 1.8476 1.28381 1.8476H1.12756C0.959594 1.8476 0.8385 1.81797 0.768188 1.74884C0.705688 1.66983 0.666626 1.48711 0.658813 1.19575C0.658813 0.998222 0.693969 0.835259 0.768188 0.701925C0.8385 0.573531 0.955688 0.504395 1.11194 0.504395C2.19397 0.558716 3.18225 0.583407 4.08069 0.583407H8.37756C9.65881 0.613037 10.7252 0.874765 11.5807 1.37353C12.444 1.86242 13.0729 2.49452 13.4713 3.26983C13.8776 4.03526 14.0807 4.85995 14.0807 5.73896C14.0807 6.89946 13.7135 7.96612 12.9869 8.93896C12.2682 9.90193 11.2838 10.5933 10.0338 11.013L10.4557 11.8822C11.151 13.3044 11.7838 14.5291 12.3463 15.5562C12.9166 16.5834 13.5377 17.5414 14.2057 18.4204C14.6744 18.9093 15.1744 19.1908 15.7057 19.2698C15.7369 19.2698 15.8073 19.2797 15.9244 19.2896C16.0494 19.3044 16.1471 19.3637 16.2213 19.4674C16.2916 19.576 16.3307 19.734 16.3307 19.9414C16.3307 20.1291 16.2916 20.2921 16.2213 20.4353C16.1471 20.5637 16.0338 20.6328 15.8776 20.6328L15.2369 20.5933C14.4948 20.5538 13.9596 20.534 13.6276 20.534C12.9596 20.3661 12.3854 20.0698 11.9088 19.6451C11.4401 19.2106 10.9713 18.5933 10.5026 17.7883C10.0221 16.9883 9.35022 15.6748 8.48694 13.8575L8.03381 12.9488C7.78381 12.4649 7.53772 12.134 7.29944 11.9612C7.06897 11.7785 6.67444 11.6846 6.11194 11.6846H5.37756V16.8402C5.39709 17.3686 5.43225 17.7982 5.48694 18.1241C5.54944 18.4402 5.69397 18.7118 5.92444 18.934C6.16272 19.1612 6.52209 19.2698 7.00256 19.2698H7.15881C7.30334 19.2698 7.41272 19.3093 7.48694 19.3883C7.56897 19.4575 7.61584 19.6402 7.62756 19.9414C7.62756 20.1291 7.5885 20.2921 7.51819 20.4353C7.44397 20.5637 7.33069 20.6328 7.17444 20.6328C6.11194 20.5637 5.06897 20.534 4.04944 20.534C3.17444 20.534 2.19397 20.5637 1.11194 20.6328ZM7.58069 10.46C10.0573 10.46 11.2994 8.98835 11.2994 6.03526C11.2994 4.82538 10.9752 3.81304 10.3307 2.99328C9.68225 2.17847 8.61584 1.76859 7.12756 1.76859C6.64709 1.76859 6.28381 1.84267 6.03381 1.98588C5.78381 2.13402 5.61194 2.38094 5.51819 2.73649C5.42444 3.09205 5.37756 3.6402 5.37756 4.376V10.46H7.58069Z" fill="black"/>
</svg>
