<svg width="8" height="21" viewBox="0 0 8 21" fill="none" xmlns="http://www.w3.org/2000/svg">
<path d="M1.39978 20.4028C1.25134 20.4028 1.13806 20.3337 1.05603 20.2053C0.981811 20.0621 0.946655 19.8991 0.946655 19.7115C0.966186 19.3954 1.01697 19.2078 1.10291 19.1386C1.19666 19.0744 1.35291 19.0398 1.57166 19.0398C2.05994 19.0398 2.41931 18.9312 2.64978 18.704C2.87634 18.4818 3.02478 18.2102 3.08728 17.8942C3.15759 17.5781 3.20447 17.1534 3.22791 16.6102V4.06701C3.20447 3.51392 3.15759 3.07935 3.08728 2.7633C3.02478 2.44725 2.87634 2.18059 2.64978 1.95343C2.41931 1.7312 2.05994 1.61762 1.57166 1.61762H1.43103C1.27478 1.61762 1.15759 1.58799 1.08728 1.51886C1.01306 1.43985 0.966186 1.25713 0.946655 0.965772C0.946655 0.768241 0.981811 0.605279 1.05603 0.471945C1.13806 0.343551 1.25134 0.274414 1.39978 0.274414C2.48181 0.328735 3.47009 0.353426 4.36853 0.353426C5.36853 0.353426 6.40759 0.328735 7.49353 0.274414C7.64978 0.274414 7.76306 0.343551 7.83728 0.471945C7.90759 0.605279 7.94666 0.768241 7.94666 0.965772C7.93494 1.28182 7.88416 1.47441 7.79041 1.53861C7.69666 1.59293 7.53259 1.61762 7.30603 1.61762C6.81384 1.61762 6.45056 1.7312 6.21228 1.95343C5.98181 2.18059 5.83728 2.45713 5.77478 2.78306C5.72009 3.11392 5.68884 3.54355 5.68103 4.06701V16.6102C5.68884 17.1386 5.72009 17.5682 5.77478 17.8942C5.83728 18.2102 5.98181 18.4818 6.21228 18.704C6.45056 18.9312 6.81384 19.0398 7.30603 19.0398H7.44666C7.61072 19.0398 7.73181 19.0794 7.80603 19.1584C7.88806 19.2275 7.93494 19.4102 7.94666 19.7115C7.94666 19.8991 7.90759 20.0621 7.83728 20.2053C7.76306 20.3337 7.64978 20.4028 7.49353 20.4028C6.43103 20.3337 5.39978 20.304 4.39978 20.304C3.48181 20.304 2.48181 20.3337 1.39978 20.4028Z" fill="black"/>
</svg>
