<svg width="18" height="21" viewBox="0 0 18 21" fill="none" xmlns="http://www.w3.org/2000/svg">
<path d="M1.41455 20.6329C1.2583 20.6329 1.14502 20.5638 1.0708 20.4354C1.00049 20.2922 0.961426 20.1292 0.961426 19.9416C0.973145 19.6255 1.02002 19.4379 1.10205 19.3687C1.18799 19.3045 1.28174 19.27 1.39893 19.27C1.52393 19.27 1.60205 19.27 1.6333 19.27C2.1333 19.27 2.49658 19.107 2.72705 18.7761C2.96533 18.4502 3.15283 18.0798 3.28955 17.67C3.43408 17.265 3.53174 16.9885 3.58643 16.8403L7.96143 3.74403C8.05518 3.42798 8.10205 3.18107 8.10205 2.99342C8.10205 2.61317 7.98486 2.34156 7.7583 2.18354C7.52783 2.01564 7.20361 1.87737 6.78955 1.76872C6.49658 1.70453 6.3208 1.64033 6.2583 1.57119C6.1958 1.507 6.16455 1.32922 6.16455 1.03786C6.16455 0.790946 6.21533 0.623046 6.3208 0.544033C6.42236 0.455145 6.59424 0.405762 6.83643 0.405762C7.66846 0.405762 8.32861 0.484774 8.8208 0.642799C9.30908 0.800823 9.73486 1.11687 10.1021 1.59095C10.4771 2.06502 10.8208 2.78601 11.1333 3.74403L15.3364 16.8403C15.5864 17.6453 15.8247 18.2428 16.0552 18.6379C16.2935 19.0329 16.6411 19.2453 17.1021 19.27H17.2583C17.4224 19.27 17.5396 19.3095 17.6021 19.3885C17.6724 19.4576 17.7153 19.6403 17.7271 19.9416C17.7271 20.1292 17.688 20.2922 17.6177 20.4354C17.5435 20.5638 17.4341 20.6329 17.2896 20.6329C16.2153 20.5638 15.2974 20.5342 14.5396 20.5342C13.5396 20.5342 12.5005 20.5638 11.4302 20.6329C11.2817 20.6329 11.1685 20.5638 11.0864 20.4354C11.0122 20.2922 10.9771 20.1292 10.9771 19.9416C10.9966 19.6403 11.0396 19.4576 11.1021 19.3885C11.1724 19.3095 11.2935 19.27 11.4614 19.27C12.0239 19.27 12.4185 19.2058 12.6489 19.0724C12.8872 18.9292 13.0083 18.6774 13.0083 18.3218C13.0083 18.0453 12.9067 17.5514 12.7114 16.8403L11.8521 14.2132H5.68018C5.26221 15.5169 5.02393 16.2774 4.96143 16.4848C4.90674 16.6971 4.8833 16.8156 4.8833 16.8403C4.68408 17.6453 4.58643 18.1588 4.58643 18.3811C4.58643 18.7366 4.71143 18.9737 4.96143 19.0922C5.21143 19.2107 5.68408 19.27 6.3833 19.27H6.53955C6.70361 19.27 6.8208 19.3095 6.8833 19.3885C6.9458 19.4576 6.98486 19.6403 7.0083 19.9416C7.0083 20.1292 6.96924 20.2922 6.89893 20.4354C6.82471 20.5638 6.71143 20.6329 6.55518 20.6329C5.49268 20.5638 4.58643 20.5342 3.83643 20.5342C3.30518 20.5342 2.49658 20.5638 1.41455 20.6329ZM6.16455 12.8502H11.4146L8.8833 4.73169H8.80518L6.16455 12.8502Z" fill="black"/>
</svg>
