<svg width="17" height="22" viewBox="0 0 17 22" fill="none" xmlns="http://www.w3.org/2000/svg">
<path d="M8.51099 21.9365C7.06177 21.9365 5.74927 21.5513 4.57349 20.7908C3.40552 20.0155 2.47974 18.8451 1.79224 17.2748C1.10474 15.7093 0.760986 13.7735 0.760986 11.4674C0.760986 9.34884 1.12817 7.47724 1.87036 5.85748C2.62036 4.22785 3.65161 2.96366 4.96411 2.06489C6.28442 1.17106 7.79614 0.72168 9.49536 0.72168C10.3274 0.72168 11.1516 0.879704 11.9641 1.19575C12.7844 1.5118 13.4641 2.01551 13.9954 2.69699C14.5266 3.36859 14.7922 4.19822 14.7922 5.18588C14.7922 6.10933 14.5735 6.91427 14.136 7.59575C13.7063 8.26736 13.136 8.60316 12.4172 8.60316C12.0618 8.60316 11.7219 8.49946 11.4016 8.28711C11.0774 8.0797 10.9055 7.80316 10.886 7.45748C10.886 7.44761 10.9993 7.33403 11.2297 7.12168C11.4563 6.91427 11.6672 6.62785 11.8547 6.2723C12.0422 5.90686 12.136 5.4723 12.136 4.96859C12.136 4.08958 11.8586 3.36859 11.3079 2.81551C10.7649 2.26242 10.0618 1.98588 9.19849 1.98588C8.15552 1.98588 7.21802 2.35625 6.38599 3.09205C5.55005 3.81798 4.8938 4.88464 4.41724 6.29205C3.93677 7.68958 3.69849 9.35378 3.69849 11.2896C3.69849 13.1612 3.93286 14.7809 4.40161 16.1488C4.87817 17.5217 5.54614 18.5735 6.40161 19.3093C7.26489 20.0353 8.26099 20.3958 9.38599 20.3958C9.92505 20.3958 10.3938 20.3562 10.7922 20.2772C11.1868 20.1982 11.6204 20.0698 12.0891 19.8822V16.6624C12.0891 15.9266 12.0657 15.413 12.0266 15.1217C11.9836 14.8204 11.8469 14.5982 11.6204 14.4501C11.4016 14.3069 11.0266 14.2328 10.4954 14.2328C10.3079 14.2328 10.1711 14.1933 10.0891 14.1143C10.0032 14.0353 9.9563 13.8525 9.94849 13.5612C9.94849 13.3785 9.98755 13.2204 10.0735 13.0871C10.1672 12.9439 10.2961 12.8698 10.4641 12.8698C11.5149 12.939 12.4329 12.9686 13.2141 12.9686C13.9641 12.9686 14.8625 12.939 15.9172 12.8698C16.0618 12.8698 16.175 12.9439 16.261 13.0871C16.343 13.2204 16.386 13.3785 16.386 13.5612C16.3743 13.8525 16.3274 14.0353 16.2454 14.1143C16.1594 14.1933 16.0266 14.2328 15.8391 14.2328C15.3391 14.2328 14.9797 14.3217 14.761 14.4896C14.55 14.6476 14.4211 14.8846 14.3704 15.2007C14.3157 15.5069 14.2922 15.9908 14.2922 16.6624V20.3958C13.3118 20.9785 12.4094 21.3735 11.5891 21.6007C10.7766 21.8229 9.74927 21.9365 8.51099 21.9365Z" fill="black"/>
</svg>
