<svg width="17" height="21" viewBox="0 0 17 21" fill="none" xmlns="http://www.w3.org/2000/svg">
<path d="M1.0481 20.2475C0.911377 20.2475 0.805908 20.1784 0.735596 20.05C0.661377 19.9068 0.626221 19.7438 0.626221 19.5562C0.634034 19.2401 0.680908 19.0525 0.766846 18.9833C0.848877 18.9191 1.00903 18.8846 1.25122 18.8846C1.72778 18.8846 2.08325 18.7759 2.31372 18.5488C2.552 18.3266 2.69653 18.0549 2.75122 17.7389C2.81372 17.413 2.85278 16.9833 2.87622 16.4549V3.91173C2.85278 3.38828 2.81372 2.95865 2.75122 2.62778C2.69653 2.30186 2.552 2.02531 2.31372 1.79815C2.08325 1.57593 1.72778 1.46235 1.25122 1.46235H1.09497C0.927002 1.46235 0.805908 1.43272 0.735596 1.36359C0.673096 1.28457 0.634034 1.10186 0.626221 0.810499C0.626221 0.612968 0.661377 0.450005 0.735596 0.316672C0.805908 0.188277 0.911377 0.119141 1.0481 0.119141C2.14966 0.173462 3.14185 0.198153 4.01685 0.198153H7.9231C9.52466 0.198153 10.9778 0.60803 12.2825 1.42284C13.595 2.2426 14.6262 3.40803 15.3762 4.91914C16.134 6.43519 16.5168 8.22778 16.5168 10.292C16.5168 12.4401 16.0872 14.2574 15.2356 15.7438C14.3801 17.2352 13.2668 18.3414 11.8918 19.0624C10.5168 19.7883 9.04028 20.1488 7.46997 20.1488H4.01685C3.14185 20.1488 2.14966 20.1784 1.0481 20.2475ZM7.84497 18.9833C9.79028 18.9833 11.22 18.2228 12.1262 16.692C13.0403 15.1661 13.5012 13.0327 13.5012 10.292C13.5012 8.56852 13.2512 7.02778 12.7512 5.66976C12.259 4.30186 11.5481 3.24013 10.6106 2.48951C9.68091 1.72902 8.57935 1.34383 7.2981 1.34383L5.34497 1.38334V16.8303C5.34497 17.65 5.53638 18.213 5.9231 18.529C6.31763 18.8352 6.95825 18.9833 7.84497 18.9833Z" fill="black"/>
</svg>
