<svg width="17" height="23" viewBox="0 0 17 23" fill="none" xmlns="http://www.w3.org/2000/svg">
<path d="M8.69971 22.166C7.11377 22.166 5.71924 21.682 4.51221 20.724C3.30127 19.766 2.36377 18.4919 1.69971 16.9117C1.04346 15.3314 0.715332 13.6425 0.715332 11.8351C0.715332 9.62278 1.10986 7.69685 1.90283 6.04747C2.6919 4.40302 3.70361 3.14376 4.93408 2.27463C6.17236 1.39562 7.42627 0.951172 8.69971 0.951172C10.2935 0.951172 11.6997 1.43512 12.9185 2.39315C14.145 3.35611 15.0903 4.62031 15.7466 6.18574C16.4106 7.75611 16.7466 9.445 16.7466 11.2623C16.7466 13.4746 16.3442 15.4104 15.5435 17.0697C14.7388 18.7191 13.7153 19.9833 12.4653 20.8623C11.2153 21.7314 9.95752 22.166 8.69971 22.166ZM8.66846 20.7833C9.80127 20.7833 10.7466 20.3586 11.4966 19.4993C12.2544 18.645 12.8247 17.4993 13.1997 16.0623C13.5747 14.6154 13.7622 13.0154 13.7622 11.2623C13.7622 9.64253 13.5669 8.15611 13.1841 6.79809C12.8091 5.43018 12.2349 4.34377 11.4653 3.53883C10.7036 2.72401 9.77002 2.31413 8.66846 2.31413C7.00049 2.31413 5.74658 3.2129 4.90283 5.00055C4.05908 6.77833 3.63721 9.02525 3.63721 11.7364C3.63721 13.3857 3.82471 14.8919 4.19971 16.2598C4.57471 17.6327 5.13721 18.729 5.88721 19.5586C6.63721 20.3783 7.56299 20.7833 8.66846 20.7833Z" fill="black"/>
</svg>
