<svg width="18" height="22" viewBox="0 0 18 22" fill="none" xmlns="http://www.w3.org/2000/svg">
<path d="M1.27979 21.0177C1.13135 21.0177 1.01807 20.9486 0.936035 20.8202C0.861816 20.6769 0.82666 20.514 0.82666 20.3263C0.846191 20.0103 0.896972 19.8226 0.98291 19.7535C1.06494 19.6893 1.22119 19.6547 1.45166 19.6547C1.93994 19.6547 2.29541 19.5461 2.51416 19.3189C2.74072 19.0967 2.88135 18.835 2.93604 18.5288C2.98682 18.2276 3.01807 17.793 3.02979 17.2251L3.07666 4.68189C3.07666 4.04979 3.02197 3.57077 2.92041 3.23991C2.81494 2.91398 2.64307 2.67695 2.40479 2.5288C2.17432 2.38559 1.84229 2.26213 1.40479 2.15349C1.12354 2.08929 0.943848 2.0251 0.873535 1.95596C0.811035 1.89176 0.779785 1.71398 0.779785 1.42263C0.779785 1.17571 0.830566 1.00781 0.936035 0.928799C1.04932 0.839911 1.22119 0.790527 1.45166 0.790527C2.49072 0.790527 3.31104 0.884355 3.90479 1.06707C4.50635 1.23991 5.0376 1.55596 5.49854 2.01522C5.95557 2.47942 6.45947 3.18065 7.01416 4.1288L13.8579 15.5066H13.936L13.8892 4.68189C13.8657 4.10411 13.8306 3.6646 13.7798 3.35843C13.7251 3.05719 13.5845 2.79546 13.3579 2.56831C13.1392 2.34608 12.7876 2.2325 12.311 2.2325H12.1548C11.9868 2.2325 11.8657 2.20287 11.7954 2.13374C11.7212 2.05472 11.6743 1.87201 11.6548 1.58065C11.6548 1.38312 11.6938 1.22016 11.7798 1.08682C11.8618 0.958429 11.9712 0.889293 12.1079 0.889293C13.1704 0.943614 13.9712 0.968305 14.5142 0.968305C14.8267 0.968305 15.4282 0.948552 16.3267 0.909046L16.8579 0.889293C17.0024 0.889293 17.1118 0.958429 17.186 1.08682C17.2681 1.22016 17.311 1.38312 17.311 1.58065C17.2876 1.8967 17.2368 2.08929 17.1548 2.15349C17.0688 2.20781 16.9126 2.2325 16.686 2.2325C16.1938 2.2325 15.8345 2.34608 15.6079 2.56831C15.3892 2.79546 15.2524 3.05719 15.2017 3.35843C15.1587 3.6646 15.1274 4.10411 15.1079 4.68189L15.061 20.6029C15.0376 20.8794 14.8306 21.0177 14.436 21.0177C14.1118 21.0177 13.8657 20.8794 13.7017 20.6029L4.27979 4.68189H4.20166L4.26416 17.2251C4.27197 17.793 4.30322 18.2276 4.35791 18.5288C4.40869 18.835 4.54541 19.0967 4.76416 19.3189C4.99072 19.5461 5.34619 19.6547 5.82666 19.6547H5.98291C6.14697 19.6547 6.26807 19.6942 6.34229 19.7732C6.4126 19.8424 6.45947 20.0251 6.48291 20.3263C6.48291 20.514 6.44385 20.6769 6.37354 20.8202C6.29932 20.9486 6.18604 21.0177 6.02979 21.0177C4.96729 20.9486 4.15869 20.9189 3.60791 20.9189C3.27197 20.9189 2.68994 20.9387 1.85791 20.9782L1.27979 21.0177Z" fill="black"/>
</svg>
