<svg width="16" height="24" viewBox="0 0 16 24" fill="none" xmlns="http://www.w3.org/2000/svg">
<path d="M5.08484 8.56441C5.47937 7.73478 6.05359 7.07305 6.80359 6.56935C7.55359 6.05577 8.41296 5.79897 9.38171 5.79897C10.5262 5.79897 11.5692 6.16935 12.5067 6.90515C13.4442 7.64589 14.1825 8.69774 14.7255 10.0656C15.2645 11.4385 15.538 13.0286 15.538 14.8459C15.538 16.6632 15.2645 18.2632 14.7255 19.6459C14.1825 21.0187 13.4442 22.0755 12.5067 22.8261C11.5692 23.5768 10.5262 23.9521 9.38171 23.9521C8.40125 23.9521 7.54187 23.7051 6.80359 23.2212C6.07312 22.7224 5.4989 22.0558 5.08484 21.2261V23.6953H0.803589V0.307617H5.08484V8.56441ZM11.1786 14.8459C11.1786 13.5027 10.8817 12.4508 10.288 11.6854C9.70203 10.9101 8.97546 10.52 8.10046 10.52C7.25671 10.52 6.53796 10.9101 5.94421 11.6854C5.35046 12.4656 5.05359 13.5323 5.05359 14.8854C5.05359 16.2286 5.35046 17.2903 5.94421 18.0656C6.53796 18.8459 7.25671 19.2311 8.10046 19.2311C8.95203 19.2311 9.67859 18.836 10.2723 18.0459C10.8739 17.2558 11.1786 16.1891 11.1786 14.8459Z" fill="white"/>
</svg>
