<svg width="15" height="22" viewBox="0 0 15 22" fill="none" xmlns="http://www.w3.org/2000/svg">
<path d="M8.65063 21.9365C7.23267 21.9365 5.93579 21.5069 4.76001 20.6525C3.58032 19.7982 2.64282 18.5785 1.94751 16.9982C1.26001 15.418 0.91626 13.576 0.91626 11.4674C0.91626 9.34884 1.24829 7.47724 1.91626 5.85748C2.58032 4.22785 3.52954 2.96366 4.76001 2.06489C5.99829 1.17106 7.44751 0.72168 9.10376 0.72168C10.5295 0.72168 11.7991 1.09205 12.9163 1.82785C14.0413 2.55378 14.6038 3.67477 14.6038 5.18588C14.6116 6.13403 14.385 6.9439 13.9163 7.61551C13.4553 8.27724 12.8303 8.60316 12.0413 8.60316C11.7483 8.60316 11.4983 8.53896 11.2913 8.40563C11.0803 8.26242 10.9241 8.09946 10.8225 7.9118C10.717 7.71427 10.6741 7.56612 10.6975 7.45748C10.6975 7.41798 10.8108 7.30933 11.0413 7.12168C11.2795 6.92415 11.4866 6.66242 11.6663 6.33156C11.8538 5.99082 11.9475 5.576 11.9475 5.08711C11.9475 4.13896 11.6897 3.38835 11.1819 2.83526C10.6702 2.2723 9.96704 1.98588 9.07251 1.98588C8.04907 1.98588 7.14282 2.35625 6.35376 3.09205C5.56079 3.81798 4.94751 4.88464 4.51001 6.29205C4.07251 7.68958 3.85376 9.35378 3.85376 11.2896C3.85376 12.9785 4.08813 14.5093 4.55688 15.8921C5.03345 17.2649 5.70532 18.3562 6.57251 19.1711C7.43579 19.9908 8.42407 20.3958 9.54126 20.3958C10.4475 20.3958 11.217 20.1587 11.8538 19.6846C12.4983 19.2106 13.0803 18.4501 13.6038 17.3933C13.6858 17.1958 13.7991 17.097 13.9475 17.097C14.0803 17.097 14.2327 17.1661 14.4006 17.2945C14.6584 17.5217 14.7913 17.7488 14.7913 17.9859C14.7913 18.1192 14.76 18.2229 14.6975 18.3019C14.0608 19.3192 13.4631 20.0797 12.9006 20.5933C12.3459 21.1069 11.7444 21.4525 11.0881 21.6402C10.4397 21.8377 9.6272 21.9365 8.65063 21.9365Z" fill="black"/>
</svg>
