<svg width="18" height="21" viewBox="0 0 18 21" fill="none" xmlns="http://www.w3.org/2000/svg">
<path d="M1.10913 20.4029C0.952881 20.4029 0.8396 20.3338 0.765381 20.2054C0.695069 20.0622 0.656006 19.8992 0.656006 19.7116C0.667725 19.3955 0.7146 19.2079 0.796631 19.1387C0.882568 19.0745 0.976318 19.04 1.09351 19.04C1.21851 19.04 1.29663 19.04 1.32788 19.04C1.82788 19.04 2.19116 18.877 2.42163 18.5462C2.65991 18.2202 2.84741 17.8499 2.98413 17.44C3.12866 17.035 3.22632 16.7585 3.28101 16.6103L7.65601 3.51405C7.74976 3.198 7.79663 2.95109 7.79663 2.76344C7.79663 2.38319 7.67944 2.11158 7.45288 1.95356C7.22241 1.78566 6.89819 1.64739 6.48413 1.53874C6.19116 1.47455 6.01538 1.41035 5.95288 1.34121C5.89038 1.27702 5.85913 1.09924 5.85913 0.80788C5.85913 0.560966 5.90991 0.393065 6.01538 0.314053C6.11694 0.225165 6.28882 0.175781 6.53101 0.175781C7.36304 0.175781 8.02319 0.254794 8.51538 0.412818C9.00366 0.570843 9.42944 0.886892 9.79663 1.36097C10.1716 1.83504 10.5154 2.55603 10.8279 3.51405L15.031 16.6103C15.281 17.4153 15.5193 18.0128 15.7498 18.4079C15.988 18.8029 16.3357 19.0153 16.7966 19.04H16.9529C17.1169 19.04 17.2341 19.0795 17.2966 19.1585C17.3669 19.2276 17.4099 19.4104 17.4216 19.7116C17.4216 19.8992 17.3826 20.0622 17.3123 20.2054C17.238 20.3338 17.1287 20.4029 16.9841 20.4029C15.9099 20.3338 14.9919 20.3042 14.2341 20.3042C13.2341 20.3042 12.1951 20.3338 11.1248 20.4029C10.9763 20.4029 10.863 20.3338 10.781 20.2054C10.7068 20.0622 10.6716 19.8992 10.6716 19.7116C10.6912 19.4104 10.7341 19.2276 10.7966 19.1585C10.8669 19.0795 10.988 19.04 11.156 19.04C11.7185 19.04 12.113 18.9758 12.3435 18.8424C12.5818 18.6992 12.7029 18.4474 12.7029 18.0918C12.7029 17.8153 12.6013 17.3215 12.406 16.6103L11.5466 13.9832H5.37476C4.95679 15.2869 4.71851 16.0474 4.65601 16.2548C4.60132 16.4671 4.57788 16.5857 4.57788 16.6103C4.37866 17.4153 4.28101 17.9289 4.28101 18.1511C4.28101 18.5066 4.40601 18.7437 4.65601 18.8622C4.90601 18.9807 5.37866 19.04 6.07788 19.04H6.23413C6.39819 19.04 6.51538 19.0795 6.57788 19.1585C6.64038 19.2276 6.67944 19.4104 6.70288 19.7116C6.70288 19.8992 6.66382 20.0622 6.59351 20.2054C6.51929 20.3338 6.40601 20.4029 6.24976 20.4029C5.18726 20.3338 4.28101 20.3042 3.53101 20.3042C2.99976 20.3042 2.19116 20.3338 1.10913 20.4029ZM5.85913 12.6202H11.1091L8.57788 4.50171H8.49976L5.85913 12.6202Z" fill="black"/>
</svg>
