<svg width="10" height="12" viewBox="0 0 10 12" fill="none" xmlns="http://www.w3.org/2000/svg">
<path d="M0.174194 5.80648C0.174194 4.65092 0.346069 3.63364 0.689819 2.7645C1.03357 1.89536 1.50232 1.22376 2.09607 0.749685C2.68982 0.275611 3.34998 0.0385742 4.08044 0.0385742C4.70544 0.0385742 5.25232 0.206476 5.72107 0.532401C6.19763 0.848451 6.56482 1.27314 6.81482 1.7966V0.196599H9.54919V11.4361H6.81482V9.8361C6.5531 10.3645 6.18201 10.7941 5.70544 11.1201C5.23669 11.4361 4.68982 11.5941 4.06482 11.5941C3.34607 11.5941 2.68982 11.3571 2.09607 10.883C1.50232 10.4089 1.03357 9.7324 0.689819 8.84845C0.346069 7.96944 0.174194 6.95215 0.174194 5.80648ZM6.81482 5.82623C6.81482 4.95709 6.62732 4.28055 6.25232 3.79166C5.87732 3.2929 5.41638 3.04104 4.87732 3.04104C4.33435 3.04104 3.87732 3.28796 3.50232 3.77191C3.12732 4.2608 2.93982 4.93734 2.93982 5.80648C2.93982 6.66573 3.12732 7.34228 3.50232 7.84104C3.87732 8.34475 4.33435 8.59166 4.87732 8.59166C5.41638 8.59166 5.87732 8.34969 6.25232 7.8608C6.62732 7.36203 6.81482 6.68549 6.81482 5.82623Z" fill="white"/>
</svg>
