<svg width="118" height="113" viewBox="0 0 118 113" fill="none" xmlns="http://www.w3.org/2000/svg">
<path d="M59.9026 112.899C38.8167 112.899 23.301 107.417 13.3557 96.4445C4.55103 86.726 0.152588 73.5013 0.152588 56.7605C0.152588 39.9852 4.55103 26.7358 13.3557 17.0173C23.301 6.04941 38.8167 0.562988 59.9026 0.562988C71.9026 0.562988 81.887 2.27163 89.8557 5.67904C97.8245 9.07657 104.074 13.7185 108.606 19.605C113.145 25.4914 116.246 32.2667 117.903 39.9309H79.637C75.6252 32.9679 69.0471 29.4815 59.9026 29.4815C51.2542 29.4815 44.8909 32.6173 40.8088 38.884C37.5588 43.9408 35.9338 49.9013 35.9338 56.7605C35.9338 63.6247 37.5588 69.5605 40.8088 74.5778C44.8909 80.8346 51.2542 83.9605 59.9026 83.9605C66.8713 83.9605 72.1057 83.2 75.6057 81.6692C79.1135 80.1432 81.6838 78.1531 83.3088 75.7037H69.3401V56.7605H117.903V110.647H103.043L100.012 100.198C90.5432 108.667 77.1721 112.899 59.9026 112.899Z" fill="#008B8B"/>
</svg>
