<svg width="18" height="21" viewBox="0 0 18 21" fill="none" xmlns="http://www.w3.org/2000/svg">
<path d="M1.30469 20.6329C1.14844 20.6329 1.03516 20.5638 0.960938 20.4354C0.890625 20.2922 0.851562 20.1292 0.851562 19.9416C0.863281 19.6255 0.910157 19.4379 0.992188 19.3687C1.07812 19.3045 1.17188 19.27 1.28906 19.27C1.41406 19.27 1.49219 19.27 1.52344 19.27C2.02344 19.27 2.38672 19.107 2.61719 18.7761C2.85547 18.4502 3.04297 18.0798 3.17969 17.67C3.32422 17.265 3.42188 16.9885 3.47656 16.8403L7.85156 3.74403C7.94531 3.42798 7.99219 3.18107 7.99219 2.99342C7.99219 2.61317 7.875 2.34156 7.64844 2.18354C7.41797 2.01564 7.09375 1.87737 6.67969 1.76872C6.38672 1.70453 6.21094 1.64033 6.14844 1.57119C6.08594 1.507 6.05469 1.32922 6.05469 1.03786C6.05469 0.790946 6.10547 0.623046 6.21094 0.544033C6.3125 0.455145 6.48438 0.405762 6.72656 0.405762C7.55859 0.405762 8.21875 0.484774 8.71094 0.642799C9.19922 0.800823 9.625 1.11687 9.99219 1.59095C10.3672 2.06502 10.7109 2.78601 11.0234 3.74403L15.2266 16.8403C15.4766 17.6453 15.7148 18.2428 15.9453 18.6379C16.1836 19.0329 16.5312 19.2453 16.9922 19.27H17.1484C17.3125 19.27 17.4297 19.3095 17.4922 19.3885C17.5625 19.4576 17.6055 19.6403 17.6172 19.9416C17.6172 20.1292 17.5781 20.2922 17.5078 20.4354C17.4336 20.5638 17.3242 20.6329 17.1797 20.6329C16.1055 20.5638 15.1875 20.5342 14.4297 20.5342C13.4297 20.5342 12.3906 20.5638 11.3203 20.6329C11.1719 20.6329 11.0586 20.5638 10.9766 20.4354C10.9023 20.2922 10.8672 20.1292 10.8672 19.9416C10.8867 19.6403 10.9297 19.4576 10.9922 19.3885C11.0625 19.3095 11.1836 19.27 11.3516 19.27C11.9141 19.27 12.3086 19.2058 12.5391 19.0724C12.7773 18.9292 12.8984 18.6774 12.8984 18.3218C12.8984 18.0453 12.7969 17.5514 12.6016 16.8403L11.7422 14.2132H5.57031C5.15234 15.5169 4.91406 16.2774 4.85156 16.4848C4.79688 16.6971 4.77344 16.8156 4.77344 16.8403C4.57422 17.6453 4.47656 18.1588 4.47656 18.3811C4.47656 18.7366 4.60156 18.9737 4.85156 19.0922C5.10156 19.2107 5.57422 19.27 6.27344 19.27H6.42969C6.59375 19.27 6.71094 19.3095 6.77344 19.3885C6.83594 19.4576 6.875 19.6403 6.89844 19.9416C6.89844 20.1292 6.85938 20.2922 6.78906 20.4354C6.71484 20.5638 6.60156 20.6329 6.44531 20.6329C5.38281 20.5638 4.47656 20.5342 3.72656 20.5342C3.19531 20.5342 2.38672 20.5638 1.30469 20.6329ZM6.05469 12.8502H11.3047L8.77344 4.73169H8.69531L6.05469 12.8502Z" fill="black"/>
</svg>
