<svg width="8" height="22" viewBox="0 0 8 22" fill="none" xmlns="http://www.w3.org/2000/svg">
<path d="M1.28931 21.018C1.14087 21.018 1.02759 20.9489 0.945557 20.8205C0.871338 20.6773 0.836182 20.5143 0.836182 20.3267C0.855713 20.0106 0.906495 19.823 0.992432 19.7538C1.08618 19.6897 1.24243 19.6551 1.46118 19.6551C1.94946 19.6551 2.30884 19.5464 2.53931 19.3193C2.76587 19.0971 2.91431 18.8255 2.97681 18.5094C3.04712 18.1934 3.09399 17.7687 3.11743 17.2255V4.68224C3.09399 4.12916 3.04712 3.69459 2.97681 3.37854C2.91431 3.06249 2.76587 2.79582 2.53931 2.56866C2.30884 2.34644 1.94946 2.23286 1.46118 2.23286H1.32056C1.16431 2.23286 1.04712 2.20323 0.976807 2.13409C0.902588 2.05508 0.855713 1.87236 0.836182 1.58101C0.836182 1.38348 0.871338 1.22051 0.945557 1.08718C1.02759 0.958785 1.14087 0.889648 1.28931 0.889648C2.37134 0.94397 3.35962 0.968661 4.25806 0.968661C5.25806 0.968661 6.29712 0.94397 7.38306 0.889648C7.53931 0.889648 7.65259 0.958785 7.72681 1.08718C7.79712 1.22051 7.83618 1.38348 7.83618 1.58101C7.82446 1.89706 7.77368 2.08965 7.67993 2.15385C7.58618 2.20817 7.42212 2.23286 7.19556 2.23286C6.70337 2.23286 6.34009 2.34644 6.10181 2.56866C5.87134 2.79582 5.72681 3.07236 5.66431 3.39829C5.60962 3.72916 5.57837 4.15879 5.57056 4.68224V17.2255C5.57837 17.7538 5.60962 18.1835 5.66431 18.5094C5.72681 18.8255 5.87134 19.0971 6.10181 19.3193C6.34009 19.5464 6.70337 19.6551 7.19556 19.6551H7.33618C7.50025 19.6551 7.62134 19.6946 7.69556 19.7736C7.77759 19.8427 7.82446 20.0255 7.83618 20.3267C7.83618 20.5143 7.79712 20.6773 7.72681 20.8205C7.65259 20.9489 7.53931 21.018 7.38306 21.018C6.32056 20.9489 5.28931 20.9193 4.28931 20.9193C3.37134 20.9193 2.37134 20.9489 1.28931 21.018Z" fill="black"/>
</svg>
