<svg width="8" height="22" viewBox="0 0 8 22" fill="none" xmlns="http://www.w3.org/2000/svg">
<path d="M1.1344 21.018C0.985961 21.018 0.87268 20.9489 0.790649 20.8205C0.71643 20.6773 0.681274 20.5143 0.681274 20.3267C0.700805 20.0106 0.751587 19.823 0.837524 19.7538C0.931274 19.6897 1.08752 19.6551 1.30627 19.6551C1.79456 19.6551 2.15393 19.5464 2.3844 19.3193C2.61096 19.0971 2.7594 18.8255 2.8219 18.5094C2.89221 18.1934 2.93909 17.7687 2.96252 17.2255V4.68224C2.93909 4.12916 2.89221 3.69459 2.8219 3.37854C2.7594 3.06249 2.61096 2.79582 2.3844 2.56866C2.15393 2.34644 1.79456 2.23286 1.30627 2.23286H1.16565C1.0094 2.23286 0.892211 2.20323 0.821899 2.13409C0.74768 2.05508 0.700805 1.87236 0.681274 1.58101C0.681274 1.38348 0.71643 1.22051 0.790649 1.08718C0.87268 0.958785 0.985961 0.889648 1.1344 0.889648C2.21643 0.94397 3.20471 0.968661 4.10315 0.968661C5.10315 0.968661 6.14221 0.94397 7.22815 0.889648C7.3844 0.889648 7.49768 0.958785 7.5719 1.08718C7.64221 1.22051 7.68128 1.38348 7.68128 1.58101C7.66956 1.89706 7.61878 2.08965 7.52503 2.15385C7.43128 2.20817 7.26721 2.23286 7.04065 2.23286C6.54846 2.23286 6.18518 2.34644 5.9469 2.56866C5.71643 2.79582 5.5719 3.07236 5.5094 3.39829C5.45471 3.72916 5.42346 4.15879 5.41565 4.68224V17.2255C5.42346 17.7538 5.45471 18.1835 5.5094 18.5094C5.5719 18.8255 5.71643 19.0971 5.9469 19.3193C6.18518 19.5464 6.54846 19.6551 7.04065 19.6551H7.18128C7.34534 19.6551 7.46643 19.6946 7.54065 19.7736C7.62268 19.8427 7.66956 20.0255 7.68128 20.3267C7.68128 20.5143 7.64221 20.6773 7.5719 20.8205C7.49768 20.9489 7.3844 21.018 7.22815 21.018C6.16565 20.9489 5.1344 20.9193 4.1344 20.9193C3.21643 20.9193 2.21643 20.9489 1.1344 21.018Z" fill="black"/>
</svg>
