<svg width="17" height="21" viewBox="0 0 17 21" fill="none" xmlns="http://www.w3.org/2000/svg">
<path d="M0.681274 20.4028C0.544555 20.4028 0.439086 20.3337 0.368774 20.2053C0.294555 20.0621 0.259399 19.8991 0.259399 19.7115C0.267212 19.3954 0.314086 19.2078 0.400024 19.1386C0.482055 19.0744 0.642212 19.0398 0.884399 19.0398C1.36096 19.0398 1.71643 18.9312 1.9469 18.704C2.18518 18.4818 2.32971 18.2102 2.3844 17.8942C2.4469 17.5682 2.48596 17.1386 2.5094 16.6102V4.06701C2.48596 3.54355 2.4469 3.11392 2.3844 2.78306C2.32971 2.45713 2.18518 2.18059 1.9469 1.95343C1.71643 1.7312 1.36096 1.61762 0.884399 1.61762H0.728149C0.56018 1.61762 0.439086 1.58799 0.368774 1.51886C0.306274 1.43985 0.267212 1.25713 0.259399 0.965772C0.259399 0.768241 0.294555 0.605279 0.368774 0.471945C0.439086 0.343551 0.544555 0.274414 0.681274 0.274414C1.78284 0.328735 2.77502 0.353426 3.65002 0.353426H7.55627C9.15784 0.353426 10.611 0.763303 11.9156 1.57812C13.2281 2.39787 14.2594 3.5633 15.0094 5.07441C15.7672 6.59046 16.15 8.38306 16.15 10.4473C16.15 12.5954 15.7203 14.4127 14.8688 15.8991C14.0133 17.3905 12.9 18.4966 11.525 19.2176C10.15 19.9436 8.67346 20.304 7.10315 20.304H3.65002C2.77502 20.304 1.78284 20.3337 0.681274 20.4028ZM7.47815 19.1386C9.42346 19.1386 10.8531 18.3781 11.7594 16.8473C12.6735 15.3213 13.1344 13.188 13.1344 10.4473C13.1344 8.7238 12.8844 7.18306 12.3844 5.82503C11.8922 4.45713 11.1813 3.3954 10.2438 2.64478C9.31409 1.88429 8.21252 1.49911 6.93127 1.49911L4.97815 1.53861V16.9855C4.97815 17.8053 5.16956 18.3682 5.55627 18.6843C5.95081 18.9905 6.59143 19.1386 7.47815 19.1386Z" fill="black"/>
</svg>
