<svg width="15" height="21" viewBox="0 0 15 21" fill="none" xmlns="http://www.w3.org/2000/svg">
<path d="M4.42139 20.6329C4.27295 20.6329 4.16358 20.5637 4.09326 20.4353C4.01904 20.2921 3.98389 20.1292 3.98389 19.9415C3.9917 19.6255 4.03858 19.4378 4.12451 19.3687C4.20654 19.3045 4.3667 19.2699 4.60889 19.2699C5.08545 19.2699 5.44092 19.1613 5.67139 18.9341C5.90967 18.7119 6.0542 18.4403 6.10889 18.1242C6.17139 17.7983 6.21045 17.3687 6.23389 16.8403V1.76868H4.49951C3.93701 1.7835 3.49951 1.93658 3.18701 2.223C2.88232 2.49955 2.64795 2.92424 2.48389 3.4872C2.32764 4.04029 2.19092 4.84029 2.07764 5.87732C2.0542 6.03535 1.95264 6.16868 1.76514 6.27239C1.58545 6.38103 1.39795 6.43041 1.20264 6.43041C1.0542 6.43041 0.921387 6.38103 0.796387 6.27239C0.671387 6.15387 0.608887 5.99584 0.608887 5.79831L0.671387 1.35387C0.671387 0.840286 0.897949 0.583496 1.35889 0.583496H13.5776C14.0151 0.583496 14.2339 0.840286 14.2339 1.35387L14.3276 5.79831C14.3276 5.99584 14.2573 6.15387 14.1245 6.27239C13.9878 6.38103 13.8472 6.43041 13.7026 6.43041C13.5034 6.43041 13.3159 6.38103 13.1401 6.27239C12.9605 6.16868 12.8667 6.03535 12.8589 5.87732C12.7222 4.82547 12.5776 4.02053 12.4214 3.46745C12.273 2.91436 12.0386 2.49955 11.7183 2.223C11.4058 1.93658 10.9683 1.7835 10.4058 1.76868H8.70264V16.8403C8.72217 17.3687 8.75733 17.7983 8.81201 18.1242C8.87451 18.4403 9.01904 18.7119 9.24951 18.9341C9.48779 19.1613 9.84717 19.2699 10.3276 19.2699H10.4839C10.6284 19.2699 10.7378 19.3094 10.812 19.3884C10.8823 19.4576 10.9292 19.6403 10.9526 19.9415C10.9526 20.1292 10.9136 20.2921 10.8433 20.4353C10.769 20.5637 10.6558 20.6329 10.4995 20.6329C9.43701 20.5637 8.45264 20.5341 7.54639 20.5341C6.54639 20.5341 5.50342 20.5637 4.42139 20.6329Z" fill="black"/>
</svg>
