<svg width="18" height="21" viewBox="0 0 18 21" fill="none" xmlns="http://www.w3.org/2000/svg">
<path d="M1.06226 20.4028C0.906006 20.4028 0.788818 20.3337 0.718506 20.2053C0.644287 20.0621 0.609131 19.8991 0.609131 19.7115C0.616944 19.3954 0.663818 19.2078 0.749756 19.1386C0.831787 19.0744 0.991944 19.0398 1.23413 19.0398C1.71069 19.0398 2.06616 18.9312 2.29663 18.704C2.53491 18.4818 2.67944 18.2102 2.73413 17.8942C2.79663 17.5682 2.83569 17.1386 2.85913 16.6102V4.06701C2.83569 3.54355 2.79663 3.11392 2.73413 2.78306C2.67944 2.45713 2.53491 2.18059 2.29663 1.95343C2.06616 1.7312 1.71069 1.61762 1.23413 1.61762H1.07788C0.909912 1.61762 0.788818 1.58799 0.718506 1.51886C0.656006 1.43985 0.616944 1.25713 0.609131 0.965772C0.609131 0.768241 0.644287 0.605279 0.718506 0.471945C0.788818 0.343551 0.906006 0.274414 1.06226 0.274414C2.14429 0.328735 3.12476 0.353426 3.99976 0.353426C4.99976 0.353426 6.03882 0.328735 7.12476 0.274414C7.28101 0.274414 7.39429 0.343551 7.46851 0.471945C7.53882 0.605279 7.57788 0.768241 7.57788 0.965772C7.56616 1.28182 7.51929 1.47441 7.43726 1.53861C7.35132 1.59293 7.19116 1.61762 6.95288 1.61762C6.47241 1.61762 6.11304 1.7312 5.87476 1.95343C5.64429 2.18059 5.49976 2.45713 5.43726 2.78306C5.38257 3.11392 5.34741 3.54355 5.32788 4.06701V9.65713H13.1873V4.06701C13.1638 3.54355 13.1248 3.11392 13.0623 2.78306C13.0076 2.45713 12.863 2.18059 12.6248 1.95343C12.3943 1.7312 12.0388 1.61762 11.5623 1.61762H11.406C11.238 1.61762 11.1169 1.58799 11.0466 1.51886C10.9724 1.43985 10.9255 1.25713 10.906 0.965772C10.906 0.768241 10.9451 0.605279 11.031 0.471945C11.113 0.343551 11.2224 0.274414 11.3591 0.274414C12.4412 0.328735 13.4841 0.353426 14.4841 0.353426C15.3982 0.353426 16.3904 0.328735 17.4529 0.274414C17.6091 0.274414 17.7224 0.343551 17.7966 0.471945C17.8669 0.605279 17.906 0.768241 17.906 0.965772C17.8826 1.28182 17.8279 1.47441 17.7341 1.53861C17.6482 1.59293 17.4998 1.61762 17.281 1.61762C16.8005 1.61762 16.4373 1.7312 16.1873 1.95343C15.9451 2.18059 15.7966 2.45713 15.7341 2.78306C15.6794 3.11392 15.6443 3.54355 15.6248 4.06701V16.6102C15.6443 17.1386 15.6794 17.5682 15.7341 17.8942C15.7966 18.2102 15.9451 18.4818 16.1873 18.704C16.4373 18.9312 16.8005 19.0398 17.281 19.0398H17.4373C17.5818 19.0398 17.6912 19.0794 17.7654 19.1584C17.8357 19.2275 17.8826 19.4102 17.906 19.7115C17.906 19.8991 17.8669 20.0621 17.7966 20.2053C17.7224 20.3337 17.6091 20.4028 17.4529 20.4028C16.3904 20.3337 15.3904 20.304 14.4529 20.304C13.4724 20.304 12.4412 20.3337 11.3591 20.4028C11.2224 20.4028 11.113 20.3337 11.031 20.2053C10.9451 20.0621 10.906 19.8991 10.906 19.7115C10.9255 19.3954 10.9763 19.2078 11.0623 19.1386C11.156 19.0744 11.3201 19.0398 11.5623 19.0398C12.0388 19.0398 12.3943 18.9312 12.6248 18.704C12.863 18.4818 13.0076 18.2102 13.0623 17.8942C13.1248 17.5682 13.1638 17.1386 13.1873 16.6102V11.0201H5.32788V16.6102C5.34741 17.1386 5.38257 17.5682 5.43726 17.8942C5.49976 18.2102 5.64429 18.4818 5.87476 18.704C6.11304 18.9312 6.47241 19.0398 6.95288 19.0398H7.10913C7.27319 19.0398 7.39038 19.0794 7.45288 19.1584C7.52319 19.2275 7.56616 19.4102 7.57788 19.7115C7.57788 19.8991 7.53882 20.0621 7.46851 20.2053C7.39429 20.3337 7.28101 20.4028 7.12476 20.4028C6.06226 20.3337 5.03101 20.304 4.03101 20.304C3.13257 20.304 2.14429 20.3337 1.06226 20.4028Z" fill="black"/>
</svg>
