<svg width="10" height="12" viewBox="0 0 10 12" fill="none" xmlns="http://www.w3.org/2000/svg">
<path d="M6.34668 0.078125C7.37793 0.078125 8.20605 0.507755 8.83105 1.36208C9.45605 2.22134 9.76855 3.39171 9.76855 4.87812V11.4361H7.0498V5.33245C7.0498 4.58183 6.89355 4.00405 6.58105 3.59417C6.27637 3.17442 5.86621 2.96208 5.34668 2.96208C4.83496 2.96208 4.4248 3.17442 4.1123 3.59417C3.7998 4.00405 3.64355 4.58183 3.64355 5.33245V11.4361H0.924805V0.196644H3.64355V1.69788C3.9248 1.19911 4.2998 0.804051 4.76855 0.512693C5.2373 0.226272 5.76074 0.078125 6.34668 0.078125Z" fill="white"/>
</svg>
