<svg width="18" height="21" viewBox="0 0 18 21" fill="none" xmlns="http://www.w3.org/2000/svg">
<path d="M1.40417 20.6329C1.25574 20.6329 1.14246 20.5638 1.06042 20.4354C0.986206 20.2922 0.95105 20.1292 0.95105 19.9416C0.970581 19.6255 1.02136 19.4379 1.1073 19.3687C1.18933 19.3045 1.34558 19.27 1.57605 19.27C2.06433 19.27 2.4198 19.1613 2.63855 18.9342C2.86511 18.7119 3.00574 18.4502 3.06042 18.144C3.11121 17.8428 3.14246 17.4082 3.15417 16.8403L3.20105 4.29712C3.20105 3.66502 3.14636 3.18601 3.0448 2.85514C2.93933 2.52922 2.76746 2.29218 2.52917 2.14403C2.29871 2.00082 1.96667 1.87737 1.52917 1.76872C1.24792 1.70453 1.06824 1.64033 0.997925 1.57119C0.935425 1.507 0.904175 1.32922 0.904175 1.03786C0.904175 0.790946 0.954956 0.623046 1.06042 0.544033C1.17371 0.455145 1.34558 0.405762 1.57605 0.405762C2.61511 0.405762 3.43542 0.499589 4.02917 0.682305C4.63074 0.855145 5.16199 1.17119 5.62292 1.63045C6.07996 2.09465 6.58386 2.79589 7.13855 3.74403L13.9823 15.1218H14.0604L14.0135 4.29712C13.9901 3.71934 13.955 3.27984 13.9042 2.97366C13.8495 2.67243 13.7089 2.4107 13.4823 2.18354C13.2635 1.96132 12.912 1.84774 12.4354 1.84774H12.2792C12.1112 1.84774 11.9901 1.81811 11.9198 1.74897C11.8456 1.66996 11.7987 1.48724 11.7792 1.19589C11.7792 0.998354 11.8182 0.835392 11.9042 0.702058C11.9862 0.573664 12.0956 0.504527 12.2323 0.504527C13.2948 0.558848 14.0956 0.58354 14.6385 0.58354C14.951 0.58354 15.5526 0.563786 16.451 0.52428L16.9823 0.504527C17.1268 0.504527 17.2362 0.573664 17.3104 0.702058C17.3925 0.835392 17.4354 0.998354 17.4354 1.19589C17.412 1.51193 17.3612 1.70453 17.2792 1.76872C17.1932 1.82305 17.037 1.84774 16.8104 1.84774C16.3182 1.84774 15.9589 1.96132 15.7323 2.18354C15.5135 2.4107 15.3768 2.67243 15.326 2.97366C15.2831 3.27984 15.2518 3.71934 15.2323 4.29712L15.1854 20.2181C15.162 20.4947 14.955 20.6329 14.5604 20.6329C14.2362 20.6329 13.9901 20.4947 13.826 20.2181L4.40417 4.29712H4.32605L4.38855 16.8403C4.39636 17.4082 4.42761 17.8428 4.4823 18.144C4.53308 18.4502 4.6698 18.7119 4.88855 18.9342C5.11511 19.1613 5.47058 19.27 5.95105 19.27H6.1073C6.27136 19.27 6.39246 19.3095 6.46667 19.3885C6.53699 19.4576 6.58386 19.6403 6.6073 19.9416C6.6073 20.1292 6.56824 20.2922 6.49792 20.4354C6.42371 20.5638 6.31042 20.6329 6.15417 20.6329C5.09167 20.5638 4.28308 20.5342 3.7323 20.5342C3.39636 20.5342 2.81433 20.5539 1.9823 20.5934L1.40417 20.6329Z" fill="black"/>
</svg>
