<svg width="17" height="21" viewBox="0 0 17 21" fill="none" xmlns="http://www.w3.org/2000/svg">
<path d="M1.17542 20.6328C1.01917 20.6328 0.901977 20.5637 0.831665 20.4353C0.757446 20.2921 0.72229 20.1291 0.72229 19.9414C0.730103 19.6254 0.776977 19.4377 0.862915 19.3686C0.944946 19.3044 1.1051 19.2698 1.34729 19.2698C1.82385 19.2698 2.17932 19.1612 2.40979 18.934C2.64807 18.7118 2.7926 18.4402 2.84729 18.1241C2.90979 17.7982 2.94885 17.3686 2.97229 16.8402V4.31674C2.94885 3.77847 2.90979 3.34884 2.84729 3.03279C2.7926 2.71674 2.64807 2.4402 2.40979 2.20316C2.17932 1.96612 1.82385 1.8476 1.34729 1.8476H1.19104C1.02307 1.8476 0.901977 1.81797 0.831665 1.74884C0.769165 1.66983 0.730103 1.48711 0.72229 1.19575C0.72229 0.998222 0.757446 0.835259 0.831665 0.701925C0.901977 0.573531 1.01917 0.504395 1.17542 0.504395C2.25745 0.558716 3.24573 0.583407 4.14417 0.583407H8.44104C9.72229 0.613037 10.7887 0.874765 11.6442 1.37353C12.5074 1.86242 13.1364 2.49452 13.5348 3.26983C13.941 4.03526 14.1442 4.85995 14.1442 5.73896C14.1442 6.89946 13.777 7.96612 13.0504 8.93896C12.3317 9.90193 11.3473 10.5933 10.0973 11.013L10.5192 11.8822C11.2145 13.3044 11.8473 14.5291 12.4098 15.5562C12.9801 16.5834 13.6012 17.5414 14.2692 18.4204C14.7379 18.9093 15.2379 19.1908 15.7692 19.2698C15.8004 19.2698 15.8707 19.2797 15.9879 19.2896C16.1129 19.3044 16.2106 19.3637 16.2848 19.4674C16.3551 19.576 16.3942 19.734 16.3942 19.9414C16.3942 20.1291 16.3551 20.2921 16.2848 20.4353C16.2106 20.5637 16.0973 20.6328 15.941 20.6328L15.3004 20.5933C14.5582 20.5538 14.0231 20.534 13.691 20.534C13.0231 20.3661 12.4489 20.0698 11.9723 19.6451C11.5035 19.2106 11.0348 18.5933 10.566 17.7883C10.0856 16.9883 9.4137 15.6748 8.55042 13.8575L8.09729 12.9488C7.84729 12.4649 7.6012 12.134 7.36292 11.9612C7.13245 11.7785 6.73792 11.6846 6.17542 11.6846H5.44104V16.8402C5.46057 17.3686 5.49573 17.7982 5.55042 18.1241C5.61292 18.4402 5.75745 18.7118 5.98792 18.934C6.2262 19.1612 6.58557 19.2698 7.06604 19.2698H7.22229C7.36682 19.2698 7.4762 19.3093 7.55042 19.3883C7.63245 19.4575 7.67932 19.6402 7.69104 19.9414C7.69104 20.1291 7.65198 20.2921 7.58167 20.4353C7.50745 20.5637 7.39417 20.6328 7.23792 20.6328C6.17542 20.5637 5.13245 20.534 4.11292 20.534C3.23792 20.534 2.25745 20.5637 1.17542 20.6328ZM7.64417 10.46C10.1207 10.46 11.3629 8.98835 11.3629 6.03526C11.3629 4.82538 11.0387 3.81304 10.3942 2.99328C9.74573 2.17847 8.67932 1.76859 7.19104 1.76859C6.71057 1.76859 6.34729 1.84267 6.09729 1.98588C5.84729 2.13402 5.67542 2.38094 5.58167 2.73649C5.48792 3.09205 5.44104 3.6402 5.44104 4.376V10.46H7.64417Z" fill="black"/>
</svg>
