<svg width="19" height="21" viewBox="0 0 19 21" fill="none" xmlns="http://www.w3.org/2000/svg">
<path d="M1.25781 20.6328C1.10156 20.6328 0.984374 20.5637 0.914062 20.4353C0.839843 20.2921 0.804688 20.1291 0.804688 19.9414C0.812501 19.6254 0.859375 19.4377 0.945312 19.3686C1.02734 19.3044 1.1875 19.2698 1.42969 19.2698C1.90625 19.2698 2.26172 19.1612 2.49219 18.934C2.73047 18.7118 2.875 18.4402 2.92969 18.1241C2.99219 17.7982 3.03125 17.3686 3.05469 16.8402V4.29699C3.03125 3.77353 2.99219 3.3439 2.92969 3.01304C2.875 2.68711 2.73047 2.41057 2.49219 2.18341C2.26172 1.96119 1.90625 1.8476 1.42969 1.8476H1.27344C1.10547 1.8476 0.984374 1.81797 0.914062 1.74884C0.851562 1.66983 0.812501 1.48711 0.804688 1.19575C0.804688 0.998222 0.839843 0.835259 0.914062 0.701925C0.984374 0.573531 1.10156 0.504395 1.25781 0.504395C2.33984 0.558716 3.32031 0.583407 4.19531 0.583407C5.19531 0.583407 6.23437 0.558716 7.32031 0.504395C7.47656 0.504395 7.58984 0.573531 7.66406 0.701925C7.73437 0.835259 7.77344 0.998222 7.77344 1.19575C7.76172 1.5118 7.71484 1.7044 7.63281 1.76859C7.54687 1.82291 7.38672 1.8476 7.14844 1.8476C6.66797 1.8476 6.30859 1.96119 6.07031 2.18341C5.83984 2.41057 5.69531 2.68711 5.63281 3.01304C5.57812 3.3439 5.54297 3.77353 5.52344 4.29699V9.88711H13.3828V4.29699C13.3594 3.77353 13.3203 3.3439 13.2578 3.01304C13.2031 2.68711 13.0586 2.41057 12.8203 2.18341C12.5898 1.96119 12.2344 1.8476 11.7578 1.8476H11.6016C11.4336 1.8476 11.3125 1.81797 11.2422 1.74884C11.168 1.66983 11.1211 1.48711 11.1016 1.19575C11.1016 0.998222 11.1406 0.835259 11.2266 0.701925C11.3086 0.573531 11.418 0.504395 11.5547 0.504395C12.6367 0.558716 13.6797 0.583407 14.6797 0.583407C15.5938 0.583407 16.5859 0.558716 17.6484 0.504395C17.8047 0.504395 17.918 0.573531 17.9922 0.701925C18.0625 0.835259 18.1016 0.998222 18.1016 1.19575C18.0781 1.5118 18.0234 1.7044 17.9297 1.76859C17.8438 1.82291 17.6953 1.8476 17.4766 1.8476C16.9961 1.8476 16.6328 1.96119 16.3828 2.18341C16.1406 2.41057 15.9922 2.68711 15.9297 3.01304C15.875 3.3439 15.8398 3.77353 15.8203 4.29699V16.8402C15.8398 17.3686 15.875 17.7982 15.9297 18.1241C15.9922 18.4402 16.1406 18.7118 16.3828 18.934C16.6328 19.1612 16.9961 19.2698 17.4766 19.2698H17.6328C17.7773 19.2698 17.8867 19.3093 17.9609 19.3883C18.0312 19.4575 18.0781 19.6402 18.1016 19.9414C18.1016 20.1291 18.0625 20.2921 17.9922 20.4353C17.918 20.5637 17.8047 20.6328 17.6484 20.6328C16.5859 20.5637 15.5859 20.534 14.6484 20.534C13.668 20.534 12.6367 20.5637 11.5547 20.6328C11.418 20.6328 11.3086 20.5637 11.2266 20.4353C11.1406 20.2921 11.1016 20.1291 11.1016 19.9414C11.1211 19.6254 11.1719 19.4377 11.2578 19.3686C11.3516 19.3044 11.5156 19.2698 11.7578 19.2698C12.2344 19.2698 12.5898 19.1612 12.8203 18.934C13.0586 18.7118 13.2031 18.4402 13.2578 18.1241C13.3203 17.7982 13.3594 17.3686 13.3828 16.8402V11.2501H5.52344V16.8402C5.54297 17.3686 5.57812 17.7982 5.63281 18.1241C5.69531 18.4402 5.83984 18.7118 6.07031 18.934C6.30859 19.1612 6.66797 19.2698 7.14844 19.2698H7.30469C7.46875 19.2698 7.58594 19.3093 7.64844 19.3883C7.71875 19.4575 7.76172 19.6402 7.77344 19.9414C7.77344 20.1291 7.73437 20.2921 7.66406 20.4353C7.58984 20.5637 7.47656 20.6328 7.32031 20.6328C6.25781 20.5637 5.22656 20.534 4.22656 20.534C3.32812 20.534 2.33984 20.5637 1.25781 20.6328Z" fill="black"/>
</svg>
