<svg width="10" height="12" viewBox="0 0 10 12" fill="none" xmlns="http://www.w3.org/2000/svg">
<path d="M9.09729 0.196777V11.4363H6.36292V9.9153C6.08948 10.4042 5.71448 10.7992 5.23792 11.1005C4.76917 11.4067 4.24573 11.5548 3.67542 11.5548C2.99573 11.5548 2.39807 11.3671 1.87854 10.982C1.3551 10.6017 0.948853 10.0486 0.65979 9.3227C0.37854 8.60171 0.237915 7.75233 0.237915 6.77455V0.196777H2.94104V6.30048C2.94104 7.0511 3.08948 7.63875 3.39417 8.05851C3.70667 8.46838 4.12073 8.67085 4.64417 8.67085C5.17542 8.67085 5.58948 8.46838 5.89417 8.05851C6.20667 7.63875 6.36292 7.0511 6.36292 6.30048V0.196777H9.09729Z" fill="white"/>
</svg>
