<svg width="17" height="21" viewBox="0 0 17 21" fill="none" xmlns="http://www.w3.org/2000/svg">
<path d="M5.19922 20.6327C5.05078 20.6327 4.9375 20.5636 4.85547 20.4352C4.78125 20.292 4.74609 20.129 4.74609 19.9413C4.76563 19.6253 4.81641 19.4376 4.90234 19.3685C4.99609 19.3043 5.15234 19.2697 5.37109 19.2697C5.85938 19.2697 6.21875 19.1611 6.44922 18.9339C6.67578 18.7117 6.82422 18.4401 6.88672 18.1241C6.94922 17.7981 6.98438 17.3685 6.99609 16.8401V12.8895C6.99609 12.5487 6.58203 11.3241 5.76172 9.21542C4.9375 7.0969 4.26563 5.44258 3.74609 4.25739C3.41016 3.4969 3.04297 2.929 2.63672 2.55863C2.23828 2.19319 1.75 1.9364 1.16797 1.78826C1.10547 1.77838 1.00391 1.75863 0.871094 1.729C0.734375 1.68949 0.644531 1.62529 0.605469 1.53147C0.5625 1.42776 0.542969 1.26974 0.542969 1.05739C0.542969 0.810479 0.59375 0.642577 0.699219 0.563565C0.8125 0.474675 0.988281 0.425293 1.23047 0.425293C2.5625 0.425293 3.60547 0.657392 4.35547 1.11665C5.10547 1.56603 5.76953 2.43517 6.35547 3.72406C6.63672 4.42529 7.02734 5.42282 7.52734 6.72653C8.25391 8.58332 8.73828 9.78332 8.98047 10.3216H9.04297L11.8242 3.40801C11.9688 2.98826 12.043 2.67714 12.043 2.47961C12.043 2.2327 11.9375 2.0648 11.7305 1.98579C11.5195 1.8969 11.1875 1.84752 10.7305 1.84752H10.5742C10.4063 1.84752 10.2852 1.81788 10.2148 1.74875C10.1523 1.66974 10.1133 1.48702 10.1055 1.19566C10.1055 0.998132 10.1406 0.83517 10.2148 0.701836C10.2852 0.573442 10.3906 0.504305 10.5273 0.504305C11.6094 0.558627 12.5156 0.583318 13.2461 0.583318C13.8594 0.583318 14.7031 0.558627 15.7773 0.504305C15.9219 0.504305 16.0313 0.573442 16.1055 0.701836C16.1875 0.83517 16.2305 0.998132 16.2305 1.19566C16.207 1.48702 16.1602 1.66974 16.0898 1.74875C16.0273 1.81788 15.9102 1.84752 15.7461 1.84752C15.0664 1.84752 14.5195 2.01542 14.1055 2.34134C13.6875 2.67221 13.3125 3.22529 12.9805 4.0006L10.1523 10.7364C10.0977 10.8697 9.99609 11.1315 9.83984 11.5265C9.69141 11.9117 9.59375 12.2673 9.54297 12.5932C9.5 12.9092 9.48047 13.3043 9.48047 13.7784V16.8401C9.48828 17.3685 9.51953 17.7981 9.57422 18.1241C9.63672 18.4401 9.78125 18.7117 10.0117 18.9339C10.25 19.1611 10.6133 19.2697 11.1055 19.2697H11.2461C11.4102 19.2697 11.5273 19.3092 11.5898 19.3883C11.6602 19.4574 11.707 19.6401 11.7305 19.9413C11.7305 20.129 11.6875 20.292 11.6055 20.4352C11.5313 20.5636 11.4258 20.6327 11.293 20.6327C10.2305 20.5636 9.23047 20.5339 8.29297 20.5339C7.3125 20.5339 6.28125 20.5636 5.19922 20.6327Z" fill="black"/>
</svg>
