<svg width="14" height="22" viewBox="0 0 14 22" fill="none" xmlns="http://www.w3.org/2000/svg">
<path d="M1.21448 21.018C1.07776 21.018 0.97229 20.9489 0.901978 20.8205C0.827759 20.6773 0.792603 20.5143 0.792603 20.3267C0.800416 20.0106 0.84729 19.823 0.933228 19.7538C1.01526 19.6897 1.17542 19.6551 1.4176 19.6551C1.89417 19.6551 2.24963 19.5464 2.4801 19.3193C2.71838 19.0971 2.86292 18.8255 2.9176 18.5094C2.9801 18.1835 3.01917 17.7538 3.0426 17.2255V4.68224C3.01917 4.15879 2.9801 3.72916 2.9176 3.39829C2.86292 3.07236 2.71838 2.79582 2.4801 2.56866C2.24963 2.34644 1.89417 2.23286 1.4176 2.23286H1.26135C1.09338 2.23286 0.97229 2.20323 0.901978 2.13409C0.839478 2.05508 0.800416 1.87236 0.792603 1.58101C0.792603 1.38348 0.827759 1.22051 0.901978 1.08718C0.97229 0.958785 1.07776 0.889648 1.21448 0.889648C2.31604 0.94397 3.30823 0.968661 4.18323 0.968661H12.0426C12.4684 0.968661 12.6832 1.22545 12.6832 1.73903L12.7614 6.16372C12.7614 6.35138 12.6832 6.49953 12.527 6.61804C12.3785 6.73656 12.234 6.79582 12.0895 6.79582C11.8903 6.79582 11.7145 6.75138 11.5582 6.65755C11.4098 6.55385 11.3278 6.41064 11.3082 6.22298C11.1832 5.19582 11.0348 4.41557 10.8707 3.87236C10.7145 3.33409 10.4801 2.93409 10.1676 2.66743C9.86292 2.4057 9.43323 2.26249 8.87073 2.23286H5.51135V10.2724H10.0426C10.1559 10.2872 10.2457 10.3662 10.3082 10.5094C10.3785 10.6427 10.4176 10.8057 10.4176 11.0032C10.4176 11.1613 10.3785 11.3094 10.3082 11.4378C10.2457 11.5711 10.1559 11.6353 10.0426 11.6353H5.51135V17.6008C5.5426 18.0501 5.58167 18.4057 5.63635 18.6674C5.68713 18.9341 5.83948 19.1711 6.08948 19.3785C6.33948 19.5909 6.7301 19.6847 7.26135 19.6551H9.55823C10.1403 19.6304 10.5817 19.5119 10.8864 19.2995C11.1871 19.0773 11.4254 18.7366 11.6051 18.2724C11.7809 17.7983 11.9957 17.0378 12.2457 15.981C12.359 15.6156 12.6403 15.4674 13.0895 15.5464C13.2535 15.5859 13.402 15.6748 13.527 15.8032C13.652 15.9217 13.7028 16.0798 13.6832 16.2773L13.1832 20.2477C13.1403 20.5242 13.066 20.7119 12.9645 20.8008C12.859 20.8798 12.691 20.9193 12.4645 20.9193H4.21448C3.31604 20.9193 2.31604 20.9489 1.21448 21.018Z" fill="black"/>
</svg>
