<svg width="17" height="21" viewBox="0 0 17 21" fill="none" xmlns="http://www.w3.org/2000/svg">
<path d="M0.644165 20.4029C0.495728 20.4029 0.382446 20.3338 0.300415 20.2054C0.226196 20.0622 0.19104 19.8992 0.19104 19.7116C0.210571 19.3955 0.261352 19.2079 0.34729 19.1387C0.429321 19.0745 0.585571 19.04 0.81604 19.04C1.30432 19.04 1.65979 18.9313 1.87854 18.7042C2.1051 18.482 2.24573 18.2202 2.30042 17.9141C2.3512 17.6128 2.38245 17.1783 2.39417 16.6103L2.44104 4.06714C2.44104 3.43504 2.38635 2.95603 2.28479 2.62516C2.17932 2.29924 2.00745 2.0622 1.76917 1.91405C1.5387 1.77084 1.20667 1.64739 0.769165 1.53874C0.487915 1.47455 0.308228 1.41035 0.237915 1.34121C0.175415 1.27702 0.144165 1.09924 0.144165 0.80788C0.144165 0.560966 0.194946 0.393065 0.300415 0.314053C0.413696 0.225165 0.585571 0.175781 0.81604 0.175781C1.8551 0.175781 2.67542 0.269609 3.26917 0.452324C3.87073 0.625164 4.40198 0.941214 4.86292 1.40047C5.31995 1.86467 5.82385 2.5659 6.37854 3.51405L13.2223 14.8918H13.3004L13.2535 4.06714C13.2301 3.48936 13.1949 3.04985 13.1442 2.74368C13.0895 2.44245 12.9489 2.18072 12.7223 1.95356C12.5035 1.73134 12.152 1.61776 11.6754 1.61776H11.5192C11.3512 1.61776 11.2301 1.58813 11.1598 1.51899C11.0856 1.43998 11.0387 1.25726 11.0192 0.965905C11.0192 0.768374 11.0582 0.605411 11.1442 0.472078C11.2262 0.343683 11.3356 0.274547 11.4723 0.274547C12.5348 0.328868 13.3356 0.353559 13.8785 0.353559C14.191 0.353559 14.7926 0.333806 15.691 0.2943L16.2223 0.274547C16.3668 0.274547 16.4762 0.343683 16.5504 0.472078C16.6324 0.605411 16.6754 0.768374 16.6754 0.965905C16.652 1.28195 16.6012 1.47455 16.5192 1.53874C16.4332 1.59307 16.277 1.61776 16.0504 1.61776C15.5582 1.61776 15.1989 1.73134 14.9723 1.95356C14.7535 2.18072 14.6168 2.44245 14.566 2.74368C14.5231 3.04985 14.4918 3.48936 14.4723 4.06714L14.4254 19.9881C14.402 20.2647 14.1949 20.4029 13.8004 20.4029C13.4762 20.4029 13.2301 20.2647 13.066 19.9881L3.64417 4.06714H3.56604L3.62854 16.6103C3.63635 17.1783 3.6676 17.6128 3.72229 17.9141C3.77307 18.2202 3.90979 18.482 4.12854 18.7042C4.3551 18.9313 4.71057 19.04 5.19104 19.04H5.34729C5.51135 19.04 5.63245 19.0795 5.70667 19.1585C5.77698 19.2276 5.82385 19.4104 5.84729 19.7116C5.84729 19.8992 5.80823 20.0622 5.73792 20.2054C5.6637 20.3338 5.55042 20.4029 5.39417 20.4029C4.33167 20.3338 3.52307 20.3042 2.97229 20.3042C2.63635 20.3042 2.05432 20.3239 1.22229 20.3634L0.644165 20.4029Z" fill="black"/>
</svg>
