<svg width="18" height="21" viewBox="0 0 18 21" fill="none" xmlns="http://www.w3.org/2000/svg">
<path d="M1.13354 20.4029C0.985108 20.4029 0.871826 20.3338 0.789795 20.2054C0.715576 20.0622 0.68042 19.8992 0.68042 19.7116C0.699951 19.3955 0.750732 19.2079 0.83667 19.1387C0.918701 19.0745 1.07495 19.04 1.30542 19.04C1.7937 19.04 2.14917 18.9313 2.36792 18.7042C2.59448 18.482 2.73511 18.2202 2.78979 17.9141C2.84058 17.6128 2.87183 17.1783 2.88354 16.6103L2.93042 4.06714C2.93042 3.43504 2.87573 2.95603 2.77417 2.62516C2.6687 2.29924 2.49683 2.0622 2.25854 1.91405C2.02808 1.77084 1.69604 1.64739 1.25854 1.53874C0.977295 1.47455 0.797608 1.41035 0.727295 1.34121C0.664795 1.27702 0.633545 1.09924 0.633545 0.80788C0.633545 0.560966 0.684326 0.393065 0.789795 0.314053C0.903076 0.225165 1.07495 0.175781 1.30542 0.175781C2.34448 0.175781 3.16479 0.269609 3.75854 0.452324C4.36011 0.625164 4.89136 0.941214 5.35229 1.40047C5.80933 1.86467 6.31323 2.5659 6.86792 3.51405L13.7117 14.8918H13.7898L13.7429 4.06714C13.7195 3.48936 13.6843 3.04985 13.6335 2.74368C13.5789 2.44245 13.4382 2.18072 13.2117 1.95356C12.9929 1.73134 12.6414 1.61776 12.1648 1.61776H12.0085C11.8406 1.61776 11.7195 1.58813 11.6492 1.51899C11.575 1.43998 11.5281 1.25726 11.5085 0.965905C11.5085 0.768374 11.5476 0.605411 11.6335 0.472078C11.7156 0.343683 11.825 0.274547 11.9617 0.274547C13.0242 0.328868 13.825 0.353559 14.3679 0.353559C14.6804 0.353559 15.282 0.333806 16.1804 0.2943L16.7117 0.274547C16.8562 0.274547 16.9656 0.343683 17.0398 0.472078C17.1218 0.605411 17.1648 0.768374 17.1648 0.965905C17.1414 1.28195 17.0906 1.47455 17.0085 1.53874C16.9226 1.59307 16.7664 1.61776 16.5398 1.61776C16.0476 1.61776 15.6882 1.73134 15.4617 1.95356C15.2429 2.18072 15.1062 2.44245 15.0554 2.74368C15.0125 3.04985 14.9812 3.48936 14.9617 4.06714L14.9148 19.9881C14.8914 20.2647 14.6843 20.4029 14.2898 20.4029C13.9656 20.4029 13.7195 20.2647 13.5554 19.9881L4.13354 4.06714H4.05542L4.11792 16.6103C4.12573 17.1783 4.15698 17.6128 4.21167 17.9141C4.26245 18.2202 4.39917 18.482 4.61792 18.7042C4.84448 18.9313 5.19995 19.04 5.68042 19.04H5.83667C6.00073 19.04 6.12183 19.0795 6.19604 19.1585C6.26636 19.2276 6.31323 19.4104 6.33667 19.7116C6.33667 19.8992 6.29761 20.0622 6.22729 20.2054C6.15308 20.3338 6.03979 20.4029 5.88354 20.4029C4.82104 20.3338 4.01245 20.3042 3.46167 20.3042C3.12573 20.3042 2.5437 20.3239 1.71167 20.3634L1.13354 20.4029Z" fill="black"/>
</svg>
