<svg width="17" height="21" viewBox="0 0 17 21" fill="none" xmlns="http://www.w3.org/2000/svg">
<path d="M0.911987 20.2477C0.76355 20.2477 0.650268 20.1785 0.568237 20.0501C0.494018 19.9069 0.458862 19.744 0.458862 19.5563C0.478393 19.2403 0.529174 19.0526 0.615112 18.9835C0.697143 18.9193 0.853393 18.8847 1.08386 18.8847C1.57214 18.8847 1.92761 18.7761 2.14636 18.5489C2.37292 18.3267 2.51355 18.065 2.56824 17.7588C2.61902 17.4575 2.65027 17.023 2.66199 16.4551L2.70886 3.91187C2.70886 3.27977 2.65417 2.80076 2.55261 2.46989C2.44714 2.14396 2.27527 1.90693 2.03699 1.75878C1.80652 1.61557 1.47449 1.49211 1.03699 1.38347C0.755737 1.31927 0.57605 1.25508 0.505737 1.18594C0.443237 1.12174 0.411987 0.943965 0.411987 0.652607C0.411987 0.405692 0.462768 0.237792 0.568237 0.158779C0.681518 0.0698912 0.853393 0.0205078 1.08386 0.0205078C2.12292 0.0205078 2.94324 0.114335 3.53699 0.297051C4.13855 0.469891 4.6698 0.78594 5.13074 1.2452C5.58777 1.7094 6.09167 2.41063 6.64636 3.35878L13.4901 14.7366H13.5682L13.5214 3.91187C13.4979 3.33409 13.4628 2.89458 13.412 2.58841C13.3573 2.28717 13.2167 2.02545 12.9901 1.79829C12.7714 1.57606 12.4198 1.46248 11.9432 1.46248H11.787C11.619 1.46248 11.4979 1.43285 11.4276 1.36372C11.3534 1.28471 11.3065 1.10199 11.287 0.810631C11.287 0.6131 11.3261 0.450138 11.412 0.316804C11.494 0.18841 11.6034 0.119273 11.7401 0.119273C12.8026 0.173595 13.6034 0.198286 14.1464 0.198286C14.4589 0.198286 15.0604 0.178533 15.9589 0.139026L16.4901 0.119273C16.6346 0.119273 16.744 0.18841 16.8182 0.316804C16.9003 0.450138 16.9432 0.6131 16.9432 0.810631C16.9198 1.12668 16.869 1.31927 16.787 1.38347C16.701 1.43779 16.5448 1.46248 16.3182 1.46248C15.8261 1.46248 15.4667 1.57606 15.2401 1.79829C15.0214 2.02545 14.8846 2.28717 14.8339 2.58841C14.7909 2.89458 14.7596 3.33409 14.7401 3.91187L14.6932 19.8329C14.6698 20.1094 14.4628 20.2477 14.0682 20.2477C13.744 20.2477 13.4979 20.1094 13.3339 19.8329L3.91199 3.91187H3.83386L3.89636 16.4551C3.90417 17.023 3.93542 17.4575 3.99011 17.7588C4.04089 18.065 4.17761 18.3267 4.39636 18.5489C4.62292 18.7761 4.97839 18.8847 5.45886 18.8847H5.61511C5.77917 18.8847 5.90027 18.9242 5.97449 19.0032C6.0448 19.0724 6.09167 19.2551 6.11511 19.5563C6.11511 19.744 6.07605 19.9069 6.00574 20.0501C5.93152 20.1785 5.81824 20.2477 5.66199 20.2477C4.59949 20.1785 3.79089 20.1489 3.24011 20.1489C2.90417 20.1489 2.32214 20.1687 1.49011 20.2082L0.911987 20.2477Z" fill="black"/>
</svg>
