<svg width="14" height="22" viewBox="0 0 14 22" fill="none" xmlns="http://www.w3.org/2000/svg">
<path d="M0.650635 21.018C0.513916 21.018 0.408447 20.9489 0.338135 20.8205C0.263916 20.6773 0.22876 20.5143 0.22876 20.3267C0.236573 20.0106 0.283447 19.823 0.369385 19.7538C0.451416 19.6897 0.611573 19.6551 0.85376 19.6551C1.33032 19.6551 1.68579 19.5464 1.91626 19.3193C2.15454 19.0971 2.29907 18.8255 2.35376 18.5094C2.41626 18.1835 2.45532 17.7538 2.47876 17.2255V4.68224C2.45532 4.15879 2.41626 3.72916 2.35376 3.39829C2.29907 3.07236 2.15454 2.79582 1.91626 2.56866C1.68579 2.34644 1.33032 2.23286 0.85376 2.23286H0.69751C0.529541 2.23286 0.408447 2.20323 0.338135 2.13409C0.275635 2.05508 0.236573 1.87236 0.22876 1.58101C0.22876 1.38348 0.263916 1.22051 0.338135 1.08718C0.408447 0.958785 0.513916 0.889648 0.650635 0.889648C1.7522 0.94397 2.74439 0.968661 3.61939 0.968661H11.4788C11.9045 0.968661 12.1194 1.22545 12.1194 1.73903L12.1975 6.16372C12.1975 6.35138 12.1194 6.49953 11.9631 6.61804C11.8147 6.73656 11.6702 6.79582 11.5256 6.79582C11.3264 6.79582 11.1506 6.75138 10.9944 6.65755C10.8459 6.55385 10.7639 6.41064 10.7444 6.22298C10.6194 5.19582 10.4709 4.41557 10.3069 3.87236C10.1506 3.33409 9.91626 2.93409 9.60376 2.66743C9.29907 2.4057 8.86939 2.26249 8.30689 2.23286H4.94751V10.2724H9.47876C9.59204 10.2872 9.68189 10.3662 9.74439 10.5094C9.8147 10.6427 9.85376 10.8057 9.85376 11.0032C9.85376 11.1613 9.8147 11.3094 9.74439 11.4378C9.68189 11.5711 9.59204 11.6353 9.47876 11.6353H4.94751V17.6008C4.97876 18.0501 5.01782 18.4057 5.07251 18.6674C5.12329 18.9341 5.27564 19.1711 5.52564 19.3785C5.77564 19.5909 6.16626 19.6847 6.69751 19.6551H8.99439C9.57642 19.6304 10.0178 19.5119 10.3225 19.2995C10.6233 19.0773 10.8616 18.7366 11.0413 18.2724C11.217 17.7983 11.4319 17.0378 11.6819 15.981C11.7952 15.6156 12.0764 15.4674 12.5256 15.5464C12.6897 15.5859 12.8381 15.6748 12.9631 15.8032C13.0881 15.9217 13.1389 16.0798 13.1194 16.2773L12.6194 20.2477C12.5764 20.5242 12.5022 20.7119 12.4006 20.8008C12.2952 20.8798 12.1272 20.9193 11.9006 20.9193H3.65064C2.7522 20.9193 1.7522 20.9489 0.650635 21.018Z" fill="black"/>
</svg>
