<svg width="17" height="21" viewBox="0 0 17 21" fill="none" xmlns="http://www.w3.org/2000/svg">
<path d="M1.12402 20.2475C0.967773 20.2475 0.850585 20.1784 0.780273 20.05C0.706054 19.9068 0.670898 19.7438 0.670898 19.5562C0.678711 19.2401 0.725585 19.0525 0.811523 18.9833C0.893554 18.9191 1.05371 18.8846 1.2959 18.8846C1.77246 18.8846 2.12793 18.7759 2.3584 18.5488C2.59668 18.3266 2.74121 18.0549 2.7959 17.7389C2.8584 17.413 2.89746 16.9833 2.9209 16.4549V3.93149C2.89746 3.39322 2.8584 2.96359 2.7959 2.64754C2.74121 2.33149 2.59668 2.05494 2.3584 1.81791C2.12793 1.58087 1.77246 1.46235 1.2959 1.46235H1.13965C0.971679 1.46235 0.850585 1.43272 0.780273 1.36359C0.717773 1.28457 0.678711 1.10186 0.670898 0.810499C0.670898 0.612968 0.706054 0.450005 0.780273 0.316672C0.850585 0.188277 0.967773 0.119141 1.12402 0.119141C2.20605 0.173462 3.19434 0.198153 4.09277 0.198153H8.38965C9.6709 0.227783 10.7373 0.489511 11.5928 0.988277C12.4561 1.47717 13.085 2.10926 13.4834 2.88457C13.8896 3.65001 14.0928 4.4747 14.0928 5.35371C14.0928 6.5142 13.7256 7.58087 12.999 8.55371C12.2803 9.51667 11.2959 10.208 10.0459 10.6278L10.4678 11.4969C11.1631 12.9191 11.7959 14.1438 12.3584 15.171C12.9287 16.1982 13.5498 17.1562 14.2178 18.0352C14.6865 18.5241 15.1865 18.8056 15.7178 18.8846C15.749 18.8846 15.8193 18.8945 15.9365 18.9043C16.0615 18.9191 16.1592 18.9784 16.2334 19.0821C16.3037 19.1907 16.3428 19.3488 16.3428 19.5562C16.3428 19.7438 16.3037 19.9068 16.2334 20.05C16.1592 20.1784 16.0459 20.2475 15.8896 20.2475L15.249 20.208C14.5068 20.1685 13.9717 20.1488 13.6396 20.1488C12.9717 19.9809 12.3975 19.6846 11.9209 19.2599C11.4521 18.8253 10.9834 18.208 10.5146 17.4031C10.0342 16.6031 9.3623 15.2895 8.49902 13.4722L8.0459 12.5636C7.7959 12.0796 7.5498 11.7488 7.31152 11.5759C7.08105 11.3932 6.68652 11.2994 6.12402 11.2994H5.38965V16.4549C5.40918 16.9833 5.44434 17.413 5.49902 17.7389C5.56152 18.0549 5.70605 18.3266 5.93652 18.5488C6.1748 18.7759 6.53418 18.8846 7.01465 18.8846H7.1709C7.31543 18.8846 7.4248 18.9241 7.49902 19.0031C7.58105 19.0722 7.62793 19.2549 7.63965 19.5562C7.63965 19.7438 7.60059 19.9068 7.53027 20.05C7.45605 20.1784 7.34277 20.2475 7.18652 20.2475C6.12402 20.1784 5.08105 20.1488 4.06152 20.1488C3.18652 20.1488 2.20605 20.1784 1.12402 20.2475ZM7.59277 10.0747C10.0693 10.0747 11.3115 8.60309 11.3115 5.65001C11.3115 4.44013 10.9873 3.42778 10.3428 2.60803C9.69434 1.79322 8.62793 1.38334 7.13965 1.38334C6.65918 1.38334 6.2959 1.45741 6.0459 1.60062C5.7959 1.74877 5.62402 1.99568 5.53027 2.35124C5.43652 2.7068 5.38965 3.25494 5.38965 3.99075V10.0747H7.59277Z" fill="black"/>
</svg>
