<svg width="18" height="22" viewBox="0 0 18 22" fill="none" xmlns="http://www.w3.org/2000/svg">
<path d="M8.18555 21.2352C7.68555 19.5118 6.89258 16.7661 5.81055 12.9982C4.72461 9.22042 3.93555 6.48956 3.43555 4.80067C3.1543 3.89203 2.87695 3.25993 2.60742 2.90437C2.3457 2.54882 1.95508 2.30684 1.43555 2.17351C1.37305 2.16363 1.27148 2.14388 1.13867 2.11425C1.00195 2.07474 0.912109 2.01055 0.873047 1.91672C0.830078 1.81302 0.810547 1.65499 0.810547 1.44265C0.810547 1.19573 0.861328 1.02783 0.966797 0.948818C1.08008 0.859929 1.25586 0.810547 1.49805 0.810547C2.74805 0.810547 3.69336 1.05746 4.3418 1.54141C4.98633 2.0303 5.50195 2.8945 5.88867 4.12907L9.51367 16.455H9.5918L13.0449 3.79326C13.1387 3.43771 13.1855 3.16116 13.1855 2.96363C13.1855 2.67721 13.0918 2.48462 12.9043 2.39079C12.7168 2.28709 12.3926 2.23277 11.9355 2.23277H11.7949C11.627 2.23277 11.5059 2.20314 11.4355 2.134C11.373 2.05499 11.3301 1.87228 11.3105 1.58092C11.3105 1.38339 11.3457 1.22042 11.4199 1.08709C11.502 0.958696 11.6113 0.889559 11.748 0.889559C12.8301 0.943881 13.7363 0.968572 14.4668 0.968572C14.7793 0.968572 15.3887 0.948818 16.2949 0.909312L16.8105 0.889559C16.9668 0.889559 17.0801 0.958696 17.1543 1.08709C17.2246 1.22042 17.2637 1.38339 17.2637 1.58092C17.252 1.87228 17.209 2.05499 17.1387 2.134C17.0762 2.20314 16.959 2.23277 16.7949 2.23277C16.0762 2.23277 15.5293 2.38586 15.1543 2.68709C14.7793 2.97845 14.4551 3.54635 14.1855 4.38586C13.6855 6.11425 12.8809 8.90931 11.7793 12.7809C10.6738 16.6525 9.87305 19.4723 9.37305 21.2352H8.18555Z" fill="black"/>
</svg>
