<svg width="21" height="21" viewBox="0 0 21 21" fill="none" xmlns="http://www.w3.org/2000/svg">
<path d="M9.75366 20.6922C9.50366 20.6922 9.32398 20.5835 9.22241 20.3761L3.59741 4.29712H3.51929L3.58179 16.8403C3.5896 17.4082 3.62085 17.8428 3.67554 18.144C3.72632 18.4502 3.86304 18.7119 4.08179 18.9342C4.30835 19.1613 4.66382 19.27 5.14429 19.27H5.30054C5.4646 19.27 5.58569 19.3095 5.65991 19.3885C5.73023 19.4576 5.7771 19.6403 5.80054 19.9416C5.80054 20.1292 5.76148 20.2922 5.69116 20.4354C5.61694 20.5638 5.50366 20.6329 5.34741 20.6329L4.72241 20.5934C3.96069 20.5539 3.41382 20.5342 3.08179 20.5342C2.50757 20.5342 1.67944 20.5638 0.597412 20.6329C0.448975 20.6329 0.335693 20.5638 0.253662 20.4354C0.179443 20.2922 0.144287 20.1292 0.144287 19.9416C0.163818 19.6255 0.214599 19.4379 0.300537 19.3687C0.382568 19.3045 0.538818 19.27 0.769287 19.27C1.25757 19.27 1.61304 19.1613 1.83179 18.9342C2.05835 18.7119 2.19898 18.4502 2.25366 18.144C2.30444 17.8428 2.33569 17.4082 2.34741 16.8403L2.39429 4.29712C2.39429 3.64033 2.33569 3.1465 2.22241 2.81564C2.10523 2.48971 1.93335 2.25761 1.70679 2.12428C1.48804 1.99589 1.15991 1.87737 0.722412 1.76872C0.659912 1.74403 0.558349 1.71934 0.425537 1.68971C0.288818 1.65021 0.198975 1.58601 0.159912 1.49218C0.116943 1.40329 0.0974121 1.25021 0.0974121 1.03786C0.0974121 0.790946 0.148193 0.623046 0.253662 0.544033C0.366943 0.455145 0.538818 0.405762 0.769287 0.405762C1.75757 0.405762 2.56616 0.484774 3.19116 0.642799C3.82398 0.800823 4.38257 1.12675 4.86304 1.6107C5.3396 2.08477 5.73804 2.79589 6.05054 3.74403L10.3474 15.9514H10.4255L15.3474 0.58354H16.7693C17.6833 0.58354 18.6794 0.558848 19.7537 0.504527C19.8982 0.504527 20.0076 0.573664 20.0818 0.702058C20.1638 0.835392 20.2068 0.998354 20.2068 1.19589C20.1833 1.51193 20.1287 1.70453 20.0349 1.76872C19.9412 1.82305 19.7888 1.84774 19.5818 1.84774C19.0896 1.84774 18.7263 1.96132 18.488 2.18354C18.2576 2.4107 18.113 2.68724 18.0505 3.01317C17.9958 3.34403 17.9646 3.77366 17.9568 4.29712V16.8403C17.9646 17.3687 17.9958 17.7984 18.0505 18.1243C18.113 18.4403 18.2576 18.7119 18.488 18.9342C18.7263 19.1613 19.0896 19.27 19.5818 19.27H19.7224C19.8787 19.27 19.9919 19.3095 20.0662 19.3885C20.1365 19.4576 20.1833 19.6403 20.2068 19.9416C20.2068 20.1292 20.1638 20.2922 20.0818 20.4354C20.0076 20.5638 19.8982 20.6329 19.7537 20.6329C18.6794 20.5638 17.6794 20.5342 16.7537 20.5342C15.7849 20.5342 14.7576 20.5638 13.6755 20.6329C13.5271 20.6329 13.4138 20.5638 13.3318 20.4354C13.2576 20.2922 13.2224 20.1292 13.2224 19.9416C13.2419 19.6255 13.2927 19.4379 13.3787 19.3687C13.4607 19.3045 13.6169 19.27 13.8474 19.27C14.3357 19.27 14.6951 19.1613 14.9255 18.9342C15.1521 18.7119 15.3005 18.4403 15.363 18.1243C15.4255 17.7984 15.4607 17.3687 15.4724 16.8403V4.29712H15.3943L10.2537 20.3761C10.1794 20.5835 10.0115 20.6922 9.75366 20.6922Z" fill="black"/>
</svg>
