<svg width="14" height="21" viewBox="0 0 14 21" fill="none" xmlns="http://www.w3.org/2000/svg">
<path d="M1.40857 20.4028C1.27185 20.4028 1.16638 20.3337 1.09607 20.2053C1.02185 20.0621 0.986694 19.8991 0.986694 19.7115C0.994507 19.3954 1.04138 19.2078 1.12732 19.1386C1.20935 19.0744 1.36951 19.0398 1.61169 19.0398C2.08826 19.0398 2.44373 18.9312 2.67419 18.704C2.91248 18.4818 3.05701 18.2102 3.11169 17.8942C3.17419 17.5682 3.21326 17.1386 3.23669 16.6102V4.06701C3.21326 3.54355 3.17419 3.11392 3.11169 2.78306C3.05701 2.45713 2.91248 2.18059 2.67419 1.95343C2.44373 1.7312 2.08826 1.61762 1.61169 1.61762H1.45544C1.28748 1.61762 1.16638 1.58799 1.09607 1.51886C1.03357 1.43985 0.994507 1.25713 0.986694 0.965772C0.986694 0.768241 1.02185 0.605279 1.09607 0.471945C1.16638 0.343551 1.27185 0.274414 1.40857 0.274414C2.51013 0.328735 3.50232 0.353426 4.37732 0.353426C5.37732 0.353426 6.41638 0.328735 7.50232 0.274414C7.65857 0.274414 7.77185 0.343551 7.84607 0.471945C7.91638 0.605279 7.95545 0.768241 7.95545 0.965772C7.94373 1.28182 7.89295 1.47441 7.7992 1.53861C7.70545 1.59293 7.5492 1.61762 7.33045 1.61762C6.84998 1.61762 6.4906 1.7312 6.25232 1.95343C6.02185 2.18059 5.87732 2.45713 5.81482 2.78306C5.76013 3.11392 5.72498 3.54355 5.70544 4.06701V17.0843C5.73669 17.5189 5.77576 17.8645 5.83044 18.1115C5.88123 18.3485 6.03357 18.5757 6.28357 18.7831C6.53357 18.9806 6.92419 19.0695 7.45545 19.0398H9.70545C10.2875 19.0152 10.7289 18.8966 11.0336 18.6843C11.3344 18.4621 11.5687 18.1213 11.7367 17.6571C11.9125 17.1831 12.1273 16.4226 12.3773 15.3658C12.5023 15.0003 12.7875 14.8522 13.2367 14.9312C13.3812 14.9707 13.5219 15.0596 13.6586 15.188C13.7914 15.3065 13.85 15.4645 13.8304 15.6621L13.3304 19.6324C13.2758 19.909 13.1976 20.0966 13.0961 20.1855C13.0023 20.2645 12.8383 20.304 12.6117 20.304H4.40857C3.51013 20.304 2.51013 20.3337 1.40857 20.4028Z" fill="black"/>
</svg>
