<svg width="17" height="22" viewBox="0 0 17 22" fill="none" xmlns="http://www.w3.org/2000/svg">
<path d="M5.03162 21.018C4.88318 21.018 4.7699 20.9488 4.68787 20.8204C4.61365 20.6772 4.57849 20.5142 4.57849 20.3266C4.59802 20.0105 4.6488 19.8229 4.73474 19.7538C4.82849 19.6896 4.98474 19.655 5.20349 19.655C5.69177 19.655 6.05115 19.5463 6.28162 19.3192C6.50818 19.097 6.65662 18.8254 6.71912 18.5093C6.78162 18.1834 6.81677 17.7538 6.82849 17.2254V13.2747C6.82849 12.934 6.41443 11.7093 5.59412 9.60067C4.7699 7.48215 4.09802 5.82783 3.57849 4.64265C3.24255 3.88215 2.87537 3.31425 2.46912 2.94388C2.07068 2.57845 1.5824 2.32166 1.00037 2.17351C0.937866 2.16363 0.836304 2.14388 0.703491 2.11425C0.566772 2.07474 0.476928 2.01055 0.437866 1.91672C0.394897 1.81302 0.375366 1.65499 0.375366 1.44265C0.375366 1.19573 0.426147 1.02783 0.531616 0.948818C0.644897 0.859929 0.820678 0.810547 1.06287 0.810547C2.3949 0.810547 3.43787 1.04265 4.18787 1.5019C4.93787 1.95129 5.60193 2.82042 6.18787 4.10931C6.46912 4.81055 6.85974 5.80808 7.35974 7.11178C8.08631 8.96857 8.57068 10.1686 8.81287 10.7068H8.87537L11.6566 3.79326C11.8011 3.37351 11.8754 3.0624 11.8754 2.86487C11.8754 2.61795 11.7699 2.45005 11.5629 2.37104C11.3519 2.28215 11.0199 2.23277 10.5629 2.23277H10.4066C10.2386 2.23277 10.1176 2.20314 10.0472 2.134C9.98474 2.05499 9.94568 1.87228 9.93787 1.58092C9.93787 1.38339 9.97302 1.22042 10.0472 1.08709C10.1176 0.958696 10.223 0.889559 10.3597 0.889559C11.4418 0.943881 12.348 0.968572 13.0785 0.968572C13.6918 0.968572 14.5355 0.943881 15.6097 0.889559C15.7543 0.889559 15.8636 0.958696 15.9379 1.08709C16.0199 1.22042 16.0629 1.38339 16.0629 1.58092C16.0394 1.87228 15.9926 2.05499 15.9222 2.134C15.8597 2.20314 15.7426 2.23277 15.5785 2.23277C14.8988 2.23277 14.3519 2.40067 13.9379 2.7266C13.5199 3.05746 13.1449 3.61055 12.8129 4.38586L9.98474 11.1217C9.93006 11.255 9.82849 11.5167 9.67224 11.9118C9.52381 12.297 9.42615 12.6525 9.37537 12.9784C9.3324 13.2945 9.31287 13.6896 9.31287 14.1636V17.2254C9.32068 17.7538 9.35193 18.1834 9.40662 18.5093C9.46912 18.8254 9.61365 19.097 9.84412 19.3192C10.0824 19.5463 10.4457 19.655 10.9379 19.655H11.0785C11.2426 19.655 11.3597 19.6945 11.4222 19.7735C11.4926 19.8426 11.5394 20.0254 11.5629 20.3266C11.5629 20.5142 11.5199 20.6772 11.4379 20.8204C11.3636 20.9488 11.2582 21.018 11.1254 21.018C10.0629 20.9488 9.06287 20.9192 8.12537 20.9192C7.1449 20.9192 6.11365 20.9488 5.03162 21.018Z" fill="black"/>
</svg>
