<svg width="14" height="21" viewBox="0 0 14 21" fill="none" xmlns="http://www.w3.org/2000/svg">
<path d="M1.03088 20.6328C0.894165 20.6328 0.788696 20.5637 0.718384 20.4353C0.644165 20.2921 0.609009 20.1291 0.609009 19.9414C0.616822 19.6254 0.663696 19.4377 0.749634 19.3686C0.831665 19.3044 0.991822 19.2698 1.23401 19.2698C1.71057 19.2698 2.06604 19.1612 2.29651 18.934C2.53479 18.7118 2.67932 18.4402 2.73401 18.1241C2.79651 17.7982 2.83557 17.3686 2.85901 16.8402V4.29699C2.83557 3.77353 2.79651 3.3439 2.73401 3.01304C2.67932 2.68711 2.53479 2.41057 2.29651 2.18341C2.06604 1.96119 1.71057 1.8476 1.23401 1.8476H1.07776C0.90979 1.8476 0.788696 1.81797 0.718384 1.74884C0.655884 1.66983 0.616822 1.48711 0.609009 1.19575C0.609009 0.998222 0.644165 0.835259 0.718384 0.701925C0.788696 0.573531 0.894165 0.504395 1.03088 0.504395C2.13245 0.558716 3.12463 0.583407 3.99963 0.583407H11.859C12.2848 0.583407 12.4996 0.840197 12.4996 1.35378L12.5778 5.77847C12.5778 5.96612 12.4996 6.11427 12.3434 6.23279C12.1949 6.35131 12.0504 6.41057 11.9059 6.41057C11.7067 6.41057 11.5309 6.36612 11.3746 6.2723C11.2262 6.16859 11.1442 6.02538 11.1246 5.83773C10.9996 4.81057 10.8512 4.03032 10.6871 3.48711C10.5309 2.94884 10.2965 2.54884 9.98401 2.28217C9.67932 2.02044 9.24963 1.87723 8.68713 1.8476H5.32776V9.88711H9.85901C9.97229 9.90193 10.0621 9.98094 10.1246 10.1241C10.1949 10.2575 10.234 10.4204 10.234 10.618C10.234 10.776 10.1949 10.9241 10.1246 11.0525C10.0621 11.1859 9.97229 11.2501 9.85901 11.2501H5.32776V17.2155C5.35901 17.6649 5.39807 18.0204 5.45276 18.2822C5.50354 18.5488 5.65588 18.7859 5.90588 18.9933C6.15588 19.2056 6.54651 19.2995 7.07776 19.2698H9.37463C9.95667 19.2451 10.3981 19.1266 10.7028 18.9143C11.0035 18.6921 11.2418 18.3513 11.4215 17.8871C11.5973 17.413 11.8121 16.6525 12.0621 15.5958C12.1754 15.2303 12.4567 15.0822 12.9059 15.1612C13.0699 15.2007 13.2184 15.2896 13.3434 15.418C13.4684 15.5365 13.5192 15.6945 13.4996 15.8921L12.9996 19.8624C12.9567 20.139 12.8824 20.3266 12.7809 20.4155C12.6754 20.4945 12.5074 20.534 12.2809 20.534H4.03088C3.13245 20.534 2.13245 20.5637 1.03088 20.6328Z" fill="black"/>
</svg>
