<svg width="18" height="22" viewBox="0 0 18 22" fill="none" xmlns="http://www.w3.org/2000/svg">
<path d="M0.903809 21.0177C0.747559 21.0177 0.634278 20.9486 0.560059 20.8202C0.489747 20.6769 0.450684 20.514 0.450684 20.3263C0.462403 20.0103 0.509278 19.8226 0.591309 19.7535C0.677246 19.6893 0.770996 19.6547 0.888184 19.6547C1.01318 19.6547 1.09131 19.6547 1.12256 19.6547C1.62256 19.6547 1.98584 19.4918 2.21631 19.1609C2.45459 18.835 2.64209 18.4646 2.77881 18.0547C2.92334 17.6498 3.021 17.3732 3.07568 17.2251L7.45068 4.1288C7.54443 3.81275 7.59131 3.56584 7.59131 3.37818C7.59131 2.99794 7.47412 2.72633 7.24756 2.56831C7.01709 2.4004 6.69287 2.26213 6.27881 2.15349C5.98584 2.08929 5.81006 2.0251 5.74756 1.95596C5.68506 1.89176 5.65381 1.71398 5.65381 1.42263C5.65381 1.17571 5.70459 1.00781 5.81006 0.928799C5.91162 0.839911 6.0835 0.790527 6.32568 0.790527C7.15771 0.790527 7.81787 0.86954 8.31006 1.02756C8.79834 1.18559 9.22412 1.50164 9.59131 1.97571C9.96631 2.44979 10.3101 3.17077 10.6226 4.1288L14.8257 17.2251C15.0757 18.03 15.314 18.6276 15.5444 19.0226C15.7827 19.4177 16.1304 19.63 16.5913 19.6547H16.7476C16.9116 19.6547 17.0288 19.6942 17.0913 19.7732C17.1616 19.8424 17.2046 20.0251 17.2163 20.3263C17.2163 20.514 17.1772 20.6769 17.1069 20.8202C17.0327 20.9486 16.9233 21.0177 16.7788 21.0177C15.7046 20.9486 14.7866 20.9189 14.0288 20.9189C13.0288 20.9189 11.9897 20.9486 10.9194 21.0177C10.771 21.0177 10.6577 20.9486 10.5757 20.8202C10.5015 20.6769 10.4663 20.514 10.4663 20.3263C10.4858 20.0251 10.5288 19.8424 10.5913 19.7732C10.6616 19.6942 10.7827 19.6547 10.9507 19.6547C11.5132 19.6547 11.9077 19.5905 12.1382 19.4572C12.3765 19.314 12.4976 19.0621 12.4976 18.7066C12.4976 18.43 12.396 17.9362 12.2007 17.2251L11.3413 14.5979H5.16943C4.75146 15.9016 4.51318 16.6621 4.45068 16.8695C4.396 17.0819 4.37256 17.2004 4.37256 17.2251C4.17334 18.03 4.07568 18.5436 4.07568 18.7658C4.07568 19.1214 4.20068 19.3584 4.45068 19.4769C4.70068 19.5955 5.17334 19.6547 5.87256 19.6547H6.02881C6.19287 19.6547 6.31006 19.6942 6.37256 19.7732C6.43506 19.8424 6.47412 20.0251 6.49756 20.3263C6.49756 20.514 6.4585 20.6769 6.38818 20.8202C6.31396 20.9486 6.20068 21.0177 6.04443 21.0177C4.98193 20.9486 4.07568 20.9189 3.32568 20.9189C2.79443 20.9189 1.98584 20.9486 0.903809 21.0177ZM5.65381 13.235H10.9038L8.37256 5.11645H8.29443L5.65381 13.235Z" fill="black"/>
</svg>
