<svg width="16" height="12" viewBox="0 0 16 12" fill="none" xmlns="http://www.w3.org/2000/svg">
<path d="M12.1827 0.078125C13.2843 0.078125 14.1593 0.507755 14.8077 1.36208C15.464 2.20652 15.7921 3.37689 15.7921 4.87812V11.4361H13.089V5.33245C13.089 4.61146 12.9366 4.0485 12.6359 3.65343C12.3312 3.25837 11.9171 3.06084 11.3859 3.06084C10.8546 3.06084 10.4366 3.25837 10.1359 3.65343C9.83118 4.0485 9.68274 4.61146 9.68274 5.33245V11.4361H6.96399V5.33245C6.96399 4.61146 6.81165 4.0485 6.51086 3.65343C6.20618 3.25837 5.79211 3.06084 5.26086 3.06084C4.73743 3.06084 4.32336 3.25837 4.01086 3.65343C3.70618 4.0485 3.55774 4.61146 3.55774 5.33245V11.4361H0.838989V0.196644H3.55774V1.61887C3.83899 1.14479 4.20227 0.769483 4.65149 0.49294C5.0968 0.216397 5.60461 0.078125 6.16711 0.078125C6.83118 0.078125 7.42493 0.265779 7.94836 0.631211C8.47961 0.986767 8.88977 1.50035 9.18274 2.17195C9.49524 1.55467 9.91711 1.0559 10.4484 0.670718C10.9796 0.275656 11.5577 0.078125 12.1827 0.078125Z" fill="white"/>
</svg>
