<svg width="15" height="22" viewBox="0 0 15 22" fill="none" xmlns="http://www.w3.org/2000/svg">
<path d="M1.03894 21.018C0.902221 21.018 0.792846 20.9489 0.710815 20.8205C0.624878 20.6773 0.585815 20.5143 0.585815 20.3267C0.605346 20.0106 0.656128 19.823 0.742065 19.7538C0.835815 19.6897 0.999878 19.6551 1.24207 19.6551C1.71863 19.6551 2.0741 19.5464 2.30457 19.3193C2.54285 19.0971 2.68738 18.8255 2.74207 18.5094C2.80457 18.1835 2.84363 17.7538 2.86707 17.2255V4.68224C2.84363 4.15879 2.80457 3.72916 2.74207 3.39829C2.68738 3.07236 2.54285 2.79582 2.30457 2.56866C2.0741 2.34644 1.71863 2.23286 1.24207 2.23286H1.08582C0.917846 2.23286 0.796752 2.20323 0.72644 2.13409C0.652221 2.05508 0.605346 1.87236 0.585815 1.58101C0.585815 1.38348 0.624878 1.22051 0.710815 1.08718C0.792846 0.958785 0.902221 0.889648 1.03894 0.889648C2.12097 0.94397 3.12097 0.968661 4.03894 0.968661H7.78894C9.23425 0.968661 10.6366 1.35385 11.9921 2.11434C13.3553 2.87977 14.0389 4.39582 14.0389 6.65755C14.0389 7.92175 13.7343 9.05755 13.1327 10.0551C12.5389 11.0427 11.7616 11.8131 10.8046 12.3662C9.84363 12.9094 8.85144 13.1761 7.82019 13.1761C6.85925 13.1761 6.02722 13.0082 5.32019 12.6625V17.2255C5.328 17.7538 5.35925 18.1835 5.41394 18.5094C5.47644 18.8255 5.62097 19.0971 5.85144 19.3193C6.08972 19.5464 6.453 19.6551 6.94519 19.6551H7.08582C7.24988 19.6551 7.37097 19.6946 7.44519 19.7736C7.52722 19.8427 7.5741 20.0255 7.58582 20.3267C7.58582 20.5143 7.54675 20.6773 7.47644 20.8205C7.40222 20.9489 7.28894 21.018 7.13269 21.018C6.07019 20.9489 5.02722 20.9193 4.00769 20.9193C3.10925 20.9193 2.12097 20.9489 1.03894 21.018ZM7.08582 11.7538C7.68738 11.7538 8.30847 11.6057 8.94519 11.2995C9.58972 10.9983 10.1366 10.4699 10.5858 9.71928C11.0311 8.96866 11.2577 7.98101 11.2577 6.75632C11.2577 4.89953 10.7889 3.6699 9.85144 3.06249C8.92175 2.46002 7.93347 2.15385 6.88269 2.15385C6.453 2.15385 6.13269 2.21311 5.91394 2.33162C5.69519 2.44027 5.53894 2.66249 5.44519 3.00323C5.35925 3.33409 5.32019 3.86249 5.32019 4.58348V11.3983C5.71472 11.6353 6.30457 11.7538 7.08582 11.7538Z" fill="black"/>
</svg>
