<svg width="12" height="23" viewBox="0 0 12 23" fill="none" xmlns="http://www.w3.org/2000/svg">
<path d="M5.55139 22.166C3.80139 22.166 2.46155 21.7808 1.53577 21.0203C0.60608 20.245 0.145142 19.1141 0.145142 17.6228C0.145142 16.8623 0.348267 16.2351 0.754517 15.7462C1.16858 15.2475 1.69983 14.9956 2.34827 14.9956C2.73108 15.0104 3.02405 15.129 3.22327 15.3512C3.41858 15.5783 3.52014 15.7808 3.52014 15.9635C3.52014 15.9931 3.4342 16.0722 3.27014 16.2006C3.10217 16.3191 2.94983 16.5117 2.81702 16.7734C2.69202 17.0252 2.62952 17.366 2.62952 17.8006C2.62952 18.7882 2.86389 19.5536 3.33264 20.0919C3.8092 20.6351 4.55139 20.9018 5.55139 20.9018C6.23889 20.9018 6.83655 20.7388 7.34827 20.408C7.8678 20.0672 8.26233 19.6178 8.53577 19.0648C8.81702 18.5018 8.95764 17.9141 8.95764 17.3067C8.95764 16.5462 8.78577 15.8944 8.44202 15.3512C8.09827 14.7981 7.67639 14.3388 7.17639 13.9685C6.67639 13.603 5.9928 13.1734 5.12952 12.6845C4.12952 12.1215 3.31702 11.608 2.69202 11.1438C2.07483 10.6697 1.55139 10.0524 1.11389 9.28697C0.684204 8.52648 0.473267 7.56846 0.473267 6.42278C0.473267 4.59562 0.965454 3.22278 1.95764 2.31413C2.95764 1.40549 4.26233 0.951172 5.87952 0.951172C7.13733 0.951172 8.23889 1.29685 9.17639 1.97833C10.1217 2.64994 10.5983 3.63759 10.5983 4.9413C10.5983 5.70673 10.3951 6.33883 9.98889 6.83759C9.58264 7.32648 9.05139 7.56846 8.39514 7.56846C8.02014 7.54377 7.72717 7.42525 7.52014 7.2129C7.32092 6.99068 7.22327 6.77833 7.22327 6.5808C7.22327 6.57092 7.33264 6.49685 7.55139 6.36352C7.77795 6.23512 7.98108 6.04253 8.16077 5.79068C8.33655 5.54376 8.42639 5.19315 8.42639 4.74376C8.42639 3.96846 8.1842 3.36105 7.70764 2.92648C7.23889 2.48204 6.63342 2.25488 5.89514 2.25488C4.88342 2.25488 4.11389 2.56105 3.58264 3.16352C3.0592 3.75611 2.80139 4.49685 2.80139 5.37586C2.80139 6.1166 2.95764 6.73389 3.27014 7.23265C3.59045 7.73636 4.10217 8.22031 4.80139 8.69438C5.36389 9.07957 5.97717 9.45981 6.64514 9.84006C7.71545 10.4475 8.56702 11.0055 9.19202 11.5191C9.81702 12.0228 10.3365 12.6845 10.7545 13.5141C11.1803 14.3339 11.3951 15.3512 11.3951 16.5759C11.3951 17.6327 11.1334 18.5857 10.6139 19.4401C10.0905 20.2845 9.38342 20.9512 8.48889 21.4351C7.59045 21.9191 6.61389 22.166 5.55139 22.166Z" fill="black"/>
</svg>
