<svg width="14" height="21" viewBox="0 0 14 21" fill="none" xmlns="http://www.w3.org/2000/svg">
<path d="M0.986328 20.4028C0.849609 20.4028 0.740234 20.3337 0.658203 20.2053C0.572266 20.0621 0.533203 19.8991 0.533203 19.7115C0.552734 19.3954 0.603516 19.2078 0.689453 19.1386C0.783203 19.0744 0.947266 19.0398 1.18945 19.0398C1.66602 19.0398 2.02148 18.9312 2.25195 18.704C2.49023 18.4818 2.63477 18.2102 2.68945 17.8942C2.75195 17.5682 2.79102 17.1386 2.81445 16.6102V4.06701C2.79102 3.54355 2.75195 3.11392 2.68945 2.78306C2.63477 2.45713 2.49023 2.18059 2.25195 1.95343C2.02148 1.7312 1.66602 1.61762 1.18945 1.61762H1.0332C0.865234 1.61762 0.74414 1.58799 0.673828 1.51886C0.599609 1.43985 0.552734 1.25713 0.533203 0.965772C0.533203 0.768241 0.572266 0.605279 0.658203 0.471945C0.740234 0.343551 0.849609 0.274414 0.986328 0.274414C2.06836 0.328735 3.06836 0.353426 3.98633 0.353426H7.73633C9.18164 0.353426 10.584 0.738612 11.9395 1.49911C13.3027 2.26454 13.9863 3.78059 13.9863 6.04232C13.9863 7.30651 13.6816 8.44232 13.0801 9.43985C12.4863 10.4275 11.709 11.1979 10.752 11.751C9.79102 12.2942 8.79883 12.5608 7.76758 12.5608C6.80664 12.5608 5.97461 12.3929 5.26758 12.0473V16.6102C5.27539 17.1386 5.30664 17.5682 5.36133 17.8942C5.42383 18.2102 5.56836 18.4818 5.79883 18.704C6.03711 18.9312 6.40039 19.0398 6.89258 19.0398H7.0332C7.19727 19.0398 7.31836 19.0794 7.39258 19.1584C7.47461 19.2275 7.52148 19.4102 7.5332 19.7115C7.5332 19.8991 7.49414 20.0621 7.42383 20.2053C7.34961 20.3337 7.23633 20.4028 7.08008 20.4028C6.01758 20.3337 4.97461 20.304 3.95508 20.304C3.05664 20.304 2.06836 20.3337 0.986328 20.4028ZM7.0332 11.1386C7.63477 11.1386 8.25586 10.9905 8.89258 10.6843C9.53711 10.3831 10.084 9.85466 10.5332 9.10404C10.9785 8.35343 11.2051 7.36577 11.2051 6.14108C11.2051 4.28429 10.7363 3.05466 9.79883 2.44725C8.86914 1.84479 7.88086 1.53861 6.83008 1.53861C6.40039 1.53861 6.08008 1.59787 5.86133 1.71639C5.64258 1.82503 5.48633 2.04725 5.39258 2.38799C5.30664 2.71886 5.26758 3.24725 5.26758 3.96824V10.7831C5.66211 11.0201 6.25195 11.1386 7.0332 11.1386Z" fill="black"/>
</svg>
