<svg width="13" height="22" viewBox="0 0 13 22" fill="none" xmlns="http://www.w3.org/2000/svg">
<path d="M6.20898 21.9365C4.45898 21.9365 3.11914 21.5513 2.19336 20.7908C1.26367 20.0155 0.802734 18.8846 0.802734 17.3933C0.802734 16.6328 1.00586 16.0056 1.41211 15.5167C1.82617 15.018 2.35742 14.7661 3.00586 14.7661C3.38867 14.7809 3.68164 14.8995 3.88086 15.1217C4.07617 15.3488 4.17773 15.5513 4.17773 15.734C4.17773 15.7637 4.0918 15.8427 3.92773 15.9711C3.75977 16.0896 3.60742 16.2822 3.47461 16.5439C3.34961 16.7958 3.28711 17.1365 3.28711 17.5711C3.28711 18.5587 3.52148 19.3242 3.99023 19.8624C4.4668 20.4056 5.20898 20.6723 6.20898 20.6723C6.89648 20.6723 7.49414 20.5093 8.00586 20.1785C8.52539 19.8377 8.91992 19.3883 9.19336 18.8353C9.47461 18.2723 9.61523 17.6846 9.61523 17.0772C9.61523 16.3167 9.44336 15.6649 9.09961 15.1217C8.75586 14.5686 8.33398 14.1093 7.83398 13.739C7.33398 13.3735 6.65039 12.9439 5.78711 12.455C4.78711 11.8921 3.97461 11.3785 3.34961 10.9143C2.73242 10.4402 2.20898 9.82292 1.77148 9.05748C1.3418 8.29699 1.13086 7.33896 1.13086 6.19328C1.13086 4.36612 1.62305 2.99328 2.61523 2.08464C3.61523 1.176 4.91992 0.72168 6.53711 0.72168C7.79492 0.72168 8.89648 1.06736 9.83398 1.74884C10.7793 2.42045 11.2559 3.4081 11.2559 4.7118C11.2559 5.47724 11.0527 6.10933 10.6465 6.6081C10.2402 7.09699 9.70898 7.33896 9.05273 7.33896C8.67773 7.31427 8.38477 7.19575 8.17773 6.98341C7.97852 6.76119 7.88086 6.54884 7.88086 6.35131C7.88086 6.34143 7.99023 6.26736 8.20898 6.13403C8.43555 6.00563 8.63867 5.81304 8.81836 5.56119C8.99414 5.31427 9.08398 4.96366 9.08398 4.51427C9.08398 3.73896 8.8418 3.13156 8.36523 2.69699C7.89648 2.25254 7.29102 2.02538 6.55273 2.02538C5.54102 2.02538 4.77148 2.33156 4.24023 2.93403C3.7168 3.52662 3.45898 4.26736 3.45898 5.14637C3.45898 5.88711 3.61523 6.5044 3.92773 7.00316C4.24805 7.50687 4.75977 7.99082 5.45898 8.46489C6.02148 8.85008 6.63477 9.23032 7.30273 9.61057C8.37305 10.218 9.22461 10.776 9.84961 11.2896C10.4746 11.7933 10.9941 12.455 11.4121 13.2846C11.8379 14.1044 12.0527 15.1217 12.0527 16.3464C12.0527 17.4032 11.791 18.3562 11.2715 19.2106C10.748 20.055 10.041 20.7217 9.14648 21.2056C8.24805 21.6896 7.27148 21.9365 6.20898 21.9365Z" fill="black"/>
</svg>
