<svg width="17" height="22" viewBox="0 0 17 22" fill="none" xmlns="http://www.w3.org/2000/svg">
<path d="M0.506592 21.0182C0.358155 21.0182 0.244873 20.949 0.162842 20.8206C0.0886228 20.6774 0.0534668 20.5145 0.0534668 20.3268C0.0729978 20.0108 0.123779 19.8231 0.209717 19.754C0.291748 19.6898 0.447998 19.6552 0.678467 19.6552C1.16675 19.6552 1.52222 19.5466 1.74097 19.3194C1.96753 19.0972 2.10815 18.8355 2.16284 18.5293C2.21362 18.2281 2.24487 17.7935 2.25659 17.2256L2.30347 4.68237C2.30347 4.05028 2.24878 3.57126 2.14722 3.2404C2.04175 2.91447 1.86987 2.67743 1.63159 2.52929C1.40112 2.38608 1.06909 2.26262 0.631592 2.15398C0.350342 2.08978 0.170655 2.02558 0.100342 1.95645C0.0378418 1.89225 0.0065918 1.71447 0.0065918 1.42311C0.0065918 1.1762 0.0573728 1.0083 0.162842 0.929287C0.276123 0.840399 0.447998 0.791016 0.678467 0.791016C1.71753 0.791016 2.53784 0.884843 3.13159 1.06756C3.73315 1.2404 4.2644 1.55645 4.72534 2.01571C5.18237 2.4799 5.68628 3.18114 6.24097 4.12929L13.0847 15.5071H13.1628L13.116 4.68237C13.0925 4.1046 13.0574 3.66509 13.0066 3.35892C12.9519 3.05768 12.8113 2.79595 12.5847 2.56879C12.366 2.34657 12.0144 2.23299 11.5378 2.23299H11.3816C11.2136 2.23299 11.0925 2.20336 11.0222 2.13423C10.948 2.05521 10.9011 1.8725 10.8816 1.58114C10.8816 1.38361 10.9207 1.22065 11.0066 1.08731C11.0886 0.958917 11.198 0.889781 11.3347 0.889781C12.3972 0.944102 13.198 0.968793 13.741 0.968793C14.0535 0.968793 14.655 0.94904 15.5535 0.909534L16.0847 0.889781C16.2292 0.889781 16.3386 0.958917 16.4128 1.08731C16.4949 1.22065 16.5378 1.38361 16.5378 1.58114C16.5144 1.89719 16.4636 2.08978 16.3816 2.15398C16.2957 2.2083 16.1394 2.23299 15.9128 2.23299C15.4207 2.23299 15.0613 2.34657 14.8347 2.56879C14.616 2.79595 14.4792 3.05768 14.4285 3.35892C14.3855 3.66509 14.3542 4.1046 14.3347 4.68237L14.2878 20.6034C14.2644 20.8799 14.0574 21.0182 13.6628 21.0182C13.3386 21.0182 13.0925 20.8799 12.9285 20.6034L3.50659 4.68237H3.42847L3.49097 17.2256C3.49878 17.7935 3.53003 18.2281 3.58472 18.5293C3.6355 18.8355 3.77222 19.0972 3.99097 19.3194C4.21753 19.5466 4.573 19.6552 5.05347 19.6552H5.20972C5.37378 19.6552 5.49487 19.6947 5.56909 19.7737C5.6394 19.8429 5.68628 20.0256 5.70972 20.3268C5.70972 20.5145 5.67065 20.6774 5.60034 20.8206C5.52612 20.949 5.41284 21.0182 5.25659 21.0182C4.19409 20.949 3.3855 20.9194 2.83472 20.9194C2.49878 20.9194 1.91675 20.9392 1.08472 20.9787L0.506592 21.0182Z" fill="black"/>
</svg>
