<svg width="9" height="12" viewBox="0 0 9 12" fill="none" xmlns="http://www.w3.org/2000/svg">
<path d="M4.89832 11.5946C4.12488 11.5946 3.43738 11.4317 2.83582 11.1008C2.23035 10.76 1.74988 10.3008 1.39832 9.71807C1.05457 9.1403 0.859253 8.48845 0.82019 7.76252H3.50769C3.53894 8.14771 3.67957 8.46375 3.92957 8.71067C4.18738 8.9477 4.49988 9.06622 4.86707 9.06622C5.21082 9.06622 5.47644 8.98227 5.66394 8.80943C5.85144 8.64153 5.94519 8.42425 5.94519 8.15758C5.94519 7.83166 5.80847 7.59462 5.53894 7.44647C5.27722 7.28844 4.85144 7.12054 4.25769 6.93289C3.62097 6.73536 3.08972 6.53783 2.66394 6.3403C2.23425 6.13289 1.86707 5.80203 1.55457 5.35264C1.24988 4.9082 1.10144 4.30079 1.10144 3.53536C1.10144 2.89338 1.24207 2.30573 1.52332 1.77733C1.80457 1.23906 2.21472 0.819309 2.75769 0.513137C3.30847 0.197087 3.96082 0.0390625 4.71082 0.0390625C5.8241 0.0390625 6.703 0.38968 7.35144 1.08598C7.99597 1.78721 8.36707 2.71561 8.46082 3.87116H5.94519C5.90222 3.4761 5.7655 3.16993 5.53894 2.94277C5.30847 2.72054 5.00769 2.60696 4.63269 2.60696C4.32019 2.60696 4.0741 2.68598 3.89832 2.844C3.73035 2.99215 3.64832 3.19462 3.64832 3.45635C3.64832 3.78721 3.78113 4.02919 4.05457 4.18721C4.3241 4.34524 4.74597 4.51314 5.32019 4.68104C5.97644 4.89338 6.5116 5.10573 6.92957 5.31314C7.34363 5.52548 7.71082 5.86128 8.02332 6.32054C8.33582 6.78474 8.49597 7.40203 8.50769 8.17733C8.50769 8.83906 8.35925 9.42178 8.07019 9.93536C7.77722 10.4489 7.35535 10.8588 6.80457 11.16C6.2616 11.4465 5.62488 11.5946 4.89832 11.5946Z" fill="white"/>
</svg>
