<svg width="12" height="22" viewBox="0 0 12 22" fill="none" xmlns="http://www.w3.org/2000/svg">
<path d="M0.978027 21.018C0.841308 21.018 0.735839 20.9489 0.665527 20.8205C0.591308 20.6773 0.556152 20.5143 0.556152 20.3267C0.563965 20.0106 0.610839 19.823 0.696777 19.7538C0.778808 19.6897 0.938965 19.6551 1.18115 19.6551C1.65772 19.6551 2.01318 19.5464 2.24365 19.3193C2.48193 19.0971 2.62647 18.8255 2.68115 18.5094C2.74365 18.1835 2.78272 17.7538 2.80615 17.2255V4.68224C2.78272 4.15879 2.74365 3.72916 2.68115 3.39829C2.62647 3.07236 2.48193 2.79582 2.24365 2.56866C2.01318 2.34644 1.65772 2.23286 1.18115 2.23286H1.0249C0.856933 2.23286 0.735839 2.20323 0.665527 2.13409C0.603027 2.05508 0.563965 1.87236 0.556152 1.58101C0.556152 1.38348 0.591308 1.22051 0.665527 1.08718C0.735839 0.958785 0.841308 0.889648 0.978027 0.889648C2.06006 0.94397 3.04834 0.968661 3.94678 0.968661H11.1812C11.6069 0.968661 11.8218 1.22545 11.8218 1.73903L11.8999 6.16372C11.8999 6.35138 11.8218 6.49953 11.6655 6.61804C11.5171 6.73656 11.3726 6.79582 11.228 6.79582C11.0288 6.79582 10.8452 6.75138 10.6812 6.65755C10.5249 6.55385 10.439 6.41064 10.4312 6.22298C10.314 5.19582 10.1733 4.41557 10.0093 3.87236C9.85303 3.33409 9.61865 2.93409 9.30615 2.66743C9.00147 2.4057 8.57178 2.26249 8.00928 2.23286H5.2749V10.4501H9.75928C9.88428 10.4798 9.97803 10.5637 10.0405 10.7069C10.1108 10.8403 10.1499 10.9983 10.1499 11.181C10.1499 11.3538 10.1108 11.5069 10.0405 11.6353C9.97803 11.7538 9.88428 11.8131 9.75928 11.8131H5.2749V17.2255C5.29443 17.7538 5.32959 18.1835 5.38428 18.5094C5.44678 18.8255 5.59131 19.0971 5.82178 19.3193C6.06006 19.5464 6.41943 19.6551 6.8999 19.6551H7.05615C7.20068 19.6551 7.31006 19.6946 7.38428 19.7736C7.46631 19.8427 7.51318 20.0255 7.5249 20.3267C7.5249 20.5143 7.48584 20.6773 7.41553 20.8205C7.34131 20.9489 7.22803 21.018 7.07178 21.018C6.00928 20.9489 4.97803 20.9193 3.97803 20.9193C3.06006 20.9193 2.06006 20.9489 0.978027 21.018Z" fill="black"/>
</svg>
