<svg width="17" height="23" viewBox="0 0 17 23" fill="none" xmlns="http://www.w3.org/2000/svg">
<path d="M7.99561 22.166C6.40967 22.166 5.01514 21.682 3.80811 20.724C2.59717 19.766 1.65967 18.4919 0.995605 16.9117C0.339355 15.3314 0.0112305 13.6425 0.0112305 11.8351C0.0112305 9.62278 0.405761 7.69685 1.19873 6.04747C1.98779 4.40302 2.99951 3.14376 4.22998 2.27463C5.46826 1.39562 6.72217 0.951172 7.99561 0.951172C9.58936 0.951172 10.9956 1.43512 12.2144 2.39315C13.4409 3.35611 14.3862 4.62031 15.0425 6.18574C15.7065 7.75611 16.0425 9.445 16.0425 11.2623C16.0425 13.4746 15.6401 15.4104 14.8394 17.0697C14.0347 18.7191 13.0112 19.9833 11.7612 20.8623C10.5112 21.7314 9.25342 22.166 7.99561 22.166ZM7.96436 20.7833C9.09717 20.7833 10.0425 20.3586 10.7925 19.4993C11.5503 18.645 12.1206 17.4993 12.4956 16.0623C12.8706 14.6154 13.0581 13.0154 13.0581 11.2623C13.0581 9.64253 12.8628 8.15611 12.48 6.79809C12.105 5.43018 11.5308 4.34377 10.7612 3.53883C9.99951 2.72401 9.06592 2.31413 7.96436 2.31413C6.29639 2.31413 5.04248 3.2129 4.19873 5.00055C3.35498 6.77833 2.93311 9.02525 2.93311 11.7364C2.93311 13.3857 3.12061 14.8919 3.49561 16.2598C3.87061 17.6327 4.43311 18.729 5.18311 19.5586C5.93311 20.3783 6.85889 20.7833 7.96436 20.7833Z" fill="black"/>
</svg>
