<svg width="17" height="23" viewBox="0 0 17 23" fill="none" xmlns="http://www.w3.org/2000/svg">
<path d="M8.6571 22.166C7.20789 22.166 5.89539 21.7808 4.7196 21.0203C3.55164 20.245 2.62585 19.0746 1.93835 17.5043C1.25085 15.9388 0.907104 14.003 0.907104 11.6969C0.907104 9.57833 1.27429 7.70673 2.01648 6.08697C2.76648 4.45735 3.79773 3.19315 5.11023 2.29438C6.43054 1.40055 7.94226 0.951172 9.64148 0.951172C10.4735 0.951172 11.2977 1.1092 12.1102 1.42525C12.9305 1.7413 13.6102 2.245 14.1415 2.92648C14.6727 3.59809 14.9384 4.42772 14.9384 5.41537C14.9384 6.33883 14.7196 7.14377 14.2821 7.82525C13.8524 8.49685 13.2821 8.83265 12.5634 8.83265C12.2079 8.83265 11.868 8.72895 11.5477 8.5166C11.2235 8.3092 11.0516 8.03265 11.0321 7.68697C11.0321 7.6771 11.1454 7.56352 11.3759 7.35117C11.6024 7.14377 11.8134 6.85735 12.0009 6.50179C12.1884 6.13636 12.2821 5.70179 12.2821 5.19809C12.2821 4.31907 12.0048 3.59809 11.454 3.045C10.911 2.49191 10.2079 2.21537 9.3446 2.21537C8.30164 2.21537 7.36414 2.58574 6.5321 3.32154C5.69617 4.04747 5.03992 5.11414 4.56335 6.52154C4.08289 7.91907 3.8446 9.58327 3.8446 11.5191C3.8446 13.3907 4.07898 15.0104 4.54773 16.3783C5.02429 17.7512 5.69226 18.803 6.54773 19.5388C7.41101 20.2648 8.4071 20.6252 9.5321 20.6252C10.0712 20.6252 10.5399 20.5857 10.9384 20.5067C11.3329 20.4277 11.7665 20.2993 12.2352 20.1117V16.8919C12.2352 16.1561 12.2118 15.6425 12.1727 15.3512C12.1298 15.0499 11.993 14.8277 11.7665 14.6796C11.5477 14.5364 11.1727 14.4623 10.6415 14.4623C10.454 14.4623 10.3173 14.4228 10.2352 14.3438C10.1493 14.2648 10.1024 14.082 10.0946 13.7907C10.0946 13.608 10.1337 13.4499 10.2196 13.3166C10.3134 13.1734 10.4423 13.0993 10.6102 13.0993C11.661 13.1685 12.579 13.1981 13.3602 13.1981C14.1102 13.1981 15.0087 13.1685 16.0634 13.0993C16.2079 13.0993 16.3212 13.1734 16.4071 13.3166C16.4891 13.4499 16.5321 13.608 16.5321 13.7907C16.5204 14.082 16.4735 14.2648 16.3915 14.3438C16.3055 14.4228 16.1727 14.4623 15.9852 14.4623C15.4852 14.4623 15.1259 14.5512 14.9071 14.7191C14.6962 14.8771 14.5673 15.1141 14.5165 15.4302C14.4618 15.7364 14.4384 16.2203 14.4384 16.8919V20.6252C13.4579 21.208 12.5555 21.603 11.7352 21.8302C10.9227 22.0524 9.89539 22.166 8.6571 22.166Z" fill="black"/>
</svg>
