<svg width="14" height="21" viewBox="0 0 14 21" fill="none" xmlns="http://www.w3.org/2000/svg">
<path d="M1.16772 20.6323C1.03101 20.6323 0.925537 20.5632 0.855225 20.4348C0.781006 20.2916 0.74585 20.1286 0.74585 19.9409C0.753663 19.6249 0.800537 19.4372 0.886475 19.3681C0.968506 19.3039 1.12866 19.2693 1.37085 19.2693C1.84741 19.2693 2.20288 19.1607 2.43335 18.9335C2.67163 18.7113 2.81616 18.4397 2.87085 18.1237C2.93335 17.7977 2.97241 17.3681 2.99585 16.8397V4.2965C2.97241 3.77304 2.93335 3.34341 2.87085 3.01255C2.81616 2.68662 2.67163 2.41008 2.43335 2.18292C2.20288 1.9607 1.84741 1.84712 1.37085 1.84712H1.2146C1.04663 1.84712 0.925537 1.81749 0.855225 1.74835C0.792725 1.66934 0.753663 1.48662 0.74585 1.19526C0.74585 0.997733 0.781006 0.834771 0.855225 0.701437C0.925537 0.573043 1.03101 0.503906 1.16772 0.503906C2.26929 0.558228 3.26147 0.582919 4.13648 0.582919C5.13648 0.582919 6.17554 0.558228 7.26148 0.503906C7.41773 0.503906 7.53101 0.573043 7.60523 0.701437C7.67554 0.834771 7.7146 0.997733 7.7146 1.19526C7.70288 1.51131 7.6521 1.70391 7.55835 1.7681C7.4646 1.82243 7.30835 1.84712 7.0896 1.84712C6.60913 1.84712 6.24976 1.9607 6.01148 2.18292C5.78101 2.41008 5.63648 2.68662 5.57398 3.01255C5.51929 3.34341 5.48413 3.77304 5.4646 4.2965V17.3138C5.49585 17.7484 5.53491 18.094 5.5896 18.3409C5.64038 18.578 5.79273 18.8051 6.04273 19.0126C6.29273 19.2101 6.68335 19.299 7.2146 19.2693H9.4646C10.0466 19.2446 10.488 19.1261 10.7927 18.9138C11.0935 18.6916 11.3279 18.3508 11.4959 17.8866C11.6716 17.4125 11.8865 16.6521 12.1365 15.5953C12.2615 15.2298 12.5466 15.0817 12.9959 15.1607C13.1404 15.2002 13.281 15.2891 13.4177 15.4175C13.5505 15.536 13.6091 15.694 13.5896 15.8916L13.0896 19.8619C13.0349 20.1385 12.9568 20.3261 12.8552 20.415C12.7615 20.494 12.5974 20.5335 12.3709 20.5335H4.16773C3.26929 20.5335 2.26929 20.5632 1.16772 20.6323Z" fill="black"/>
</svg>
