<svg width="21" height="22" viewBox="0 0 21 22" fill="none" xmlns="http://www.w3.org/2000/svg">
<path d="M10.281 21.0774C10.031 21.0774 9.85132 20.9688 9.74976 20.7614L4.12476 4.68237H4.04663L4.10913 17.2256C4.11694 17.7935 4.14819 18.2281 4.20288 18.5293C4.25366 18.8355 4.39038 19.0972 4.60913 19.3194C4.83569 19.5466 5.19116 19.6552 5.67163 19.6552H5.82788C5.99194 19.6552 6.11304 19.6947 6.18726 19.7737C6.25757 19.8429 6.30444 20.0256 6.32788 20.3268C6.32788 20.5145 6.28882 20.6774 6.21851 20.8206C6.14429 20.949 6.03101 21.0182 5.87476 21.0182L5.24976 20.9787C4.48804 20.9392 3.94116 20.9194 3.60913 20.9194C3.03491 20.9194 2.20679 20.949 1.12476 21.0182C0.976319 21.0182 0.863037 20.949 0.781006 20.8206C0.706787 20.6774 0.671631 20.5145 0.671631 20.3268C0.691162 20.0108 0.741943 19.8231 0.827881 19.754C0.909912 19.6898 1.06616 19.6552 1.29663 19.6552C1.78491 19.6552 2.14038 19.5466 2.35913 19.3194C2.58569 19.0972 2.72632 18.8355 2.78101 18.5293C2.83179 18.2281 2.86304 17.7935 2.87476 17.2256L2.92163 4.68237C2.92163 4.02558 2.86304 3.53176 2.74976 3.20089C2.63257 2.87497 2.46069 2.64287 2.23413 2.50953C2.01538 2.38114 1.68726 2.26262 1.24976 2.15398C1.18726 2.12929 1.08569 2.1046 0.952881 2.07497C0.816162 2.03546 0.726319 1.97126 0.687256 1.87744C0.644287 1.78855 0.624756 1.63546 0.624756 1.42311C0.624756 1.1762 0.675537 1.0083 0.781006 0.929287C0.894287 0.840399 1.06616 0.791016 1.29663 0.791016C2.28491 0.791016 3.09351 0.870028 3.71851 1.02805C4.35132 1.18608 4.90991 1.512 5.39038 1.99595C5.86694 2.47003 6.26538 3.18114 6.57788 4.12929L10.8748 16.3367H10.9529L15.8748 0.968793H17.2966C18.2107 0.968793 19.2068 0.944102 20.281 0.889781C20.4255 0.889781 20.5349 0.958917 20.6091 1.08731C20.6912 1.22065 20.7341 1.38361 20.7341 1.58114C20.7107 1.89719 20.656 2.08978 20.5623 2.15398C20.4685 2.2083 20.3162 2.23299 20.1091 2.23299C19.6169 2.23299 19.2537 2.34657 19.0154 2.56879C18.7849 2.79595 18.6404 3.0725 18.5779 3.39842C18.5232 3.72929 18.4919 4.15892 18.4841 4.68237V17.2256C18.4919 17.754 18.5232 18.1836 18.5779 18.5095C18.6404 18.8256 18.7849 19.0972 19.0154 19.3194C19.2537 19.5466 19.6169 19.6552 20.1091 19.6552H20.2498C20.406 19.6552 20.5193 19.6947 20.5935 19.7737C20.6638 19.8429 20.7107 20.0256 20.7341 20.3268C20.7341 20.5145 20.6912 20.6774 20.6091 20.8206C20.5349 20.949 20.4255 21.0182 20.281 21.0182C19.2068 20.949 18.2068 20.9194 17.281 20.9194C16.3123 20.9194 15.2849 20.949 14.2029 21.0182C14.0544 21.0182 13.9412 20.949 13.8591 20.8206C13.7849 20.6774 13.7498 20.5145 13.7498 20.3268C13.7693 20.0108 13.8201 19.8231 13.906 19.754C13.988 19.6898 14.1443 19.6552 14.3748 19.6552C14.863 19.6552 15.2224 19.5466 15.4529 19.3194C15.6794 19.0972 15.8279 18.8256 15.8904 18.5095C15.9529 18.1836 15.988 17.754 15.9998 17.2256V4.68237H15.9216L10.781 20.7614C10.7068 20.9688 10.5388 21.0774 10.281 21.0774Z" fill="black"/>
</svg>
