<svg width="14" height="21" viewBox="0 0 14 21" fill="none" xmlns="http://www.w3.org/2000/svg">
<path d="M1.14771 20.6323C1.01099 20.6323 0.905517 20.5632 0.835205 20.4348C0.760986 20.2916 0.72583 20.1286 0.72583 19.9409C0.733643 19.6249 0.780517 19.4372 0.866455 19.3681C0.948486 19.3039 1.10864 19.2693 1.35083 19.2693C1.82739 19.2693 2.18286 19.1607 2.41333 18.9335C2.65161 18.7113 2.79614 18.4397 2.85083 18.1237C2.91333 17.7977 2.95239 17.3681 2.97583 16.8397V4.2965C2.95239 3.77304 2.91333 3.34341 2.85083 3.01255C2.79614 2.68662 2.65161 2.41008 2.41333 2.18292C2.18286 1.9607 1.82739 1.84712 1.35083 1.84712H1.19458C1.02661 1.84712 0.905517 1.81749 0.835205 1.74835C0.772705 1.66934 0.733643 1.48662 0.72583 1.19526C0.72583 0.997733 0.760986 0.834771 0.835205 0.701437C0.905517 0.573043 1.01099 0.503906 1.14771 0.503906C2.24927 0.558228 3.24146 0.582919 4.11646 0.582919H11.9758C12.4016 0.582919 12.6165 0.839709 12.6165 1.35329L12.6946 5.77798C12.6946 5.96563 12.6165 6.11378 12.4602 6.2323C12.3118 6.35082 12.1672 6.41008 12.0227 6.41008C11.8235 6.41008 11.6477 6.36564 11.4915 6.27181C11.343 6.16811 11.261 6.0249 11.2415 5.83724C11.1165 4.81008 10.968 4.02983 10.804 3.48662C10.6477 2.94835 10.4133 2.54835 10.1008 2.28168C9.79614 2.01996 9.36646 1.87675 8.80396 1.84712H5.44458V9.88662H9.97583C10.0891 9.90144 10.179 9.98045 10.2415 10.1237C10.3118 10.257 10.3508 10.42 10.3508 10.6175C10.3508 10.7755 10.3118 10.9237 10.2415 11.0521C10.179 11.1854 10.0891 11.2496 9.97583 11.2496H5.44458V17.215C5.47583 17.6644 5.51489 18.02 5.56958 18.2817C5.62036 18.5484 5.77271 18.7854 6.02271 18.9928C6.27271 19.2051 6.66333 19.299 7.19458 19.2693H9.49146C10.0735 19.2446 10.5149 19.1261 10.8196 18.9138C11.1204 18.6916 11.3586 18.3508 11.5383 17.8866C11.7141 17.4125 11.929 16.6521 12.179 15.5953C12.2922 15.2298 12.5735 15.0817 13.0227 15.1607C13.1868 15.2002 13.3352 15.2891 13.4602 15.4175C13.5852 15.536 13.636 15.694 13.6165 15.8916L13.1165 19.8619C13.0735 20.1385 12.9993 20.3261 12.8977 20.415C12.7922 20.494 12.6243 20.5335 12.3977 20.5335H4.14771C3.24927 20.5335 2.24927 20.5632 1.14771 20.6323Z" fill="black"/>
</svg>
