<svg width="8" height="21" viewBox="0 0 8 21" fill="none" xmlns="http://www.w3.org/2000/svg">
<path d="M0.601563 20.4028C0.453125 20.4028 0.339844 20.3337 0.257813 20.2053C0.183594 20.0621 0.148438 19.8991 0.148438 19.7115C0.167969 19.3954 0.218751 19.2078 0.304688 19.1386C0.398438 19.0744 0.554688 19.0398 0.773438 19.0398C1.26172 19.0398 1.62109 18.9312 1.85156 18.704C2.07812 18.4818 2.22656 18.2102 2.28906 17.8942C2.35937 17.5781 2.40625 17.1534 2.42969 16.6102V4.06701C2.40625 3.51392 2.35937 3.07935 2.28906 2.7633C2.22656 2.44725 2.07812 2.18059 1.85156 1.95343C1.62109 1.7312 1.26172 1.61762 0.773438 1.61762H0.632813C0.476563 1.61762 0.359375 1.58799 0.289063 1.51886C0.214844 1.43985 0.167969 1.25713 0.148438 0.965772C0.148438 0.768241 0.183594 0.605279 0.257813 0.471945C0.339844 0.343551 0.453125 0.274414 0.601563 0.274414C1.68359 0.328735 2.67187 0.353426 3.57031 0.353426C4.57031 0.353426 5.60938 0.328735 6.69531 0.274414C6.85156 0.274414 6.96484 0.343551 7.03906 0.471945C7.10938 0.605279 7.14844 0.768241 7.14844 0.965772C7.13672 1.28182 7.08594 1.47441 6.99219 1.53861C6.89844 1.59293 6.73438 1.61762 6.50781 1.61762C6.01562 1.61762 5.65234 1.7312 5.41406 1.95343C5.18359 2.18059 5.03906 2.45713 4.97656 2.78306C4.92188 3.11392 4.89062 3.54355 4.88281 4.06701V16.6102C4.89062 17.1386 4.92188 17.5682 4.97656 17.8942C5.03906 18.2102 5.18359 18.4818 5.41406 18.704C5.65234 18.9312 6.01562 19.0398 6.50781 19.0398H6.64844C6.8125 19.0398 6.93359 19.0794 7.00781 19.1584C7.08984 19.2275 7.13672 19.4102 7.14844 19.7115C7.14844 19.8991 7.10938 20.0621 7.03906 20.2053C6.96484 20.3337 6.85156 20.4028 6.69531 20.4028C5.63281 20.3337 4.60156 20.304 3.60156 20.304C2.68359 20.304 1.68359 20.3337 0.601563 20.4028Z" fill="black"/>
</svg>
