<svg width="8" height="21" viewBox="0 0 8 21" fill="none" xmlns="http://www.w3.org/2000/svg">
<path d="M0.559937 20.4028C0.411499 20.4028 0.298218 20.3337 0.216187 20.2053C0.141968 20.0621 0.106812 19.8991 0.106812 19.7115C0.126343 19.3954 0.177125 19.2078 0.263062 19.1386C0.356812 19.0744 0.513062 19.0398 0.731812 19.0398C1.22009 19.0398 1.57947 18.9312 1.80994 18.704C2.0365 18.4818 2.18494 18.2102 2.24744 17.8942C2.31775 17.5781 2.36462 17.1534 2.38806 16.6102V4.06701C2.36462 3.51392 2.31775 3.07935 2.24744 2.7633C2.18494 2.44725 2.0365 2.18059 1.80994 1.95343C1.57947 1.7312 1.22009 1.61762 0.731812 1.61762H0.591187C0.434937 1.61762 0.317749 1.58799 0.247437 1.51886C0.173218 1.43985 0.126343 1.25713 0.106812 0.965772C0.106812 0.768241 0.141968 0.605279 0.216187 0.471945C0.298218 0.343551 0.411499 0.274414 0.559937 0.274414C1.64197 0.328735 2.63025 0.353426 3.52869 0.353426C4.52869 0.353426 5.56775 0.328735 6.65369 0.274414C6.80994 0.274414 6.92322 0.343551 6.99744 0.471945C7.06775 0.605279 7.10681 0.768241 7.10681 0.965772C7.09509 1.28182 7.04431 1.47441 6.95056 1.53861C6.85681 1.59293 6.69275 1.61762 6.46619 1.61762C5.974 1.61762 5.61072 1.7312 5.37244 1.95343C5.14197 2.18059 4.99744 2.45713 4.93494 2.78306C4.88025 3.11392 4.849 3.54355 4.84119 4.06701V16.6102C4.849 17.1386 4.88025 17.5682 4.93494 17.8942C4.99744 18.2102 5.14197 18.4818 5.37244 18.704C5.61072 18.9312 5.974 19.0398 6.46619 19.0398H6.60681C6.77088 19.0398 6.89197 19.0794 6.96619 19.1584C7.04822 19.2275 7.09509 19.4102 7.10681 19.7115C7.10681 19.8991 7.06775 20.0621 6.99744 20.2053C6.92322 20.3337 6.80994 20.4028 6.65369 20.4028C5.59119 20.3337 4.55994 20.304 3.55994 20.304C2.64197 20.304 1.64197 20.3337 0.559937 20.4028Z" fill="black"/>
</svg>
