<svg width="15" height="22" viewBox="0 0 15 22" fill="none" xmlns="http://www.w3.org/2000/svg">
<path d="M8.63513 21.9365C7.21716 21.9365 5.92029 21.5069 4.74451 20.6525C3.56482 19.7982 2.62732 18.5785 1.93201 16.9982C1.24451 15.418 0.900757 13.576 0.900757 11.4674C0.900757 9.34884 1.23279 7.47724 1.90076 5.85748C2.56482 4.22785 3.51404 2.96366 4.74451 2.06489C5.98279 1.17106 7.43201 0.72168 9.08826 0.72168C10.514 0.72168 11.7836 1.09205 12.9008 1.82785C14.0258 2.55378 14.5883 3.67477 14.5883 5.18588C14.5961 6.13403 14.3695 6.9439 13.9008 7.61551C13.4398 8.27724 12.8148 8.60316 12.0258 8.60316C11.7328 8.60316 11.4828 8.53896 11.2758 8.40563C11.0648 8.26242 10.9086 8.09946 10.807 7.9118C10.7015 7.71427 10.6586 7.56612 10.682 7.45748C10.682 7.41798 10.7953 7.30933 11.0258 7.12168C11.264 6.92415 11.4711 6.66242 11.6508 6.33156C11.8383 5.99082 11.932 5.576 11.932 5.08711C11.932 4.13896 11.6742 3.38835 11.1664 2.83526C10.6547 2.2723 9.95154 1.98588 9.05701 1.98588C8.03357 1.98588 7.12732 2.35625 6.33826 3.09205C5.54529 3.81798 4.93201 4.88464 4.49451 6.29205C4.05701 7.68958 3.83826 9.35378 3.83826 11.2896C3.83826 12.9785 4.07263 14.5093 4.54138 15.8921C5.01794 17.2649 5.68982 18.3562 6.55701 19.1711C7.42029 19.9908 8.40857 20.3958 9.52576 20.3958C10.432 20.3958 11.2015 20.1587 11.8383 19.6846C12.4828 19.2106 13.0648 18.4501 13.5883 17.3933C13.6703 17.1958 13.7836 17.097 13.932 17.097C14.0648 17.097 14.2172 17.1661 14.3851 17.2945C14.6429 17.5217 14.7758 17.7488 14.7758 17.9859C14.7758 18.1192 14.7445 18.2229 14.682 18.3019C14.0453 19.3192 13.4476 20.0797 12.8851 20.5933C12.3304 21.1069 11.7289 21.4525 11.0726 21.6402C10.4242 21.8377 9.61169 21.9365 8.63513 21.9365Z" fill="black"/>
</svg>
