<svg width="8" height="21" viewBox="0 0 8 21" fill="none" xmlns="http://www.w3.org/2000/svg">
<path d="M1.04919 20.6323C0.900756 20.6323 0.787475 20.5632 0.705444 20.4348C0.631225 20.2916 0.596069 20.1286 0.596069 19.9409C0.6156 19.6249 0.666382 19.4372 0.752319 19.3681C0.846069 19.3039 1.00232 19.2693 1.22107 19.2693C1.70935 19.2693 2.06873 19.1607 2.29919 18.9335C2.52576 18.7113 2.67419 18.4397 2.73669 18.1237C2.80701 17.8076 2.85388 17.3829 2.87732 16.8397V4.2965C2.85388 3.74341 2.80701 3.30884 2.73669 2.9928C2.67419 2.67675 2.52576 2.41008 2.29919 2.18292C2.06873 1.9607 1.70935 1.84712 1.22107 1.84712H1.08044C0.924194 1.84712 0.807006 1.81749 0.736694 1.74835C0.662475 1.66934 0.6156 1.48662 0.596069 1.19526C0.596069 0.997733 0.631225 0.834771 0.705444 0.701437C0.787475 0.573043 0.900756 0.503906 1.04919 0.503906C2.13123 0.558228 3.11951 0.582919 4.01794 0.582919C5.01794 0.582919 6.05701 0.558228 7.14295 0.503906C7.2992 0.503906 7.41248 0.573043 7.4867 0.701437C7.55701 0.834771 7.59607 0.997733 7.59607 1.19526C7.58435 1.51131 7.53357 1.70391 7.43982 1.7681C7.34607 1.82243 7.18201 1.84712 6.95545 1.84712C6.46326 1.84712 6.09998 1.9607 5.86169 2.18292C5.63123 2.41008 5.48669 2.68662 5.42419 3.01255C5.36951 3.34341 5.33826 3.77304 5.33044 4.2965V16.8397C5.33826 17.3681 5.36951 17.7977 5.42419 18.1237C5.48669 18.4397 5.63123 18.7113 5.86169 18.9335C6.09998 19.1607 6.46326 19.2693 6.95545 19.2693H7.09607C7.26013 19.2693 7.38123 19.3088 7.45545 19.3879C7.53748 19.457 7.58435 19.6397 7.59607 19.9409C7.59607 20.1286 7.55701 20.2916 7.4867 20.4348C7.41248 20.5632 7.2992 20.6323 7.14295 20.6323C6.08044 20.5632 5.04919 20.5335 4.04919 20.5335C3.13123 20.5335 2.13123 20.5632 1.04919 20.6323Z" fill="black"/>
</svg>
