<svg width="14" height="21" viewBox="0 0 14 21" fill="none" xmlns="http://www.w3.org/2000/svg">
<path d="M0.865967 20.4028C0.729248 20.4028 0.623779 20.3337 0.553467 20.2053C0.479248 20.0621 0.444092 19.8991 0.444092 19.7115C0.451905 19.3954 0.498779 19.2078 0.584717 19.1386C0.666748 19.0744 0.826905 19.0398 1.06909 19.0398C1.54565 19.0398 1.90112 18.9312 2.13159 18.704C2.36987 18.4818 2.51441 18.2102 2.56909 17.8942C2.63159 17.5682 2.67066 17.1386 2.69409 16.6102V4.06701C2.67066 3.54355 2.63159 3.11392 2.56909 2.78306C2.51441 2.45713 2.36987 2.18059 2.13159 1.95343C1.90112 1.7312 1.54565 1.61762 1.06909 1.61762H0.912842C0.744873 1.61762 0.623779 1.58799 0.553467 1.51886C0.490967 1.43985 0.451905 1.25713 0.444092 0.965772C0.444092 0.768241 0.479248 0.605279 0.553467 0.471945C0.623779 0.343551 0.729248 0.274414 0.865967 0.274414C1.96753 0.328735 2.95972 0.353426 3.83472 0.353426H11.6941C12.1199 0.353426 12.3347 0.610217 12.3347 1.1238L12.4128 5.54849C12.4128 5.73614 12.3347 5.88429 12.1785 6.00281C12.03 6.12133 11.8855 6.18059 11.741 6.18059C11.5417 6.18059 11.366 6.13614 11.2097 6.04232C11.0613 5.93861 10.9792 5.7954 10.9597 5.60775C10.8347 4.58059 10.6863 3.80034 10.5222 3.25713C10.366 2.71886 10.1316 2.31886 9.81909 2.05219C9.51441 1.79046 9.08472 1.64725 8.52222 1.61762H5.16284V9.65713H9.69409C9.80737 9.67195 9.89722 9.75096 9.95972 9.89417C10.03 10.0275 10.0691 10.1905 10.0691 10.388C10.0691 10.546 10.03 10.6942 9.95972 10.8226C9.89722 10.9559 9.80737 11.0201 9.69409 11.0201H5.16284V16.9855C5.19409 17.4349 5.23316 17.7905 5.28784 18.0522C5.33862 18.3189 5.49097 18.5559 5.74097 18.7633C5.99097 18.9757 6.38159 19.0695 6.91284 19.0398H9.20972C9.79175 19.0152 10.2332 18.8966 10.5378 18.6843C10.8386 18.4621 11.0769 18.1213 11.2566 17.6571C11.4324 17.1831 11.6472 16.4226 11.8972 15.3658C12.0105 15.0003 12.2917 14.8522 12.741 14.9312C12.905 14.9707 13.0535 15.0596 13.1785 15.188C13.3035 15.3065 13.3542 15.4645 13.3347 15.6621L12.8347 19.6324C12.7917 19.909 12.7175 20.0966 12.616 20.1855C12.5105 20.2645 12.3425 20.304 12.116 20.304H3.86597C2.96753 20.304 1.96753 20.3337 0.865967 20.4028Z" fill="black"/>
</svg>
