<svg width="15" height="22" viewBox="0 0 15 22" fill="none" xmlns="http://www.w3.org/2000/svg">
<path d="M7.87341 21.5508C6.45544 21.5508 5.15857 21.1211 3.98279 20.2668C2.8031 19.4125 1.8656 18.1927 1.17029 16.6125C0.482788 15.0322 0.139038 13.1903 0.139038 11.0816C0.139038 8.9631 0.471069 7.09149 1.13904 5.47174C1.8031 3.84211 2.75232 2.57791 3.98279 1.67915C5.22107 0.785321 6.67029 0.335938 8.32654 0.335938C9.75232 0.335938 11.0219 0.706308 12.139 1.44211C13.264 2.16804 13.8265 3.28902 13.8265 4.80014C13.8343 5.74828 13.6078 6.55816 13.139 7.22976C12.6781 7.89149 12.0531 8.21742 11.264 8.21742C10.9711 8.21742 10.7211 8.15322 10.514 8.01989C10.3031 7.87668 10.1468 7.71372 10.0453 7.52606C9.93982 7.32853 9.89685 7.18038 9.92029 7.07174C9.92029 7.03223 10.0336 6.92359 10.264 6.73594C10.5023 6.53841 10.7093 6.27668 10.889 5.94581C11.0765 5.60507 11.1703 5.19026 11.1703 4.70137C11.1703 3.75322 10.9125 3.0026 10.4047 2.44952C9.89294 1.88655 9.18982 1.60014 8.29529 1.60014C7.27185 1.60014 6.3656 1.97051 5.57654 2.70631C4.78357 3.43223 4.17029 4.4989 3.73279 5.90631C3.29529 7.30384 3.07654 8.96804 3.07654 10.9038C3.07654 12.5927 3.31091 14.1236 3.77966 15.5063C4.25623 16.8791 4.9281 17.9705 5.79529 18.7853C6.65857 19.6051 7.64685 20.01 8.76404 20.01C9.67029 20.01 10.4398 19.773 11.0765 19.2989C11.7211 18.8248 12.3031 18.0643 12.8265 17.0075C12.9086 16.81 13.0218 16.7112 13.1703 16.7112C13.3031 16.7112 13.4554 16.7804 13.6234 16.9088C13.8812 17.1359 14.014 17.3631 14.014 17.6001C14.014 17.7335 13.9828 17.8372 13.9203 17.9162C13.2836 18.9335 12.6859 19.694 12.1234 20.2075C11.5687 20.7211 10.9672 21.0668 10.3109 21.2545C9.66248 21.452 8.84998 21.5508 7.87341 21.5508Z" fill="black"/>
</svg>
