<svg width="16" height="22" viewBox="0 0 16 22" fill="none" xmlns="http://www.w3.org/2000/svg">
<path d="M0.415039 21.018C0.27832 21.018 0.172851 20.9489 0.102539 20.8205C0.0283201 20.6773 -0.00683594 20.5143 -0.00683594 20.3267C0.000977063 20.0106 0.0478511 19.823 0.133789 19.7538C0.21582 19.6897 0.375977 19.6551 0.618164 19.6551C1.09473 19.6551 1.4502 19.5464 1.68066 19.3193C1.91895 19.0971 2.06348 18.8255 2.11816 18.5094C2.18066 18.1835 2.21973 17.7538 2.24316 17.2255V4.68224C2.21973 4.15879 2.18066 3.72916 2.11816 3.39829C2.06348 3.07236 1.91895 2.79582 1.68066 2.56866C1.4502 2.34644 1.09473 2.23286 0.618164 2.23286H0.461914C0.293945 2.23286 0.172851 2.20323 0.102539 2.13409C0.0400391 2.05508 0.000977063 1.87236 -0.00683594 1.58101C-0.00683594 1.38348 0.0283201 1.22051 0.102539 1.08718C0.172851 0.958785 0.27832 0.889648 0.415039 0.889648C1.5166 0.94397 2.50879 0.968661 3.38379 0.968661H7.29004C8.8916 0.968661 10.3447 1.37854 11.6494 2.19335C12.9619 3.01311 13.9932 4.17854 14.7432 5.68965C15.501 7.2057 15.8838 8.99829 15.8838 11.0625C15.8838 13.2106 15.4541 15.0279 14.6025 16.5143C13.7471 18.0057 12.6338 19.1119 11.2588 19.8329C9.88379 20.5588 8.40723 20.9193 6.83691 20.9193H3.38379C2.50879 20.9193 1.5166 20.9489 0.415039 21.018ZM7.21191 19.7538C9.15723 19.7538 10.5869 18.9934 11.4932 17.4625C12.4072 15.9366 12.8682 13.8032 12.8682 11.0625C12.8682 9.33903 12.6182 7.79829 12.1182 6.44027C11.626 5.07237 10.915 4.01064 9.97754 3.26002C9.04785 2.49953 7.94629 2.11434 6.66504 2.11434L4.71191 2.15385V17.6008C4.71191 18.4205 4.90332 18.9835 5.29004 19.2995C5.68457 19.6057 6.3252 19.7538 7.21191 19.7538Z" fill="black"/>
</svg>
