<svg width="8" height="21" viewBox="0 0 8 21" fill="none" xmlns="http://www.w3.org/2000/svg">
<path d="M1.29993 20.6323C1.15149 20.6323 1.03821 20.5632 0.956177 20.4348C0.881958 20.2916 0.846802 20.1286 0.846802 19.9409C0.866333 19.6249 0.917115 19.4372 1.00305 19.3681C1.0968 19.3039 1.25305 19.2693 1.4718 19.2693C1.96008 19.2693 2.31946 19.1607 2.54993 18.9335C2.77649 18.7113 2.92493 18.4397 2.98743 18.1237C3.05774 17.8076 3.10461 17.3829 3.12805 16.8397V4.2965C3.10461 3.74341 3.05774 3.30884 2.98743 2.9928C2.92493 2.67675 2.77649 2.41008 2.54993 2.18292C2.31946 1.9607 1.96008 1.84712 1.4718 1.84712H1.33118C1.17493 1.84712 1.05774 1.81749 0.987427 1.74835C0.913208 1.66934 0.866333 1.48662 0.846802 1.19526C0.846802 0.997733 0.881958 0.834771 0.956177 0.701437C1.03821 0.573043 1.15149 0.503906 1.29993 0.503906C2.38196 0.558228 3.37024 0.582919 4.26868 0.582919C5.26868 0.582919 6.30774 0.558228 7.39368 0.503906C7.54993 0.503906 7.66321 0.573043 7.73743 0.701437C7.80774 0.834771 7.8468 0.997733 7.8468 1.19526C7.83508 1.51131 7.7843 1.70391 7.69055 1.7681C7.5968 1.82243 7.43274 1.84712 7.20618 1.84712C6.71399 1.84712 6.35071 1.9607 6.11243 2.18292C5.88196 2.41008 5.73743 2.68662 5.67493 3.01255C5.62024 3.34341 5.58899 3.77304 5.58118 4.2965V16.8397C5.58899 17.3681 5.62024 17.7977 5.67493 18.1237C5.73743 18.4397 5.88196 18.7113 6.11243 18.9335C6.35071 19.1607 6.71399 19.2693 7.20618 19.2693H7.3468C7.51087 19.2693 7.63196 19.3088 7.70618 19.3879C7.78821 19.457 7.83508 19.6397 7.8468 19.9409C7.8468 20.1286 7.80774 20.2916 7.73743 20.4348C7.66321 20.5632 7.54993 20.6323 7.39368 20.6323C6.33118 20.5632 5.29993 20.5335 4.29993 20.5335C3.38196 20.5335 2.38196 20.5632 1.29993 20.6323Z" fill="black"/>
</svg>
