<svg width="8" height="21" viewBox="0 0 8 21" fill="none" xmlns="http://www.w3.org/2000/svg">
<path d="M1.29895 20.4028C1.15051 20.4028 1.03723 20.3337 0.9552 20.2053C0.880981 20.0621 0.845825 19.8991 0.845825 19.7115C0.865356 19.3954 0.916138 19.2078 1.00208 19.1386C1.09583 19.0744 1.25208 19.0398 1.47083 19.0398C1.95911 19.0398 2.31848 18.9312 2.54895 18.704C2.77551 18.4818 2.92395 18.2102 2.98645 17.8942C3.05676 17.5781 3.10364 17.1534 3.12708 16.6102V4.06701C3.10364 3.51392 3.05676 3.07935 2.98645 2.7633C2.92395 2.44725 2.77551 2.18059 2.54895 1.95343C2.31848 1.7312 1.95911 1.61762 1.47083 1.61762H1.3302C1.17395 1.61762 1.05676 1.58799 0.98645 1.51886C0.912231 1.43985 0.865356 1.25713 0.845825 0.965772C0.845825 0.768241 0.880981 0.605279 0.9552 0.471945C1.03723 0.343551 1.15051 0.274414 1.29895 0.274414C2.38098 0.328735 3.36926 0.353426 4.2677 0.353426C5.2677 0.353426 6.30676 0.328735 7.3927 0.274414C7.54895 0.274414 7.66223 0.343551 7.73645 0.471945C7.80676 0.605279 7.84583 0.768241 7.84583 0.965772C7.83411 1.28182 7.78333 1.47441 7.68958 1.53861C7.59583 1.59293 7.43176 1.61762 7.2052 1.61762C6.71301 1.61762 6.34973 1.7312 6.11145 1.95343C5.88098 2.18059 5.73645 2.45713 5.67395 2.78306C5.61926 3.11392 5.58801 3.54355 5.5802 4.06701V16.6102C5.58801 17.1386 5.61926 17.5682 5.67395 17.8942C5.73645 18.2102 5.88098 18.4818 6.11145 18.704C6.34973 18.9312 6.71301 19.0398 7.2052 19.0398H7.34583C7.50989 19.0398 7.63098 19.0794 7.7052 19.1584C7.78723 19.2275 7.83411 19.4102 7.84583 19.7115C7.84583 19.8991 7.80676 20.0621 7.73645 20.2053C7.66223 20.3337 7.54895 20.4028 7.3927 20.4028C6.3302 20.3337 5.29895 20.304 4.29895 20.304C3.38098 20.304 2.38098 20.3337 1.29895 20.4028Z" fill="black"/>
</svg>
