<svg width="18" height="21" viewBox="0 0 18 21" fill="none" xmlns="http://www.w3.org/2000/svg">
<path d="M0.475342 20.4028C0.319092 20.4028 0.201904 20.3337 0.131592 20.2053C0.0573728 20.0621 0.0222168 19.8991 0.0222168 19.7115C0.0300298 19.3954 0.0769038 19.2078 0.162842 19.1386C0.244873 19.0744 0.40503 19.0398 0.647217 19.0398C1.12378 19.0398 1.47925 18.9312 1.70972 18.704C1.948 18.4818 2.09253 18.2102 2.14722 17.8942C2.20972 17.5682 2.24878 17.1386 2.27222 16.6102V4.06701C2.24878 3.54355 2.20972 3.11392 2.14722 2.78306C2.09253 2.45713 1.948 2.18059 1.70972 1.95343C1.47925 1.7312 1.12378 1.61762 0.647217 1.61762H0.490967C0.322998 1.61762 0.201904 1.58799 0.131592 1.51886C0.0690918 1.43985 0.0300298 1.25713 0.0222168 0.965772C0.0222168 0.768241 0.0573728 0.605279 0.131592 0.471945C0.201904 0.343551 0.319092 0.274414 0.475342 0.274414C1.55737 0.328735 2.53784 0.353426 3.41284 0.353426C4.41284 0.353426 5.4519 0.328735 6.53784 0.274414C6.69409 0.274414 6.80737 0.343551 6.88159 0.471945C6.9519 0.605279 6.99097 0.768241 6.99097 0.965772C6.97925 1.28182 6.93237 1.47441 6.85034 1.53861C6.7644 1.59293 6.60425 1.61762 6.36597 1.61762C5.8855 1.61762 5.52612 1.7312 5.28784 1.95343C5.05737 2.18059 4.91284 2.45713 4.85034 2.78306C4.79565 3.11392 4.7605 3.54355 4.74097 4.06701V9.65713H12.6003V4.06701C12.5769 3.54355 12.5378 3.11392 12.4753 2.78306C12.4207 2.45713 12.2761 2.18059 12.0378 1.95343C11.8074 1.7312 11.4519 1.61762 10.9753 1.61762H10.8191C10.6511 1.61762 10.53 1.58799 10.4597 1.51886C10.3855 1.43985 10.3386 1.25713 10.3191 0.965772C10.3191 0.768241 10.3582 0.605279 10.4441 0.471945C10.5261 0.343551 10.6355 0.274414 10.7722 0.274414C11.8542 0.328735 12.8972 0.353426 13.8972 0.353426C14.8113 0.353426 15.8035 0.328735 16.866 0.274414C17.0222 0.274414 17.1355 0.343551 17.2097 0.471945C17.28 0.605279 17.3191 0.768241 17.3191 0.965772C17.2957 1.28182 17.241 1.47441 17.1472 1.53861C17.0613 1.59293 16.9128 1.61762 16.6941 1.61762C16.2136 1.61762 15.8503 1.7312 15.6003 1.95343C15.3582 2.18059 15.2097 2.45713 15.1472 2.78306C15.0925 3.11392 15.0574 3.54355 15.0378 4.06701V16.6102C15.0574 17.1386 15.0925 17.5682 15.1472 17.8942C15.2097 18.2102 15.3582 18.4818 15.6003 18.704C15.8503 18.9312 16.2136 19.0398 16.6941 19.0398H16.8503C16.9949 19.0398 17.1042 19.0794 17.1785 19.1584C17.2488 19.2275 17.2957 19.4102 17.3191 19.7115C17.3191 19.8991 17.28 20.0621 17.2097 20.2053C17.1355 20.3337 17.0222 20.4028 16.866 20.4028C15.8035 20.3337 14.8035 20.304 13.866 20.304C12.8855 20.304 11.8542 20.3337 10.7722 20.4028C10.6355 20.4028 10.5261 20.3337 10.4441 20.2053C10.3582 20.0621 10.3191 19.8991 10.3191 19.7115C10.3386 19.3954 10.3894 19.2078 10.4753 19.1386C10.5691 19.0744 10.7332 19.0398 10.9753 19.0398C11.4519 19.0398 11.8074 18.9312 12.0378 18.704C12.2761 18.4818 12.4207 18.2102 12.4753 17.8942C12.5378 17.5682 12.5769 17.1386 12.6003 16.6102V11.0201H4.74097V16.6102C4.7605 17.1386 4.79565 17.5682 4.85034 17.8942C4.91284 18.2102 5.05737 18.4818 5.28784 18.704C5.52612 18.9312 5.8855 19.0398 6.36597 19.0398H6.52222C6.68628 19.0398 6.80347 19.0794 6.86597 19.1584C6.93628 19.2275 6.97925 19.4102 6.99097 19.7115C6.99097 19.8991 6.9519 20.0621 6.88159 20.2053C6.80737 20.3337 6.69409 20.4028 6.53784 20.4028C5.47534 20.3337 4.44409 20.304 3.44409 20.304C2.54565 20.304 1.55737 20.3337 0.475342 20.4028Z" fill="black"/>
</svg>
