<svg width="15" height="21" viewBox="0 0 15 21" fill="none" xmlns="http://www.w3.org/2000/svg">
<path d="M4.27112 20.6324C4.12268 20.6324 4.01331 20.5633 3.94299 20.4349C3.86877 20.2917 3.83362 20.1287 3.83362 19.941C3.84143 19.625 3.88831 19.4373 3.97424 19.3682C4.05627 19.304 4.21643 19.2694 4.45862 19.2694C4.93518 19.2694 5.29065 19.1608 5.52112 18.9336C5.7594 18.7114 5.90393 18.4398 5.95862 18.1237C6.02112 17.7978 6.06018 17.3682 6.08362 16.8398V1.76819H4.34924C3.78674 1.78301 3.34924 1.93609 3.03674 2.22251C2.73206 2.49906 2.49768 2.92375 2.33362 3.48671C2.17737 4.0398 2.04065 4.8398 1.92737 5.87684C1.90393 6.03486 1.80237 6.16819 1.61487 6.2719C1.43518 6.38054 1.24768 6.42992 1.05237 6.42992C0.90393 6.42992 0.771118 6.38054 0.646118 6.2719C0.521118 6.15338 0.458618 5.99535 0.458618 5.79782L0.521118 1.35338C0.521118 0.839798 0.74768 0.583008 1.20862 0.583008H13.4274C13.8649 0.583008 14.0836 0.839798 14.0836 1.35338L14.1774 5.79782C14.1774 5.99535 14.1071 6.15338 13.9742 6.2719C13.8375 6.38054 13.6969 6.42992 13.5524 6.42992C13.3532 6.42992 13.1657 6.38054 12.9899 6.2719C12.8102 6.16819 12.7164 6.03486 12.7086 5.87684C12.5719 4.82498 12.4274 4.02005 12.2711 3.46696C12.1227 2.91387 11.8883 2.49906 11.568 2.22251C11.2555 1.93609 10.818 1.78301 10.2555 1.76819H8.55237V16.8398C8.5719 17.3682 8.60706 17.7978 8.66174 18.1237C8.72424 18.4398 8.86878 18.7114 9.09924 18.9336C9.33753 19.1608 9.6969 19.2694 10.1774 19.2694H10.3336C10.4782 19.2694 10.5875 19.3089 10.6617 19.3879C10.7321 19.4571 10.7789 19.6398 10.8024 19.941C10.8024 20.1287 10.7633 20.2917 10.693 20.4349C10.6188 20.5633 10.5055 20.6324 10.3492 20.6324C9.28674 20.5633 8.30237 20.5336 7.39612 20.5336C6.39612 20.5336 5.35315 20.5633 4.27112 20.6324Z" fill="black"/>
</svg>
