<svg width="17" height="23" viewBox="0 0 17 23" fill="none" xmlns="http://www.w3.org/2000/svg">
<path d="M8.28931 22.166C6.84009 22.166 5.52759 21.7808 4.35181 21.0203C3.18384 20.245 2.25806 19.0746 1.57056 17.5043C0.883057 15.9388 0.539307 14.003 0.539307 11.6969C0.539307 9.57833 0.906495 7.70673 1.64868 6.08697C2.39868 4.45735 3.42993 3.19315 4.74243 2.29438C6.06274 1.40055 7.57446 0.951172 9.27368 0.951172C10.1057 0.951172 10.9299 1.1092 11.7424 1.42525C12.5627 1.7413 13.2424 2.245 13.7737 2.92648C14.3049 3.59809 14.5706 4.42772 14.5706 5.41537C14.5706 6.33883 14.3518 7.14377 13.9143 7.82525C13.4846 8.49685 12.9143 8.83265 12.1956 8.83265C11.8401 8.83265 11.5002 8.72895 11.1799 8.5166C10.8557 8.3092 10.6838 8.03265 10.6643 7.68697C10.6643 7.6771 10.7776 7.56352 11.0081 7.35117C11.2346 7.14377 11.4456 6.85735 11.6331 6.50179C11.8206 6.13636 11.9143 5.70179 11.9143 5.19809C11.9143 4.31907 11.637 3.59809 11.0862 3.045C10.5432 2.49191 9.84009 2.21537 8.97681 2.21537C7.93384 2.21537 6.99634 2.58574 6.16431 3.32154C5.32837 4.04747 4.67212 5.11414 4.19556 6.52154C3.71509 7.91907 3.47681 9.58327 3.47681 11.5191C3.47681 13.3907 3.71118 15.0104 4.17993 16.3783C4.65649 17.7512 5.32446 18.803 6.17993 19.5388C7.04321 20.2648 8.03931 20.6252 9.16431 20.6252C9.70337 20.6252 10.1721 20.5857 10.5706 20.5067C10.9651 20.4277 11.3987 20.2993 11.8674 20.1117V16.8919C11.8674 16.1561 11.844 15.6425 11.8049 15.3512C11.762 15.0499 11.6252 14.8277 11.3987 14.6796C11.1799 14.5364 10.8049 14.4623 10.2737 14.4623C10.0862 14.4623 9.94946 14.4228 9.86743 14.3438C9.7815 14.2648 9.73462 14.082 9.72681 13.7907C9.72681 13.608 9.76587 13.4499 9.85181 13.3166C9.94556 13.1734 10.0745 13.0993 10.2424 13.0993C11.2932 13.1685 12.2112 13.1981 12.9924 13.1981C13.7424 13.1981 14.6409 13.1685 15.6956 13.0993C15.8401 13.0993 15.9534 13.1734 16.0393 13.3166C16.1213 13.4499 16.1643 13.608 16.1643 13.7907C16.1526 14.082 16.1057 14.2648 16.0237 14.3438C15.9377 14.4228 15.8049 14.4623 15.6174 14.4623C15.1174 14.4623 14.7581 14.5512 14.5393 14.7191C14.3284 14.8771 14.1995 15.1141 14.1487 15.4302C14.094 15.7364 14.0706 16.2203 14.0706 16.8919V20.6252C13.0901 21.208 12.1877 21.603 11.3674 21.8302C10.5549 22.0524 9.52759 22.166 8.28931 22.166Z" fill="black"/>
</svg>
