<svg width="16" height="19" viewBox="0 0 16 19" fill="none" xmlns="http://www.w3.org/2000/svg">
<path d="M7.98254 18.9514C6.60754 18.9514 5.37317 18.586 4.27942 17.8453C3.19348 17.1095 2.34192 16.0576 1.71692 14.6848C1.09192 13.3169 0.779419 11.7169 0.779419 9.88476C0.779419 8.06748 1.09192 6.46748 1.71692 5.08476C2.34973 3.70204 3.22082 2.64525 4.32629 1.90451C5.42786 1.16871 6.66223 0.79834 8.02942 0.79834C9.3927 0.79834 10.6232 1.16871 11.7169 1.90451C12.8185 2.64525 13.6896 3.70204 14.3263 5.08476C14.9591 6.46748 15.2794 8.06748 15.2794 9.88476C15.2794 11.6922 14.9552 13.2823 14.3107 14.665C13.674 16.0477 12.799 17.1095 11.6857 17.8453C10.5802 18.586 9.34583 18.9514 7.98254 18.9514ZM7.98254 14.2699C8.79504 14.2699 9.48645 13.8946 10.0607 13.144C10.631 12.3835 10.92 11.2971 10.92 9.88476C10.92 8.46254 10.6388 7.37612 10.0763 6.6255C9.52161 5.86501 8.84192 5.47982 8.02942 5.47982C7.19348 5.47982 6.50208 5.85513 5.95129 6.60575C5.39661 7.35636 5.12317 8.45266 5.12317 9.88476C5.12317 11.2971 5.3927 12.3835 5.93567 13.144C6.47473 13.8946 7.15833 14.2699 7.98254 14.2699Z" fill="white"/>
</svg>
