<svg width="17" height="21" viewBox="0 0 17 21" fill="none" xmlns="http://www.w3.org/2000/svg">
<path d="M0.532471 20.6324C0.384034 20.6324 0.270752 20.5633 0.188721 20.4349C0.114502 20.2917 0.0793457 20.1287 0.0793457 19.9411C0.0988767 19.625 0.149658 19.4374 0.235596 19.3682C0.317627 19.304 0.473877 19.2695 0.704346 19.2695C1.19263 19.2695 1.5481 19.1608 1.76685 18.9337C1.99341 18.7114 2.13403 18.4497 2.18872 18.1435C2.2395 17.8423 2.27075 17.4077 2.28247 16.8398L2.32935 4.29663C2.32935 3.66453 2.27466 3.18552 2.1731 2.85466C2.06763 2.52873 1.89575 2.29169 1.65747 2.14355C1.427 2.00034 1.09497 1.87688 0.657471 1.76824C0.376221 1.70404 0.196534 1.63984 0.126221 1.57071C0.0637207 1.50651 0.0324707 1.32873 0.0324707 1.03737C0.0324707 0.790458 0.0832517 0.622557 0.188721 0.543545C0.302002 0.454657 0.473877 0.405273 0.704346 0.405273C1.74341 0.405273 2.56372 0.499101 3.15747 0.681817C3.75903 0.854656 4.29028 1.17071 4.75122 1.62996C5.20825 2.09416 5.71216 2.7954 6.26685 3.74355L13.1106 15.1213H13.1887L13.1418 4.29663C13.1184 3.71885 13.0833 3.27935 13.0325 2.97317C12.9778 2.67194 12.8372 2.41021 12.6106 2.18305C12.3918 1.96083 12.0403 1.84725 11.5637 1.84725H11.4075C11.2395 1.84725 11.1184 1.81762 11.0481 1.74848C10.9739 1.66947 10.927 1.48676 10.9075 1.1954C10.9075 0.997866 10.9465 0.834903 11.0325 0.70157C11.1145 0.573175 11.2239 0.504039 11.3606 0.504039C12.4231 0.55836 13.2239 0.583051 13.7668 0.583051C14.0793 0.583051 14.6809 0.563298 15.5793 0.523792L16.1106 0.504039C16.2551 0.504039 16.3645 0.573175 16.4387 0.70157C16.5208 0.834903 16.5637 0.997866 16.5637 1.1954C16.5403 1.51145 16.4895 1.70404 16.4075 1.76824C16.3215 1.82256 16.1653 1.84725 15.9387 1.84725C15.4465 1.84725 15.0872 1.96083 14.8606 2.18305C14.6418 2.41021 14.5051 2.67194 14.4543 2.97317C14.4114 3.27935 14.3801 3.71885 14.3606 4.29663L14.3137 20.2176C14.2903 20.4942 14.0833 20.6324 13.6887 20.6324C13.3645 20.6324 13.1184 20.4942 12.9543 20.2176L3.53247 4.29663H3.45435L3.51685 16.8398C3.52466 17.4077 3.55591 17.8423 3.6106 18.1435C3.66138 18.4497 3.7981 18.7114 4.01685 18.9337C4.24341 19.1608 4.59888 19.2695 5.07935 19.2695H5.2356C5.39966 19.2695 5.52075 19.309 5.59497 19.388C5.66528 19.4571 5.71216 19.6398 5.7356 19.9411C5.7356 20.1287 5.69653 20.2917 5.62622 20.4349C5.552 20.5633 5.43872 20.6324 5.28247 20.6324C4.21997 20.5633 3.41138 20.5337 2.8606 20.5337C2.52466 20.5337 1.94263 20.5534 1.1106 20.5929L0.532471 20.6324Z" fill="black"/>
</svg>
