<svg width="18" height="21" viewBox="0 0 18 21" fill="none" xmlns="http://www.w3.org/2000/svg">
<path d="M0.992065 20.4029C0.843628 20.4029 0.730346 20.3338 0.648315 20.2054C0.574096 20.0622 0.53894 19.8992 0.53894 19.7116C0.558471 19.3955 0.609252 19.2079 0.69519 19.1387C0.777221 19.0745 0.933471 19.04 1.16394 19.04C1.65222 19.04 2.00769 18.9313 2.22644 18.7042C2.453 18.482 2.59363 18.2202 2.64832 17.9141C2.6991 17.6128 2.73035 17.1783 2.74207 16.6103L2.78894 4.06714C2.78894 3.43504 2.73425 2.95603 2.63269 2.62516C2.52722 2.29924 2.35535 2.0622 2.11707 1.91405C1.8866 1.77084 1.55457 1.64739 1.11707 1.53874C0.835815 1.47455 0.656128 1.41035 0.585815 1.34121C0.523315 1.27702 0.492065 1.09924 0.492065 0.80788C0.492065 0.560966 0.542846 0.393065 0.648315 0.314053C0.761596 0.225165 0.933471 0.175781 1.16394 0.175781C2.203 0.175781 3.02332 0.269609 3.61707 0.452324C4.21863 0.625164 4.74988 0.941214 5.21082 1.40047C5.66785 1.86467 6.17175 2.5659 6.72644 3.51405L13.5702 14.8918H13.6483L13.6014 4.06714C13.578 3.48936 13.5428 3.04985 13.4921 2.74368C13.4374 2.44245 13.2968 2.18072 13.0702 1.95356C12.8514 1.73134 12.4999 1.61776 12.0233 1.61776H11.8671C11.6991 1.61776 11.578 1.58813 11.5077 1.51899C11.4335 1.43998 11.3866 1.25726 11.3671 0.965905C11.3671 0.768374 11.4061 0.605411 11.4921 0.472078C11.5741 0.343683 11.6835 0.274547 11.8202 0.274547C12.8827 0.328868 13.6835 0.353559 14.2264 0.353559C14.5389 0.353559 15.1405 0.333806 16.0389 0.2943L16.5702 0.274547C16.7147 0.274547 16.8241 0.343683 16.8983 0.472078C16.9803 0.605411 17.0233 0.768374 17.0233 0.965905C16.9999 1.28195 16.9491 1.47455 16.8671 1.53874C16.7811 1.59307 16.6249 1.61776 16.3983 1.61776C15.9061 1.61776 15.5468 1.73134 15.3202 1.95356C15.1014 2.18072 14.9647 2.44245 14.9139 2.74368C14.871 3.04985 14.8397 3.48936 14.8202 4.06714L14.7733 19.9881C14.7499 20.2647 14.5428 20.4029 14.1483 20.4029C13.8241 20.4029 13.578 20.2647 13.4139 19.9881L3.99207 4.06714H3.91394L3.97644 16.6103C3.98425 17.1783 4.0155 17.6128 4.07019 17.9141C4.12097 18.2202 4.25769 18.482 4.47644 18.7042C4.703 18.9313 5.05847 19.04 5.53894 19.04H5.69519C5.85925 19.04 5.98035 19.0795 6.05457 19.1585C6.12488 19.2276 6.17175 19.4104 6.19519 19.7116C6.19519 19.8992 6.15613 20.0622 6.08582 20.2054C6.0116 20.3338 5.89832 20.4029 5.74207 20.4029C4.67957 20.3338 3.87097 20.3042 3.32019 20.3042C2.98425 20.3042 2.40222 20.3239 1.57019 20.3634L0.992065 20.4029Z" fill="black"/>
</svg>
