<svg width="17" height="22" viewBox="0 0 17 22" fill="none" xmlns="http://www.w3.org/2000/svg">
<path d="M8.23657 21.9365C6.65063 21.9365 5.2561 21.4525 4.04907 20.4945C2.83813 19.5365 1.90063 18.2624 1.23657 16.6822C0.580322 15.1019 0.252197 13.413 0.252197 11.6056C0.252197 9.39328 0.646728 7.46736 1.4397 5.81798C2.22876 4.17353 3.24048 2.91427 4.47095 2.04514C5.70923 1.16612 6.96313 0.72168 8.23657 0.72168C9.83032 0.72168 11.2366 1.20563 12.4553 2.16366C13.6819 3.12662 14.6272 4.39082 15.2834 5.95625C15.9475 7.52662 16.2834 9.21551 16.2834 11.0328C16.2834 13.2451 15.8811 15.1809 15.0803 16.8402C14.2756 18.4896 13.2522 19.7538 12.0022 20.6328C10.7522 21.5019 9.49438 21.9365 8.23657 21.9365ZM8.20532 20.5538C9.33813 20.5538 10.2834 20.1291 11.0334 19.2698C11.7913 18.4155 12.3616 17.2698 12.7366 15.8328C13.1116 14.3859 13.2991 12.7859 13.2991 11.0328C13.2991 9.41304 13.1038 7.92662 12.7209 6.56859C12.3459 5.20069 11.7717 4.11427 11.0022 3.30933C10.2405 2.49452 9.30688 2.08464 8.20532 2.08464C6.53735 2.08464 5.28345 2.98341 4.4397 4.77106C3.59595 6.54884 3.17407 8.79575 3.17407 11.5069C3.17407 13.1562 3.36157 14.6624 3.73657 16.0303C4.11157 17.4032 4.67407 18.4995 5.42407 19.3291C6.17407 20.1488 7.09985 20.5538 8.20532 20.5538Z" fill="black"/>
</svg>
