<svg width="14" height="21" viewBox="0 0 14 21" fill="none" xmlns="http://www.w3.org/2000/svg">
<path d="M0.594605 20.4028C0.457886 20.4028 0.352417 20.3337 0.282105 20.2053C0.207885 20.0621 0.172729 19.8991 0.172729 19.7115C0.180542 19.3954 0.227417 19.2078 0.313355 19.1386C0.395386 19.0744 0.555543 19.0398 0.79773 19.0398C1.27429 19.0398 1.62976 18.9312 1.86023 18.704C2.09851 18.4818 2.24304 18.2102 2.29773 17.8942C2.36023 17.5682 2.39929 17.1386 2.42273 16.6102V4.06701C2.39929 3.54355 2.36023 3.11392 2.29773 2.78306C2.24304 2.45713 2.09851 2.18059 1.86023 1.95343C1.62976 1.7312 1.27429 1.61762 0.79773 1.61762H0.64148C0.473511 1.61762 0.352417 1.58799 0.282105 1.51886C0.219604 1.43985 0.180542 1.25713 0.172729 0.965772C0.172729 0.768241 0.207885 0.605279 0.282105 0.471945C0.352417 0.343551 0.457886 0.274414 0.594605 0.274414C1.69617 0.328735 2.68835 0.353426 3.56335 0.353426H11.4227C11.8485 0.353426 12.0634 0.610217 12.0634 1.1238L12.1415 5.54849C12.1415 5.73614 12.0634 5.88429 11.9071 6.00281C11.7587 6.12133 11.6141 6.18059 11.4696 6.18059C11.2704 6.18059 11.0946 6.13614 10.9384 6.04232C10.7899 5.93861 10.7079 5.7954 10.6884 5.60775C10.5634 4.58059 10.4149 3.80034 10.2509 3.25713C10.0946 2.71886 9.86023 2.31886 9.54773 2.05219C9.24304 1.79046 8.81336 1.64725 8.25086 1.61762H4.89148V9.65713H9.42273C9.53601 9.67195 9.62586 9.75096 9.68836 9.89417C9.75867 10.0275 9.79773 10.1905 9.79773 10.388C9.79773 10.546 9.75867 10.6942 9.68836 10.8226C9.62586 10.9559 9.53601 11.0201 9.42273 11.0201H4.89148V16.9855C4.92273 17.4349 4.96179 17.7905 5.01648 18.0522C5.06726 18.3189 5.2196 18.5559 5.4696 18.7633C5.7196 18.9757 6.11023 19.0695 6.64148 19.0398H8.93836C9.52039 19.0152 9.96179 18.8966 10.2665 18.6843C10.5673 18.4621 10.8055 18.1213 10.9852 17.6571C11.161 17.1831 11.3759 16.4226 11.6259 15.3658C11.7391 15.0003 12.0204 14.8522 12.4696 14.9312C12.6337 14.9707 12.7821 15.0596 12.9071 15.188C13.0321 15.3065 13.0829 15.4645 13.0634 15.6621L12.5634 19.6324C12.5204 19.909 12.4462 20.0966 12.3446 20.1855C12.2391 20.2645 12.0712 20.304 11.8446 20.304H3.5946C2.69617 20.304 1.69617 20.3337 0.594605 20.4028Z" fill="black"/>
</svg>
