<svg width="15" height="22" viewBox="0 0 15 22" fill="none" xmlns="http://www.w3.org/2000/svg">
<path d="M4.16638 21.0181C4.01794 21.0181 3.90857 20.949 3.83826 20.8206C3.76404 20.6774 3.72888 20.5144 3.72888 20.3268C3.73669 20.0107 3.78357 19.8231 3.86951 19.7539C3.95154 19.6897 4.11169 19.6552 4.35388 19.6552C4.83044 19.6552 5.18591 19.5465 5.41638 19.3194C5.65466 19.0971 5.79919 18.8255 5.85388 18.5095C5.91638 18.1836 5.95544 17.7539 5.97888 17.2255V2.15394H4.24451C3.68201 2.16875 3.24451 2.32184 2.93201 2.60826C2.62732 2.8848 2.39294 3.30949 2.22888 3.87245C2.07263 4.42554 1.93591 5.22554 1.82263 6.26258C1.79919 6.4206 1.69763 6.55394 1.51013 6.65764C1.33044 6.76628 1.14294 6.81566 0.947632 6.81566C0.799194 6.81566 0.666382 6.76628 0.541382 6.65764C0.416382 6.53912 0.353882 6.3811 0.353882 6.18357L0.416382 1.73912C0.416382 1.22554 0.642944 0.96875 1.10388 0.96875H13.3226C13.7601 0.96875 13.9789 1.22554 13.9789 1.73912L14.0726 6.18357C14.0726 6.3811 14.0023 6.53912 13.8695 6.65764C13.7328 6.76628 13.5922 6.81566 13.4476 6.81566C13.2484 6.81566 13.0609 6.76628 12.8851 6.65764C12.7054 6.55394 12.6117 6.4206 12.6039 6.26258C12.4672 5.21073 12.3226 4.40579 12.1664 3.8527C12.0179 3.29961 11.7836 2.8848 11.4633 2.60826C11.1508 2.32184 10.7133 2.16875 10.1508 2.15394H8.44763V17.2255C8.46716 17.7539 8.50232 18.1836 8.55701 18.5095C8.61951 18.8255 8.76404 19.0971 8.99451 19.3194C9.23279 19.5465 9.59216 19.6552 10.0726 19.6552H10.2289C10.3734 19.6552 10.4828 19.6947 10.557 19.7737C10.6273 19.8428 10.6742 20.0255 10.6976 20.3268C10.6976 20.5144 10.6586 20.6774 10.5883 20.8206C10.514 20.949 10.4008 21.0181 10.2445 21.0181C9.18201 20.949 8.19763 20.9194 7.29138 20.9194C6.29138 20.9194 5.24841 20.949 4.16638 21.0181Z" fill="black"/>
</svg>
