<svg width="38" height="48" viewBox="0 0 38 48" fill="none" xmlns="http://www.w3.org/2000/svg">
<path d="M18.4364 47.3116C14.9364 47.3116 11.788 46.3733 8.9989 44.4869C6.20593 42.5906 4.00671 39.8943 2.40515 36.3881C0.811401 32.8869 0.0145264 28.7832 0.0145264 24.0819C0.0145264 19.4498 0.819213 15.3659 2.4364 11.835C4.0614 8.29429 6.28015 5.58318 9.09265 3.69676C11.913 1.81528 15.077 0.87207 18.577 0.87207C22.0653 0.87207 25.2177 1.81528 28.0302 3.69676C30.8505 5.58318 33.0692 8.29429 34.6864 11.835C36.3114 15.3659 37.1239 19.4498 37.1239 24.0819C37.1239 28.719 36.2997 32.8079 34.6552 36.3486C33.0184 39.8795 30.7802 42.5906 27.9364 44.4869C25.1005 46.3733 21.9364 47.3116 18.4364 47.3116ZM18.4364 35.3412C20.5302 35.3412 22.3114 34.3733 23.7802 32.4375C25.2567 30.4918 25.9989 27.7066 25.9989 24.0819C25.9989 20.477 25.2802 17.7017 23.8427 15.7659C22.413 13.8202 20.6591 12.8424 18.577 12.8424C16.4403 12.8424 14.663 13.8054 13.2489 15.7264C11.8427 17.6375 11.1395 20.4227 11.1395 24.0819C11.1395 27.7066 11.8309 30.4918 13.2177 32.4375C14.6122 34.3733 16.3505 35.3412 18.4364 35.3412Z" fill="#008B8B"/>
</svg>
