<svg width="14" height="21" viewBox="0 0 14 21" fill="none" xmlns="http://www.w3.org/2000/svg">
<path d="M0.713623 20.4028C0.576904 20.4028 0.471435 20.3337 0.401123 20.2053C0.326904 20.0621 0.291748 19.8991 0.291748 19.7115C0.299561 19.3954 0.346435 19.2078 0.432373 19.1386C0.514404 19.0744 0.674561 19.0398 0.916748 19.0398C1.39331 19.0398 1.74878 18.9312 1.97925 18.704C2.21753 18.4818 2.36206 18.2102 2.41675 17.8942C2.47925 17.5682 2.51831 17.1386 2.54175 16.6102V4.06701C2.51831 3.54355 2.47925 3.11392 2.41675 2.78306C2.36206 2.45713 2.21753 2.18059 1.97925 1.95343C1.74878 1.7312 1.39331 1.61762 0.916748 1.61762H0.760498C0.592529 1.61762 0.471435 1.58799 0.401123 1.51886C0.338623 1.43985 0.299561 1.25713 0.291748 0.965772C0.291748 0.768241 0.326904 0.605279 0.401123 0.471945C0.471435 0.343551 0.576904 0.274414 0.713623 0.274414C1.81519 0.328735 2.80737 0.353426 3.68237 0.353426C4.68237 0.353426 5.72144 0.328735 6.80737 0.274414C6.96362 0.274414 7.0769 0.343551 7.15112 0.471945C7.22144 0.605279 7.2605 0.768241 7.2605 0.965772C7.24878 1.28182 7.198 1.47441 7.10425 1.53861C7.0105 1.59293 6.85425 1.61762 6.6355 1.61762C6.15503 1.61762 5.79565 1.7312 5.55737 1.95343C5.3269 2.18059 5.18237 2.45713 5.11987 2.78306C5.06519 3.11392 5.03003 3.54355 5.0105 4.06701V17.0843C5.04175 17.5189 5.08081 17.8645 5.1355 18.1115C5.18628 18.3485 5.33862 18.5757 5.58862 18.7831C5.83862 18.9806 6.22925 19.0695 6.7605 19.0398H9.0105C9.59253 19.0152 10.0339 18.8966 10.3386 18.6843C10.6394 18.4621 10.8738 18.1213 11.0417 17.6571C11.2175 17.1831 11.4324 16.4226 11.6824 15.3658C11.8074 15.0003 12.0925 14.8522 12.5417 14.9312C12.6863 14.9707 12.8269 15.0596 12.9636 15.188C13.0964 15.3065 13.155 15.4645 13.1355 15.6621L12.6355 19.6324C12.5808 19.909 12.5027 20.0966 12.4011 20.1855C12.3074 20.2645 12.1433 20.304 11.9167 20.304H3.71362C2.81519 20.304 1.81519 20.3337 0.713623 20.4028Z" fill="black"/>
</svg>
