<svg width="11" height="12" viewBox="0 0 11 12" fill="none" xmlns="http://www.w3.org/2000/svg">
<path d="M5.3739 11.5946C4.4989 11.5946 3.70984 11.3675 3.01453 10.9033C2.32703 10.4292 1.78406 9.75758 1.38953 8.88844C0.991089 8.00943 0.795776 6.98721 0.795776 5.82672C0.795776 4.67116 0.991089 3.65388 1.38953 2.78474C1.79578 1.90573 2.34656 1.22425 3.04578 0.750174C3.74109 0.2761 4.53015 0.0390625 5.40515 0.0390625C6.28015 0.0390625 7.06531 0.2761 7.76453 0.750174C8.45984 1.22425 9.01453 1.90573 9.42078 2.78474C9.82703 3.65388 10.0302 4.67116 10.0302 5.82672C10.0302 6.9724 9.81921 7.98968 9.40515 8.86869C8.9989 9.75264 8.44031 10.4292 7.73328 10.9033C7.03406 11.3675 6.2489 11.5946 5.3739 11.5946ZM5.3739 8.6119C5.89343 8.6119 6.33484 8.37486 6.70203 7.90079C7.06531 7.41684 7.2489 6.72548 7.2489 5.82672C7.2489 4.91807 7.06921 4.22672 6.71765 3.75264C6.36218 3.26869 5.92468 3.02178 5.40515 3.02178C4.8739 3.02178 4.42859 3.25882 4.07703 3.73289C3.73328 4.20696 3.5614 4.9082 3.5614 5.82672C3.5614 6.72548 3.73328 7.41684 4.07703 7.90079C4.42078 8.37486 4.85046 8.6119 5.3739 8.6119Z" fill="white"/>
</svg>
