<svg width="5" height="9" viewBox="0 0 5 9" fill="none" xmlns="http://www.w3.org/2000/svg">
<path d="M1.03271 8.71191C0.876465 8.79092 0.739746 8.76129 0.626465 8.6329C0.509278 8.51438 0.45459 8.36129 0.45459 8.17858C0.45459 7.96623 0.536621 7.81315 0.70459 7.72426C1.42334 7.39339 1.95459 6.99833 2.29834 6.53907C2.6499 6.08969 2.82959 5.55142 2.82959 4.91932C2.82959 4.56376 2.74365 4.27734 2.57959 4.05018C2.41162 3.82796 2.17725 3.59092 1.87646 3.33907C1.57178 3.09216 1.34521 2.86006 1.18896 2.64771C1.03271 2.44031 0.95459 2.17364 0.95459 1.85759C0.95459 1.45265 1.07959 1.08722 1.32959 0.771171C1.57959 0.445246 1.86865 0.277344 2.20459 0.277344C2.67334 0.277344 3.09521 0.464997 3.47021 0.83043C3.85303 1.2008 4.16162 1.67981 4.39209 2.27241C4.61865 2.85512 4.73584 3.43784 4.73584 4.03043C4.73584 5.22549 4.37646 6.20821 3.65771 6.97364C2.93896 7.74895 2.06396 8.32673 1.03271 8.71191Z" fill="black"/>
</svg>
