<svg width="14" height="21" viewBox="0 0 14 21" fill="none" xmlns="http://www.w3.org/2000/svg">
<path d="M3.8241 20.4029C3.67566 20.4029 3.56629 20.3338 3.49597 20.2054C3.42175 20.0622 3.3866 19.8992 3.3866 19.7115C3.39441 19.3955 3.44129 19.2078 3.52722 19.1387C3.60925 19.0745 3.76941 19.0399 4.0116 19.0399C4.48816 19.0399 4.84363 18.9313 5.0741 18.7041C5.31238 18.4819 5.45691 18.2103 5.5116 17.8943C5.5741 17.5683 5.61316 17.1387 5.6366 16.6103V1.5387H3.90222C3.33972 1.55352 2.90222 1.7066 2.58972 1.99302C2.28503 2.26957 2.05066 2.69426 1.8866 3.25722C1.73035 3.81031 1.59363 4.61031 1.48035 5.64734C1.45691 5.80537 1.35535 5.9387 1.16785 6.0424C0.988159 6.15105 0.800659 6.20043 0.605347 6.20043C0.456909 6.20043 0.324097 6.15105 0.199097 6.0424C0.0740967 5.92389 0.0115967 5.76586 0.0115967 5.56833L0.0740967 1.12389C0.0740967 0.610306 0.300659 0.353516 0.761597 0.353516H12.9803C13.4178 0.353516 13.6366 0.610306 13.6366 1.12389L13.7303 5.56833C13.7303 5.76586 13.66 5.92389 13.5272 6.0424C13.3905 6.15105 13.2499 6.20043 13.1053 6.20043C12.9061 6.20043 12.7186 6.15105 12.5428 6.0424C12.3632 5.9387 12.2694 5.80537 12.2616 5.64734C12.1249 4.59549 11.9803 3.79055 11.8241 3.23747C11.6757 2.68438 11.4413 2.26957 11.121 1.99302C10.8085 1.7066 10.371 1.55352 9.80847 1.5387H8.10535V16.6103C8.12488 17.1387 8.16004 17.5683 8.21472 17.8943C8.27722 18.2103 8.42175 18.4819 8.65222 18.7041C8.8905 18.9313 9.24988 19.0399 9.73035 19.0399H9.8866C10.0311 19.0399 10.1405 19.0794 10.2147 19.1585C10.285 19.2276 10.3319 19.4103 10.3553 19.7115C10.3553 19.8992 10.3163 20.0622 10.246 20.2054C10.1718 20.3338 10.0585 20.4029 9.90222 20.4029C8.83972 20.3338 7.85535 20.3041 6.9491 20.3041C5.9491 20.3041 4.90613 20.3338 3.8241 20.4029Z" fill="black"/>
</svg>
