<svg width="10" height="16" viewBox="0 0 10 16" fill="none" xmlns="http://www.w3.org/2000/svg">
<path d="M0.115845 9.80717C0.115845 8.65161 0.28772 7.63433 0.63147 6.76519C0.97522 5.89606 1.44397 5.22445 2.03772 4.75038C2.63147 4.2763 3.29163 4.03927 4.02209 4.03927C4.60413 4.03927 5.13538 4.19729 5.61584 4.51334C6.10413 4.81951 6.48303 5.23433 6.75647 5.75778V0.542969H9.49084V15.4368H6.75647V13.817C6.50647 14.3603 6.13928 14.7948 5.66272 15.1207C5.19397 15.4368 4.64709 15.5948 4.02209 15.5948C3.29163 15.5948 2.63147 15.3578 2.03772 14.8837C1.44397 14.4096 0.97522 13.7331 0.63147 12.8491C0.28772 11.9701 0.115845 10.9528 0.115845 9.80717ZM6.75647 9.82692C6.75647 8.95778 6.56897 8.28124 6.19397 7.79235C5.81897 7.29359 5.35803 7.04173 4.81897 7.04173C4.276 7.04173 3.81897 7.28865 3.44397 7.7726C3.06897 8.26149 2.88147 8.93803 2.88147 9.80717C2.88147 10.6664 3.06897 11.343 3.44397 11.8417C3.81897 12.3454 4.276 12.5924 4.81897 12.5924C5.35803 12.5924 5.81897 12.3504 6.19397 11.8615C6.56897 11.3627 6.75647 10.6862 6.75647 9.82692Z" fill="white"/>
</svg>
