<svg width="17" height="23" viewBox="0 0 17 23" fill="none" xmlns="http://www.w3.org/2000/svg">
<path d="M8.4519 22.166C6.86597 22.166 5.47144 21.682 4.2644 20.724C3.05347 19.766 2.11597 18.4919 1.4519 16.9117C0.795654 15.3314 0.467529 13.6425 0.467529 11.8351C0.467529 9.62278 0.86206 7.69685 1.65503 6.04747C2.44409 4.40302 3.45581 3.14376 4.68628 2.27463C5.92456 1.39562 7.17847 0.951172 8.4519 0.951172C10.0457 0.951172 11.4519 1.43512 12.6707 2.39315C13.8972 3.35611 14.8425 4.62031 15.4988 6.18574C16.1628 7.75611 16.4988 9.445 16.4988 11.2623C16.4988 13.4746 16.0964 15.4104 15.2957 17.0697C14.491 18.7191 13.4675 19.9833 12.2175 20.8623C10.9675 21.7314 9.70972 22.166 8.4519 22.166ZM8.42065 20.7833C9.55347 20.7833 10.4988 20.3586 11.2488 19.4993C12.0066 18.645 12.5769 17.4993 12.9519 16.0623C13.3269 14.6154 13.5144 13.0154 13.5144 11.2623C13.5144 9.64253 13.3191 8.15611 12.9363 6.79809C12.5613 5.43018 11.9871 4.34377 11.2175 3.53883C10.4558 2.72401 9.52222 2.31413 8.42065 2.31413C6.75269 2.31413 5.49878 3.2129 4.65503 5.00055C3.81128 6.77833 3.3894 9.02525 3.3894 11.7364C3.3894 13.3857 3.5769 14.8919 3.9519 16.2598C4.3269 17.6327 4.8894 18.729 5.6394 19.5586C6.3894 20.3783 7.31519 20.7833 8.42065 20.7833Z" fill="black"/>
</svg>
