<svg width="8" height="21" viewBox="0 0 8 21" fill="none" xmlns="http://www.w3.org/2000/svg">
<path d="M1.20386 20.6323C1.05542 20.6323 0.942138 20.5632 0.860107 20.4348C0.785888 20.2916 0.750732 20.1286 0.750732 19.9409C0.770263 19.6249 0.821045 19.4372 0.906982 19.3681C1.00073 19.3039 1.15698 19.2693 1.37573 19.2693C1.86401 19.2693 2.22339 19.1607 2.45386 18.9335C2.68042 18.7113 2.82886 18.4397 2.89136 18.1237C2.96167 17.8076 3.00855 17.3829 3.03198 16.8397V4.2965C3.00855 3.74341 2.96167 3.30884 2.89136 2.9928C2.82886 2.67675 2.68042 2.41008 2.45386 2.18292C2.22339 1.9607 1.86401 1.84712 1.37573 1.84712H1.23511C1.07886 1.84712 0.961669 1.81749 0.891357 1.74835C0.817138 1.66934 0.770263 1.48662 0.750732 1.19526C0.750732 0.997733 0.785888 0.834771 0.860107 0.701437C0.942138 0.573043 1.05542 0.503906 1.20386 0.503906C2.28589 0.558228 3.27417 0.582919 4.17261 0.582919C5.17261 0.582919 6.21167 0.558228 7.29761 0.503906C7.45386 0.503906 7.56714 0.573043 7.64136 0.701437C7.71167 0.834771 7.75073 0.997733 7.75073 1.19526C7.73901 1.51131 7.68823 1.70391 7.59448 1.7681C7.50073 1.82243 7.33667 1.84712 7.11011 1.84712C6.61792 1.84712 6.25464 1.9607 6.01636 2.18292C5.78589 2.41008 5.64136 2.68662 5.57886 3.01255C5.52417 3.34341 5.49292 3.77304 5.48511 4.2965V16.8397C5.49292 17.3681 5.52417 17.7977 5.57886 18.1237C5.64136 18.4397 5.78589 18.7113 6.01636 18.9335C6.25464 19.1607 6.61792 19.2693 7.11011 19.2693H7.25073C7.4148 19.2693 7.53589 19.3088 7.61011 19.3879C7.69214 19.457 7.73901 19.6397 7.75073 19.9409C7.75073 20.1286 7.71167 20.2916 7.64136 20.4348C7.56714 20.5632 7.45386 20.6323 7.29761 20.6323C6.23511 20.5632 5.20386 20.5335 4.20386 20.5335C3.28589 20.5335 2.28589 20.5632 1.20386 20.6323Z" fill="black"/>
</svg>
