<svg width="10" height="12" viewBox="0 0 10 12" fill="none" xmlns="http://www.w3.org/2000/svg">
<path d="M9.70886 5.64894C9.70886 5.96499 9.69324 6.29585 9.66199 6.63659H3.50574C3.5448 7.33783 3.72449 7.8761 4.03699 8.25635C4.34949 8.62672 4.7323 8.80943 5.19324 8.80943C5.86902 8.80943 6.33777 8.444 6.59949 7.70326H9.50574C9.3573 8.45388 9.08777 9.12548 8.69324 9.71807C8.30652 10.3008 7.82214 10.76 7.24011 11.1008C6.65418 11.4317 6.00574 11.5946 5.28699 11.5946C4.41199 11.5946 3.63464 11.3675 2.95886 10.9033C2.27918 10.4292 1.74793 9.75758 1.36511 8.88844C0.990112 8.00943 0.802612 6.98721 0.802612 5.82672C0.802612 4.65635 0.990112 3.63412 1.36511 2.76499C1.74011 1.89585 2.26355 1.22425 2.94324 0.750174C3.61902 0.2761 4.40027 0.0390625 5.28699 0.0390625C6.13855 0.0390625 6.90027 0.271162 7.56824 0.73042C8.24402 1.19462 8.77136 1.84647 9.14636 2.68598C9.52136 3.53042 9.70886 4.51807 9.70886 5.64894ZM6.92761 4.7403C6.92761 4.1477 6.76355 3.68351 6.44324 3.33783C6.13074 2.98227 5.7323 2.80449 5.25574 2.80449C4.7948 2.80449 4.41199 2.97733 4.09949 3.31807C3.78699 3.64894 3.59168 4.12301 3.52136 4.7403H6.92761Z" fill="white"/>
</svg>
