<svg width="37" height="47" viewBox="0 0 37 47" fill="none" xmlns="http://www.w3.org/2000/svg">
<path d="M36.3458 22.9595C36.3458 24.2632 36.2833 25.6163 36.1583 27.0089H11.3927C11.5568 29.8138 12.2716 31.962 13.5333 33.4484C14.7911 34.9249 16.338 35.6607 18.174 35.6607C20.9005 35.6607 22.8029 34.2089 23.8771 31.2953H35.5177C34.924 34.2731 33.8458 36.9447 32.2833 39.315C30.7286 41.6854 28.7755 43.5521 26.424 44.9052C24.0802 46.2484 21.4591 46.92 18.5646 46.92C15.0646 46.92 11.9474 45.9817 9.22083 44.0953C6.49036 42.199 4.35364 39.5027 2.81458 35.9965C1.28333 32.4953 0.5177 28.3916 0.5177 23.6903C0.5177 19.0039 1.27161 14.9101 2.78333 11.4039C4.30286 7.88788 6.42786 5.19158 9.15833 3.30516C11.8849 1.42368 15.0216 0.480469 18.5646 0.480469C22.0216 0.480469 25.0958 1.39899 27.7833 3.22615C30.4708 5.05825 32.5685 7.67059 34.0802 11.0681C35.588 14.4657 36.3458 18.4311 36.3458 22.9595ZM25.1583 19.3249C25.1583 16.9545 24.5177 15.0731 23.2365 13.6755C21.9552 12.2681 20.3536 11.562 18.4396 11.562C16.5958 11.562 15.0411 12.2434 13.7833 13.5965C12.5333 14.9397 11.756 16.8508 11.4552 19.3249H25.1583Z" fill="#008B8B"/>
</svg>
