<svg width="118" height="113" viewBox="0 0 118 113" fill="none" xmlns="http://www.w3.org/2000/svg">
<path d="M59.9026 112.899C38.8167 112.899 23.301 107.418 13.3557 96.445C4.55103 86.7264 0.152588 73.5018 0.152588 56.761C0.152588 39.9857 4.55103 26.7363 13.3557 17.0178C23.301 6.0499 38.8167 0.563477 59.9026 0.563477C71.9026 0.563477 81.887 2.27212 89.8557 5.67953C97.8245 9.07706 104.074 13.719 108.606 19.6055C113.145 25.4919 116.246 32.2672 117.903 39.9314H79.637C75.6252 32.9684 69.0471 29.482 59.9026 29.482C51.2542 29.482 44.8909 32.6178 40.8088 38.8845C37.5588 43.9413 35.9338 49.9018 35.9338 56.761C35.9338 63.6252 37.5588 69.561 40.8088 74.5783C44.8909 80.8351 51.2542 83.961 59.9026 83.961C66.8713 83.961 72.1057 83.2005 75.6057 81.6697C79.1135 80.1437 81.6838 78.1536 83.3088 75.7042H69.3401V56.761H117.903V110.647H103.043L100.012 100.198C90.5432 108.667 77.1721 112.899 59.9026 112.899Z" fill="#008B8B"/>
</svg>
