<svg width="15" height="23" viewBox="0 0 15 23" fill="none" xmlns="http://www.w3.org/2000/svg">
<path d="M8.27625 22.166C6.85828 22.166 5.5614 21.7364 4.38562 20.882C3.20593 20.0277 2.26843 18.808 1.57312 17.2277C0.88562 15.6475 0.54187 13.8055 0.54187 11.6969C0.54187 9.57833 0.873901 7.70673 1.54187 6.08697C2.20593 4.45735 3.15515 3.19315 4.38562 2.29438C5.6239 1.40055 7.07312 0.951172 8.72937 0.951172C10.1552 0.951172 11.4247 1.32154 12.5419 2.05734C13.6669 2.78327 14.2294 3.90426 14.2294 5.41537C14.2372 6.36352 14.0106 7.17339 13.5419 7.845C13.0809 8.50673 12.4559 8.83265 11.6669 8.83265C11.3739 8.83265 11.1239 8.76846 10.9169 8.63512C10.7059 8.49191 10.5497 8.32895 10.4481 8.1413C10.3427 7.94376 10.2997 7.79562 10.3231 7.68697C10.3231 7.64747 10.4364 7.53883 10.6669 7.35117C10.9052 7.15364 11.1122 6.89191 11.2919 6.56105C11.4794 6.22031 11.5731 5.80549 11.5731 5.3166C11.5731 4.36846 11.3153 3.61784 10.8075 3.06475C10.2958 2.50179 9.59265 2.21537 8.69812 2.21537C7.67468 2.21537 6.76843 2.58574 5.97937 3.32154C5.1864 4.04747 4.57312 5.11414 4.13562 6.52154C3.69812 7.91907 3.47937 9.58327 3.47937 11.5191C3.47937 13.208 3.71375 14.7388 4.1825 16.1215C4.65906 17.4944 5.33093 18.5857 6.19812 19.4006C7.0614 20.2203 8.04968 20.6252 9.16687 20.6252C10.0731 20.6252 10.8427 20.3882 11.4794 19.9141C12.1239 19.4401 12.7059 18.6796 13.2294 17.6228C13.3114 17.4252 13.4247 17.3265 13.5731 17.3265C13.7059 17.3265 13.8583 17.3956 14.0262 17.524C14.2841 17.7512 14.4169 17.9783 14.4169 18.2154C14.4169 18.3487 14.3856 18.4524 14.3231 18.5314C13.6864 19.5487 13.0887 20.3092 12.5262 20.8228C11.9716 21.3364 11.37 21.682 10.7137 21.8697C10.0653 22.0672 9.25281 22.166 8.27625 22.166Z" fill="black"/>
</svg>
