<svg width="17" height="22" viewBox="0 0 17 22" fill="none" xmlns="http://www.w3.org/2000/svg">
<path d="M0.524414 21.0182C0.375977 21.0182 0.262695 20.949 0.180664 20.8206C0.106445 20.6774 0.0712891 20.5145 0.0712891 20.3268C0.0908201 20.0108 0.141601 19.8231 0.227539 19.754C0.30957 19.6898 0.46582 19.6552 0.696289 19.6552C1.18457 19.6552 1.54004 19.5466 1.75879 19.3194C1.98535 19.0972 2.12598 18.8355 2.18066 18.5293C2.23145 18.2281 2.2627 17.7935 2.27441 17.2256L2.32129 4.68237C2.32129 4.05028 2.2666 3.57126 2.16504 3.2404C2.05957 2.91447 1.8877 2.67743 1.64941 2.52929C1.41895 2.38608 1.08691 2.26262 0.649414 2.15398C0.368164 2.08978 0.188477 2.02558 0.118164 1.95645C0.0556641 1.89225 0.0244141 1.71447 0.0244141 1.42311C0.0244141 1.1762 0.0751951 1.0083 0.180664 0.929287C0.293945 0.840399 0.46582 0.791016 0.696289 0.791016C1.73535 0.791016 2.55566 0.884843 3.14941 1.06756C3.75098 1.2404 4.28223 1.55645 4.74316 2.01571C5.2002 2.4799 5.7041 3.18114 6.25879 4.12929L13.1025 15.5071H13.1807L13.1338 4.68237C13.1104 4.1046 13.0752 3.66509 13.0244 3.35892C12.9697 3.05768 12.8291 2.79595 12.6025 2.56879C12.3838 2.34657 12.0322 2.23299 11.5557 2.23299H11.3994C11.2314 2.23299 11.1104 2.20336 11.04 2.13423C10.9658 2.05521 10.9189 1.8725 10.8994 1.58114C10.8994 1.38361 10.9385 1.22065 11.0244 1.08731C11.1064 0.958917 11.2158 0.889781 11.3525 0.889781C12.415 0.944102 13.2158 0.968793 13.7588 0.968793C14.0713 0.968793 14.6729 0.94904 15.5713 0.909534L16.1025 0.889781C16.2471 0.889781 16.3564 0.958917 16.4307 1.08731C16.5127 1.22065 16.5557 1.38361 16.5557 1.58114C16.5322 1.89719 16.4814 2.08978 16.3994 2.15398C16.3135 2.2083 16.1572 2.23299 15.9307 2.23299C15.4385 2.23299 15.0791 2.34657 14.8525 2.56879C14.6338 2.79595 14.4971 3.05768 14.4463 3.35892C14.4033 3.66509 14.3721 4.1046 14.3525 4.68237L14.3057 20.6034C14.2822 20.8799 14.0752 21.0182 13.6807 21.0182C13.3564 21.0182 13.1104 20.8799 12.9463 20.6034L3.52441 4.68237H3.44629L3.50879 17.2256C3.5166 17.7935 3.54785 18.2281 3.60254 18.5293C3.65332 18.8355 3.79004 19.0972 4.00879 19.3194C4.23535 19.5466 4.59082 19.6552 5.07129 19.6552H5.22754C5.3916 19.6552 5.51269 19.6947 5.58691 19.7737C5.65723 19.8429 5.7041 20.0256 5.72754 20.3268C5.72754 20.5145 5.68848 20.6774 5.61816 20.8206C5.54394 20.949 5.43066 21.0182 5.27441 21.0182C4.21191 20.949 3.40332 20.9194 2.85254 20.9194C2.5166 20.9194 1.93457 20.9392 1.10254 20.9787L0.524414 21.0182Z" fill="black"/>
</svg>
