<svg width="17" height="21" viewBox="0 0 17 21" fill="none" xmlns="http://www.w3.org/2000/svg">
<path d="M0.84375 20.6323C0.6875 20.6323 0.570312 20.5632 0.5 20.4348C0.425781 20.2916 0.390625 20.1286 0.390625 19.9409C0.398438 19.6249 0.445312 19.4372 0.53125 19.3681C0.613281 19.3039 0.773438 19.2693 1.01562 19.2693C1.49219 19.2693 1.84766 19.1607 2.07812 18.9335C2.31641 18.7113 2.46094 18.4397 2.51562 18.1237C2.57812 17.7977 2.61719 17.3681 2.64062 16.8397V4.31625C2.61719 3.77798 2.57812 3.34835 2.51562 3.0323C2.46094 2.71625 2.31641 2.43971 2.07812 2.20267C1.84766 1.96563 1.49219 1.84712 1.01562 1.84712H0.859375C0.691406 1.84712 0.570312 1.81749 0.5 1.74835C0.4375 1.66934 0.398438 1.48662 0.390625 1.19526C0.390625 0.997733 0.425781 0.834771 0.5 0.701437C0.570312 0.573043 0.6875 0.503906 0.84375 0.503906C1.92578 0.558228 2.91406 0.582919 3.8125 0.582919H8.10938C9.39062 0.612549 10.457 0.874277 11.3125 1.37304C12.1758 1.86193 12.8047 2.49403 13.2031 3.26934C13.6094 4.03477 13.8125 4.85946 13.8125 5.73847C13.8125 6.89897 13.4453 7.96564 12.7188 8.93848C12 9.90144 11.0156 10.5928 9.76562 11.0125L10.1875 11.8817C10.8828 13.3039 11.5156 14.5286 12.0781 15.5558C12.6484 16.5829 13.2695 17.5409 13.9375 18.42C14.4062 18.9088 14.9062 19.1903 15.4375 19.2693C15.4688 19.2693 15.5391 19.2792 15.6562 19.2891C15.7812 19.3039 15.8789 19.3632 15.9531 19.4669C16.0234 19.5755 16.0625 19.7335 16.0625 19.9409C16.0625 20.1286 16.0234 20.2916 15.9531 20.4348C15.8789 20.5632 15.7656 20.6323 15.6094 20.6323L14.9688 20.5928C14.2266 20.5533 13.6914 20.5335 13.3594 20.5335C12.6914 20.3656 12.1172 20.0693 11.6406 19.6446C11.1719 19.2101 10.7031 18.5928 10.2344 17.7879C9.75391 16.9879 9.08203 15.6743 8.21875 13.857L7.76562 12.9484C7.51562 12.4644 7.26953 12.1335 7.03125 11.9607C6.80078 11.778 6.40625 11.6842 5.84375 11.6842H5.10938V16.8397C5.12891 17.3681 5.16406 17.7977 5.21875 18.1237C5.28125 18.4397 5.42578 18.7113 5.65625 18.9335C5.89453 19.1607 6.25391 19.2693 6.73438 19.2693H6.89062C7.03516 19.2693 7.14453 19.3088 7.21875 19.3879C7.30078 19.457 7.34766 19.6397 7.35938 19.9409C7.35938 20.1286 7.32031 20.2916 7.25 20.4348C7.17578 20.5632 7.0625 20.6323 6.90625 20.6323C5.84375 20.5632 4.80078 20.5335 3.78125 20.5335C2.90625 20.5335 1.92578 20.5632 0.84375 20.6323ZM7.3125 10.4595C9.78906 10.4595 11.0312 8.98786 11.0312 6.03477C11.0312 4.82489 10.707 3.81255 10.0625 2.9928C9.41406 2.17798 8.34766 1.7681 6.85938 1.7681C6.37891 1.7681 6.01562 1.84218 5.76562 1.98539C5.51562 2.13354 5.34375 2.38045 5.25 2.73601C5.15625 3.09156 5.10938 3.63971 5.10938 4.37551V10.4595H7.3125Z" fill="black"/>
</svg>
