<svg width="16" height="22" viewBox="0 0 16 22" fill="none" xmlns="http://www.w3.org/2000/svg">
<path d="M7.90344 21.5508C6.45422 21.5508 5.14172 21.1656 3.96594 20.4051C2.79797 19.6298 1.87219 18.4594 1.18469 16.889C0.497192 15.3236 0.153442 13.3878 0.153442 11.0816C0.153442 8.9631 0.52063 7.09149 1.26282 5.47174C2.01282 3.84211 3.04407 2.57791 4.35657 1.67915C5.67688 0.785321 7.1886 0.335938 8.88782 0.335938C9.71985 0.335938 10.5441 0.493962 11.3566 0.810012C12.1769 1.12606 12.8566 1.62977 13.3878 2.31125C13.9191 2.98285 14.1847 3.81248 14.1847 4.80014C14.1847 5.72359 13.9659 6.52853 13.5284 7.21001C13.0988 7.88162 12.5284 8.21742 11.8097 8.21742C11.4542 8.21742 11.1144 8.11372 10.7941 7.90137C10.4698 7.69396 10.298 7.41742 10.2784 7.07174C10.2784 7.06186 10.3917 6.94828 10.6222 6.73594C10.8488 6.52853 11.0597 6.24211 11.2472 5.88656C11.4347 5.52112 11.5284 5.08655 11.5284 4.58285C11.5284 3.70384 11.2511 2.98285 10.7003 2.42976C10.1573 1.87668 9.45422 1.60014 8.59094 1.60014C7.54797 1.60014 6.61047 1.97051 5.77844 2.70631C4.9425 3.43223 4.28625 4.4989 3.80969 5.90631C3.32922 7.30384 3.09094 8.96804 3.09094 10.9038C3.09094 12.7754 3.32532 14.3952 3.79407 15.7631C4.27063 17.1359 4.9386 18.1878 5.79407 18.9236C6.65735 19.6495 7.65344 20.01 8.77844 20.01C9.3175 20.01 9.78625 19.9705 10.1847 19.8915C10.5792 19.8125 11.0128 19.6841 11.4816 19.4964V16.2767C11.4816 15.5409 11.4581 15.0273 11.4191 14.7359C11.3761 14.4347 11.2394 14.2125 11.0128 14.0643C10.7941 13.9211 10.4191 13.847 9.88782 13.847C9.70032 13.847 9.5636 13.8075 9.48157 13.7285C9.39563 13.6495 9.34875 13.4668 9.34094 13.1754C9.34094 12.9927 9.38 12.8347 9.46594 12.7014C9.55969 12.5582 9.6886 12.4841 9.85657 12.4841C10.9073 12.5532 11.8253 12.5829 12.6066 12.5829C13.3566 12.5829 14.255 12.5532 15.3097 12.4841C15.4542 12.4841 15.5675 12.5582 15.6534 12.7014C15.7355 12.8347 15.7784 12.9927 15.7784 13.1754C15.7667 13.4668 15.7198 13.6495 15.6378 13.7285C15.5519 13.8075 15.4191 13.847 15.2316 13.847C14.7316 13.847 14.3722 13.9359 14.1534 14.1038C13.9425 14.2619 13.8136 14.4989 13.7628 14.815C13.7081 15.1211 13.6847 15.6051 13.6847 16.2767V20.01C12.7042 20.5927 11.8019 20.9878 10.9816 21.215C10.1691 21.4372 9.14172 21.5508 7.90344 21.5508Z" fill="black"/>
</svg>
