<svg width="15" height="21" viewBox="0 0 15 21" fill="none" xmlns="http://www.w3.org/2000/svg">
<path d="M4.44568 20.4029C4.29724 20.4029 4.18787 20.3338 4.11755 20.2054C4.04334 20.0622 4.00818 19.8992 4.00818 19.7115C4.01599 19.3955 4.06287 19.2078 4.1488 19.1387C4.23084 19.0745 4.39099 19.0399 4.63318 19.0399C5.10974 19.0399 5.46521 18.9313 5.69568 18.7041C5.93396 18.4819 6.07849 18.2103 6.13318 17.8943C6.19568 17.5683 6.23474 17.1387 6.25818 16.6103V1.5387H4.5238C3.9613 1.55352 3.5238 1.7066 3.2113 1.99302C2.90662 2.26957 2.67224 2.69426 2.50818 3.25722C2.35193 3.81031 2.21521 4.61031 2.10193 5.64734C2.07849 5.80537 1.97693 5.9387 1.78943 6.0424C1.60974 6.15105 1.42224 6.20043 1.22693 6.20043C1.07849 6.20043 0.945679 6.15105 0.820679 6.0424C0.695679 5.92389 0.633179 5.76586 0.633179 5.56833L0.695679 1.12389C0.695679 0.610306 0.922241 0.353516 1.38318 0.353516H13.6019C14.0394 0.353516 14.2582 0.610306 14.2582 1.12389L14.3519 5.56833C14.3519 5.76586 14.2816 5.92389 14.1488 6.0424C14.0121 6.15105 13.8715 6.20043 13.7269 6.20043C13.5277 6.20043 13.3402 6.15105 13.1644 6.0424C12.9847 5.9387 12.891 5.80537 12.8832 5.64734C12.7465 4.59549 12.6019 3.79055 12.4457 3.23747C12.2972 2.68438 12.0629 2.26957 11.7426 1.99302C11.4301 1.7066 10.9926 1.55352 10.4301 1.5387H8.72693V16.6103C8.74646 17.1387 8.78162 17.5683 8.8363 17.8943C8.8988 18.2103 9.04334 18.4819 9.2738 18.7041C9.51209 18.9313 9.87146 19.0399 10.3519 19.0399H10.5082C10.6527 19.0399 10.7621 19.0794 10.8363 19.1585C10.9066 19.2276 10.9535 19.4103 10.9769 19.7115C10.9769 19.8992 10.9379 20.0622 10.8676 20.2054C10.7933 20.3338 10.6801 20.4029 10.5238 20.4029C9.4613 20.3338 8.47693 20.3041 7.57068 20.3041C6.57068 20.3041 5.52771 20.3338 4.44568 20.4029Z" fill="black"/>
</svg>
