<svg width="17" height="22" viewBox="0 0 17 22" fill="none" xmlns="http://www.w3.org/2000/svg">
<path d="M1.44092 21.018C1.28467 21.018 1.16748 20.9489 1.09717 20.8205C1.02295 20.6773 0.987793 20.5143 0.987793 20.3267C0.995606 20.0106 1.04248 19.823 1.12842 19.7538C1.21045 19.6897 1.37061 19.6551 1.61279 19.6551C2.08936 19.6551 2.44482 19.5464 2.67529 19.3193C2.91357 19.0971 3.05811 18.8255 3.11279 18.5094C3.17529 18.1835 3.21436 17.7538 3.23779 17.2255V4.70199C3.21436 4.16372 3.17529 3.73409 3.11279 3.41804C3.05811 3.10199 2.91357 2.82545 2.67529 2.58841C2.44482 2.35138 2.08936 2.23286 1.61279 2.23286H1.45654C1.28857 2.23286 1.16748 2.20323 1.09717 2.13409C1.03467 2.05508 0.995606 1.87236 0.987793 1.58101C0.987793 1.38348 1.02295 1.22051 1.09717 1.08718C1.16748 0.958785 1.28467 0.889648 1.44092 0.889648C2.52295 0.94397 3.51123 0.968661 4.40967 0.968661H8.70654C9.98779 0.998291 11.0542 1.26002 11.9097 1.75878C12.7729 2.24767 13.4019 2.87977 13.8003 3.65508C14.2065 4.42051 14.4097 5.2452 14.4097 6.12422C14.4097 7.28471 14.0425 8.35138 13.3159 9.32422C12.5972 10.2872 11.6128 10.9785 10.3628 11.3983L10.7847 12.2674C11.48 13.6897 12.1128 14.9143 12.6753 15.9415C13.2456 16.9687 13.8667 17.9267 14.5347 18.8057C15.0034 19.2946 15.5034 19.5761 16.0347 19.6551C16.0659 19.6551 16.1362 19.665 16.2534 19.6748C16.3784 19.6897 16.4761 19.7489 16.5503 19.8526C16.6206 19.9613 16.6597 20.1193 16.6597 20.3267C16.6597 20.5143 16.6206 20.6773 16.5503 20.8205C16.4761 20.9489 16.3628 21.018 16.2065 21.018L15.5659 20.9785C14.8237 20.939 14.2886 20.9193 13.9565 20.9193C13.2886 20.7514 12.7144 20.4551 12.2378 20.0304C11.769 19.5958 11.3003 18.9785 10.8315 18.1736C10.3511 17.3736 9.6792 16.06 8.81592 14.2427L8.36279 13.3341C8.11279 12.8501 7.8667 12.5193 7.62842 12.3464C7.39795 12.1637 7.00342 12.0699 6.44092 12.0699H5.70654V17.2255C5.72607 17.7538 5.76123 18.1835 5.81592 18.5094C5.87842 18.8255 6.02295 19.0971 6.25342 19.3193C6.4917 19.5464 6.85107 19.6551 7.33154 19.6551H7.48779C7.63232 19.6551 7.7417 19.6946 7.81592 19.7736C7.89795 19.8427 7.94482 20.0255 7.95654 20.3267C7.95654 20.5143 7.91748 20.6773 7.84717 20.8205C7.77295 20.9489 7.65967 21.018 7.50342 21.018C6.44092 20.9489 5.39795 20.9193 4.37842 20.9193C3.50342 20.9193 2.52295 20.9489 1.44092 21.018ZM7.90967 10.8452C10.3862 10.8452 11.6284 9.3736 11.6284 6.42051C11.6284 5.21064 11.3042 4.19829 10.6597 3.37854C10.0112 2.56372 8.94482 2.15385 7.45654 2.15385C6.97607 2.15385 6.61279 2.22792 6.36279 2.37113C6.11279 2.51928 5.94092 2.76619 5.84717 3.12175C5.75342 3.4773 5.70654 4.02545 5.70654 4.76125V10.8452H7.90967Z" fill="black"/>
</svg>
