<svg width="12" height="21" viewBox="0 0 12 21" fill="none" xmlns="http://www.w3.org/2000/svg">
<path d="M0.960571 20.4028C0.823852 20.4028 0.718383 20.3337 0.648071 20.2053C0.573852 20.0621 0.538696 19.8991 0.538696 19.7115C0.546509 19.3954 0.593383 19.2078 0.679321 19.1386C0.761352 19.0744 0.921509 19.0398 1.1637 19.0398C1.64026 19.0398 1.99573 18.9312 2.2262 18.704C2.46448 18.4818 2.60901 18.2102 2.6637 17.8942C2.7262 17.5682 2.76526 17.1386 2.7887 16.6102V4.06701C2.76526 3.54355 2.7262 3.11392 2.6637 2.78306C2.60901 2.45713 2.46448 2.18059 2.2262 1.95343C1.99573 1.7312 1.64026 1.61762 1.1637 1.61762H1.00745C0.839477 1.61762 0.718383 1.58799 0.648071 1.51886C0.585571 1.43985 0.546509 1.25713 0.538696 0.965772C0.538696 0.768241 0.573852 0.605279 0.648071 0.471945C0.718383 0.343551 0.823852 0.274414 0.960571 0.274414C2.0426 0.328735 3.03088 0.353426 3.92932 0.353426H11.1637C11.5895 0.353426 11.8043 0.610217 11.8043 1.1238L11.8824 5.54849C11.8824 5.73614 11.8043 5.88429 11.6481 6.00281C11.4996 6.12133 11.3551 6.18059 11.2106 6.18059C11.0114 6.18059 10.8278 6.13614 10.6637 6.04232C10.5074 5.93861 10.4215 5.7954 10.4137 5.60775C10.2965 4.58059 10.1559 3.80034 9.99182 3.25713C9.83557 2.71886 9.6012 2.31886 9.2887 2.05219C8.98401 1.79046 8.55432 1.64725 7.99182 1.61762H5.25745V9.83491H9.74182C9.86682 9.86454 9.96057 9.94849 10.0231 10.0917C10.0934 10.225 10.1324 10.3831 10.1324 10.5658C10.1324 10.7386 10.0934 10.8917 10.0231 11.0201C9.96057 11.1386 9.86682 11.1979 9.74182 11.1979H5.25745V16.6102C5.27698 17.1386 5.31213 17.5682 5.36682 17.8942C5.42932 18.2102 5.57385 18.4818 5.80432 18.704C6.0426 18.9312 6.40198 19.0398 6.88245 19.0398H7.0387C7.18323 19.0398 7.2926 19.0794 7.36682 19.1584C7.44885 19.2275 7.49573 19.4102 7.50745 19.7115C7.50745 19.8991 7.46838 20.0621 7.39807 20.2053C7.32385 20.3337 7.21057 20.4028 7.05432 20.4028C5.99182 20.3337 4.96057 20.304 3.96057 20.304C3.0426 20.304 2.0426 20.3337 0.960571 20.4028Z" fill="black"/>
</svg>
