<svg width="19" height="21" viewBox="0 0 19 21" fill="none" xmlns="http://www.w3.org/2000/svg">
<path d="M1.16931 20.4028C1.01306 20.4028 0.895874 20.3337 0.825562 20.2053C0.751343 20.0621 0.716187 19.8991 0.716187 19.7115C0.724 19.3954 0.770874 19.2078 0.856812 19.1386C0.938843 19.0744 1.099 19.0398 1.34119 19.0398C1.81775 19.0398 2.17322 18.9312 2.40369 18.704C2.64197 18.4818 2.7865 18.2102 2.84119 17.8942C2.90369 17.5682 2.94275 17.1386 2.96619 16.6102V4.06701C2.94275 3.54355 2.90369 3.11392 2.84119 2.78306C2.7865 2.45713 2.64197 2.18059 2.40369 1.95343C2.17322 1.7312 1.81775 1.61762 1.34119 1.61762H1.18494C1.01697 1.61762 0.895874 1.58799 0.825562 1.51886C0.763062 1.43985 0.724 1.25713 0.716187 0.965772C0.716187 0.768241 0.751343 0.605279 0.825562 0.471945C0.895874 0.343551 1.01306 0.274414 1.16931 0.274414C2.25134 0.328735 3.23181 0.353426 4.10681 0.353426C5.10681 0.353426 6.14587 0.328735 7.23181 0.274414C7.38806 0.274414 7.50134 0.343551 7.57556 0.471945C7.64587 0.605279 7.68494 0.768241 7.68494 0.965772C7.67322 1.28182 7.62634 1.47441 7.54431 1.53861C7.45837 1.59293 7.29822 1.61762 7.05994 1.61762C6.57947 1.61762 6.22009 1.7312 5.98181 1.95343C5.75134 2.18059 5.60681 2.45713 5.54431 2.78306C5.48962 3.11392 5.45447 3.54355 5.43494 4.06701V9.65713H13.2943V4.06701C13.2709 3.54355 13.2318 3.11392 13.1693 2.78306C13.1146 2.45713 12.9701 2.18059 12.7318 1.95343C12.5013 1.7312 12.1459 1.61762 11.6693 1.61762H11.5131C11.3451 1.61762 11.224 1.58799 11.1537 1.51886C11.0795 1.43985 11.0326 1.25713 11.0131 0.965772C11.0131 0.768241 11.0521 0.605279 11.1381 0.471945C11.2201 0.343551 11.3295 0.274414 11.4662 0.274414C12.5482 0.328735 13.5912 0.353426 14.5912 0.353426C15.5052 0.353426 16.4974 0.328735 17.5599 0.274414C17.7162 0.274414 17.8295 0.343551 17.9037 0.471945C17.974 0.605279 18.0131 0.768241 18.0131 0.965772C17.9896 1.28182 17.9349 1.47441 17.8412 1.53861C17.7552 1.59293 17.6068 1.61762 17.3881 1.61762C16.9076 1.61762 16.5443 1.7312 16.2943 1.95343C16.0521 2.18059 15.9037 2.45713 15.8412 2.78306C15.7865 3.11392 15.7513 3.54355 15.7318 4.06701V16.6102C15.7513 17.1386 15.7865 17.5682 15.8412 17.8942C15.9037 18.2102 16.0521 18.4818 16.2943 18.704C16.5443 18.9312 16.9076 19.0398 17.3881 19.0398H17.5443C17.6888 19.0398 17.7982 19.0794 17.8724 19.1584C17.9427 19.2275 17.9896 19.4102 18.0131 19.7115C18.0131 19.8991 17.974 20.0621 17.9037 20.2053C17.8295 20.3337 17.7162 20.4028 17.5599 20.4028C16.4974 20.3337 15.4974 20.304 14.5599 20.304C13.5795 20.304 12.5482 20.3337 11.4662 20.4028C11.3295 20.4028 11.2201 20.3337 11.1381 20.2053C11.0521 20.0621 11.0131 19.8991 11.0131 19.7115C11.0326 19.3954 11.0834 19.2078 11.1693 19.1386C11.2631 19.0744 11.4271 19.0398 11.6693 19.0398C12.1459 19.0398 12.5013 18.9312 12.7318 18.704C12.9701 18.4818 13.1146 18.2102 13.1693 17.8942C13.2318 17.5682 13.2709 17.1386 13.2943 16.6102V11.0201H5.43494V16.6102C5.45447 17.1386 5.48962 17.5682 5.54431 17.8942C5.60681 18.2102 5.75134 18.4818 5.98181 18.704C6.22009 18.9312 6.57947 19.0398 7.05994 19.0398H7.21619C7.38025 19.0398 7.49744 19.0794 7.55994 19.1584C7.63025 19.2275 7.67322 19.4102 7.68494 19.7115C7.68494 19.8991 7.64587 20.0621 7.57556 20.2053C7.50134 20.3337 7.38806 20.4028 7.23181 20.4028C6.16931 20.3337 5.13806 20.304 4.13806 20.304C3.23962 20.304 2.25134 20.3337 1.16931 20.4028Z" fill="black"/>
</svg>
