<svg width="8" height="22" viewBox="0 0 8 22" fill="none" xmlns="http://www.w3.org/2000/svg">
<path d="M0.879395 21.018C0.730957 21.018 0.617676 20.9489 0.535645 20.8205C0.461426 20.6773 0.42627 20.5143 0.42627 20.3267C0.445801 20.0106 0.496583 19.823 0.58252 19.7538C0.67627 19.6897 0.83252 19.6551 1.05127 19.6551C1.53955 19.6551 1.89893 19.5464 2.12939 19.3193C2.35596 19.0971 2.50439 18.8255 2.56689 18.5094C2.63721 18.1934 2.68408 17.7687 2.70752 17.2255V4.68224C2.68408 4.12916 2.63721 3.69459 2.56689 3.37854C2.50439 3.06249 2.35596 2.79582 2.12939 2.56866C1.89893 2.34644 1.53955 2.23286 1.05127 2.23286H0.910645C0.754395 2.23286 0.637207 2.20323 0.566895 2.13409C0.492676 2.05508 0.445801 1.87236 0.42627 1.58101C0.42627 1.38348 0.461426 1.22051 0.535645 1.08718C0.617676 0.958785 0.730957 0.889648 0.879395 0.889648C1.96143 0.94397 2.94971 0.968661 3.84815 0.968661C4.84815 0.968661 5.88721 0.94397 6.97315 0.889648C7.1294 0.889648 7.24268 0.958785 7.3169 1.08718C7.38721 1.22051 7.42627 1.38348 7.42627 1.58101C7.41455 1.89706 7.36377 2.08965 7.27002 2.15385C7.17627 2.20817 7.01221 2.23286 6.78565 2.23286C6.29346 2.23286 5.93018 2.34644 5.6919 2.56866C5.46143 2.79582 5.3169 3.07236 5.2544 3.39829C5.19971 3.72916 5.16846 4.15879 5.16065 4.68224V17.2255C5.16846 17.7538 5.19971 18.1835 5.2544 18.5094C5.3169 18.8255 5.46143 19.0971 5.6919 19.3193C5.93018 19.5464 6.29346 19.6551 6.78565 19.6551H6.92627C7.09033 19.6551 7.21143 19.6946 7.28565 19.7736C7.36768 19.8427 7.41455 20.0255 7.42627 20.3267C7.42627 20.5143 7.38721 20.6773 7.3169 20.8205C7.24268 20.9489 7.1294 21.018 6.97315 21.018C5.91065 20.9489 4.8794 20.9193 3.8794 20.9193C2.96143 20.9193 1.96143 20.9489 0.879395 21.018Z" fill="black"/>
</svg>
