<svg width="15" height="22" viewBox="0 0 15 22" fill="none" xmlns="http://www.w3.org/2000/svg">
<path d="M8.41626 21.9365C6.99829 21.9365 5.70142 21.5069 4.52563 20.6525C3.34595 19.7982 2.40845 18.5785 1.71313 16.9982C1.02563 15.418 0.681885 13.576 0.681885 11.4674C0.681885 9.34884 1.01392 7.47724 1.68188 5.85748C2.34595 4.22785 3.29517 2.96366 4.52563 2.06489C5.76392 1.17106 7.21313 0.72168 8.86938 0.72168C10.2952 0.72168 11.5647 1.09205 12.6819 1.82785C13.8069 2.55378 14.3694 3.67477 14.3694 5.18588C14.3772 6.13403 14.1506 6.9439 13.6819 7.61551C13.2209 8.27724 12.5959 8.60316 11.8069 8.60316C11.5139 8.60316 11.2639 8.53896 11.0569 8.40563C10.8459 8.26242 10.6897 8.09946 10.5881 7.9118C10.4827 7.71427 10.4397 7.56612 10.4631 7.45748C10.4631 7.41798 10.5764 7.30933 10.8069 7.12168C11.0452 6.92415 11.2522 6.66242 11.4319 6.33156C11.6194 5.99082 11.7131 5.576 11.7131 5.08711C11.7131 4.13896 11.4553 3.38835 10.9475 2.83526C10.4358 2.2723 9.73267 1.98588 8.83813 1.98588C7.8147 1.98588 6.90845 2.35625 6.11938 3.09205C5.32642 3.81798 4.71313 4.88464 4.27563 6.29205C3.83813 7.68958 3.61938 9.35378 3.61938 11.2896C3.61938 12.9785 3.85376 14.5093 4.32251 15.8921C4.79907 17.2649 5.47095 18.3562 6.33813 19.1711C7.20142 19.9908 8.1897 20.3958 9.30688 20.3958C10.2131 20.3958 10.9827 20.1587 11.6194 19.6846C12.2639 19.2106 12.8459 18.4501 13.3694 17.3933C13.4514 17.1958 13.5647 17.097 13.7131 17.097C13.8459 17.097 13.9983 17.1661 14.1663 17.2945C14.4241 17.5217 14.5569 17.7488 14.5569 17.9859C14.5569 18.1192 14.5256 18.2229 14.4631 18.3019C13.8264 19.3192 13.2288 20.0797 12.6663 20.5933C12.1116 21.1069 11.51 21.4525 10.8538 21.6402C10.2053 21.8377 9.39282 21.9365 8.41626 21.9365Z" fill="black"/>
</svg>
