<svg width="14" height="21" viewBox="0 0 14 21" fill="none" xmlns="http://www.w3.org/2000/svg">
<path d="M1.30762 20.4028C1.1709 20.4028 1.06543 20.3337 0.995117 20.2053C0.920898 20.0621 0.885742 19.8991 0.885742 19.7115C0.893555 19.3954 0.940429 19.2078 1.02637 19.1386C1.1084 19.0744 1.26856 19.0398 1.51074 19.0398C1.98731 19.0398 2.34277 18.9312 2.57324 18.704C2.81152 18.4818 2.95606 18.2102 3.01074 17.8942C3.07324 17.5682 3.11231 17.1386 3.13574 16.6102V4.06701C3.11231 3.54355 3.07324 3.11392 3.01074 2.78306C2.95606 2.45713 2.81152 2.18059 2.57324 1.95343C2.34277 1.7312 1.98731 1.61762 1.51074 1.61762H1.35449C1.18652 1.61762 1.06543 1.58799 0.995117 1.51886C0.932617 1.43985 0.893555 1.25713 0.885742 0.965772C0.885742 0.768241 0.920898 0.605279 0.995117 0.471945C1.06543 0.343551 1.1709 0.274414 1.30762 0.274414C2.40918 0.328735 3.40137 0.353426 4.27637 0.353426C5.27637 0.353426 6.31543 0.328735 7.40137 0.274414C7.55762 0.274414 7.6709 0.343551 7.74512 0.471945C7.81543 0.605279 7.85449 0.768241 7.85449 0.965772C7.84277 1.28182 7.79199 1.47441 7.69824 1.53861C7.60449 1.59293 7.44824 1.61762 7.22949 1.61762C6.74902 1.61762 6.38965 1.7312 6.15137 1.95343C5.9209 2.18059 5.77637 2.45713 5.71387 2.78306C5.65918 3.11392 5.62402 3.54355 5.60449 4.06701V17.0843C5.63574 17.5189 5.67481 17.8645 5.72949 18.1115C5.78027 18.3485 5.93262 18.5757 6.18262 18.7831C6.43262 18.9806 6.82324 19.0695 7.35449 19.0398H9.60449C10.1865 19.0152 10.6279 18.8966 10.9326 18.6843C11.2334 18.4621 11.4678 18.1213 11.6357 17.6571C11.8115 17.1831 12.0264 16.4226 12.2764 15.3658C12.4014 15.0003 12.6865 14.8522 13.1357 14.9312C13.2803 14.9707 13.4209 15.0596 13.5576 15.188C13.6904 15.3065 13.749 15.4645 13.7295 15.6621L13.2295 19.6324C13.1748 19.909 13.0967 20.0966 12.9951 20.1855C12.9014 20.2645 12.7373 20.304 12.5107 20.304H4.30762C3.40918 20.304 2.40918 20.3337 1.30762 20.4028Z" fill="black"/>
</svg>
