<svg width="12" height="22" viewBox="0 0 12 22" fill="none" xmlns="http://www.w3.org/2000/svg">
<path d="M5.78345 21.9365C4.03345 21.9365 2.6936 21.5513 1.76782 20.7908C0.838135 20.0155 0.377197 18.8846 0.377197 17.3933C0.377197 16.6328 0.580322 16.0056 0.986572 15.5167C1.40064 15.018 1.93189 14.7661 2.58032 14.7661C2.96314 14.7809 3.2561 14.8995 3.45532 15.1217C3.65064 15.3488 3.7522 15.5513 3.7522 15.734C3.7522 15.7637 3.66626 15.8427 3.5022 15.9711C3.33423 16.0896 3.18189 16.2822 3.04907 16.5439C2.92407 16.7958 2.86157 17.1365 2.86157 17.5711C2.86157 18.5587 3.09595 19.3242 3.5647 19.8624C4.04126 20.4056 4.78345 20.6723 5.78345 20.6723C6.47095 20.6723 7.0686 20.5093 7.58032 20.1785C8.09985 19.8377 8.49439 19.3883 8.76782 18.8353C9.04907 18.2723 9.1897 17.6846 9.1897 17.0772C9.1897 16.3167 9.01782 15.6649 8.67407 15.1217C8.33032 14.5686 7.90845 14.1093 7.40845 13.739C6.90845 13.3735 6.22485 12.9439 5.36157 12.455C4.36157 11.8921 3.54907 11.3785 2.92407 10.9143C2.30689 10.4402 1.78345 9.82292 1.34595 9.05748C0.916259 8.29699 0.705322 7.33896 0.705322 6.19328C0.705322 4.36612 1.19751 2.99328 2.1897 2.08464C3.1897 1.176 4.49439 0.72168 6.11157 0.72168C7.36939 0.72168 8.47095 1.06736 9.40845 1.74884C10.3538 2.42045 10.8303 3.4081 10.8303 4.7118C10.8303 5.47724 10.6272 6.10933 10.2209 6.6081C9.8147 7.09699 9.28345 7.33896 8.6272 7.33896C8.2522 7.31427 7.95923 7.19575 7.7522 6.98341C7.55298 6.76119 7.45532 6.54884 7.45532 6.35131C7.45532 6.34143 7.5647 6.26736 7.78345 6.13403C8.01001 6.00563 8.21314 5.81304 8.39282 5.56119C8.5686 5.31427 8.65845 4.96366 8.65845 4.51427C8.65845 3.73896 8.41626 3.13156 7.9397 2.69699C7.47095 2.25254 6.86548 2.02538 6.1272 2.02538C5.11548 2.02538 4.34595 2.33156 3.8147 2.93403C3.29126 3.52662 3.03345 4.26736 3.03345 5.14637C3.03345 5.88711 3.1897 6.5044 3.5022 7.00316C3.82251 7.50687 4.33423 7.99082 5.03345 8.46489C5.59595 8.85008 6.20923 9.23032 6.8772 9.61057C7.94751 10.218 8.79907 10.776 9.42407 11.2896C10.0491 11.7933 10.5686 12.455 10.9866 13.2846C11.4124 14.1044 11.6272 15.1217 11.6272 16.3464C11.6272 17.4032 11.3655 18.3562 10.8459 19.2106C10.3225 20.055 9.61548 20.7217 8.72095 21.2056C7.82251 21.6896 6.84595 21.9365 5.78345 21.9365Z" fill="black"/>
</svg>
