<svg width="8" height="21" viewBox="0 0 8 21" fill="none" xmlns="http://www.w3.org/2000/svg">
<path d="M1.32739 20.6323C1.17895 20.6323 1.06567 20.5632 0.983643 20.4348C0.909424 20.2916 0.874268 20.1286 0.874268 19.9409C0.893799 19.6249 0.944581 19.4372 1.03052 19.3681C1.12427 19.3039 1.28052 19.2693 1.49927 19.2693C1.98755 19.2693 2.34692 19.1607 2.57739 18.9335C2.80395 18.7113 2.95239 18.4397 3.01489 18.1237C3.0852 17.8076 3.13208 17.3829 3.15552 16.8397V4.2965C3.13208 3.74341 3.0852 3.30884 3.01489 2.9928C2.95239 2.67675 2.80395 2.41008 2.57739 2.18292C2.34692 1.9607 1.98755 1.84712 1.49927 1.84712H1.35864C1.20239 1.84712 1.0852 1.81749 1.01489 1.74835C0.940674 1.66934 0.893799 1.48662 0.874268 1.19526C0.874268 0.997733 0.909424 0.834771 0.983643 0.701437C1.06567 0.573043 1.17895 0.503906 1.32739 0.503906C2.40942 0.558228 3.3977 0.582919 4.29614 0.582919C5.29614 0.582919 6.33521 0.558228 7.42114 0.503906C7.57739 0.503906 7.69067 0.573043 7.76489 0.701437C7.83521 0.834771 7.87427 0.997733 7.87427 1.19526C7.86255 1.51131 7.81177 1.70391 7.71802 1.7681C7.62427 1.82243 7.46021 1.84712 7.23364 1.84712C6.74146 1.84712 6.37817 1.9607 6.13989 2.18292C5.90942 2.41008 5.76489 2.68662 5.70239 3.01255C5.64771 3.34341 5.61646 3.77304 5.60864 4.2965V16.8397C5.61646 17.3681 5.64771 17.7977 5.70239 18.1237C5.76489 18.4397 5.90942 18.7113 6.13989 18.9335C6.37817 19.1607 6.74146 19.2693 7.23364 19.2693H7.37427C7.53833 19.2693 7.65942 19.3088 7.73364 19.3879C7.81567 19.457 7.86255 19.6397 7.87427 19.9409C7.87427 20.1286 7.83521 20.2916 7.76489 20.4348C7.69067 20.5632 7.57739 20.6323 7.42114 20.6323C6.35864 20.5632 5.32739 20.5335 4.32739 20.5335C3.40942 20.5335 2.40942 20.5632 1.32739 20.6323Z" fill="black"/>
</svg>
