<svg width="17" height="22" viewBox="0 0 17 22" fill="none" xmlns="http://www.w3.org/2000/svg">
<path d="M1.16785 21.018C1.0116 21.018 0.894409 20.9489 0.824097 20.8205C0.749878 20.6773 0.714722 20.5143 0.714722 20.3267C0.722535 20.0106 0.769409 19.823 0.855347 19.7538C0.937378 19.6897 1.09753 19.6551 1.33972 19.6551C1.81628 19.6551 2.17175 19.5464 2.40222 19.3193C2.6405 19.0971 2.78503 18.8255 2.83972 18.5094C2.90222 18.1835 2.94128 17.7538 2.96472 17.2255V4.70199C2.94128 4.16372 2.90222 3.73409 2.83972 3.41804C2.78503 3.10199 2.6405 2.82545 2.40222 2.58841C2.17175 2.35138 1.81628 2.23286 1.33972 2.23286H1.18347C1.0155 2.23286 0.894409 2.20323 0.824097 2.13409C0.761597 2.05508 0.722535 1.87236 0.714722 1.58101C0.714722 1.38348 0.749878 1.22051 0.824097 1.08718C0.894409 0.958785 1.0116 0.889648 1.16785 0.889648C2.24988 0.94397 3.23816 0.968661 4.1366 0.968661H8.43347C9.71472 0.998291 10.7811 1.26002 11.6366 1.75878C12.4999 2.24767 13.1288 2.87977 13.5272 3.65508C13.9335 4.42051 14.1366 5.2452 14.1366 6.12422C14.1366 7.28471 13.7694 8.35138 13.0428 9.32422C12.3241 10.2872 11.3397 10.9785 10.0897 11.3983L10.5116 12.2674C11.2069 13.6897 11.8397 14.9143 12.4022 15.9415C12.9725 16.9687 13.5936 17.9267 14.2616 18.8057C14.7303 19.2946 15.2303 19.5761 15.7616 19.6551C15.7928 19.6551 15.8632 19.665 15.9803 19.6748C16.1053 19.6897 16.203 19.7489 16.2772 19.8526C16.3475 19.9613 16.3866 20.1193 16.3866 20.3267C16.3866 20.5143 16.3475 20.6773 16.2772 20.8205C16.203 20.9489 16.0897 21.018 15.9335 21.018L15.2928 20.9785C14.5507 20.939 14.0155 20.9193 13.6835 20.9193C13.0155 20.7514 12.4413 20.4551 11.9647 20.0304C11.496 19.5958 11.0272 18.9785 10.5585 18.1736C10.078 17.3736 9.40613 16.06 8.54285 14.2427L8.08972 13.3341C7.83972 12.8501 7.59363 12.5193 7.35535 12.3464C7.12488 12.1637 6.73035 12.0699 6.16785 12.0699H5.43347V17.2255C5.453 17.7538 5.48816 18.1835 5.54285 18.5094C5.60535 18.8255 5.74988 19.0971 5.98035 19.3193C6.21863 19.5464 6.578 19.6551 7.05847 19.6551H7.21472C7.35925 19.6551 7.46863 19.6946 7.54285 19.7736C7.62488 19.8427 7.67175 20.0255 7.68347 20.3267C7.68347 20.5143 7.64441 20.6773 7.5741 20.8205C7.49988 20.9489 7.3866 21.018 7.23035 21.018C6.16785 20.9489 5.12488 20.9193 4.10535 20.9193C3.23035 20.9193 2.24988 20.9489 1.16785 21.018ZM7.6366 10.8452C10.1132 10.8452 11.3553 9.3736 11.3553 6.42051C11.3553 5.21064 11.0311 4.19829 10.3866 3.37854C9.73816 2.56372 8.67175 2.15385 7.18347 2.15385C6.703 2.15385 6.33972 2.22792 6.08972 2.37113C5.83972 2.51928 5.66785 2.76619 5.5741 3.12175C5.48035 3.4773 5.43347 4.02545 5.43347 4.76125V10.8452H7.6366Z" fill="black"/>
</svg>
