<svg width="17" height="23" viewBox="0 0 17 23" fill="none" xmlns="http://www.w3.org/2000/svg">
<path d="M8.76086 22.166C7.17493 22.166 5.7804 21.682 4.57336 20.724C3.36243 19.766 2.42493 18.4919 1.76086 16.9117C1.10461 15.3314 0.776489 13.6425 0.776489 11.8351C0.776489 9.62278 1.17102 7.69685 1.96399 6.04747C2.75305 4.40302 3.76477 3.14376 4.99524 2.27463C6.23352 1.39562 7.48743 0.951172 8.76086 0.951172C10.3546 0.951172 11.7609 1.43512 12.9796 2.39315C14.2062 3.35611 15.1515 4.62031 15.8077 6.18574C16.4718 7.75611 16.8077 9.445 16.8077 11.2623C16.8077 13.4746 16.4054 15.4104 15.6046 17.0697C14.7999 18.7191 13.7765 19.9833 12.5265 20.8623C11.2765 21.7314 10.0187 22.166 8.76086 22.166ZM8.72961 20.7833C9.86243 20.7833 10.8077 20.3586 11.5577 19.4993C12.3156 18.645 12.8859 17.4993 13.2609 16.0623C13.6359 14.6154 13.8234 13.0154 13.8234 11.2623C13.8234 9.64253 13.6281 8.15611 13.2452 6.79809C12.8702 5.43018 12.296 4.34377 11.5265 3.53883C10.7648 2.72401 9.83118 2.31413 8.72961 2.31413C7.06165 2.31413 5.80774 3.2129 4.96399 5.00055C4.12024 6.77833 3.69836 9.02525 3.69836 11.7364C3.69836 13.3857 3.88586 14.8919 4.26086 16.2598C4.63586 17.6327 5.19836 18.729 5.94836 19.5586C6.69836 20.3783 7.62415 20.7833 8.72961 20.7833Z" fill="black"/>
</svg>
