<svg width="8" height="22" viewBox="0 0 8 22" fill="none" xmlns="http://www.w3.org/2000/svg">
<path d="M1.1189 21.018C0.970459 21.018 0.857178 20.9489 0.775146 20.8205C0.700927 20.6773 0.665771 20.5143 0.665771 20.3267C0.685302 20.0106 0.736084 19.823 0.822021 19.7538C0.915772 19.6897 1.07202 19.6551 1.29077 19.6551C1.77905 19.6551 2.13843 19.5464 2.3689 19.3193C2.59546 19.0971 2.7439 18.8255 2.8064 18.5094C2.87671 18.1934 2.92358 17.7687 2.94702 17.2255V4.68224C2.92358 4.12916 2.87671 3.69459 2.8064 3.37854C2.7439 3.06249 2.59546 2.79582 2.3689 2.56866C2.13843 2.34644 1.77905 2.23286 1.29077 2.23286H1.15015C0.993897 2.23286 0.876709 2.20323 0.806396 2.13409C0.732177 2.05508 0.685302 1.87236 0.665771 1.58101C0.665771 1.38348 0.700927 1.22051 0.775146 1.08718C0.857178 0.958785 0.970459 0.889648 1.1189 0.889648C2.20093 0.94397 3.18921 0.968661 4.08765 0.968661C5.08765 0.968661 6.12671 0.94397 7.21265 0.889648C7.3689 0.889648 7.48218 0.958785 7.5564 1.08718C7.62671 1.22051 7.66577 1.38348 7.66577 1.58101C7.65405 1.89706 7.60327 2.08965 7.50952 2.15385C7.41577 2.20817 7.25171 2.23286 7.02515 2.23286C6.53296 2.23286 6.16968 2.34644 5.9314 2.56866C5.70093 2.79582 5.5564 3.07236 5.4939 3.39829C5.43921 3.72916 5.40796 4.15879 5.40015 4.68224V17.2255C5.40796 17.7538 5.43921 18.1835 5.4939 18.5094C5.5564 18.8255 5.70093 19.0971 5.9314 19.3193C6.16968 19.5464 6.53296 19.6551 7.02515 19.6551H7.16577C7.32984 19.6551 7.45093 19.6946 7.52515 19.7736C7.60718 19.8427 7.65405 20.0255 7.66577 20.3267C7.66577 20.5143 7.62671 20.6773 7.5564 20.8205C7.48218 20.9489 7.3689 21.018 7.21265 21.018C6.15015 20.9489 5.1189 20.9193 4.1189 20.9193C3.20093 20.9193 2.20093 20.9489 1.1189 21.018Z" fill="black"/>
</svg>
