<svg width="8" height="22" viewBox="0 0 8 22" fill="none" xmlns="http://www.w3.org/2000/svg">
<path d="M0.792236 21.018C0.643798 21.018 0.530517 20.9489 0.448486 20.8205C0.374267 20.6773 0.339111 20.5143 0.339111 20.3267C0.358642 20.0106 0.409424 19.823 0.495361 19.7538C0.589111 19.6897 0.745361 19.6551 0.964111 19.6551C1.45239 19.6551 1.81177 19.5464 2.04224 19.3193C2.2688 19.0971 2.41724 18.8255 2.47974 18.5094C2.55005 18.1934 2.59692 17.7687 2.62036 17.2255V4.68224C2.59692 4.12916 2.55005 3.69459 2.47974 3.37854C2.41724 3.06249 2.2688 2.79582 2.04224 2.56866C1.81177 2.34644 1.45239 2.23286 0.964111 2.23286H0.823486C0.667236 2.23286 0.550048 2.20323 0.479736 2.13409C0.405517 2.05508 0.358642 1.87236 0.339111 1.58101C0.339111 1.38348 0.374267 1.22051 0.448486 1.08718C0.530517 0.958785 0.643798 0.889648 0.792236 0.889648C1.87427 0.94397 2.86255 0.968661 3.76099 0.968661C4.76099 0.968661 5.80005 0.94397 6.88599 0.889648C7.04224 0.889648 7.15552 0.958785 7.22974 1.08718C7.30005 1.22051 7.33911 1.38348 7.33911 1.58101C7.32739 1.89706 7.27661 2.08965 7.18286 2.15385C7.08911 2.20817 6.92505 2.23286 6.69849 2.23286C6.2063 2.23286 5.84302 2.34644 5.60474 2.56866C5.37427 2.79582 5.22974 3.07236 5.16724 3.39829C5.11255 3.72916 5.0813 4.15879 5.07349 4.68224V17.2255C5.0813 17.7538 5.11255 18.1835 5.16724 18.5094C5.22974 18.8255 5.37427 19.0971 5.60474 19.3193C5.84302 19.5464 6.2063 19.6551 6.69849 19.6551H6.83911C7.00318 19.6551 7.12427 19.6946 7.19849 19.7736C7.28052 19.8427 7.32739 20.0255 7.33911 20.3267C7.33911 20.5143 7.30005 20.6773 7.22974 20.8205C7.15552 20.9489 7.04224 21.018 6.88599 21.018C5.82349 20.9489 4.79224 20.9193 3.79224 20.9193C2.87427 20.9193 1.87427 20.9489 0.792236 21.018Z" fill="black"/>
</svg>
