<svg width="16" height="21" viewBox="0 0 16 21" fill="none" xmlns="http://www.w3.org/2000/svg">
<path d="M0.422119 20.6323C0.2854 20.6323 0.179931 20.5632 0.109619 20.4348C0.0354001 20.2916 0.000244141 20.1286 0.000244141 19.9409C0.00805714 19.6249 0.0549311 19.4372 0.140869 19.3681C0.2229 19.3039 0.383057 19.2693 0.625244 19.2693C1.10181 19.2693 1.45728 19.1607 1.68774 18.9335C1.92603 18.7113 2.07056 18.4397 2.12524 18.1237C2.18774 17.7977 2.22681 17.3681 2.25024 16.8397V4.2965C2.22681 3.77304 2.18774 3.34341 2.12524 3.01255C2.07056 2.68662 1.92603 2.41008 1.68774 2.18292C1.45728 1.9607 1.10181 1.84712 0.625244 1.84712H0.468994C0.301025 1.84712 0.179931 1.81749 0.109619 1.74835C0.0471191 1.66934 0.00805714 1.48662 0.000244141 1.19526C0.000244141 0.997733 0.0354001 0.834771 0.109619 0.701437C0.179931 0.573043 0.2854 0.503906 0.422119 0.503906C1.52368 0.558228 2.51587 0.582919 3.39087 0.582919H7.29712C8.89868 0.582919 10.3518 0.992795 11.6565 1.80761C12.969 2.62736 14.0002 3.79279 14.7502 5.30391C15.5081 6.81996 15.8909 8.61255 15.8909 10.6767C15.8909 12.8249 15.4612 14.6422 14.6096 16.1286C13.7542 17.62 12.6409 18.7261 11.2659 19.4471C9.89087 20.173 8.41431 20.5335 6.84399 20.5335H3.39087C2.51587 20.5335 1.52368 20.5632 0.422119 20.6323ZM7.21899 19.3681C9.16431 19.3681 10.594 18.6076 11.5002 17.0767C12.4143 15.5508 12.8752 13.4175 12.8752 10.6767C12.8752 8.95329 12.6252 7.41255 12.1252 6.05452C11.6331 4.68662 10.9221 3.62489 9.98462 2.87428C9.05493 2.11378 7.95337 1.7286 6.67212 1.7286L4.71899 1.7681V17.215C4.71899 18.0348 4.9104 18.5977 5.29712 18.9138C5.69165 19.22 6.33228 19.3681 7.21899 19.3681Z" fill="black"/>
</svg>
