<svg width="17" height="21" viewBox="0 0 17 21" fill="none" xmlns="http://www.w3.org/2000/svg">
<path d="M0.983643 20.4028C0.827393 20.4028 0.710205 20.3337 0.639893 20.2053C0.565674 20.0621 0.530518 19.8991 0.530518 19.7115C0.538331 19.3954 0.585205 19.2078 0.671143 19.1386C0.753174 19.0744 0.913331 19.0398 1.15552 19.0398C1.63208 19.0398 1.98755 18.9312 2.21802 18.704C2.4563 18.4818 2.60083 18.2102 2.65552 17.8942C2.71802 17.5682 2.75708 17.1386 2.78052 16.6102V4.08676C2.75708 3.54849 2.71802 3.11886 2.65552 2.80281C2.60083 2.48676 2.4563 2.21022 2.21802 1.97318C1.98755 1.73614 1.63208 1.61762 1.15552 1.61762H0.999268C0.831299 1.61762 0.710205 1.58799 0.639893 1.51886C0.577393 1.43985 0.538331 1.25713 0.530518 0.965772C0.530518 0.768241 0.565674 0.605279 0.639893 0.471945C0.710205 0.343551 0.827393 0.274414 0.983643 0.274414C2.06567 0.328735 3.05395 0.353426 3.95239 0.353426H8.24927C9.53052 0.383057 10.5969 0.644785 11.4524 1.14355C12.3157 1.63244 12.9446 2.26454 13.343 3.03985C13.7493 3.80528 13.9524 4.62997 13.9524 5.50898C13.9524 6.66948 13.5852 7.73614 12.8586 8.70898C12.1399 9.67195 11.1555 10.3633 9.90552 10.7831L10.3274 11.6522C11.0227 13.0744 11.6555 14.2991 12.218 15.3263C12.7883 16.3534 13.4094 17.3115 14.0774 18.1905C14.5461 18.6794 15.0461 18.9608 15.5774 19.0398C15.6086 19.0398 15.679 19.0497 15.7961 19.0596C15.9211 19.0744 16.0188 19.1337 16.093 19.2374C16.1633 19.346 16.2024 19.504 16.2024 19.7115C16.2024 19.8991 16.1633 20.0621 16.093 20.2053C16.0188 20.3337 15.9055 20.4028 15.7493 20.4028L15.1086 20.3633C14.3665 20.3238 13.8313 20.304 13.4993 20.304C12.8313 20.1361 12.2571 19.8398 11.7805 19.4152C11.3118 18.9806 10.843 18.3633 10.3743 17.5584C9.8938 16.7584 9.22192 15.4448 8.35864 13.6275L7.90552 12.7189C7.65552 12.2349 7.40942 11.904 7.17114 11.7312C6.94067 11.5485 6.54614 11.4547 5.98364 11.4547H5.24927V16.6102C5.2688 17.1386 5.30395 17.5682 5.35864 17.8942C5.42114 18.2102 5.56567 18.4818 5.79614 18.704C6.03442 18.9312 6.3938 19.0398 6.87427 19.0398H7.03052C7.17505 19.0398 7.28442 19.0794 7.35864 19.1584C7.44067 19.2275 7.48755 19.4102 7.49927 19.7115C7.49927 19.8991 7.4602 20.0621 7.38989 20.2053C7.31567 20.3337 7.20239 20.4028 7.04614 20.4028C5.98364 20.3337 4.94067 20.304 3.92114 20.304C3.04614 20.304 2.06567 20.3337 0.983643 20.4028ZM7.45239 10.23C9.92896 10.23 11.1711 8.75837 11.1711 5.80528C11.1711 4.5954 10.8469 3.58306 10.2024 2.7633C9.55396 1.94849 8.48755 1.53861 6.99927 1.53861C6.5188 1.53861 6.15552 1.61269 5.90552 1.7559C5.65552 1.90404 5.48364 2.15096 5.38989 2.50651C5.29614 2.86207 5.24927 3.41022 5.24927 4.14602V10.23H7.45239Z" fill="black"/>
</svg>
