<svg width="12" height="23" viewBox="0 0 12 23" fill="none" xmlns="http://www.w3.org/2000/svg">
<path d="M5.40784 22.166C3.65784 22.166 2.31799 21.7808 1.39221 21.0203C0.462525 20.245 0.00158691 19.1141 0.00158691 17.6228C0.00158691 16.8623 0.204712 16.2351 0.610962 15.7462C1.02502 15.2475 1.55627 14.9956 2.20471 14.9956C2.58752 15.0104 2.88049 15.129 3.07971 15.3512C3.27502 15.5783 3.37659 15.7808 3.37659 15.9635C3.37659 15.9931 3.29065 16.0722 3.12659 16.2006C2.95862 16.3191 2.80627 16.5117 2.67346 16.7734C2.54846 17.0252 2.48596 17.366 2.48596 17.8006C2.48596 18.7882 2.72034 19.5536 3.18909 20.0919C3.66565 20.6351 4.40784 20.9018 5.40784 20.9018C6.09534 20.9018 6.69299 20.7388 7.20471 20.408C7.72424 20.0672 8.11878 19.6178 8.39221 19.0648C8.67346 18.5018 8.81409 17.9141 8.81409 17.3067C8.81409 16.5462 8.64221 15.8944 8.29846 15.3512C7.95471 14.7981 7.53284 14.3388 7.03284 13.9685C6.53284 13.603 5.84924 13.1734 4.98596 12.6845C3.98596 12.1215 3.17346 11.608 2.54846 11.1438C1.93127 10.6697 1.40784 10.0524 0.970337 9.28697C0.540649 8.52648 0.329712 7.56846 0.329712 6.42278C0.329712 4.59562 0.821899 3.22278 1.81409 2.31413C2.81409 1.40549 4.11877 0.951172 5.73596 0.951172C6.99377 0.951172 8.09534 1.29685 9.03284 1.97833C9.97815 2.64994 10.4547 3.63759 10.4547 4.9413C10.4547 5.70673 10.2516 6.33883 9.84534 6.83759C9.43909 7.32648 8.90784 7.56846 8.25159 7.56846C7.87659 7.54377 7.58362 7.42525 7.37659 7.2129C7.17737 6.99068 7.07971 6.77833 7.07971 6.5808C7.07971 6.57092 7.18909 6.49685 7.40784 6.36352C7.6344 6.23512 7.83752 6.04253 8.01721 5.79068C8.19299 5.54376 8.28284 5.19315 8.28284 4.74376C8.28284 3.96846 8.04065 3.36105 7.56409 2.92648C7.09534 2.48204 6.48987 2.25488 5.75159 2.25488C4.73987 2.25488 3.97034 2.56105 3.43909 3.16352C2.91565 3.75611 2.65784 4.49685 2.65784 5.37586C2.65784 6.1166 2.81409 6.73389 3.12659 7.23265C3.4469 7.73636 3.95862 8.22031 4.65784 8.69438C5.22034 9.07957 5.83362 9.45981 6.50159 9.84006C7.5719 10.4475 8.42346 11.0055 9.04846 11.5191C9.67346 12.0228 10.193 12.6845 10.611 13.5141C11.0367 14.3339 11.2516 15.3512 11.2516 16.5759C11.2516 17.6327 10.9899 18.5857 10.4703 19.4401C9.9469 20.2845 9.23987 20.9512 8.34534 21.4351C7.4469 21.9191 6.47034 22.166 5.40784 22.166Z" fill="black"/>
</svg>
