<svg width="10" height="12" viewBox="0 0 10 12" fill="none" xmlns="http://www.w3.org/2000/svg">
<path d="M0.604492 5.80696C0.604492 4.65141 0.776367 3.63412 1.12012 2.76499C1.46387 1.89585 1.93262 1.22425 2.52637 0.750174C3.12012 0.2761 3.78027 0.0390625 4.51074 0.0390625C5.13574 0.0390625 5.68262 0.206964 6.15137 0.53289C6.62793 0.848939 6.99512 1.27363 7.24512 1.79709V0.197087H9.97949V11.4366H7.24512V9.83659C6.9834 10.365 6.61231 10.7946 6.13574 11.1205C5.66699 11.4366 5.12012 11.5946 4.49512 11.5946C3.77637 11.5946 3.12012 11.3576 2.52637 10.8835C1.93262 10.4094 1.46387 9.73289 1.12012 8.84894C0.776367 7.96993 0.604492 6.95264 0.604492 5.80696ZM7.24512 5.82672C7.24512 4.95758 7.05762 4.28104 6.68262 3.79215C6.30762 3.29338 5.84668 3.04153 5.30762 3.04153C4.76465 3.04153 4.30762 3.28845 3.93262 3.7724C3.55762 4.26128 3.37012 4.93783 3.37012 5.80696C3.37012 6.66622 3.55762 7.34277 3.93262 7.84153C4.30762 8.34524 4.76465 8.59215 5.30762 8.59215C5.84668 8.59215 6.30762 8.35017 6.68262 7.86128C7.05762 7.36252 7.24512 6.68598 7.24512 5.82672Z" fill="white"/>
</svg>
