<svg width="19" height="22" viewBox="0 0 19 22" fill="none" xmlns="http://www.w3.org/2000/svg">
<path d="M1.22656 21.018C1.07031 21.018 0.953124 20.9489 0.882812 20.8205C0.808593 20.6773 0.773438 20.5143 0.773438 20.3267C0.781251 20.0106 0.828125 19.823 0.914062 19.7538C0.996093 19.6897 1.15625 19.6551 1.39844 19.6551C1.875 19.6551 2.23047 19.5464 2.46094 19.3193C2.69922 19.0971 2.84375 18.8255 2.89844 18.5094C2.96094 18.1835 3 17.7538 3.02344 17.2255V4.68224C3 4.15879 2.96094 3.72916 2.89844 3.39829C2.84375 3.07236 2.69922 2.79582 2.46094 2.56866C2.23047 2.34644 1.875 2.23286 1.39844 2.23286H1.24219C1.07422 2.23286 0.953124 2.20323 0.882812 2.13409C0.820312 2.05508 0.781251 1.87236 0.773438 1.58101C0.773438 1.38348 0.808593 1.22051 0.882812 1.08718C0.953124 0.958785 1.07031 0.889648 1.22656 0.889648C2.30859 0.94397 3.28906 0.968661 4.16406 0.968661C5.16406 0.968661 6.20312 0.94397 7.28906 0.889648C7.44531 0.889648 7.55859 0.958785 7.63281 1.08718C7.70312 1.22051 7.74219 1.38348 7.74219 1.58101C7.73047 1.89706 7.68359 2.08965 7.60156 2.15385C7.51562 2.20817 7.35547 2.23286 7.11719 2.23286C6.63672 2.23286 6.27734 2.34644 6.03906 2.56866C5.80859 2.79582 5.66406 3.07236 5.60156 3.39829C5.54687 3.72916 5.51172 4.15879 5.49219 4.68224V10.2724H13.3516V4.68224C13.3281 4.15879 13.2891 3.72916 13.2266 3.39829C13.1719 3.07236 13.0273 2.79582 12.7891 2.56866C12.5586 2.34644 12.2031 2.23286 11.7266 2.23286H11.5703C11.4023 2.23286 11.2813 2.20323 11.2109 2.13409C11.1367 2.05508 11.0898 1.87236 11.0703 1.58101C11.0703 1.38348 11.1094 1.22051 11.1953 1.08718C11.2773 0.958785 11.3867 0.889648 11.5234 0.889648C12.6055 0.94397 13.6484 0.968661 14.6484 0.968661C15.5625 0.968661 16.5547 0.94397 17.6172 0.889648C17.7734 0.889648 17.8867 0.958785 17.9609 1.08718C18.0312 1.22051 18.0703 1.38348 18.0703 1.58101C18.0469 1.89706 17.9922 2.08965 17.8984 2.15385C17.8125 2.20817 17.6641 2.23286 17.4453 2.23286C16.9648 2.23286 16.6016 2.34644 16.3516 2.56866C16.1094 2.79582 15.9609 3.07236 15.8984 3.39829C15.8438 3.72916 15.8086 4.15879 15.7891 4.68224V17.2255C15.8086 17.7538 15.8438 18.1835 15.8984 18.5094C15.9609 18.8255 16.1094 19.0971 16.3516 19.3193C16.6016 19.5464 16.9648 19.6551 17.4453 19.6551H17.6016C17.7461 19.6551 17.8555 19.6946 17.9297 19.7736C18 19.8427 18.0469 20.0255 18.0703 20.3267C18.0703 20.5143 18.0312 20.6773 17.9609 20.8205C17.8867 20.9489 17.7734 21.018 17.6172 21.018C16.5547 20.9489 15.5547 20.9193 14.6172 20.9193C13.6367 20.9193 12.6055 20.9489 11.5234 21.018C11.3867 21.018 11.2773 20.9489 11.1953 20.8205C11.1094 20.6773 11.0703 20.5143 11.0703 20.3267C11.0898 20.0106 11.1406 19.823 11.2266 19.7538C11.3203 19.6897 11.4844 19.6551 11.7266 19.6551C12.2031 19.6551 12.5586 19.5464 12.7891 19.3193C13.0273 19.0971 13.1719 18.8255 13.2266 18.5094C13.2891 18.1835 13.3281 17.7538 13.3516 17.2255V11.6353H5.49219V17.2255C5.51172 17.7538 5.54687 18.1835 5.60156 18.5094C5.66406 18.8255 5.80859 19.0971 6.03906 19.3193C6.27734 19.5464 6.63672 19.6551 7.11719 19.6551H7.27344C7.4375 19.6551 7.55469 19.6946 7.61719 19.7736C7.6875 19.8427 7.73047 20.0255 7.74219 20.3267C7.74219 20.5143 7.70312 20.6773 7.63281 20.8205C7.55859 20.9489 7.44531 21.018 7.28906 21.018C6.22656 20.9489 5.19531 20.9193 4.19531 20.9193C3.29687 20.9193 2.30859 20.9489 1.22656 21.018Z" fill="black"/>
</svg>
