<svg width="18" height="21" viewBox="0 0 18 21" fill="none" xmlns="http://www.w3.org/2000/svg">
<path d="M1.4729 20.6324C1.32446 20.6324 1.21118 20.5633 1.12915 20.4349C1.05493 20.2917 1.01978 20.1287 1.01978 19.9411C1.03931 19.625 1.09009 19.4374 1.17603 19.3682C1.25806 19.304 1.41431 19.2695 1.64478 19.2695C2.13306 19.2695 2.48853 19.1608 2.70728 18.9337C2.93384 18.7114 3.07446 18.4497 3.12915 18.1435C3.17993 17.8423 3.21118 17.4077 3.2229 16.8398L3.26978 4.29663C3.26978 3.66453 3.21509 3.18552 3.11353 2.85466C3.00806 2.52873 2.83618 2.29169 2.5979 2.14355C2.36743 2.00034 2.0354 1.87688 1.5979 1.76824C1.31665 1.70404 1.13696 1.63984 1.06665 1.57071C1.00415 1.50651 0.9729 1.32873 0.9729 1.03737C0.9729 0.790458 1.02368 0.622557 1.12915 0.543545C1.24243 0.454657 1.41431 0.405273 1.64478 0.405273C2.68384 0.405273 3.50415 0.499101 4.0979 0.681817C4.69946 0.854656 5.23071 1.17071 5.69165 1.62996C6.14868 2.09416 6.65259 2.7954 7.20728 3.74355L14.051 15.1213H14.1292L14.0823 4.29663C14.0588 3.71885 14.0237 3.27935 13.9729 2.97317C13.9182 2.67194 13.7776 2.41021 13.551 2.18305C13.3323 1.96083 12.9807 1.84725 12.5042 1.84725H12.3479C12.1799 1.84725 12.0588 1.81762 11.9885 1.74848C11.9143 1.66947 11.8674 1.48676 11.8479 1.1954C11.8479 0.997866 11.887 0.834903 11.9729 0.70157C12.0549 0.573175 12.1643 0.504039 12.301 0.504039C13.3635 0.55836 14.1643 0.583051 14.7073 0.583051C15.0198 0.583051 15.6213 0.563298 16.5198 0.523792L17.051 0.504039C17.1956 0.504039 17.3049 0.573175 17.3792 0.70157C17.4612 0.834903 17.5042 0.997866 17.5042 1.1954C17.4807 1.51145 17.4299 1.70404 17.3479 1.76824C17.262 1.82256 17.1057 1.84725 16.8792 1.84725C16.387 1.84725 16.0276 1.96083 15.801 2.18305C15.5823 2.41021 15.4456 2.67194 15.3948 2.97317C15.3518 3.27935 15.3206 3.71885 15.301 4.29663L15.2542 20.2176C15.2307 20.4942 15.0237 20.6324 14.6292 20.6324C14.3049 20.6324 14.0588 20.4942 13.8948 20.2176L4.4729 4.29663H4.39478L4.45728 16.8398C4.46509 17.4077 4.49634 17.8423 4.55103 18.1435C4.60181 18.4497 4.73853 18.7114 4.95728 18.9337C5.18384 19.1608 5.53931 19.2695 6.01978 19.2695H6.17603C6.34009 19.2695 6.46118 19.309 6.5354 19.388C6.60571 19.4571 6.65259 19.6398 6.67603 19.9411C6.67603 20.1287 6.63696 20.2917 6.56665 20.4349C6.49243 20.5633 6.37915 20.6324 6.2229 20.6324C5.1604 20.5633 4.35181 20.5337 3.80103 20.5337C3.46509 20.5337 2.88306 20.5534 2.05103 20.5929L1.4729 20.6324Z" fill="black"/>
</svg>
