<svg width="14" height="21" viewBox="0 0 14 21" fill="none" xmlns="http://www.w3.org/2000/svg">
<path d="M0.54126 20.4028C0.404541 20.4028 0.299072 20.3337 0.22876 20.2053C0.154541 20.0621 0.119385 19.8991 0.119385 19.7115C0.127198 19.3954 0.174072 19.2078 0.26001 19.1386C0.342041 19.0744 0.502198 19.0398 0.744385 19.0398C1.22095 19.0398 1.57642 18.9312 1.80689 18.704C2.04517 18.4818 2.1897 18.2102 2.24439 17.8942C2.30689 17.5682 2.34595 17.1386 2.36939 16.6102V4.06701C2.34595 3.54355 2.30689 3.11392 2.24439 2.78306C2.1897 2.45713 2.04517 2.18059 1.80689 1.95343C1.57642 1.7312 1.22095 1.61762 0.744385 1.61762H0.588135C0.420166 1.61762 0.299072 1.58799 0.22876 1.51886C0.16626 1.43985 0.127198 1.25713 0.119385 0.965772C0.119385 0.768241 0.154541 0.605279 0.22876 0.471945C0.299072 0.343551 0.404541 0.274414 0.54126 0.274414C1.64282 0.328735 2.63501 0.353426 3.51001 0.353426H11.3694C11.7952 0.353426 12.01 0.610217 12.01 1.1238L12.0881 5.54849C12.0881 5.73614 12.01 5.88429 11.8538 6.00281C11.7053 6.12133 11.5608 6.18059 11.4163 6.18059C11.217 6.18059 11.0413 6.13614 10.885 6.04232C10.7366 5.93861 10.6545 5.7954 10.635 5.60775C10.51 4.58059 10.3616 3.80034 10.1975 3.25713C10.0413 2.71886 9.80689 2.31886 9.49439 2.05219C9.1897 1.79046 8.76001 1.64725 8.19751 1.61762H4.83814V9.65713H9.36939C9.48267 9.67195 9.57251 9.75096 9.63501 9.89417C9.70532 10.0275 9.74439 10.1905 9.74439 10.388C9.74439 10.546 9.70532 10.6942 9.63501 10.8226C9.57251 10.9559 9.48267 11.0201 9.36939 11.0201H4.83814V16.9855C4.86939 17.4349 4.90845 17.7905 4.96314 18.0522C5.01392 18.3189 5.16626 18.5559 5.41626 18.7633C5.66626 18.9757 6.05689 19.0695 6.58814 19.0398H8.88501C9.46704 19.0152 9.90845 18.8966 10.2131 18.6843C10.5139 18.4621 10.7522 18.1213 10.9319 17.6571C11.1077 17.1831 11.3225 16.4226 11.5725 15.3658C11.6858 15.0003 11.967 14.8522 12.4163 14.9312C12.5803 14.9707 12.7288 15.0596 12.8538 15.188C12.9788 15.3065 13.0295 15.4645 13.01 15.6621L12.51 19.6324C12.467 19.909 12.3928 20.0966 12.2913 20.1855C12.1858 20.2645 12.0178 20.304 11.7913 20.304H3.54126C2.64282 20.304 1.64282 20.3337 0.54126 20.4028Z" fill="black"/>
</svg>
