<svg width="12" height="15" viewBox="0 0 12 15" fill="none" xmlns="http://www.w3.org/2000/svg">
<path d="M0.894043 7.34442C0.894043 5.95183 1.12842 4.70738 1.59717 3.61109C2.07373 2.51973 2.7417 1.67035 3.59717 1.06294C4.44873 0.460469 5.41748 0.154297 6.50342 0.154297C7.83545 0.154297 8.97217 0.598742 9.90967 1.47775C10.855 2.3617 11.4917 3.56664 11.8159 5.09257H8.81592C8.59717 4.49998 8.27685 4.05553 7.86279 3.74936C7.45654 3.43331 6.9917 3.27528 6.47217 3.27528C5.63623 3.27528 4.96045 3.65059 4.44092 4.40121C3.91748 5.14195 3.65967 6.11973 3.65967 7.34442C3.65967 8.58393 3.91748 9.57158 4.44092 10.3074C4.96045 11.0481 5.63623 11.4136 6.47217 11.4136C6.9917 11.4136 7.45654 11.2654 7.86279 10.9592C8.27685 10.6432 8.59717 10.1889 8.81592 9.59627H11.8159C11.4917 11.137 10.855 12.3518 9.90967 13.2308C8.97217 14.1 7.83545 14.5345 6.50342 14.5345C5.41748 14.5345 4.44873 14.2333 3.59717 13.6259C2.7417 13.0086 2.07373 12.1592 1.59717 11.0778C1.12842 9.9864 0.894043 8.74195 0.894043 7.34442Z" fill="white"/>
</svg>
