<svg width="14" height="21" viewBox="0 0 14 21" fill="none" xmlns="http://www.w3.org/2000/svg">
<path d="M0.597168 20.4028C0.460449 20.4028 0.35498 20.3337 0.284668 20.2053C0.210449 20.0621 0.175293 19.8991 0.175293 19.7115C0.183106 19.3954 0.22998 19.2078 0.315918 19.1386C0.397949 19.0744 0.558106 19.0398 0.800293 19.0398C1.27686 19.0398 1.63232 18.9312 1.86279 18.704C2.10107 18.4818 2.24561 18.2102 2.30029 17.8942C2.36279 17.5682 2.40186 17.1386 2.42529 16.6102V4.06701C2.40186 3.54355 2.36279 3.11392 2.30029 2.78306C2.24561 2.45713 2.10107 2.18059 1.86279 1.95343C1.63232 1.7312 1.27686 1.61762 0.800293 1.61762H0.644043C0.476074 1.61762 0.35498 1.58799 0.284668 1.51886C0.222168 1.43985 0.183106 1.25713 0.175293 0.965772C0.175293 0.768241 0.210449 0.605279 0.284668 0.471945C0.35498 0.343551 0.460449 0.274414 0.597168 0.274414C1.69873 0.328735 2.69092 0.353426 3.56592 0.353426C4.56592 0.353426 5.60498 0.328735 6.69092 0.274414C6.84717 0.274414 6.96045 0.343551 7.03467 0.471945C7.10498 0.605279 7.14404 0.768241 7.14404 0.965772C7.13232 1.28182 7.08154 1.47441 6.98779 1.53861C6.89404 1.59293 6.73779 1.61762 6.51904 1.61762C6.03857 1.61762 5.6792 1.7312 5.44092 1.95343C5.21045 2.18059 5.06592 2.45713 5.00342 2.78306C4.94873 3.11392 4.91357 3.54355 4.89404 4.06701V17.0843C4.92529 17.5189 4.96436 17.8645 5.01904 18.1115C5.06982 18.3485 5.22217 18.5757 5.47217 18.7831C5.72217 18.9806 6.11279 19.0695 6.64404 19.0398H8.89404C9.47608 19.0152 9.91748 18.8966 10.2222 18.6843C10.523 18.4621 10.7573 18.1213 10.9253 17.6571C11.1011 17.1831 11.3159 16.4226 11.5659 15.3658C11.6909 15.0003 11.9761 14.8522 12.4253 14.9312C12.5698 14.9707 12.7105 15.0596 12.8472 15.188C12.98 15.3065 13.0386 15.4645 13.019 15.6621L12.519 19.6324C12.4644 19.909 12.3862 20.0966 12.2847 20.1855C12.1909 20.2645 12.0269 20.304 11.8003 20.304H3.59717C2.69873 20.304 1.69873 20.3337 0.597168 20.4028Z" fill="black"/>
</svg>
