<svg width="8" height="21" viewBox="0 0 8 21" fill="none" xmlns="http://www.w3.org/2000/svg">
<path d="M1.0835 20.4028C0.935058 20.4028 0.821777 20.3337 0.739746 20.2053C0.665527 20.0621 0.630371 19.8991 0.630371 19.7115C0.649902 19.3954 0.700684 19.2078 0.786621 19.1386C0.880371 19.0744 1.03662 19.0398 1.25537 19.0398C1.74365 19.0398 2.10303 18.9312 2.3335 18.704C2.56006 18.4818 2.7085 18.2102 2.771 17.8942C2.84131 17.5781 2.88818 17.1534 2.91162 16.6102V4.06701C2.88818 3.51392 2.84131 3.07935 2.771 2.7633C2.7085 2.44725 2.56006 2.18059 2.3335 1.95343C2.10303 1.7312 1.74365 1.61762 1.25537 1.61762H1.11475C0.958496 1.61762 0.841308 1.58799 0.770996 1.51886C0.696777 1.43985 0.649902 1.25713 0.630371 0.965772C0.630371 0.768241 0.665527 0.605279 0.739746 0.471945C0.821777 0.343551 0.935058 0.274414 1.0835 0.274414C2.16553 0.328735 3.15381 0.353426 4.05225 0.353426C5.05225 0.353426 6.09131 0.328735 7.17725 0.274414C7.3335 0.274414 7.44678 0.343551 7.521 0.471945C7.59131 0.605279 7.63037 0.768241 7.63037 0.965772C7.61865 1.28182 7.56787 1.47441 7.47412 1.53861C7.38037 1.59293 7.21631 1.61762 6.98975 1.61762C6.49756 1.61762 6.13428 1.7312 5.896 1.95343C5.66553 2.18059 5.521 2.45713 5.4585 2.78306C5.40381 3.11392 5.37256 3.54355 5.36475 4.06701V16.6102C5.37256 17.1386 5.40381 17.5682 5.4585 17.8942C5.521 18.2102 5.66553 18.4818 5.896 18.704C6.13428 18.9312 6.49756 19.0398 6.98975 19.0398H7.13037C7.29444 19.0398 7.41553 19.0794 7.48975 19.1584C7.57178 19.2275 7.61865 19.4102 7.63037 19.7115C7.63037 19.8991 7.59131 20.0621 7.521 20.2053C7.44678 20.3337 7.3335 20.4028 7.17725 20.4028C6.11475 20.3337 5.0835 20.304 4.0835 20.304C3.16553 20.304 2.16553 20.3337 1.0835 20.4028Z" fill="black"/>
</svg>
