<svg width="18" height="22" viewBox="0 0 18 22" fill="none" xmlns="http://www.w3.org/2000/svg">
<path d="M8.75439 21.1656C7.47314 21.1656 6.37939 20.8792 5.47314 20.3163C4.56689 19.7533 3.87939 19.0076 3.41064 18.0842C2.94189 17.1508 2.70752 16.1434 2.70752 15.0619V4.2965C2.6958 3.77304 2.66064 3.34341 2.59814 3.01255C2.53564 2.68662 2.38721 2.41008 2.16064 2.18292C1.93018 1.9607 1.5708 1.84712 1.08252 1.84712H0.941895C0.773926 1.84712 0.652833 1.81749 0.58252 1.74835C0.52002 1.66934 0.477051 1.48662 0.45752 1.19526C0.45752 0.997733 0.492676 0.834771 0.566895 0.701437C0.648926 0.573043 0.762207 0.503906 0.910645 0.503906C1.97314 0.558228 2.95752 0.582919 3.86377 0.582919C4.87158 0.582919 5.91455 0.558228 6.98877 0.503906C7.1333 0.503906 7.24268 0.573043 7.31689 0.701437C7.39893 0.834771 7.44189 0.997733 7.44189 1.19526C7.41846 1.48662 7.37158 1.66934 7.30127 1.74835C7.22705 1.81749 7.10596 1.84712 6.94189 1.84712C6.39893 1.84712 6.00439 1.95576 5.75439 2.16317C5.50439 2.37551 5.34814 2.63724 5.28564 2.95329C5.23096 3.26934 5.19971 3.71872 5.19189 4.2965V14.1533C5.19189 15.6051 5.46143 16.8298 6.00439 17.8274C6.54346 18.815 7.59814 19.3088 9.16064 19.3088C10.6919 19.3088 11.7739 18.8644 12.4106 17.9656C13.0552 17.0718 13.3794 15.9459 13.3794 14.5879V6.27181C13.3794 4.84959 13.3364 3.84218 13.2544 3.24959C13.1685 2.65699 13.0044 2.27675 12.7544 2.10391C12.5044 1.936 12.0708 1.84712 11.4575 1.84712H11.3169C11.1606 1.84712 11.0435 1.81749 10.9731 1.74835C10.8989 1.66934 10.8521 1.48662 10.8325 1.19526C10.8325 0.997733 10.8677 0.834771 10.9419 0.701437C11.0239 0.573043 11.1372 0.503906 11.2856 0.503906C12.3677 0.558228 13.3013 0.582919 14.0825 0.582919C14.8833 0.582919 15.8169 0.558228 16.8794 0.503906C17.0356 0.503906 17.1489 0.573043 17.2231 0.701437C17.2935 0.834771 17.3325 0.997733 17.3325 1.19526C17.3208 1.48662 17.2739 1.66934 17.1919 1.74835C17.1177 1.81749 16.9966 1.84712 16.8325 1.84712C16.1646 1.84712 15.6997 1.92613 15.4419 2.08415C15.1919 2.2323 15.02 2.58786 14.9263 3.15082C14.8325 3.70391 14.7856 4.68662 14.7856 6.09403V14.9039C14.7856 16.3163 14.4771 17.4916 13.8638 18.4397C13.2466 19.378 12.4771 20.0693 11.5513 20.5138C10.6216 20.9484 9.69189 21.1656 8.75439 21.1656Z" fill="black"/>
</svg>
