<svg width="18" height="22" viewBox="0 0 18 22" fill="none" xmlns="http://www.w3.org/2000/svg">
<path d="M0.768555 21.0182C0.612305 21.0182 0.499024 20.949 0.424805 20.8206C0.354493 20.6774 0.31543 20.5145 0.31543 20.3268C0.327149 20.0108 0.374024 19.8231 0.456055 19.754C0.541992 19.6898 0.635742 19.6552 0.75293 19.6552C0.87793 19.6552 0.956055 19.6552 0.987305 19.6552C1.4873 19.6552 1.85059 19.4923 2.08105 19.1614C2.31934 18.8355 2.50684 18.4651 2.64355 18.0552C2.78809 17.6503 2.88574 17.3737 2.94043 17.2256L7.31543 4.12929C7.40918 3.81324 7.45605 3.56632 7.45605 3.37867C7.45605 2.99842 7.33887 2.72682 7.1123 2.56879C6.88184 2.40089 6.55762 2.26262 6.14355 2.15398C5.85059 2.08978 5.6748 2.02558 5.6123 1.95645C5.5498 1.89225 5.51855 1.71447 5.51855 1.42311C5.51855 1.1762 5.56934 1.0083 5.6748 0.929287C5.77637 0.840399 5.94824 0.791016 6.19043 0.791016C7.02246 0.791016 7.68262 0.870028 8.1748 1.02805C8.66309 1.18608 9.08887 1.50213 9.45605 1.9762C9.83105 2.45027 10.1748 3.17126 10.4873 4.12929L14.6904 17.2256C14.9404 18.0305 15.1787 18.6281 15.4092 19.0231C15.6475 19.4182 15.9951 19.6305 16.4561 19.6552H16.6123C16.7764 19.6552 16.8936 19.6947 16.9561 19.7737C17.0264 19.8429 17.0693 20.0256 17.0811 20.3268C17.0811 20.5145 17.042 20.6774 16.9717 20.8206C16.8975 20.949 16.7881 21.0182 16.6436 21.0182C15.5693 20.949 14.6514 20.9194 13.8936 20.9194C12.8936 20.9194 11.8545 20.949 10.7842 21.0182C10.6357 21.0182 10.5225 20.949 10.4404 20.8206C10.3662 20.6774 10.3311 20.5145 10.3311 20.3268C10.3506 20.0256 10.3936 19.8429 10.4561 19.7737C10.5264 19.6947 10.6475 19.6552 10.8154 19.6552C11.3779 19.6552 11.7725 19.591 12.0029 19.4577C12.2412 19.3145 12.3623 19.0626 12.3623 18.7071C12.3623 18.4305 12.2607 17.9367 12.0654 17.2256L11.2061 14.5984H5.03418C4.61621 15.9021 4.37793 16.6626 4.31543 16.87C4.26074 17.0824 4.2373 17.2009 4.2373 17.2256C4.03809 18.0305 3.94043 18.5441 3.94043 18.7663C3.94043 19.1219 4.06543 19.3589 4.31543 19.4774C4.56543 19.596 5.03809 19.6552 5.7373 19.6552H5.89355C6.05762 19.6552 6.1748 19.6947 6.2373 19.7737C6.2998 19.8429 6.33887 20.0256 6.3623 20.3268C6.3623 20.5145 6.32324 20.6774 6.25293 20.8206C6.17871 20.949 6.06543 21.0182 5.90918 21.0182C4.84668 20.949 3.94043 20.9194 3.19043 20.9194C2.65918 20.9194 1.85059 20.949 0.768555 21.0182ZM5.51855 13.2355H10.7686L8.2373 5.11694H8.15918L5.51855 13.2355Z" fill="black"/>
</svg>
