<svg width="18" height="21" viewBox="0 0 18 21" fill="none" xmlns="http://www.w3.org/2000/svg">
<path d="M0.760132 20.6324C0.603882 20.6324 0.490601 20.5633 0.416382 20.4349C0.34607 20.2917 0.307007 20.1287 0.307007 19.9411C0.318726 19.625 0.365601 19.4374 0.447632 19.3682C0.533569 19.304 0.627319 19.2695 0.744507 19.2695C0.869507 19.2695 0.947632 19.2695 0.978882 19.2695C1.47888 19.2695 1.84216 19.1065 2.07263 18.7756C2.31091 18.4497 2.49841 18.0793 2.63513 17.6695C2.77966 17.2645 2.87732 16.988 2.93201 16.8398L7.30701 3.74355C7.40076 3.4275 7.44763 3.18058 7.44763 2.99293C7.44763 2.61268 7.33044 2.34108 7.10388 2.18305C6.87341 2.01515 6.54919 1.87688 6.13513 1.76824C5.84216 1.70404 5.66638 1.63984 5.60388 1.57071C5.54138 1.50651 5.51013 1.32873 5.51013 1.03737C5.51013 0.790458 5.56091 0.622557 5.66638 0.543545C5.76794 0.454657 5.93982 0.405273 6.18201 0.405273C7.01404 0.405273 7.67419 0.484286 8.16638 0.64231C8.65466 0.800335 9.08045 1.11638 9.44763 1.59046C9.82263 2.06453 10.1664 2.78552 10.4789 3.74355L14.682 16.8398C14.932 17.6448 15.1703 18.2423 15.4008 18.6374C15.639 19.0324 15.9867 19.2448 16.4476 19.2695H16.6039C16.7679 19.2695 16.8851 19.309 16.9476 19.388C17.0179 19.4571 17.0609 19.6398 17.0726 19.9411C17.0726 20.1287 17.0336 20.2917 16.9633 20.4349C16.889 20.5633 16.7797 20.6324 16.6351 20.6324C15.5609 20.5633 14.6429 20.5337 13.8851 20.5337C12.8851 20.5337 11.8461 20.5633 10.7758 20.6324C10.6273 20.6324 10.514 20.5633 10.432 20.4349C10.3578 20.2917 10.3226 20.1287 10.3226 19.9411C10.3422 19.6398 10.3851 19.4571 10.4476 19.388C10.5179 19.309 10.639 19.2695 10.807 19.2695C11.3695 19.2695 11.764 19.2053 11.9945 19.0719C12.2328 18.9287 12.3539 18.6769 12.3539 18.3213C12.3539 18.0448 12.2523 17.551 12.057 16.8398L11.1976 14.2127H5.02576C4.60779 15.5164 4.36951 16.2769 4.30701 16.4843C4.25232 16.6966 4.22888 16.8152 4.22888 16.8398C4.02966 17.6448 3.93201 18.1584 3.93201 18.3806C3.93201 18.7361 4.05701 18.9732 4.30701 19.0917C4.55701 19.2102 5.02966 19.2695 5.72888 19.2695H5.88513C6.04919 19.2695 6.16638 19.309 6.22888 19.388C6.29138 19.4571 6.33044 19.6398 6.35388 19.9411C6.35388 20.1287 6.31482 20.2917 6.24451 20.4349C6.17029 20.5633 6.05701 20.6324 5.90076 20.6324C4.83826 20.5633 3.93201 20.5337 3.18201 20.5337C2.65076 20.5337 1.84216 20.5633 0.760132 20.6324ZM5.51013 12.8497H10.7601L8.22888 4.7312H8.15076L5.51013 12.8497Z" fill="black"/>
</svg>
