<svg width="17" height="22" viewBox="0 0 17 22" fill="none" xmlns="http://www.w3.org/2000/svg">
<path d="M5.35095 21.018C5.20251 21.018 5.08923 20.9488 5.0072 20.8204C4.93298 20.6772 4.89783 20.5142 4.89783 20.3266C4.91736 20.0105 4.96814 19.8229 5.05408 19.7538C5.14783 19.6896 5.30408 19.655 5.52283 19.655C6.01111 19.655 6.37048 19.5463 6.60095 19.3192C6.82751 19.097 6.97595 18.8254 7.03845 18.5093C7.10095 18.1834 7.13611 17.7538 7.14783 17.2254V13.2747C7.14783 12.934 6.73377 11.7093 5.91345 9.60067C5.08923 7.48215 4.41736 5.82783 3.89783 4.64265C3.56189 3.88215 3.1947 3.31425 2.78845 2.94388C2.39001 2.57845 1.90173 2.32166 1.3197 2.17351C1.2572 2.16363 1.15564 2.14388 1.02283 2.11425C0.886108 2.07474 0.796264 2.01055 0.757202 1.91672C0.714233 1.81302 0.694702 1.65499 0.694702 1.44265C0.694702 1.19573 0.745483 1.02783 0.850952 0.948818C0.964233 0.859929 1.14001 0.810547 1.3822 0.810547C2.71423 0.810547 3.7572 1.04265 4.5072 1.5019C5.2572 1.95129 5.92126 2.82042 6.5072 4.10931C6.78845 4.81055 7.17908 5.80808 7.67908 7.11178C8.40564 8.96857 8.89001 10.1686 9.1322 10.7068H9.1947L11.976 3.79326C12.1205 3.37351 12.1947 3.0624 12.1947 2.86487C12.1947 2.61795 12.0892 2.45005 11.8822 2.37104C11.6713 2.28215 11.3392 2.23277 10.8822 2.23277H10.726C10.558 2.23277 10.4369 2.20314 10.3666 2.134C10.3041 2.05499 10.265 1.87228 10.2572 1.58092C10.2572 1.38339 10.2924 1.22042 10.3666 1.08709C10.4369 0.958696 10.5424 0.889559 10.6791 0.889559C11.7611 0.943881 12.6674 0.968572 13.3978 0.968572C14.0111 0.968572 14.8549 0.943881 15.9291 0.889559C16.0736 0.889559 16.183 0.958696 16.2572 1.08709C16.3392 1.22042 16.3822 1.38339 16.3822 1.58092C16.3588 1.87228 16.3119 2.05499 16.2416 2.134C16.1791 2.20314 16.0619 2.23277 15.8978 2.23277C15.2181 2.23277 14.6713 2.40067 14.2572 2.7266C13.8392 3.05746 13.4642 3.61055 13.1322 4.38586L10.3041 11.1217C10.2494 11.255 10.1478 11.5167 9.99158 11.9118C9.84314 12.297 9.74548 12.6525 9.6947 12.9784C9.65173 13.2945 9.6322 13.6896 9.6322 14.1636V17.2254C9.64002 17.7538 9.67127 18.1834 9.72595 18.5093C9.78845 18.8254 9.93298 19.097 10.1635 19.3192C10.4017 19.5463 10.765 19.655 11.2572 19.655H11.3978C11.5619 19.655 11.6791 19.6945 11.7416 19.7735C11.8119 19.8426 11.8588 20.0254 11.8822 20.3266C11.8822 20.5142 11.8392 20.6772 11.7572 20.8204C11.683 20.9488 11.5775 21.018 11.4447 21.018C10.3822 20.9488 9.3822 20.9192 8.4447 20.9192C7.46423 20.9192 6.43298 20.9488 5.35095 21.018Z" fill="black"/>
</svg>
