<svg width="10" height="17" viewBox="0 0 10 17" fill="none" xmlns="http://www.w3.org/2000/svg">
<path d="M3.19653 1.79709C3.46606 1.27363 3.83716 0.848939 4.30591 0.53289C4.77466 0.206964 5.32153 0.0390625 5.94653 0.0390625C6.6731 0.0390625 7.33716 0.2761 7.93091 0.750174C8.52466 1.22425 8.99341 1.89585 9.33716 2.76499C9.68091 3.63412 9.85278 4.65141 9.85278 5.80696C9.85278 6.95264 9.68091 7.96993 9.33716 8.84894C8.99341 9.73289 8.52466 10.4094 7.93091 10.8835C7.33716 11.3576 6.6731 11.5946 5.94653 11.5946C5.32935 11.5946 4.78247 11.4366 4.30591 11.1205C3.83716 10.7946 3.46606 10.3798 3.19653 9.8761V16.7897H0.477783V0.197087H3.19653V1.79709ZM7.08716 5.80696C7.08716 4.93783 6.89966 4.26129 6.52466 3.7724C6.14966 3.28845 5.68481 3.04153 5.13403 3.04153C4.59106 3.04153 4.12622 3.29338 3.74341 3.79215C3.36841 4.28104 3.18091 4.95758 3.18091 5.82672C3.18091 6.68598 3.36841 7.36252 3.74341 7.86129C4.12622 8.35017 4.59106 8.59215 5.13403 8.59215C5.6731 8.59215 6.13403 8.34524 6.50903 7.84153C6.89185 7.34277 7.08716 6.66622 7.08716 5.80696Z" fill="white"/>
</svg>
