<svg width="10" height="15" viewBox="0 0 10 15" fill="none" xmlns="http://www.w3.org/2000/svg">
<path d="M2.92139 0.3125V8.76682C2.92139 9.61127 3.08545 10.2631 3.42139 10.7224C3.75342 11.1718 4.23779 11.394 4.87451 11.394C5.50732 11.394 5.9917 11.1718 6.32764 10.7224C6.67139 10.2631 6.84326 9.61127 6.84326 8.76682V0.3125H9.56201V8.74707C9.56201 10.0014 9.34717 11.0681 8.92139 11.9471C8.50342 12.8162 7.93701 13.4779 7.21826 13.9224C6.49951 14.3569 5.70264 14.5742 4.82764 14.5742C3.94092 14.5742 3.14795 14.3569 2.45264 13.9224C1.76514 13.4878 1.21826 12.831 0.812012 11.9471C0.405762 11.0681 0.202637 10.0014 0.202637 8.74707V0.3125H2.92139Z" fill="white"/>
</svg>
