<svg width="18" height="21" viewBox="0 0 18 21" fill="none" xmlns="http://www.w3.org/2000/svg">
<path d="M1.48914 20.4029C1.3407 20.4029 1.22742 20.3338 1.14539 20.2054C1.07117 20.0622 1.03601 19.8992 1.03601 19.7116C1.05554 19.3955 1.10632 19.2079 1.19226 19.1387C1.27429 19.0745 1.43054 19.04 1.66101 19.04C2.14929 19.04 2.50476 18.9313 2.72351 18.7042C2.95007 18.482 3.0907 18.2202 3.14539 17.9141C3.19617 17.6128 3.22742 17.1783 3.23914 16.6103L3.28601 4.06714C3.28601 3.43504 3.23132 2.95603 3.12976 2.62516C3.02429 2.29924 2.85242 2.0622 2.61414 1.91405C2.38367 1.77084 2.05164 1.64739 1.61414 1.53874C1.33289 1.47455 1.1532 1.41035 1.08289 1.34121C1.02039 1.27702 0.989136 1.09924 0.989136 0.80788C0.989136 0.560966 1.03992 0.393065 1.14539 0.314053C1.25867 0.225165 1.43054 0.175781 1.66101 0.175781C2.70007 0.175781 3.52039 0.269609 4.11414 0.452324C4.7157 0.625164 5.24695 0.941214 5.70789 1.40047C6.16492 1.86467 6.66882 2.5659 7.22351 3.51405L14.0673 14.8918H14.1454L14.0985 4.06714C14.0751 3.48936 14.0399 3.04985 13.9891 2.74368C13.9344 2.44245 13.7938 2.18072 13.5673 1.95356C13.3485 1.73134 12.9969 1.61776 12.5204 1.61776H12.3641C12.1962 1.61776 12.0751 1.58813 12.0048 1.51899C11.9305 1.43998 11.8837 1.25726 11.8641 0.965905C11.8641 0.768374 11.9032 0.605411 11.9891 0.472078C12.0712 0.343683 12.1805 0.274547 12.3173 0.274547C13.3798 0.328868 14.1805 0.353559 14.7235 0.353559C15.036 0.353559 15.6376 0.333806 16.536 0.2943L17.0673 0.274547C17.2118 0.274547 17.3212 0.343683 17.3954 0.472078C17.4774 0.605411 17.5204 0.768374 17.5204 0.965905C17.4969 1.28195 17.4462 1.47455 17.3641 1.53874C17.2782 1.59307 17.1219 1.61776 16.8954 1.61776C16.4032 1.61776 16.0438 1.73134 15.8173 1.95356C15.5985 2.18072 15.4618 2.44245 15.411 2.74368C15.368 3.04985 15.3368 3.48936 15.3173 4.06714L15.2704 19.9881C15.2469 20.2647 15.0399 20.4029 14.6454 20.4029C14.3212 20.4029 14.0751 20.2647 13.911 19.9881L4.48914 4.06714H4.41101L4.47351 16.6103C4.48132 17.1783 4.51257 17.6128 4.56726 17.9141C4.61804 18.2202 4.75476 18.482 4.97351 18.7042C5.20007 18.9313 5.55554 19.04 6.03601 19.04H6.19226C6.35632 19.04 6.47742 19.0795 6.55164 19.1585C6.62195 19.2276 6.66882 19.4104 6.69226 19.7116C6.69226 19.8992 6.6532 20.0622 6.58289 20.2054C6.50867 20.3338 6.39539 20.4029 6.23914 20.4029C5.17664 20.3338 4.36804 20.3042 3.81726 20.3042C3.48132 20.3042 2.89929 20.3239 2.06726 20.3634L1.48914 20.4029Z" fill="black"/>
</svg>
