<svg width="12" height="23" viewBox="0 0 12 23" fill="none" xmlns="http://www.w3.org/2000/svg">
<path d="M5.59192 22.166C3.84192 22.166 2.50207 21.7808 1.57629 21.0203C0.646607 20.245 0.185669 19.1141 0.185669 17.6228C0.185669 16.8623 0.388794 16.2351 0.795044 15.7462C1.20911 15.2475 1.74036 14.9956 2.38879 14.9956C2.77161 15.0104 3.06457 15.129 3.26379 15.3512C3.45911 15.5783 3.56067 15.7808 3.56067 15.9635C3.56067 15.9931 3.47473 16.0722 3.31067 16.2006C3.1427 16.3191 2.99036 16.5117 2.85754 16.7734C2.73254 17.0252 2.67004 17.366 2.67004 17.8006C2.67004 18.7882 2.90442 19.5536 3.37317 20.0919C3.84973 20.6351 4.59192 20.9018 5.59192 20.9018C6.27942 20.9018 6.87708 20.7388 7.38879 20.408C7.90833 20.0672 8.30286 19.6178 8.57629 19.0648C8.85754 18.5018 8.99817 17.9141 8.99817 17.3067C8.99817 16.5462 8.82629 15.8944 8.48254 15.3512C8.13879 14.7981 7.71692 14.3388 7.21692 13.9685C6.71692 13.603 6.03333 13.1734 5.17004 12.6845C4.17004 12.1215 3.35754 11.608 2.73254 11.1438C2.11536 10.6697 1.59192 10.0524 1.15442 9.28697C0.724731 8.52648 0.513794 7.56846 0.513794 6.42278C0.513794 4.59562 1.00598 3.22278 1.99817 2.31413C2.99817 1.40549 4.30286 0.951172 5.92004 0.951172C7.17786 0.951172 8.27942 1.29685 9.21692 1.97833C10.1622 2.64994 10.6388 3.63759 10.6388 4.9413C10.6388 5.70673 10.4357 6.33883 10.0294 6.83759C9.62317 7.32648 9.09192 7.56846 8.43567 7.56846C8.06067 7.54377 7.7677 7.42525 7.56067 7.2129C7.36145 6.99068 7.26379 6.77833 7.26379 6.5808C7.26379 6.57092 7.37317 6.49685 7.59192 6.36352C7.81848 6.23512 8.02161 6.04253 8.20129 5.79068C8.37708 5.54376 8.46692 5.19315 8.46692 4.74376C8.46692 3.96846 8.22473 3.36105 7.74817 2.92648C7.27942 2.48204 6.67395 2.25488 5.93567 2.25488C4.92395 2.25488 4.15442 2.56105 3.62317 3.16352C3.09973 3.75611 2.84192 4.49685 2.84192 5.37586C2.84192 6.1166 2.99817 6.73389 3.31067 7.23265C3.63098 7.73636 4.1427 8.22031 4.84192 8.69438C5.40442 9.07957 6.0177 9.45981 6.68567 9.84006C7.75598 10.4475 8.60754 11.0055 9.23254 11.5191C9.85754 12.0228 10.3771 12.6845 10.795 13.5141C11.2208 14.3339 11.4357 15.3512 11.4357 16.5759C11.4357 17.6327 11.174 18.5857 10.6544 19.4401C10.131 20.2845 9.42395 20.9512 8.52942 21.4351C7.63098 21.9191 6.65442 22.166 5.59192 22.166Z" fill="black"/>
</svg>
