<svg width="14" height="22" viewBox="0 0 14 22" fill="none" xmlns="http://www.w3.org/2000/svg">
<path d="M0.612061 21.018C0.475342 21.018 0.369873 20.9489 0.299561 20.8205C0.225342 20.6773 0.190186 20.5143 0.190186 20.3267C0.197999 20.0106 0.244873 19.823 0.330811 19.7538C0.412842 19.6897 0.572999 19.6551 0.815186 19.6551C1.29175 19.6551 1.64722 19.5464 1.87769 19.3193C2.11597 19.0971 2.2605 18.8255 2.31519 18.5094C2.37769 18.1835 2.41675 17.7538 2.44019 17.2255V4.68224C2.41675 4.15879 2.37769 3.72916 2.31519 3.39829C2.2605 3.07236 2.11597 2.79582 1.87769 2.56866C1.64722 2.34644 1.29175 2.23286 0.815186 2.23286H0.658936C0.490967 2.23286 0.369873 2.20323 0.299561 2.13409C0.237061 2.05508 0.197999 1.87236 0.190186 1.58101C0.190186 1.38348 0.225342 1.22051 0.299561 1.08718C0.369873 0.958785 0.475342 0.889648 0.612061 0.889648C1.71362 0.94397 2.70581 0.968661 3.58081 0.968661H11.4402C11.866 0.968661 12.0808 1.22545 12.0808 1.73903L12.1589 6.16372C12.1589 6.35138 12.0808 6.49953 11.9246 6.61804C11.7761 6.73656 11.6316 6.79582 11.4871 6.79582C11.2878 6.79582 11.1121 6.75138 10.9558 6.65755C10.8074 6.55385 10.7253 6.41064 10.7058 6.22298C10.5808 5.19582 10.4324 4.41557 10.2683 3.87236C10.1121 3.33409 9.87769 2.93409 9.56519 2.66743C9.2605 2.4057 8.83081 2.26249 8.26831 2.23286H4.90894V10.2724H9.44019C9.55347 10.2872 9.64331 10.3662 9.70581 10.5094C9.77612 10.6427 9.81519 10.8057 9.81519 11.0032C9.81519 11.1613 9.77612 11.3094 9.70581 11.4378C9.64331 11.5711 9.55347 11.6353 9.44019 11.6353H4.90894V17.6008C4.94019 18.0501 4.97925 18.4057 5.03394 18.6674C5.08472 18.9341 5.23706 19.1711 5.48706 19.3785C5.73706 19.5909 6.12769 19.6847 6.65894 19.6551H8.95581C9.53784 19.6304 9.97925 19.5119 10.2839 19.2995C10.5847 19.0773 10.823 18.7366 11.0027 18.2724C11.1785 17.7983 11.3933 17.0378 11.6433 15.981C11.7566 15.6156 12.0378 15.4674 12.4871 15.5464C12.6511 15.5859 12.7996 15.6748 12.9246 15.8032C13.0496 15.9217 13.1003 16.0798 13.0808 16.2773L12.5808 20.2477C12.5378 20.5242 12.4636 20.7119 12.3621 20.8008C12.2566 20.8798 12.0886 20.9193 11.8621 20.9193H3.61206C2.71362 20.9193 1.71362 20.9489 0.612061 21.018Z" fill="black"/>
</svg>
