<svg width="14" height="21" viewBox="0 0 14 21" fill="none" xmlns="http://www.w3.org/2000/svg">
<path d="M0.90564 20.6323C0.768921 20.6323 0.663452 20.5632 0.59314 20.4348C0.518921 20.2916 0.483765 20.1286 0.483765 19.9409C0.491578 19.6249 0.538452 19.4372 0.62439 19.3681C0.706421 19.3039 0.866578 19.2693 1.10876 19.2693C1.58533 19.2693 1.9408 19.1607 2.17126 18.9335C2.40955 18.7113 2.55408 18.4397 2.60876 18.1237C2.67126 17.7977 2.71033 17.3681 2.73376 16.8397V4.2965C2.71033 3.77304 2.67126 3.34341 2.60876 3.01255C2.55408 2.68662 2.40955 2.41008 2.17126 2.18292C1.9408 1.9607 1.58533 1.84712 1.10876 1.84712H0.952515C0.784546 1.84712 0.663452 1.81749 0.59314 1.74835C0.53064 1.66934 0.491578 1.48662 0.483765 1.19526C0.483765 0.997733 0.518921 0.834771 0.59314 0.701437C0.663452 0.573043 0.768921 0.503906 0.90564 0.503906C2.0072 0.558228 2.99939 0.582919 3.87439 0.582919H11.7338C12.1595 0.582919 12.3744 0.839709 12.3744 1.35329L12.4525 5.77798C12.4525 5.96563 12.3744 6.11378 12.2181 6.2323C12.0697 6.35082 11.9252 6.41008 11.7806 6.41008C11.5814 6.41008 11.4056 6.36564 11.2494 6.27181C11.101 6.16811 11.0189 6.0249 10.9994 5.83724C10.8744 4.81008 10.726 4.02983 10.5619 3.48662C10.4056 2.94835 10.1713 2.54835 9.85877 2.28168C9.55408 2.01996 9.12439 1.87675 8.56189 1.84712H5.20252V9.88662H9.73377C9.84705 9.90144 9.93689 9.98045 9.99939 10.1237C10.0697 10.257 10.1088 10.42 10.1088 10.6175C10.1088 10.7755 10.0697 10.9237 9.99939 11.0521C9.93689 11.1854 9.84705 11.2496 9.73377 11.2496H5.20252V17.215C5.23377 17.6644 5.27283 18.02 5.32752 18.2817C5.3783 18.5484 5.53064 18.7854 5.78064 18.9928C6.03064 19.2051 6.42127 19.299 6.95252 19.2693H9.24939C9.83142 19.2446 10.2728 19.1261 10.5775 18.9138C10.8783 18.6916 11.1166 18.3508 11.2963 17.8866C11.472 17.4125 11.6869 16.6521 11.9369 15.5953C12.0502 15.2298 12.3314 15.0817 12.7806 15.1607C12.9447 15.2002 13.0931 15.2891 13.2181 15.4175C13.3431 15.536 13.3939 15.694 13.3744 15.8916L12.8744 19.8619C12.8314 20.1385 12.7572 20.3261 12.6556 20.415C12.5502 20.494 12.3822 20.5335 12.1556 20.5335H3.90564C3.0072 20.5335 2.0072 20.5632 0.90564 20.6323Z" fill="black"/>
</svg>
