<svg width="8" height="21" viewBox="0 0 8 21" fill="none" xmlns="http://www.w3.org/2000/svg">
<path d="M0.585938 20.6323C0.4375 20.6323 0.324219 20.5632 0.242188 20.4348C0.167969 20.2916 0.132812 20.1286 0.132812 19.9409C0.152344 19.6249 0.203126 19.4372 0.289063 19.3681C0.382813 19.3039 0.539063 19.2693 0.757813 19.2693C1.24609 19.2693 1.60547 19.1607 1.83594 18.9335C2.0625 18.7113 2.21094 18.4397 2.27344 18.1237C2.34375 17.8076 2.39063 17.3829 2.41406 16.8397V4.2965C2.39063 3.74341 2.34375 3.30884 2.27344 2.9928C2.21094 2.67675 2.0625 2.41008 1.83594 2.18292C1.60547 1.9607 1.24609 1.84712 0.757813 1.84712H0.617188C0.460938 1.84712 0.34375 1.81749 0.273438 1.74835C0.199219 1.66934 0.152344 1.48662 0.132812 1.19526C0.132812 0.997733 0.167969 0.834771 0.242188 0.701437C0.324219 0.573043 0.4375 0.503906 0.585938 0.503906C1.66797 0.558228 2.65625 0.582919 3.55469 0.582919C4.55469 0.582919 5.59375 0.558228 6.67969 0.503906C6.83594 0.503906 6.94922 0.573043 7.02344 0.701437C7.09375 0.834771 7.13281 0.997733 7.13281 1.19526C7.12109 1.51131 7.07031 1.70391 6.97656 1.7681C6.88281 1.82243 6.71875 1.84712 6.49219 1.84712C6 1.84712 5.63672 1.9607 5.39844 2.18292C5.16797 2.41008 5.02344 2.68662 4.96094 3.01255C4.90625 3.34341 4.875 3.77304 4.86719 4.2965V16.8397C4.875 17.3681 4.90625 17.7977 4.96094 18.1237C5.02344 18.4397 5.16797 18.7113 5.39844 18.9335C5.63672 19.1607 6 19.2693 6.49219 19.2693H6.63281C6.79688 19.2693 6.91797 19.3088 6.99219 19.3879C7.07422 19.457 7.12109 19.6397 7.13281 19.9409C7.13281 20.1286 7.09375 20.2916 7.02344 20.4348C6.94922 20.5632 6.83594 20.6323 6.67969 20.6323C5.61719 20.5632 4.58594 20.5335 3.58594 20.5335C2.66797 20.5335 1.66797 20.5632 0.585938 20.6323Z" fill="black"/>
</svg>
