<svg width="37" height="58" viewBox="0 0 37 58" fill="none" xmlns="http://www.w3.org/2000/svg">
<path d="M28.074 28.6426C30.6755 29.3537 32.7654 30.9932 34.3396 33.5611C35.9216 36.1191 36.7146 39.0426 36.7146 42.3315C36.7146 47.0722 35.4021 50.8352 32.7771 53.6105C30.1521 56.3908 26.488 57.7784 21.7927 57.7784H0.87085V0.988281H21.0896C25.6599 0.988281 29.2341 2.31174 31.8083 4.95865C34.3904 7.59569 35.6833 11.1759 35.6833 15.7043C35.6833 19.0525 34.988 21.8278 33.6052 24.0401C32.2185 26.2525 30.3748 27.7883 28.074 28.6426ZM11.8083 23.9611H18.9802C20.7693 23.9611 22.1443 23.4624 23.1052 22.4599C24.0623 21.4624 24.5427 19.9908 24.5427 18.0549C24.5427 16.1093 24.0623 14.6278 23.1052 13.6105C22.1443 12.5833 20.7693 12.0698 18.9802 12.0698H11.8083V23.9611ZM19.8708 46.6179C21.7146 46.6179 23.1365 46.0945 24.1365 45.0377C25.1365 43.9858 25.6365 42.4599 25.6365 40.4549C25.6365 38.4698 25.1091 36.9093 24.0583 35.7735C23.0154 34.6426 21.5779 34.0747 19.7458 34.0747H11.8083V46.6179H19.8708Z" fill="#008B8B"/>
</svg>
