<svg width="17" height="22" viewBox="0 0 17 22" fill="none" xmlns="http://www.w3.org/2000/svg">
<path d="M8.93469 21.9365C7.34875 21.9365 5.95422 21.4525 4.74719 20.4945C3.53625 19.5365 2.59875 18.2624 1.93469 16.6822C1.27844 15.1019 0.950317 13.413 0.950317 11.6056C0.950317 9.39328 1.34485 7.46736 2.13782 5.81798C2.92688 4.17353 3.9386 2.91427 5.16907 2.04514C6.40735 1.16612 7.66125 0.72168 8.93469 0.72168C10.5284 0.72168 11.9347 1.20563 13.1534 2.16366C14.38 3.12662 15.3253 4.39082 15.9816 5.95625C16.6456 7.52662 16.9816 9.21551 16.9816 11.0328C16.9816 13.2451 16.5792 15.1809 15.7784 16.8402C14.9738 18.4896 13.9503 19.7538 12.7003 20.6328C11.4503 21.5019 10.1925 21.9365 8.93469 21.9365ZM8.90344 20.5538C10.0363 20.5538 10.9816 20.1291 11.7316 19.2698C12.4894 18.4155 13.0597 17.2698 13.4347 15.8328C13.8097 14.3859 13.9972 12.7859 13.9972 11.0328C13.9972 9.41304 13.8019 7.92662 13.4191 6.56859C13.0441 5.20069 12.4698 4.11427 11.7003 3.30933C10.9386 2.49452 10.005 2.08464 8.90344 2.08464C7.23547 2.08464 5.98157 2.98341 5.13782 4.77106C4.29407 6.54884 3.87219 8.79575 3.87219 11.5069C3.87219 13.1562 4.05969 14.6624 4.43469 16.0303C4.80969 17.4032 5.37219 18.4995 6.12219 19.3291C6.87219 20.1488 7.79797 20.5538 8.90344 20.5538Z" fill="black"/>
</svg>
