<svg width="14" height="21" viewBox="0 0 14 21" fill="none" xmlns="http://www.w3.org/2000/svg">
<path d="M0.619263 20.6323C0.482544 20.6323 0.377075 20.5632 0.306763 20.4348C0.232544 20.2916 0.197388 20.1286 0.197388 19.9409C0.205201 19.6249 0.252075 19.4372 0.338013 19.3681C0.420044 19.3039 0.580201 19.2693 0.822388 19.2693C1.29895 19.2693 1.65442 19.1607 1.88489 18.9335C2.12317 18.7113 2.2677 18.4397 2.32239 18.1237C2.38489 17.7977 2.42395 17.3681 2.44739 16.8397V4.2965C2.42395 3.77304 2.38489 3.34341 2.32239 3.01255C2.2677 2.68662 2.12317 2.41008 1.88489 2.18292C1.65442 1.9607 1.29895 1.84712 0.822388 1.84712H0.666138C0.498169 1.84712 0.377075 1.81749 0.306763 1.74835C0.244263 1.66934 0.205201 1.48662 0.197388 1.19526C0.197388 0.997733 0.232544 0.834771 0.306763 0.701437C0.377075 0.573043 0.482544 0.503906 0.619263 0.503906C1.72082 0.558228 2.71301 0.582919 3.58801 0.582919H11.4474C11.8732 0.582919 12.088 0.839709 12.088 1.35329L12.1661 5.77798C12.1661 5.96563 12.088 6.11378 11.9318 6.2323C11.7833 6.35082 11.6388 6.41008 11.4943 6.41008C11.295 6.41008 11.1193 6.36564 10.963 6.27181C10.8146 6.16811 10.7325 6.0249 10.713 5.83724C10.588 4.81008 10.4396 4.02983 10.2755 3.48662C10.1193 2.94835 9.88489 2.54835 9.57239 2.28168C9.2677 2.01996 8.83801 1.87675 8.27551 1.84712H4.91614V9.88662H9.44739C9.56067 9.90144 9.65051 9.98045 9.71301 10.1237C9.78333 10.257 9.82239 10.42 9.82239 10.6175C9.82239 10.7755 9.78333 10.9237 9.71301 11.0521C9.65051 11.1854 9.56067 11.2496 9.44739 11.2496H4.91614V17.215C4.94739 17.6644 4.98645 18.02 5.04114 18.2817C5.09192 18.5484 5.24426 18.7854 5.49426 18.9928C5.74426 19.2051 6.13489 19.299 6.66614 19.2693H8.96301C9.54504 19.2446 9.98645 19.1261 10.2911 18.9138C10.5919 18.6916 10.8302 18.3508 11.0099 17.8866C11.1857 17.4125 11.4005 16.6521 11.6505 15.5953C11.7638 15.2298 12.045 15.0817 12.4943 15.1607C12.6583 15.2002 12.8068 15.2891 12.9318 15.4175C13.0568 15.536 13.1075 15.694 13.088 15.8916L12.588 19.8619C12.545 20.1385 12.4708 20.3261 12.3693 20.415C12.2638 20.494 12.0958 20.5335 11.8693 20.5335H3.61926C2.72082 20.5335 1.72082 20.5632 0.619263 20.6323Z" fill="black"/>
</svg>
