<svg width="17" height="21" viewBox="0 0 17 21" fill="none" xmlns="http://www.w3.org/2000/svg">
<path d="M1.39746 20.4028C1.26074 20.4028 1.15527 20.3337 1.08496 20.2053C1.01074 20.0621 0.975586 19.8991 0.975586 19.7115C0.983399 19.3954 1.03027 19.2078 1.11621 19.1386C1.19824 19.0744 1.3584 19.0398 1.60059 19.0398C2.07715 19.0398 2.43262 18.9312 2.66309 18.704C2.90137 18.4818 3.0459 18.2102 3.10059 17.8942C3.16309 17.5682 3.20215 17.1386 3.22559 16.6102V4.06701C3.20215 3.54355 3.16309 3.11392 3.10059 2.78306C3.0459 2.45713 2.90137 2.18059 2.66309 1.95343C2.43262 1.7312 2.07715 1.61762 1.60059 1.61762H1.44434C1.27637 1.61762 1.15527 1.58799 1.08496 1.51886C1.02246 1.43985 0.983399 1.25713 0.975586 0.965772C0.975586 0.768241 1.01074 0.605279 1.08496 0.471945C1.15527 0.343551 1.26074 0.274414 1.39746 0.274414C2.49902 0.328735 3.49121 0.353426 4.36621 0.353426H8.27246C9.87402 0.353426 11.3271 0.763303 12.6318 1.57812C13.9443 2.39787 14.9756 3.5633 15.7256 5.07441C16.4834 6.59046 16.8662 8.38306 16.8662 10.4473C16.8662 12.5954 16.4365 14.4127 15.585 15.8991C14.7295 17.3905 13.6162 18.4966 12.2412 19.2176C10.8662 19.9436 9.38965 20.304 7.81934 20.304H4.36621C3.49121 20.304 2.49902 20.3337 1.39746 20.4028ZM8.19434 19.1386C10.1396 19.1386 11.5693 18.3781 12.4756 16.8473C13.3896 15.3213 13.8506 13.188 13.8506 10.4473C13.8506 8.7238 13.6006 7.18306 13.1006 5.82503C12.6084 4.45713 11.8975 3.3954 10.96 2.64478C10.0303 1.88429 8.92871 1.49911 7.64746 1.49911L5.69434 1.53861V16.9855C5.69434 17.8053 5.88574 18.3682 6.27246 18.6843C6.66699 18.9905 7.30762 19.1386 8.19434 19.1386Z" fill="black"/>
</svg>
