<svg width="18" height="21" viewBox="0 0 18 21" fill="none" xmlns="http://www.w3.org/2000/svg">
<path d="M0.810791 20.4029C0.654541 20.4029 0.54126 20.3338 0.467041 20.2054C0.396729 20.0622 0.357666 19.8992 0.357666 19.7116C0.369385 19.3955 0.41626 19.2079 0.498291 19.1387C0.584229 19.0745 0.677979 19.04 0.795166 19.04C0.920166 19.04 0.998291 19.04 1.02954 19.04C1.52954 19.04 1.89282 18.877 2.12329 18.5462C2.36157 18.2202 2.54907 17.8499 2.68579 17.44C2.83032 17.035 2.92798 16.7585 2.98267 16.6103L7.35767 3.51405C7.45142 3.198 7.49829 2.95109 7.49829 2.76344C7.49829 2.38319 7.3811 2.11158 7.15454 1.95356C6.92407 1.78566 6.59985 1.64739 6.18579 1.53874C5.89282 1.47455 5.71704 1.41035 5.65454 1.34121C5.59204 1.27702 5.56079 1.09924 5.56079 0.80788C5.56079 0.560966 5.61157 0.393065 5.71704 0.314053C5.8186 0.225165 5.99048 0.175781 6.23267 0.175781C7.0647 0.175781 7.72485 0.254794 8.21704 0.412818C8.70532 0.570843 9.1311 0.886892 9.49829 1.36097C9.87329 1.83504 10.217 2.55603 10.5295 3.51405L14.7327 16.6103C14.9827 17.4153 15.2209 18.0128 15.4514 18.4079C15.6897 18.8029 16.0374 19.0153 16.4983 19.04H16.6545C16.8186 19.04 16.9358 19.0795 16.9983 19.1585C17.0686 19.2276 17.1116 19.4104 17.1233 19.7116C17.1233 19.8992 17.0842 20.0622 17.0139 20.2054C16.9397 20.3338 16.8303 20.4029 16.6858 20.4029C15.6116 20.3338 14.6936 20.3042 13.9358 20.3042C12.9358 20.3042 11.8967 20.3338 10.8264 20.4029C10.678 20.4029 10.5647 20.3338 10.4827 20.2054C10.4084 20.0622 10.3733 19.8992 10.3733 19.7116C10.3928 19.4104 10.4358 19.2276 10.4983 19.1585C10.5686 19.0795 10.6897 19.04 10.8577 19.04C11.4202 19.04 11.8147 18.9758 12.0452 18.8424C12.2834 18.6992 12.4045 18.4474 12.4045 18.0918C12.4045 17.8153 12.303 17.3215 12.1077 16.6103L11.2483 13.9832H5.07642C4.65845 15.2869 4.42017 16.0474 4.35767 16.2548C4.30298 16.4671 4.27954 16.5857 4.27954 16.6103C4.08032 17.4153 3.98267 17.9289 3.98267 18.1511C3.98267 18.5066 4.10767 18.7437 4.35767 18.8622C4.60767 18.9807 5.08032 19.04 5.77954 19.04H5.93579C6.09985 19.04 6.21704 19.0795 6.27954 19.1585C6.34204 19.2276 6.3811 19.4104 6.40454 19.7116C6.40454 19.8992 6.36548 20.0622 6.29517 20.2054C6.22095 20.3338 6.10767 20.4029 5.95142 20.4029C4.88892 20.3338 3.98267 20.3042 3.23267 20.3042C2.70142 20.3042 1.89282 20.3338 0.810791 20.4029ZM5.56079 12.6202H10.8108L8.27954 4.50171H8.20142L5.56079 12.6202Z" fill="black"/>
</svg>
