<svg width="8" height="21" viewBox="0 0 8 21" fill="none" xmlns="http://www.w3.org/2000/svg">
<path d="M1.08972 20.6323C0.941284 20.6323 0.828003 20.5632 0.745972 20.4348C0.671753 20.2916 0.636597 20.1286 0.636597 19.9409C0.656128 19.6249 0.70691 19.4372 0.792847 19.3681C0.886597 19.3039 1.04285 19.2693 1.2616 19.2693C1.74988 19.2693 2.10925 19.1607 2.33972 18.9335C2.56628 18.7113 2.71472 18.4397 2.77722 18.1237C2.84753 17.8076 2.89441 17.3829 2.91785 16.8397V4.2965C2.89441 3.74341 2.84753 3.30884 2.77722 2.9928C2.71472 2.67675 2.56628 2.41008 2.33972 2.18292C2.10925 1.9607 1.74988 1.84712 1.2616 1.84712H1.12097C0.964722 1.84712 0.847534 1.81749 0.777222 1.74835C0.703003 1.66934 0.656128 1.48662 0.636597 1.19526C0.636597 0.997733 0.671753 0.834771 0.745972 0.701437C0.828003 0.573043 0.941284 0.503906 1.08972 0.503906C2.17175 0.558228 3.16003 0.582919 4.05847 0.582919C5.05847 0.582919 6.09753 0.558228 7.18347 0.503906C7.33972 0.503906 7.453 0.573043 7.52722 0.701437C7.59753 0.834771 7.6366 0.997733 7.6366 1.19526C7.62488 1.51131 7.5741 1.70391 7.48035 1.7681C7.3866 1.82243 7.22253 1.84712 6.99597 1.84712C6.50378 1.84712 6.1405 1.9607 5.90222 2.18292C5.67175 2.41008 5.52722 2.68662 5.46472 3.01255C5.41003 3.34341 5.37878 3.77304 5.37097 4.2965V16.8397C5.37878 17.3681 5.41003 17.7977 5.46472 18.1237C5.52722 18.4397 5.67175 18.7113 5.90222 18.9335C6.1405 19.1607 6.50378 19.2693 6.99597 19.2693H7.1366C7.30066 19.2693 7.42175 19.3088 7.49597 19.3879C7.578 19.457 7.62488 19.6397 7.6366 19.9409C7.6366 20.1286 7.59753 20.2916 7.52722 20.4348C7.453 20.5632 7.33972 20.6323 7.18347 20.6323C6.12097 20.5632 5.08972 20.5335 4.08972 20.5335C3.17175 20.5335 2.17175 20.5632 1.08972 20.6323Z" fill="black"/>
</svg>
