<svg width="8" height="21" viewBox="0 0 8 21" fill="none" xmlns="http://www.w3.org/2000/svg">
<path d="M0.861939 20.4028C0.7135 20.4028 0.60022 20.3337 0.518188 20.2053C0.443969 20.0621 0.408813 19.8991 0.408813 19.7115C0.428344 19.3954 0.479126 19.2078 0.565063 19.1386C0.658814 19.0744 0.815064 19.0398 1.03381 19.0398C1.52209 19.0398 1.88147 18.9312 2.11194 18.704C2.3385 18.4818 2.48694 18.2102 2.54944 17.8942C2.61975 17.5781 2.66663 17.1534 2.69006 16.6102V4.06701C2.66663 3.51392 2.61975 3.07935 2.54944 2.7633C2.48694 2.44725 2.3385 2.18059 2.11194 1.95343C1.88147 1.7312 1.52209 1.61762 1.03381 1.61762H0.893189C0.736939 1.61762 0.61975 1.58799 0.549438 1.51886C0.475219 1.43985 0.428344 1.25713 0.408813 0.965772C0.408813 0.768241 0.443969 0.605279 0.518188 0.471945C0.60022 0.343551 0.7135 0.274414 0.861939 0.274414C1.94397 0.328735 2.93225 0.353426 3.83069 0.353426C4.83069 0.353426 5.86975 0.328735 6.95569 0.274414C7.11194 0.274414 7.22522 0.343551 7.29944 0.471945C7.36975 0.605279 7.40881 0.768241 7.40881 0.965772C7.3971 1.28182 7.34631 1.47441 7.25256 1.53861C7.15881 1.59293 6.99475 1.61762 6.76819 1.61762C6.276 1.61762 5.91272 1.7312 5.67444 1.95343C5.44397 2.18059 5.29944 2.45713 5.23694 2.78306C5.18225 3.11392 5.151 3.54355 5.14319 4.06701V16.6102C5.151 17.1386 5.18225 17.5682 5.23694 17.8942C5.29944 18.2102 5.44397 18.4818 5.67444 18.704C5.91272 18.9312 6.276 19.0398 6.76819 19.0398H6.90881C7.07288 19.0398 7.19397 19.0794 7.26819 19.1584C7.35022 19.2275 7.3971 19.4102 7.40881 19.7115C7.40881 19.8991 7.36975 20.0621 7.29944 20.2053C7.22522 20.3337 7.11194 20.4028 6.95569 20.4028C5.89319 20.3337 4.86194 20.304 3.86194 20.304C2.94397 20.304 1.94397 20.3337 0.861939 20.4028Z" fill="black"/>
</svg>
