<svg width="14" height="22" viewBox="0 0 14 22" fill="none" xmlns="http://www.w3.org/2000/svg">
<path d="M0.617188 21.018C0.480469 21.018 0.375 20.9489 0.304688 20.8205C0.230469 20.6773 0.195312 20.5143 0.195312 20.3267C0.203126 20.0106 0.25 19.823 0.335938 19.7538C0.417969 19.6897 0.578126 19.6551 0.820313 19.6551C1.29688 19.6551 1.65234 19.5464 1.88281 19.3193C2.12109 19.0971 2.26563 18.8255 2.32031 18.5094C2.38281 18.1835 2.42188 17.7538 2.44531 17.2255V4.68224C2.42188 4.15879 2.38281 3.72916 2.32031 3.39829C2.26563 3.07236 2.12109 2.79582 1.88281 2.56866C1.65234 2.34644 1.29688 2.23286 0.820313 2.23286H0.664063C0.496094 2.23286 0.375 2.20323 0.304688 2.13409C0.242188 2.05508 0.203126 1.87236 0.195312 1.58101C0.195312 1.38348 0.230469 1.22051 0.304688 1.08718C0.375 0.958785 0.480469 0.889648 0.617188 0.889648C1.71875 0.94397 2.71094 0.968661 3.58594 0.968661H11.4453C11.8711 0.968661 12.0859 1.22545 12.0859 1.73903L12.1641 6.16372C12.1641 6.35138 12.0859 6.49953 11.9297 6.61804C11.7813 6.73656 11.6367 6.79582 11.4922 6.79582C11.293 6.79582 11.1172 6.75138 10.9609 6.65755C10.8125 6.55385 10.7305 6.41064 10.7109 6.22298C10.5859 5.19582 10.4375 4.41557 10.2734 3.87236C10.1172 3.33409 9.88281 2.93409 9.57031 2.66743C9.26563 2.4057 8.83594 2.26249 8.27344 2.23286H4.91406V10.2724H9.44531C9.55859 10.2872 9.64844 10.3662 9.71094 10.5094C9.78125 10.6427 9.82031 10.8057 9.82031 11.0032C9.82031 11.1613 9.78125 11.3094 9.71094 11.4378C9.64844 11.5711 9.55859 11.6353 9.44531 11.6353H4.91406V17.6008C4.94531 18.0501 4.98438 18.4057 5.03906 18.6674C5.08984 18.9341 5.24219 19.1711 5.49219 19.3785C5.74219 19.5909 6.13281 19.6847 6.66406 19.6551H8.96094C9.54297 19.6304 9.98438 19.5119 10.2891 19.2995C10.5898 19.0773 10.8281 18.7366 11.0078 18.2724C11.1836 17.7983 11.3984 17.0378 11.6484 15.981C11.7617 15.6156 12.043 15.4674 12.4922 15.5464C12.6563 15.5859 12.8047 15.6748 12.9297 15.8032C13.0547 15.9217 13.1055 16.0798 13.0859 16.2773L12.5859 20.2477C12.543 20.5242 12.4688 20.7119 12.3672 20.8008C12.2617 20.8798 12.0938 20.9193 11.8672 20.9193H3.61719C2.71875 20.9193 1.71875 20.9489 0.617188 21.018Z" fill="black"/>
</svg>
