<svg width="17" height="21" viewBox="0 0 17 21" fill="none" xmlns="http://www.w3.org/2000/svg">
<path d="M1.02661 20.6323C0.870361 20.6323 0.753173 20.5632 0.682861 20.4348C0.608642 20.2916 0.573486 20.1286 0.573486 19.9409C0.581299 19.6249 0.628173 19.4372 0.714111 19.3681C0.796142 19.3039 0.956299 19.2693 1.19849 19.2693C1.67505 19.2693 2.03052 19.1607 2.26099 18.9335C2.49927 18.7113 2.6438 18.4397 2.69849 18.1237C2.76099 17.7977 2.80005 17.3681 2.82349 16.8397V4.31625C2.80005 3.77798 2.76099 3.34835 2.69849 3.0323C2.6438 2.71625 2.49927 2.43971 2.26099 2.20267C2.03052 1.96563 1.67505 1.84712 1.19849 1.84712H1.04224C0.874267 1.84712 0.753173 1.81749 0.682861 1.74835C0.620361 1.66934 0.581299 1.48662 0.573486 1.19526C0.573486 0.997733 0.608642 0.834771 0.682861 0.701437C0.753173 0.573043 0.870361 0.503906 1.02661 0.503906C2.10864 0.558228 3.09692 0.582919 3.99536 0.582919H8.29224C9.57349 0.612549 10.6399 0.874277 11.4954 1.37304C12.3586 1.86193 12.9876 2.49403 13.386 3.26934C13.7922 4.03477 13.9954 4.85946 13.9954 5.73847C13.9954 6.89897 13.6282 7.96564 12.9016 8.93848C12.1829 9.90144 11.1985 10.5928 9.94849 11.0125L10.3704 11.8817C11.0657 13.3039 11.6985 14.5286 12.261 15.5558C12.8313 16.5829 13.4524 17.5409 14.1204 18.42C14.5891 18.9088 15.0891 19.1903 15.6204 19.2693C15.6516 19.2693 15.7219 19.2792 15.8391 19.2891C15.9641 19.3039 16.0618 19.3632 16.136 19.4669C16.2063 19.5755 16.2454 19.7335 16.2454 19.9409C16.2454 20.1286 16.2063 20.2916 16.136 20.4348C16.0618 20.5632 15.9485 20.6323 15.7922 20.6323L15.1516 20.5928C14.4094 20.5533 13.8743 20.5335 13.5422 20.5335C12.8743 20.3656 12.3001 20.0693 11.8235 19.6446C11.3547 19.2101 10.886 18.5928 10.4172 17.7879C9.93677 16.9879 9.26489 15.6743 8.40161 13.857L7.94849 12.9484C7.69849 12.4644 7.45239 12.1335 7.21411 11.9607C6.98364 11.778 6.58911 11.6842 6.02661 11.6842H5.29224V16.8397C5.31177 17.3681 5.34692 17.7977 5.40161 18.1237C5.46411 18.4397 5.60864 18.7113 5.83911 18.9335C6.07739 19.1607 6.43677 19.2693 6.91724 19.2693H7.07349C7.21802 19.2693 7.32739 19.3088 7.40161 19.3879C7.48364 19.457 7.53052 19.6397 7.54224 19.9409C7.54224 20.1286 7.50317 20.2916 7.43286 20.4348C7.35864 20.5632 7.24536 20.6323 7.08911 20.6323C6.02661 20.5632 4.98364 20.5335 3.96411 20.5335C3.08911 20.5335 2.10864 20.5632 1.02661 20.6323ZM7.49536 10.4595C9.97192 10.4595 11.2141 8.98786 11.2141 6.03477C11.2141 4.82489 10.8899 3.81255 10.2454 2.9928C9.59692 2.17798 8.53052 1.7681 7.04224 1.7681C6.56177 1.7681 6.19849 1.84218 5.94849 1.98539C5.69849 2.13354 5.52661 2.38045 5.43286 2.73601C5.33911 3.09156 5.29224 3.63971 5.29224 4.37551V10.4595H7.49536Z" fill="black"/>
</svg>
