<svg width="17" height="22" viewBox="0 0 17 22" fill="none" xmlns="http://www.w3.org/2000/svg">
<path d="M8.69385 21.5508C7.10791 21.5508 5.71338 21.0668 4.50635 20.1088C3.29541 19.1508 2.35791 17.8767 1.69385 16.2964C1.0376 14.7162 0.709473 13.0273 0.709473 11.2199C0.709473 9.00754 1.104 7.08162 1.89697 5.43223C2.68604 3.78779 3.69775 2.52853 4.92822 1.65939C6.1665 0.780381 7.42041 0.335938 8.69385 0.335938C10.2876 0.335938 11.6938 0.819888 12.9126 1.77791C14.1392 2.74088 15.0845 4.00507 15.7407 5.57051C16.4048 7.14088 16.7407 8.82977 16.7407 10.647C16.7407 12.8594 16.3384 14.7952 15.5376 16.4545C14.7329 18.1038 13.7095 19.368 12.4595 20.247C11.2095 21.1162 9.95166 21.5508 8.69385 21.5508ZM8.6626 20.168C9.79541 20.168 10.7407 19.7433 11.4907 18.8841C12.2485 18.0298 12.8188 16.8841 13.1938 15.447C13.5688 14.0001 13.7563 12.4001 13.7563 10.647C13.7563 9.0273 13.561 7.54088 13.1782 6.18285C12.8032 4.81495 12.229 3.72853 11.4595 2.92359C10.6978 2.10878 9.76416 1.6989 8.6626 1.6989C6.99463 1.6989 5.74072 2.59767 4.89697 4.38532C4.05322 6.1631 3.63135 8.41001 3.63135 11.1211C3.63135 12.7705 3.81885 14.2767 4.19385 15.6446C4.56885 17.0174 5.13135 18.1137 5.88135 18.9433C6.63135 19.7631 7.55713 20.168 8.6626 20.168Z" fill="black"/>
</svg>
