<svg width="14" height="21" viewBox="0 0 14 21" fill="none" xmlns="http://www.w3.org/2000/svg">
<path d="M1.25623 20.6323C1.11951 20.6323 1.01404 20.5632 0.943726 20.4348C0.869507 20.2916 0.834351 20.1286 0.834351 19.9409C0.842164 19.6249 0.889038 19.4372 0.974976 19.3681C1.05701 19.3039 1.21716 19.2693 1.45935 19.2693C1.93591 19.2693 2.29138 19.1607 2.52185 18.9335C2.76013 18.7113 2.90466 18.4397 2.95935 18.1237C3.02185 17.7977 3.06091 17.3681 3.08435 16.8397V4.2965C3.06091 3.77304 3.02185 3.34341 2.95935 3.01255C2.90466 2.68662 2.76013 2.41008 2.52185 2.18292C2.29138 1.9607 1.93591 1.84712 1.45935 1.84712H1.3031C1.13513 1.84712 1.01404 1.81749 0.943726 1.74835C0.881226 1.66934 0.842164 1.48662 0.834351 1.19526C0.834351 0.997733 0.869507 0.834771 0.943726 0.701437C1.01404 0.573043 1.11951 0.503906 1.25623 0.503906C2.35779 0.558228 3.34998 0.582919 4.22498 0.582919H12.0844C12.5101 0.582919 12.725 0.839709 12.725 1.35329L12.8031 5.77798C12.8031 5.96563 12.725 6.11378 12.5687 6.2323C12.4203 6.35082 12.2758 6.41008 12.1312 6.41008C11.932 6.41008 11.7562 6.36564 11.6 6.27181C11.4515 6.16811 11.3695 6.0249 11.35 5.83724C11.225 4.81008 11.0765 4.02983 10.9125 3.48662C10.7562 2.94835 10.5219 2.54835 10.2094 2.28168C9.90466 2.01996 9.47498 1.87675 8.91248 1.84712H5.5531V9.88662H10.0844C10.1976 9.90144 10.2875 9.98045 10.35 10.1237C10.4203 10.257 10.4594 10.42 10.4594 10.6175C10.4594 10.7755 10.4203 10.9237 10.35 11.0521C10.2875 11.1854 10.1976 11.2496 10.0844 11.2496H5.5531V17.215C5.58435 17.6644 5.62341 18.02 5.6781 18.2817C5.72888 18.5484 5.88123 18.7854 6.13123 18.9928C6.38123 19.2051 6.77185 19.299 7.3031 19.2693H9.59998C10.182 19.2446 10.6234 19.1261 10.9281 18.9138C11.2289 18.6916 11.4672 18.3508 11.6469 17.8866C11.8226 17.4125 12.0375 16.6521 12.2875 15.5953C12.4008 15.2298 12.682 15.0817 13.1312 15.1607C13.2953 15.2002 13.4437 15.2891 13.5687 15.4175C13.6937 15.536 13.7445 15.694 13.725 15.8916L13.225 19.8619C13.182 20.1385 13.1078 20.3261 13.0062 20.415C12.9008 20.494 12.7328 20.5335 12.5062 20.5335H4.25623C3.35779 20.5335 2.35779 20.5632 1.25623 20.6323Z" fill="black"/>
</svg>
