<svg width="14" height="21" viewBox="0 0 14 21" fill="none" xmlns="http://www.w3.org/2000/svg">
<path d="M1.15906 20.6323C1.02234 20.6323 0.91687 20.5632 0.846558 20.4348C0.772339 20.2916 0.737183 20.1286 0.737183 19.9409C0.744996 19.6249 0.79187 19.4372 0.877808 19.3681C0.959839 19.3039 1.12 19.2693 1.36218 19.2693C1.83875 19.2693 2.19421 19.1607 2.42468 18.9335C2.66296 18.7113 2.8075 18.4397 2.86218 18.1237C2.92468 17.7977 2.96375 17.3681 2.98718 16.8397V4.2965C2.96375 3.77304 2.92468 3.34341 2.86218 3.01255C2.8075 2.68662 2.66296 2.41008 2.42468 2.18292C2.19421 1.9607 1.83875 1.84712 1.36218 1.84712H1.20593C1.03796 1.84712 0.91687 1.81749 0.846558 1.74835C0.784058 1.66934 0.744996 1.48662 0.737183 1.19526C0.737183 0.997733 0.772339 0.834771 0.846558 0.701437C0.91687 0.573043 1.02234 0.503906 1.15906 0.503906C2.26062 0.558228 3.25281 0.582919 4.12781 0.582919H11.9872C12.413 0.582919 12.6278 0.839709 12.6278 1.35329L12.7059 5.77798C12.7059 5.96563 12.6278 6.11378 12.4716 6.2323C12.3231 6.35082 12.1786 6.41008 12.0341 6.41008C11.8348 6.41008 11.6591 6.36564 11.5028 6.27181C11.3544 6.16811 11.2723 6.0249 11.2528 5.83724C11.1278 4.81008 10.9794 4.02983 10.8153 3.48662C10.6591 2.94835 10.4247 2.54835 10.1122 2.28168C9.8075 2.01996 9.37781 1.87675 8.81531 1.84712H5.45593V9.88662H9.98718C10.1005 9.90144 10.1903 9.98045 10.2528 10.1237C10.3231 10.257 10.3622 10.42 10.3622 10.6175C10.3622 10.7755 10.3231 10.9237 10.2528 11.0521C10.1903 11.1854 10.1005 11.2496 9.98718 11.2496H5.45593V17.215C5.48718 17.6644 5.52625 18.02 5.58093 18.2817C5.63171 18.5484 5.78406 18.7854 6.03406 18.9928C6.28406 19.2051 6.67468 19.299 7.20593 19.2693H9.50281C10.0848 19.2446 10.5262 19.1261 10.8309 18.9138C11.1317 18.6916 11.37 18.3508 11.5497 17.8866C11.7255 17.4125 11.9403 16.6521 12.1903 15.5953C12.3036 15.2298 12.5848 15.0817 13.0341 15.1607C13.1981 15.2002 13.3466 15.2891 13.4716 15.4175C13.5966 15.536 13.6473 15.694 13.6278 15.8916L13.1278 19.8619C13.0848 20.1385 13.0106 20.3261 12.9091 20.415C12.8036 20.494 12.6356 20.5335 12.4091 20.5335H4.15906C3.26062 20.5335 2.26062 20.5632 1.15906 20.6323Z" fill="black"/>
</svg>
