<svg width="10" height="12" viewBox="0 0 10 12" fill="none" xmlns="http://www.w3.org/2000/svg">
<path d="M9.83643 5.64894C9.83643 5.96499 9.8208 6.29585 9.78955 6.63659H3.6333C3.67236 7.33783 3.85205 7.8761 4.16455 8.25635C4.47705 8.62672 4.85986 8.80943 5.3208 8.80943C5.99658 8.80943 6.46533 8.444 6.72705 7.70326H9.6333C9.48486 8.45388 9.21533 9.12548 8.8208 9.71807C8.43408 10.3008 7.94971 10.76 7.36768 11.1008C6.78174 11.4317 6.1333 11.5946 5.41455 11.5946C4.53955 11.5946 3.76221 11.3675 3.08643 10.9033C2.40674 10.4292 1.87549 9.75758 1.49268 8.88844C1.11768 8.00943 0.930176 6.98721 0.930176 5.82672C0.930176 4.65635 1.11768 3.63412 1.49268 2.76499C1.86768 1.89585 2.39111 1.22425 3.0708 0.750174C3.74658 0.2761 4.52783 0.0390625 5.41455 0.0390625C6.26611 0.0390625 7.02783 0.271162 7.6958 0.73042C8.37158 1.19462 8.89893 1.84647 9.27393 2.68598C9.64893 3.53042 9.83643 4.51807 9.83643 5.64894ZM7.05518 4.7403C7.05518 4.1477 6.89111 3.68351 6.5708 3.33783C6.2583 2.98227 5.85986 2.80449 5.3833 2.80449C4.92236 2.80449 4.53955 2.97733 4.22705 3.31807C3.91455 3.64894 3.71924 4.12301 3.64893 4.7403H7.05518Z" fill="white"/>
</svg>
