<svg width="17" height="22" viewBox="0 0 17 22" fill="none" xmlns="http://www.w3.org/2000/svg">
<path d="M8.71277 21.9365C7.26355 21.9365 5.95105 21.5513 4.77527 20.7908C3.6073 20.0155 2.68152 18.8451 1.99402 17.2748C1.30652 15.7093 0.962769 13.7735 0.962769 11.4674C0.962769 9.34884 1.32996 7.47724 2.07214 5.85748C2.82214 4.22785 3.85339 2.96366 5.16589 2.06489C6.48621 1.17106 7.99792 0.72168 9.69714 0.72168C10.5292 0.72168 11.3534 0.879704 12.1659 1.19575C12.9862 1.5118 13.6659 2.01551 14.1971 2.69699C14.7284 3.36859 14.994 4.19822 14.994 5.18588C14.994 6.10933 14.7753 6.91427 14.3378 7.59575C13.9081 8.26736 13.3378 8.60316 12.619 8.60316C12.2635 8.60316 11.9237 8.49946 11.6034 8.28711C11.2792 8.0797 11.1073 7.80316 11.0878 7.45748C11.0878 7.44761 11.201 7.33403 11.4315 7.12168C11.6581 6.91427 11.869 6.62785 12.0565 6.2723C12.244 5.90686 12.3378 5.4723 12.3378 4.96859C12.3378 4.08958 12.0604 3.36859 11.5096 2.81551C10.9667 2.26242 10.2635 1.98588 9.40027 1.98588C8.3573 1.98588 7.4198 2.35625 6.58777 3.09205C5.75183 3.81798 5.09558 4.88464 4.61902 6.29205C4.13855 7.68958 3.90027 9.35378 3.90027 11.2896C3.90027 13.1612 4.13464 14.7809 4.60339 16.1488C5.07996 17.5217 5.74792 18.5735 6.60339 19.3093C7.46667 20.0353 8.46277 20.3958 9.58777 20.3958C10.1268 20.3958 10.5956 20.3562 10.994 20.2772C11.3885 20.1982 11.8221 20.0698 12.2909 19.8822V16.6624C12.2909 15.9266 12.2675 15.413 12.2284 15.1217C12.1854 14.8204 12.0487 14.5982 11.8221 14.4501C11.6034 14.3069 11.2284 14.2328 10.6971 14.2328C10.5096 14.2328 10.3729 14.1933 10.2909 14.1143C10.205 14.0353 10.1581 13.8525 10.1503 13.5612C10.1503 13.3785 10.1893 13.2204 10.2753 13.0871C10.369 12.9439 10.4979 12.8698 10.6659 12.8698C11.7167 12.939 12.6346 12.9686 13.4159 12.9686C14.1659 12.9686 15.0643 12.939 16.119 12.8698C16.2635 12.8698 16.3768 12.9439 16.4628 13.0871C16.5448 13.2204 16.5878 13.3785 16.5878 13.5612C16.576 13.8525 16.5292 14.0353 16.4471 14.1143C16.3612 14.1933 16.2284 14.2328 16.0409 14.2328C15.5409 14.2328 15.1815 14.3217 14.9628 14.4896C14.7518 14.6476 14.6229 14.8846 14.5721 15.2007C14.5175 15.5069 14.494 15.9908 14.494 16.6624V20.3958C13.5135 20.9785 12.6112 21.3735 11.7909 21.6007C10.9784 21.8229 9.95105 21.9365 8.71277 21.9365Z" fill="black"/>
</svg>
