<svg width="14" height="22" viewBox="0 0 14 22" fill="none" xmlns="http://www.w3.org/2000/svg">
<path d="M3.85059 21.0181C3.70215 21.0181 3.59277 20.949 3.52246 20.8206C3.44824 20.6774 3.41309 20.5144 3.41309 20.3268C3.4209 20.0107 3.46777 19.8231 3.55371 19.7539C3.63574 19.6897 3.7959 19.6552 4.03809 19.6552C4.51465 19.6552 4.87012 19.5465 5.10059 19.3194C5.33887 19.0971 5.4834 18.8255 5.53809 18.5095C5.60059 18.1836 5.63965 17.7539 5.66309 17.2255V2.15394H3.92871C3.36621 2.16875 2.92871 2.32184 2.61621 2.60826C2.31152 2.8848 2.07715 3.30949 1.91309 3.87245C1.75684 4.42554 1.62012 5.22554 1.50684 6.26258C1.4834 6.4206 1.38184 6.55394 1.19434 6.65764C1.01465 6.76628 0.827148 6.81566 0.631836 6.81566C0.483398 6.81566 0.350586 6.76628 0.225586 6.65764C0.100586 6.53912 0.0380859 6.3811 0.0380859 6.18357L0.100586 1.73912C0.100586 1.22554 0.327148 0.96875 0.788086 0.96875H13.0068C13.4443 0.96875 13.6631 1.22554 13.6631 1.73912L13.7568 6.18357C13.7568 6.3811 13.6865 6.53912 13.5537 6.65764C13.417 6.76628 13.2764 6.81566 13.1318 6.81566C12.9326 6.81566 12.7451 6.76628 12.5693 6.65764C12.3896 6.55394 12.2959 6.4206 12.2881 6.26258C12.1514 5.21073 12.0068 4.40579 11.8506 3.8527C11.7021 3.29961 11.4678 2.8848 11.1475 2.60826C10.835 2.32184 10.3975 2.16875 9.83496 2.15394H8.13184V17.2255C8.15137 17.7539 8.18653 18.1836 8.24121 18.5095C8.30371 18.8255 8.44824 19.0971 8.67871 19.3194C8.91699 19.5465 9.27637 19.6552 9.75684 19.6552H9.91309C10.0576 19.6552 10.167 19.6947 10.2412 19.7737C10.3115 19.8428 10.3584 20.0255 10.3818 20.3268C10.3818 20.5144 10.3428 20.6774 10.2725 20.8206C10.1982 20.949 10.085 21.0181 9.92871 21.0181C8.86621 20.949 7.88184 20.9194 6.97559 20.9194C5.97559 20.9194 4.93262 20.949 3.85059 21.0181Z" fill="black"/>
</svg>
