<svg width="17" height="21" viewBox="0 0 17 21" fill="none" xmlns="http://www.w3.org/2000/svg">
<path d="M1.00671 20.6323C0.869995 20.6323 0.764526 20.5632 0.694214 20.4348C0.619995 20.2916 0.584839 20.1286 0.584839 19.9409C0.592652 19.6249 0.639526 19.4372 0.725464 19.3681C0.807495 19.3039 0.967652 19.2693 1.20984 19.2693C1.6864 19.2693 2.04187 19.1607 2.27234 18.9335C2.51062 18.7113 2.65515 18.4397 2.70984 18.1237C2.77234 17.7977 2.8114 17.3681 2.83484 16.8397V4.2965C2.8114 3.77304 2.77234 3.34341 2.70984 3.01255C2.65515 2.68662 2.51062 2.41008 2.27234 2.18292C2.04187 1.9607 1.6864 1.84712 1.20984 1.84712H1.05359C0.88562 1.84712 0.764526 1.81749 0.694214 1.74835C0.631714 1.66934 0.592652 1.48662 0.584839 1.19526C0.584839 0.997733 0.619995 0.834771 0.694214 0.701437C0.764526 0.573043 0.869995 0.503906 1.00671 0.503906C2.10828 0.558228 3.10046 0.582919 3.97546 0.582919H7.88171C9.48328 0.582919 10.9364 0.992795 12.2411 1.80761C13.5536 2.62736 14.5848 3.79279 15.3348 5.30391C16.0927 6.81996 16.4755 8.61255 16.4755 10.6767C16.4755 12.8249 16.0458 14.6422 15.1942 16.1286C14.3387 17.62 13.2255 18.7261 11.8505 19.4471C10.4755 20.173 8.9989 20.5335 7.42859 20.5335H3.97546C3.10046 20.5335 2.10828 20.5632 1.00671 20.6323ZM7.80359 19.3681C9.7489 19.3681 11.1786 18.6076 12.0848 17.0767C12.9989 15.5508 13.4598 13.4175 13.4598 10.6767C13.4598 8.95329 13.2098 7.41255 12.7098 6.05452C12.2177 4.68662 11.5067 3.62489 10.5692 2.87428C9.63953 2.11378 8.53796 1.7286 7.25671 1.7286L5.30359 1.7681V17.215C5.30359 18.0348 5.495 18.5977 5.88171 18.9138C6.27625 19.22 6.91687 19.3681 7.80359 19.3681Z" fill="black"/>
</svg>
