<svg width="12" height="23" viewBox="0 0 12 23" fill="none" xmlns="http://www.w3.org/2000/svg">
<path d="M6.03271 22.166C4.28271 22.166 2.94287 21.7808 2.01709 21.0203C1.0874 20.245 0.626465 19.1141 0.626465 17.6228C0.626465 16.8623 0.82959 16.2351 1.23584 15.7462C1.6499 15.2475 2.18115 14.9956 2.82959 14.9956C3.2124 15.0104 3.50537 15.129 3.70459 15.3512C3.8999 15.5783 4.00146 15.7808 4.00146 15.9635C4.00146 15.9931 3.91553 16.0722 3.75146 16.2006C3.5835 16.3191 3.43115 16.5117 3.29834 16.7734C3.17334 17.0252 3.11084 17.366 3.11084 17.8006C3.11084 18.7882 3.34521 19.5536 3.81396 20.0919C4.29053 20.6351 5.03271 20.9018 6.03271 20.9018C6.72021 20.9018 7.31787 20.7388 7.82959 20.408C8.34912 20.0672 8.74365 19.6178 9.01709 19.0648C9.29834 18.5018 9.43896 17.9141 9.43896 17.3067C9.43896 16.5462 9.26709 15.8944 8.92334 15.3512C8.57959 14.7981 8.15771 14.3388 7.65771 13.9685C7.15771 13.603 6.47412 13.1734 5.61084 12.6845C4.61084 12.1215 3.79834 11.608 3.17334 11.1438C2.55615 10.6697 2.03271 10.0524 1.59521 9.28697C1.16553 8.52648 0.95459 7.56846 0.95459 6.42278C0.95459 4.59562 1.44678 3.22278 2.43896 2.31413C3.43896 1.40549 4.74365 0.951172 6.36084 0.951172C7.61865 0.951172 8.72021 1.29685 9.65771 1.97833C10.603 2.64994 11.0796 3.63759 11.0796 4.9413C11.0796 5.70673 10.8765 6.33883 10.4702 6.83759C10.064 7.32648 9.53271 7.56846 8.87646 7.56846C8.50146 7.54377 8.2085 7.42525 8.00146 7.2129C7.80225 6.99068 7.70459 6.77833 7.70459 6.5808C7.70459 6.57092 7.81396 6.49685 8.03271 6.36352C8.25928 6.23512 8.4624 6.04253 8.64209 5.79068C8.81787 5.54376 8.90771 5.19315 8.90771 4.74376C8.90771 3.96846 8.66553 3.36105 8.18896 2.92648C7.72021 2.48204 7.11475 2.25488 6.37646 2.25488C5.36475 2.25488 4.59521 2.56105 4.06396 3.16352C3.54053 3.75611 3.28271 4.49685 3.28271 5.37586C3.28271 6.1166 3.43896 6.73389 3.75146 7.23265C4.07178 7.73636 4.5835 8.22031 5.28271 8.69438C5.84521 9.07957 6.4585 9.45981 7.12646 9.84006C8.19678 10.4475 9.04834 11.0055 9.67334 11.5191C10.2983 12.0228 10.8179 12.6845 11.2358 13.5141C11.6616 14.3339 11.8765 15.3512 11.8765 16.5759C11.8765 17.6327 11.6147 18.5857 11.0952 19.4401C10.5718 20.2845 9.86475 20.9512 8.97021 21.4351C8.07178 21.9191 7.09521 22.166 6.03271 22.166Z" fill="black"/>
</svg>
