<svg width="17" height="22" viewBox="0 0 17 22" fill="none" xmlns="http://www.w3.org/2000/svg">
<path d="M8.88135 21.9365C7.29541 21.9365 5.90088 21.4525 4.69385 20.4945C3.48291 19.5365 2.54541 18.2624 1.88135 16.6822C1.2251 15.1019 0.896973 13.413 0.896973 11.6056C0.896973 9.39328 1.2915 7.46736 2.08447 5.81798C2.87354 4.17353 3.88525 2.91427 5.11572 2.04514C6.354 1.16612 7.60791 0.72168 8.88135 0.72168C10.4751 0.72168 11.8813 1.20563 13.1001 2.16366C14.3267 3.12662 15.272 4.39082 15.9282 5.95625C16.5923 7.52662 16.9282 9.21551 16.9282 11.0328C16.9282 13.2451 16.5259 15.1809 15.7251 16.8402C14.9204 18.4896 13.897 19.7538 12.647 20.6328C11.397 21.5019 10.1392 21.9365 8.88135 21.9365ZM8.8501 20.5538C9.98291 20.5538 10.9282 20.1291 11.6782 19.2698C12.436 18.4155 13.0063 17.2698 13.3813 15.8328C13.7563 14.3859 13.9438 12.7859 13.9438 11.0328C13.9438 9.41304 13.7485 7.92662 13.3657 6.56859C12.9907 5.20069 12.4165 4.11427 11.647 3.30933C10.8853 2.49452 9.95166 2.08464 8.8501 2.08464C7.18213 2.08464 5.92822 2.98341 5.08447 4.77106C4.24072 6.54884 3.81885 8.79575 3.81885 11.5069C3.81885 13.1562 4.00635 14.6624 4.38135 16.0303C4.75635 17.4032 5.31885 18.4995 6.06885 19.3291C6.81885 20.1488 7.74463 20.5538 8.8501 20.5538Z" fill="black"/>
</svg>
