<svg width="13" height="22" viewBox="0 0 13 22" fill="none" xmlns="http://www.w3.org/2000/svg">
<path d="M6.30701 21.5508C4.55701 21.5508 3.21716 21.1656 2.29138 20.4051C1.36169 19.6298 0.900757 18.4989 0.900757 17.0075C0.900757 16.2471 1.10388 15.6199 1.51013 15.131C1.92419 14.6322 2.45544 14.3804 3.10388 14.3804C3.48669 14.3952 3.77966 14.5137 3.97888 14.7359C4.17419 14.9631 4.27576 15.1656 4.27576 15.3483C4.27576 15.3779 4.18982 15.4569 4.02576 15.5853C3.85779 15.7038 3.70544 15.8964 3.57263 16.1582C3.44763 16.41 3.38513 16.7508 3.38513 17.1853C3.38513 18.173 3.61951 18.9384 4.08826 19.4767C4.56482 20.0199 5.30701 20.2866 6.30701 20.2866C6.99451 20.2866 7.59216 20.1236 8.10388 19.7927C8.62341 19.452 9.01795 19.0026 9.29138 18.4495C9.57263 17.8866 9.71326 17.2989 9.71326 16.6915C9.71326 15.931 9.54138 15.2791 9.19763 14.7359C8.85388 14.1829 8.43201 13.7236 7.93201 13.3532C7.43201 12.9878 6.74841 12.5582 5.88513 12.0693C4.88513 11.5063 4.07263 10.9927 3.44763 10.5285C2.83044 10.0545 2.30701 9.43717 1.86951 8.67174C1.43982 7.91125 1.22888 6.95322 1.22888 5.80754C1.22888 3.98038 1.72107 2.60754 2.71326 1.6989C3.71326 0.790258 5.01794 0.335938 6.63513 0.335938C7.89294 0.335938 8.99451 0.681617 9.93201 1.3631C10.8773 2.0347 11.3539 3.02236 11.3539 4.32606C11.3539 5.09149 11.1508 5.72359 10.7445 6.22236C10.3383 6.71125 9.80701 6.95322 9.15076 6.95322C8.77576 6.92853 8.48279 6.81001 8.27576 6.59767C8.07654 6.37544 7.97888 6.1631 7.97888 5.96557C7.97888 5.95569 8.08826 5.88162 8.30701 5.74828C8.53357 5.61989 8.73669 5.4273 8.91638 5.17544C9.09216 4.92853 9.18201 4.57791 9.18201 4.12853C9.18201 3.35322 8.93982 2.74581 8.46326 2.31125C7.99451 1.8668 7.38904 1.63964 6.65076 1.63964C5.63904 1.63964 4.86951 1.94581 4.33826 2.54828C3.81482 3.14088 3.55701 3.88162 3.55701 4.76063C3.55701 5.50137 3.71326 6.11865 4.02576 6.61742C4.34607 7.12112 4.85779 7.60507 5.55701 8.07915C6.11951 8.46433 6.73279 8.84458 7.40076 9.22483C8.47107 9.83223 9.32263 10.3903 9.94763 10.9038C10.5726 11.4075 11.0922 12.0693 11.5101 12.8989C11.9359 13.7187 12.1508 14.7359 12.1508 15.9606C12.1508 17.0174 11.889 17.9705 11.3695 18.8248C10.8461 19.6693 10.139 20.3359 9.24451 20.8199C8.34607 21.3038 7.36951 21.5508 6.30701 21.5508Z" fill="black"/>
</svg>
