<svg width="37" height="48" viewBox="0 0 37 48" fill="none" xmlns="http://www.w3.org/2000/svg">
<path d="M36.3824 23.3511C36.3824 24.6548 36.3199 26.0079 36.1949 27.4005H11.4293C11.5934 30.2054 12.3082 32.3536 13.5699 33.84C14.8278 35.3165 16.3746 36.0523 18.2106 36.0523C20.9371 36.0523 22.8395 34.6005 23.9137 31.6869H35.5543C34.9606 34.6647 33.8824 37.3363 32.3199 39.7066C30.7653 42.077 28.8121 43.9437 26.4606 45.2968C24.1168 46.64 21.4957 47.3116 18.6012 47.3116C15.1012 47.3116 11.984 46.3733 9.25745 44.4869C6.52698 42.5906 4.39026 39.8943 2.8512 36.3881C1.31995 32.8869 0.554321 28.7832 0.554321 24.0819C0.554321 19.3955 1.30823 15.3017 2.81995 11.7955C4.33948 8.27948 6.46448 5.58318 9.19495 3.69676C11.9215 1.81528 15.0582 0.87207 18.6012 0.87207C22.0582 0.87207 25.1324 1.79059 27.8199 3.61775C30.5074 5.44985 32.6051 8.06219 34.1168 11.4597C35.6246 14.8573 36.3824 18.8227 36.3824 23.3511ZM25.1949 19.7165C25.1949 17.3461 24.5543 15.4647 23.2731 14.0671C21.9918 12.6597 20.3903 11.9536 18.4762 11.9536C16.6324 11.9536 15.0778 12.635 13.8199 13.9881C12.5699 15.3313 11.7926 17.2424 11.4918 19.7165H25.1949Z" fill="#008B8B"/>
</svg>
