<svg width="18" height="22" viewBox="0 0 18 22" fill="none" xmlns="http://www.w3.org/2000/svg">
<path d="M1.2644 21.0182C1.11597 21.0182 1.00269 20.949 0.920654 20.8206C0.846435 20.6774 0.811279 20.5145 0.811279 20.3268C0.83081 20.0108 0.881591 19.8231 0.967529 19.754C1.04956 19.6898 1.20581 19.6552 1.43628 19.6552C1.92456 19.6552 2.28003 19.5466 2.49878 19.3194C2.72534 19.0972 2.86597 18.8355 2.92065 18.5293C2.97144 18.2281 3.00269 17.7935 3.0144 17.2256L3.06128 4.68237C3.06128 4.05028 3.00659 3.57126 2.90503 3.2404C2.79956 2.91447 2.62769 2.67743 2.3894 2.52929C2.15894 2.38608 1.8269 2.26262 1.3894 2.15398C1.10815 2.08978 0.928467 2.02558 0.858154 1.95645C0.795654 1.89225 0.764404 1.71447 0.764404 1.42311C0.764404 1.1762 0.815185 1.0083 0.920654 0.929287C1.03394 0.840399 1.20581 0.791016 1.43628 0.791016C2.47534 0.791016 3.29565 0.884843 3.8894 1.06756C4.49097 1.2404 5.02222 1.55645 5.48315 2.01571C5.94019 2.4799 6.44409 3.18114 6.99878 4.12929L13.8425 15.5071H13.9207L13.8738 4.68237C13.8503 4.1046 13.8152 3.66509 13.7644 3.35892C13.7097 3.05768 13.5691 2.79595 13.3425 2.56879C13.1238 2.34657 12.7722 2.23299 12.2957 2.23299H12.1394C11.9714 2.23299 11.8503 2.20336 11.78 2.13423C11.7058 2.05521 11.6589 1.8725 11.6394 1.58114C11.6394 1.38361 11.6785 1.22065 11.7644 1.08731C11.8464 0.958917 11.9558 0.889781 12.0925 0.889781C13.155 0.944102 13.9558 0.968793 14.4988 0.968793C14.8113 0.968793 15.4128 0.94904 16.3113 0.909534L16.8425 0.889781C16.9871 0.889781 17.0964 0.958917 17.1707 1.08731C17.2527 1.22065 17.2957 1.38361 17.2957 1.58114C17.2722 1.89719 17.2214 2.08978 17.1394 2.15398C17.0535 2.2083 16.8972 2.23299 16.6707 2.23299C16.1785 2.23299 15.8191 2.34657 15.5925 2.56879C15.3738 2.79595 15.2371 3.05768 15.1863 3.35892C15.1433 3.66509 15.1121 4.1046 15.0925 4.68237L15.0457 20.6034C15.0222 20.8799 14.8152 21.0182 14.4207 21.0182C14.0964 21.0182 13.8503 20.8799 13.6863 20.6034L4.2644 4.68237H4.18628L4.24878 17.2256C4.25659 17.7935 4.28784 18.2281 4.34253 18.5293C4.39331 18.8355 4.53003 19.0972 4.74878 19.3194C4.97534 19.5466 5.33081 19.6552 5.81128 19.6552H5.96753C6.13159 19.6552 6.25269 19.6947 6.3269 19.7737C6.39722 19.8429 6.44409 20.0256 6.46753 20.3268C6.46753 20.5145 6.42847 20.6774 6.35815 20.8206C6.28394 20.949 6.17065 21.0182 6.0144 21.0182C4.9519 20.949 4.14331 20.9194 3.59253 20.9194C3.25659 20.9194 2.67456 20.9392 1.84253 20.9787L1.2644 21.0182Z" fill="black"/>
</svg>
