<svg width="21" height="22" viewBox="0 0 21 22" fill="none" xmlns="http://www.w3.org/2000/svg">
<path d="M10.2104 21.0774C9.96045 21.0774 9.78076 20.9688 9.6792 20.7614L4.0542 4.68237H3.97607L4.03857 17.2256C4.04639 17.7935 4.07764 18.2281 4.13232 18.5293C4.18311 18.8355 4.31982 19.0972 4.53857 19.3194C4.76514 19.5466 5.12061 19.6552 5.60107 19.6552H5.75732C5.92139 19.6552 6.04248 19.6947 6.1167 19.7737C6.18701 19.8429 6.23389 20.0256 6.25732 20.3268C6.25732 20.5145 6.21826 20.6774 6.14795 20.8206C6.07373 20.949 5.96045 21.0182 5.8042 21.0182L5.1792 20.9787C4.41748 20.9392 3.87061 20.9194 3.53857 20.9194C2.96436 20.9194 2.13623 20.949 1.0542 21.0182C0.905762 21.0182 0.79248 20.949 0.710449 20.8206C0.63623 20.6774 0.601074 20.5145 0.601074 20.3268C0.620605 20.0108 0.671386 19.8231 0.757324 19.754C0.839355 19.6898 0.995605 19.6552 1.22607 19.6552C1.71436 19.6552 2.06982 19.5466 2.28857 19.3194C2.51514 19.0972 2.65576 18.8355 2.71045 18.5293C2.76123 18.2281 2.79248 17.7935 2.8042 17.2256L2.85107 4.68237C2.85107 4.02558 2.79248 3.53176 2.6792 3.20089C2.56201 2.87497 2.39014 2.64287 2.16357 2.50953C1.94482 2.38114 1.6167 2.26262 1.1792 2.15398C1.1167 2.12929 1.01514 2.1046 0.882324 2.07497C0.745605 2.03546 0.655762 1.97126 0.616699 1.87744C0.57373 1.78855 0.554199 1.63546 0.554199 1.42311C0.554199 1.1762 0.60498 1.0083 0.710449 0.929287C0.82373 0.840399 0.995605 0.791016 1.22607 0.791016C2.21436 0.791016 3.02295 0.870028 3.64795 1.02805C4.28076 1.18608 4.83936 1.512 5.31982 1.99595C5.79639 2.47003 6.19482 3.18114 6.50732 4.12929L10.8042 16.3367H10.8823L15.8042 0.968793H17.2261C18.1401 0.968793 19.1362 0.944102 20.2104 0.889781C20.355 0.889781 20.4644 0.958917 20.5386 1.08731C20.6206 1.22065 20.6636 1.38361 20.6636 1.58114C20.6401 1.89719 20.5854 2.08978 20.4917 2.15398C20.3979 2.2083 20.2456 2.23299 20.0386 2.23299C19.5464 2.23299 19.1831 2.34657 18.9448 2.56879C18.7144 2.79595 18.5698 3.0725 18.5073 3.39842C18.4526 3.72929 18.4214 4.15892 18.4136 4.68237V17.2256C18.4214 17.754 18.4526 18.1836 18.5073 18.5095C18.5698 18.8256 18.7144 19.0972 18.9448 19.3194C19.1831 19.5466 19.5464 19.6552 20.0386 19.6552H20.1792C20.3354 19.6552 20.4487 19.6947 20.5229 19.7737C20.5933 19.8429 20.6401 20.0256 20.6636 20.3268C20.6636 20.5145 20.6206 20.6774 20.5386 20.8206C20.4644 20.949 20.355 21.0182 20.2104 21.0182C19.1362 20.949 18.1362 20.9194 17.2104 20.9194C16.2417 20.9194 15.2144 20.949 14.1323 21.0182C13.9839 21.0182 13.8706 20.949 13.7886 20.8206C13.7144 20.6774 13.6792 20.5145 13.6792 20.3268C13.6987 20.0108 13.7495 19.8231 13.8354 19.754C13.9175 19.6898 14.0737 19.6552 14.3042 19.6552C14.7925 19.6552 15.1519 19.5466 15.3823 19.3194C15.6089 19.0972 15.7573 18.8256 15.8198 18.5095C15.8823 18.1836 15.9175 17.754 15.9292 17.2256V4.68237H15.8511L10.7104 20.7614C10.6362 20.9688 10.4683 21.0774 10.2104 21.0774Z" fill="black"/>
</svg>
