<svg width="11" height="17" viewBox="0 0 11 17" fill="none" xmlns="http://www.w3.org/2000/svg">
<path d="M4.89465 0.0390625C5.51965 0.0390625 6.06653 0.206964 6.53528 0.53289C7.01184 0.848939 7.37903 1.27363 7.62903 1.79709V0.197087H10.3634V11.4168C10.3634 12.444 10.1993 13.3773 9.87903 14.2218C9.55481 15.0613 9.05872 15.728 8.39465 16.2168C7.72668 16.7156 6.89856 16.9675 5.91028 16.9675C4.59778 16.9675 3.52747 16.5724 2.70715 15.7823C1.89465 15.002 1.42981 13.9452 1.31653 12.602H4.00403C4.08606 13.0366 4.28528 13.3724 4.59778 13.6094C4.91809 13.8563 5.31653 13.9847 5.78528 13.9847C6.34778 13.9847 6.79309 13.7773 7.12903 13.3724C7.46106 12.9625 7.62903 12.3107 7.62903 11.4168V9.81684C7.36731 10.3452 7.00403 10.7749 6.53528 11.1008C6.06653 11.4317 5.51965 11.5946 4.89465 11.5946C4.16418 11.5946 3.50403 11.3576 2.91028 10.8835C2.31653 10.4094 1.84778 9.73289 1.50403 8.84894C1.16028 7.96993 0.988403 6.95264 0.988403 5.80696C0.988403 4.65141 1.16028 3.63412 1.50403 2.76499C1.84778 1.89585 2.31653 1.22425 2.91028 0.750174C3.50403 0.2761 4.16418 0.0390625 4.89465 0.0390625ZM7.62903 5.82672C7.62903 4.95758 7.44153 4.28104 7.06653 3.79215C6.69153 3.29338 6.23059 3.04153 5.69153 3.04153C5.14856 3.04153 4.69153 3.28845 4.31653 3.7724C3.94153 4.26129 3.75403 4.93783 3.75403 5.80696C3.75403 6.66622 3.94153 7.34277 4.31653 7.84153C4.69153 8.34524 5.14856 8.59215 5.69153 8.59215C6.23059 8.59215 6.69153 8.35017 7.06653 7.86129C7.44153 7.36252 7.62903 6.68598 7.62903 5.82672Z" fill="white"/>
</svg>
