<svg width="21" height="21" viewBox="0 0 21 21" fill="none" xmlns="http://www.w3.org/2000/svg">
<path d="M9.90332 20.4622C9.65332 20.4622 9.47363 20.3536 9.37207 20.1462L3.74707 4.06714H3.66895L3.73145 16.6103C3.73926 17.1783 3.77051 17.6128 3.8252 17.9141C3.87598 18.2202 4.0127 18.482 4.23145 18.7042C4.45801 18.9313 4.81348 19.04 5.29395 19.04H5.4502C5.61426 19.04 5.73535 19.0795 5.80957 19.1585C5.87988 19.2276 5.92676 19.4104 5.9502 19.7116C5.9502 19.8992 5.91113 20.0622 5.84082 20.2054C5.7666 20.3338 5.65332 20.4029 5.49707 20.4029L4.87207 20.3634C4.11035 20.3239 3.56348 20.3042 3.23145 20.3042C2.65723 20.3042 1.8291 20.3338 0.74707 20.4029C0.598633 20.4029 0.485351 20.3338 0.40332 20.2054C0.329101 20.0622 0.293945 19.8992 0.293945 19.7116C0.313476 19.3955 0.364257 19.2079 0.450195 19.1387C0.532226 19.0745 0.688476 19.04 0.918945 19.04C1.40723 19.04 1.7627 18.9313 1.98145 18.7042C2.20801 18.482 2.34863 18.2202 2.40332 17.9141C2.4541 17.6128 2.48535 17.1783 2.49707 16.6103L2.54395 4.06714C2.54395 3.41035 2.48535 2.91652 2.37207 2.58566C2.25488 2.25973 2.08301 2.02763 1.85645 1.8943C1.6377 1.76591 1.30957 1.64739 0.87207 1.53874C0.80957 1.51405 0.708007 1.48936 0.575195 1.45973C0.438476 1.42023 0.348633 1.35603 0.30957 1.2622C0.266601 1.17331 0.24707 1.02023 0.24707 0.80788C0.24707 0.560966 0.297851 0.393065 0.40332 0.314053C0.516601 0.225165 0.688476 0.175781 0.918945 0.175781C1.90723 0.175781 2.71582 0.254794 3.34082 0.412818C3.97363 0.570843 4.53223 0.89677 5.0127 1.38072C5.48926 1.85479 5.8877 2.5659 6.2002 3.51405L10.4971 15.7215H10.5752L15.4971 0.353559H16.9189C17.833 0.353559 18.8291 0.328868 19.9033 0.274547C20.0479 0.274547 20.1572 0.343683 20.2314 0.472078C20.3135 0.605411 20.3564 0.768374 20.3564 0.965905C20.333 1.28195 20.2783 1.47455 20.1846 1.53874C20.0908 1.59307 19.9385 1.61776 19.7314 1.61776C19.2393 1.61776 18.876 1.73134 18.6377 1.95356C18.4072 2.18072 18.2627 2.45726 18.2002 2.78319C18.1455 3.11405 18.1143 3.54368 18.1064 4.06714V16.6103C18.1143 17.1387 18.1455 17.5684 18.2002 17.8943C18.2627 18.2104 18.4072 18.482 18.6377 18.7042C18.876 18.9313 19.2393 19.04 19.7314 19.04H19.8721C20.0283 19.04 20.1416 19.0795 20.2158 19.1585C20.2861 19.2276 20.333 19.4104 20.3564 19.7116C20.3564 19.8992 20.3135 20.0622 20.2314 20.2054C20.1572 20.3338 20.0479 20.4029 19.9033 20.4029C18.8291 20.3338 17.8291 20.3042 16.9033 20.3042C15.9346 20.3042 14.9072 20.3338 13.8252 20.4029C13.6768 20.4029 13.5635 20.3338 13.4814 20.2054C13.4072 20.0622 13.3721 19.8992 13.3721 19.7116C13.3916 19.3955 13.4424 19.2079 13.5283 19.1387C13.6104 19.0745 13.7666 19.04 13.9971 19.04C14.4854 19.04 14.8447 18.9313 15.0752 18.7042C15.3018 18.482 15.4502 18.2104 15.5127 17.8943C15.5752 17.5684 15.6104 17.1387 15.6221 16.6103V4.06714H15.5439L10.4033 20.1462C10.3291 20.3536 10.1611 20.4622 9.90332 20.4622Z" fill="black"/>
</svg>
