<svg width="17" height="22" viewBox="0 0 17 22" fill="none" xmlns="http://www.w3.org/2000/svg">
<path d="M8.04907 21.5508C6.46313 21.5508 5.0686 21.0668 3.86157 20.1088C2.65063 19.1508 1.71313 17.8767 1.04907 16.2964C0.392822 14.7162 0.0646973 13.0273 0.0646973 11.2199C0.0646973 9.00754 0.459228 7.08162 1.2522 5.43223C2.04126 3.78779 3.05298 2.52853 4.28345 1.65939C5.52173 0.780381 6.77563 0.335938 8.04907 0.335938C9.64282 0.335938 11.0491 0.819888 12.2678 1.77791C13.4944 2.74088 14.4397 4.00507 15.0959 5.57051C15.76 7.14088 16.0959 8.82977 16.0959 10.647C16.0959 12.8594 15.6936 14.7952 14.8928 16.4545C14.0881 18.1038 13.0647 19.368 11.8147 20.247C10.5647 21.1162 9.30688 21.5508 8.04907 21.5508ZM8.01782 20.168C9.15063 20.168 10.0959 19.7433 10.8459 18.8841C11.6038 18.0298 12.1741 16.8841 12.5491 15.447C12.9241 14.0001 13.1116 12.4001 13.1116 10.647C13.1116 9.0273 12.9163 7.54088 12.5334 6.18285C12.1584 4.81495 11.5842 3.72853 10.8147 2.92359C10.053 2.10878 9.11938 1.6989 8.01782 1.6989C6.34985 1.6989 5.09595 2.59767 4.2522 4.38532C3.40845 6.1631 2.98657 8.41001 2.98657 11.1211C2.98657 12.7705 3.17407 14.2767 3.54907 15.6446C3.92407 17.0174 4.48657 18.1137 5.23657 18.9433C5.98657 19.7631 6.91235 20.168 8.01782 20.168Z" fill="black"/>
</svg>
