<svg width="4" height="15" viewBox="0 0 4 15" fill="none" xmlns="http://www.w3.org/2000/svg">
<path d="M1.94531 4.70452C1.47656 4.70452 1.09375 4.52675 0.804688 4.17119C0.511719 3.80576 0.367188 3.32181 0.367188 2.72922C0.367188 2.15144 0.515626 1.67736 0.820312 1.30699C1.12109 0.941561 1.5 0.753906 1.96094 0.753906C2.42969 0.753906 2.80859 0.941561 3.10156 1.30699C3.39063 1.67736 3.53906 2.15144 3.53906 2.72922C3.53906 3.32181 3.39063 3.80576 3.10156 4.17119C2.80859 4.52675 2.42188 4.70452 1.94531 4.70452ZM1.94531 14.6798C1.49609 14.6798 1.12109 14.4922 0.820312 14.1267C0.515626 13.7613 0.367188 13.2724 0.367188 12.665C0.367188 12.1119 0.515626 11.6527 0.820312 11.2823C1.12109 10.9169 1.5 10.7292 1.96094 10.7292C2.42969 10.7292 2.8125 10.9169 3.11719 11.2823C3.41797 11.6527 3.57031 12.1119 3.57031 12.665C3.57031 13.2724 3.41797 13.7613 3.11719 14.1267C2.8125 14.4922 2.42188 14.6798 1.94531 14.6798Z" fill="black"/>
</svg>
