<svg width="8" height="22" viewBox="0 0 8 22" fill="none" xmlns="http://www.w3.org/2000/svg">
<path d="M1.31641 21.018C1.16797 21.018 1.05469 20.9489 0.972656 20.8205C0.898437 20.6773 0.863281 20.5143 0.863281 20.3267C0.882812 20.0106 0.933594 19.823 1.01953 19.7538C1.11328 19.6897 1.26953 19.6551 1.48828 19.6551C1.97656 19.6551 2.33594 19.5464 2.56641 19.3193C2.79297 19.0971 2.94141 18.8255 3.00391 18.5094C3.07422 18.1934 3.12109 17.7687 3.14453 17.2255V4.68224C3.12109 4.12916 3.07422 3.69459 3.00391 3.37854C2.94141 3.06249 2.79297 2.79582 2.56641 2.56866C2.33594 2.34644 1.97656 2.23286 1.48828 2.23286H1.34766C1.19141 2.23286 1.07422 2.20323 1.00391 2.13409C0.929687 2.05508 0.882812 1.87236 0.863281 1.58101C0.863281 1.38348 0.898437 1.22051 0.972656 1.08718C1.05469 0.958785 1.16797 0.889648 1.31641 0.889648C2.39844 0.94397 3.38672 0.968661 4.28516 0.968661C5.28516 0.968661 6.32422 0.94397 7.41016 0.889648C7.56641 0.889648 7.67969 0.958785 7.75391 1.08718C7.82422 1.22051 7.86328 1.38348 7.86328 1.58101C7.85156 1.89706 7.80078 2.08965 7.70703 2.15385C7.61328 2.20817 7.44922 2.23286 7.22266 2.23286C6.73047 2.23286 6.36719 2.34644 6.12891 2.56866C5.89844 2.79582 5.75391 3.07236 5.69141 3.39829C5.63672 3.72916 5.60547 4.15879 5.59766 4.68224V17.2255C5.60547 17.7538 5.63672 18.1835 5.69141 18.5094C5.75391 18.8255 5.89844 19.0971 6.12891 19.3193C6.36719 19.5464 6.73047 19.6551 7.22266 19.6551H7.36328C7.52735 19.6551 7.64844 19.6946 7.72266 19.7736C7.80469 19.8427 7.85156 20.0255 7.86328 20.3267C7.86328 20.5143 7.82422 20.6773 7.75391 20.8205C7.67969 20.9489 7.56641 21.018 7.41016 21.018C6.34766 20.9489 5.31641 20.9193 4.31641 20.9193C3.39844 20.9193 2.39844 20.9489 1.31641 21.018Z" fill="black"/>
</svg>
