<svg width="14" height="22" viewBox="0 0 14 22" fill="none" xmlns="http://www.w3.org/2000/svg">
<path d="M0.731934 21.018C0.595215 21.018 0.489746 20.9489 0.419434 20.8205C0.345215 20.6773 0.310059 20.5143 0.310059 20.3267C0.317872 20.0106 0.364746 19.823 0.450684 19.7538C0.532715 19.6897 0.692872 19.6551 0.935059 19.6551C1.41162 19.6551 1.76709 19.5464 1.99756 19.3193C2.23584 19.0971 2.38037 18.8255 2.43506 18.5094C2.49756 18.1835 2.53662 17.7538 2.56006 17.2255V4.68224C2.53662 4.15879 2.49756 3.72916 2.43506 3.39829C2.38037 3.07236 2.23584 2.79582 1.99756 2.56866C1.76709 2.34644 1.41162 2.23286 0.935059 2.23286H0.778809C0.61084 2.23286 0.489746 2.20323 0.419434 2.13409C0.356934 2.05508 0.317872 1.87236 0.310059 1.58101C0.310059 1.38348 0.345215 1.22051 0.419434 1.08718C0.489746 0.958785 0.595215 0.889648 0.731934 0.889648C1.8335 0.94397 2.82568 0.968661 3.70068 0.968661H11.5601C11.9858 0.968661 12.2007 1.22545 12.2007 1.73903L12.2788 6.16372C12.2788 6.35138 12.2007 6.49953 12.0444 6.61804C11.896 6.73656 11.7515 6.79582 11.6069 6.79582C11.4077 6.79582 11.2319 6.75138 11.0757 6.65755C10.9272 6.55385 10.8452 6.41064 10.8257 6.22298C10.7007 5.19582 10.5522 4.41557 10.3882 3.87236C10.2319 3.33409 9.99756 2.93409 9.68506 2.66743C9.38037 2.4057 8.95068 2.26249 8.38818 2.23286H5.02881V10.2724H9.56006C9.67334 10.2872 9.76318 10.3662 9.82568 10.5094C9.896 10.6427 9.93506 10.8057 9.93506 11.0032C9.93506 11.1613 9.896 11.3094 9.82568 11.4378C9.76318 11.5711 9.67334 11.6353 9.56006 11.6353H5.02881V17.6008C5.06006 18.0501 5.09912 18.4057 5.15381 18.6674C5.20459 18.9341 5.35693 19.1711 5.60693 19.3785C5.85693 19.5909 6.24756 19.6847 6.77881 19.6551H9.07568C9.65772 19.6304 10.0991 19.5119 10.4038 19.2995C10.7046 19.0773 10.9429 18.7366 11.1226 18.2724C11.2983 17.7983 11.5132 17.0378 11.7632 15.981C11.8765 15.6156 12.1577 15.4674 12.6069 15.5464C12.771 15.5859 12.9194 15.6748 13.0444 15.8032C13.1694 15.9217 13.2202 16.0798 13.2007 16.2773L12.7007 20.2477C12.6577 20.5242 12.5835 20.7119 12.4819 20.8008C12.3765 20.8798 12.2085 20.9193 11.9819 20.9193H3.73193C2.8335 20.9193 1.8335 20.9489 0.731934 21.018Z" fill="black"/>
</svg>
