<svg width="15" height="21" viewBox="0 0 15 21" fill="none" xmlns="http://www.w3.org/2000/svg">
<path d="M4.24976 20.4029C4.10132 20.4029 3.99194 20.3338 3.92163 20.2054C3.84741 20.0622 3.81226 19.8992 3.81226 19.7115C3.82007 19.3955 3.86694 19.2078 3.95288 19.1387C4.03491 19.0745 4.19507 19.0399 4.43726 19.0399C4.91382 19.0399 5.26929 18.9313 5.49976 18.7041C5.73804 18.4819 5.88257 18.2103 5.93726 17.8943C5.99976 17.5683 6.03882 17.1387 6.06226 16.6103V1.5387H4.32788C3.76538 1.55352 3.32788 1.7066 3.01538 1.99302C2.71069 2.26957 2.47632 2.69426 2.31226 3.25722C2.15601 3.81031 2.01929 4.61031 1.90601 5.64734C1.88257 5.80537 1.78101 5.9387 1.59351 6.0424C1.41382 6.15105 1.22632 6.20043 1.03101 6.20043C0.882568 6.20043 0.749756 6.15105 0.624756 6.0424C0.499756 5.92389 0.437256 5.76586 0.437256 5.56833L0.499756 1.12389C0.499756 0.610306 0.726318 0.353516 1.18726 0.353516H13.406C13.8435 0.353516 14.0623 0.610306 14.0623 1.12389L14.156 5.56833C14.156 5.76586 14.0857 5.92389 13.9529 6.0424C13.8162 6.15105 13.6755 6.20043 13.531 6.20043C13.3318 6.20043 13.1443 6.15105 12.9685 6.0424C12.7888 5.9387 12.6951 5.80537 12.6873 5.64734C12.5505 4.59549 12.406 3.79055 12.2498 3.23747C12.1013 2.68438 11.8669 2.26957 11.5466 1.99302C11.2341 1.7066 10.7966 1.55352 10.2341 1.5387H8.53101V16.6103C8.55054 17.1387 8.5857 17.5683 8.64038 17.8943C8.70288 18.2103 8.84741 18.4819 9.07788 18.7041C9.31616 18.9313 9.67554 19.0399 10.156 19.0399H10.3123C10.4568 19.0399 10.5662 19.0794 10.6404 19.1585C10.7107 19.2276 10.7576 19.4103 10.781 19.7115C10.781 19.8992 10.7419 20.0622 10.6716 20.2054C10.5974 20.3338 10.4841 20.4029 10.3279 20.4029C9.26538 20.3338 8.28101 20.3041 7.37476 20.3041C6.37476 20.3041 5.33179 20.3338 4.24976 20.4029Z" fill="black"/>
</svg>
