<svg width="17" height="22" viewBox="0 0 17 22" fill="none" xmlns="http://www.w3.org/2000/svg">
<path d="M8.5918 21.9365C7.00586 21.9365 5.61133 21.4525 4.4043 20.4945C3.19336 19.5365 2.25586 18.2624 1.5918 16.6822C0.935547 15.1019 0.607422 13.413 0.607422 11.6056C0.607422 9.39328 1.00195 7.46736 1.79492 5.81798C2.58398 4.17353 3.5957 2.91427 4.82617 2.04514C6.06445 1.16612 7.31836 0.72168 8.5918 0.72168C10.1855 0.72168 11.5918 1.20563 12.8105 2.16366C14.0371 3.12662 14.9824 4.39082 15.6387 5.95625C16.3027 7.52662 16.6387 9.21551 16.6387 11.0328C16.6387 13.2451 16.2363 15.1809 15.4355 16.8402C14.6309 18.4896 13.6074 19.7538 12.3574 20.6328C11.1074 21.5019 9.84961 21.9365 8.5918 21.9365ZM8.56055 20.5538C9.69336 20.5538 10.6387 20.1291 11.3887 19.2698C12.1465 18.4155 12.7168 17.2698 13.0918 15.8328C13.4668 14.3859 13.6543 12.7859 13.6543 11.0328C13.6543 9.41304 13.459 7.92662 13.0762 6.56859C12.7012 5.20069 12.127 4.11427 11.3574 3.30933C10.5957 2.49452 9.66211 2.08464 8.56055 2.08464C6.89258 2.08464 5.63867 2.98341 4.79492 4.77106C3.95117 6.54884 3.5293 8.79575 3.5293 11.5069C3.5293 13.1562 3.7168 14.6624 4.0918 16.0303C4.4668 17.4032 5.0293 18.4995 5.7793 19.3291C6.5293 20.1488 7.45508 20.5538 8.56055 20.5538Z" fill="black"/>
</svg>
