<svg width="14" height="21" viewBox="0 0 14 21" fill="none" xmlns="http://www.w3.org/2000/svg">
<path d="M3.83301 20.4029C3.68457 20.4029 3.5752 20.3338 3.50488 20.2054C3.43066 20.0622 3.39551 19.8992 3.39551 19.7115C3.40332 19.3955 3.4502 19.2078 3.53613 19.1387C3.61816 19.0745 3.77832 19.0399 4.02051 19.0399C4.49707 19.0399 4.85254 18.9313 5.08301 18.7041C5.32129 18.4819 5.46582 18.2103 5.52051 17.8943C5.58301 17.5683 5.62207 17.1387 5.64551 16.6103V1.5387H3.91113C3.34863 1.55352 2.91113 1.7066 2.59863 1.99302C2.29395 2.26957 2.05957 2.69426 1.89551 3.25722C1.73926 3.81031 1.60254 4.61031 1.48926 5.64734C1.46582 5.80537 1.36426 5.9387 1.17676 6.0424C0.99707 6.15105 0.80957 6.20043 0.614258 6.20043C0.46582 6.20043 0.333008 6.15105 0.208008 6.0424C0.0830078 5.92389 0.0205078 5.76586 0.0205078 5.56833L0.0830078 1.12389C0.0830078 0.610306 0.30957 0.353516 0.770508 0.353516H12.9893C13.4268 0.353516 13.6455 0.610306 13.6455 1.12389L13.7393 5.56833C13.7393 5.76586 13.6689 5.92389 13.5361 6.0424C13.3994 6.15105 13.2588 6.20043 13.1143 6.20043C12.915 6.20043 12.7275 6.15105 12.5518 6.0424C12.3721 5.9387 12.2783 5.80537 12.2705 5.64734C12.1338 4.59549 11.9893 3.79055 11.833 3.23747C11.6846 2.68438 11.4502 2.26957 11.1299 1.99302C10.8174 1.7066 10.3799 1.55352 9.81738 1.5387H8.11426V16.6103C8.13379 17.1387 8.16895 17.5683 8.22363 17.8943C8.28613 18.2103 8.43067 18.4819 8.66113 18.7041C8.89942 18.9313 9.25879 19.0399 9.73926 19.0399H9.89551C10.04 19.0399 10.1494 19.0794 10.2236 19.1585C10.2939 19.2276 10.3408 19.4103 10.3643 19.7115C10.3643 19.8992 10.3252 20.0622 10.2549 20.2054C10.1807 20.3338 10.0674 20.4029 9.91113 20.4029C8.84863 20.3338 7.86426 20.3041 6.95801 20.3041C5.95801 20.3041 4.91504 20.3338 3.83301 20.4029Z" fill="black"/>
</svg>
