<svg width="17" height="22" viewBox="0 0 17 22" fill="none" xmlns="http://www.w3.org/2000/svg">
<path d="M5.57361 21.018C5.42517 21.018 5.31189 20.9488 5.22986 20.8204C5.15564 20.6772 5.12048 20.5142 5.12048 20.3266C5.14002 20.0105 5.1908 19.8229 5.27673 19.7538C5.37048 19.6896 5.52673 19.655 5.74548 19.655C6.23377 19.655 6.59314 19.5463 6.82361 19.3192C7.05017 19.097 7.19861 18.8254 7.26111 18.5093C7.32361 18.1834 7.35877 17.7538 7.37048 17.2254V13.2747C7.37048 12.934 6.95642 11.7093 6.13611 9.60067C5.31189 7.48215 4.64001 5.82783 4.12048 4.64265C3.78455 3.88215 3.41736 3.31425 3.01111 2.94388C2.61267 2.57845 2.12439 2.32166 1.54236 2.17351C1.47986 2.16363 1.3783 2.14388 1.24548 2.11425C1.10876 2.07474 1.01892 2.01055 0.979858 1.91672C0.936889 1.81302 0.917358 1.65499 0.917358 1.44265C0.917358 1.19573 0.968139 1.02783 1.07361 0.948818C1.18689 0.859929 1.36267 0.810547 1.60486 0.810547C2.93689 0.810547 3.97986 1.04265 4.72986 1.5019C5.47986 1.95129 6.14392 2.82042 6.72986 4.10931C7.01111 4.81055 7.40173 5.80808 7.90173 7.11178C8.6283 8.96857 9.11267 10.1686 9.35486 10.7068H9.41736L12.1986 3.79326C12.3431 3.37351 12.4174 3.0624 12.4174 2.86487C12.4174 2.61795 12.3119 2.45005 12.1049 2.37104C11.8939 2.28215 11.5619 2.23277 11.1049 2.23277H10.9486C10.7806 2.23277 10.6595 2.20314 10.5892 2.134C10.5267 2.05499 10.4877 1.87228 10.4799 1.58092C10.4799 1.38339 10.515 1.22042 10.5892 1.08709C10.6595 0.958696 10.765 0.889559 10.9017 0.889559C11.9838 0.943881 12.89 0.968572 13.6205 0.968572C14.2338 0.968572 15.0775 0.943881 16.1517 0.889559C16.2963 0.889559 16.4056 0.958696 16.4799 1.08709C16.5619 1.22042 16.6049 1.38339 16.6049 1.58092C16.5814 1.87228 16.5345 2.05499 16.4642 2.134C16.4017 2.20314 16.2845 2.23277 16.1205 2.23277C15.4408 2.23277 14.8939 2.40067 14.4799 2.7266C14.0619 3.05746 13.6869 3.61055 13.3549 4.38586L10.5267 11.1217C10.472 11.255 10.3705 11.5167 10.2142 11.9118C10.0658 12.297 9.96814 12.6525 9.91736 12.9784C9.87439 13.2945 9.85486 13.6896 9.85486 14.1636V17.2254C9.86267 17.7538 9.89392 18.1834 9.94861 18.5093C10.0111 18.8254 10.1556 19.097 10.3861 19.3192C10.6244 19.5463 10.9877 19.655 11.4799 19.655H11.6205C11.7845 19.655 11.9017 19.6945 11.9642 19.7735C12.0345 19.8426 12.0814 20.0254 12.1049 20.3266C12.1049 20.5142 12.0619 20.6772 11.9799 20.8204C11.9056 20.9488 11.8002 21.018 11.6674 21.018C10.6049 20.9488 9.60486 20.9192 8.66736 20.9192C7.68689 20.9192 6.65564 20.9488 5.57361 21.018Z" fill="black"/>
</svg>
