<svg width="18" height="22" viewBox="0 0 18 22" fill="none" xmlns="http://www.w3.org/2000/svg">
<path d="M0.955566 21.0182C0.799316 21.0182 0.686035 20.949 0.611816 20.8206C0.541504 20.6774 0.502441 20.5145 0.502441 20.3268C0.51416 20.0108 0.561035 19.8231 0.643066 19.754C0.729004 19.6898 0.822754 19.6552 0.939941 19.6552C1.06494 19.6552 1.14307 19.6552 1.17432 19.6552C1.67432 19.6552 2.0376 19.4923 2.26807 19.1614C2.50635 18.8355 2.69385 18.4651 2.83057 18.0552C2.9751 17.6503 3.07275 17.3737 3.12744 17.2256L7.50244 4.12929C7.59619 3.81324 7.64307 3.56632 7.64307 3.37867C7.64307 2.99842 7.52588 2.72682 7.29932 2.56879C7.06885 2.40089 6.74463 2.26262 6.33057 2.15398C6.0376 2.08978 5.86182 2.02558 5.79932 1.95645C5.73682 1.89225 5.70557 1.71447 5.70557 1.42311C5.70557 1.1762 5.75635 1.0083 5.86182 0.929287C5.96338 0.840399 6.13525 0.791016 6.37744 0.791016C7.20947 0.791016 7.86963 0.870028 8.36182 1.02805C8.8501 1.18608 9.27588 1.50213 9.64307 1.9762C10.0181 2.45027 10.3618 3.17126 10.6743 4.12929L14.8774 17.2256C15.1274 18.0305 15.3657 18.6281 15.5962 19.0231C15.8345 19.4182 16.1821 19.6305 16.6431 19.6552H16.7993C16.9634 19.6552 17.0806 19.6947 17.1431 19.7737C17.2134 19.8429 17.2563 20.0256 17.2681 20.3268C17.2681 20.5145 17.229 20.6774 17.1587 20.8206C17.0845 20.949 16.9751 21.0182 16.8306 21.0182C15.7563 20.949 14.8384 20.9194 14.0806 20.9194C13.0806 20.9194 12.0415 20.949 10.9712 21.0182C10.8228 21.0182 10.7095 20.949 10.6274 20.8206C10.5532 20.6774 10.5181 20.5145 10.5181 20.3268C10.5376 20.0256 10.5806 19.8429 10.6431 19.7737C10.7134 19.6947 10.8345 19.6552 11.0024 19.6552C11.5649 19.6552 11.9595 19.591 12.1899 19.4577C12.4282 19.3145 12.5493 19.0626 12.5493 18.7071C12.5493 18.4305 12.4478 17.9367 12.2524 17.2256L11.3931 14.5984H5.22119C4.80322 15.9021 4.56494 16.6626 4.50244 16.87C4.44775 17.0824 4.42432 17.2009 4.42432 17.2256C4.2251 18.0305 4.12744 18.5441 4.12744 18.7663C4.12744 19.1219 4.25244 19.3589 4.50244 19.4774C4.75244 19.596 5.2251 19.6552 5.92432 19.6552H6.08057C6.24463 19.6552 6.36182 19.6947 6.42432 19.7737C6.48682 19.8429 6.52588 20.0256 6.54932 20.3268C6.54932 20.5145 6.51025 20.6774 6.43994 20.8206C6.36572 20.949 6.25244 21.0182 6.09619 21.0182C5.03369 20.949 4.12744 20.9194 3.37744 20.9194C2.84619 20.9194 2.0376 20.949 0.955566 21.0182ZM5.70557 13.2355H10.9556L8.42432 5.11694H8.34619L5.70557 13.2355Z" fill="black"/>
</svg>
