<svg width="17" height="22" viewBox="0 0 17 22" fill="none" xmlns="http://www.w3.org/2000/svg">
<path d="M0.652954 21.018C0.496704 21.018 0.379516 20.9489 0.309204 20.8205C0.234985 20.6773 0.199829 20.5143 0.199829 20.3267C0.207642 20.0106 0.254516 19.823 0.340454 19.7538C0.422485 19.6897 0.582642 19.6551 0.824829 19.6551C1.30139 19.6551 1.65686 19.5464 1.88733 19.3193C2.12561 19.0971 2.27014 18.8255 2.32483 18.5094C2.38733 18.1835 2.42639 17.7538 2.44983 17.2255V4.68224C2.42639 4.15879 2.38733 3.72916 2.32483 3.39829C2.27014 3.07236 2.12561 2.79582 1.88733 2.56866C1.65686 2.34644 1.30139 2.23286 0.824829 2.23286H0.668579C0.50061 2.23286 0.379516 2.20323 0.309204 2.13409C0.246704 2.05508 0.207642 1.87236 0.199829 1.58101C0.199829 1.38348 0.234985 1.22051 0.309204 1.08718C0.379516 0.958785 0.496704 0.889648 0.652954 0.889648C1.73499 0.94397 2.71545 0.968661 3.59045 0.968661C4.59045 0.968661 5.62952 0.94397 6.71545 0.889648C6.8717 0.889648 6.98498 0.958785 7.0592 1.08718C7.12952 1.22051 7.16858 1.38348 7.16858 1.58101C7.15686 1.89706 7.10998 2.08965 7.02795 2.15385C6.94202 2.20817 6.78186 2.23286 6.54358 2.23286C6.06311 2.23286 5.70373 2.34644 5.46545 2.56866C5.23498 2.79582 5.09045 3.07236 5.02795 3.39829C4.97327 3.72916 4.93811 4.15879 4.91858 4.68224V10.3909C5.18811 10.3267 5.48889 10.1489 5.82483 9.85755C6.15686 9.57113 6.56311 9.16125 7.04358 8.63286C7.98108 7.52669 9.15686 5.91681 10.5748 3.79335C10.8756 3.3736 11.028 3.0378 11.028 2.78594C11.028 2.4699 10.7975 2.30199 10.3405 2.27236C10.2233 2.24767 10.1451 2.18841 10.1061 2.09459C10.0631 2.0057 10.028 1.8378 9.9967 1.60076C9.9967 1.41804 10.0358 1.25508 10.1217 1.10693C10.2037 0.963723 10.3131 0.889648 10.4498 0.889648C11.0319 0.94397 11.9498 0.968661 13.1998 0.968661C13.5944 0.968661 14.1764 0.948908 14.9498 0.909402L15.4655 0.889648C15.6217 0.889648 15.7389 0.958785 15.8248 1.08718C15.9069 1.22051 15.9498 1.39335 15.9498 1.60076C15.9264 1.90693 15.8756 2.09459 15.7936 2.1736C15.7076 2.24273 15.5944 2.27236 15.4498 2.27236C14.7819 2.23286 14.153 2.37113 13.5592 2.68718C12.9655 3.00323 12.3444 3.57113 11.6998 4.38595L7.65295 9.73903C8.23499 10.6378 8.83264 11.4971 9.44983 12.3267C10.0631 13.1464 10.8014 14.0995 11.6686 15.1909C12.1061 15.744 12.6217 16.4255 13.2155 17.2255C13.403 17.4526 13.528 17.6156 13.5905 17.7193C14.1295 18.4057 14.5514 18.8847 14.8561 19.1613C15.1686 19.4279 15.5475 19.5909 15.9967 19.6551C16.028 19.6551 16.0983 19.665 16.2155 19.6748C16.3405 19.6897 16.4381 19.7489 16.5123 19.8526C16.5826 19.9613 16.6217 20.1193 16.6217 20.3267C16.6217 20.5143 16.5826 20.6773 16.5123 20.8205C16.4381 20.9489 16.3248 21.018 16.1686 21.018C15.9694 20.9884 15.7311 20.9785 15.4498 20.9785C14.8444 20.939 14.3756 20.9193 14.0436 20.9193H12.4498C10.2506 17.8279 8.28186 15.0131 6.54358 12.4847C6.01233 11.7094 5.46936 11.2896 4.91858 11.2205V17.2255C4.93811 17.7538 4.97327 18.1835 5.02795 18.5094C5.09045 18.8255 5.23498 19.0971 5.46545 19.3193C5.70373 19.5464 6.06311 19.6551 6.54358 19.6551H6.69983C6.86389 19.6551 6.98108 19.6946 7.04358 19.7736C7.11389 19.8427 7.15686 20.0255 7.16858 20.3267C7.16858 20.5143 7.12952 20.6773 7.0592 20.8205C6.98498 20.9489 6.8717 21.018 6.71545 21.018C5.65295 20.9489 4.6217 20.9193 3.6217 20.9193C2.72327 20.9193 1.73499 20.9489 0.652954 21.018Z" fill="black"/>
</svg>
