<svg width="21" height="22" viewBox="0 0 21 22" fill="none" xmlns="http://www.w3.org/2000/svg">
<path d="M10.094 21.0774C9.84399 21.0774 9.66431 20.9688 9.56274 20.7614L3.93774 4.68237H3.85962L3.92212 17.2256C3.92993 17.7935 3.96118 18.2281 4.01587 18.5293C4.06665 18.8355 4.20337 19.0972 4.42212 19.3194C4.64868 19.5466 5.00415 19.6552 5.48462 19.6552H5.64087C5.80493 19.6552 5.92602 19.6947 6.00024 19.7737C6.07056 19.8429 6.11743 20.0256 6.14087 20.3268C6.14087 20.5145 6.10181 20.6774 6.03149 20.8206C5.95727 20.949 5.84399 21.0182 5.68774 21.0182L5.06274 20.9787C4.30103 20.9392 3.75415 20.9194 3.42212 20.9194C2.8479 20.9194 2.01978 20.949 0.937744 21.0182C0.789307 21.0182 0.676025 20.949 0.593994 20.8206C0.519775 20.6774 0.484619 20.5145 0.484619 20.3268C0.50415 20.0108 0.554931 19.8231 0.640869 19.754C0.7229 19.6898 0.87915 19.6552 1.10962 19.6552C1.5979 19.6552 1.95337 19.5466 2.17212 19.3194C2.39868 19.0972 2.53931 18.8355 2.59399 18.5293C2.64478 18.2281 2.67603 17.7935 2.68774 17.2256L2.73462 4.68237C2.73462 4.02558 2.67603 3.53176 2.56274 3.20089C2.44556 2.87497 2.27368 2.64287 2.04712 2.50953C1.82837 2.38114 1.50024 2.26262 1.06274 2.15398C1.00024 2.12929 0.898681 2.1046 0.765869 2.07497C0.62915 2.03546 0.539307 1.97126 0.500244 1.87744C0.457275 1.78855 0.437744 1.63546 0.437744 1.42311C0.437744 1.1762 0.488525 1.0083 0.593994 0.929287C0.707275 0.840399 0.87915 0.791016 1.10962 0.791016C2.0979 0.791016 2.90649 0.870028 3.53149 1.02805C4.16431 1.18608 4.7229 1.512 5.20337 1.99595C5.67993 2.47003 6.07837 3.18114 6.39087 4.12929L10.6877 16.3367H10.7659L15.6877 0.968793H17.1096C18.0237 0.968793 19.0198 0.944102 20.094 0.889781C20.2385 0.889781 20.3479 0.958917 20.4221 1.08731C20.5042 1.22065 20.5471 1.38361 20.5471 1.58114C20.5237 1.89719 20.469 2.08978 20.3752 2.15398C20.2815 2.2083 20.1292 2.23299 19.9221 2.23299C19.4299 2.23299 19.0667 2.34657 18.8284 2.56879C18.5979 2.79595 18.4534 3.0725 18.3909 3.39842C18.3362 3.72929 18.3049 4.15892 18.2971 4.68237V17.2256C18.3049 17.754 18.3362 18.1836 18.3909 18.5095C18.4534 18.8256 18.5979 19.0972 18.8284 19.3194C19.0667 19.5466 19.4299 19.6552 19.9221 19.6552H20.0627C20.219 19.6552 20.3323 19.6947 20.4065 19.7737C20.4768 19.8429 20.5237 20.0256 20.5471 20.3268C20.5471 20.5145 20.5042 20.6774 20.4221 20.8206C20.3479 20.949 20.2385 21.0182 20.094 21.0182C19.0198 20.949 18.0198 20.9194 17.094 20.9194C16.1252 20.9194 15.0979 20.949 14.0159 21.0182C13.8674 21.0182 13.7542 20.949 13.6721 20.8206C13.5979 20.6774 13.5627 20.5145 13.5627 20.3268C13.5823 20.0108 13.6331 19.8231 13.719 19.754C13.801 19.6898 13.9573 19.6552 14.1877 19.6552C14.676 19.6552 15.0354 19.5466 15.2659 19.3194C15.4924 19.0972 15.6409 18.8256 15.7034 18.5095C15.7659 18.1836 15.801 17.754 15.8127 17.2256V4.68237H15.7346L10.594 20.7614C10.5198 20.9688 10.3518 21.0774 10.094 21.0774Z" fill="black"/>
</svg>
