<svg width="10" height="12" viewBox="0 0 10 12" fill="none" xmlns="http://www.w3.org/2000/svg">
<path d="M5.69397 0.078125C6.72522 0.078125 7.55334 0.507755 8.17834 1.36208C8.80334 2.22134 9.11584 3.39171 9.11584 4.87812V11.4361H6.39709V5.33245C6.39709 4.58183 6.24084 4.00405 5.92834 3.59417C5.62366 3.17442 5.2135 2.96208 4.69397 2.96208C4.18225 2.96208 3.77209 3.17442 3.45959 3.59417C3.14709 4.00405 2.99084 4.58183 2.99084 5.33245V11.4361H0.272095V0.196644H2.99084V1.69788C3.27209 1.19911 3.64709 0.804051 4.11584 0.512693C4.58459 0.226272 5.10803 0.078125 5.69397 0.078125Z" fill="white"/>
</svg>
