<svg width="16" height="24" viewBox="0 0 16 24" fill="none" xmlns="http://www.w3.org/2000/svg">
<path d="M5.08484 8.56392C5.47937 7.73429 6.05359 7.07256 6.80359 6.56886C7.55359 6.05528 8.41296 5.79849 9.38171 5.79849C10.5262 5.79849 11.5692 6.16886 12.5067 6.90466C13.4442 7.6454 14.1825 8.69725 14.7255 10.0652C15.2645 11.438 15.538 13.0281 15.538 14.8454C15.538 16.6627 15.2645 18.2627 14.7255 19.6454C14.1825 21.0182 13.4442 22.075 12.5067 22.8256C11.5692 23.5763 10.5262 23.9516 9.38171 23.9516C8.40125 23.9516 7.54187 23.7047 6.80359 23.2207C6.07312 22.7219 5.4989 22.0553 5.08484 21.2256V23.6948H0.803589V0.307129H5.08484V8.56392ZM11.1786 14.8454C11.1786 13.5022 10.8817 12.4503 10.288 11.6849C9.70203 10.9096 8.97546 10.5195 8.10046 10.5195C7.25671 10.5195 6.53796 10.9096 5.94421 11.6849C5.35046 12.4652 5.05359 13.5318 5.05359 14.8849C5.05359 16.2281 5.35046 17.2898 5.94421 18.0652C6.53796 18.8454 7.25671 19.2306 8.10046 19.2306C8.95203 19.2306 9.67859 18.8355 10.2723 18.0454C10.8739 17.2553 11.1786 16.1886 11.1786 14.8454Z" fill="white"/>
</svg>
