<svg width="16" height="22" viewBox="0 0 16 22" fill="none" xmlns="http://www.w3.org/2000/svg">
<path d="M0.58252 21.018C0.42627 21.018 0.309082 20.9489 0.23877 20.8205C0.164551 20.6773 0.129395 20.5143 0.129395 20.3267C0.137208 20.0106 0.184082 19.823 0.27002 19.7538C0.352051 19.6897 0.512208 19.6551 0.754395 19.6551C1.23096 19.6551 1.58643 19.5464 1.81689 19.3193C2.05518 19.0971 2.19971 18.8255 2.25439 18.5094C2.31689 18.1835 2.35596 17.7538 2.37939 17.2255V4.70199C2.35596 4.16372 2.31689 3.73409 2.25439 3.41804C2.19971 3.10199 2.05518 2.82545 1.81689 2.58841C1.58643 2.35138 1.23096 2.23286 0.754395 2.23286H0.598145C0.430176 2.23286 0.309082 2.20323 0.23877 2.13409C0.17627 2.05508 0.137208 1.87236 0.129395 1.58101C0.129395 1.38348 0.164551 1.22051 0.23877 1.08718C0.309082 0.958785 0.42627 0.889648 0.58252 0.889648C1.66455 0.94397 2.65283 0.968661 3.55127 0.968661H7.84815C9.1294 0.998291 10.1958 1.26002 11.0513 1.75878C11.9146 2.24767 12.5435 2.87977 12.9419 3.65508C13.3481 4.42051 13.5513 5.2452 13.5513 6.12422C13.5513 7.28471 13.1841 8.35138 12.4575 9.32422C11.7388 10.2872 10.7544 10.9785 9.5044 11.3983L9.92627 12.2674C10.6216 13.6897 11.2544 14.9143 11.8169 15.9415C12.3872 16.9687 13.0083 17.9267 13.6763 18.8057C14.145 19.2946 14.645 19.5761 15.1763 19.6551C15.2075 19.6551 15.2778 19.665 15.395 19.6748C15.52 19.6897 15.6177 19.7489 15.6919 19.8526C15.7622 19.9613 15.8013 20.1193 15.8013 20.3267C15.8013 20.5143 15.7622 20.6773 15.6919 20.8205C15.6177 20.9489 15.5044 21.018 15.3481 21.018L14.7075 20.9785C13.9653 20.939 13.4302 20.9193 13.0981 20.9193C12.4302 20.7514 11.856 20.4551 11.3794 20.0304C10.9106 19.5958 10.4419 18.9785 9.97315 18.1736C9.49268 17.3736 8.8208 16.06 7.95752 14.2427L7.5044 13.3341C7.2544 12.8501 7.0083 12.5193 6.77002 12.3464C6.53955 12.1637 6.14502 12.0699 5.58252 12.0699H4.84815V17.2255C4.86768 17.7538 4.90283 18.1835 4.95752 18.5094C5.02002 18.8255 5.16455 19.0971 5.39502 19.3193C5.6333 19.5464 5.99268 19.6551 6.47315 19.6551H6.6294C6.77393 19.6551 6.8833 19.6946 6.95752 19.7736C7.03955 19.8427 7.08643 20.0255 7.09815 20.3267C7.09815 20.5143 7.05908 20.6773 6.98877 20.8205C6.91455 20.9489 6.80127 21.018 6.64502 21.018C5.58252 20.9489 4.53955 20.9193 3.52002 20.9193C2.64502 20.9193 1.66455 20.9489 0.58252 21.018ZM7.05127 10.8452C9.52783 10.8452 10.77 9.3736 10.77 6.42051C10.77 5.21064 10.4458 4.19829 9.80127 3.37854C9.15283 2.56372 8.08643 2.15385 6.59815 2.15385C6.11768 2.15385 5.7544 2.22792 5.5044 2.37113C5.2544 2.51928 5.08252 2.76619 4.98877 3.12175C4.89502 3.4773 4.84815 4.02545 4.84815 4.76125V10.8452H7.05127Z" fill="black"/>
</svg>
