<svg width="36" height="48" viewBox="0 0 36 48" fill="none" xmlns="http://www.w3.org/2000/svg">
<path d="M35.9985 23.3511C35.9985 24.6548 35.936 26.0079 35.811 27.4005H11.0453C11.2094 30.2054 11.9243 32.3536 13.186 33.84C14.4438 35.3165 15.9907 36.0523 17.8266 36.0523C20.5532 36.0523 22.4555 34.6005 23.5297 31.6869H35.1703C34.5766 34.6647 33.4985 37.3363 31.936 39.7066C30.3813 42.077 28.4282 43.9437 26.0766 45.2968C23.7328 46.64 21.1118 47.3116 18.2172 47.3116C14.7172 47.3116 11.6 46.3733 8.87347 44.4869C6.14301 42.5906 4.00629 39.8943 2.46722 36.3881C0.935974 32.8869 0.170349 28.7832 0.170349 24.0819C0.170349 19.3955 0.924255 15.3017 2.43597 11.7955C3.95551 8.27948 6.08051 5.58318 8.81097 3.69676C11.5375 1.81528 14.6743 0.87207 18.2172 0.87207C21.6743 0.87207 24.7485 1.79059 27.436 3.61775C30.1235 5.44985 32.2211 8.06219 33.7328 11.4597C35.2407 14.8573 35.9985 18.8227 35.9985 23.3511ZM24.811 19.7165C24.811 17.3461 24.1703 15.4647 22.8891 14.0671C21.6078 12.6597 20.0063 11.9536 18.0922 11.9536C16.2485 11.9536 14.6938 12.635 13.436 13.9881C12.186 15.3313 11.4086 17.2424 11.1078 19.7165H24.811Z" fill="#008B8B"/>
</svg>
