<svg width="17" height="22" viewBox="0 0 17 22" fill="none" xmlns="http://www.w3.org/2000/svg">
<path d="M8.50928 21.9365C6.92334 21.9365 5.52881 21.4525 4.32178 20.4945C3.11084 19.5365 2.17334 18.2624 1.50928 16.6822C0.853027 15.1019 0.524902 13.413 0.524902 11.6056C0.524902 9.39328 0.919433 7.46736 1.7124 5.81798C2.50147 4.17353 3.51318 2.91427 4.74365 2.04514C5.98193 1.16612 7.23584 0.72168 8.50928 0.72168C10.103 0.72168 11.5093 1.20563 12.728 2.16366C13.9546 3.12662 14.8999 4.39082 15.5562 5.95625C16.2202 7.52662 16.5562 9.21551 16.5562 11.0328C16.5562 13.2451 16.1538 15.1809 15.353 16.8402C14.5483 18.4896 13.5249 19.7538 12.2749 20.6328C11.0249 21.5019 9.76709 21.9365 8.50928 21.9365ZM8.47803 20.5538C9.61084 20.5538 10.5562 20.1291 11.3062 19.2698C12.064 18.4155 12.6343 17.2698 13.0093 15.8328C13.3843 14.3859 13.5718 12.7859 13.5718 11.0328C13.5718 9.41304 13.3765 7.92662 12.9937 6.56859C12.6187 5.20069 12.0444 4.11427 11.2749 3.30933C10.5132 2.49452 9.57959 2.08464 8.47803 2.08464C6.81006 2.08464 5.55615 2.98341 4.7124 4.77106C3.86865 6.54884 3.44678 8.79575 3.44678 11.5069C3.44678 13.1562 3.63428 14.6624 4.00928 16.0303C4.38428 17.4032 4.94678 18.4995 5.69678 19.3291C6.44678 20.1488 7.37256 20.5538 8.47803 20.5538Z" fill="black"/>
</svg>
