<svg width="18" height="21" viewBox="0 0 18 21" fill="none" xmlns="http://www.w3.org/2000/svg">
<path d="M1.44556 20.6324C1.29712 20.6324 1.18384 20.5633 1.10181 20.4349C1.02759 20.2917 0.992432 20.1287 0.992432 19.9411C1.01196 19.625 1.06274 19.4374 1.14868 19.3682C1.23071 19.304 1.38696 19.2695 1.61743 19.2695C2.10571 19.2695 2.46118 19.1608 2.67993 18.9337C2.90649 18.7114 3.04712 18.4497 3.10181 18.1435C3.15259 17.8423 3.18384 17.4077 3.19556 16.8398L3.24243 4.29663C3.24243 3.66453 3.18774 3.18552 3.08618 2.85466C2.98071 2.52873 2.80884 2.29169 2.57056 2.14355C2.34009 2.00034 2.00806 1.87688 1.57056 1.76824C1.28931 1.70404 1.10962 1.63984 1.03931 1.57071C0.976807 1.50651 0.945557 1.32873 0.945557 1.03737C0.945557 0.790458 0.996338 0.622557 1.10181 0.543545C1.21509 0.454657 1.38696 0.405273 1.61743 0.405273C2.65649 0.405273 3.47681 0.499101 4.07056 0.681817C4.67212 0.854656 5.20337 1.17071 5.66431 1.62996C6.12134 2.09416 6.62524 2.7954 7.17993 3.74355L14.0237 15.1213H14.1018L14.0549 4.29663C14.0315 3.71885 13.9963 3.27935 13.9456 2.97317C13.8909 2.67194 13.7502 2.41021 13.5237 2.18305C13.3049 1.96083 12.9534 1.84725 12.4768 1.84725H12.3206C12.1526 1.84725 12.0315 1.81762 11.9612 1.74848C11.887 1.66947 11.8401 1.48676 11.8206 1.1954C11.8206 0.997866 11.8596 0.834903 11.9456 0.70157C12.0276 0.573175 12.137 0.504039 12.2737 0.504039C13.3362 0.55836 14.137 0.583051 14.6799 0.583051C14.9924 0.583051 15.594 0.563298 16.4924 0.523792L17.0237 0.504039C17.1682 0.504039 17.2776 0.573175 17.3518 0.70157C17.4338 0.834903 17.4768 0.997866 17.4768 1.1954C17.4534 1.51145 17.4026 1.70404 17.3206 1.76824C17.2346 1.82256 17.0784 1.84725 16.8518 1.84725C16.3596 1.84725 16.0002 1.96083 15.7737 2.18305C15.5549 2.41021 15.4182 2.67194 15.3674 2.97317C15.3245 3.27935 15.2932 3.71885 15.2737 4.29663L15.2268 20.2176C15.2034 20.4942 14.9963 20.6324 14.6018 20.6324C14.2776 20.6324 14.0315 20.4942 13.8674 20.2176L4.44556 4.29663H4.36743L4.42993 16.8398C4.43774 17.4077 4.46899 17.8423 4.52368 18.1435C4.57446 18.4497 4.71118 18.7114 4.92993 18.9337C5.15649 19.1608 5.51196 19.2695 5.99243 19.2695H6.14868C6.31274 19.2695 6.43384 19.309 6.50806 19.388C6.57837 19.4571 6.62524 19.6398 6.64868 19.9411C6.64868 20.1287 6.60962 20.2917 6.53931 20.4349C6.46509 20.5633 6.35181 20.6324 6.19556 20.6324C5.13306 20.5633 4.32446 20.5337 3.77368 20.5337C3.43774 20.5337 2.85571 20.5534 2.02368 20.5929L1.44556 20.6324Z" fill="black"/>
</svg>
