<svg width="8" height="21" viewBox="0 0 8 21" fill="none" xmlns="http://www.w3.org/2000/svg">
<path d="M0.474487 20.4028C0.326049 20.4028 0.212768 20.3337 0.130737 20.2053C0.0565183 20.0621 0.0213623 19.8991 0.0213623 19.7115C0.0408933 19.3954 0.0916753 19.2078 0.177612 19.1386C0.271362 19.0744 0.427612 19.0398 0.646362 19.0398C1.13464 19.0398 1.49402 18.9312 1.72449 18.704C1.95105 18.4818 2.09949 18.2102 2.16199 17.8942C2.2323 17.5781 2.27918 17.1534 2.30261 16.6102V4.06701C2.27918 3.51392 2.2323 3.07935 2.16199 2.7633C2.09949 2.44725 1.95105 2.18059 1.72449 1.95343C1.49402 1.7312 1.13464 1.61762 0.646362 1.61762H0.505737C0.349487 1.61762 0.232299 1.58799 0.161987 1.51886C0.0877683 1.43985 0.0408933 1.25713 0.0213623 0.965772C0.0213623 0.768241 0.0565183 0.605279 0.130737 0.471945C0.212768 0.343551 0.326049 0.274414 0.474487 0.274414C1.55652 0.328735 2.5448 0.353426 3.44324 0.353426C4.44324 0.353426 5.4823 0.328735 6.56824 0.274414C6.72449 0.274414 6.83777 0.343551 6.91199 0.471945C6.9823 0.605279 7.02136 0.768241 7.02136 0.965772C7.00964 1.28182 6.95886 1.47441 6.86511 1.53861C6.77136 1.59293 6.6073 1.61762 6.38074 1.61762C5.88855 1.61762 5.52527 1.7312 5.28699 1.95343C5.05652 2.18059 4.91199 2.45713 4.84949 2.78306C4.7948 3.11392 4.76355 3.54355 4.75574 4.06701V16.6102C4.76355 17.1386 4.7948 17.5682 4.84949 17.8942C4.91199 18.2102 5.05652 18.4818 5.28699 18.704C5.52527 18.9312 5.88855 19.0398 6.38074 19.0398H6.52136C6.68543 19.0398 6.80652 19.0794 6.88074 19.1584C6.96277 19.2275 7.00964 19.4102 7.02136 19.7115C7.02136 19.8991 6.9823 20.0621 6.91199 20.2053C6.83777 20.3337 6.72449 20.4028 6.56824 20.4028C5.50574 20.3337 4.47449 20.304 3.47449 20.304C2.55652 20.304 1.55652 20.3337 0.474487 20.4028Z" fill="black"/>
</svg>
