<svg width="10" height="12" viewBox="0 0 10 12" fill="none" xmlns="http://www.w3.org/2000/svg">
<path d="M5.03735 11.5946C4.16235 11.5946 3.37329 11.3675 2.67798 10.9033C1.99048 10.4292 1.44751 9.75758 1.05298 8.88844C0.654542 8.00943 0.459229 6.98721 0.459229 5.82672C0.459229 4.67116 0.654542 3.65388 1.05298 2.78474C1.45923 1.90573 2.01001 1.22425 2.70923 0.750174C3.40454 0.2761 4.1936 0.0390625 5.0686 0.0390625C5.9436 0.0390625 6.72876 0.2761 7.42798 0.750174C8.12329 1.22425 8.67798 1.90573 9.08423 2.78474C9.49048 3.65388 9.6936 4.67116 9.6936 5.82672C9.6936 6.9724 9.48267 7.98968 9.0686 8.86869C8.66235 9.75264 8.10376 10.4292 7.39673 10.9033C6.69751 11.3675 5.91235 11.5946 5.03735 11.5946ZM5.03735 8.6119C5.55688 8.6119 5.99829 8.37486 6.36548 7.90079C6.72876 7.41684 6.91235 6.72548 6.91235 5.82672C6.91235 4.91807 6.73267 4.22672 6.3811 3.75264C6.02563 3.26869 5.58813 3.02178 5.0686 3.02178C4.53735 3.02178 4.09204 3.25882 3.74048 3.73289C3.39673 4.20696 3.22485 4.9082 3.22485 5.82672C3.22485 6.72548 3.39673 7.41684 3.74048 7.90079C4.08423 8.37486 4.51392 8.6119 5.03735 8.6119Z" fill="white"/>
</svg>
