<svg width="16" height="21" viewBox="0 0 16 21" fill="none" xmlns="http://www.w3.org/2000/svg">
<path d="M0.507935 20.6323C0.351685 20.6323 0.234497 20.5632 0.164185 20.4348C0.0899656 20.2916 0.0548096 20.1286 0.0548096 19.9409C0.0626226 19.6249 0.109497 19.4372 0.195435 19.3681C0.277466 19.3039 0.437623 19.2693 0.67981 19.2693C1.15637 19.2693 1.51184 19.1607 1.74231 18.9335C1.98059 18.7113 2.12512 18.4397 2.17981 18.1237C2.24231 17.7977 2.28137 17.3681 2.30481 16.8397V4.31625C2.28137 3.77798 2.24231 3.34835 2.17981 3.0323C2.12512 2.71625 1.98059 2.43971 1.74231 2.20267C1.51184 1.96563 1.15637 1.84712 0.67981 1.84712H0.52356C0.355591 1.84712 0.234497 1.81749 0.164185 1.74835C0.101685 1.66934 0.0626226 1.48662 0.0548096 1.19526C0.0548096 0.997733 0.0899656 0.834771 0.164185 0.701437C0.234497 0.573043 0.351685 0.503906 0.507935 0.503906C1.58997 0.558228 2.57825 0.582919 3.47668 0.582919H7.77356C9.05481 0.612549 10.1212 0.874277 10.9767 1.37304C11.84 1.86193 12.4689 2.49403 12.8673 3.26934C13.2736 4.03477 13.4767 4.85946 13.4767 5.73847C13.4767 6.89897 13.1095 7.96564 12.3829 8.93848C11.6642 9.90144 10.6798 10.5928 9.42981 11.0125L9.85168 11.8817C10.547 13.3039 11.1798 14.5286 11.7423 15.5558C12.3126 16.5829 12.9337 17.5409 13.6017 18.42C14.0704 18.9088 14.5704 19.1903 15.1017 19.2693C15.1329 19.2693 15.2032 19.2792 15.3204 19.2891C15.4454 19.3039 15.5431 19.3632 15.6173 19.4669C15.6876 19.5755 15.7267 19.7335 15.7267 19.9409C15.7267 20.1286 15.6876 20.2916 15.6173 20.4348C15.5431 20.5632 15.4298 20.6323 15.2736 20.6323L14.6329 20.5928C13.8907 20.5533 13.3556 20.5335 13.0236 20.5335C12.3556 20.3656 11.7814 20.0693 11.3048 19.6446C10.8361 19.2101 10.3673 18.5928 9.89856 17.7879C9.41809 16.9879 8.74622 15.6743 7.88293 13.857L7.42981 12.9484C7.17981 12.4644 6.93372 12.1335 6.69543 11.9607C6.46497 11.778 6.07043 11.6842 5.50793 11.6842H4.77356V16.8397C4.79309 17.3681 4.82825 17.7977 4.88293 18.1237C4.94543 18.4397 5.08997 18.7113 5.32043 18.9335C5.55872 19.1607 5.91809 19.2693 6.39856 19.2693H6.55481C6.69934 19.2693 6.80872 19.3088 6.88293 19.3879C6.96497 19.457 7.01184 19.6397 7.02356 19.9409C7.02356 20.1286 6.9845 20.2916 6.91418 20.4348C6.83997 20.5632 6.72668 20.6323 6.57043 20.6323C5.50793 20.5632 4.46497 20.5335 3.44543 20.5335C2.57043 20.5335 1.58997 20.5632 0.507935 20.6323ZM6.97668 10.4595C9.45325 10.4595 10.6954 8.98786 10.6954 6.03477C10.6954 4.82489 10.3712 3.81255 9.72668 2.9928C9.07825 2.17798 8.01184 1.7681 6.52356 1.7681C6.04309 1.7681 5.67981 1.84218 5.42981 1.98539C5.17981 2.13354 5.00793 2.38045 4.91418 2.73601C4.82043 3.09156 4.77356 3.63971 4.77356 4.37551V10.4595H6.97668Z" fill="black"/>
</svg>
