<svg width="14" height="22" viewBox="0 0 14 22" fill="none" xmlns="http://www.w3.org/2000/svg">
<path d="M0.764893 21.018C0.628174 21.018 0.522705 20.9489 0.452393 20.8205C0.378174 20.6773 0.343018 20.5143 0.343018 20.3267C0.350831 20.0106 0.397705 19.823 0.483643 19.7538C0.565674 19.6897 0.725831 19.6551 0.968018 19.6551C1.44458 19.6551 1.80005 19.5464 2.03052 19.3193C2.2688 19.0971 2.41333 18.8255 2.46802 18.5094C2.53052 18.1835 2.56958 17.7538 2.59302 17.2255V4.68224C2.56958 4.15879 2.53052 3.72916 2.46802 3.39829C2.41333 3.07236 2.2688 2.79582 2.03052 2.56866C1.80005 2.34644 1.44458 2.23286 0.968018 2.23286H0.811768C0.643799 2.23286 0.522705 2.20323 0.452393 2.13409C0.389893 2.05508 0.350831 1.87236 0.343018 1.58101C0.343018 1.38348 0.378174 1.22051 0.452393 1.08718C0.522705 0.958785 0.628174 0.889648 0.764893 0.889648C1.86645 0.94397 2.85864 0.968661 3.73364 0.968661C4.73364 0.968661 5.77271 0.94397 6.85864 0.889648C7.01489 0.889648 7.12817 0.958785 7.20239 1.08718C7.27271 1.22051 7.31177 1.38348 7.31177 1.58101C7.30005 1.89706 7.24927 2.08965 7.15552 2.15385C7.06177 2.20817 6.90552 2.23286 6.68677 2.23286C6.2063 2.23286 5.84692 2.34644 5.60864 2.56866C5.37817 2.79582 5.23364 3.07236 5.17114 3.39829C5.11646 3.72916 5.0813 4.15879 5.06177 4.68224V17.6995C5.09302 18.1341 5.13208 18.4798 5.18677 18.7267C5.23755 18.9637 5.38989 19.1909 5.63989 19.3983C5.88989 19.5958 6.28052 19.6847 6.81177 19.6551H9.06177C9.6438 19.6304 10.0852 19.5119 10.3899 19.2995C10.6907 19.0773 10.925 18.7366 11.093 18.2724C11.2688 17.7983 11.4836 17.0378 11.7336 15.981C11.8586 15.6156 12.1438 15.4674 12.593 15.5464C12.7375 15.5859 12.8782 15.6748 13.0149 15.8032C13.1477 15.9217 13.2063 16.0798 13.1868 16.2773L12.6868 20.2477C12.6321 20.5242 12.554 20.7119 12.4524 20.8008C12.3586 20.8798 12.1946 20.9193 11.968 20.9193H3.76489C2.86645 20.9193 1.86645 20.9489 0.764893 21.018Z" fill="black"/>
</svg>
