<svg width="18" height="22" viewBox="0 0 18 22" fill="none" xmlns="http://www.w3.org/2000/svg">
<path d="M1.13 21.0182C0.973755 21.0182 0.860474 20.949 0.786255 20.8206C0.715943 20.6774 0.67688 20.5145 0.67688 20.3268C0.688599 20.0108 0.735474 19.8231 0.817505 19.754C0.903442 19.6898 0.997192 19.6552 1.11438 19.6552C1.23938 19.6552 1.3175 19.6552 1.34875 19.6552C1.84875 19.6552 2.21204 19.4923 2.4425 19.1614C2.68079 18.8355 2.86829 18.4651 3.005 18.0552C3.14954 17.6503 3.24719 17.3737 3.30188 17.2256L7.67688 4.12929C7.77063 3.81324 7.8175 3.56632 7.8175 3.37867C7.8175 2.99842 7.70032 2.72682 7.47375 2.56879C7.24329 2.40089 6.91907 2.26262 6.505 2.15398C6.21204 2.08978 6.03625 2.02558 5.97375 1.95645C5.91125 1.89225 5.88 1.71447 5.88 1.42311C5.88 1.1762 5.93079 1.0083 6.03625 0.929287C6.13782 0.840399 6.30969 0.791016 6.55188 0.791016C7.38391 0.791016 8.04407 0.870028 8.53625 1.02805C9.02454 1.18608 9.45032 1.50213 9.8175 1.9762C10.1925 2.45027 10.5363 3.17126 10.8488 4.12929L15.0519 17.2256C15.3019 18.0305 15.5402 18.6281 15.7706 19.0231C16.0089 19.4182 16.3566 19.6305 16.8175 19.6552H16.9738C17.1378 19.6552 17.255 19.6947 17.3175 19.7737C17.3878 19.8429 17.4308 20.0256 17.4425 20.3268C17.4425 20.5145 17.4034 20.6774 17.3331 20.8206C17.2589 20.949 17.1495 21.0182 17.005 21.0182C15.9308 20.949 15.0128 20.9194 14.255 20.9194C13.255 20.9194 12.2159 20.949 11.1456 21.0182C10.9972 21.0182 10.8839 20.949 10.8019 20.8206C10.7277 20.6774 10.6925 20.5145 10.6925 20.3268C10.712 20.0256 10.755 19.8429 10.8175 19.7737C10.8878 19.6947 11.0089 19.6552 11.1769 19.6552C11.7394 19.6552 12.1339 19.591 12.3644 19.4577C12.6027 19.3145 12.7238 19.0626 12.7238 18.7071C12.7238 18.4305 12.6222 17.9367 12.4269 17.2256L11.5675 14.5984H5.39563C4.97766 15.9021 4.73938 16.6626 4.67688 16.87C4.62219 17.0824 4.59875 17.2009 4.59875 17.2256C4.39954 18.0305 4.30188 18.5441 4.30188 18.7663C4.30188 19.1219 4.42688 19.3589 4.67688 19.4774C4.92688 19.596 5.39954 19.6552 6.09875 19.6552H6.255C6.41907 19.6552 6.53625 19.6947 6.59875 19.7737C6.66125 19.8429 6.70032 20.0256 6.72375 20.3268C6.72375 20.5145 6.68469 20.6774 6.61438 20.8206C6.54016 20.949 6.42688 21.0182 6.27063 21.0182C5.20813 20.949 4.30188 20.9194 3.55188 20.9194C3.02063 20.9194 2.21204 20.949 1.13 21.0182ZM5.88 13.2355H11.13L8.59875 5.11694H8.52063L5.88 13.2355Z" fill="black"/>
</svg>
