<svg width="8" height="22" viewBox="0 0 8 22" fill="none" xmlns="http://www.w3.org/2000/svg">
<path d="M0.908936 21.018C0.760498 21.018 0.647217 20.9489 0.565186 20.8205C0.490967 20.6773 0.455811 20.5143 0.455811 20.3267C0.475342 20.0106 0.526124 19.823 0.612061 19.7538C0.705811 19.6897 0.862061 19.6551 1.08081 19.6551C1.56909 19.6551 1.92847 19.5464 2.15894 19.3193C2.3855 19.0971 2.53394 18.8255 2.59644 18.5094C2.66675 18.1934 2.71362 17.7687 2.73706 17.2255V4.68224C2.71362 4.12916 2.66675 3.69459 2.59644 3.37854C2.53394 3.06249 2.3855 2.79582 2.15894 2.56866C1.92847 2.34644 1.56909 2.23286 1.08081 2.23286H0.940186C0.783936 2.23286 0.666748 2.20323 0.596436 2.13409C0.522217 2.05508 0.475342 1.87236 0.455811 1.58101C0.455811 1.38348 0.490967 1.22051 0.565186 1.08718C0.647217 0.958785 0.760498 0.889648 0.908936 0.889648C1.99097 0.94397 2.97925 0.968661 3.87769 0.968661C4.87769 0.968661 5.91675 0.94397 7.00269 0.889648C7.15894 0.889648 7.27222 0.958785 7.34644 1.08718C7.41675 1.22051 7.45581 1.38348 7.45581 1.58101C7.44409 1.89706 7.39331 2.08965 7.29956 2.15385C7.20581 2.20817 7.04175 2.23286 6.81519 2.23286C6.323 2.23286 5.95972 2.34644 5.72144 2.56866C5.49097 2.79582 5.34644 3.07236 5.28394 3.39829C5.22925 3.72916 5.198 4.15879 5.19019 4.68224V17.2255C5.198 17.7538 5.22925 18.1835 5.28394 18.5094C5.34644 18.8255 5.49097 19.0971 5.72144 19.3193C5.95972 19.5464 6.323 19.6551 6.81519 19.6551H6.95581C7.11987 19.6551 7.24097 19.6946 7.31519 19.7736C7.39722 19.8427 7.44409 20.0255 7.45581 20.3267C7.45581 20.5143 7.41675 20.6773 7.34644 20.8205C7.27222 20.9489 7.15894 21.018 7.00269 21.018C5.94019 20.9489 4.90894 20.9193 3.90894 20.9193C2.99097 20.9193 1.99097 20.9489 0.908936 21.018Z" fill="black"/>
</svg>
