<svg width="16" height="22" viewBox="0 0 16 22" fill="none" xmlns="http://www.w3.org/2000/svg">
<path d="M8.10828 21.5508C6.65906 21.5508 5.34656 21.1656 4.17078 20.4051C3.00281 19.6298 2.07703 18.4594 1.38953 16.889C0.702026 15.3236 0.358276 13.3878 0.358276 11.0816C0.358276 8.9631 0.725464 7.09149 1.46765 5.47174C2.21765 3.84211 3.2489 2.57791 4.5614 1.67915C5.88171 0.785321 7.39343 0.335938 9.09265 0.335938C9.92468 0.335938 10.7489 0.493962 11.5614 0.810012C12.3817 1.12606 13.0614 1.62977 13.5927 2.31125C14.1239 2.98285 14.3895 3.81248 14.3895 4.80014C14.3895 5.72359 14.1708 6.52853 13.7333 7.21001C13.3036 7.88162 12.7333 8.21742 12.0145 8.21742C11.6591 8.21742 11.3192 8.11372 10.9989 7.90137C10.6747 7.69396 10.5028 7.41742 10.4833 7.07174C10.4833 7.06186 10.5966 6.94828 10.827 6.73594C11.0536 6.52853 11.2645 6.24211 11.452 5.88656C11.6395 5.52112 11.7333 5.08655 11.7333 4.58285C11.7333 3.70384 11.4559 2.98285 10.9052 2.42976C10.3622 1.87668 9.65906 1.60014 8.79578 1.60014C7.75281 1.60014 6.81531 1.97051 5.98328 2.70631C5.14734 3.43223 4.49109 4.4989 4.01453 5.90631C3.53406 7.30384 3.29578 8.96804 3.29578 10.9038C3.29578 12.7754 3.53015 14.3952 3.9989 15.7631C4.47546 17.1359 5.14343 18.1878 5.9989 18.9236C6.86218 19.6495 7.85828 20.01 8.98328 20.01C9.52234 20.01 9.99109 19.9705 10.3895 19.8915C10.7841 19.8125 11.2177 19.6841 11.6864 19.4964V16.2767C11.6864 15.5409 11.663 15.0273 11.6239 14.7359C11.5809 14.4347 11.4442 14.2125 11.2177 14.0643C10.9989 13.9211 10.6239 13.847 10.0927 13.847C9.90515 13.847 9.76843 13.8075 9.6864 13.7285C9.60046 13.6495 9.55359 13.4668 9.54578 13.1754C9.54578 12.9927 9.58484 12.8347 9.67078 12.7014C9.76453 12.5582 9.89343 12.4841 10.0614 12.4841C11.1122 12.5532 12.0302 12.5829 12.8114 12.5829C13.5614 12.5829 14.4598 12.5532 15.5145 12.4841C15.6591 12.4841 15.7723 12.5582 15.8583 12.7014C15.9403 12.8347 15.9833 12.9927 15.9833 13.1754C15.9716 13.4668 15.9247 13.6495 15.8427 13.7285C15.7567 13.8075 15.6239 13.847 15.4364 13.847C14.9364 13.847 14.577 13.9359 14.3583 14.1038C14.1473 14.2619 14.0184 14.4989 13.9677 14.815C13.913 15.1211 13.8895 15.6051 13.8895 16.2767V20.01C12.9091 20.5927 12.0067 20.9878 11.1864 21.215C10.3739 21.4372 9.34656 21.5508 8.10828 21.5508Z" fill="black"/>
</svg>
