<svg width="11" height="12" viewBox="0 0 11 12" fill="none" xmlns="http://www.w3.org/2000/svg">
<path d="M5.53015 11.5946C4.65515 11.5946 3.86609 11.3675 3.17078 10.9033C2.48328 10.4292 1.94031 9.75758 1.54578 8.88844C1.14734 8.00943 0.952026 6.98721 0.952026 5.82672C0.952026 4.67116 1.14734 3.65388 1.54578 2.78474C1.95203 1.90573 2.50281 1.22425 3.20203 0.750174C3.89734 0.2761 4.6864 0.0390625 5.5614 0.0390625C6.4364 0.0390625 7.22156 0.2761 7.92078 0.750174C8.61609 1.22425 9.17078 1.90573 9.57703 2.78474C9.98328 3.65388 10.1864 4.67116 10.1864 5.82672C10.1864 6.9724 9.97546 7.98968 9.5614 8.86869C9.15515 9.75264 8.59656 10.4292 7.88953 10.9033C7.19031 11.3675 6.40515 11.5946 5.53015 11.5946ZM5.53015 8.6119C6.04968 8.6119 6.49109 8.37486 6.85828 7.90079C7.22156 7.41684 7.40515 6.72548 7.40515 5.82672C7.40515 4.91807 7.22546 4.22672 6.8739 3.75264C6.51843 3.26869 6.08093 3.02178 5.5614 3.02178C5.03015 3.02178 4.58484 3.25882 4.23328 3.73289C3.88953 4.20696 3.71765 4.9082 3.71765 5.82672C3.71765 6.72548 3.88953 7.41684 4.23328 7.90079C4.57703 8.37486 5.00671 8.6119 5.53015 8.6119Z" fill="white"/>
</svg>
