<svg width="8" height="22" viewBox="0 0 8 22" fill="none" xmlns="http://www.w3.org/2000/svg">
<path d="M1.37891 21.018C1.23047 21.018 1.11719 20.9489 1.03516 20.8205C0.960937 20.6773 0.925781 20.5143 0.925781 20.3267C0.945312 20.0106 0.996094 19.823 1.08203 19.7538C1.17578 19.6897 1.33203 19.6551 1.55078 19.6551C2.03906 19.6551 2.39844 19.5464 2.62891 19.3193C2.85547 19.0971 3.00391 18.8255 3.06641 18.5094C3.13672 18.1934 3.18359 17.7687 3.20703 17.2255V4.68224C3.18359 4.12916 3.13672 3.69459 3.06641 3.37854C3.00391 3.06249 2.85547 2.79582 2.62891 2.56866C2.39844 2.34644 2.03906 2.23286 1.55078 2.23286H1.41016C1.25391 2.23286 1.13672 2.20323 1.06641 2.13409C0.992187 2.05508 0.945312 1.87236 0.925781 1.58101C0.925781 1.38348 0.960937 1.22051 1.03516 1.08718C1.11719 0.958785 1.23047 0.889648 1.37891 0.889648C2.46094 0.94397 3.44922 0.968661 4.34766 0.968661C5.34766 0.968661 6.38672 0.94397 7.47266 0.889648C7.62891 0.889648 7.74219 0.958785 7.81641 1.08718C7.88672 1.22051 7.92578 1.38348 7.92578 1.58101C7.91406 1.89706 7.86328 2.08965 7.76953 2.15385C7.67578 2.20817 7.51172 2.23286 7.28516 2.23286C6.79297 2.23286 6.42969 2.34644 6.19141 2.56866C5.96094 2.79582 5.81641 3.07236 5.75391 3.39829C5.69922 3.72916 5.66797 4.15879 5.66016 4.68224V17.2255C5.66797 17.7538 5.69922 18.1835 5.75391 18.5094C5.81641 18.8255 5.96094 19.0971 6.19141 19.3193C6.42969 19.5464 6.79297 19.6551 7.28516 19.6551H7.42578C7.58985 19.6551 7.71094 19.6946 7.78516 19.7736C7.86719 19.8427 7.91406 20.0255 7.92578 20.3267C7.92578 20.5143 7.88672 20.6773 7.81641 20.8205C7.74219 20.9489 7.62891 21.018 7.47266 21.018C6.41016 20.9489 5.37891 20.9193 4.37891 20.9193C3.46094 20.9193 2.46094 20.9489 1.37891 21.018Z" fill="black"/>
</svg>
