<svg width="10" height="12" viewBox="0 0 10 12" fill="none" xmlns="http://www.w3.org/2000/svg">
<path d="M0.174194 5.80696C0.174194 4.65141 0.346069 3.63412 0.689819 2.76499C1.03357 1.89585 1.50232 1.22425 2.09607 0.750174C2.68982 0.2761 3.34998 0.0390625 4.08044 0.0390625C4.70544 0.0390625 5.25232 0.206964 5.72107 0.53289C6.19763 0.848939 6.56482 1.27363 6.81482 1.79709V0.197087H9.54919V11.4366H6.81482V9.83659C6.5531 10.365 6.18201 10.7946 5.70544 11.1205C5.23669 11.4366 4.68982 11.5946 4.06482 11.5946C3.34607 11.5946 2.68982 11.3576 2.09607 10.8835C1.50232 10.4094 1.03357 9.73289 0.689819 8.84894C0.346069 7.96993 0.174194 6.95264 0.174194 5.80696ZM6.81482 5.82672C6.81482 4.95758 6.62732 4.28104 6.25232 3.79215C5.87732 3.29338 5.41638 3.04153 4.87732 3.04153C4.33435 3.04153 3.87732 3.28845 3.50232 3.7724C3.12732 4.26128 2.93982 4.93783 2.93982 5.80696C2.93982 6.66622 3.12732 7.34277 3.50232 7.84153C3.87732 8.34524 4.33435 8.59215 4.87732 8.59215C5.41638 8.59215 5.87732 8.35017 6.25232 7.86128C6.62732 7.36252 6.81482 6.68598 6.81482 5.82672Z" fill="white"/>
</svg>
