<svg width="17" height="22" viewBox="0 0 17 22" fill="none" xmlns="http://www.w3.org/2000/svg">
<path d="M8.22925 21.9365C6.64331 21.9365 5.24878 21.4525 4.04175 20.4945C2.83081 19.5365 1.89331 18.2624 1.22925 16.6822C0.572998 15.1019 0.244873 13.413 0.244873 11.6056C0.244873 9.39328 0.639404 7.46736 1.43237 5.81798C2.22144 4.17353 3.23315 2.91427 4.46362 2.04514C5.7019 1.16612 6.95581 0.72168 8.22925 0.72168C9.823 0.72168 11.2292 1.20563 12.448 2.16366C13.6746 3.12662 14.6199 4.39082 15.2761 5.95625C15.9402 7.52662 16.2761 9.21551 16.2761 11.0328C16.2761 13.2451 15.8738 15.1809 15.073 16.8402C14.2683 18.4896 13.2449 19.7538 11.9949 20.6328C10.7449 21.5019 9.48706 21.9365 8.22925 21.9365ZM8.198 20.5538C9.33081 20.5538 10.2761 20.1291 11.0261 19.2698C11.7839 18.4155 12.3542 17.2698 12.7292 15.8328C13.1042 14.3859 13.2917 12.7859 13.2917 11.0328C13.2917 9.41304 13.0964 7.92662 12.7136 6.56859C12.3386 5.20069 11.7644 4.11427 10.9949 3.30933C10.2332 2.49452 9.29956 2.08464 8.198 2.08464C6.53003 2.08464 5.27612 2.98341 4.43237 4.77106C3.58862 6.54884 3.16675 8.79575 3.16675 11.5069C3.16675 13.1562 3.35425 14.6624 3.72925 16.0303C4.10425 17.4032 4.66675 18.4995 5.41675 19.3291C6.16675 20.1488 7.09253 20.5538 8.198 20.5538Z" fill="black"/>
</svg>
