<svg width="15" height="21" viewBox="0 0 15 21" fill="none" xmlns="http://www.w3.org/2000/svg">
<path d="M4.31055 20.6324C4.16211 20.6324 4.05274 20.5633 3.98242 20.4349C3.9082 20.2917 3.87305 20.1287 3.87305 19.941C3.88086 19.625 3.92774 19.4373 4.01367 19.3682C4.0957 19.304 4.25586 19.2694 4.49805 19.2694C4.97461 19.2694 5.33008 19.1608 5.56055 18.9336C5.79883 18.7114 5.94336 18.4398 5.99805 18.1237C6.06055 17.7978 6.09961 17.3682 6.12305 16.8398V1.76819H4.38867C3.82617 1.78301 3.38867 1.93609 3.07617 2.22251C2.77149 2.49906 2.53711 2.92375 2.37305 3.48671C2.2168 4.0398 2.08008 4.8398 1.9668 5.87684C1.94336 6.03486 1.8418 6.16819 1.6543 6.2719C1.47461 6.38054 1.28711 6.42992 1.0918 6.42992C0.943359 6.42992 0.810547 6.38054 0.685547 6.2719C0.560547 6.15338 0.498047 5.99535 0.498047 5.79782L0.560547 1.35338C0.560547 0.839798 0.787109 0.583008 1.24805 0.583008H13.4668C13.9043 0.583008 14.123 0.839798 14.123 1.35338L14.2168 5.79782C14.2168 5.99535 14.1465 6.15338 14.0137 6.2719C13.877 6.38054 13.7363 6.42992 13.5918 6.42992C13.3926 6.42992 13.2051 6.38054 13.0293 6.2719C12.8496 6.16819 12.7559 6.03486 12.748 5.87684C12.6113 4.82498 12.4668 4.02005 12.3105 3.46696C12.1621 2.91387 11.9277 2.49906 11.6074 2.22251C11.2949 1.93609 10.8574 1.78301 10.2949 1.76819H8.5918V16.8398C8.61133 17.3682 8.64649 17.7978 8.70117 18.1237C8.76367 18.4398 8.9082 18.7114 9.13867 18.9336C9.37695 19.1608 9.73633 19.2694 10.2168 19.2694H10.373C10.5176 19.2694 10.627 19.3089 10.7012 19.3879C10.7715 19.4571 10.8184 19.6398 10.8418 19.941C10.8418 20.1287 10.8027 20.2917 10.7324 20.4349C10.6582 20.5633 10.5449 20.6324 10.3887 20.6324C9.32617 20.5633 8.3418 20.5336 7.43555 20.5336C6.43555 20.5336 5.39258 20.5633 4.31055 20.6324Z" fill="black"/>
</svg>
