<svg width="17" height="23" viewBox="0 0 17 23" fill="none" xmlns="http://www.w3.org/2000/svg">
<path d="M8.09668 22.166C6.51074 22.166 5.11621 21.682 3.90918 20.724C2.69824 19.766 1.76074 18.4919 1.09668 16.9117C0.44043 15.3314 0.112305 13.6425 0.112305 11.8351C0.112305 9.62278 0.506836 7.69685 1.2998 6.04747C2.08887 4.40302 3.10059 3.14376 4.33105 2.27463C5.56934 1.39562 6.82324 0.951172 8.09668 0.951172C9.69043 0.951172 11.0967 1.43512 12.3154 2.39315C13.542 3.35611 14.4873 4.62031 15.1436 6.18574C15.8076 7.75611 16.1436 9.445 16.1436 11.2623C16.1436 13.4746 15.7412 15.4104 14.9404 17.0697C14.1357 18.7191 13.1123 19.9833 11.8623 20.8623C10.6123 21.7314 9.35449 22.166 8.09668 22.166ZM8.06543 20.7833C9.19824 20.7833 10.1436 20.3586 10.8936 19.4993C11.6514 18.645 12.2217 17.4993 12.5967 16.0623C12.9717 14.6154 13.1592 13.0154 13.1592 11.2623C13.1592 9.64253 12.9639 8.15611 12.5811 6.79809C12.2061 5.43018 11.6318 4.34377 10.8623 3.53883C10.1006 2.72401 9.16699 2.31413 8.06543 2.31413C6.39746 2.31413 5.14355 3.2129 4.2998 5.00055C3.45605 6.77833 3.03418 9.02525 3.03418 11.7364C3.03418 13.3857 3.22168 14.8919 3.59668 16.2598C3.97168 17.6327 4.53418 18.729 5.28418 19.5586C6.03418 20.3783 6.95996 20.7833 8.06543 20.7833Z" fill="black"/>
</svg>
