<svg width="17" height="22" viewBox="0 0 17 22" fill="none" xmlns="http://www.w3.org/2000/svg">
<path d="M0.843018 21.0182C0.694581 21.0182 0.581299 20.949 0.499268 20.8206C0.425049 20.6774 0.389893 20.5145 0.389893 20.3268C0.409424 20.0108 0.460205 19.8231 0.546143 19.754C0.628174 19.6898 0.784424 19.6552 1.01489 19.6552C1.50317 19.6552 1.85864 19.5466 2.07739 19.3194C2.30395 19.0972 2.44458 18.8355 2.49927 18.5293C2.55005 18.2281 2.5813 17.7935 2.59302 17.2256L2.63989 4.68237C2.63989 4.05028 2.5852 3.57126 2.48364 3.2404C2.37817 2.91447 2.2063 2.67743 1.96802 2.52929C1.73755 2.38608 1.40552 2.26262 0.968018 2.15398C0.686768 2.08978 0.507081 2.02558 0.436768 1.95645C0.374268 1.89225 0.343018 1.71447 0.343018 1.42311C0.343018 1.1762 0.393799 1.0083 0.499268 0.929287C0.612549 0.840399 0.784424 0.791016 1.01489 0.791016C2.05395 0.791016 2.87427 0.884843 3.46802 1.06756C4.06958 1.2404 4.60083 1.55645 5.06177 2.01571C5.5188 2.4799 6.0227 3.18114 6.57739 4.12929L13.4211 15.5071H13.4993L13.4524 4.68237C13.429 4.1046 13.3938 3.66509 13.343 3.35892C13.2883 3.05768 13.1477 2.79595 12.9211 2.56879C12.7024 2.34657 12.3508 2.23299 11.8743 2.23299H11.718C11.55 2.23299 11.429 2.20336 11.3586 2.13423C11.2844 2.05521 11.2375 1.8725 11.218 1.58114C11.218 1.38361 11.2571 1.22065 11.343 1.08731C11.425 0.958917 11.5344 0.889781 11.6711 0.889781C12.7336 0.944102 13.5344 0.968793 14.0774 0.968793C14.3899 0.968793 14.9915 0.94904 15.8899 0.909534L16.4211 0.889781C16.5657 0.889781 16.675 0.958917 16.7493 1.08731C16.8313 1.22065 16.8743 1.38361 16.8743 1.58114C16.8508 1.89719 16.8 2.08978 16.718 2.15398C16.6321 2.2083 16.4758 2.23299 16.2493 2.23299C15.7571 2.23299 15.3977 2.34657 15.1711 2.56879C14.9524 2.79595 14.8157 3.05768 14.7649 3.35892C14.7219 3.66509 14.6907 4.1046 14.6711 4.68237L14.6243 20.6034C14.6008 20.8799 14.3938 21.0182 13.9993 21.0182C13.675 21.0182 13.429 20.8799 13.2649 20.6034L3.84302 4.68237H3.76489L3.82739 17.2256C3.8352 17.7935 3.86645 18.2281 3.92114 18.5293C3.97192 18.8355 4.10864 19.0972 4.32739 19.3194C4.55395 19.5466 4.90942 19.6552 5.38989 19.6552H5.54614C5.7102 19.6552 5.8313 19.6947 5.90552 19.7737C5.97583 19.8429 6.0227 20.0256 6.04614 20.3268C6.04614 20.5145 6.00708 20.6774 5.93677 20.8206C5.86255 20.949 5.74927 21.0182 5.59302 21.0182C4.53052 20.949 3.72192 20.9194 3.17114 20.9194C2.8352 20.9194 2.25317 20.9392 1.42114 20.9787L0.843018 21.0182Z" fill="black"/>
</svg>
