<svg width="15" height="21" viewBox="0 0 15 21" fill="none" xmlns="http://www.w3.org/2000/svg">
<path d="M4.65332 20.6324C4.50488 20.6324 4.39551 20.5633 4.3252 20.4349C4.25098 20.2917 4.21582 20.1287 4.21582 19.941C4.22363 19.625 4.27051 19.4373 4.35645 19.3682C4.43848 19.304 4.59863 19.2694 4.84082 19.2694C5.31738 19.2694 5.67285 19.1608 5.90332 18.9336C6.1416 18.7114 6.28613 18.4398 6.34082 18.1237C6.40332 17.7978 6.44238 17.3682 6.46582 16.8398V1.76819H4.73145C4.16895 1.78301 3.73145 1.93609 3.41895 2.22251C3.11426 2.49906 2.87988 2.92375 2.71582 3.48671C2.55957 4.0398 2.42285 4.8398 2.30957 5.87684C2.28613 6.03486 2.18457 6.16819 1.99707 6.2719C1.81738 6.38054 1.62988 6.42992 1.43457 6.42992C1.28613 6.42992 1.15332 6.38054 1.02832 6.2719C0.90332 6.15338 0.84082 5.99535 0.84082 5.79782L0.90332 1.35338C0.90332 0.839798 1.12988 0.583008 1.59082 0.583008H13.8096C14.2471 0.583008 14.4658 0.839798 14.4658 1.35338L14.5596 5.79782C14.5596 5.99535 14.4893 6.15338 14.3564 6.2719C14.2197 6.38054 14.0791 6.42992 13.9346 6.42992C13.7354 6.42992 13.5479 6.38054 13.3721 6.2719C13.1924 6.16819 13.0986 6.03486 13.0908 5.87684C12.9541 4.82498 12.8096 4.02005 12.6533 3.46696C12.5049 2.91387 12.2705 2.49906 11.9502 2.22251C11.6377 1.93609 11.2002 1.78301 10.6377 1.76819H8.93457V16.8398C8.9541 17.3682 8.98926 17.7978 9.04395 18.1237C9.10645 18.4398 9.25098 18.7114 9.48145 18.9336C9.71973 19.1608 10.0791 19.2694 10.5596 19.2694H10.7158C10.8604 19.2694 10.9697 19.3089 11.0439 19.3879C11.1143 19.4571 11.1611 19.6398 11.1846 19.941C11.1846 20.1287 11.1455 20.2917 11.0752 20.4349C11.001 20.5633 10.8877 20.6324 10.7314 20.6324C9.66895 20.5633 8.68457 20.5336 7.77832 20.5336C6.77832 20.5336 5.73535 20.5633 4.65332 20.6324Z" fill="black"/>
</svg>
