<svg width="15" height="21" viewBox="0 0 15 21" fill="none" xmlns="http://www.w3.org/2000/svg">
<path d="M4.10913 20.4029C3.96069 20.4029 3.85132 20.3338 3.78101 20.2054C3.70679 20.0622 3.67163 19.8992 3.67163 19.7115C3.67944 19.3955 3.72632 19.2078 3.81226 19.1387C3.89429 19.0745 4.05444 19.0399 4.29663 19.0399C4.77319 19.0399 5.12866 18.9313 5.35913 18.7041C5.59741 18.4819 5.74194 18.2103 5.79663 17.8943C5.85913 17.5683 5.89819 17.1387 5.92163 16.6103V1.5387H4.18726C3.62476 1.55352 3.18726 1.7066 2.87476 1.99302C2.57007 2.26957 2.33569 2.69426 2.17163 3.25722C2.01538 3.81031 1.87866 4.61031 1.76538 5.64734C1.74194 5.80537 1.64038 5.9387 1.45288 6.0424C1.27319 6.15105 1.08569 6.20043 0.890381 6.20043C0.741943 6.20043 0.609131 6.15105 0.484131 6.0424C0.359131 5.92389 0.296631 5.76586 0.296631 5.56833L0.359131 1.12389C0.359131 0.610306 0.585693 0.353516 1.04663 0.353516H13.2654C13.7029 0.353516 13.9216 0.610306 13.9216 1.12389L14.0154 5.56833C14.0154 5.76586 13.9451 5.92389 13.8123 6.0424C13.6755 6.15105 13.5349 6.20043 13.3904 6.20043C13.1912 6.20043 13.0037 6.15105 12.8279 6.0424C12.6482 5.9387 12.5544 5.80537 12.5466 5.64734C12.4099 4.59549 12.2654 3.79055 12.1091 3.23747C11.9607 2.68438 11.7263 2.26957 11.406 1.99302C11.0935 1.7066 10.656 1.55352 10.0935 1.5387H8.39038V16.6103C8.40991 17.1387 8.44507 17.5683 8.49976 17.8943C8.56226 18.2103 8.70679 18.4819 8.93726 18.7041C9.17554 18.9313 9.53491 19.0399 10.0154 19.0399H10.1716C10.3162 19.0399 10.4255 19.0794 10.4998 19.1585C10.5701 19.2276 10.6169 19.4103 10.6404 19.7115C10.6404 19.8992 10.6013 20.0622 10.531 20.2054C10.4568 20.3338 10.3435 20.4029 10.1873 20.4029C9.12476 20.3338 8.14038 20.3041 7.23413 20.3041C6.23413 20.3041 5.19116 20.3338 4.10913 20.4029Z" fill="black"/>
</svg>
