<svg width="17" height="21" viewBox="0 0 17 21" fill="none" xmlns="http://www.w3.org/2000/svg">
<path d="M0.577881 20.4029C0.421631 20.4029 0.30835 20.3338 0.234131 20.2054C0.163819 20.0622 0.124756 19.8992 0.124756 19.7116C0.136475 19.3955 0.18335 19.2079 0.265381 19.1387C0.351318 19.0745 0.445068 19.04 0.562256 19.04C0.687256 19.04 0.765381 19.04 0.796631 19.04C1.29663 19.04 1.65991 18.877 1.89038 18.5462C2.12866 18.2202 2.31616 17.8499 2.45288 17.44C2.59741 17.035 2.69507 16.7585 2.74976 16.6103L7.12476 3.51405C7.21851 3.198 7.26538 2.95109 7.26538 2.76344C7.26538 2.38319 7.14819 2.11158 6.92163 1.95356C6.69116 1.78566 6.36694 1.64739 5.95288 1.53874C5.65991 1.47455 5.48413 1.41035 5.42163 1.34121C5.35913 1.27702 5.32788 1.09924 5.32788 0.80788C5.32788 0.560966 5.37866 0.393065 5.48413 0.314053C5.58569 0.225165 5.75757 0.175781 5.99976 0.175781C6.83179 0.175781 7.49194 0.254794 7.98413 0.412818C8.47241 0.570843 8.89819 0.886892 9.26538 1.36097C9.64038 1.83504 9.98413 2.55603 10.2966 3.51405L14.4998 16.6103C14.7498 17.4153 14.988 18.0128 15.2185 18.4079C15.4568 18.8029 15.8044 19.0153 16.2654 19.04H16.4216C16.5857 19.04 16.7029 19.0795 16.7654 19.1585C16.8357 19.2276 16.8787 19.4104 16.8904 19.7116C16.8904 19.8992 16.8513 20.0622 16.781 20.2054C16.7068 20.3338 16.5974 20.4029 16.4529 20.4029C15.3787 20.3338 14.4607 20.3042 13.7029 20.3042C12.7029 20.3042 11.6638 20.3338 10.5935 20.4029C10.4451 20.4029 10.3318 20.3338 10.2498 20.2054C10.1755 20.0622 10.1404 19.8992 10.1404 19.7116C10.1599 19.4104 10.2029 19.2276 10.2654 19.1585C10.3357 19.0795 10.4568 19.04 10.6248 19.04C11.1873 19.04 11.5818 18.9758 11.8123 18.8424C12.0505 18.6992 12.1716 18.4474 12.1716 18.0918C12.1716 17.8153 12.0701 17.3215 11.8748 16.6103L11.0154 13.9832H4.84351C4.42554 15.2869 4.18726 16.0474 4.12476 16.2548C4.07007 16.4671 4.04663 16.5857 4.04663 16.6103C3.84741 17.4153 3.74976 17.9289 3.74976 18.1511C3.74976 18.5066 3.87476 18.7437 4.12476 18.8622C4.37476 18.9807 4.84741 19.04 5.54663 19.04H5.70288C5.86694 19.04 5.98413 19.0795 6.04663 19.1585C6.10913 19.2276 6.14819 19.4104 6.17163 19.7116C6.17163 19.8992 6.13257 20.0622 6.06226 20.2054C5.98804 20.3338 5.87476 20.4029 5.71851 20.4029C4.65601 20.3338 3.74976 20.3042 2.99976 20.3042C2.46851 20.3042 1.65991 20.3338 0.577881 20.4029ZM5.32788 12.6202H10.5779L8.04663 4.50171H7.96851L5.32788 12.6202Z" fill="black"/>
</svg>
