<svg width="18" height="22" viewBox="0 0 18 22" fill="none" xmlns="http://www.w3.org/2000/svg">
<path d="M0.885132 21.0182C0.728882 21.0182 0.615601 20.949 0.541382 20.8206C0.47107 20.6774 0.432007 20.5145 0.432007 20.3268C0.443726 20.0108 0.490601 19.8231 0.572632 19.754C0.658569 19.6898 0.752319 19.6552 0.869507 19.6552C0.994507 19.6552 1.07263 19.6552 1.10388 19.6552C1.60388 19.6552 1.96716 19.4923 2.19763 19.1614C2.43591 18.8355 2.62341 18.4651 2.76013 18.0552C2.90466 17.6503 3.00232 17.3737 3.05701 17.2256L7.43201 4.12929C7.52576 3.81324 7.57263 3.56632 7.57263 3.37867C7.57263 2.99842 7.45544 2.72682 7.22888 2.56879C6.99841 2.40089 6.67419 2.26262 6.26013 2.15398C5.96716 2.08978 5.79138 2.02558 5.72888 1.95645C5.66638 1.89225 5.63513 1.71447 5.63513 1.42311C5.63513 1.1762 5.68591 1.0083 5.79138 0.929287C5.89294 0.840399 6.06482 0.791016 6.30701 0.791016C7.13904 0.791016 7.79919 0.870028 8.29138 1.02805C8.77966 1.18608 9.20544 1.50213 9.57263 1.9762C9.94763 2.45027 10.2914 3.17126 10.6039 4.12929L14.807 17.2256C15.057 18.0305 15.2953 18.6281 15.5258 19.0231C15.764 19.4182 16.1117 19.6305 16.5726 19.6552H16.7289C16.8929 19.6552 17.0101 19.6947 17.0726 19.7737C17.1429 19.8429 17.1859 20.0256 17.1976 20.3268C17.1976 20.5145 17.1586 20.6774 17.0883 20.8206C17.014 20.949 16.9047 21.0182 16.7601 21.0182C15.6859 20.949 14.7679 20.9194 14.0101 20.9194C13.0101 20.9194 11.9711 20.949 10.9008 21.0182C10.7523 21.0182 10.639 20.949 10.557 20.8206C10.4828 20.6774 10.4476 20.5145 10.4476 20.3268C10.4672 20.0256 10.5101 19.8429 10.5726 19.7737C10.6429 19.6947 10.764 19.6552 10.932 19.6552C11.4945 19.6552 11.889 19.591 12.1195 19.4577C12.3578 19.3145 12.4789 19.0626 12.4789 18.7071C12.4789 18.4305 12.3773 17.9367 12.182 17.2256L11.3226 14.5984H5.15076C4.73279 15.9021 4.49451 16.6626 4.43201 16.87C4.37732 17.0824 4.35388 17.2009 4.35388 17.2256C4.15466 18.0305 4.05701 18.5441 4.05701 18.7663C4.05701 19.1219 4.18201 19.3589 4.43201 19.4774C4.68201 19.596 5.15466 19.6552 5.85388 19.6552H6.01013C6.17419 19.6552 6.29138 19.6947 6.35388 19.7737C6.41638 19.8429 6.45544 20.0256 6.47888 20.3268C6.47888 20.5145 6.43982 20.6774 6.36951 20.8206C6.29529 20.949 6.18201 21.0182 6.02576 21.0182C4.96326 20.949 4.05701 20.9194 3.30701 20.9194C2.77576 20.9194 1.96716 20.949 0.885132 21.0182ZM5.63513 13.2355H10.8851L8.35388 5.11694H8.27576L5.63513 13.2355Z" fill="black"/>
</svg>
