<svg width="18" height="22" viewBox="0 0 18 22" fill="none" xmlns="http://www.w3.org/2000/svg">
<path d="M0.943726 21.0963C0.787476 21.0963 0.674195 21.0272 0.599976 20.8988C0.529664 20.7556 0.490601 20.5926 0.490601 20.4049C0.50232 20.0889 0.549195 19.9012 0.631226 19.8321C0.717163 19.7679 0.810913 19.7333 0.928101 19.7333C1.0531 19.7333 1.13123 19.7333 1.16248 19.7333C1.66248 19.7333 2.02576 19.5704 2.25623 19.2395C2.49451 18.9136 2.68201 18.5432 2.81873 18.1333C2.96326 17.7284 3.06091 17.4519 3.1156 17.3037L7.4906 4.20741C7.58435 3.89136 7.63123 3.64445 7.63123 3.45679C7.63123 3.07655 7.51404 2.80494 7.28748 2.64692C7.05701 2.47902 6.73279 2.34075 6.31873 2.2321C6.02576 2.16791 5.84998 2.10371 5.78748 2.03457C5.72498 1.97038 5.69373 1.7926 5.69373 1.50124C5.69373 1.25433 5.74451 1.08642 5.84998 1.00741C5.95154 0.918524 6.12341 0.869141 6.3656 0.869141C7.19763 0.869141 7.85779 0.948153 8.34998 1.10618C8.83826 1.2642 9.26404 1.58025 9.63123 2.05433C10.0062 2.5284 10.35 3.24939 10.6625 4.20741L14.8656 17.3037C15.1156 18.1086 15.3539 18.7062 15.5844 19.1012C15.8226 19.4963 16.1703 19.7086 16.6312 19.7333H16.7875C16.9515 19.7333 17.0687 19.7728 17.1312 19.8519C17.2015 19.921 17.2445 20.1037 17.2562 20.4049C17.2562 20.5926 17.2172 20.7556 17.1469 20.8988C17.0726 21.0272 16.9633 21.0963 16.8187 21.0963C15.7445 21.0272 14.8265 20.9975 14.0687 20.9975C13.0687 20.9975 12.0297 21.0272 10.9594 21.0963C10.8109 21.0963 10.6976 21.0272 10.6156 20.8988C10.5414 20.7556 10.5062 20.5926 10.5062 20.4049C10.5258 20.1037 10.5687 19.921 10.6312 19.8519C10.7015 19.7728 10.8226 19.7333 10.9906 19.7333C11.5531 19.7333 11.9476 19.6691 12.1781 19.5358C12.4164 19.3926 12.5375 19.1407 12.5375 18.7852C12.5375 18.5086 12.4359 18.0148 12.2406 17.3037L11.3812 14.6765H5.20935C4.79138 15.9803 4.5531 16.7407 4.4906 16.9482C4.43591 17.1605 4.41248 17.279 4.41248 17.3037C4.21326 18.1086 4.1156 18.6222 4.1156 18.8444C4.1156 19.2 4.2406 19.437 4.4906 19.5556C4.7406 19.6741 5.21326 19.7333 5.91248 19.7333H6.06873C6.23279 19.7333 6.34998 19.7728 6.41248 19.8519C6.47498 19.921 6.51404 20.1037 6.53748 20.4049C6.53748 20.5926 6.49841 20.7556 6.4281 20.8988C6.35388 21.0272 6.2406 21.0963 6.08435 21.0963C5.02185 21.0272 4.1156 20.9975 3.3656 20.9975C2.83435 20.9975 2.02576 21.0272 0.943726 21.0963ZM5.69373 13.3136H10.9437L8.41248 5.19507H8.33435L5.69373 13.3136Z" fill="black"/>
</svg>
