<svg width="10" height="12" viewBox="0 0 10 12" fill="none" xmlns="http://www.w3.org/2000/svg">
<path d="M9.68262 0.196777V11.4363H6.94824V9.9153C6.6748 10.4042 6.2998 10.7992 5.82324 11.1005C5.35449 11.4067 4.83105 11.5548 4.26074 11.5548C3.58105 11.5548 2.9834 11.3671 2.46387 10.982C1.94043 10.6017 1.53418 10.0486 1.24512 9.3227C0.963867 8.60171 0.823242 7.75233 0.823242 6.77455V0.196777H3.52637V6.30048C3.52637 7.0511 3.6748 7.63875 3.97949 8.05851C4.29199 8.46838 4.70605 8.67085 5.22949 8.67085C5.76074 8.67085 6.1748 8.46838 6.47949 8.05851C6.79199 7.63875 6.94824 7.0511 6.94824 6.30048V0.196777H9.68262Z" fill="white"/>
</svg>
