<svg width="14" height="21" viewBox="0 0 14 21" fill="none" xmlns="http://www.w3.org/2000/svg">
<path d="M0.792481 20.7109C0.655762 20.7109 0.550292 20.6418 0.47998 20.5134C0.405761 20.3702 0.370605 20.2072 0.370605 20.0196C0.378418 19.7035 0.425292 19.5159 0.51123 19.4467C0.593261 19.3825 0.753419 19.348 0.995606 19.348C1.47217 19.348 1.82764 19.2393 2.05811 19.0122C2.29639 18.7899 2.44092 18.5183 2.49561 18.2023C2.55811 17.8764 2.59717 17.4467 2.62061 16.9183V4.37511C2.59717 3.85166 2.55811 3.42203 2.49561 3.09116C2.44092 2.76524 2.29639 2.48869 2.05811 2.26153C1.82764 2.03931 1.47217 1.92573 0.995606 1.92573H0.839356C0.671387 1.92573 0.550292 1.8961 0.47998 1.82696C0.41748 1.74795 0.378418 1.56524 0.370605 1.27388C0.370605 1.07635 0.405761 0.913384 0.47998 0.78005C0.550292 0.651656 0.655762 0.58252 0.792481 0.58252C1.89404 0.636841 2.88623 0.661532 3.76123 0.661532H11.6206C12.0464 0.661532 12.2612 0.918322 12.2612 1.4319L12.3394 5.85659C12.3394 6.04425 12.2612 6.1924 12.105 6.31092C11.9565 6.42943 11.812 6.48869 11.6675 6.48869C11.4683 6.48869 11.2925 6.44425 11.1362 6.35042C10.9878 6.24672 10.9058 6.10351 10.8862 5.91585C10.7612 4.88869 10.6128 4.10845 10.4487 3.56524C10.2925 3.02696 10.0581 2.62696 9.74561 2.3603C9.44092 2.09857 9.01123 1.95536 8.44873 1.92573H5.08936V9.96524H9.62061C9.73389 9.98005 9.82373 10.0591 9.88623 10.2023C9.95654 10.3356 9.99561 10.4986 9.99561 10.6961C9.99561 10.8541 9.95654 11.0023 9.88623 11.1307C9.82373 11.264 9.73389 11.3282 9.62061 11.3282H5.08936V17.2936C5.12061 17.743 5.15967 18.0986 5.21436 18.3603C5.26514 18.627 5.41748 18.864 5.66748 19.0714C5.91748 19.2838 6.30811 19.3776 6.83936 19.348H9.13623C9.71826 19.3233 10.1597 19.2047 10.4644 18.9924C10.7651 18.7702 11.0034 18.4294 11.1831 17.9652C11.3589 17.4912 11.5737 16.7307 11.8237 15.6739C11.937 15.3084 12.2183 15.1603 12.6675 15.2393C12.8315 15.2788 12.98 15.3677 13.105 15.4961C13.23 15.6146 13.2808 15.7726 13.2612 15.9702L12.7612 19.9405C12.7183 20.2171 12.644 20.4047 12.5425 20.4936C12.437 20.5726 12.269 20.6122 12.0425 20.6122H3.79248C2.89404 20.6122 1.89404 20.6418 0.792481 20.7109Z" fill="black"/>
</svg>
