<svg width="15" height="21" viewBox="0 0 15 21" fill="none" xmlns="http://www.w3.org/2000/svg">
<path d="M4.16443 20.0963C4.01599 20.0963 3.90662 20.0271 3.8363 19.8987C3.76209 19.7555 3.72693 19.5926 3.72693 19.4049C3.73474 19.0889 3.78162 18.9012 3.86755 18.8321C3.94959 18.7679 4.10974 18.7333 4.35193 18.7333C4.82849 18.7333 5.18396 18.6247 5.41443 18.3975C5.65271 18.1753 5.79724 17.9037 5.85193 17.5876C5.91443 17.2617 5.95349 16.8321 5.97693 16.3037V1.23206H4.24255C3.68005 1.24688 3.24255 1.39996 2.93005 1.68638C2.62537 1.96292 2.39099 2.38762 2.22693 2.95058C2.07068 3.50367 1.93396 4.30367 1.82068 5.3407C1.79724 5.49873 1.69568 5.63206 1.50818 5.73576C1.32849 5.84441 1.14099 5.89379 0.945679 5.89379C0.797241 5.89379 0.664429 5.84441 0.539429 5.73576C0.414429 5.61725 0.351929 5.45922 0.351929 5.26169L0.414429 0.817245C0.414429 0.303665 0.640991 0.046875 1.10193 0.046875H13.3207C13.7582 0.046875 13.9769 0.303665 13.9769 0.817245L14.0707 5.26169C14.0707 5.45922 14.0004 5.61725 13.8676 5.73576C13.7308 5.84441 13.5902 5.89379 13.4457 5.89379C13.2465 5.89379 13.059 5.84441 12.8832 5.73576C12.7035 5.63206 12.6097 5.49873 12.6019 5.3407C12.4652 4.28885 12.3207 3.48391 12.1644 2.93083C12.016 2.37774 11.7816 1.96292 11.4613 1.68638C11.1488 1.39996 10.7113 1.24688 10.1488 1.23206H8.44568V16.3037C8.46521 16.8321 8.50037 17.2617 8.55505 17.5876C8.61755 17.9037 8.76209 18.1753 8.99255 18.3975C9.23084 18.6247 9.59021 18.7333 10.0707 18.7333H10.2269C10.3715 18.7333 10.4808 18.7728 10.5551 18.8518C10.6254 18.9209 10.6722 19.1037 10.6957 19.4049C10.6957 19.5926 10.6566 19.7555 10.5863 19.8987C10.5121 20.0271 10.3988 20.0963 10.2426 20.0963C9.18005 20.0271 8.19568 19.9975 7.28943 19.9975C6.28943 19.9975 5.24646 20.0271 4.16443 20.0963Z" fill="black"/>
</svg>
