<svg width="10" height="12" viewBox="0 0 10 12" fill="none" xmlns="http://www.w3.org/2000/svg">
<path d="M5.93213 0.078125C6.96338 0.078125 7.7915 0.507755 8.4165 1.36208C9.0415 2.22134 9.354 3.39171 9.354 4.87812V11.4361H6.63525V5.33245C6.63525 4.58183 6.479 4.00405 6.1665 3.59417C5.86182 3.17442 5.45166 2.96208 4.93213 2.96208C4.42041 2.96208 4.01025 3.17442 3.69775 3.59417C3.38525 4.00405 3.229 4.58183 3.229 5.33245V11.4361H0.510254V0.196644H3.229V1.69788C3.51025 1.19911 3.88525 0.804051 4.354 0.512693C4.82275 0.226272 5.34619 0.078125 5.93213 0.078125Z" fill="white"/>
</svg>
