<svg width="14" height="21" viewBox="0 0 14 21" fill="none" xmlns="http://www.w3.org/2000/svg">
<path d="M0.912109 20.4814C0.77539 20.4814 0.669921 20.4123 0.599609 20.2839C0.52539 20.1407 0.490234 19.9777 0.490234 19.7901C0.498047 19.474 0.544921 19.2864 0.630859 19.2172C0.71289 19.153 0.873047 19.1185 1.11523 19.1185C1.5918 19.1185 1.94727 19.0098 2.17773 18.7827C2.41602 18.5604 2.56055 18.2888 2.61523 17.9728C2.67773 17.6469 2.7168 17.2172 2.74023 16.6888V4.14562C2.7168 3.62216 2.67773 3.19253 2.61523 2.86167C2.56055 2.53574 2.41602 2.2592 2.17773 2.03204C1.94727 1.80982 1.5918 1.69624 1.11523 1.69624H0.958984C0.791015 1.69624 0.669921 1.66661 0.599609 1.59747C0.537109 1.51846 0.498047 1.33574 0.490234 1.04439C0.490234 0.846855 0.52539 0.683892 0.599609 0.550558C0.669921 0.422164 0.77539 0.353027 0.912109 0.353027C2.01367 0.407349 3.00586 0.43204 3.88086 0.43204C4.88086 0.43204 5.91992 0.407349 7.00586 0.353027C7.16211 0.353027 7.27539 0.422164 7.34961 0.550558C7.41992 0.683892 7.45899 0.846855 7.45899 1.04439C7.44727 1.36043 7.39649 1.55303 7.30274 1.61723C7.20899 1.67155 7.05274 1.69624 6.83399 1.69624C6.35352 1.69624 5.99414 1.80982 5.75586 2.03204C5.52539 2.2592 5.38086 2.53574 5.31836 2.86167C5.26367 3.19253 5.22852 3.62216 5.20898 4.14562V17.1629C5.24023 17.5975 5.2793 17.9432 5.33398 18.1901C5.38477 18.4271 5.53711 18.6543 5.78711 18.8617C6.03711 19.0592 6.42773 19.1481 6.95899 19.1185H9.20899C9.79102 19.0938 10.2324 18.9753 10.5371 18.7629C10.8379 18.5407 11.0723 18.1999 11.2402 17.7357C11.416 17.2617 11.6309 16.5012 11.8809 15.4444C12.0059 15.079 12.291 14.9308 12.7402 15.0098C12.8848 15.0493 13.0254 15.1382 13.1621 15.2666C13.2949 15.3851 13.3535 15.5432 13.334 15.7407L12.834 19.7111C12.7793 19.9876 12.7012 20.1753 12.5996 20.2641C12.5059 20.3432 12.3418 20.3827 12.1152 20.3827H3.91211C3.01367 20.3827 2.01367 20.4123 0.912109 20.4814Z" fill="black"/>
</svg>
