<svg width="10" height="12" viewBox="0 0 10 12" fill="none" xmlns="http://www.w3.org/2000/svg">
<path d="M9.83984 0.196777V11.4363H7.10547V9.9153C6.83203 10.4042 6.45703 10.7992 5.98047 11.1005C5.51172 11.4067 4.98828 11.5548 4.41797 11.5548C3.73828 11.5548 3.14062 11.3671 2.62109 10.982C2.09766 10.6017 1.69141 10.0486 1.40234 9.3227C1.12109 8.60171 0.980469 7.75233 0.980469 6.77455V0.196777H3.68359V6.30048C3.68359 7.0511 3.83203 7.63875 4.13672 8.05851C4.44922 8.46838 4.86328 8.67085 5.38672 8.67085C5.91797 8.67085 6.33203 8.46838 6.63672 8.05851C6.94922 7.63875 7.10547 7.0511 7.10547 6.30048V0.196777H9.83984Z" fill="white"/>
</svg>
