<svg width="5" height="10" viewBox="0 0 5 10" fill="none" xmlns="http://www.w3.org/2000/svg">
<path d="M0.688477 9.17529C0.532227 9.2543 0.395508 9.22467 0.282227 9.09628C0.16504 8.97776 0.110352 8.82467 0.110352 8.64196C0.110352 8.42961 0.192383 8.27653 0.360352 8.18764C1.0791 7.85677 1.61035 7.46171 1.9541 7.00245C2.30566 6.55307 2.48535 6.0148 2.48535 5.3827C2.48535 5.02714 2.39941 4.74072 2.23535 4.51356C2.06738 4.29134 1.83301 4.0543 1.53223 3.80245C1.22754 3.55554 1.00098 3.32344 0.844727 3.11109C0.688477 2.90369 0.610352 2.63702 0.610352 2.32097C0.610352 1.91603 0.735352 1.5506 0.985352 1.23455C1.23535 0.908625 1.52441 0.740723 1.86035 0.740723C2.3291 0.740723 2.75098 0.928376 3.12598 1.29381C3.50879 1.66418 3.81738 2.14319 4.04785 2.73578C4.27441 3.3185 4.3916 3.90122 4.3916 4.49381C4.3916 5.68887 4.03223 6.67159 3.31348 7.43702C2.59473 8.21233 1.71973 8.7901 0.688477 9.17529Z" fill="black"/>
</svg>
