<svg width="10" height="12" viewBox="0 0 10 12" fill="none" xmlns="http://www.w3.org/2000/svg">
<path d="M0.448242 5.80672C0.448242 4.65116 0.620117 3.63388 0.963867 2.76474C1.30762 1.89561 1.77637 1.224 2.37012 0.749929C2.96387 0.275855 3.62402 0.0388184 4.35449 0.0388184C4.97949 0.0388184 5.52637 0.20672 5.99512 0.532645C6.47168 0.848695 6.83887 1.27339 7.08887 1.79684V0.196843H9.82324V11.4363H7.08887V9.83635C6.82715 10.3647 6.45606 10.7944 5.97949 11.1203C5.51074 11.4363 4.96387 11.5944 4.33887 11.5944C3.62012 11.5944 2.96387 11.3573 2.37012 10.8833C1.77637 10.4092 1.30762 9.73265 0.963867 8.84869C0.620117 7.96968 0.448242 6.9524 0.448242 5.80672ZM7.08887 5.82647C7.08887 4.95734 6.90137 4.28079 6.52637 3.7919C6.15137 3.29314 5.69043 3.04129 5.15137 3.04129C4.6084 3.04129 4.15137 3.2882 3.77637 3.77215C3.40137 4.26104 3.21387 4.93758 3.21387 5.80672C3.21387 6.66598 3.40137 7.34252 3.77637 7.84129C4.15137 8.34499 4.6084 8.5919 5.15137 8.5919C5.69043 8.5919 6.15137 8.34993 6.52637 7.86104C6.90137 7.36228 7.08887 6.68573 7.08887 5.82647Z" fill="white"/>
</svg>
