<svg width="10" height="12" viewBox="0 0 10 12" fill="none" xmlns="http://www.w3.org/2000/svg">
<path d="M6.21558 0.078125C7.24683 0.078125 8.07495 0.507755 8.69995 1.36208C9.32495 2.22134 9.63745 3.39171 9.63745 4.87812V11.4361H6.9187V5.33245C6.9187 4.58183 6.76245 4.00405 6.44995 3.59417C6.14526 3.17442 5.73511 2.96208 5.21558 2.96208C4.70386 2.96208 4.2937 3.17442 3.9812 3.59417C3.6687 4.00405 3.51245 4.58183 3.51245 5.33245V11.4361H0.793701V0.196644H3.51245V1.69788C3.7937 1.19911 4.1687 0.804051 4.63745 0.512693C5.1062 0.226272 5.62964 0.078125 6.21558 0.078125Z" fill="white"/>
</svg>
