<svg width="17" height="22" viewBox="0 0 17 22" fill="none" xmlns="http://www.w3.org/2000/svg">
<path d="M7.98352 21.6296C6.39758 21.6296 5.00305 21.1457 3.79602 20.1876C2.58508 19.2296 1.64758 17.9555 0.983521 16.3753C0.327271 14.795 -0.000854492 13.1062 -0.000854492 11.2987C-0.000854492 9.0864 0.393677 7.16047 1.18665 5.51109C1.97571 3.86665 2.98743 2.60739 4.2179 1.73825C5.45618 0.859239 6.71008 0.414795 7.98352 0.414795C9.57727 0.414795 10.9835 0.898745 12.2023 1.85677C13.4288 2.81973 14.3741 4.08393 15.0304 5.64936C15.6945 7.21973 16.0304 8.90862 16.0304 10.7259C16.0304 12.9383 15.6281 14.8741 14.8273 16.5333C14.0226 18.1827 12.9991 19.4469 11.7491 20.3259C10.4991 21.195 9.24133 21.6296 7.98352 21.6296ZM7.95227 20.2469C9.08508 20.2469 10.0304 19.8222 10.7804 18.9629C11.5382 18.1086 12.1085 16.9629 12.4835 15.5259C12.8585 14.079 13.046 12.479 13.046 10.7259C13.046 9.10615 12.8507 7.61973 12.4679 6.26171C12.0929 4.89381 11.5187 3.80739 10.7491 3.00245C9.98743 2.18763 9.05383 1.77776 7.95227 1.77776C6.2843 1.77776 5.0304 2.67652 4.18665 4.46418C3.3429 6.24196 2.92102 8.48887 2.92102 11.2C2.92102 12.8494 3.10852 14.3555 3.48352 15.7234C3.85852 17.0963 4.42102 18.1926 5.17102 19.0222C5.92102 19.842 6.8468 20.2469 7.95227 20.2469Z" fill="black"/>
</svg>
