<svg width="15" height="18" viewBox="0 0 15 18" fill="none" xmlns="http://www.w3.org/2000/svg">
<path d="M14.5571 0.0554199V17.6949H10.2759V15.285C9.84619 16.0752 9.26025 16.7073 8.51025 17.1813C7.76807 17.6554 6.95166 17.8925 6.05713 17.8925C4.98291 17.8925 4.0415 17.5912 3.229 16.9838C2.4165 16.3813 1.77979 15.5122 1.32275 14.3764C0.873535 13.2455 0.650879 11.9073 0.650879 10.3665V0.0554199H4.90088V9.63567C4.90088 10.8209 5.13916 11.7443 5.61963 12.4011C6.10791 13.048 6.76025 13.369 7.57275 13.369C8.40479 13.369 9.06104 13.048 9.5415 12.4011C10.0298 11.7443 10.2759 10.8209 10.2759 9.63567V0.0554199H14.5571Z" fill="white"/>
</svg>
