<svg width="10" height="12" viewBox="0 0 10 12" fill="none" xmlns="http://www.w3.org/2000/svg">
<path d="M9.18518 5.64869C9.18518 5.96474 9.16956 6.29561 9.13831 6.63635H2.98206C3.02112 7.33758 3.20081 7.87586 3.51331 8.2561C3.82581 8.62647 4.20862 8.80919 4.66956 8.80919C5.34534 8.80919 5.81409 8.44376 6.07581 7.70302H8.98206C8.83362 8.45363 8.56409 9.12524 8.16956 9.71783C7.78284 10.3005 7.29846 10.7598 6.71643 11.1005C6.13049 11.4314 5.48206 11.5944 4.76331 11.5944C3.88831 11.5944 3.11096 11.3672 2.43518 10.903C1.75549 10.4289 1.22424 9.75734 0.841431 8.8882C0.466431 8.00919 0.278931 6.98697 0.278931 5.82647C0.278931 4.6561 0.466431 3.63388 0.841431 2.76474C1.21643 1.89561 1.73987 1.224 2.41956 0.749929C3.09534 0.275855 3.87659 0.0388184 4.76331 0.0388184C5.61487 0.0388184 6.37659 0.270917 7.04456 0.730176C7.72034 1.19437 8.24768 1.84623 8.62268 2.68573C8.99768 3.53018 9.18518 4.51783 9.18518 5.64869ZM6.40393 4.74005C6.40393 4.14746 6.23987 3.68326 5.91956 3.33758C5.60706 2.98203 5.20862 2.80425 4.73206 2.80425C4.27112 2.80425 3.88831 2.97709 3.57581 3.31783C3.26331 3.64869 3.06799 4.12277 2.99768 4.74005H6.40393Z" fill="white"/>
</svg>
