<svg width="10" height="12" viewBox="0 0 10 12" fill="none" xmlns="http://www.w3.org/2000/svg">
<path d="M5.26355 11.5944C4.38855 11.5944 3.59949 11.3672 2.90417 10.903C2.21667 10.4289 1.67371 9.75734 1.27917 8.8882C0.880738 8.00919 0.685425 6.98697 0.685425 5.82647C0.685425 4.67092 0.880738 3.65363 1.27917 2.7845C1.68542 1.90549 2.23621 1.224 2.93542 0.749929C3.63074 0.275855 4.4198 0.0388184 5.2948 0.0388184C6.1698 0.0388184 6.95496 0.275855 7.65417 0.749929C8.34949 1.224 8.90417 1.90549 9.31042 2.7845C9.71667 3.65363 9.9198 4.67092 9.9198 5.82647C9.9198 6.97215 9.70886 7.98944 9.2948 8.86845C8.88855 9.7524 8.32996 10.4289 7.62292 10.903C6.92371 11.3672 6.13855 11.5944 5.26355 11.5944ZM5.26355 8.61166C5.78308 8.61166 6.22449 8.37462 6.59167 7.90055C6.95496 7.41659 7.13855 6.72524 7.13855 5.82647C7.13855 4.91783 6.95886 4.22647 6.6073 3.7524C6.25183 3.26845 5.81433 3.02153 5.2948 3.02153C4.76355 3.02153 4.31824 3.25857 3.96667 3.73265C3.62292 4.20672 3.45105 4.90795 3.45105 5.82647C3.45105 6.72524 3.62292 7.41659 3.96667 7.90055C4.31042 8.37462 4.74011 8.61166 5.26355 8.61166Z" fill="white"/>
</svg>
