<svg width="17" height="22" viewBox="0 0 17 22" fill="none" xmlns="http://www.w3.org/2000/svg">
<path d="M8.62842 21.6296C7.04248 21.6296 5.64795 21.1457 4.44092 20.1876C3.22998 19.2296 2.29248 17.9555 1.62842 16.3753C0.972168 14.795 0.644043 13.1062 0.644043 11.2987C0.644043 9.0864 1.03857 7.16047 1.83154 5.51109C2.62061 3.86665 3.63232 2.60739 4.86279 1.73825C6.10107 0.859239 7.35498 0.414795 8.62842 0.414795C10.2222 0.414795 11.6284 0.898745 12.8472 1.85677C14.0737 2.81973 15.019 4.08393 15.6753 5.64936C16.3394 7.21973 16.6753 8.90862 16.6753 10.7259C16.6753 12.9383 16.2729 14.8741 15.4722 16.5333C14.6675 18.1827 13.644 19.4469 12.394 20.3259C11.144 21.195 9.88623 21.6296 8.62842 21.6296ZM8.59717 20.2469C9.72998 20.2469 10.6753 19.8222 11.4253 18.9629C12.1831 18.1086 12.7534 16.9629 13.1284 15.5259C13.5034 14.079 13.6909 12.479 13.6909 10.7259C13.6909 9.10615 13.4956 7.61973 13.1128 6.26171C12.7378 4.89381 12.1636 3.80739 11.394 3.00245C10.6323 2.18763 9.69873 1.77776 8.59717 1.77776C6.9292 1.77776 5.67529 2.67652 4.83154 4.46418C3.98779 6.24196 3.56592 8.48887 3.56592 11.2C3.56592 12.8494 3.75342 14.3555 4.12842 15.7234C4.50342 17.0963 5.06592 18.1926 5.81592 19.0222C6.56592 19.842 7.4917 20.2469 8.59717 20.2469Z" fill="black"/>
</svg>
