<svg width="8" height="22" viewBox="0 0 8 22" fill="none" xmlns="http://www.w3.org/2000/svg">
<path d="M0.962769 21.0962C0.814331 21.0962 0.70105 21.027 0.619019 20.8986C0.5448 20.7554 0.509644 20.5925 0.509644 20.4048C0.529175 20.0888 0.579957 19.9011 0.665894 19.832C0.759644 19.7678 0.915894 19.7332 1.13464 19.7332C1.62292 19.7332 1.9823 19.6246 2.21277 19.3974C2.43933 19.1752 2.58777 18.9036 2.65027 18.5875C2.72058 18.2715 2.76746 17.8468 2.79089 17.3036V4.76037C2.76746 4.20728 2.72058 3.77271 2.65027 3.45666C2.58777 3.14061 2.43933 2.87395 2.21277 2.64679C1.9823 2.42456 1.62292 2.31098 1.13464 2.31098H0.994019C0.837769 2.31098 0.720581 2.28135 0.650269 2.21222C0.57605 2.13321 0.529175 1.95049 0.509644 1.65913C0.509644 1.4616 0.5448 1.29864 0.619019 1.1653C0.70105 1.03691 0.814331 0.967773 0.962769 0.967773C2.0448 1.02209 3.03308 1.04679 3.93152 1.04679C4.93152 1.04679 5.97058 1.02209 7.05652 0.967773C7.21277 0.967773 7.32605 1.03691 7.40027 1.1653C7.47058 1.29864 7.50964 1.4616 7.50964 1.65913C7.49793 1.97518 7.44714 2.16777 7.35339 2.23197C7.25964 2.28629 7.09558 2.31098 6.86902 2.31098C6.37683 2.31098 6.01355 2.42456 5.77527 2.64679C5.5448 2.87395 5.40027 3.15049 5.33777 3.47642C5.28308 3.80728 5.25183 4.23691 5.24402 4.76037V17.3036C5.25183 17.832 5.28308 18.2616 5.33777 18.5875C5.40027 18.9036 5.5448 19.1752 5.77527 19.3974C6.01355 19.6246 6.37683 19.7332 6.86902 19.7332H7.00964C7.17371 19.7332 7.2948 19.7727 7.36902 19.8517C7.45105 19.9209 7.49793 20.1036 7.50964 20.4048C7.50964 20.5925 7.47058 20.7554 7.40027 20.8986C7.32605 21.027 7.21277 21.0962 7.05652 21.0962C5.99402 21.027 4.96277 20.9974 3.96277 20.9974C3.0448 20.9974 2.0448 21.027 0.962769 21.0962Z" fill="black"/>
</svg>
