<svg width="10" height="12" viewBox="0 0 10 12" fill="none" xmlns="http://www.w3.org/2000/svg">
<path d="M6.0376 0.078125C7.06885 0.078125 7.89697 0.507755 8.52197 1.36208C9.14697 2.22134 9.45947 3.39171 9.45947 4.87812V11.4361H6.74072V5.33245C6.74072 4.58183 6.58447 4.00405 6.27197 3.59417C5.96729 3.17442 5.55713 2.96208 5.0376 2.96208C4.52588 2.96208 4.11572 3.17442 3.80322 3.59417C3.49072 4.00405 3.33447 4.58183 3.33447 5.33245V11.4361H0.615723V0.196644H3.33447V1.69788C3.61572 1.19911 3.99072 0.804051 4.45947 0.512693C4.92822 0.226272 5.45166 0.078125 6.0376 0.078125Z" fill="white"/>
</svg>
