<svg width="17" height="21" viewBox="0 0 17 21" fill="none" xmlns="http://www.w3.org/2000/svg">
<path d="M0.486938 20.4816C0.330688 20.4816 0.217407 20.4124 0.143188 20.284C0.0728765 20.1408 0.0338135 19.9779 0.0338135 19.7902C0.0455325 19.4741 0.0924075 19.2865 0.174438 19.2174C0.260376 19.1532 0.354126 19.1186 0.471313 19.1186C0.596313 19.1186 0.674438 19.1186 0.705688 19.1186C1.20569 19.1186 1.56897 18.9556 1.79944 18.6248C2.03772 18.2988 2.22522 17.9285 2.36194 17.5186C2.50647 17.1137 2.60413 16.8371 2.65881 16.689L7.03381 3.59267C7.12756 3.27662 7.17444 3.0297 7.17444 2.84205C7.17444 2.4618 7.05725 2.1902 6.83069 2.03217C6.60022 1.86427 6.276 1.726 5.86194 1.61736C5.56897 1.55316 5.39319 1.48896 5.33069 1.41983C5.26819 1.35563 5.23694 1.17785 5.23694 0.886493C5.23694 0.639579 5.28772 0.471678 5.39319 0.392666C5.49475 0.303778 5.66663 0.254395 5.90881 0.254395C6.74084 0.254395 7.401 0.333407 7.89319 0.491432C8.38147 0.649456 8.80725 0.965506 9.17444 1.43958C9.54944 1.91365 9.89319 2.63464 10.2057 3.59267L14.4088 16.689C14.6588 17.4939 14.8971 18.0914 15.1276 18.4865C15.3658 18.8816 15.7135 19.0939 16.1744 19.1186H16.3307C16.4948 19.1186 16.6119 19.1581 16.6744 19.2371C16.7448 19.3062 16.7877 19.489 16.7994 19.7902C16.7994 19.9779 16.7604 20.1408 16.6901 20.284C16.6158 20.4124 16.5065 20.4816 16.3619 20.4816C15.2877 20.4124 14.3698 20.3828 13.6119 20.3828C12.6119 20.3828 11.5729 20.4124 10.5026 20.4816C10.3541 20.4816 10.2408 20.4124 10.1588 20.284C10.0846 20.1408 10.0494 19.9779 10.0494 19.7902C10.069 19.489 10.1119 19.3062 10.1744 19.2371C10.2448 19.1581 10.3658 19.1186 10.5338 19.1186C11.0963 19.1186 11.4908 19.0544 11.7213 18.9211C11.9596 18.7779 12.0807 18.526 12.0807 18.1704C12.0807 17.8939 11.9791 17.4001 11.7838 16.689L10.9244 14.0618H4.75256C4.33459 15.3655 4.09631 16.126 4.03381 16.3334C3.97913 16.5458 3.95569 16.6643 3.95569 16.689C3.75647 17.4939 3.65881 18.0075 3.65881 18.2297C3.65881 18.5853 3.78381 18.8223 4.03381 18.9408C4.28381 19.0593 4.75647 19.1186 5.45569 19.1186H5.61194C5.776 19.1186 5.89319 19.1581 5.95569 19.2371C6.01819 19.3062 6.05725 19.489 6.08069 19.7902C6.08069 19.9779 6.04163 20.1408 5.97131 20.284C5.89709 20.4124 5.78381 20.4816 5.62756 20.4816C4.56506 20.4124 3.65881 20.3828 2.90881 20.3828C2.37756 20.3828 1.56897 20.4124 0.486938 20.4816ZM5.23694 12.6988H10.4869L7.95569 4.58032H7.87756L5.23694 12.6988Z" fill="black"/>
</svg>
