<svg width="18" height="21" viewBox="0 0 18 21" fill="none" xmlns="http://www.w3.org/2000/svg">
<path d="M1.19995 20.4816C1.05151 20.4816 0.938232 20.4124 0.856201 20.284C0.781982 20.1408 0.746826 19.9779 0.746826 19.7902C0.766357 19.4741 0.817138 19.2865 0.903076 19.2174C0.985107 19.1532 1.14136 19.1186 1.37183 19.1186C1.86011 19.1186 2.21558 19.01 2.43433 18.7828C2.66089 18.5606 2.80151 18.2988 2.8562 17.9927C2.90698 17.6914 2.93823 17.2569 2.94995 16.689L2.99683 4.14575C2.99683 3.51365 2.94214 3.03464 2.84058 2.70378C2.73511 2.37785 2.56323 2.14081 2.32495 1.99267C2.09448 1.84946 1.76245 1.726 1.32495 1.61736C1.0437 1.55316 0.864014 1.48896 0.793701 1.41983C0.731201 1.35563 0.699951 1.17785 0.699951 0.886493C0.699951 0.639579 0.750732 0.471678 0.856201 0.392666C0.969482 0.303778 1.14136 0.254395 1.37183 0.254395C2.41089 0.254395 3.2312 0.348222 3.82495 0.530938C4.42651 0.703778 4.95776 1.01983 5.4187 1.47909C5.87573 1.94328 6.37964 2.64452 6.93433 3.59267L13.7781 14.9704H13.8562L13.8093 4.14575C13.7859 3.56798 13.7507 3.12847 13.7 2.8223C13.6453 2.52106 13.5046 2.25933 13.2781 2.03217C13.0593 1.80995 12.7078 1.69637 12.2312 1.69637H12.075C11.907 1.69637 11.7859 1.66674 11.7156 1.5976C11.6414 1.51859 11.5945 1.33588 11.575 1.04452C11.575 0.846987 11.614 0.684025 11.7 0.550691C11.782 0.422296 11.8914 0.35316 12.0281 0.35316C13.0906 0.407481 13.8914 0.432172 14.4343 0.432172C14.7468 0.432172 15.3484 0.412419 16.2468 0.372913L16.7781 0.35316C16.9226 0.35316 17.032 0.422296 17.1062 0.550691C17.1882 0.684025 17.2312 0.846987 17.2312 1.04452C17.2078 1.36057 17.157 1.55316 17.075 1.61736C16.989 1.67168 16.8328 1.69637 16.6062 1.69637C16.114 1.69637 15.7546 1.80995 15.5281 2.03217C15.3093 2.25933 15.1726 2.52106 15.1218 2.8223C15.0789 3.12847 15.0476 3.56798 15.0281 4.14575L14.9812 20.0667C14.9578 20.3433 14.7507 20.4816 14.3562 20.4816C14.032 20.4816 13.7859 20.3433 13.6218 20.0667L4.19995 4.14575H4.12183L4.18433 16.689C4.19214 17.2569 4.22339 17.6914 4.27808 17.9927C4.32886 18.2988 4.46558 18.5606 4.68433 18.7828C4.91089 19.01 5.26636 19.1186 5.74683 19.1186H5.90308C6.06714 19.1186 6.18823 19.1581 6.26245 19.2371C6.33276 19.3062 6.37964 19.489 6.40308 19.7902C6.40308 19.9779 6.36401 20.1408 6.2937 20.284C6.21948 20.4124 6.1062 20.4816 5.94995 20.4816C4.88745 20.4124 4.07886 20.3828 3.52808 20.3828C3.19214 20.3828 2.61011 20.4025 1.77808 20.442L1.19995 20.4816Z" fill="black"/>
</svg>
