<svg width="17" height="21" viewBox="0 0 17 21" fill="none" xmlns="http://www.w3.org/2000/svg">
<path d="M0.693115 20.4816C0.544678 20.4816 0.431396 20.4124 0.349365 20.284C0.275146 20.1408 0.23999 19.9779 0.23999 19.7902C0.259521 19.4741 0.310302 19.2865 0.39624 19.2174C0.478271 19.1532 0.634521 19.1186 0.86499 19.1186C1.35327 19.1186 1.70874 19.01 1.92749 18.7828C2.15405 18.5606 2.29468 18.2988 2.34937 17.9927C2.40015 17.6914 2.4314 17.2569 2.44312 16.689L2.48999 4.14575C2.48999 3.51365 2.4353 3.03464 2.33374 2.70378C2.22827 2.37785 2.0564 2.14081 1.81812 1.99267C1.58765 1.84946 1.25562 1.726 0.818115 1.61736C0.536865 1.55316 0.357178 1.48896 0.286865 1.41983C0.224365 1.35563 0.193115 1.17785 0.193115 0.886493C0.193115 0.639579 0.243896 0.471678 0.349365 0.392666C0.462646 0.303778 0.634521 0.254395 0.86499 0.254395C1.90405 0.254395 2.72437 0.348222 3.31812 0.530938C3.91968 0.703778 4.45093 1.01983 4.91187 1.47909C5.3689 1.94328 5.8728 2.64452 6.42749 3.59267L13.2712 14.9704H13.3494L13.3025 4.14575C13.2791 3.56798 13.2439 3.12847 13.1931 2.8223C13.1384 2.52106 12.9978 2.25933 12.7712 2.03217C12.5525 1.80995 12.2009 1.69637 11.7244 1.69637H11.5681C11.4001 1.69637 11.2791 1.66674 11.2087 1.5976C11.1345 1.51859 11.0876 1.33588 11.0681 1.04452C11.0681 0.846987 11.1072 0.684025 11.1931 0.550691C11.2751 0.422296 11.3845 0.35316 11.5212 0.35316C12.5837 0.407481 13.3845 0.432172 13.9275 0.432172C14.24 0.432172 14.8416 0.412419 15.74 0.372913L16.2712 0.35316C16.4158 0.35316 16.5251 0.422296 16.5994 0.550691C16.6814 0.684025 16.7244 0.846987 16.7244 1.04452C16.7009 1.36057 16.6501 1.55316 16.5681 1.61736C16.4822 1.67168 16.3259 1.69637 16.0994 1.69637C15.6072 1.69637 15.2478 1.80995 15.0212 2.03217C14.8025 2.25933 14.6658 2.52106 14.615 2.8223C14.572 3.12847 14.5408 3.56798 14.5212 4.14575L14.4744 20.0667C14.4509 20.3433 14.2439 20.4816 13.8494 20.4816C13.5251 20.4816 13.2791 20.3433 13.115 20.0667L3.69312 4.14575H3.61499L3.67749 16.689C3.6853 17.2569 3.71655 17.6914 3.77124 17.9927C3.82202 18.2988 3.95874 18.5606 4.17749 18.7828C4.40405 19.01 4.75952 19.1186 5.23999 19.1186H5.39624C5.5603 19.1186 5.6814 19.1581 5.75562 19.2371C5.82593 19.3062 5.8728 19.489 5.89624 19.7902C5.89624 19.9779 5.85718 20.1408 5.78687 20.284C5.71265 20.4124 5.59937 20.4816 5.44312 20.4816C4.38062 20.4124 3.57202 20.3828 3.02124 20.3828C2.6853 20.3828 2.10327 20.4025 1.27124 20.442L0.693115 20.4816Z" fill="black"/>
</svg>
