<svg width="10" height="12" viewBox="0 0 10 12" fill="none" xmlns="http://www.w3.org/2000/svg">
<path d="M9.53894 5.64869C9.53894 5.96474 9.52332 6.29561 9.49207 6.63635H3.33582C3.37488 7.33758 3.55457 7.87586 3.86707 8.2561C4.17957 8.62647 4.56238 8.80919 5.02332 8.80919C5.6991 8.80919 6.16785 8.44376 6.42957 7.70302H9.33582C9.18738 8.45363 8.91785 9.12524 8.52332 9.71783C8.1366 10.3005 7.65222 10.7598 7.07019 11.1005C6.48425 11.4314 5.83582 11.5944 5.11707 11.5944C4.24207 11.5944 3.46472 11.3672 2.78894 10.903C2.10925 10.4289 1.578 9.75734 1.19519 8.8882C0.82019 8.00919 0.63269 6.98697 0.63269 5.82647C0.63269 4.6561 0.82019 3.63388 1.19519 2.76474C1.57019 1.89561 2.09363 1.224 2.77332 0.749929C3.4491 0.275855 4.23035 0.0388184 5.11707 0.0388184C5.96863 0.0388184 6.73035 0.270917 7.39832 0.730176C8.0741 1.19437 8.60144 1.84623 8.97644 2.68573C9.35144 3.53018 9.53894 4.51783 9.53894 5.64869ZM6.75769 4.74005C6.75769 4.14746 6.59363 3.68326 6.27332 3.33758C5.96082 2.98203 5.56238 2.80425 5.08582 2.80425C4.62488 2.80425 4.24207 2.97709 3.92957 3.31783C3.61707 3.64869 3.42175 4.12277 3.35144 4.74005H6.75769Z" fill="white"/>
</svg>
