<svg width="10" height="12" viewBox="0 0 10 12" fill="none" xmlns="http://www.w3.org/2000/svg">
<path d="M0.104736 5.80672C0.104736 4.65116 0.276611 3.63388 0.620361 2.76474C0.964111 1.89561 1.43286 1.224 2.02661 0.749929C2.62036 0.275855 3.28052 0.0388184 4.01099 0.0388184C4.63599 0.0388184 5.18286 0.20672 5.65161 0.532645C6.12817 0.848695 6.49536 1.27339 6.74536 1.79684V0.196843H9.47974V11.4363H6.74536V9.83635C6.48364 10.3647 6.11255 10.7944 5.63599 11.1203C5.16724 11.4363 4.62036 11.5944 3.99536 11.5944C3.27661 11.5944 2.62036 11.3573 2.02661 10.8833C1.43286 10.4092 0.964111 9.73265 0.620361 8.84869C0.276611 7.96968 0.104736 6.9524 0.104736 5.80672ZM6.74536 5.82647C6.74536 4.95734 6.55786 4.28079 6.18286 3.7919C5.80786 3.29314 5.34692 3.04129 4.80786 3.04129C4.26489 3.04129 3.80786 3.2882 3.43286 3.77215C3.05786 4.26104 2.87036 4.93758 2.87036 5.80672C2.87036 6.66598 3.05786 7.34252 3.43286 7.84129C3.80786 8.34499 4.26489 8.5919 4.80786 8.5919C5.34692 8.5919 5.80786 8.34993 6.18286 7.86104C6.55786 7.36228 6.74536 6.68573 6.74536 5.82647Z" fill="white"/>
</svg>
