<svg width="14" height="22" viewBox="0 0 14 22" fill="none" xmlns="http://www.w3.org/2000/svg">
<path d="M0.699463 21.0962C0.562744 21.0962 0.457275 21.027 0.386963 20.8986C0.312744 20.7554 0.277588 20.5925 0.277588 20.4048C0.285401 20.0888 0.332275 19.9011 0.418213 19.832C0.500244 19.7678 0.660401 19.7332 0.902588 19.7332C1.37915 19.7332 1.73462 19.6246 1.96509 19.3974C2.20337 19.1752 2.3479 18.9036 2.40259 18.5875C2.46509 18.2616 2.50415 17.832 2.52759 17.3036V4.76037C2.50415 4.23691 2.46509 3.80728 2.40259 3.47642C2.3479 3.15049 2.20337 2.87395 1.96509 2.64679C1.73462 2.42456 1.37915 2.31098 0.902588 2.31098H0.746338C0.578369 2.31098 0.457275 2.28135 0.386963 2.21222C0.324463 2.13321 0.285401 1.95049 0.277588 1.65913C0.277588 1.4616 0.312744 1.29864 0.386963 1.1653C0.457275 1.03691 0.562744 0.967773 0.699463 0.967773C1.80103 1.02209 2.79321 1.04679 3.66821 1.04679C4.66821 1.04679 5.70728 1.02209 6.79321 0.967773C6.94946 0.967773 7.06274 1.03691 7.13696 1.1653C7.20728 1.29864 7.24634 1.4616 7.24634 1.65913C7.23462 1.97518 7.18384 2.16777 7.09009 2.23197C6.99634 2.28629 6.84009 2.31098 6.62134 2.31098C6.14087 2.31098 5.78149 2.42456 5.54321 2.64679C5.31274 2.87395 5.16821 3.15049 5.10571 3.47642C5.05103 3.80728 5.01587 4.23691 4.99634 4.76037V17.7777C5.02759 18.2122 5.06665 18.5579 5.12134 18.8048C5.17212 19.0418 5.32446 19.269 5.57446 19.4764C5.82446 19.6739 6.21509 19.7628 6.74634 19.7332H8.99634C9.57837 19.7085 10.0198 19.59 10.3245 19.3777C10.6252 19.1554 10.8596 18.8147 11.0276 18.3505C11.2034 17.8764 11.4182 17.1159 11.6682 16.0591C11.7932 15.6937 12.0784 15.5456 12.5276 15.6246C12.6721 15.6641 12.8127 15.753 12.9495 15.8814C13.0823 15.9999 13.1409 16.1579 13.1213 16.3554L12.6213 20.3258C12.5667 20.6023 12.4885 20.79 12.387 20.8789C12.2932 20.9579 12.1292 20.9974 11.9026 20.9974H3.69946C2.80103 20.9974 1.80103 21.027 0.699463 21.0962Z" fill="black"/>
</svg>
