<svg width="17" height="21" viewBox="0 0 17 21" fill="none" xmlns="http://www.w3.org/2000/svg">
<path d="M1.42773 20.4814C1.27148 20.4814 1.1543 20.4123 1.08398 20.2839C1.00977 20.1407 0.974609 19.9777 0.974609 19.7901C0.982422 19.474 1.0293 19.2864 1.11523 19.2172C1.19727 19.153 1.35742 19.1185 1.59961 19.1185C2.07617 19.1185 2.43164 19.0098 2.66211 18.7827C2.90039 18.5604 3.04492 18.2888 3.09961 17.9728C3.16211 17.6469 3.20117 17.2172 3.22461 16.6888V4.16537C3.20117 3.6271 3.16211 3.19747 3.09961 2.88142C3.04492 2.56537 2.90039 2.28883 2.66211 2.05179C2.43164 1.81476 2.07617 1.69624 1.59961 1.69624H1.44336C1.27539 1.69624 1.1543 1.66661 1.08398 1.59747C1.02148 1.51846 0.982422 1.33574 0.974609 1.04439C0.974609 0.846855 1.00977 0.683892 1.08398 0.550558C1.1543 0.422164 1.27148 0.353027 1.42773 0.353027C2.50977 0.407349 3.49805 0.43204 4.39648 0.43204H8.69336C9.97461 0.46167 11.041 0.723398 11.8965 1.22216C12.7598 1.71105 13.3887 2.34315 13.7871 3.11846C14.1934 3.88389 14.3965 4.70858 14.3965 5.5876C14.3965 6.74809 14.0293 7.81476 13.3027 8.7876C12.584 9.75056 11.5996 10.4419 10.3496 10.8617L10.7715 11.7308C11.4668 13.153 12.0996 14.3777 12.6621 15.4049C13.2324 16.432 13.8535 17.3901 14.5215 18.2691C14.9902 18.758 15.4902 19.0394 16.0215 19.1185C16.0527 19.1185 16.123 19.1283 16.2402 19.1382C16.3652 19.153 16.4629 19.2123 16.5371 19.316C16.6074 19.4246 16.6465 19.5827 16.6465 19.7901C16.6465 19.9777 16.6074 20.1407 16.5371 20.2839C16.4629 20.4123 16.3496 20.4814 16.1934 20.4814L15.5527 20.4419C14.8105 20.4024 14.2754 20.3827 13.9434 20.3827C13.2754 20.2148 12.7012 19.9185 12.2246 19.4938C11.7559 19.0592 11.2871 18.4419 10.8184 17.637C10.3379 16.837 9.66602 15.5234 8.80273 13.7061L8.34961 12.7975C8.09961 12.3135 7.85352 11.9827 7.61523 11.8098C7.38477 11.6271 6.99023 11.5333 6.42773 11.5333H5.69336V16.6888C5.71289 17.2172 5.74805 17.6469 5.80273 17.9728C5.86523 18.2888 6.00977 18.5604 6.24023 18.7827C6.47852 19.0098 6.83789 19.1185 7.31836 19.1185H7.47461C7.61914 19.1185 7.72852 19.158 7.80273 19.237C7.88477 19.3061 7.93164 19.4888 7.94336 19.7901C7.94336 19.9777 7.9043 20.1407 7.83398 20.2839C7.75977 20.4123 7.64648 20.4814 7.49023 20.4814C6.42773 20.4123 5.38477 20.3827 4.36523 20.3827C3.49023 20.3827 2.50977 20.4123 1.42773 20.4814ZM7.89648 10.3086C10.373 10.3086 11.6152 8.83698 11.6152 5.88389C11.6152 4.67402 11.291 3.66167 10.6465 2.84192C9.99805 2.0271 8.93164 1.61723 7.44336 1.61723C6.96289 1.61723 6.59961 1.6913 6.34961 1.83451C6.09961 1.98266 5.92773 2.22957 5.83398 2.58513C5.74023 2.94068 5.69336 3.48883 5.69336 4.22463V10.3086H7.89648Z" fill="black"/>
</svg>
