<svg width="14" height="21" viewBox="0 0 14 21" fill="none" xmlns="http://www.w3.org/2000/svg">
<path d="M1.21399 20.4814C1.07727 20.4814 0.971801 20.4123 0.901489 20.2839C0.82727 20.1407 0.792114 19.9777 0.792114 19.7901C0.799927 19.474 0.846801 19.2864 0.932739 19.2172C1.01477 19.153 1.17493 19.1185 1.41711 19.1185C1.89368 19.1185 2.24915 19.0098 2.47961 18.7827C2.7179 18.5604 2.86243 18.2888 2.91711 17.9728C2.97961 17.6469 3.01868 17.2172 3.04211 16.6888V4.14562C3.01868 3.62216 2.97961 3.19253 2.91711 2.86167C2.86243 2.53574 2.7179 2.2592 2.47961 2.03204C2.24915 1.80982 1.89368 1.69624 1.41711 1.69624H1.26086C1.0929 1.69624 0.971801 1.66661 0.901489 1.59747C0.838989 1.51846 0.799927 1.33574 0.792114 1.04439C0.792114 0.846855 0.82727 0.683892 0.901489 0.550558C0.971801 0.422164 1.07727 0.353027 1.21399 0.353027C2.31555 0.407349 3.30774 0.43204 4.18274 0.43204H12.0421C12.4679 0.43204 12.6827 0.68883 12.6827 1.20241L12.7609 5.6271C12.7609 5.81476 12.6827 5.9629 12.5265 6.08142C12.3781 6.19994 12.2335 6.2592 12.089 6.2592C11.8898 6.2592 11.714 6.21476 11.5577 6.12093C11.4093 6.01723 11.3273 5.87402 11.3077 5.68636C11.1827 4.6592 11.0343 3.87895 10.8702 3.33574C10.714 2.79747 10.4796 2.39747 10.1671 2.13081C9.86243 1.86908 9.43274 1.72587 8.87024 1.69624H5.51086V9.73574H10.0421C10.1554 9.75056 10.2452 9.82957 10.3077 9.97278C10.3781 10.1061 10.4171 10.2691 10.4171 10.4666C10.4171 10.6246 10.3781 10.7728 10.3077 10.9012C10.2452 11.0345 10.1554 11.0987 10.0421 11.0987H5.51086V17.0641C5.54211 17.5135 5.58118 17.8691 5.63586 18.1308C5.68665 18.3975 5.83899 18.6345 6.08899 18.8419C6.33899 19.0543 6.72961 19.1481 7.26087 19.1185H9.55774C10.1398 19.0938 10.5812 18.9753 10.8859 18.7629C11.1866 18.5407 11.4249 18.1999 11.6046 17.7357C11.7804 17.2617 11.9952 16.5012 12.2452 15.4444C12.3585 15.079 12.6398 14.9308 13.089 15.0098C13.2531 15.0493 13.4015 15.1382 13.5265 15.2666C13.6515 15.3851 13.7023 15.5432 13.6827 15.7407L13.1827 19.7111C13.1398 19.9876 13.0656 20.1753 12.964 20.2641C12.8585 20.3432 12.6906 20.3827 12.464 20.3827H4.21399C3.31555 20.3827 2.31555 20.4123 1.21399 20.4814Z" fill="black"/>
</svg>
