<svg width="18" height="22" viewBox="0 0 18 22" fill="none" xmlns="http://www.w3.org/2000/svg">
<path d="M1.10815 21.0963C0.959717 21.0963 0.846435 21.0272 0.764404 20.8988C0.690185 20.7556 0.655029 20.5926 0.655029 20.4049C0.67456 20.0889 0.725341 19.9012 0.811279 19.8321C0.89331 19.7679 1.04956 19.7333 1.28003 19.7333C1.76831 19.7333 2.12378 19.6247 2.34253 19.3975C2.56909 19.1753 2.70972 18.9136 2.7644 18.6074C2.81519 18.3062 2.84644 17.8716 2.85815 17.3037L2.90503 4.7605C2.90503 4.1284 2.85034 3.64939 2.74878 3.31852C2.64331 2.9926 2.47144 2.75556 2.23315 2.60741C2.00269 2.4642 1.67065 2.34075 1.23315 2.2321C0.951904 2.16791 0.772217 2.10371 0.701904 2.03457C0.639404 1.97038 0.608154 1.7926 0.608154 1.50124C0.608154 1.25433 0.658935 1.08642 0.764404 1.00741C0.877685 0.918524 1.04956 0.869141 1.28003 0.869141C2.31909 0.869141 3.1394 0.962968 3.73315 1.14568C4.33472 1.31852 4.86597 1.63457 5.3269 2.09383C5.78394 2.55803 6.28784 3.25926 6.84253 4.20741L13.6863 15.5852H13.7644L13.7175 4.7605C13.6941 4.18272 13.6589 3.74321 13.6082 3.43704C13.5535 3.13581 13.4128 2.87408 13.1863 2.64692C12.9675 2.4247 12.616 2.31112 12.1394 2.31112H11.9832C11.8152 2.31112 11.6941 2.28149 11.6238 2.21235C11.5496 2.13334 11.5027 1.95062 11.4832 1.65926C11.4832 1.46173 11.5222 1.29877 11.6082 1.16544C11.6902 1.03704 11.7996 0.967906 11.9363 0.967906C12.9988 1.02223 13.7996 1.04692 14.3425 1.04692C14.655 1.04692 15.2566 1.02717 16.155 0.987659L16.6863 0.967906C16.8308 0.967906 16.9402 1.03704 17.0144 1.16544C17.0964 1.29877 17.1394 1.46173 17.1394 1.65926C17.116 1.97531 17.0652 2.16791 16.9832 2.2321C16.8972 2.28642 16.741 2.31112 16.5144 2.31112C16.0222 2.31112 15.6628 2.4247 15.4363 2.64692C15.2175 2.87408 15.0808 3.13581 15.03 3.43704C14.9871 3.74321 14.9558 4.18272 14.9363 4.7605L14.8894 20.6815C14.866 20.958 14.6589 21.0963 14.2644 21.0963C13.9402 21.0963 13.6941 20.958 13.53 20.6815L4.10815 4.7605H4.03003L4.09253 17.3037C4.10034 17.8716 4.13159 18.3062 4.18628 18.6074C4.23706 18.9136 4.37378 19.1753 4.59253 19.3975C4.81909 19.6247 5.17456 19.7333 5.65503 19.7333H5.81128C5.97534 19.7333 6.09644 19.7728 6.17065 19.8519C6.24097 19.921 6.28784 20.1037 6.31128 20.4049C6.31128 20.5926 6.27222 20.7556 6.2019 20.8988C6.12769 21.0272 6.0144 21.0963 5.85815 21.0963C4.79565 21.0272 3.98706 20.9975 3.43628 20.9975C3.10034 20.9975 2.51831 21.0173 1.68628 21.0568L1.10815 21.0963Z" fill="black"/>
</svg>
