<svg width="17" height="22" viewBox="0 0 17 22" fill="none" xmlns="http://www.w3.org/2000/svg">
<path d="M0.491699 21.0963C0.335449 21.0963 0.222168 21.0272 0.147949 20.8988C0.0776372 20.7556 0.0385742 20.5926 0.0385742 20.4049C0.0502932 20.0889 0.0971682 19.9012 0.179199 19.8321C0.265137 19.7679 0.358887 19.7333 0.476074 19.7333C0.601074 19.7333 0.679199 19.7333 0.710449 19.7333C1.21045 19.7333 1.57373 19.5704 1.8042 19.2395C2.04248 18.9136 2.22998 18.5432 2.3667 18.1333C2.51123 17.7284 2.60889 17.4519 2.66357 17.3037L7.03857 4.20741C7.13232 3.89136 7.1792 3.64445 7.1792 3.45679C7.1792 3.07655 7.06201 2.80494 6.83545 2.64692C6.60498 2.47902 6.28076 2.34075 5.8667 2.2321C5.57373 2.16791 5.39795 2.10371 5.33545 2.03457C5.27295 1.97038 5.2417 1.7926 5.2417 1.50124C5.2417 1.25433 5.29248 1.08642 5.39795 1.00741C5.49951 0.918524 5.67139 0.869141 5.91357 0.869141C6.74561 0.869141 7.40576 0.948153 7.89795 1.10618C8.38623 1.2642 8.81201 1.58025 9.1792 2.05433C9.5542 2.5284 9.89795 3.24939 10.2104 4.20741L14.4136 17.3037C14.6636 18.1086 14.9019 18.7062 15.1323 19.1012C15.3706 19.4963 15.7183 19.7086 16.1792 19.7333H16.3354C16.4995 19.7333 16.6167 19.7728 16.6792 19.8519C16.7495 19.921 16.7925 20.1037 16.8042 20.4049C16.8042 20.5926 16.7651 20.7556 16.6948 20.8988C16.6206 21.0272 16.5112 21.0963 16.3667 21.0963C15.2925 21.0272 14.3745 20.9975 13.6167 20.9975C12.6167 20.9975 11.5776 21.0272 10.5073 21.0963C10.3589 21.0963 10.2456 21.0272 10.1636 20.8988C10.0894 20.7556 10.0542 20.5926 10.0542 20.4049C10.0737 20.1037 10.1167 19.921 10.1792 19.8519C10.2495 19.7728 10.3706 19.7333 10.5386 19.7333C11.1011 19.7333 11.4956 19.6691 11.7261 19.5358C11.9644 19.3926 12.0854 19.1407 12.0854 18.7852C12.0854 18.5086 11.9839 18.0148 11.7886 17.3037L10.9292 14.6765H4.75732C4.33936 15.9803 4.10107 16.7407 4.03857 16.9482C3.98389 17.1605 3.96045 17.279 3.96045 17.3037C3.76123 18.1086 3.66357 18.6222 3.66357 18.8444C3.66357 19.2 3.78857 19.437 4.03857 19.5556C4.28857 19.6741 4.76123 19.7333 5.46045 19.7333H5.6167C5.78076 19.7333 5.89795 19.7728 5.96045 19.8519C6.02295 19.921 6.06201 20.1037 6.08545 20.4049C6.08545 20.5926 6.04639 20.7556 5.97607 20.8988C5.90185 21.0272 5.78857 21.0963 5.63232 21.0963C4.56982 21.0272 3.66357 20.9975 2.91357 20.9975C2.38232 20.9975 1.57373 21.0272 0.491699 21.0963ZM5.2417 13.3136H10.4917L7.96045 5.19507H7.88232L5.2417 13.3136Z" fill="black"/>
</svg>
