<svg width="15" height="23" viewBox="0 0 15 23" fill="none" xmlns="http://www.w3.org/2000/svg">
<path d="M8.3927 22.0146C6.97473 22.0146 5.67786 21.585 4.50208 20.7307C3.32239 19.8763 2.38489 18.6566 1.68958 17.0763C1.00208 15.4961 0.658325 13.6541 0.658325 11.5455C0.658325 9.42697 0.990356 7.55536 1.65833 5.93561C2.32239 4.30598 3.27161 3.04178 4.50208 2.14301C5.74036 1.24919 7.18958 0.799805 8.84583 0.799805C10.2716 0.799805 11.5411 1.17018 12.6583 1.90598C13.7833 2.6319 14.3458 3.75289 14.3458 5.264C14.3536 6.21215 14.1271 7.02203 13.6583 7.69363C13.1974 8.35536 12.5724 8.68129 11.7833 8.68129C11.4904 8.68129 11.2404 8.61709 11.0333 8.48376C10.8224 8.34055 10.6661 8.17758 10.5646 7.98993C10.4591 7.7924 10.4161 7.64425 10.4396 7.53561C10.4396 7.4961 10.5529 7.38746 10.7833 7.1998C11.0216 7.00227 11.2286 6.74055 11.4083 6.40968C11.5958 6.06894 11.6896 5.65413 11.6896 5.16524C11.6896 4.21709 11.4318 3.46647 10.924 2.91338C10.4122 2.35042 9.70911 2.064 8.81458 2.064C7.79114 2.064 6.88489 2.43437 6.09583 3.17018C5.30286 3.8961 4.68958 4.96277 4.25208 6.37018C3.81458 7.76771 3.59583 9.4319 3.59583 11.3677C3.59583 13.0566 3.8302 14.5875 4.29895 15.9702C4.77551 17.343 5.44739 18.4344 6.31458 19.2492C7.17786 20.0689 8.16614 20.4739 9.28333 20.4739C10.1896 20.4739 10.9591 20.2368 11.5958 19.7628C12.2404 19.2887 12.8224 18.5282 13.3458 17.4714C13.4279 17.2739 13.5411 17.1751 13.6896 17.1751C13.8224 17.1751 13.9747 17.2442 14.1427 17.3726C14.4005 17.5998 14.5333 17.827 14.5333 18.064C14.5333 18.1973 14.5021 18.301 14.4396 18.3801C13.8029 19.3973 13.2052 20.1578 12.6427 20.6714C12.088 21.185 11.4865 21.5307 10.8302 21.7183C10.1818 21.9159 9.36926 22.0146 8.3927 22.0146Z" fill="black"/>
</svg>
