<svg width="11" height="12" viewBox="0 0 11 12" fill="none" xmlns="http://www.w3.org/2000/svg">
<path d="M5.51733 11.5944C4.64233 11.5944 3.85327 11.3672 3.15796 10.903C2.47046 10.4289 1.92749 9.75734 1.53296 8.8882C1.13452 8.00919 0.939209 6.98697 0.939209 5.82647C0.939209 4.67092 1.13452 3.65363 1.53296 2.7845C1.93921 1.90549 2.48999 1.224 3.18921 0.749929C3.88452 0.275855 4.67358 0.0388184 5.54858 0.0388184C6.42358 0.0388184 7.20874 0.275855 7.90796 0.749929C8.60327 1.224 9.15796 1.90549 9.56421 2.7845C9.97046 3.65363 10.1736 4.67092 10.1736 5.82647C10.1736 6.97215 9.96265 7.98944 9.54858 8.86845C9.14233 9.7524 8.58374 10.4289 7.87671 10.903C7.17749 11.3672 6.39233 11.5944 5.51733 11.5944ZM5.51733 8.61166C6.03687 8.61166 6.47827 8.37462 6.84546 7.90055C7.20874 7.41659 7.39233 6.72524 7.39233 5.82647C7.39233 4.91783 7.21265 4.22647 6.86108 3.7524C6.50562 3.26845 6.06812 3.02153 5.54858 3.02153C5.01733 3.02153 4.57202 3.25857 4.22046 3.73265C3.87671 4.20672 3.70483 4.90795 3.70483 5.82647C3.70483 6.72524 3.87671 7.41659 4.22046 7.90055C4.56421 8.37462 4.9939 8.61166 5.51733 8.61166Z" fill="white"/>
</svg>
