<svg width="18" height="22" viewBox="0 0 18 22" fill="none" xmlns="http://www.w3.org/2000/svg">
<path d="M1.43188 21.0963C1.27563 21.0963 1.16235 21.0272 1.08813 20.8988C1.01782 20.7556 0.97876 20.5926 0.97876 20.4049C0.990479 20.0889 1.03735 19.9012 1.11938 19.8321C1.20532 19.7679 1.29907 19.7333 1.41626 19.7333C1.54126 19.7333 1.61938 19.7333 1.65063 19.7333C2.15063 19.7333 2.51392 19.5704 2.74438 19.2395C2.98267 18.9136 3.17017 18.5432 3.30688 18.1333C3.45142 17.7284 3.54907 17.4519 3.60376 17.3037L7.97876 4.20741C8.07251 3.89136 8.11938 3.64445 8.11938 3.45679C8.11938 3.07655 8.0022 2.80494 7.77563 2.64692C7.54517 2.47902 7.22095 2.34075 6.80688 2.2321C6.51392 2.16791 6.33813 2.10371 6.27563 2.03457C6.21313 1.97038 6.18188 1.7926 6.18188 1.50124C6.18188 1.25433 6.23267 1.08642 6.33813 1.00741C6.4397 0.918524 6.61157 0.869141 6.85376 0.869141C7.68579 0.869141 8.34595 0.948153 8.83813 1.10618C9.32642 1.2642 9.7522 1.58025 10.1194 2.05433C10.4944 2.5284 10.8381 3.24939 11.1506 4.20741L15.3538 17.3037C15.6038 18.1086 15.842 18.7062 16.0725 19.1012C16.3108 19.4963 16.6584 19.7086 17.1194 19.7333H17.2756C17.4397 19.7333 17.5569 19.7728 17.6194 19.8519C17.6897 19.921 17.7327 20.1037 17.7444 20.4049C17.7444 20.5926 17.7053 20.7556 17.635 20.8988C17.5608 21.0272 17.4514 21.0963 17.3069 21.0963C16.2327 21.0272 15.3147 20.9975 14.5569 20.9975C13.5569 20.9975 12.5178 21.0272 11.4475 21.0963C11.2991 21.0963 11.1858 21.0272 11.1038 20.8988C11.0295 20.7556 10.9944 20.5926 10.9944 20.4049C11.0139 20.1037 11.0569 19.921 11.1194 19.8519C11.1897 19.7728 11.3108 19.7333 11.4788 19.7333C12.0413 19.7333 12.4358 19.6691 12.6663 19.5358C12.9045 19.3926 13.0256 19.1407 13.0256 18.7852C13.0256 18.5086 12.9241 18.0148 12.7288 17.3037L11.8694 14.6765H5.69751C5.27954 15.9803 5.04126 16.7407 4.97876 16.9482C4.92407 17.1605 4.90063 17.279 4.90063 17.3037C4.70142 18.1086 4.60376 18.6222 4.60376 18.8444C4.60376 19.2 4.72876 19.437 4.97876 19.5556C5.22876 19.6741 5.70142 19.7333 6.40063 19.7333H6.55688C6.72095 19.7333 6.83813 19.7728 6.90063 19.8519C6.96313 19.921 7.0022 20.1037 7.02563 20.4049C7.02563 20.5926 6.98657 20.7556 6.91626 20.8988C6.84204 21.0272 6.72876 21.0963 6.57251 21.0963C5.51001 21.0272 4.60376 20.9975 3.85376 20.9975C3.32251 20.9975 2.51392 21.0272 1.43188 21.0963ZM6.18188 13.3136H11.4319L8.90063 5.19507H8.82251L6.18188 13.3136Z" fill="black"/>
</svg>
