<svg width="17" height="22" viewBox="0 0 17 22" fill="none" xmlns="http://www.w3.org/2000/svg">
<path d="M0.791138 21.0963C0.642701 21.0963 0.529419 21.0272 0.447388 20.8988C0.373169 20.7556 0.338013 20.5926 0.338013 20.4049C0.357544 20.0889 0.408325 19.9012 0.494263 19.8321C0.576294 19.7679 0.732544 19.7333 0.963013 19.7333C1.45129 19.7333 1.80676 19.6247 2.02551 19.3975C2.25207 19.1753 2.3927 18.9136 2.44739 18.6074C2.49817 18.3062 2.52942 17.8716 2.54114 17.3037L2.58801 4.7605C2.58801 4.1284 2.53332 3.64939 2.43176 3.31852C2.32629 2.9926 2.15442 2.75556 1.91614 2.60741C1.68567 2.4642 1.35364 2.34075 0.916138 2.2321C0.634888 2.16791 0.455201 2.10371 0.384888 2.03457C0.322388 1.97038 0.291138 1.7926 0.291138 1.50124C0.291138 1.25433 0.341919 1.08642 0.447388 1.00741C0.560669 0.918524 0.732544 0.869141 0.963013 0.869141C2.00207 0.869141 2.82239 0.962968 3.41614 1.14568C4.0177 1.31852 4.54895 1.63457 5.00989 2.09383C5.46692 2.55803 5.97082 3.25926 6.52551 4.20741L13.3693 15.5852H13.4474L13.4005 4.7605C13.3771 4.18272 13.3419 3.74321 13.2911 3.43704C13.2365 3.13581 13.0958 2.87408 12.8693 2.64692C12.6505 2.4247 12.299 2.31112 11.8224 2.31112H11.6661C11.4982 2.31112 11.3771 2.28149 11.3068 2.21235C11.2325 2.13334 11.1857 1.95062 11.1661 1.65926C11.1661 1.46173 11.2052 1.29877 11.2911 1.16544C11.3732 1.03704 11.4825 0.967906 11.6193 0.967906C12.6818 1.02223 13.4825 1.04692 14.0255 1.04692C14.338 1.04692 14.9396 1.02717 15.838 0.987659L16.3693 0.967906C16.5138 0.967906 16.6232 1.03704 16.6974 1.16544C16.7794 1.29877 16.8224 1.46173 16.8224 1.65926C16.799 1.97531 16.7482 2.16791 16.6661 2.2321C16.5802 2.28642 16.424 2.31112 16.1974 2.31112C15.7052 2.31112 15.3458 2.4247 15.1193 2.64692C14.9005 2.87408 14.7638 3.13581 14.713 3.43704C14.67 3.74321 14.6388 4.18272 14.6193 4.7605L14.5724 20.6815C14.549 20.958 14.3419 21.0963 13.9474 21.0963C13.6232 21.0963 13.3771 20.958 13.213 20.6815L3.79114 4.7605H3.71301L3.77551 17.3037C3.78332 17.8716 3.81457 18.3062 3.86926 18.6074C3.92004 18.9136 4.05676 19.1753 4.27551 19.3975C4.50207 19.6247 4.85754 19.7333 5.33801 19.7333H5.49426C5.65832 19.7333 5.77942 19.7728 5.85364 19.8519C5.92395 19.921 5.97082 20.1037 5.99426 20.4049C5.99426 20.5926 5.9552 20.7556 5.88489 20.8988C5.81067 21.0272 5.69739 21.0963 5.54114 21.0963C4.47864 21.0272 3.67004 20.9975 3.11926 20.9975C2.78332 20.9975 2.20129 21.0173 1.36926 21.0568L0.791138 21.0963Z" fill="black"/>
</svg>
