<svg width="9" height="12" viewBox="0 0 9 12" fill="none" xmlns="http://www.w3.org/2000/svg">
<path d="M-0.00292969 5.82647C-0.00292969 4.6561 0.18457 3.63388 0.55957 2.76474C0.93457 1.89561 1.4541 1.224 2.12207 0.749929C2.79785 0.275855 3.5752 0.0388184 4.4502 0.0388184C5.56348 0.0388184 6.49707 0.409189 7.24707 1.14499C7.99707 1.88573 8.48535 2.92277 8.71582 4.26598H5.80957C5.56738 3.41166 5.09863 2.98203 4.40332 2.98203C3.90332 2.98203 3.50098 3.22894 3.2002 3.71289C2.90723 4.20178 2.7627 4.90795 2.7627 5.82647C2.7627 6.73511 2.90723 7.43635 3.2002 7.9203C3.50098 8.40919 3.90332 8.65116 4.40332 8.65116C5.09863 8.65116 5.56738 8.22647 5.80957 7.36721H8.71582C8.48535 8.68573 7.98926 9.71783 7.23145 10.4684C6.48145 11.2191 5.55176 11.5944 4.4502 11.5944C3.5752 11.5944 2.79785 11.3672 2.12207 10.903C1.4541 10.4289 0.93457 9.75734 0.55957 8.8882C0.18457 8.00919 -0.00292969 6.98697 -0.00292969 5.82647Z" fill="white"/>
</svg>
