<svg width="10" height="12" viewBox="0 0 10 12" fill="none" xmlns="http://www.w3.org/2000/svg">
<path d="M9.46228 5.64869C9.46228 5.96474 9.44666 6.29561 9.41541 6.63635H3.25916C3.29822 7.33758 3.47791 7.87586 3.79041 8.2561C4.10291 8.62647 4.48572 8.80919 4.94666 8.80919C5.62244 8.80919 6.09119 8.44376 6.35291 7.70302H9.25916C9.11072 8.45363 8.84119 9.12524 8.44666 9.71783C8.05994 10.3005 7.57556 10.7598 6.99353 11.1005C6.40759 11.4314 5.75916 11.5944 5.04041 11.5944C4.16541 11.5944 3.38806 11.3672 2.71228 10.903C2.03259 10.4289 1.50134 9.75734 1.11853 8.8882C0.74353 8.00919 0.55603 6.98697 0.55603 5.82647C0.55603 4.6561 0.74353 3.63388 1.11853 2.76474C1.49353 1.89561 2.01697 1.224 2.69666 0.749929C3.37244 0.275855 4.15369 0.0388184 5.04041 0.0388184C5.89197 0.0388184 6.65369 0.270917 7.32166 0.730176C7.99744 1.19437 8.52478 1.84623 8.89978 2.68573C9.27478 3.53018 9.46228 4.51783 9.46228 5.64869ZM6.68103 4.74005C6.68103 4.14746 6.51697 3.68326 6.19666 3.33758C5.88416 2.98203 5.48572 2.80425 5.00916 2.80425C4.54822 2.80425 4.16541 2.97709 3.85291 3.31783C3.54041 3.64869 3.34509 4.12277 3.27478 4.74005H6.68103Z" fill="white"/>
</svg>
