<svg width="19" height="21" viewBox="0 0 19 21" fill="none" xmlns="http://www.w3.org/2000/svg">
<path d="M1.44006 20.4814C1.28381 20.4814 1.16663 20.4123 1.09631 20.2839C1.02209 20.1407 0.986938 19.9777 0.986938 19.7901C0.994751 19.474 1.04163 19.2864 1.12756 19.2172C1.20959 19.153 1.36975 19.1185 1.61194 19.1185C2.0885 19.1185 2.44397 19.0098 2.67444 18.7827C2.91272 18.5604 3.05725 18.2888 3.11194 17.9728C3.17444 17.6469 3.2135 17.2172 3.23694 16.6888V4.14562C3.2135 3.62216 3.17444 3.19253 3.11194 2.86167C3.05725 2.53574 2.91272 2.2592 2.67444 2.03204C2.44397 1.80982 2.0885 1.69624 1.61194 1.69624H1.45569C1.28772 1.69624 1.16663 1.66661 1.09631 1.59747C1.03381 1.51846 0.994751 1.33574 0.986938 1.04439C0.986938 0.846855 1.02209 0.683892 1.09631 0.550558C1.16663 0.422164 1.28381 0.353027 1.44006 0.353027C2.52209 0.407349 3.50256 0.43204 4.37756 0.43204C5.37756 0.43204 6.41663 0.407349 7.50256 0.353027C7.65881 0.353027 7.77209 0.422164 7.84631 0.550558C7.91663 0.683892 7.95569 0.846855 7.95569 1.04439C7.94397 1.36043 7.89709 1.55303 7.81506 1.61723C7.72913 1.67155 7.56897 1.69624 7.33069 1.69624C6.85022 1.69624 6.49084 1.80982 6.25256 2.03204C6.02209 2.2592 5.87756 2.53574 5.81506 2.86167C5.76038 3.19253 5.72522 3.62216 5.70569 4.14562V9.73574H13.5651V4.14562C13.5416 3.62216 13.5026 3.19253 13.4401 2.86167C13.3854 2.53574 13.2408 2.2592 13.0026 2.03204C12.7721 1.80982 12.4166 1.69624 11.9401 1.69624H11.7838C11.6158 1.69624 11.4948 1.66661 11.4244 1.59747C11.3502 1.51846 11.3033 1.33574 11.2838 1.04439C11.2838 0.846855 11.3229 0.683892 11.4088 0.550558C11.4908 0.422164 11.6002 0.353027 11.7369 0.353027C12.819 0.407349 13.8619 0.43204 14.8619 0.43204C15.776 0.43204 16.7682 0.407349 17.8307 0.353027C17.9869 0.353027 18.1002 0.422164 18.1744 0.550558C18.2448 0.683892 18.2838 0.846855 18.2838 1.04439C18.2604 1.36043 18.2057 1.55303 18.1119 1.61723C18.026 1.67155 17.8776 1.69624 17.6588 1.69624C17.1783 1.69624 16.8151 1.80982 16.5651 2.03204C16.3229 2.2592 16.1744 2.53574 16.1119 2.86167C16.0573 3.19253 16.0221 3.62216 16.0026 4.14562V16.6888C16.0221 17.2172 16.0573 17.6469 16.1119 17.9728C16.1744 18.2888 16.3229 18.5604 16.5651 18.7827C16.8151 19.0098 17.1783 19.1185 17.6588 19.1185H17.8151C17.9596 19.1185 18.069 19.158 18.1432 19.237C18.2135 19.3061 18.2604 19.4888 18.2838 19.7901C18.2838 19.9777 18.2448 20.1407 18.1744 20.2839C18.1002 20.4123 17.9869 20.4814 17.8307 20.4814C16.7682 20.4123 15.7682 20.3827 14.8307 20.3827C13.8502 20.3827 12.819 20.4123 11.7369 20.4814C11.6002 20.4814 11.4908 20.4123 11.4088 20.2839C11.3229 20.1407 11.2838 19.9777 11.2838 19.7901C11.3033 19.474 11.3541 19.2864 11.4401 19.2172C11.5338 19.153 11.6979 19.1185 11.9401 19.1185C12.4166 19.1185 12.7721 19.0098 13.0026 18.7827C13.2408 18.5604 13.3854 18.2888 13.4401 17.9728C13.5026 17.6469 13.5416 17.2172 13.5651 16.6888V11.0987H5.70569V16.6888C5.72522 17.2172 5.76038 17.6469 5.81506 17.9728C5.87756 18.2888 6.02209 18.5604 6.25256 18.7827C6.49084 19.0098 6.85022 19.1185 7.33069 19.1185H7.48694C7.651 19.1185 7.76819 19.158 7.83069 19.237C7.901 19.3061 7.94397 19.4888 7.95569 19.7901C7.95569 19.9777 7.91663 20.1407 7.84631 20.2839C7.77209 20.4123 7.65881 20.4814 7.50256 20.4814C6.44006 20.4123 5.40881 20.3827 4.40881 20.3827C3.51038 20.3827 2.52209 20.4123 1.44006 20.4814Z" fill="black"/>
</svg>
