<svg width="11" height="15" viewBox="0 0 11 15" fill="none" xmlns="http://www.w3.org/2000/svg">
<path d="M4.41895 0.312988C5.59473 0.312988 6.62207 0.609285 7.49707 1.20188C8.37988 1.78459 9.06348 2.60435 9.54395 3.67101C10.0322 4.73768 10.2783 5.97225 10.2783 7.36484C10.2783 8.74756 10.0322 9.98212 9.54395 11.0587C9.06348 12.1253 8.37988 12.955 7.49707 13.5476C6.61035 14.1401 5.58301 14.4364 4.41895 14.4364H0.231445V0.312988H4.41895ZM4.24707 11.4537C5.27832 11.4537 6.0791 11.0982 6.65332 10.3871C7.22363 9.67595 7.5127 8.66854 7.5127 7.36484C7.5127 6.06114 7.22363 5.04879 6.65332 4.32287C6.0791 3.60188 5.27832 3.23645 4.24707 3.23645H2.9502V11.4537H4.24707Z" fill="white"/>
</svg>
