<svg width="10" height="12" viewBox="0 0 10 12" fill="none" xmlns="http://www.w3.org/2000/svg">
<path d="M9.72595 5.64869C9.72595 5.96474 9.71033 6.29561 9.67908 6.63635H3.52283C3.56189 7.33758 3.74158 7.87586 4.05408 8.2561C4.36658 8.62647 4.74939 8.80919 5.21033 8.80919C5.88611 8.80919 6.35486 8.44376 6.61658 7.70302H9.52283C9.37439 8.45363 9.10486 9.12524 8.71033 9.71783C8.32361 10.3005 7.83923 10.7598 7.2572 11.1005C6.67127 11.4314 6.02283 11.5944 5.30408 11.5944C4.42908 11.5944 3.65173 11.3672 2.97595 10.903C2.29627 10.4289 1.76502 9.75734 1.3822 8.8882C1.0072 8.00919 0.819702 6.98697 0.819702 5.82647C0.819702 4.6561 1.0072 3.63388 1.3822 2.76474C1.7572 1.89561 2.28064 1.224 2.96033 0.749929C3.63611 0.275855 4.41736 0.0388184 5.30408 0.0388184C6.15564 0.0388184 6.91736 0.270917 7.58533 0.730176C8.26111 1.19437 8.78845 1.84623 9.16345 2.68573C9.53845 3.53018 9.72595 4.51783 9.72595 5.64869ZM6.9447 4.74005C6.9447 4.14746 6.78064 3.68326 6.46033 3.33758C6.14783 2.98203 5.74939 2.80425 5.27283 2.80425C4.81189 2.80425 4.42908 2.97709 4.11658 3.31783C3.80408 3.64869 3.60877 4.12277 3.53845 4.74005H6.9447Z" fill="white"/>
</svg>
