<svg width="14" height="22" viewBox="0 0 14 22" fill="none" xmlns="http://www.w3.org/2000/svg">
<path d="M1.15784 21.0962C1.02112 21.0962 0.915649 21.027 0.845337 20.8986C0.771118 20.7554 0.735962 20.5925 0.735962 20.4048C0.743775 20.0888 0.790649 19.9011 0.876587 19.832C0.958618 19.7678 1.11877 19.7332 1.36096 19.7332C1.83753 19.7332 2.19299 19.6246 2.42346 19.3974C2.66174 19.1752 2.80628 18.9036 2.86096 18.5875C2.92346 18.2616 2.96253 17.832 2.98596 17.3036V4.76037C2.96253 4.23691 2.92346 3.80728 2.86096 3.47642C2.80628 3.15049 2.66174 2.87395 2.42346 2.64679C2.19299 2.42456 1.83753 2.31098 1.36096 2.31098H1.20471C1.03674 2.31098 0.915649 2.28135 0.845337 2.21222C0.782837 2.13321 0.743775 1.95049 0.735962 1.65913C0.735962 1.4616 0.771118 1.29864 0.845337 1.1653C0.915649 1.03691 1.02112 0.967773 1.15784 0.967773C2.2594 1.02209 3.25159 1.04679 4.12659 1.04679C5.12659 1.04679 6.16565 1.02209 7.25159 0.967773C7.40784 0.967773 7.52112 1.03691 7.59534 1.1653C7.66565 1.29864 7.70471 1.4616 7.70471 1.65913C7.69299 1.97518 7.64221 2.16777 7.54846 2.23197C7.45471 2.28629 7.29846 2.31098 7.07971 2.31098C6.59924 2.31098 6.23987 2.42456 6.00159 2.64679C5.77112 2.87395 5.62659 3.15049 5.56409 3.47642C5.5094 3.80728 5.47424 4.23691 5.45471 4.76037V17.7777C5.48596 18.2122 5.52503 18.5579 5.57971 18.8048C5.63049 19.0418 5.78284 19.269 6.03284 19.4764C6.28284 19.6739 6.67346 19.7628 7.20471 19.7332H9.45471C10.0367 19.7085 10.4782 19.59 10.7828 19.3777C11.0836 19.1554 11.318 18.8147 11.486 18.3505C11.6617 17.8764 11.8766 17.1159 12.1266 16.0591C12.2516 15.6937 12.5367 15.5456 12.986 15.6246C13.1305 15.6641 13.2711 15.753 13.4078 15.8814C13.5407 15.9999 13.5992 16.1579 13.5797 16.3554L13.0797 20.3258C13.025 20.6023 12.9469 20.79 12.8453 20.8789C12.7516 20.9579 12.5875 20.9974 12.361 20.9974H4.15784C3.2594 20.9974 2.2594 21.027 1.15784 21.0962Z" fill="black"/>
</svg>
