<svg width="10" height="12" viewBox="0 0 10 12" fill="none" xmlns="http://www.w3.org/2000/svg">
<path d="M6.23328 0.078125C7.26453 0.078125 8.09265 0.507755 8.71765 1.36208C9.34265 2.22134 9.65515 3.39171 9.65515 4.87812V11.4361H6.9364V5.33245C6.9364 4.58183 6.78015 4.00405 6.46765 3.59417C6.16296 3.17442 5.75281 2.96208 5.23328 2.96208C4.72156 2.96208 4.3114 3.17442 3.9989 3.59417C3.6864 4.00405 3.53015 4.58183 3.53015 5.33245V11.4361H0.811401V0.196644H3.53015V1.69788C3.8114 1.19911 4.1864 0.804051 4.65515 0.512693C5.1239 0.226272 5.64734 0.078125 6.23328 0.078125Z" fill="white"/>
</svg>
