<svg width="11" height="12" viewBox="0 0 11 12" fill="none" xmlns="http://www.w3.org/2000/svg">
<path d="M5.4198 11.5944C4.5448 11.5944 3.75574 11.3672 3.06042 10.903C2.37292 10.4289 1.82996 9.75734 1.43542 8.8882C1.03699 8.00919 0.841675 6.98697 0.841675 5.82647C0.841675 4.67092 1.03699 3.65363 1.43542 2.7845C1.84167 1.90549 2.39246 1.224 3.09167 0.749929C3.78699 0.275855 4.57605 0.0388184 5.45105 0.0388184C6.32605 0.0388184 7.11121 0.275855 7.81042 0.749929C8.50574 1.224 9.06042 1.90549 9.46667 2.7845C9.87292 3.65363 10.076 4.67092 10.076 5.82647C10.076 6.97215 9.86511 7.98944 9.45105 8.86845C9.0448 9.7524 8.48621 10.4289 7.77917 10.903C7.07996 11.3672 6.2948 11.5944 5.4198 11.5944ZM5.4198 8.61166C5.93933 8.61166 6.38074 8.37462 6.74792 7.90055C7.11121 7.41659 7.2948 6.72524 7.2948 5.82647C7.2948 4.91783 7.11511 4.22647 6.76355 3.7524C6.40808 3.26845 5.97058 3.02153 5.45105 3.02153C4.9198 3.02153 4.47449 3.25857 4.12292 3.73265C3.77917 4.20672 3.6073 4.90795 3.6073 5.82647C3.6073 6.72524 3.77917 7.41659 4.12292 7.90055C4.46667 8.37462 4.89636 8.61166 5.4198 8.61166Z" fill="white"/>
</svg>
