<svg width="17" height="21" viewBox="0 0 17 21" fill="none" xmlns="http://www.w3.org/2000/svg">
<path d="M0.802124 20.4816C0.653687 20.4816 0.540405 20.4124 0.458374 20.284C0.384155 20.1408 0.348999 19.9779 0.348999 19.7902C0.36853 19.4741 0.419311 19.2865 0.505249 19.2174C0.58728 19.1532 0.74353 19.1186 0.973999 19.1186C1.46228 19.1186 1.81775 19.01 2.0365 18.7828C2.26306 18.5606 2.40369 18.2988 2.45837 17.9927C2.50916 17.6914 2.54041 17.2569 2.55212 16.689L2.599 4.14575C2.599 3.51365 2.54431 3.03464 2.44275 2.70378C2.33728 2.37785 2.16541 2.14081 1.92712 1.99267C1.69666 1.84946 1.36462 1.726 0.927124 1.61736C0.645874 1.55316 0.466187 1.48896 0.395874 1.41983C0.333374 1.35563 0.302124 1.17785 0.302124 0.886493C0.302124 0.639579 0.352905 0.471678 0.458374 0.392666C0.571655 0.303778 0.74353 0.254395 0.973999 0.254395C2.01306 0.254395 2.83337 0.348222 3.42712 0.530938C4.02869 0.703778 4.55994 1.01983 5.02087 1.47909C5.47791 1.94328 5.98181 2.64452 6.5365 3.59267L13.3802 14.9704H13.4584L13.4115 4.14575C13.3881 3.56798 13.3529 3.12847 13.3021 2.8223C13.2474 2.52106 13.1068 2.25933 12.8802 2.03217C12.6615 1.80995 12.3099 1.69637 11.8334 1.69637H11.6771C11.5092 1.69637 11.3881 1.66674 11.3177 1.5976C11.2435 1.51859 11.1967 1.33588 11.1771 1.04452C11.1771 0.846987 11.2162 0.684025 11.3021 0.550691C11.3842 0.422296 11.4935 0.35316 11.6302 0.35316C12.6927 0.407481 13.4935 0.432172 14.0365 0.432172C14.349 0.432172 14.9506 0.412419 15.849 0.372913L16.3802 0.35316C16.5248 0.35316 16.6342 0.422296 16.7084 0.550691C16.7904 0.684025 16.8334 0.846987 16.8334 1.04452C16.8099 1.36057 16.7592 1.55316 16.6771 1.61736C16.5912 1.67168 16.4349 1.69637 16.2084 1.69637C15.7162 1.69637 15.3568 1.80995 15.1302 2.03217C14.9115 2.25933 14.7748 2.52106 14.724 2.8223C14.681 3.12847 14.6498 3.56798 14.6302 4.14575L14.5834 20.0667C14.5599 20.3433 14.3529 20.4816 13.9584 20.4816C13.6342 20.4816 13.3881 20.3433 13.224 20.0667L3.80212 4.14575H3.724L3.7865 16.689C3.79431 17.2569 3.82556 17.6914 3.88025 17.9927C3.93103 18.2988 4.06775 18.5606 4.2865 18.7828C4.51306 19.01 4.86853 19.1186 5.349 19.1186H5.50525C5.66931 19.1186 5.7904 19.1581 5.86462 19.2371C5.93494 19.3062 5.98181 19.489 6.00525 19.7902C6.00525 19.9779 5.96619 20.1408 5.89587 20.284C5.82165 20.4124 5.70837 20.4816 5.55212 20.4816C4.48962 20.4124 3.68103 20.3828 3.13025 20.3828C2.79431 20.3828 2.21228 20.4025 1.38025 20.442L0.802124 20.4816Z" fill="black"/>
</svg>
