<svg width="10" height="12" viewBox="0 0 10 12" fill="none" xmlns="http://www.w3.org/2000/svg">
<path d="M0.46582 5.80672C0.46582 4.65116 0.637695 3.63388 0.981445 2.76474C1.3252 1.89561 1.79395 1.224 2.3877 0.749929C2.98145 0.275855 3.6416 0.0388184 4.37207 0.0388184C4.99707 0.0388184 5.54395 0.20672 6.0127 0.532645C6.48926 0.848695 6.85645 1.27339 7.10645 1.79684V0.196843H9.84082V11.4363H7.10645V9.83635C6.84473 10.3647 6.47363 10.7944 5.99707 11.1203C5.52832 11.4363 4.98145 11.5944 4.35645 11.5944C3.6377 11.5944 2.98145 11.3573 2.3877 10.8833C1.79395 10.4092 1.3252 9.73265 0.981445 8.84869C0.637695 7.96968 0.46582 6.9524 0.46582 5.80672ZM7.10645 5.82647C7.10645 4.95734 6.91895 4.28079 6.54395 3.7919C6.16895 3.29314 5.70801 3.04129 5.16895 3.04129C4.62598 3.04129 4.16895 3.2882 3.79395 3.77215C3.41895 4.26104 3.23145 4.93758 3.23145 5.80672C3.23145 6.66598 3.41895 7.34252 3.79395 7.84129C4.16895 8.34499 4.62598 8.5919 5.16895 8.5919C5.70801 8.5919 6.16895 8.34993 6.54395 7.86104C6.91895 7.36228 7.10645 6.68573 7.10645 5.82647Z" fill="white"/>
</svg>
