<svg width="18" height="21" viewBox="0 0 18 21" fill="none" xmlns="http://www.w3.org/2000/svg">
<path d="M0.717773 20.4816C0.561523 20.4816 0.448242 20.4124 0.374023 20.284C0.303711 20.1408 0.264648 19.9779 0.264648 19.7902C0.276367 19.4741 0.323242 19.2865 0.405273 19.2174C0.491211 19.1532 0.584961 19.1186 0.702148 19.1186C0.827148 19.1186 0.905273 19.1186 0.936523 19.1186C1.43652 19.1186 1.7998 18.9556 2.03027 18.6248C2.26855 18.2988 2.45605 17.9285 2.59277 17.5186C2.7373 17.1137 2.83496 16.8371 2.88965 16.689L7.26465 3.59267C7.3584 3.27662 7.40527 3.0297 7.40527 2.84205C7.40527 2.4618 7.28809 2.1902 7.06152 2.03217C6.83105 1.86427 6.50684 1.726 6.09277 1.61736C5.7998 1.55316 5.62402 1.48896 5.56152 1.41983C5.49902 1.35563 5.46777 1.17785 5.46777 0.886493C5.46777 0.639579 5.51855 0.471678 5.62402 0.392666C5.72559 0.303778 5.89746 0.254395 6.13965 0.254395C6.97168 0.254395 7.63184 0.333407 8.12402 0.491432C8.6123 0.649456 9.03808 0.965506 9.40527 1.43958C9.78027 1.91365 10.124 2.63464 10.4365 3.59267L14.6396 16.689C14.8896 17.4939 15.1279 18.0914 15.3584 18.4865C15.5967 18.8816 15.9443 19.0939 16.4053 19.1186H16.5615C16.7256 19.1186 16.8428 19.1581 16.9053 19.2371C16.9756 19.3062 17.0186 19.489 17.0303 19.7902C17.0303 19.9779 16.9912 20.1408 16.9209 20.284C16.8467 20.4124 16.7373 20.4816 16.5928 20.4816C15.5186 20.4124 14.6006 20.3828 13.8428 20.3828C12.8428 20.3828 11.8037 20.4124 10.7334 20.4816C10.585 20.4816 10.4717 20.4124 10.3896 20.284C10.3154 20.1408 10.2803 19.9779 10.2803 19.7902C10.2998 19.489 10.3428 19.3062 10.4053 19.2371C10.4756 19.1581 10.5967 19.1186 10.7646 19.1186C11.3271 19.1186 11.7217 19.0544 11.9521 18.9211C12.1904 18.7779 12.3115 18.526 12.3115 18.1704C12.3115 17.8939 12.21 17.4001 12.0146 16.689L11.1553 14.0618H4.9834C4.56543 15.3655 4.32715 16.126 4.26465 16.3334C4.20996 16.5458 4.18652 16.6643 4.18652 16.689C3.9873 17.4939 3.88965 18.0075 3.88965 18.2297C3.88965 18.5853 4.01465 18.8223 4.26465 18.9408C4.51465 19.0593 4.9873 19.1186 5.68652 19.1186H5.84277C6.00684 19.1186 6.12402 19.1581 6.18652 19.2371C6.24902 19.3062 6.28809 19.489 6.31152 19.7902C6.31152 19.9779 6.27246 20.1408 6.20215 20.284C6.12793 20.4124 6.01465 20.4816 5.8584 20.4816C4.7959 20.4124 3.88965 20.3828 3.13965 20.3828C2.6084 20.3828 1.7998 20.4124 0.717773 20.4816ZM5.46777 12.6988H10.7178L8.18652 4.58032H8.1084L5.46777 12.6988Z" fill="black"/>
</svg>
