<svg width="18" height="22" viewBox="0 0 18 22" fill="none" xmlns="http://www.w3.org/2000/svg">
<path d="M8.66199 21.6295C7.38074 21.6295 6.28699 21.3431 5.38074 20.7801C4.47449 20.2172 3.78699 19.4715 3.31824 18.548C2.84949 17.6147 2.61511 16.6073 2.61511 15.5258V4.76037C2.60339 4.23691 2.56824 3.80728 2.50574 3.47642C2.44324 3.15049 2.2948 2.87395 2.06824 2.64679C1.83777 2.42456 1.47839 2.31098 0.990112 2.31098H0.849487C0.681518 2.31098 0.560425 2.28135 0.490112 2.21222C0.427612 2.13321 0.384643 1.95049 0.365112 1.65913C0.365112 1.4616 0.400268 1.29864 0.474487 1.1653C0.556518 1.03691 0.669799 0.967773 0.818237 0.967773C1.88074 1.02209 2.86511 1.04679 3.77136 1.04679C4.77918 1.04679 5.82214 1.02209 6.89636 0.967773C7.04089 0.967773 7.15027 1.03691 7.22449 1.1653C7.30652 1.29864 7.34949 1.4616 7.34949 1.65913C7.32605 1.95049 7.27918 2.13321 7.20886 2.21222C7.13464 2.28135 7.01355 2.31098 6.84949 2.31098C6.30652 2.31098 5.91199 2.41963 5.66199 2.62703C5.41199 2.83938 5.25574 3.10111 5.19324 3.41716C5.13855 3.73321 5.1073 4.18259 5.09949 4.76037V14.6172C5.09949 16.069 5.36902 17.2937 5.91199 18.2912C6.45105 19.2789 7.50574 19.7727 9.06824 19.7727C10.5995 19.7727 11.6815 19.3283 12.3182 18.4295C12.9628 17.5357 13.287 16.4097 13.287 15.0517V6.73567C13.287 5.31345 13.244 4.30605 13.162 3.71345C13.076 3.12086 12.912 2.74061 12.662 2.56777C12.412 2.39987 11.9784 2.31098 11.3651 2.31098H11.2245C11.0682 2.31098 10.951 2.28135 10.8807 2.21222C10.8065 2.13321 10.7596 1.95049 10.7401 1.65913C10.7401 1.4616 10.7753 1.29864 10.8495 1.1653C10.9315 1.03691 11.0448 0.967773 11.1932 0.967773C12.2753 1.02209 13.2089 1.04679 13.9901 1.04679C14.7909 1.04679 15.7245 1.02209 16.787 0.967773C16.9432 0.967773 17.0565 1.03691 17.1307 1.1653C17.201 1.29864 17.2401 1.4616 17.2401 1.65913C17.2284 1.95049 17.1815 2.13321 17.0995 2.21222C17.0253 2.28135 16.9042 2.31098 16.7401 2.31098C16.0721 2.31098 15.6073 2.39 15.3495 2.54802C15.0995 2.69617 14.9276 3.05172 14.8339 3.61469C14.7401 4.16777 14.6932 5.15049 14.6932 6.5579V15.3678C14.6932 16.7801 14.3846 17.9554 13.7714 18.9036C13.1542 19.8418 12.3846 20.5332 11.4589 20.9777C10.5292 21.4122 9.59949 21.6295 8.66199 21.6295Z" fill="black"/>
</svg>
