<svg width="15" height="21" viewBox="0 0 15 21" fill="none" xmlns="http://www.w3.org/2000/svg">
<path d="M4.34692 20.4815C4.19849 20.4815 4.08911 20.4124 4.0188 20.284C3.94458 20.1408 3.90942 19.9778 3.90942 19.7902C3.91724 19.4741 3.96411 19.2864 4.05005 19.2173C4.13208 19.1531 4.29224 19.1185 4.53442 19.1185C5.01099 19.1185 5.36646 19.0099 5.59692 18.7827C5.83521 18.5605 5.97974 18.2889 6.03442 17.9729C6.09692 17.6469 6.13599 17.2173 6.15942 16.6889V1.61731H4.42505C3.86255 1.63213 3.42505 1.78521 3.11255 2.07164C2.80786 2.34818 2.57349 2.77287 2.40942 3.33583C2.25317 3.88892 2.11645 4.68892 2.00317 5.72596C1.97974 5.88398 1.87817 6.01731 1.69067 6.12102C1.51099 6.22966 1.32349 6.27904 1.12817 6.27904C0.979736 6.27904 0.846924 6.22966 0.721924 6.12102C0.596924 6.0025 0.534424 5.84447 0.534424 5.64694L0.596924 1.2025C0.596924 0.688919 0.823486 0.432129 1.28442 0.432129H13.5032C13.9407 0.432129 14.1594 0.688919 14.1594 1.2025L14.2532 5.64694C14.2532 5.84447 14.1829 6.0025 14.0501 6.12102C13.9133 6.22966 13.7727 6.27904 13.6282 6.27904C13.429 6.27904 13.2415 6.22966 13.0657 6.12102C12.886 6.01731 12.7922 5.88398 12.7844 5.72596C12.6477 4.6741 12.5032 3.86917 12.3469 3.31608C12.1985 2.76299 11.9641 2.34818 11.6438 2.07164C11.3313 1.78521 10.8938 1.63213 10.3313 1.61731H8.62817V16.6889C8.64771 17.2173 8.68286 17.6469 8.73755 17.9729C8.80005 18.2889 8.94458 18.5605 9.17505 18.7827C9.41333 19.0099 9.77271 19.1185 10.2532 19.1185H10.4094C10.554 19.1185 10.6633 19.1581 10.7375 19.2371C10.8079 19.3062 10.8547 19.4889 10.8782 19.7902C10.8782 19.9778 10.8391 20.1408 10.7688 20.284C10.6946 20.4124 10.5813 20.4815 10.425 20.4815C9.36255 20.4124 8.37817 20.3827 7.47192 20.3827C6.47192 20.3827 5.42896 20.4124 4.34692 20.4815Z" fill="black"/>
</svg>
