<svg width="18" height="21" viewBox="0 0 18 21" fill="none" xmlns="http://www.w3.org/2000/svg">
<path d="M1.03357 20.4816C0.885132 20.4816 0.77185 20.4124 0.689819 20.284C0.6156 20.1408 0.580444 19.9779 0.580444 19.7902C0.599975 19.4741 0.650756 19.2865 0.736694 19.2174C0.818725 19.1532 0.974975 19.1186 1.20544 19.1186C1.69373 19.1186 2.04919 19.01 2.26794 18.7828C2.49451 18.5606 2.63513 18.2988 2.68982 17.9927C2.7406 17.6914 2.77185 17.2569 2.78357 16.689L2.83044 4.14575C2.83044 3.51365 2.77576 3.03464 2.67419 2.70378C2.56873 2.37785 2.39685 2.14081 2.15857 1.99267C1.9281 1.84946 1.59607 1.726 1.15857 1.61736C0.877319 1.55316 0.697632 1.48896 0.627319 1.41983C0.564819 1.35563 0.533569 1.17785 0.533569 0.886493C0.533569 0.639579 0.58435 0.471678 0.689819 0.392666C0.8031 0.303778 0.974975 0.254395 1.20544 0.254395C2.24451 0.254395 3.06482 0.348222 3.65857 0.530938C4.26013 0.703778 4.79138 1.01983 5.25232 1.47909C5.70935 1.94328 6.21326 2.64452 6.76795 3.59267L13.6117 14.9704H13.6898L13.6429 4.14575C13.6195 3.56798 13.5844 3.12847 13.5336 2.8223C13.4789 2.52106 13.3383 2.25933 13.1117 2.03217C12.8929 1.80995 12.5414 1.69637 12.0648 1.69637H11.9086C11.7406 1.69637 11.6195 1.66674 11.5492 1.5976C11.475 1.51859 11.4281 1.33588 11.4086 1.04452C11.4086 0.846987 11.4476 0.684025 11.5336 0.550691C11.6156 0.422296 11.725 0.35316 11.8617 0.35316C12.9242 0.407481 13.725 0.432172 14.2679 0.432172C14.5804 0.432172 15.182 0.412419 16.0804 0.372913L16.6117 0.35316C16.7562 0.35316 16.8656 0.422296 16.9398 0.550691C17.0219 0.684025 17.0648 0.846987 17.0648 1.04452C17.0414 1.36057 16.9906 1.55316 16.9086 1.61736C16.8226 1.67168 16.6664 1.69637 16.4398 1.69637C15.9476 1.69637 15.5883 1.80995 15.3617 2.03217C15.1429 2.25933 15.0062 2.52106 14.9554 2.8223C14.9125 3.12847 14.8812 3.56798 14.8617 4.14575L14.8148 20.0667C14.7914 20.3433 14.5844 20.4816 14.1898 20.4816C13.8656 20.4816 13.6195 20.3433 13.4554 20.0667L4.03357 4.14575H3.95544L4.01794 16.689C4.02576 17.2569 4.05701 17.6914 4.11169 17.9927C4.16248 18.2988 4.29919 18.5606 4.51794 18.7828C4.74451 19.01 5.09998 19.1186 5.58044 19.1186H5.73669C5.90076 19.1186 6.02185 19.1581 6.09607 19.2371C6.16638 19.3062 6.21326 19.489 6.23669 19.7902C6.23669 19.9779 6.19763 20.1408 6.12732 20.284C6.0531 20.4124 5.93982 20.4816 5.78357 20.4816C4.72107 20.4124 3.91248 20.3828 3.36169 20.3828C3.02576 20.3828 2.44373 20.4025 1.61169 20.442L1.03357 20.4816Z" fill="black"/>
</svg>
