<svg width="14" height="21" viewBox="0 0 14 21" fill="none" xmlns="http://www.w3.org/2000/svg">
<path d="M4.01746 20.4815C3.86902 20.4815 3.75964 20.4124 3.68933 20.284C3.61511 20.1408 3.57996 19.9778 3.57996 19.7902C3.58777 19.4741 3.63464 19.2864 3.72058 19.2173C3.80261 19.1531 3.96277 19.1185 4.20496 19.1185C4.68152 19.1185 5.03699 19.0099 5.26746 18.7827C5.50574 18.5605 5.65027 18.2889 5.70496 17.9729C5.76746 17.6469 5.80652 17.2173 5.82996 16.6889V1.61731H4.09558C3.53308 1.63213 3.09558 1.78521 2.78308 2.07164C2.47839 2.34818 2.24402 2.77287 2.07996 3.33583C1.92371 3.88892 1.78699 4.68892 1.67371 5.72596C1.65027 5.88398 1.54871 6.01731 1.36121 6.12102C1.18152 6.22966 0.994018 6.27904 0.798706 6.27904C0.650268 6.27904 0.517456 6.22966 0.392456 6.12102C0.267456 6.0025 0.204956 5.84447 0.204956 5.64694L0.267456 1.2025C0.267456 0.688919 0.494018 0.432129 0.954956 0.432129H13.1737C13.6112 0.432129 13.83 0.688919 13.83 1.2025L13.9237 5.64694C13.9237 5.84447 13.8534 6.0025 13.7206 6.12102C13.5839 6.22966 13.4432 6.27904 13.2987 6.27904C13.0995 6.27904 12.912 6.22966 12.7362 6.12102C12.5565 6.01731 12.4628 5.88398 12.455 5.72596C12.3182 4.6741 12.1737 3.86917 12.0175 3.31608C11.869 2.76299 11.6346 2.34818 11.3143 2.07164C11.0018 1.78521 10.5643 1.63213 10.0018 1.61731H8.29871V16.6889C8.31824 17.2173 8.3534 17.6469 8.40808 17.9729C8.47058 18.2889 8.61511 18.5605 8.84558 18.7827C9.08386 19.0099 9.44324 19.1185 9.92371 19.1185H10.08C10.2245 19.1185 10.3339 19.1581 10.4081 19.2371C10.4784 19.3062 10.5253 19.4889 10.5487 19.7902C10.5487 19.9778 10.5096 20.1408 10.4393 20.284C10.3651 20.4124 10.2518 20.4815 10.0956 20.4815C9.03308 20.4124 8.04871 20.3827 7.14246 20.3827C6.14246 20.3827 5.09949 20.4124 4.01746 20.4815Z" fill="black"/>
</svg>
