<svg width="14" height="22" viewBox="0 0 14 22" fill="none" xmlns="http://www.w3.org/2000/svg">
<path d="M7.80786 21.6296C6.38989 21.6296 5.09302 21.2 3.91724 20.3457C2.73755 19.4913 1.80005 18.2716 1.10474 16.6913C0.417236 15.1111 0.0734863 13.2691 0.0734863 11.1605C0.0734863 9.04196 0.405517 7.17035 1.07349 5.5506C1.73755 3.92097 2.68677 2.65677 3.91724 1.758C5.15552 0.864178 6.60474 0.414795 8.26099 0.414795C9.68677 0.414795 10.9563 0.785166 12.0735 1.52097C13.1985 2.24689 13.761 3.36788 13.761 4.87899C13.7688 5.82714 13.5422 6.63702 13.0735 7.30862C12.6125 7.97035 11.9875 8.29628 11.1985 8.29628C10.9055 8.29628 10.6555 8.23208 10.4485 8.09875C10.2375 7.95554 10.0813 7.79257 9.97974 7.60492C9.87427 7.40739 9.8313 7.25924 9.85474 7.1506C9.85474 7.11109 9.96802 7.00245 10.1985 6.8148C10.4368 6.61726 10.6438 6.35554 10.8235 6.02467C11.011 5.68393 11.1047 5.26912 11.1047 4.78023C11.1047 3.83208 10.8469 3.08146 10.3391 2.52838C9.82739 1.96541 9.12427 1.67899 8.22974 1.67899C7.2063 1.67899 6.30005 2.04936 5.51099 2.78517C4.71802 3.51109 4.10474 4.57776 3.66724 5.98517C3.22974 7.3827 3.01099 9.04689 3.01099 10.9827C3.01099 12.6716 3.24536 14.2024 3.71411 15.5852C4.19067 16.958 4.86255 18.0494 5.72974 18.8642C6.59302 19.6839 7.5813 20.0889 8.69849 20.0889C9.60474 20.0889 10.3743 19.8518 11.011 19.3778C11.6555 18.9037 12.2375 18.1432 12.761 17.0864C12.843 16.8889 12.9563 16.7901 13.1047 16.7901C13.2375 16.7901 13.3899 16.8592 13.5579 16.9876C13.8157 17.2148 13.9485 17.442 13.9485 17.679C13.9485 17.8123 13.9172 17.916 13.8547 17.995C13.218 19.0123 12.6204 19.7728 12.0579 20.2864C11.5032 20.8 10.9016 21.1457 10.2454 21.3333C9.59692 21.5308 8.78442 21.6296 7.80786 21.6296Z" fill="black"/>
</svg>
