<svg width="18" height="21" viewBox="0 0 18 21" fill="none" xmlns="http://www.w3.org/2000/svg">
<path d="M8.11023 20.6986C7.61023 18.9752 6.81726 16.2295 5.73523 12.4616C4.64929 8.6838 3.86023 5.95294 3.36023 4.26405C3.07898 3.35541 2.80164 2.72331 2.5321 2.36775C2.27039 2.0122 1.87976 1.77022 1.36023 1.63689C1.29773 1.62701 1.19617 1.60726 1.06335 1.57763C0.926635 1.53812 0.836791 1.47393 0.797729 1.3801C0.75476 1.2764 0.735229 1.11837 0.735229 0.906025C0.735229 0.659112 0.78601 0.49121 0.891479 0.412197C1.00476 0.323308 1.18054 0.273926 1.42273 0.273926C2.67273 0.273926 3.61804 0.520839 4.26648 1.00479C4.91101 1.49368 5.42664 2.35788 5.81335 3.59244L9.43835 15.9184H9.51648L12.9696 3.25664C13.0634 2.90109 13.1102 2.62454 13.1102 2.42701C13.1102 2.14059 13.0165 1.948 12.829 1.85417C12.6415 1.75047 12.3173 1.69615 11.8602 1.69615H11.7196C11.5516 1.69615 11.4305 1.66652 11.3602 1.59738C11.2977 1.51837 11.2548 1.33565 11.2352 1.0443C11.2352 0.846765 11.2704 0.683803 11.3446 0.550469C11.4266 0.422075 11.536 0.352938 11.6727 0.352938C12.7548 0.407259 13.661 0.43195 14.3915 0.43195C14.704 0.43195 15.3134 0.412197 16.2196 0.372691L16.7352 0.352938C16.8915 0.352938 17.0048 0.422075 17.079 0.550469C17.1493 0.683803 17.1884 0.846765 17.1884 1.0443C17.1766 1.33565 17.1337 1.51837 17.0634 1.59738C17.0009 1.66652 16.8837 1.69615 16.7196 1.69615C16.0009 1.69615 15.454 1.84923 15.079 2.15047C14.704 2.44183 14.3798 3.00973 14.1102 3.84923C13.6102 5.57763 12.8055 8.37269 11.704 12.2443C10.5985 16.1159 9.79773 18.9357 9.29773 20.6986H8.11023Z" fill="black"/>
</svg>
