<svg width="17" height="22" viewBox="0 0 17 22" fill="none" xmlns="http://www.w3.org/2000/svg">
<path d="M1.03198 21.0962C0.895263 21.0962 0.789794 21.027 0.719482 20.8986C0.645263 20.7554 0.610107 20.5925 0.610107 20.4048C0.61792 20.0888 0.664794 19.9011 0.750732 19.832C0.832763 19.7678 0.99292 19.7332 1.23511 19.7332C1.71167 19.7332 2.06714 19.6246 2.29761 19.3974C2.53589 19.1752 2.68042 18.9036 2.73511 18.5875C2.79761 18.2616 2.83667 17.832 2.86011 17.3036V4.76037C2.83667 4.23691 2.79761 3.80728 2.73511 3.47642C2.68042 3.15049 2.53589 2.87395 2.29761 2.64679C2.06714 2.42456 1.71167 2.31098 1.23511 2.31098H1.07886C0.910888 2.31098 0.789794 2.28135 0.719482 2.21222C0.656982 2.13321 0.61792 1.95049 0.610107 1.65913C0.610107 1.4616 0.645263 1.29864 0.719482 1.1653C0.789794 1.03691 0.895263 0.967773 1.03198 0.967773C2.13354 1.02209 3.12573 1.04679 4.00073 1.04679H7.90698C9.50854 1.04679 10.9617 1.45666 12.2664 2.27148C13.5789 3.09123 14.6101 4.25666 15.3601 5.76777C16.1179 7.28382 16.5007 9.07642 16.5007 11.1406C16.5007 13.2888 16.071 15.106 15.2195 16.5925C14.364 18.0838 13.2507 19.19 11.8757 19.911C10.5007 20.6369 9.02417 20.9974 7.45386 20.9974H4.00073C3.12573 20.9974 2.13354 21.027 1.03198 21.0962ZM7.82886 19.832C9.77417 19.832 11.2039 19.0715 12.1101 17.5406C13.0242 16.0147 13.4851 13.8814 13.4851 11.1406C13.4851 9.41716 13.2351 7.87642 12.7351 6.51839C12.2429 5.15049 11.532 4.08876 10.5945 3.33814C9.66479 2.57765 8.56323 2.19246 7.28198 2.19246L5.32886 2.23197V17.6789C5.32886 18.4986 5.52026 19.0616 5.90698 19.3777C6.30151 19.6838 6.94214 19.832 7.82886 19.832Z" fill="black"/>
</svg>
