<svg width="6" height="10" viewBox="0 0 6 10" fill="none" xmlns="http://www.w3.org/2000/svg">
<path d="M1.35156 9.17529C1.19531 9.2543 1.05859 9.22467 0.945312 9.09628C0.828125 8.97776 0.773438 8.82467 0.773438 8.64196C0.773438 8.42961 0.855468 8.27653 1.02344 8.18764C1.74219 7.85677 2.27344 7.46171 2.61719 7.00245C2.96875 6.55307 3.14844 6.0148 3.14844 5.3827C3.14844 5.02714 3.0625 4.74072 2.89844 4.51356C2.73047 4.29134 2.49609 4.0543 2.19531 3.80245C1.89063 3.55554 1.66406 3.32344 1.50781 3.11109C1.35156 2.90369 1.27344 2.63702 1.27344 2.32097C1.27344 1.91603 1.39844 1.5506 1.64844 1.23455C1.89844 0.908625 2.1875 0.740723 2.52344 0.740723C2.99219 0.740723 3.41406 0.928376 3.78906 1.29381C4.17188 1.66418 4.48047 2.14319 4.71094 2.73578C4.9375 3.3185 5.05469 3.90122 5.05469 4.49381C5.05469 5.68887 4.69531 6.67159 3.97656 7.43702C3.25781 8.21233 2.38281 8.7901 1.35156 9.17529Z" fill="black"/>
</svg>
