<svg width="13" height="17" viewBox="0 0 13 17" fill="none" xmlns="http://www.w3.org/2000/svg">
<path d="M9.31995 16.8461L7.88245 14.4164C7.45276 14.5202 7.0387 14.5745 6.63245 14.5745C5.58948 14.5745 4.62463 14.2683 3.74182 13.6461C2.86682 13.0288 2.17151 12.1646 1.6637 11.0584C1.15198 9.95225 0.898071 8.7078 0.898071 7.32509C0.898071 5.94237 1.15198 4.70781 1.6637 3.61151C2.17151 2.50534 2.86682 1.64608 3.74182 1.02385C4.62463 0.40657 5.58948 0.095459 6.63245 0.095459C7.68323 0.095459 8.64807 0.40657 9.52307 1.02385C10.4059 1.64608 11.1012 2.50534 11.6012 3.61151C12.1012 4.70781 12.3512 5.94237 12.3512 7.32509C12.3512 8.5399 12.1559 9.64608 11.7731 10.6436C11.3864 11.6461 10.8512 12.4757 10.1637 13.1325L12.6168 16.8461H9.31995ZM3.67932 7.32509C3.67932 8.57941 3.94495 9.57694 4.4762 10.3276C5.01526 11.0683 5.73401 11.4337 6.63245 11.4337C7.52698 11.4337 8.24182 11.0584 8.77307 10.3078C9.31213 9.55719 9.58557 8.5646 9.58557 7.32509C9.58557 6.09052 9.31213 5.09299 8.77307 4.34237C8.24182 3.59176 7.52698 3.21645 6.63245 3.21645C5.73401 3.21645 5.01526 3.59176 4.4762 4.34237C3.94495 5.08311 3.67932 6.07571 3.67932 7.32509Z" fill="white"/>
</svg>
