<svg width="10" height="16" viewBox="0 0 10 16" fill="none" xmlns="http://www.w3.org/2000/svg">
<path d="M0.00549316 9.80668C0.00549316 8.65112 0.177368 7.63384 0.521118 6.7647C0.864868 5.89557 1.33362 5.22396 1.92737 4.74989C2.52112 4.27581 3.18127 4.03878 3.91174 4.03878C4.49377 4.03878 5.02502 4.1968 5.50549 4.51285C5.99377 4.81902 6.37268 5.23384 6.64612 5.7573V0.54248H9.38049V15.4363H6.64612V13.8166C6.39612 14.3598 6.02893 14.7943 5.55237 15.1203C5.08362 15.4363 4.53674 15.5943 3.91174 15.5943C3.18127 15.5943 2.52112 15.3573 1.92737 14.8832C1.33362 14.4091 0.864868 13.7326 0.521118 12.8487C0.177368 11.9696 0.00549316 10.9524 0.00549316 9.80668ZM6.64612 9.82643C6.64612 8.9573 6.45862 8.28075 6.08362 7.79186C5.70862 7.2931 5.24768 7.04125 4.70862 7.04125C4.16565 7.04125 3.70862 7.28816 3.33362 7.77211C2.95862 8.261 2.77112 8.93754 2.77112 9.80668C2.77112 10.6659 2.95862 11.3425 3.33362 11.8412C3.70862 12.345 4.16565 12.5919 4.70862 12.5919C5.24768 12.5919 5.70862 12.3499 6.08362 11.861C6.45862 11.3622 6.64612 10.6857 6.64612 9.82643Z" fill="white"/>
</svg>
