<svg width="15" height="23" viewBox="0 0 15 23" fill="none" xmlns="http://www.w3.org/2000/svg">
<path d="M8.02832 22.0146C6.61035 22.0146 5.31348 21.585 4.1377 20.7307C2.95801 19.8763 2.02051 18.6566 1.3252 17.0763C0.637695 15.4961 0.293945 13.6541 0.293945 11.5455C0.293945 9.42697 0.625976 7.55536 1.29395 5.93561C1.95801 4.30598 2.90723 3.04178 4.1377 2.14301C5.37598 1.24919 6.8252 0.799805 8.48145 0.799805C9.90723 0.799805 11.1768 1.17018 12.2939 1.90598C13.4189 2.6319 13.9814 3.75289 13.9814 5.264C13.9893 6.21215 13.7627 7.02203 13.2939 7.69363C12.833 8.35536 12.208 8.68129 11.4189 8.68129C11.126 8.68129 10.876 8.61709 10.6689 8.48376C10.458 8.34055 10.3018 8.17758 10.2002 7.98993C10.0947 7.7924 10.0518 7.64425 10.0752 7.53561C10.0752 7.4961 10.1885 7.38746 10.4189 7.1998C10.6572 7.00227 10.8643 6.74055 11.0439 6.40968C11.2314 6.06894 11.3252 5.65413 11.3252 5.16524C11.3252 4.21709 11.0674 3.46647 10.5596 2.91338C10.0479 2.35042 9.34473 2.064 8.4502 2.064C7.42676 2.064 6.52051 2.43437 5.73145 3.17018C4.93848 3.8961 4.3252 4.96277 3.8877 6.37018C3.4502 7.76771 3.23145 9.4319 3.23145 11.3677C3.23145 13.0566 3.46582 14.5875 3.93457 15.9702C4.41113 17.343 5.08301 18.4344 5.9502 19.2492C6.81348 20.0689 7.80176 20.4739 8.91895 20.4739C9.8252 20.4739 10.5947 20.2368 11.2314 19.7628C11.876 19.2887 12.458 18.5282 12.9814 17.4714C13.0635 17.2739 13.1768 17.1751 13.3252 17.1751C13.458 17.1751 13.6104 17.2442 13.7783 17.3726C14.0361 17.5998 14.1689 17.827 14.1689 18.064C14.1689 18.1973 14.1377 18.301 14.0752 18.3801C13.4385 19.3973 12.8408 20.1578 12.2783 20.6714C11.7236 21.185 11.1221 21.5307 10.4658 21.7183C9.81738 21.9159 9.00488 22.0146 8.02832 22.0146Z" fill="black"/>
</svg>
