<svg width="37" height="58" viewBox="0 0 37 58" fill="none" xmlns="http://www.w3.org/2000/svg">
<path d="M28.074 28.6424C30.6755 29.3535 32.7654 30.993 34.3396 33.5609C35.9216 36.1189 36.7146 39.0424 36.7146 42.3312C36.7146 47.072 35.4021 50.835 32.7771 53.6103C30.1521 56.3905 26.488 57.7782 21.7927 57.7782H0.87085V0.988037H21.0896C25.6599 0.988037 29.2341 2.31149 31.8083 4.95841C34.3904 7.59545 35.6833 11.1757 35.6833 15.7041C35.6833 19.0522 34.988 21.8275 33.6052 24.0399C32.2185 26.2522 30.3748 27.788 28.074 28.6424ZM11.8083 23.9609H18.9802C20.7693 23.9609 22.1443 23.4621 23.1052 22.4596C24.0623 21.4621 24.5427 19.9905 24.5427 18.0547C24.5427 16.109 24.0623 14.6275 23.1052 13.6103C22.1443 12.5831 20.7693 12.0695 18.9802 12.0695H11.8083V23.9609ZM19.8708 46.6177C21.7146 46.6177 23.1365 46.0942 24.1365 45.0374C25.1365 43.9856 25.6365 42.4596 25.6365 40.4547C25.6365 38.4695 25.1091 36.909 24.0583 35.7732C23.0154 34.6424 21.5779 34.0745 19.7458 34.0745H11.8083V46.6177H19.8708Z" fill="#008B8B"/>
</svg>
