<svg width="16" height="22" viewBox="0 0 16 22" fill="none" xmlns="http://www.w3.org/2000/svg">
<path d="M7.95215 21.6296C6.50293 21.6296 5.19043 21.2444 4.01465 20.4839C2.84668 19.7086 1.9209 18.5383 1.2334 16.9679C0.545898 15.4025 0.202148 13.4666 0.202148 11.1605C0.202148 9.04196 0.569336 7.17035 1.31152 5.5506C2.06152 3.92097 3.09277 2.65677 4.40527 1.758C5.72559 0.864178 7.2373 0.414795 8.93652 0.414795C9.76855 0.414795 10.5928 0.57282 11.4053 0.888869C12.2256 1.20492 12.9053 1.70862 13.4365 2.3901C13.9678 3.06171 14.2334 3.89134 14.2334 4.87899C14.2334 5.80245 14.0146 6.60739 13.5771 7.28887C13.1475 7.96047 12.5771 8.29628 11.8584 8.29628C11.5029 8.29628 11.1631 8.19257 10.8428 7.98023C10.5186 7.77282 10.3467 7.49628 10.3271 7.1506C10.3271 7.14072 10.4404 7.02714 10.6709 6.8148C10.8975 6.60739 11.1084 6.32097 11.2959 5.96541C11.4834 5.59998 11.5771 5.16541 11.5771 4.66171C11.5771 3.7827 11.2998 3.06171 10.749 2.50862C10.2061 1.95554 9.50293 1.67899 8.63965 1.67899C7.59668 1.67899 6.65918 2.04936 5.82715 2.78517C4.99121 3.51109 4.33496 4.57776 3.8584 5.98517C3.37793 7.3827 3.13965 9.04689 3.13965 10.9827C3.13965 12.8543 3.37402 14.4741 3.84277 15.842C4.31934 17.2148 4.9873 18.2666 5.84277 19.0025C6.70605 19.7284 7.70215 20.0889 8.82715 20.0889C9.36621 20.0889 9.83496 20.0494 10.2334 19.9704C10.6279 19.8913 11.0615 19.7629 11.5303 19.5753V16.3555C11.5303 15.6197 11.5068 15.1062 11.4678 14.8148C11.4248 14.5136 11.2881 14.2913 11.0615 14.1432C10.8428 14 10.4678 13.9259 9.93652 13.9259C9.74902 13.9259 9.6123 13.8864 9.53027 13.8074C9.44434 13.7284 9.39746 13.5457 9.38965 13.2543C9.38965 13.0716 9.42871 12.9136 9.51465 12.7802C9.6084 12.637 9.7373 12.5629 9.90527 12.5629C10.9561 12.6321 11.874 12.6617 12.6553 12.6617C13.4053 12.6617 14.3037 12.6321 15.3584 12.5629C15.5029 12.5629 15.6162 12.637 15.7021 12.7802C15.7842 12.9136 15.8271 13.0716 15.8271 13.2543C15.8154 13.5457 15.7686 13.7284 15.6865 13.8074C15.6006 13.8864 15.4678 13.9259 15.2803 13.9259C14.7803 13.9259 14.4209 14.0148 14.2021 14.1827C13.9912 14.3407 13.8623 14.5778 13.8115 14.8938C13.7568 15.2 13.7334 15.6839 13.7334 16.3555V20.0889C12.7529 20.6716 11.8506 21.0666 11.0303 21.2938C10.2178 21.516 9.19043 21.6296 7.95215 21.6296Z" fill="black"/>
</svg>
