<svg width="11" height="12" viewBox="0 0 11 12" fill="none" xmlns="http://www.w3.org/2000/svg">
<path d="M0.960449 5.80672C0.960449 4.65116 1.13232 3.63388 1.47607 2.76474C1.81982 1.89561 2.28857 1.224 2.88232 0.749929C3.47607 0.275855 4.13623 0.0388184 4.8667 0.0388184C5.4917 0.0388184 6.03857 0.20672 6.50732 0.532645C6.98389 0.848695 7.35107 1.27339 7.60107 1.79684V0.196843H10.3354V11.4363H7.60107V9.83635C7.33936 10.3647 6.96826 10.7944 6.4917 11.1203C6.02295 11.4363 5.47607 11.5944 4.85107 11.5944C4.13232 11.5944 3.47607 11.3573 2.88232 10.8833C2.28857 10.4092 1.81982 9.73265 1.47607 8.84869C1.13232 7.96968 0.960449 6.9524 0.960449 5.80672ZM7.60107 5.82647C7.60107 4.95734 7.41357 4.28079 7.03857 3.7919C6.66357 3.29314 6.20264 3.04129 5.66357 3.04129C5.12061 3.04129 4.66357 3.2882 4.28857 3.77215C3.91357 4.26104 3.72607 4.93758 3.72607 5.80672C3.72607 6.66598 3.91357 7.34252 4.28857 7.84129C4.66357 8.34499 5.12061 8.5919 5.66357 8.5919C6.20264 8.5919 6.66357 8.34993 7.03857 7.86104C7.41357 7.36228 7.60107 6.68573 7.60107 5.82647Z" fill="white"/>
</svg>
