<svg width="15" height="22" viewBox="0 0 15 22" fill="none" xmlns="http://www.w3.org/2000/svg">
<path d="M8.25635 21.6296C6.83838 21.6296 5.5415 21.2 4.36572 20.3457C3.18603 19.4913 2.24853 18.2716 1.55322 16.6913C0.865723 15.1111 0.521973 13.2691 0.521973 11.1605C0.521973 9.04196 0.854004 7.17035 1.52197 5.5506C2.18603 3.92097 3.13525 2.65677 4.36572 1.758C5.604 0.864178 7.05322 0.414795 8.70947 0.414795C10.1353 0.414795 11.4048 0.785166 12.522 1.52097C13.647 2.24689 14.2095 3.36788 14.2095 4.87899C14.2173 5.82714 13.9907 6.63702 13.522 7.30862C13.061 7.97035 12.436 8.29628 11.647 8.29628C11.354 8.29628 11.104 8.23208 10.897 8.09875C10.686 7.95554 10.5298 7.79257 10.4282 7.60492C10.3228 7.40739 10.2798 7.25924 10.3032 7.1506C10.3032 7.11109 10.4165 7.00245 10.647 6.8148C10.8853 6.61726 11.0923 6.35554 11.272 6.02467C11.4595 5.68393 11.5532 5.26912 11.5532 4.78023C11.5532 3.83208 11.2954 3.08146 10.7876 2.52838C10.2759 1.96541 9.57275 1.67899 8.67822 1.67899C7.65478 1.67899 6.74853 2.04936 5.95947 2.78517C5.1665 3.51109 4.55322 4.57776 4.11572 5.98517C3.67822 7.3827 3.45947 9.04689 3.45947 10.9827C3.45947 12.6716 3.69385 14.2024 4.1626 15.5852C4.63916 16.958 5.31103 18.0494 6.17822 18.8642C7.0415 19.6839 8.02978 20.0889 9.14697 20.0889C10.0532 20.0889 10.8228 19.8518 11.4595 19.3778C12.104 18.9037 12.686 18.1432 13.2095 17.0864C13.2915 16.8889 13.4048 16.7901 13.5532 16.7901C13.686 16.7901 13.8384 16.8592 14.0063 16.9876C14.2642 17.2148 14.397 17.442 14.397 17.679C14.397 17.8123 14.3657 17.916 14.3032 17.995C13.6665 19.0123 13.0688 19.7728 12.5063 20.2864C11.9517 20.8 11.3501 21.1457 10.6938 21.3333C10.0454 21.5308 9.23291 21.6296 8.25635 21.6296Z" fill="black"/>
</svg>
