<svg width="17" height="22" viewBox="0 0 17 22" fill="none" xmlns="http://www.w3.org/2000/svg">
<path d="M1.37549 21.0962C1.21924 21.0962 1.10205 21.027 1.03174 20.8986C0.957519 20.7554 0.922363 20.5925 0.922363 20.4048C0.930176 20.0888 0.97705 19.9011 1.06299 19.832C1.14502 19.7678 1.30518 19.7332 1.54736 19.7332C2.02393 19.7332 2.37939 19.6246 2.60986 19.3974C2.84814 19.1752 2.99268 18.9036 3.04736 18.5875C3.10986 18.2616 3.14893 17.832 3.17236 17.3036V4.78012C3.14893 4.24185 3.10986 3.81222 3.04736 3.49617C2.99268 3.18012 2.84814 2.90358 2.60986 2.66654C2.37939 2.4295 2.02393 2.31098 1.54736 2.31098H1.39111C1.22314 2.31098 1.10205 2.28135 1.03174 2.21222C0.969238 2.13321 0.930176 1.95049 0.922363 1.65913C0.922363 1.4616 0.957519 1.29864 1.03174 1.1653C1.10205 1.03691 1.21924 0.967773 1.37549 0.967773C2.45752 1.02209 3.4458 1.04679 4.34424 1.04679H8.64111C9.92236 1.07642 10.9888 1.33814 11.8442 1.83691C12.7075 2.3258 13.3364 2.9579 13.7349 3.73321C14.1411 4.49864 14.3442 5.32333 14.3442 6.20234C14.3442 7.36284 13.9771 8.4295 13.2505 9.40234C12.5317 10.3653 11.5474 11.0567 10.2974 11.4764L10.7192 12.3456C11.4146 13.7678 12.0474 14.9925 12.6099 16.0196C13.1802 17.0468 13.8013 18.0048 14.4692 18.8838C14.938 19.3727 15.438 19.6542 15.9692 19.7332C16.0005 19.7332 16.0708 19.7431 16.188 19.753C16.313 19.7678 16.4106 19.827 16.4849 19.9307C16.5552 20.0394 16.5942 20.1974 16.5942 20.4048C16.5942 20.5925 16.5552 20.7554 16.4849 20.8986C16.4106 21.027 16.2974 21.0962 16.1411 21.0962L15.5005 21.0567C14.7583 21.0172 14.2231 20.9974 13.8911 20.9974C13.2231 20.8295 12.6489 20.5332 12.1724 20.1085C11.7036 19.6739 11.2349 19.0567 10.7661 18.2517C10.2856 17.4517 9.61377 16.1381 8.75049 14.3209L8.29736 13.4122C8.04736 12.9283 7.80127 12.5974 7.56299 12.4246C7.33252 12.2418 6.93799 12.148 6.37549 12.148H5.64111V17.3036C5.66064 17.832 5.6958 18.2616 5.75049 18.5875C5.81299 18.9036 5.95752 19.1752 6.18799 19.3974C6.42627 19.6246 6.78564 19.7332 7.26611 19.7332H7.42236C7.56689 19.7332 7.67627 19.7727 7.75049 19.8517C7.83252 19.9209 7.87939 20.1036 7.89111 20.4048C7.89111 20.5925 7.85205 20.7554 7.78174 20.8986C7.70752 21.027 7.59424 21.0962 7.43799 21.0962C6.37549 21.027 5.33252 20.9974 4.31299 20.9974C3.43799 20.9974 2.45752 21.027 1.37549 21.0962ZM7.84424 10.9233C10.3208 10.9233 11.563 9.45173 11.563 6.49864C11.563 5.28876 11.2388 4.27642 10.5942 3.45666C9.9458 2.64185 8.87939 2.23197 7.39111 2.23197C6.91064 2.23197 6.54736 2.30605 6.29736 2.44926C6.04736 2.5974 5.87549 2.84432 5.78174 3.19987C5.68799 3.55543 5.64111 4.10358 5.64111 4.83938V10.9233H7.84424Z" fill="black"/>
</svg>
