<svg width="15" height="22" viewBox="0 0 15 22" fill="none" xmlns="http://www.w3.org/2000/svg">
<path d="M8.27319 21.2444C6.85522 21.2444 5.55835 20.8147 4.38257 19.9604C3.20288 19.1061 2.26538 17.8863 1.57007 16.3061C0.882568 14.7258 0.538818 12.8839 0.538818 10.7752C0.538818 8.6567 0.870849 6.7851 1.53882 5.16534C2.20288 3.53571 3.1521 2.27152 4.38257 1.37275C5.62085 0.478924 7.07007 0.029541 8.72632 0.029541C10.1521 0.029541 11.4216 0.399912 12.5388 1.13571C13.6638 1.86164 14.2263 2.98263 14.2263 4.49374C14.2341 5.44189 14.0076 6.25176 13.5388 6.92337C13.0779 7.5851 12.4529 7.91102 11.6638 7.91102C11.3708 7.91102 11.1208 7.84683 10.9138 7.71349C10.7029 7.57028 10.5466 7.40732 10.4451 7.21966C10.3396 7.02213 10.2966 6.87399 10.3201 6.76534C10.3201 6.72584 10.4333 6.6172 10.6638 6.42954C10.9021 6.23201 11.1091 5.97028 11.2888 5.63942C11.4763 5.29868 11.5701 4.88386 11.5701 4.39497C11.5701 3.44683 11.3123 2.69621 10.8044 2.14312C10.2927 1.58016 9.5896 1.29374 8.69507 1.29374C7.67163 1.29374 6.76538 1.66411 5.97632 2.39991C5.18335 3.12584 4.57007 4.1925 4.13257 5.59991C3.69507 6.99744 3.47632 8.66164 3.47632 10.5974C3.47632 12.2863 3.71069 13.8172 4.17944 15.1999C4.65601 16.5728 5.32788 17.6641 6.19507 18.4789C7.05835 19.2987 8.04663 19.7036 9.16382 19.7036C10.0701 19.7036 10.8396 19.4666 11.4763 18.9925C12.1208 18.5184 12.7029 17.7579 13.2263 16.7011C13.3083 16.5036 13.4216 16.4049 13.5701 16.4049C13.7029 16.4049 13.8552 16.474 14.0232 16.6024C14.281 16.8295 14.4138 17.0567 14.4138 17.2937C14.4138 17.4271 14.3826 17.5308 14.3201 17.6098C13.6833 18.6271 13.0857 19.3876 12.5232 19.9011C11.9685 20.4147 11.3669 20.7604 10.7107 20.9481C10.0623 21.1456 9.24976 21.2444 8.27319 21.2444Z" fill="black"/>
</svg>
