<svg width="15" height="21" viewBox="0 0 15 21" fill="none" xmlns="http://www.w3.org/2000/svg">
<path d="M4.78455 20.4815C4.63611 20.4815 4.52673 20.4124 4.45642 20.284C4.3822 20.1408 4.34705 19.9778 4.34705 19.7902C4.35486 19.4741 4.40173 19.2864 4.48767 19.2173C4.5697 19.1531 4.72986 19.1185 4.97205 19.1185C5.44861 19.1185 5.80408 19.0099 6.03455 18.7827C6.27283 18.5605 6.41736 18.2889 6.47205 17.9729C6.53455 17.6469 6.57361 17.2173 6.59705 16.6889V1.61731H4.86267C4.30017 1.63213 3.86267 1.78521 3.55017 2.07164C3.24548 2.34818 3.01111 2.77287 2.84705 3.33583C2.6908 3.88892 2.55408 4.68892 2.4408 5.72596C2.41736 5.88398 2.3158 6.01731 2.1283 6.12102C1.94861 6.22966 1.76111 6.27904 1.5658 6.27904C1.41736 6.27904 1.28455 6.22966 1.15955 6.12102C1.03455 6.0025 0.972046 5.84447 0.972046 5.64694L1.03455 1.2025C1.03455 0.688919 1.26111 0.432129 1.72205 0.432129H13.9408C14.3783 0.432129 14.597 0.688919 14.597 1.2025L14.6908 5.64694C14.6908 5.84447 14.6205 6.0025 14.4877 6.12102C14.351 6.22966 14.2103 6.27904 14.0658 6.27904C13.8666 6.27904 13.6791 6.22966 13.5033 6.12102C13.3236 6.01731 13.2299 5.88398 13.222 5.72596C13.0853 4.6741 12.9408 3.86917 12.7845 3.31608C12.6361 2.76299 12.4017 2.34818 12.0814 2.07164C11.7689 1.78521 11.3314 1.63213 10.7689 1.61731H9.0658V16.6889C9.08533 17.2173 9.12049 17.6469 9.17517 17.9729C9.23767 18.2889 9.3822 18.5605 9.61267 18.7827C9.85095 19.0099 10.2103 19.1185 10.6908 19.1185H10.847C10.9916 19.1185 11.101 19.1581 11.1752 19.2371C11.2455 19.3062 11.2924 19.4889 11.3158 19.7902C11.3158 19.9778 11.2767 20.1408 11.2064 20.284C11.1322 20.4124 11.0189 20.4815 10.8627 20.4815C9.80017 20.4124 8.8158 20.3827 7.90955 20.3827C6.90955 20.3827 5.86658 20.4124 4.78455 20.4815Z" fill="black"/>
</svg>
