<svg width="12" height="15" viewBox="0 0 12 15" fill="none" xmlns="http://www.w3.org/2000/svg">
<path d="M0.783691 7.34491C0.783691 5.95232 1.01807 4.70787 1.48682 3.61158C1.96338 2.52022 2.63135 1.67083 3.48682 1.06343C4.33838 0.460957 5.30713 0.154785 6.39307 0.154785C7.7251 0.154785 8.86182 0.59923 9.79932 1.47824C10.7446 2.36219 11.3813 3.56713 11.7056 5.09306H8.70557C8.48682 4.50046 8.1665 4.05602 7.75244 3.74985C7.34619 3.4338 6.88135 3.27577 6.36182 3.27577C5.52588 3.27577 4.8501 3.65108 4.33057 4.4017C3.80713 5.14244 3.54932 6.12022 3.54932 7.34491C3.54932 8.58442 3.80713 9.57207 4.33057 10.3079C4.8501 11.0486 5.52588 11.414 6.36182 11.414C6.88135 11.414 7.34619 11.2659 7.75244 10.9597C8.1665 10.6437 8.48682 10.1894 8.70557 9.59676H11.7056C11.3813 11.1375 10.7446 12.3523 9.79932 13.2313C8.86182 14.1005 7.7251 14.535 6.39307 14.535C5.30713 14.535 4.33838 14.2338 3.48682 13.6264C2.63135 13.0091 1.96338 12.1597 1.48682 11.0782C1.01807 9.98689 0.783691 8.74244 0.783691 7.34491Z" fill="white"/>
</svg>
