<svg width="18" height="21" viewBox="0 0 18 21" fill="none" xmlns="http://www.w3.org/2000/svg">
<path d="M0.841064 20.4816C0.684814 20.4816 0.571533 20.4124 0.497314 20.284C0.427002 20.1408 0.387939 19.9779 0.387939 19.7902C0.399658 19.4741 0.446533 19.2865 0.528564 19.2174C0.614502 19.1532 0.708252 19.1186 0.825439 19.1186C0.950439 19.1186 1.02856 19.1186 1.05981 19.1186C1.55981 19.1186 1.9231 18.9556 2.15356 18.6248C2.39185 18.2988 2.57935 17.9285 2.71606 17.5186C2.8606 17.1137 2.95825 16.8371 3.01294 16.689L7.38794 3.59267C7.48169 3.27662 7.52856 3.0297 7.52856 2.84205C7.52856 2.4618 7.41138 2.1902 7.18481 2.03217C6.95435 1.86427 6.63013 1.726 6.21606 1.61736C5.9231 1.55316 5.74731 1.48896 5.68481 1.41983C5.62231 1.35563 5.59106 1.17785 5.59106 0.886493C5.59106 0.639579 5.64185 0.471678 5.74731 0.392666C5.84888 0.303778 6.02075 0.254395 6.26294 0.254395C7.09497 0.254395 7.75513 0.333407 8.24731 0.491432C8.7356 0.649456 9.16138 0.965506 9.52856 1.43958C9.90356 1.91365 10.2473 2.63464 10.5598 3.59267L14.7629 16.689C15.0129 17.4939 15.2512 18.0914 15.4817 18.4865C15.72 18.8816 16.0676 19.0939 16.5286 19.1186H16.6848C16.8489 19.1186 16.9661 19.1581 17.0286 19.2371C17.0989 19.3062 17.1418 19.489 17.1536 19.7902C17.1536 19.9779 17.1145 20.1408 17.0442 20.284C16.97 20.4124 16.8606 20.4816 16.7161 20.4816C15.6418 20.4124 14.7239 20.3828 13.9661 20.3828C12.9661 20.3828 11.927 20.4124 10.8567 20.4816C10.7083 20.4816 10.595 20.4124 10.5129 20.284C10.4387 20.1408 10.4036 19.9779 10.4036 19.7902C10.4231 19.489 10.4661 19.3062 10.5286 19.2371C10.5989 19.1581 10.72 19.1186 10.8879 19.1186C11.4504 19.1186 11.845 19.0544 12.0754 18.9211C12.3137 18.7779 12.4348 18.526 12.4348 18.1704C12.4348 17.8939 12.3333 17.4001 12.1379 16.689L11.2786 14.0618H5.10669C4.68872 15.3655 4.45044 16.126 4.38794 16.3334C4.33325 16.5458 4.30981 16.6643 4.30981 16.689C4.1106 17.4939 4.01294 18.0075 4.01294 18.2297C4.01294 18.5853 4.13794 18.8223 4.38794 18.9408C4.63794 19.0593 5.1106 19.1186 5.80981 19.1186H5.96606C6.13013 19.1186 6.24731 19.1581 6.30981 19.2371C6.37231 19.3062 6.41138 19.489 6.43481 19.7902C6.43481 19.9779 6.39575 20.1408 6.32544 20.284C6.25122 20.4124 6.13794 20.4816 5.98169 20.4816C4.91919 20.4124 4.01294 20.3828 3.26294 20.3828C2.73169 20.3828 1.9231 20.4124 0.841064 20.4816ZM5.59106 12.6988H10.8411L8.30981 4.58032H8.23169L5.59106 12.6988Z" fill="black"/>
</svg>
