<svg width="9" height="12" viewBox="0 0 9 12" fill="none" xmlns="http://www.w3.org/2000/svg">
<path d="M4.78796 11.5944C4.01453 11.5944 3.32703 11.4314 2.72546 11.1005C2.11999 10.7598 1.63953 10.3005 1.28796 9.71783C0.944214 9.14005 0.748902 8.4882 0.709839 7.76227H3.39734C3.42859 8.14746 3.56921 8.46351 3.81921 8.71042C4.07703 8.94746 4.38953 9.06598 4.75671 9.06598C5.10046 9.06598 5.36609 8.98203 5.55359 8.80919C5.74109 8.64129 5.83484 8.424 5.83484 8.15734C5.83484 7.83141 5.69812 7.59437 5.42859 7.44623C5.16687 7.2882 4.74109 7.1203 4.14734 6.93265C3.51062 6.73511 2.97937 6.53758 2.55359 6.34005C2.1239 6.13265 1.75671 5.80178 1.44421 5.3524C1.13953 4.90795 0.991089 4.30055 0.991089 3.53511C0.991089 2.89314 1.13171 2.30549 1.41296 1.77709C1.69421 1.23882 2.10437 0.819065 2.64734 0.512892C3.19812 0.196843 3.85046 0.0388184 4.60046 0.0388184C5.71375 0.0388184 6.59265 0.389436 7.24109 1.08573C7.88562 1.78697 8.25671 2.71536 8.35046 3.87092H5.83484C5.79187 3.47586 5.65515 3.16968 5.42859 2.94252C5.19812 2.7203 4.89734 2.60672 4.52234 2.60672C4.20984 2.60672 3.96374 2.68573 3.78796 2.84376C3.61999 2.9919 3.53796 3.19437 3.53796 3.4561C3.53796 3.78697 3.67078 4.02894 3.94421 4.18697C4.21374 4.34499 4.63562 4.51289 5.20984 4.68079C5.86609 4.89314 6.40125 5.10549 6.81921 5.31289C7.23328 5.52524 7.60046 5.86104 7.91296 6.3203C8.22546 6.7845 8.38562 7.40178 8.39734 8.17709C8.39734 8.83882 8.2489 9.42153 7.95984 9.93511C7.66687 10.4487 7.245 10.8586 6.69421 11.1598C6.15125 11.4462 5.51453 11.5944 4.78796 11.5944Z" fill="white"/>
</svg>
