<svg width="18" height="22" viewBox="0 0 18 22" fill="none" xmlns="http://www.w3.org/2000/svg">
<path d="M1.42285 21.0963C1.27441 21.0963 1.16113 21.0272 1.0791 20.8988C1.00488 20.7556 0.969727 20.5926 0.969727 20.4049C0.989258 20.0889 1.04004 19.9012 1.12598 19.8321C1.20801 19.7679 1.36426 19.7333 1.59473 19.7333C2.08301 19.7333 2.43848 19.6247 2.65723 19.3975C2.88379 19.1753 3.02441 18.9136 3.0791 18.6074C3.12988 18.3062 3.16113 17.8716 3.17285 17.3037L3.21973 4.7605C3.21973 4.1284 3.16504 3.64939 3.06348 3.31852C2.95801 2.9926 2.78613 2.75556 2.54785 2.60741C2.31738 2.4642 1.98535 2.34075 1.54785 2.2321C1.2666 2.16791 1.08691 2.10371 1.0166 2.03457C0.954102 1.97038 0.922852 1.7926 0.922852 1.50124C0.922852 1.25433 0.973633 1.08642 1.0791 1.00741C1.19238 0.918524 1.36426 0.869141 1.59473 0.869141C2.63379 0.869141 3.4541 0.962968 4.04785 1.14568C4.64941 1.31852 5.18066 1.63457 5.6416 2.09383C6.09863 2.55803 6.60254 3.25926 7.15723 4.20741L14.001 15.5852H14.0791L14.0322 4.7605C14.0088 4.18272 13.9736 3.74321 13.9229 3.43704C13.8682 3.13581 13.7275 2.87408 13.501 2.64692C13.2822 2.4247 12.9307 2.31112 12.4541 2.31112H12.2979C12.1299 2.31112 12.0088 2.28149 11.9385 2.21235C11.8643 2.13334 11.8174 1.95062 11.7979 1.65926C11.7979 1.46173 11.8369 1.29877 11.9229 1.16544C12.0049 1.03704 12.1143 0.967906 12.251 0.967906C13.3135 1.02223 14.1143 1.04692 14.6572 1.04692C14.9697 1.04692 15.5713 1.02717 16.4697 0.987659L17.001 0.967906C17.1455 0.967906 17.2549 1.03704 17.3291 1.16544C17.4111 1.29877 17.4541 1.46173 17.4541 1.65926C17.4307 1.97531 17.3799 2.16791 17.2979 2.2321C17.2119 2.28642 17.0557 2.31112 16.8291 2.31112C16.3369 2.31112 15.9775 2.4247 15.751 2.64692C15.5322 2.87408 15.3955 3.13581 15.3447 3.43704C15.3018 3.74321 15.2705 4.18272 15.251 4.7605L15.2041 20.6815C15.1807 20.958 14.9736 21.0963 14.5791 21.0963C14.2549 21.0963 14.0088 20.958 13.8447 20.6815L4.42285 4.7605H4.34473L4.40723 17.3037C4.41504 17.8716 4.44629 18.3062 4.50098 18.6074C4.55176 18.9136 4.68848 19.1753 4.90723 19.3975C5.13379 19.6247 5.48926 19.7333 5.96973 19.7333H6.12598C6.29004 19.7333 6.41113 19.7728 6.48535 19.8519C6.55566 19.921 6.60254 20.1037 6.62598 20.4049C6.62598 20.5926 6.58691 20.7556 6.5166 20.8988C6.44238 21.0272 6.3291 21.0963 6.17285 21.0963C5.11035 21.0272 4.30176 20.9975 3.75098 20.9975C3.41504 20.9975 2.83301 21.0173 2.00098 21.0568L1.42285 21.0963Z" fill="black"/>
</svg>
