<svg width="9" height="12" viewBox="0 0 9 12" fill="none" xmlns="http://www.w3.org/2000/svg">
<path d="M5.58374 0.078125C6.61499 0.078125 7.44312 0.507755 8.06812 1.36208C8.69312 2.22134 9.00562 3.39171 9.00562 4.87812V11.4361H6.28687V5.33245C6.28687 4.58183 6.13062 4.00405 5.81812 3.59417C5.51343 3.17442 5.10327 2.96208 4.58374 2.96208C4.07202 2.96208 3.66187 3.17442 3.34937 3.59417C3.03687 4.00405 2.88062 4.58183 2.88062 5.33245V11.4361H0.161865V0.196644H2.88062V1.69788C3.16187 1.19911 3.53687 0.804051 4.00562 0.512693C4.47437 0.226272 4.9978 0.078125 5.58374 0.078125Z" fill="white"/>
</svg>
