<svg width="10" height="17" viewBox="0 0 10 17" fill="none" xmlns="http://www.w3.org/2000/svg">
<path d="M2.96313 1.79684C3.23267 1.27339 3.60376 0.848695 4.07251 0.532646C4.54126 0.20672 5.08813 0.0388184 5.71313 0.0388184C6.4397 0.0388184 7.10376 0.275855 7.69751 0.749929C8.29126 1.224 8.76001 1.89561 9.10376 2.76474C9.44751 3.63388 9.61938 4.65116 9.61938 5.80672C9.61938 6.9524 9.44751 7.96968 9.10376 8.8487C8.76001 9.73265 8.29126 10.4092 7.69751 10.8833C7.10376 11.3573 6.4397 11.5944 5.71313 11.5944C5.09595 11.5944 4.54907 11.4363 4.07251 11.1203C3.60376 10.7944 3.23267 10.3796 2.96313 9.87586V16.7894H0.244385V0.196843H2.96313V1.79684ZM6.85376 5.80672C6.85376 4.93758 6.66626 4.26104 6.29126 3.77215C5.91626 3.2882 5.45142 3.04129 4.90063 3.04129C4.35767 3.04129 3.89282 3.29314 3.51001 3.7919C3.13501 4.28079 2.94751 4.95734 2.94751 5.82647C2.94751 6.68573 3.13501 7.36228 3.51001 7.86104C3.89282 8.34993 4.35767 8.59191 4.90063 8.59191C5.4397 8.59191 5.90063 8.34499 6.27563 7.84129C6.65845 7.34252 6.85376 6.66598 6.85376 5.80672Z" fill="white"/>
</svg>
