<svg width="10" height="16" viewBox="0 0 10 16" fill="none" xmlns="http://www.w3.org/2000/svg">
<path d="M5.71362 4.07828C6.73315 4.07828 7.54956 4.50791 8.16675 5.36223C8.78003 6.22149 9.08862 7.39186 9.08862 8.87828V15.4363H6.36987V9.3326C6.36987 8.58199 6.21362 8.00421 5.90112 7.59433C5.59644 7.17458 5.18628 6.96223 4.66675 6.96223C4.15503 6.96223 3.74487 7.17458 3.43237 7.59433C3.11987 8.00421 2.96362 8.58199 2.96362 9.3326V15.4363H0.244873V0.54248H2.96362V5.71779C3.24487 5.21902 3.62378 4.82396 4.10425 4.5326C4.58081 4.23137 5.11987 4.07828 5.71362 4.07828Z" fill="white"/>
</svg>
