<svg width="17" height="22" viewBox="0 0 17 22" fill="none" xmlns="http://www.w3.org/2000/svg">
<path d="M0.656738 21.0963C0.508301 21.0963 0.395019 21.0272 0.312988 20.8988C0.238769 20.7556 0.203613 20.5926 0.203613 20.4049C0.223144 20.0889 0.273925 19.9012 0.359863 19.8321C0.441894 19.7679 0.598144 19.7333 0.828613 19.7333C1.31689 19.7333 1.67236 19.6247 1.89111 19.3975C2.11768 19.1753 2.2583 18.9136 2.31299 18.6074C2.36377 18.3062 2.39502 17.8716 2.40674 17.3037L2.45361 4.7605C2.45361 4.1284 2.39893 3.64939 2.29736 3.31852C2.19189 2.9926 2.02002 2.75556 1.78174 2.60741C1.55127 2.4642 1.21924 2.34075 0.781738 2.2321C0.500488 2.16791 0.320801 2.10371 0.250488 2.03457C0.187988 1.97038 0.156738 1.7926 0.156738 1.50124C0.156738 1.25433 0.207519 1.08642 0.312988 1.00741C0.426269 0.918524 0.598144 0.869141 0.828613 0.869141C1.86768 0.869141 2.68799 0.962968 3.28174 1.14568C3.8833 1.31852 4.41455 1.63457 4.87549 2.09383C5.33252 2.55803 5.83643 3.25926 6.39111 4.20741L13.2349 15.5852H13.313L13.2661 4.7605C13.2427 4.18272 13.2075 3.74321 13.1567 3.43704C13.1021 3.13581 12.9614 2.87408 12.7349 2.64692C12.5161 2.4247 12.1646 2.31112 11.688 2.31112H11.5317C11.3638 2.31112 11.2427 2.28149 11.1724 2.21235C11.0981 2.13334 11.0513 1.95062 11.0317 1.65926C11.0317 1.46173 11.0708 1.29877 11.1567 1.16544C11.2388 1.03704 11.3481 0.967906 11.4849 0.967906C12.5474 1.02223 13.3481 1.04692 13.8911 1.04692C14.2036 1.04692 14.8052 1.02717 15.7036 0.987659L16.2349 0.967906C16.3794 0.967906 16.4888 1.03704 16.563 1.16544C16.645 1.29877 16.688 1.46173 16.688 1.65926C16.6646 1.97531 16.6138 2.16791 16.5317 2.2321C16.4458 2.28642 16.2896 2.31112 16.063 2.31112C15.5708 2.31112 15.2114 2.4247 14.9849 2.64692C14.7661 2.87408 14.6294 3.13581 14.5786 3.43704C14.5356 3.74321 14.5044 4.18272 14.4849 4.7605L14.438 20.6815C14.4146 20.958 14.2075 21.0963 13.813 21.0963C13.4888 21.0963 13.2427 20.958 13.0786 20.6815L3.65674 4.7605H3.57861L3.64111 17.3037C3.64893 17.8716 3.68018 18.3062 3.73486 18.6074C3.78564 18.9136 3.92236 19.1753 4.14111 19.3975C4.36768 19.6247 4.72314 19.7333 5.20361 19.7333H5.35986C5.52393 19.7333 5.64502 19.7728 5.71924 19.8519C5.78955 19.921 5.83643 20.1037 5.85986 20.4049C5.85986 20.5926 5.8208 20.7556 5.75049 20.8988C5.67627 21.0272 5.56299 21.0963 5.40674 21.0963C4.34424 21.0272 3.53564 20.9975 2.98486 20.9975C2.64893 20.9975 2.06689 21.0173 1.23486 21.0568L0.656738 21.0963Z" fill="black"/>
</svg>
