<svg width="10" height="12" viewBox="0 0 10 12" fill="none" xmlns="http://www.w3.org/2000/svg">
<path d="M0.366821 5.82647C0.366821 4.6561 0.554321 3.63388 0.929321 2.76474C1.30432 1.89561 1.82385 1.224 2.49182 0.749929C3.1676 0.275855 3.94495 0.0388184 4.81995 0.0388184C5.93323 0.0388184 6.86682 0.409189 7.61682 1.14499C8.36682 1.88573 8.8551 2.92277 9.08557 4.26598H6.17932C5.93713 3.41166 5.46838 2.98203 4.77307 2.98203C4.27307 2.98203 3.87073 3.22894 3.56995 3.71289C3.27698 4.20178 3.13245 4.90795 3.13245 5.82647C3.13245 6.73511 3.27698 7.43635 3.56995 7.9203C3.87073 8.40919 4.27307 8.65116 4.77307 8.65116C5.46838 8.65116 5.93713 8.22647 6.17932 7.36721H9.08557C8.8551 8.68573 8.35901 9.71783 7.6012 10.4684C6.8512 11.2191 5.92151 11.5944 4.81995 11.5944C3.94495 11.5944 3.1676 11.3672 2.49182 10.903C1.82385 10.4289 1.30432 9.75734 0.929321 8.8882C0.554321 8.00919 0.366821 6.98697 0.366821 5.82647Z" fill="white"/>
</svg>
