<svg width="17" height="22" viewBox="0 0 17 22" fill="none" xmlns="http://www.w3.org/2000/svg">
<path d="M8.02844 21.6296C6.4425 21.6296 5.04797 21.1457 3.84094 20.1876C2.63 19.2296 1.6925 17.9555 1.02844 16.3753C0.372192 14.795 0.0440674 13.1062 0.0440674 11.2987C0.0440674 9.0864 0.438598 7.16047 1.23157 5.51109C2.02063 3.86665 3.03235 2.60739 4.26282 1.73825C5.5011 0.859239 6.755 0.414795 8.02844 0.414795C9.62219 0.414795 11.0284 0.898745 12.2472 1.85677C13.4738 2.81973 14.4191 4.08393 15.0753 5.64936C15.7394 7.21973 16.0753 8.90862 16.0753 10.7259C16.0753 12.9383 15.673 14.8741 14.8722 16.5333C14.0675 18.1827 13.0441 19.4469 11.7941 20.3259C10.5441 21.195 9.28625 21.6296 8.02844 21.6296ZM7.99719 20.2469C9.13 20.2469 10.0753 19.8222 10.8253 18.9629C11.5831 18.1086 12.1534 16.9629 12.5284 15.5259C12.9034 14.079 13.0909 12.479 13.0909 10.7259C13.0909 9.10615 12.8956 7.61973 12.5128 6.26171C12.1378 4.89381 11.5636 3.80739 10.7941 3.00245C10.0323 2.18763 9.09875 1.77776 7.99719 1.77776C6.32922 1.77776 5.07532 2.67652 4.23157 4.46418C3.38782 6.24196 2.96594 8.48887 2.96594 11.2C2.96594 12.8494 3.15344 14.3555 3.52844 15.7234C3.90344 17.0963 4.46594 18.1926 5.21594 19.0222C5.96594 19.842 6.89172 20.2469 7.99719 20.2469Z" fill="black"/>
</svg>
