<svg width="17" height="22" viewBox="0 0 17 22" fill="none" xmlns="http://www.w3.org/2000/svg">
<path d="M8.28735 21.0148C7.0061 21.0148 5.91235 20.7283 5.0061 20.1654C4.09985 19.6024 3.41235 18.8567 2.9436 17.9333C2.47485 16.9999 2.24048 15.9925 2.24048 14.9111V4.14562C2.22876 3.62216 2.1936 3.19253 2.1311 2.86167C2.0686 2.53574 1.92017 2.2592 1.6936 2.03204C1.46313 1.80982 1.10376 1.69624 0.615479 1.69624H0.474854C0.306885 1.69624 0.185792 1.66661 0.115479 1.59747C0.0529785 1.51846 0.0100095 1.33574 -0.00952148 1.04439C-0.00952148 0.846855 0.0256345 0.683892 0.0998535 0.550558C0.181885 0.422164 0.295166 0.353027 0.443604 0.353027C1.5061 0.407349 2.49048 0.43204 3.39673 0.43204C4.40454 0.43204 5.44751 0.407349 6.52173 0.353027C6.66626 0.353027 6.77563 0.422164 6.84985 0.550558C6.93188 0.683892 6.97485 0.846855 6.97485 1.04439C6.95142 1.33574 6.90454 1.51846 6.83423 1.59747C6.76001 1.66661 6.63892 1.69624 6.47485 1.69624C5.93188 1.69624 5.53735 1.80488 5.28735 2.01229C5.03735 2.22463 4.8811 2.48636 4.8186 2.80241C4.76392 3.11846 4.73267 3.56784 4.72485 4.14562V14.0024C4.72485 15.4543 4.99438 16.679 5.53735 17.6765C6.07642 18.6641 7.1311 19.158 8.6936 19.158C10.2249 19.158 11.3069 18.7135 11.9436 17.8148C12.5881 16.9209 12.9124 15.795 12.9124 14.437V6.12093C12.9124 4.69871 12.8694 3.6913 12.7874 3.09871C12.7014 2.50611 12.5374 2.12587 12.2874 1.95303C12.0374 1.78513 11.6038 1.69624 10.9905 1.69624H10.8499C10.6936 1.69624 10.5764 1.66661 10.5061 1.59747C10.4319 1.51846 10.385 1.33574 10.3655 1.04439C10.3655 0.846855 10.4006 0.683892 10.4749 0.550558C10.5569 0.422164 10.6702 0.353027 10.8186 0.353027C11.9006 0.407349 12.8342 0.43204 13.6155 0.43204C14.4163 0.43204 15.3499 0.407349 16.4124 0.353027C16.5686 0.353027 16.6819 0.422164 16.7561 0.550558C16.8264 0.683892 16.8655 0.846855 16.8655 1.04439C16.8538 1.33574 16.8069 1.51846 16.7249 1.59747C16.6506 1.66661 16.5295 1.69624 16.3655 1.69624C15.6975 1.69624 15.2327 1.77525 14.9749 1.93327C14.7249 2.08142 14.553 2.43698 14.4592 2.99994C14.3655 3.55303 14.3186 4.53574 14.3186 5.94315V14.753C14.3186 16.1654 14.01 17.3407 13.3967 18.2888C12.7795 19.2271 12.01 19.9185 11.0842 20.3629C10.1545 20.7975 9.22485 21.0148 8.28735 21.0148Z" fill="black"/>
</svg>
