<svg width="10" height="12" viewBox="0 0 10 12" fill="none" xmlns="http://www.w3.org/2000/svg">
<path d="M0.228271 5.80648C0.228271 4.65092 0.400146 3.63364 0.743896 2.7645C1.08765 1.89536 1.5564 1.22376 2.15015 0.749685C2.7439 0.275611 3.40405 0.0385742 4.13452 0.0385742C4.75952 0.0385742 5.3064 0.206476 5.77515 0.532401C6.25171 0.848451 6.6189 1.27314 6.8689 1.7966V0.196599H9.60327V11.4361H6.8689V9.8361C6.60718 10.3645 6.23608 10.7941 5.75952 11.1201C5.29077 11.4361 4.7439 11.5941 4.1189 11.5941C3.40015 11.5941 2.7439 11.3571 2.15015 10.883C1.5564 10.4089 1.08765 9.7324 0.743896 8.84845C0.400146 7.96944 0.228271 6.95215 0.228271 5.80648ZM6.8689 5.82623C6.8689 4.95709 6.6814 4.28055 6.3064 3.79166C5.9314 3.2929 5.47046 3.04104 4.9314 3.04104C4.38843 3.04104 3.9314 3.28796 3.5564 3.77191C3.1814 4.2608 2.9939 4.93734 2.9939 5.80648C2.9939 6.66573 3.1814 7.34228 3.5564 7.84104C3.9314 8.34475 4.38843 8.59166 4.9314 8.59166C5.47046 8.59166 5.9314 8.34969 6.3064 7.8608C6.6814 7.36203 6.8689 6.68549 6.8689 5.82623Z" fill="white"/>
</svg>
