<svg width="14" height="22" viewBox="0 0 14 22" fill="none" xmlns="http://www.w3.org/2000/svg">
<path d="M1.3457 21.018C1.20898 21.018 1.10352 20.9489 1.0332 20.8205C0.958984 20.6773 0.923828 20.5143 0.923828 20.3267C0.931641 20.0106 0.978515 19.823 1.06445 19.7538C1.14648 19.6897 1.30664 19.6551 1.54883 19.6551C2.02539 19.6551 2.38086 19.5464 2.61133 19.3193C2.84961 19.0971 2.99414 18.8255 3.04883 18.5094C3.11133 18.1835 3.15039 17.7538 3.17383 17.2255V4.68224C3.15039 4.15879 3.11133 3.72916 3.04883 3.39829C2.99414 3.07236 2.84961 2.79582 2.61133 2.56866C2.38086 2.34644 2.02539 2.23286 1.54883 2.23286H1.39258C1.22461 2.23286 1.10352 2.20323 1.0332 2.13409C0.970703 2.05508 0.931641 1.87236 0.923828 1.58101C0.923828 1.38348 0.958984 1.22051 1.0332 1.08718C1.10352 0.958785 1.20898 0.889648 1.3457 0.889648C2.44727 0.94397 3.43945 0.968661 4.31445 0.968661H12.1738C12.5996 0.968661 12.8145 1.22545 12.8145 1.73903L12.8926 6.16372C12.8926 6.35138 12.8145 6.49953 12.6582 6.61804C12.5098 6.73656 12.3652 6.79582 12.2207 6.79582C12.0215 6.79582 11.8457 6.75138 11.6895 6.65755C11.541 6.55385 11.459 6.41064 11.4395 6.22298C11.3145 5.19582 11.166 4.41557 11.002 3.87236C10.8457 3.33409 10.6113 2.93409 10.2988 2.66743C9.99414 2.4057 9.56445 2.26249 9.00195 2.23286H5.64258V10.2724H10.1738C10.2871 10.2872 10.377 10.3662 10.4395 10.5094C10.5098 10.6427 10.5488 10.8057 10.5488 11.0032C10.5488 11.1613 10.5098 11.3094 10.4395 11.4378C10.377 11.5711 10.2871 11.6353 10.1738 11.6353H5.64258V17.6008C5.67383 18.0501 5.71289 18.4057 5.76758 18.6674C5.81836 18.9341 5.9707 19.1711 6.2207 19.3785C6.4707 19.5909 6.86133 19.6847 7.39258 19.6551H9.68945C10.2715 19.6304 10.7129 19.5119 11.0176 19.2995C11.3184 19.0773 11.5566 18.7366 11.7363 18.2724C11.9121 17.7983 12.127 17.0378 12.377 15.981C12.4902 15.6156 12.7715 15.4674 13.2207 15.5464C13.3848 15.5859 13.5332 15.6748 13.6582 15.8032C13.7832 15.9217 13.834 16.0798 13.8145 16.2773L13.3145 20.2477C13.2715 20.5242 13.1973 20.7119 13.0957 20.8008C12.9902 20.8798 12.8223 20.9193 12.5957 20.9193H4.3457C3.44727 20.9193 2.44727 20.9489 1.3457 21.018Z" fill="black"/>
</svg>
