<svg width="15" height="21" viewBox="0 0 15 21" fill="none" xmlns="http://www.w3.org/2000/svg">
<path d="M1.10645 20.6328C0.969726 20.6328 0.860351 20.5637 0.77832 20.4353C0.692383 20.2921 0.65332 20.1291 0.65332 19.9414C0.672851 19.6254 0.723633 19.4377 0.80957 19.3686C0.90332 19.3044 1.06738 19.2698 1.30957 19.2698C1.78613 19.2698 2.1416 19.1612 2.37207 18.934C2.61035 18.7118 2.75488 18.4402 2.80957 18.1241C2.87207 17.7982 2.91113 17.3686 2.93457 16.8402V4.29699C2.91113 3.77353 2.87207 3.3439 2.80957 3.01304C2.75488 2.68711 2.61035 2.41057 2.37207 2.18341C2.1416 1.96119 1.78613 1.8476 1.30957 1.8476H1.15332C0.985351 1.8476 0.864257 1.81797 0.793945 1.74884C0.719726 1.66983 0.672851 1.48711 0.65332 1.19575C0.65332 0.998222 0.692383 0.835259 0.77832 0.701925C0.860351 0.573531 0.969726 0.504395 1.10645 0.504395C2.18848 0.558716 3.18848 0.583407 4.10645 0.583407H7.85645C9.30176 0.583407 10.7041 0.968593 12.0596 1.72909C13.4229 2.49452 14.1064 4.01057 14.1064 6.2723C14.1064 7.53649 13.8018 8.6723 13.2002 9.66983C12.6064 10.6575 11.8291 11.4279 10.8721 11.9809C9.91113 12.5241 8.91895 12.7908 7.8877 12.7908C6.92676 12.7908 6.09473 12.6229 5.3877 12.2772V16.8402C5.39551 17.3686 5.42676 17.7982 5.48145 18.1241C5.54395 18.4402 5.68848 18.7118 5.91895 18.934C6.15723 19.1612 6.52051 19.2698 7.0127 19.2698H7.15332C7.31738 19.2698 7.43848 19.3093 7.5127 19.3883C7.59473 19.4575 7.6416 19.6402 7.65332 19.9414C7.65332 20.1291 7.61426 20.2921 7.54395 20.4353C7.46973 20.5637 7.35645 20.6328 7.2002 20.6328C6.1377 20.5637 5.09473 20.534 4.0752 20.534C3.17676 20.534 2.18848 20.5637 1.10645 20.6328ZM7.15332 11.3686C7.75488 11.3686 8.37598 11.2204 9.0127 10.9143C9.65723 10.613 10.2041 10.0846 10.6533 9.33403C11.0986 8.58341 11.3252 7.59575 11.3252 6.37106C11.3252 4.51427 10.8564 3.28464 9.91895 2.67723C8.98926 2.07477 8.00098 1.76859 6.9502 1.76859C6.52051 1.76859 6.2002 1.82785 5.98145 1.94637C5.7627 2.05501 5.60645 2.27723 5.5127 2.61797C5.42676 2.94884 5.3877 3.47723 5.3877 4.19822V11.013C5.78223 11.2501 6.37207 11.3686 7.15332 11.3686Z" fill="black"/>
</svg>
