<svg width="13" height="22" viewBox="0 0 13 22" fill="none" xmlns="http://www.w3.org/2000/svg">
<path d="M6.30273 21.5512C4.55273 21.5512 3.21289 21.1661 2.28711 20.4056C1.35742 19.6303 0.896484 18.4994 0.896484 17.008C0.896484 16.2475 1.09961 15.6204 1.50586 15.1315C1.91992 14.6327 2.45117 14.3809 3.09961 14.3809C3.48242 14.3957 3.77539 14.5142 3.97461 14.7364C4.16992 14.9636 4.27148 15.1661 4.27148 15.3488C4.27148 15.3784 4.18555 15.4574 4.02148 15.5858C3.85352 15.7043 3.70117 15.8969 3.56836 16.1586C3.44336 16.4105 3.38086 16.7512 3.38086 17.1858C3.38086 18.1735 3.61523 18.9389 4.08398 19.4772C4.56055 20.0204 5.30273 20.287 6.30273 20.287C6.99023 20.287 7.58789 20.1241 8.09961 19.7932C8.61914 19.4525 9.01367 19.0031 9.28711 18.45C9.56836 17.887 9.70898 17.2994 9.70898 16.692C9.70898 15.9315 9.53711 15.2796 9.19336 14.7364C8.84961 14.1833 8.42773 13.7241 7.92773 13.3537C7.42773 12.9883 6.74414 12.5586 5.88086 12.0698C4.88086 11.5068 4.06836 10.9932 3.44336 10.529C2.82617 10.0549 2.30273 9.43766 1.86523 8.67223C1.43555 7.91174 1.22461 6.95371 1.22461 5.80803C1.22461 3.98087 1.7168 2.60803 2.70898 1.69939C3.70898 0.790747 5.01367 0.336426 6.63086 0.336426C7.88867 0.336426 8.99023 0.682105 9.92773 1.36359C10.873 2.03519 11.3496 3.02285 11.3496 4.32655C11.3496 5.09198 11.1465 5.72408 10.7402 6.22285C10.334 6.71174 9.80273 6.95371 9.14648 6.95371C8.77148 6.92902 8.47852 6.8105 8.27148 6.59815C8.07227 6.37593 7.97461 6.16359 7.97461 5.96606C7.97461 5.95618 8.08398 5.88211 8.30273 5.74877C8.5293 5.62038 8.73242 5.42778 8.91211 5.17593C9.08789 4.92902 9.17773 4.5784 9.17773 4.12902C9.17773 3.35371 8.93555 2.7463 8.45898 2.31173C7.99023 1.86729 7.38477 1.64013 6.64648 1.64013C5.63477 1.64013 4.86523 1.9463 4.33398 2.54877C3.81055 3.14136 3.55273 3.88211 3.55273 4.76112C3.55273 5.50186 3.70898 6.11914 4.02148 6.61791C4.3418 7.12161 4.85352 7.60556 5.55273 8.07964C6.11523 8.46482 6.72852 8.84507 7.39648 9.22532C8.4668 9.83272 9.31836 10.3907 9.94336 10.9043C10.5684 11.408 11.0879 12.0698 11.5059 12.8994C11.9316 13.7191 12.1465 14.7364 12.1465 15.9611C12.1465 17.0179 11.8848 17.971 11.3652 18.8253C10.8418 19.6698 10.1348 20.3364 9.24023 20.8204C8.3418 21.3043 7.36523 21.5512 6.30273 21.5512Z" fill="black"/>
</svg>
