<svg width="21" height="22" viewBox="0 0 21 22" fill="none" xmlns="http://www.w3.org/2000/svg">
<path d="M9.69202 21.0769C9.44202 21.0769 9.26233 20.9683 9.16077 20.7609L3.53577 4.68189H3.45764L3.52014 17.2251C3.52795 17.793 3.5592 18.2276 3.61389 18.5288C3.66467 18.835 3.80139 19.0967 4.02014 19.3189C4.2467 19.5461 4.60217 19.6547 5.08264 19.6547H5.23889C5.40295 19.6547 5.52405 19.6942 5.59827 19.7732C5.66858 19.8424 5.71545 20.0251 5.73889 20.3263C5.73889 20.514 5.69983 20.6769 5.62952 20.8202C5.5553 20.9486 5.44202 21.0177 5.28577 21.0177L4.66077 20.9782C3.89905 20.9387 3.35217 20.9189 3.02014 20.9189C2.44592 20.9189 1.6178 20.9486 0.535767 21.0177C0.38733 21.0177 0.274048 20.9486 0.192017 20.8202C0.117798 20.6769 0.0826416 20.514 0.0826416 20.3263C0.102173 20.0103 0.152954 19.8226 0.238892 19.7535C0.320923 19.6893 0.477173 19.6547 0.707642 19.6547C1.19592 19.6547 1.55139 19.5461 1.77014 19.3189C1.9967 19.0967 2.13733 18.835 2.19202 18.5288C2.2428 18.2276 2.27405 17.793 2.28577 17.2251L2.33264 4.68189C2.33264 4.0251 2.27405 3.53127 2.16077 3.2004C2.04358 2.87448 1.8717 2.64238 1.64514 2.50905C1.42639 2.38065 1.09827 2.26213 0.660767 2.15349C0.598267 2.1288 0.496704 2.10411 0.363892 2.07448C0.227173 2.03497 0.13733 1.97077 0.0982666 1.87695C0.0552976 1.78806 0.0357666 1.63497 0.0357666 1.42263C0.0357666 1.17571 0.0865476 1.00781 0.192017 0.928799C0.305298 0.839911 0.477173 0.790527 0.707642 0.790527C1.69592 0.790527 2.50452 0.86954 3.12952 1.02756C3.76233 1.18559 4.32092 1.51152 4.80139 1.99547C5.27795 2.46954 5.67639 3.18065 5.98889 4.1288L10.2858 16.3362H10.3639L15.2858 0.968305H16.7076C17.6217 0.968305 18.6178 0.943614 19.692 0.889293C19.8365 0.889293 19.9459 0.958429 20.0201 1.08682C20.1022 1.22016 20.1451 1.38312 20.1451 1.58065C20.1217 1.8967 20.067 2.08929 19.9733 2.15349C19.8795 2.20781 19.7272 2.2325 19.5201 2.2325C19.028 2.2325 18.6647 2.34608 18.4264 2.56831C18.1959 2.79546 18.0514 3.07201 17.9889 3.39793C17.9342 3.7288 17.903 4.15843 17.8951 4.68189V17.2251C17.903 17.7535 17.9342 18.1831 17.9889 18.509C18.0514 18.8251 18.1959 19.0967 18.4264 19.3189C18.6647 19.5461 19.028 19.6547 19.5201 19.6547H19.6608C19.817 19.6547 19.9303 19.6942 20.0045 19.7732C20.0748 19.8424 20.1217 20.0251 20.1451 20.3263C20.1451 20.514 20.1022 20.6769 20.0201 20.8202C19.9459 20.9486 19.8365 21.0177 19.692 21.0177C18.6178 20.9486 17.6178 20.9189 16.692 20.9189C15.7233 20.9189 14.6959 20.9486 13.6139 21.0177C13.4655 21.0177 13.3522 20.9486 13.2701 20.8202C13.1959 20.6769 13.1608 20.514 13.1608 20.3263C13.1803 20.0103 13.2311 19.8226 13.317 19.7535C13.399 19.6893 13.5553 19.6547 13.7858 19.6547C14.274 19.6547 14.6334 19.5461 14.8639 19.3189C15.0905 19.0967 15.2389 18.8251 15.3014 18.509C15.3639 18.1831 15.399 17.7535 15.4108 17.2251V4.68189H15.3326L10.192 20.7609C10.1178 20.9683 9.94983 21.0769 9.69202 21.0769Z" fill="black"/>
</svg>
