<svg width="8" height="21" viewBox="0 0 8 21" fill="none" xmlns="http://www.w3.org/2000/svg">
<path d="M0.976929 20.6328C0.828491 20.6328 0.71521 20.5637 0.633179 20.4353C0.55896 20.2921 0.523804 20.1291 0.523804 19.9414C0.543335 19.6254 0.594117 19.4377 0.680054 19.3686C0.773804 19.3044 0.930054 19.2698 1.1488 19.2698C1.63708 19.2698 1.99646 19.1612 2.22693 18.934C2.45349 18.7118 2.60193 18.4402 2.66443 18.1241C2.73474 17.8081 2.78162 17.3834 2.80505 16.8402V4.29699C2.78162 3.7439 2.73474 3.30933 2.66443 2.99328C2.60193 2.67723 2.45349 2.41057 2.22693 2.18341C1.99646 1.96119 1.63708 1.8476 1.1488 1.8476H1.00818C0.851929 1.8476 0.734741 1.81797 0.664429 1.74884C0.59021 1.66983 0.543335 1.48711 0.523804 1.19575C0.523804 0.998222 0.55896 0.835259 0.633179 0.701925C0.71521 0.573531 0.828491 0.504395 0.976929 0.504395C2.05896 0.558716 3.04724 0.583407 3.94568 0.583407C4.94568 0.583407 5.98474 0.558716 7.07068 0.504395C7.22693 0.504395 7.34021 0.573531 7.41443 0.701925C7.48474 0.835259 7.5238 0.998222 7.5238 1.19575C7.51209 1.5118 7.4613 1.7044 7.36755 1.76859C7.2738 1.82291 7.10974 1.8476 6.88318 1.8476C6.39099 1.8476 6.02771 1.96119 5.78943 2.18341C5.55896 2.41057 5.41443 2.68711 5.35193 3.01304C5.29724 3.3439 5.26599 3.77353 5.25818 4.29699V16.8402C5.26599 17.3686 5.29724 17.7982 5.35193 18.1241C5.41443 18.4402 5.55896 18.7118 5.78943 18.934C6.02771 19.1612 6.39099 19.2698 6.88318 19.2698H7.0238C7.18787 19.2698 7.30896 19.3093 7.38318 19.3883C7.46521 19.4575 7.51209 19.6402 7.5238 19.9414C7.5238 20.1291 7.48474 20.2921 7.41443 20.4353C7.34021 20.5637 7.22693 20.6328 7.07068 20.6328C6.00818 20.5637 4.97693 20.534 3.97693 20.534C3.05896 20.534 2.05896 20.5637 0.976929 20.6328Z" fill="black"/>
</svg>
