<svg width="12" height="22" viewBox="0 0 12 22" fill="none" xmlns="http://www.w3.org/2000/svg">
<path d="M5.7323 21.7807C3.9823 21.7807 2.64246 21.3955 1.71667 20.6351C0.786988 19.8597 0.32605 18.7289 0.32605 17.2375C0.32605 16.477 0.529175 15.8499 0.935425 15.361C1.34949 14.8622 1.88074 14.6104 2.52917 14.6104C2.91199 14.6252 3.20496 14.7437 3.40417 14.9659C3.59949 15.1931 3.70105 15.3955 3.70105 15.5783C3.70105 15.6079 3.61511 15.6869 3.45105 15.8153C3.28308 15.9338 3.13074 16.1264 2.99792 16.3881C2.87292 16.64 2.81042 16.9807 2.81042 17.4153C2.81042 18.403 3.0448 19.1684 3.51355 19.7067C3.99011 20.2499 4.7323 20.5165 5.7323 20.5165C6.4198 20.5165 7.01746 20.3536 7.52917 20.0227C8.04871 19.682 8.44324 19.2326 8.71667 18.6795C8.99792 18.1165 9.13855 17.5289 9.13855 16.9215C9.13855 16.161 8.96667 15.5091 8.62292 14.9659C8.27917 14.4128 7.8573 13.9536 7.3573 13.5832C6.8573 13.2178 6.17371 12.7881 5.31042 12.2993C4.31042 11.7363 3.49792 11.2227 2.87292 10.7585C2.25574 10.2844 1.7323 9.66715 1.2948 8.90172C0.865112 8.14123 0.654175 7.1832 0.654175 6.03752C0.654175 4.21036 1.14636 2.83752 2.13855 1.92888C3.13855 1.02024 4.44324 0.565918 6.06042 0.565918C7.31824 0.565918 8.4198 0.911598 9.3573 1.59308C10.3026 2.26468 10.7792 3.25234 10.7792 4.55604C10.7792 5.32147 10.576 5.95357 10.1698 6.45234C9.76355 6.94123 9.2323 7.1832 8.57605 7.1832C8.20105 7.15851 7.90808 7.03999 7.70105 6.82765C7.50183 6.60542 7.40417 6.39308 7.40417 6.19555C7.40417 6.18567 7.51355 6.1116 7.7323 5.97826C7.95886 5.84987 8.16199 5.65728 8.34167 5.40542C8.51746 5.15851 8.6073 4.80789 8.6073 4.35851C8.6073 3.5832 8.36511 2.97579 7.88855 2.54123C7.4198 2.09678 6.81433 1.86962 6.07605 1.86962C5.06433 1.86962 4.2948 2.1758 3.76355 2.77826C3.24011 3.37086 2.9823 4.1116 2.9823 4.99061C2.9823 5.73135 3.13855 6.34863 3.45105 6.8474C3.77136 7.3511 4.28308 7.83505 4.9823 8.30913C5.5448 8.69431 6.15808 9.07456 6.82605 9.45481C7.89636 10.0622 8.74792 10.6202 9.37292 11.1338C9.99792 11.6375 10.5175 12.2993 10.9354 13.1289C11.3612 13.9486 11.576 14.9659 11.576 16.1906C11.576 17.2474 11.3143 18.2005 10.7948 19.0548C10.2714 19.8993 9.56433 20.5659 8.6698 21.0499C7.77136 21.5338 6.7948 21.7807 5.7323 21.7807Z" fill="black"/>
</svg>
