<svg width="17" height="22" viewBox="0 0 17 22" fill="none" xmlns="http://www.w3.org/2000/svg">
<path d="M8.50146 21.5512C7.05225 21.5512 5.73975 21.1661 4.56396 20.4056C3.396 19.6303 2.47021 18.4599 1.78271 16.8895C1.09521 15.3241 0.751465 13.3883 0.751465 11.0821C0.751465 8.96359 1.11865 7.09198 1.86084 5.47223C2.61084 3.8426 3.64209 2.5784 4.95459 1.67964C6.2749 0.785809 7.78662 0.336426 9.48584 0.336426C10.3179 0.336426 11.1421 0.49445 11.9546 0.8105C12.7749 1.12655 13.4546 1.63025 13.9858 2.31173C14.5171 2.98334 14.7827 3.81297 14.7827 4.80062C14.7827 5.72408 14.564 6.52902 14.1265 7.2105C13.6968 7.88211 13.1265 8.21791 12.4077 8.21791C12.0522 8.21791 11.7124 8.1142 11.3921 7.90186C11.0679 7.69445 10.896 7.41791 10.8765 7.07223C10.8765 7.06235 10.9897 6.94877 11.2202 6.73643C11.4468 6.52902 11.6577 6.2426 11.8452 5.88704C12.0327 5.52161 12.1265 5.08704 12.1265 4.58334C12.1265 3.70433 11.8491 2.98334 11.2983 2.43025C10.7554 1.87717 10.0522 1.60062 9.18896 1.60062C8.146 1.60062 7.2085 1.97099 6.37646 2.7068C5.54053 3.43272 4.88428 4.49939 4.40771 5.9068C3.92725 7.30433 3.68896 8.96852 3.68896 10.9043C3.68896 12.7759 3.92334 14.3957 4.39209 15.7636C4.86865 17.1364 5.53662 18.1883 6.39209 18.9241C7.25537 19.65 8.25146 20.0105 9.37646 20.0105C9.91553 20.0105 10.3843 19.971 10.7827 19.892C11.1772 19.813 11.6108 19.6846 12.0796 19.4969V16.2772C12.0796 15.5414 12.0562 15.0278 12.0171 14.7364C11.9741 14.4352 11.8374 14.213 11.6108 14.0648C11.3921 13.9216 11.0171 13.8475 10.4858 13.8475C10.2983 13.8475 10.1616 13.808 10.0796 13.729C9.99365 13.65 9.94678 13.4673 9.93896 13.1759C9.93896 12.9932 9.97803 12.8352 10.064 12.7019C10.1577 12.5586 10.2866 12.4846 10.4546 12.4846C11.5054 12.5537 12.4233 12.5833 13.2046 12.5833C13.9546 12.5833 14.853 12.5537 15.9077 12.4846C16.0522 12.4846 16.1655 12.5586 16.2515 12.7019C16.3335 12.8352 16.3765 12.9932 16.3765 13.1759C16.3647 13.4673 16.3179 13.65 16.2358 13.729C16.1499 13.808 16.0171 13.8475 15.8296 13.8475C15.3296 13.8475 14.9702 13.9364 14.7515 14.1043C14.5405 14.2624 14.4116 14.4994 14.3608 14.8154C14.3062 15.1216 14.2827 15.6056 14.2827 16.2772V20.0105C13.3022 20.5932 12.3999 20.9883 11.5796 21.2154C10.7671 21.4377 9.73975 21.5512 8.50146 21.5512Z" fill="black"/>
</svg>
