<svg width="15" height="21" viewBox="0 0 15 21" fill="none" xmlns="http://www.w3.org/2000/svg">
<path d="M4.62524 20.2476C4.47681 20.2476 4.36743 20.1785 4.29712 20.0501C4.2229 19.9069 4.18774 19.7439 4.18774 19.5563C4.19556 19.2402 4.24243 19.0526 4.32837 18.9834C4.4104 18.9192 4.57056 18.8847 4.81274 18.8847C5.28931 18.8847 5.64478 18.776 5.87524 18.5489C6.11353 18.3266 6.25806 18.055 6.31274 17.739C6.37524 17.4131 6.41431 16.9834 6.43774 16.455V1.38343H4.70337C4.14087 1.39824 3.70337 1.55133 3.39087 1.83775C3.08618 2.11429 2.85181 2.53898 2.68774 3.10195C2.53149 3.65503 2.39478 4.45503 2.28149 5.49207C2.25806 5.65009 2.15649 5.78343 1.96899 5.88713C1.78931 5.99577 1.60181 6.04516 1.40649 6.04516C1.25806 6.04516 1.12524 5.99577 1.00024 5.88713C0.875244 5.76861 0.812744 5.61059 0.812744 5.41306L0.875244 0.968613C0.875244 0.455032 1.10181 0.198242 1.56274 0.198242H13.7815C14.219 0.198242 14.4377 0.455032 14.4377 0.968613L14.5315 5.41306C14.5315 5.61059 14.4612 5.76861 14.3284 5.88713C14.1917 5.99577 14.051 6.04516 13.9065 6.04516C13.7073 6.04516 13.5198 5.99577 13.344 5.88713C13.1643 5.78343 13.0706 5.65009 13.0627 5.49207C12.926 4.44022 12.7815 3.63528 12.6252 3.08219C12.4768 2.52911 12.2424 2.11429 11.9221 1.83775C11.6096 1.55133 11.1721 1.39824 10.6096 1.38343H8.9065V16.455C8.92603 16.9834 8.96118 17.4131 9.01587 17.739C9.07837 18.055 9.2229 18.3266 9.45337 18.5489C9.69165 18.776 10.051 18.8847 10.5315 18.8847H10.6877C10.8323 18.8847 10.9417 18.9242 11.0159 19.0032C11.0862 19.0723 11.1331 19.255 11.1565 19.5563C11.1565 19.7439 11.1174 19.9069 11.0471 20.0501C10.9729 20.1785 10.8596 20.2476 10.7034 20.2476C9.64087 20.1785 8.6565 20.1489 7.75025 20.1489C6.75024 20.1489 5.70728 20.1785 4.62524 20.2476Z" fill="black"/>
</svg>
