<svg width="17" height="22" viewBox="0 0 17 22" fill="none" xmlns="http://www.w3.org/2000/svg">
<path d="M5.55054 21.018C5.4021 21.018 5.28882 20.9488 5.20679 20.8204C5.13257 20.6772 5.09741 20.5142 5.09741 20.3266C5.11694 20.0105 5.16773 19.8229 5.25366 19.7538C5.34741 19.6896 5.50366 19.655 5.72241 19.655C6.21069 19.655 6.57007 19.5463 6.80054 19.3192C7.0271 19.097 7.17554 18.8254 7.23804 18.5093C7.30054 18.1834 7.33569 17.7538 7.34741 17.2254V13.2747C7.34741 12.934 6.93335 11.7093 6.11304 9.60067C5.28882 7.48215 4.61694 5.82783 4.09741 4.64265C3.76148 3.88215 3.39429 3.31425 2.98804 2.94388C2.5896 2.57845 2.10132 2.32166 1.51929 2.17351C1.45679 2.16363 1.35523 2.14388 1.22241 2.11425C1.08569 2.07474 0.995849 2.01055 0.956787 1.91672C0.913818 1.81302 0.894287 1.65499 0.894287 1.44265C0.894287 1.19573 0.945068 1.02783 1.05054 0.948818C1.16382 0.859929 1.3396 0.810547 1.58179 0.810547C2.91382 0.810547 3.95679 1.04265 4.70679 1.5019C5.45679 1.95129 6.12085 2.82042 6.70679 4.10931C6.98804 4.81055 7.37866 5.80808 7.87866 7.11178C8.60523 8.96857 9.0896 10.1686 9.33179 10.7068H9.39429L12.1755 3.79326C12.3201 3.37351 12.3943 3.0624 12.3943 2.86487C12.3943 2.61795 12.2888 2.45005 12.0818 2.37104C11.8709 2.28215 11.5388 2.23277 11.0818 2.23277H10.9255C10.7576 2.23277 10.6365 2.20314 10.5662 2.134C10.5037 2.05499 10.4646 1.87228 10.4568 1.58092C10.4568 1.38339 10.4919 1.22042 10.5662 1.08709C10.6365 0.958696 10.7419 0.889559 10.8787 0.889559C11.9607 0.943881 12.8669 0.968572 13.5974 0.968572C14.2107 0.968572 15.0544 0.943881 16.1287 0.889559C16.2732 0.889559 16.3826 0.958696 16.4568 1.08709C16.5388 1.22042 16.5818 1.38339 16.5818 1.58092C16.5584 1.87228 16.5115 2.05499 16.4412 2.134C16.3787 2.20314 16.2615 2.23277 16.0974 2.23277C15.4177 2.23277 14.8709 2.40067 14.4568 2.7266C14.0388 3.05746 13.6638 3.61055 13.3318 4.38586L10.5037 11.1217C10.449 11.255 10.3474 11.5167 10.1912 11.9118C10.0427 12.297 9.94507 12.6525 9.89429 12.9784C9.85132 13.2945 9.83179 13.6896 9.83179 14.1636V17.2254C9.8396 17.7538 9.87085 18.1834 9.92554 18.5093C9.98804 18.8254 10.1326 19.097 10.363 19.3192C10.6013 19.5463 10.9646 19.655 11.4568 19.655H11.5974C11.7615 19.655 11.8787 19.6945 11.9412 19.7735C12.0115 19.8426 12.0584 20.0254 12.0818 20.3266C12.0818 20.5142 12.0388 20.6772 11.9568 20.8204C11.8826 20.9488 11.7771 21.018 11.6443 21.018C10.5818 20.9488 9.58179 20.9192 8.64429 20.9192C7.66382 20.9192 6.63257 20.9488 5.55054 21.018Z" fill="black"/>
</svg>
