<svg width="14" height="22" viewBox="0 0 14 22" fill="none" xmlns="http://www.w3.org/2000/svg">
<path d="M1.24585 21.018C1.10913 21.018 1.00366 20.9489 0.93335 20.8205C0.859131 20.6773 0.823975 20.5143 0.823975 20.3267C0.831788 20.0106 0.878662 19.823 0.9646 19.7538C1.04663 19.6897 1.20679 19.6551 1.44897 19.6551C1.92554 19.6551 2.28101 19.5464 2.51147 19.3193C2.74976 19.0971 2.89429 18.8255 2.94897 18.5094C3.01147 18.1835 3.05054 17.7538 3.07397 17.2255V4.68224C3.05054 4.15879 3.01147 3.72916 2.94897 3.39829C2.89429 3.07236 2.74976 2.79582 2.51147 2.56866C2.28101 2.34644 1.92554 2.23286 1.44897 2.23286H1.29272C1.12476 2.23286 1.00366 2.20323 0.93335 2.13409C0.87085 2.05508 0.831788 1.87236 0.823975 1.58101C0.823975 1.38348 0.859131 1.22051 0.93335 1.08718C1.00366 0.958785 1.10913 0.889648 1.24585 0.889648C2.34741 0.94397 3.3396 0.968661 4.2146 0.968661H12.074C12.4998 0.968661 12.7146 1.22545 12.7146 1.73903L12.7927 6.16372C12.7927 6.35138 12.7146 6.49953 12.5584 6.61804C12.4099 6.73656 12.2654 6.79582 12.1209 6.79582C11.9216 6.79582 11.7459 6.75138 11.5896 6.65755C11.4412 6.55385 11.3591 6.41064 11.3396 6.22298C11.2146 5.19582 11.0662 4.41557 10.9021 3.87236C10.7459 3.33409 10.5115 2.93409 10.199 2.66743C9.89429 2.4057 9.4646 2.26249 8.9021 2.23286H5.54273V10.2724H10.074C10.1873 10.2872 10.2771 10.3662 10.3396 10.5094C10.4099 10.6427 10.449 10.8057 10.449 11.0032C10.449 11.1613 10.4099 11.3094 10.3396 11.4378C10.2771 11.5711 10.1873 11.6353 10.074 11.6353H5.54273V17.6008C5.57398 18.0501 5.61304 18.4057 5.66773 18.6674C5.71851 18.9341 5.87085 19.1711 6.12085 19.3785C6.37085 19.5909 6.76148 19.6847 7.29273 19.6551H9.5896C10.1716 19.6304 10.613 19.5119 10.9177 19.2995C11.2185 19.0773 11.4568 18.7366 11.6365 18.2724C11.8123 17.7983 12.0271 17.0378 12.2771 15.981C12.3904 15.6156 12.6716 15.4674 13.1209 15.5464C13.2849 15.5859 13.4334 15.6748 13.5584 15.8032C13.6834 15.9217 13.7341 16.0798 13.7146 16.2773L13.2146 20.2477C13.1716 20.5242 13.0974 20.7119 12.9959 20.8008C12.8904 20.8798 12.7224 20.9193 12.4959 20.9193H4.24585C3.34741 20.9193 2.34741 20.9489 1.24585 21.018Z" fill="black"/>
</svg>
