<svg width="17" height="22" viewBox="0 0 17 22" fill="none" xmlns="http://www.w3.org/2000/svg">
<path d="M8.02844 21.5512C6.4425 21.5512 5.04797 21.0673 3.84094 20.1093C2.63 19.1512 1.6925 17.8772 1.02844 16.2969C0.372192 14.7167 0.0440674 13.0278 0.0440674 11.2204C0.0440674 9.00803 0.438598 7.08211 1.23157 5.43272C2.02063 3.78828 3.03235 2.52902 4.26282 1.65988C5.5011 0.78087 6.755 0.336426 8.02844 0.336426C9.62219 0.336426 11.0284 0.820376 12.2472 1.7784C13.4738 2.74136 14.4191 4.00556 15.0753 5.57099C15.7394 7.14136 16.0753 8.83025 16.0753 10.6475C16.0753 12.8599 15.673 14.7957 14.8722 16.4549C14.0675 18.1043 13.0441 19.3685 11.7941 20.2475C10.5441 21.1167 9.28625 21.5512 8.02844 21.5512ZM7.99719 20.1685C9.13 20.1685 10.0753 19.7438 10.8253 18.8846C11.5831 18.0303 12.1534 16.8846 12.5284 15.4475C12.9034 14.0006 13.0909 12.4006 13.0909 10.6475C13.0909 9.02778 12.8956 7.54136 12.5128 6.18334C12.1378 4.81544 11.5636 3.72902 10.7941 2.92408C10.0323 2.10927 9.09875 1.69939 7.99719 1.69939C6.32922 1.69939 5.07532 2.59815 4.23157 4.38581C3.38782 6.16359 2.96594 8.4105 2.96594 11.1216C2.96594 12.771 3.15344 14.2772 3.52844 15.6451C3.90344 17.0179 4.46594 18.1142 5.21594 18.9438C5.96594 19.7636 6.89172 20.1685 7.99719 20.1685Z" fill="black"/>
</svg>
