<svg width="14" height="21" viewBox="0 0 14 21" fill="none" xmlns="http://www.w3.org/2000/svg">
<path d="M0.974732 20.6328C0.838012 20.6328 0.732543 20.5637 0.662231 20.4353C0.588012 20.2921 0.552856 20.1291 0.552856 19.9414C0.560669 19.6254 0.607543 19.4377 0.693481 19.3686C0.775512 19.3044 0.93567 19.2698 1.17786 19.2698C1.65442 19.2698 2.00989 19.1612 2.24036 18.934C2.47864 18.7118 2.62317 18.4402 2.67786 18.1241C2.74036 17.7982 2.77942 17.3686 2.80286 16.8402V4.29699C2.77942 3.77353 2.74036 3.3439 2.67786 3.01304C2.62317 2.68711 2.47864 2.41057 2.24036 2.18341C2.00989 1.96119 1.65442 1.8476 1.17786 1.8476H1.02161C0.853637 1.8476 0.732543 1.81797 0.662231 1.74884C0.599731 1.66983 0.560669 1.48711 0.552856 1.19575C0.552856 0.998222 0.588012 0.835259 0.662231 0.701925C0.732543 0.573531 0.838012 0.504395 0.974732 0.504395C2.07629 0.558716 3.06848 0.583407 3.94348 0.583407H11.8029C12.2286 0.583407 12.4435 0.840197 12.4435 1.35378L12.5216 5.77847C12.5216 5.96612 12.4435 6.11427 12.2872 6.23279C12.1388 6.35131 11.9943 6.41057 11.8497 6.41057C11.6505 6.41057 11.4747 6.36612 11.3185 6.2723C11.17 6.16859 11.088 6.02538 11.0685 5.83773C10.9435 4.81057 10.795 4.03032 10.631 3.48711C10.4747 2.94884 10.2404 2.54884 9.92786 2.28217C9.62317 2.02044 9.19348 1.87723 8.63098 1.8476H5.27161V9.88711H9.80286C9.91614 9.90193 10.006 9.98094 10.0685 10.1241C10.1388 10.2575 10.1779 10.4204 10.1779 10.618C10.1779 10.776 10.1388 10.9241 10.0685 11.0525C10.006 11.1859 9.91614 11.2501 9.80286 11.2501H5.27161V17.2155C5.30286 17.6649 5.34192 18.0204 5.39661 18.2822C5.44739 18.5488 5.59973 18.7859 5.84973 18.9933C6.09973 19.2056 6.49036 19.2995 7.02161 19.2698H9.31848C9.90051 19.2451 10.3419 19.1266 10.6466 18.9143C10.9474 18.6921 11.1857 18.3513 11.3654 17.8871C11.5411 17.413 11.756 16.6525 12.006 15.5958C12.1193 15.2303 12.4005 15.0822 12.8497 15.1612C13.0138 15.2007 13.1622 15.2896 13.2872 15.418C13.4122 15.5365 13.463 15.6945 13.4435 15.8921L12.9435 19.8624C12.9005 20.139 12.8263 20.3266 12.7247 20.4155C12.6193 20.4945 12.4513 20.534 12.2247 20.534H3.97473C3.07629 20.534 2.07629 20.5637 0.974732 20.6328Z" fill="black"/>
</svg>
