<svg width="8" height="21" viewBox="0 0 8 21" fill="none" xmlns="http://www.w3.org/2000/svg">
<path d="M0.557983 20.2475C0.409545 20.2475 0.296264 20.1784 0.214233 20.05C0.140014 19.9068 0.104858 19.7438 0.104858 19.5562C0.124389 19.2401 0.175171 19.0525 0.261108 18.9833C0.354858 18.9191 0.511108 18.8846 0.729858 18.8846C1.21814 18.8846 1.57751 18.7759 1.80798 18.5488C2.03455 18.3266 2.18298 18.0549 2.24548 17.7389C2.3158 17.4228 2.36267 16.9982 2.38611 16.4549V3.91173C2.36267 3.35865 2.3158 2.92408 2.24548 2.60803C2.18298 2.29198 2.03455 2.02531 1.80798 1.79815C1.57751 1.57593 1.21814 1.46235 0.729858 1.46235H0.589233C0.432983 1.46235 0.315795 1.43272 0.245483 1.36359C0.171264 1.28457 0.124389 1.10186 0.104858 0.810499C0.104858 0.612968 0.140014 0.450005 0.214233 0.316672C0.296264 0.188277 0.409545 0.119141 0.557983 0.119141C1.64001 0.173462 2.6283 0.198153 3.52673 0.198153C4.52673 0.198153 5.5658 0.173462 6.65173 0.119141C6.80798 0.119141 6.92127 0.188277 6.99548 0.316672C7.0658 0.450005 7.10486 0.612968 7.10486 0.810499C7.09314 1.12655 7.04236 1.31914 6.94861 1.38334C6.85486 1.43766 6.6908 1.46235 6.46423 1.46235C5.97205 1.46235 5.60877 1.57593 5.37048 1.79815C5.14002 2.02531 4.99548 2.30186 4.93298 2.62778C4.8783 2.95865 4.84705 3.38828 4.83923 3.91173V16.4549C4.84705 16.9833 4.8783 17.413 4.93298 17.7389C4.99548 18.0549 5.14002 18.3266 5.37048 18.5488C5.60877 18.7759 5.97205 18.8846 6.46423 18.8846H6.60486C6.76892 18.8846 6.89002 18.9241 6.96423 19.0031C7.04627 19.0722 7.09314 19.2549 7.10486 19.5562C7.10486 19.7438 7.0658 19.9068 6.99548 20.05C6.92127 20.1784 6.80798 20.2475 6.65173 20.2475C5.58923 20.1784 4.55798 20.1488 3.55798 20.1488C2.64001 20.1488 1.64001 20.1784 0.557983 20.2475Z" fill="black"/>
</svg>
