<svg width="14" height="22" viewBox="0 0 14 22" fill="none" xmlns="http://www.w3.org/2000/svg">
<path d="M1.19019 21.018C1.05347 21.018 0.947998 20.9489 0.877686 20.8205C0.803467 20.6773 0.768311 20.5143 0.768311 20.3267C0.776124 20.0106 0.822998 19.823 0.908936 19.7538C0.990967 19.6897 1.15112 19.6551 1.39331 19.6551C1.86987 19.6551 2.22534 19.5464 2.45581 19.3193C2.69409 19.0971 2.83862 18.8255 2.89331 18.5094C2.95581 18.1835 2.99487 17.7538 3.01831 17.2255V4.68224C2.99487 4.15879 2.95581 3.72916 2.89331 3.39829C2.83862 3.07236 2.69409 2.79582 2.45581 2.56866C2.22534 2.34644 1.86987 2.23286 1.39331 2.23286H1.23706C1.06909 2.23286 0.947998 2.20323 0.877686 2.13409C0.815186 2.05508 0.776124 1.87236 0.768311 1.58101C0.768311 1.38348 0.803467 1.22051 0.877686 1.08718C0.947998 0.958785 1.05347 0.889648 1.19019 0.889648C2.29175 0.94397 3.28394 0.968661 4.15894 0.968661H12.0183C12.4441 0.968661 12.6589 1.22545 12.6589 1.73903L12.7371 6.16372C12.7371 6.35138 12.6589 6.49953 12.5027 6.61804C12.3542 6.73656 12.2097 6.79582 12.0652 6.79582C11.866 6.79582 11.6902 6.75138 11.5339 6.65755C11.3855 6.55385 11.3035 6.41064 11.2839 6.22298C11.1589 5.19582 11.0105 4.41557 10.8464 3.87236C10.6902 3.33409 10.4558 2.93409 10.1433 2.66743C9.83862 2.4057 9.40894 2.26249 8.84644 2.23286H5.48706V10.2724H10.0183C10.1316 10.2872 10.2214 10.3662 10.2839 10.5094C10.3542 10.6427 10.3933 10.8057 10.3933 11.0032C10.3933 11.1613 10.3542 11.3094 10.2839 11.4378C10.2214 11.5711 10.1316 11.6353 10.0183 11.6353H5.48706V17.6008C5.51831 18.0501 5.55737 18.4057 5.61206 18.6674C5.66284 18.9341 5.81519 19.1711 6.06519 19.3785C6.31519 19.5909 6.70581 19.6847 7.23706 19.6551H9.53394C10.116 19.6304 10.5574 19.5119 10.8621 19.2995C11.1628 19.0773 11.4011 18.7366 11.5808 18.2724C11.7566 17.7983 11.9714 17.0378 12.2214 15.981C12.3347 15.6156 12.616 15.4674 13.0652 15.5464C13.2292 15.5859 13.3777 15.6748 13.5027 15.8032C13.6277 15.9217 13.6785 16.0798 13.6589 16.2773L13.1589 20.2477C13.116 20.5242 13.0417 20.7119 12.9402 20.8008C12.8347 20.8798 12.6667 20.9193 12.4402 20.9193H4.19019C3.29175 20.9193 2.29175 20.9489 1.19019 21.018Z" fill="black"/>
</svg>
