<svg width="14" height="22" viewBox="0 0 14 22" fill="none" xmlns="http://www.w3.org/2000/svg">
<path d="M3.90906 21.0176C3.76062 21.0176 3.65125 20.9485 3.58093 20.8201C3.50671 20.6769 3.47156 20.5139 3.47156 20.3263C3.47937 20.0102 3.52625 19.8226 3.61218 19.7534C3.69421 19.6893 3.85437 19.6547 4.09656 19.6547C4.57312 19.6547 4.92859 19.546 5.15906 19.3189C5.39734 19.0967 5.54187 18.8251 5.59656 18.509C5.65906 18.1831 5.69812 17.7534 5.72156 17.2251V2.15345H3.98718C3.42468 2.16826 2.98718 2.32135 2.67468 2.60777C2.37 2.88431 2.13562 3.309 1.97156 3.87197C1.81531 4.42505 1.67859 5.22505 1.56531 6.26209C1.54187 6.42011 1.44031 6.55345 1.25281 6.65715C1.07312 6.76579 0.88562 6.81518 0.690308 6.81518C0.54187 6.81518 0.409058 6.76579 0.284058 6.65715C0.159058 6.53863 0.0965576 6.38061 0.0965576 6.18308L0.159058 1.73863C0.159058 1.22505 0.38562 0.968262 0.846558 0.968262H13.0653C13.5028 0.968262 13.7216 1.22505 13.7216 1.73863L13.8153 6.18308C13.8153 6.38061 13.745 6.53863 13.6122 6.65715C13.4755 6.76579 13.3348 6.81518 13.1903 6.81518C12.9911 6.81518 12.8036 6.76579 12.6278 6.65715C12.4481 6.55345 12.3544 6.42011 12.3466 6.26209C12.2098 5.21024 12.0653 4.4053 11.9091 3.85221C11.7606 3.29913 11.5262 2.88431 11.2059 2.60777C10.8934 2.32135 10.4559 2.16826 9.89343 2.15345H8.19031V17.2251C8.20984 17.7534 8.245 18.1831 8.29968 18.509C8.36218 18.8251 8.50671 19.0967 8.73718 19.3189C8.97546 19.546 9.33484 19.6547 9.81531 19.6547H9.97156C10.1161 19.6547 10.2255 19.6942 10.2997 19.7732C10.37 19.8423 10.4169 20.0251 10.4403 20.3263C10.4403 20.5139 10.4012 20.6769 10.3309 20.8201C10.2567 20.9485 10.1434 21.0176 9.98718 21.0176C8.92468 20.9485 7.94031 20.9189 7.03406 20.9189C6.03406 20.9189 4.99109 20.9485 3.90906 21.0176Z" fill="black"/>
</svg>
