<svg width="8" height="22" viewBox="0 0 8 22" fill="none" xmlns="http://www.w3.org/2000/svg">
<path d="M1.20227 21.018C1.05383 21.018 0.940552 20.9489 0.858521 20.8205C0.784302 20.6773 0.749146 20.5143 0.749146 20.3267C0.768677 20.0106 0.819459 19.823 0.905396 19.7538C0.999146 19.6897 1.1554 19.6551 1.37415 19.6551C1.86243 19.6551 2.2218 19.5464 2.45227 19.3193C2.67883 19.0971 2.82727 18.8255 2.88977 18.5094C2.96008 18.1934 3.00696 17.7687 3.0304 17.2255V4.68224C3.00696 4.12916 2.96008 3.69459 2.88977 3.37854C2.82727 3.06249 2.67883 2.79582 2.45227 2.56866C2.2218 2.34644 1.86243 2.23286 1.37415 2.23286H1.23352C1.07727 2.23286 0.960083 2.20323 0.889771 2.13409C0.815552 2.05508 0.768677 1.87236 0.749146 1.58101C0.749146 1.38348 0.784302 1.22051 0.858521 1.08718C0.940552 0.958785 1.05383 0.889648 1.20227 0.889648C2.2843 0.94397 3.27258 0.968661 4.17102 0.968661C5.17102 0.968661 6.21008 0.94397 7.29602 0.889648C7.45227 0.889648 7.56555 0.958785 7.63977 1.08718C7.71008 1.22051 7.74915 1.38348 7.74915 1.58101C7.73743 1.89706 7.68665 2.08965 7.5929 2.15385C7.49915 2.20817 7.33508 2.23286 7.10852 2.23286C6.61633 2.23286 6.25305 2.34644 6.01477 2.56866C5.7843 2.79582 5.63977 3.07236 5.57727 3.39829C5.52258 3.72916 5.49133 4.15879 5.48352 4.68224V17.2255C5.49133 17.7538 5.52258 18.1835 5.57727 18.5094C5.63977 18.8255 5.7843 19.0971 6.01477 19.3193C6.25305 19.5464 6.61633 19.6551 7.10852 19.6551H7.24915C7.41321 19.6551 7.5343 19.6946 7.60852 19.7736C7.69055 19.8427 7.73743 20.0255 7.74915 20.3267C7.74915 20.5143 7.71008 20.6773 7.63977 20.8205C7.56555 20.9489 7.45227 21.018 7.29602 21.018C6.23352 20.9489 5.20227 20.9193 4.20227 20.9193C3.2843 20.9193 2.2843 20.9489 1.20227 21.018Z" fill="black"/>
</svg>
