<svg width="18" height="21" viewBox="0 0 18 21" fill="none" xmlns="http://www.w3.org/2000/svg">
<path d="M9.27161 20.7809C7.99036 20.7809 6.89661 20.4945 5.99036 19.9315C5.08411 19.3685 4.39661 18.6228 3.92786 17.6994C3.45911 16.7661 3.22473 15.7586 3.22473 14.6772V3.91173C3.21301 3.38828 3.17786 2.95865 3.11536 2.62778C3.05286 2.30186 2.90442 2.02531 2.67786 1.79815C2.44739 1.57593 2.08801 1.46235 1.59973 1.46235H1.45911C1.29114 1.46235 1.17004 1.43272 1.09973 1.36359C1.03723 1.28457 0.994262 1.10186 0.974731 0.810499C0.974731 0.612968 1.00989 0.450005 1.08411 0.316671C1.16614 0.188277 1.27942 0.119141 1.42786 0.119141C2.49036 0.173462 3.47473 0.198153 4.38098 0.198153C5.38879 0.198153 6.43176 0.173462 7.50598 0.119141C7.65051 0.119141 7.75989 0.188277 7.83411 0.316671C7.91614 0.450005 7.95911 0.612968 7.95911 0.810499C7.93567 1.10186 7.88879 1.28457 7.81848 1.36359C7.74426 1.43272 7.62317 1.46235 7.45911 1.46235C6.91614 1.46235 6.52161 1.57099 6.27161 1.7784C6.02161 1.99075 5.86536 2.25247 5.80286 2.56852C5.74817 2.88457 5.71692 3.33396 5.70911 3.91173V13.7685C5.70911 15.2204 5.97864 16.4451 6.52161 17.4426C7.06067 18.4303 8.11536 18.9241 9.67786 18.9241C11.2091 18.9241 12.2911 18.4796 12.9279 17.5809C13.5724 16.687 13.8966 15.5611 13.8966 14.2031V5.88704C13.8966 4.46482 13.8536 3.45741 13.7716 2.86482C13.6857 2.27223 13.5216 1.89198 13.2716 1.71914C13.0216 1.55124 12.588 1.46235 11.9747 1.46235H11.8341C11.6779 1.46235 11.5607 1.43272 11.4904 1.36359C11.4161 1.28457 11.3693 1.10186 11.3497 0.810499C11.3497 0.612968 11.3849 0.450005 11.4591 0.316671C11.5411 0.188277 11.6544 0.119141 11.8029 0.119141C12.8849 0.173462 13.8185 0.198153 14.5997 0.198153C15.4005 0.198153 16.3341 0.173462 17.3966 0.119141C17.5529 0.119141 17.6661 0.188277 17.7404 0.316671C17.8107 0.450005 17.8497 0.612968 17.8497 0.810499C17.838 1.10186 17.7911 1.28457 17.7091 1.36359C17.6349 1.43272 17.5138 1.46235 17.3497 1.46235C16.6818 1.46235 16.2169 1.54136 15.9591 1.69939C15.7091 1.84754 15.5372 2.20309 15.4435 2.76605C15.3497 3.31914 15.3029 4.30186 15.3029 5.70926V14.5191C15.3029 15.9315 14.9943 17.1068 14.381 18.0549C13.7638 18.9932 12.9943 19.6846 12.0685 20.129C11.1388 20.5636 10.2091 20.7809 9.27161 20.7809Z" fill="black"/>
</svg>
