<svg width="14" height="21" viewBox="0 0 14 21" fill="none" xmlns="http://www.w3.org/2000/svg">
<path d="M0.759644 20.2475C0.622925 20.2475 0.517456 20.1784 0.447144 20.05C0.372925 19.9068 0.337769 19.7438 0.337769 19.5562C0.345582 19.2401 0.392456 19.0525 0.478394 18.9833C0.560425 18.9191 0.720582 18.8846 0.962769 18.8846C1.43933 18.8846 1.7948 18.7759 2.02527 18.5488C2.26355 18.3266 2.40808 18.0549 2.46277 17.7389C2.52527 17.413 2.56433 16.9833 2.58777 16.4549V3.91173C2.56433 3.38828 2.52527 2.95865 2.46277 2.62778C2.40808 2.30186 2.26355 2.02531 2.02527 1.79815C1.7948 1.57593 1.43933 1.46235 0.962769 1.46235H0.806519C0.63855 1.46235 0.517456 1.43272 0.447144 1.36359C0.384644 1.28457 0.345582 1.10186 0.337769 0.810499C0.337769 0.612968 0.372925 0.450005 0.447144 0.316672C0.517456 0.188277 0.622925 0.119141 0.759644 0.119141C1.86121 0.173462 2.85339 0.198153 3.72839 0.198153H11.5878C12.0136 0.198153 12.2284 0.454943 12.2284 0.968523L12.3065 5.39322C12.3065 5.58087 12.2284 5.72902 12.0721 5.84754C11.9237 5.96605 11.7792 6.02531 11.6346 6.02531C11.4354 6.02531 11.2596 5.98087 11.1034 5.88704C10.955 5.78334 10.8729 5.64013 10.8534 5.45247C10.7284 4.42531 10.58 3.64507 10.4159 3.10186C10.2596 2.56359 10.0253 2.16359 9.71277 1.89692C9.40808 1.63519 8.97839 1.49198 8.41589 1.46235H5.05652V9.50186H9.58777C9.70105 9.51667 9.79089 9.59569 9.85339 9.7389C9.92371 9.87223 9.96277 10.0352 9.96277 10.2327C9.96277 10.3907 9.92371 10.5389 9.85339 10.6673C9.79089 10.8006 9.70105 10.8648 9.58777 10.8648H5.05652V16.8303C5.08777 17.2796 5.12683 17.6352 5.18152 17.8969C5.2323 18.1636 5.38464 18.4006 5.63464 18.608C5.88464 18.8204 6.27527 18.9142 6.80652 18.8846H9.10339C9.68543 18.8599 10.1268 18.7414 10.4315 18.529C10.7323 18.3068 10.9706 17.9661 11.1503 17.5019C11.3261 17.0278 11.5409 16.2673 11.7909 15.2105C11.9042 14.8451 12.1854 14.6969 12.6346 14.7759C12.7987 14.8154 12.9471 14.9043 13.0721 15.0327C13.1971 15.1512 13.2479 15.3093 13.2284 15.5068L12.7284 19.4772C12.6854 19.7537 12.6112 19.9414 12.5096 20.0303C12.4042 20.1093 12.2362 20.1488 12.0096 20.1488H3.75964C2.86121 20.1488 1.86121 20.1784 0.759644 20.2475Z" fill="black"/>
</svg>
