<svg width="18" height="21" viewBox="0 0 18 21" fill="none" xmlns="http://www.w3.org/2000/svg">
<path d="M1.13672 20.2477C0.980469 20.2477 0.867188 20.1785 0.792969 20.0501C0.722657 19.9069 0.683594 19.744 0.683594 19.5563C0.695313 19.2403 0.742188 19.0526 0.824219 18.9835C0.910156 18.9193 1.00391 18.8847 1.12109 18.8847C1.24609 18.8847 1.32422 18.8847 1.35547 18.8847C1.85547 18.8847 2.21875 18.7217 2.44922 18.3909C2.6875 18.065 2.875 17.6946 3.01172 17.2847C3.15625 16.8798 3.25391 16.6032 3.30859 16.4551L7.68359 3.35878C7.77734 3.04273 7.82422 2.79582 7.82422 2.60816C7.82422 2.22792 7.70703 1.95631 7.48047 1.79829C7.25 1.63038 6.92578 1.49211 6.51172 1.38347C6.21875 1.31927 6.04297 1.25508 5.98047 1.18594C5.91797 1.12174 5.88672 0.943965 5.88672 0.652607C5.88672 0.405692 5.9375 0.237792 6.04297 0.158779C6.14453 0.0698912 6.31641 0.0205078 6.55859 0.0205078C7.39062 0.0205078 8.05078 0.0995202 8.54297 0.257545C9.03125 0.41557 9.45703 0.731619 9.82422 1.20569C10.1992 1.67977 10.543 2.40076 10.8555 3.35878L15.0586 16.4551C15.3086 17.26 15.5469 17.8575 15.7773 18.2526C16.0156 18.6477 16.3633 18.86 16.8242 18.8847H16.9805C17.1445 18.8847 17.2617 18.9242 17.3242 19.0032C17.3945 19.0724 17.4375 19.2551 17.4492 19.5563C17.4492 19.744 17.4102 19.9069 17.3398 20.0501C17.2656 20.1785 17.1562 20.2477 17.0117 20.2477C15.9375 20.1785 15.0195 20.1489 14.2617 20.1489C13.2617 20.1489 12.2227 20.1785 11.1523 20.2477C11.0039 20.2477 10.8906 20.1785 10.8086 20.0501C10.7344 19.9069 10.6992 19.744 10.6992 19.5563C10.7188 19.2551 10.7617 19.0724 10.8242 19.0032C10.8945 18.9242 11.0156 18.8847 11.1836 18.8847C11.7461 18.8847 12.1406 18.8205 12.3711 18.6872C12.6094 18.544 12.7305 18.2921 12.7305 17.9366C12.7305 17.66 12.6289 17.1662 12.4336 16.4551L11.5742 13.8279H5.40234C4.98438 15.1316 4.74609 15.8921 4.68359 16.0995C4.62891 16.3119 4.60547 16.4304 4.60547 16.4551C4.40625 17.26 4.30859 17.7736 4.30859 17.9958C4.30859 18.3514 4.43359 18.5884 4.68359 18.7069C4.93359 18.8254 5.40625 18.8847 6.10547 18.8847H6.26172C6.42578 18.8847 6.54297 18.9242 6.60547 19.0032C6.66797 19.0724 6.70703 19.2551 6.73047 19.5563C6.73047 19.744 6.69141 19.9069 6.62109 20.0501C6.54687 20.1785 6.43359 20.2477 6.27734 20.2477C5.21484 20.1785 4.30859 20.1489 3.55859 20.1489C3.02734 20.1489 2.21875 20.1785 1.13672 20.2477ZM5.88672 12.465H11.1367L8.60547 4.34643H8.52734L5.88672 12.465Z" fill="black"/>
</svg>
