<svg width="9" height="12" viewBox="0 0 9 12" fill="none" xmlns="http://www.w3.org/2000/svg">
<path d="M0.129272 5.82623C0.129272 4.65586 0.316772 3.63364 0.691772 2.7645C1.06677 1.89536 1.5863 1.22376 2.25427 0.749685C2.93005 0.275611 3.7074 0.0385742 4.5824 0.0385742C5.69568 0.0385742 6.62927 0.408945 7.37927 1.14475C8.12927 1.88549 8.61755 2.92252 8.84802 4.26573H5.94177C5.69959 3.41141 5.23084 2.98178 4.53552 2.98178C4.03552 2.98178 3.63318 3.2287 3.3324 3.71265C3.03943 4.20154 2.8949 4.90771 2.8949 5.82623C2.8949 6.73487 3.03943 7.43611 3.3324 7.92006C3.63318 8.40894 4.03552 8.65092 4.53552 8.65092C5.23084 8.65092 5.69959 8.22623 5.94177 7.36697H8.84802C8.61755 8.68549 8.12146 9.71759 7.36365 10.4682C6.61365 11.2188 5.68396 11.5941 4.5824 11.5941C3.7074 11.5941 2.93005 11.367 2.25427 10.9028C1.5863 10.4287 1.06677 9.75709 0.691772 8.88796C0.316772 8.00894 0.129272 6.98672 0.129272 5.82623Z" fill="white"/>
</svg>
