<svg width="17" height="21" viewBox="0 0 17 21" fill="none" xmlns="http://www.w3.org/2000/svg">
<path d="M1.18726 20.6328C1.05054 20.6328 0.945068 20.5637 0.874756 20.4353C0.800537 20.2921 0.765381 20.1291 0.765381 19.9414C0.773194 19.6254 0.820068 19.4377 0.906006 19.3686C0.988037 19.3044 1.14819 19.2698 1.39038 19.2698C1.86694 19.2698 2.22241 19.1612 2.45288 18.934C2.69116 18.7118 2.83569 18.4402 2.89038 18.1241C2.95288 17.7982 2.99194 17.3686 3.01538 16.8402V4.29699C2.99194 3.77353 2.95288 3.3439 2.89038 3.01304C2.83569 2.68711 2.69116 2.41057 2.45288 2.18341C2.22241 1.96119 1.86694 1.8476 1.39038 1.8476H1.23413C1.06616 1.8476 0.945068 1.81797 0.874756 1.74884C0.812256 1.66983 0.773194 1.48711 0.765381 1.19575C0.765381 0.998222 0.800537 0.835259 0.874756 0.701925C0.945068 0.573531 1.05054 0.504395 1.18726 0.504395C2.28882 0.558716 3.28101 0.583407 4.15601 0.583407H8.06226C9.66382 0.583407 11.1169 0.993284 12.4216 1.8081C13.7341 2.62785 14.7654 3.79328 15.5154 5.3044C16.2732 6.82045 16.656 8.61304 16.656 10.6772C16.656 12.8254 16.2263 14.6427 15.3748 16.1291C14.5193 17.6204 13.406 18.7266 12.031 19.4476C10.656 20.1735 9.17944 20.534 7.60913 20.534H4.15601C3.28101 20.534 2.28882 20.5637 1.18726 20.6328ZM7.98413 19.3686C9.92944 19.3686 11.3591 18.6081 12.2654 17.0772C13.1794 15.5513 13.6404 13.418 13.6404 10.6772C13.6404 8.95378 13.3904 7.41304 12.8904 6.05501C12.3982 4.68711 11.6873 3.62538 10.7498 2.87477C9.82007 2.11427 8.71851 1.72909 7.43726 1.72909L5.48413 1.76859V17.2155C5.48413 18.0353 5.67554 18.5982 6.06226 18.9143C6.45679 19.2204 7.09741 19.3686 7.98413 19.3686Z" fill="black"/>
</svg>
