<svg width="14" height="21" viewBox="0 0 14 21" fill="none" xmlns="http://www.w3.org/2000/svg">
<path d="M0.984497 20.4028C0.847778 20.4028 0.742309 20.3337 0.671997 20.2053C0.597778 20.0621 0.562622 19.8991 0.562622 19.7115C0.570435 19.3954 0.617309 19.2078 0.703247 19.1386C0.785278 19.0744 0.945435 19.0398 1.18762 19.0398C1.66419 19.0398 2.01965 18.9312 2.25012 18.704C2.4884 18.4818 2.63294 18.2102 2.68762 17.8942C2.75012 17.5682 2.78919 17.1386 2.81262 16.6102V4.06701C2.78919 3.54355 2.75012 3.11392 2.68762 2.78306C2.63294 2.45713 2.4884 2.18059 2.25012 1.95343C2.01965 1.7312 1.66419 1.61762 1.18762 1.61762H1.03137C0.863403 1.61762 0.742309 1.58799 0.671997 1.51886C0.609497 1.43985 0.570435 1.25713 0.562622 0.965772C0.562622 0.768241 0.597778 0.605279 0.671997 0.471945C0.742309 0.343551 0.847778 0.274414 0.984497 0.274414C2.08606 0.328735 3.07825 0.353426 3.95325 0.353426H11.8126C12.2384 0.353426 12.4532 0.610217 12.4532 1.1238L12.5314 5.54849C12.5314 5.73614 12.4532 5.88429 12.297 6.00281C12.1486 6.12133 12.004 6.18059 11.8595 6.18059C11.6603 6.18059 11.4845 6.13614 11.3282 6.04232C11.1798 5.93861 11.0978 5.7954 11.0782 5.60775C10.9532 4.58059 10.8048 3.80034 10.6407 3.25713C10.4845 2.71886 10.2501 2.31886 9.93762 2.05219C9.63294 1.79046 9.20325 1.64725 8.64075 1.61762H5.28137V9.65713H9.81262C9.9259 9.67195 10.0157 9.75096 10.0782 9.89417C10.1486 10.0275 10.1876 10.1905 10.1876 10.388C10.1876 10.546 10.1486 10.6942 10.0782 10.8226C10.0157 10.9559 9.9259 11.0201 9.81262 11.0201H5.28137V16.9855C5.31262 17.4349 5.35169 17.7905 5.40637 18.0522C5.45715 18.3189 5.6095 18.5559 5.8595 18.7633C6.1095 18.9757 6.50012 19.0695 7.03137 19.0398H9.32825C9.91028 19.0152 10.3517 18.8966 10.6564 18.6843C10.9572 18.4621 11.1954 18.1213 11.3751 17.6571C11.5509 17.1831 11.7657 16.4226 12.0157 15.3658C12.129 15.0003 12.4103 14.8522 12.8595 14.9312C13.0236 14.9707 13.172 15.0596 13.297 15.188C13.422 15.3065 13.4728 15.4645 13.4532 15.6621L12.9532 19.6324C12.9103 19.909 12.8361 20.0966 12.7345 20.1855C12.629 20.2645 12.4611 20.304 12.2345 20.304H3.9845C3.08606 20.304 2.08606 20.3337 0.984497 20.4028Z" fill="black"/>
</svg>
