<svg width="18" height="21" viewBox="0 0 18 21" fill="none" xmlns="http://www.w3.org/2000/svg">
<path d="M9.19946 20.9361C7.91821 20.9361 6.82446 20.6497 5.91821 20.0868C5.01196 19.5238 4.32446 18.7781 3.85571 17.8547C3.38696 16.9213 3.15259 15.9139 3.15259 14.8324V4.06701C3.14087 3.54355 3.10571 3.11392 3.04321 2.78306C2.98071 2.45713 2.83227 2.18059 2.60571 1.95343C2.37524 1.7312 2.01587 1.61762 1.52759 1.61762H1.38696C1.21899 1.61762 1.0979 1.58799 1.02759 1.51886C0.965088 1.43985 0.922119 1.25713 0.902588 0.965772C0.902588 0.768241 0.937744 0.605279 1.01196 0.471945C1.09399 0.34355 1.20727 0.274414 1.35571 0.274414C2.41821 0.328735 3.40259 0.353426 4.30884 0.353426C5.31665 0.353426 6.35962 0.328735 7.43384 0.274414C7.57837 0.274414 7.68774 0.34355 7.76196 0.471945C7.84399 0.605279 7.88696 0.768241 7.88696 0.965772C7.86352 1.25713 7.81665 1.43985 7.74634 1.51886C7.67212 1.58799 7.55102 1.61762 7.38696 1.61762C6.84399 1.61762 6.44946 1.72627 6.19946 1.93367C5.94946 2.14602 5.79321 2.40775 5.73071 2.7238C5.67602 3.03985 5.64477 3.48923 5.63696 4.06701V13.9238C5.63696 15.3756 5.90649 16.6003 6.44946 17.5979C6.98852 18.5855 8.04321 19.0794 9.60571 19.0794C11.137 19.0794 12.219 18.6349 12.8557 17.7361C13.5002 16.8423 13.8245 15.7164 13.8245 14.3584V6.04232C13.8245 4.62009 13.7815 3.61269 13.6995 3.02009C13.6135 2.4275 13.4495 2.04725 13.1995 1.87441C12.9495 1.70651 12.5159 1.61762 11.9026 1.61762H11.762C11.6057 1.61762 11.4885 1.58799 11.4182 1.51886C11.344 1.43985 11.2971 1.25713 11.2776 0.965772C11.2776 0.768241 11.3127 0.605279 11.387 0.471945C11.469 0.34355 11.5823 0.274414 11.7307 0.274414C12.8127 0.328735 13.7463 0.353426 14.5276 0.353426C15.3284 0.353426 16.262 0.328735 17.3245 0.274414C17.4807 0.274414 17.594 0.34355 17.6682 0.471945C17.7385 0.605279 17.7776 0.768241 17.7776 0.965772C17.7659 1.25713 17.719 1.43985 17.637 1.51886C17.5627 1.58799 17.4417 1.61762 17.2776 1.61762C16.6096 1.61762 16.1448 1.69664 15.887 1.85466C15.637 2.00281 15.4651 2.35837 15.3713 2.92133C15.2776 3.47441 15.2307 4.45713 15.2307 5.86454V14.6744C15.2307 16.0868 14.9221 17.2621 14.3088 18.2102C13.6917 19.1485 12.9221 19.8398 11.9963 20.2843C11.0667 20.7189 10.137 20.9361 9.19946 20.9361Z" fill="black"/>
</svg>
