<svg width="14" height="21" viewBox="0 0 14 21" fill="none" xmlns="http://www.w3.org/2000/svg">
<path d="M0.829834 20.4028C0.693115 20.4028 0.587646 20.3337 0.517334 20.2053C0.443115 20.0621 0.407959 19.8991 0.407959 19.7115C0.415772 19.3954 0.462646 19.2078 0.548584 19.1386C0.630615 19.0744 0.790772 19.0398 1.03296 19.0398C1.50952 19.0398 1.86499 18.9312 2.09546 18.704C2.33374 18.4818 2.47827 18.2102 2.53296 17.8942C2.59546 17.5682 2.63452 17.1386 2.65796 16.6102V4.06701C2.63452 3.54355 2.59546 3.11392 2.53296 2.78306C2.47827 2.45713 2.33374 2.18059 2.09546 1.95343C1.86499 1.7312 1.50952 1.61762 1.03296 1.61762H0.876709C0.70874 1.61762 0.587646 1.58799 0.517334 1.51886C0.454834 1.43985 0.415772 1.25713 0.407959 0.965772C0.407959 0.768241 0.443115 0.605279 0.517334 0.471945C0.587646 0.343551 0.693115 0.274414 0.829834 0.274414C1.9314 0.328735 2.92358 0.353426 3.79858 0.353426H11.658C12.0837 0.353426 12.2986 0.610217 12.2986 1.1238L12.3767 5.54849C12.3767 5.73614 12.2986 5.88429 12.1423 6.00281C11.9939 6.12133 11.8494 6.18059 11.7048 6.18059C11.5056 6.18059 11.3298 6.13614 11.1736 6.04232C11.0251 5.93861 10.9431 5.7954 10.9236 5.60775C10.7986 4.58059 10.6501 3.80034 10.4861 3.25713C10.3298 2.71886 10.0955 2.31886 9.78296 2.05219C9.47827 1.79046 9.04858 1.64725 8.48608 1.61762H5.12671V9.65713H9.65796C9.77124 9.67195 9.86108 9.75096 9.92358 9.89417C9.9939 10.0275 10.033 10.1905 10.033 10.388C10.033 10.546 9.9939 10.6942 9.92358 10.8226C9.86108 10.9559 9.77124 11.0201 9.65796 11.0201H5.12671V16.9855C5.15796 17.4349 5.19702 17.7905 5.25171 18.0522C5.30249 18.3189 5.45483 18.5559 5.70483 18.7633C5.95483 18.9757 6.34546 19.0695 6.87671 19.0398H9.17358C9.75562 19.0152 10.197 18.8966 10.5017 18.6843C10.8025 18.4621 11.0408 18.1213 11.2205 17.6571C11.3962 17.1831 11.6111 16.4226 11.8611 15.3658C11.9744 15.0003 12.2556 14.8522 12.7048 14.9312C12.8689 14.9707 13.0173 15.0596 13.1423 15.188C13.2673 15.3065 13.3181 15.4645 13.2986 15.6621L12.7986 19.6324C12.7556 19.909 12.6814 20.0966 12.5798 20.1855C12.4744 20.2645 12.3064 20.304 12.0798 20.304H3.82983C2.9314 20.304 1.9314 20.3337 0.829834 20.4028Z" fill="black"/>
</svg>
