<svg width="14" height="21" viewBox="0 0 14 21" fill="none" xmlns="http://www.w3.org/2000/svg">
<path d="M3.99731 20.4029C3.84888 20.4029 3.7395 20.3338 3.66919 20.2054C3.59497 20.0622 3.55981 19.8992 3.55981 19.7115C3.56763 19.3955 3.6145 19.2078 3.70044 19.1387C3.78247 19.0745 3.94263 19.0399 4.18481 19.0399C4.66138 19.0399 5.01685 18.9313 5.24731 18.7041C5.4856 18.4819 5.63013 18.2103 5.68481 17.8943C5.74731 17.5683 5.78638 17.1387 5.80981 16.6103V1.5387H4.07544C3.51294 1.55352 3.07544 1.7066 2.76294 1.99302C2.45825 2.26957 2.22388 2.69426 2.05981 3.25722C1.90356 3.81031 1.76685 4.61031 1.65356 5.64734C1.63013 5.80537 1.52856 5.9387 1.34106 6.0424C1.16138 6.15105 0.973877 6.20043 0.778565 6.20043C0.630127 6.20043 0.497314 6.15105 0.372314 6.0424C0.247314 5.92389 0.184814 5.76586 0.184814 5.56833L0.247314 1.12389C0.247314 0.610306 0.473876 0.353516 0.934815 0.353516H13.1536C13.5911 0.353516 13.8098 0.610306 13.8098 1.12389L13.9036 5.56833C13.9036 5.76586 13.8333 5.92389 13.7004 6.0424C13.5637 6.15105 13.4231 6.20043 13.2786 6.20043C13.0793 6.20043 12.8918 6.15105 12.7161 6.0424C12.5364 5.9387 12.4426 5.80537 12.4348 5.64734C12.2981 4.59549 12.1536 3.79055 11.9973 3.23747C11.8489 2.68438 11.6145 2.26957 11.2942 1.99302C10.9817 1.7066 10.5442 1.55352 9.98169 1.5387H8.27857V16.6103C8.2981 17.1387 8.33325 17.5683 8.38794 17.8943C8.45044 18.2103 8.59497 18.4819 8.82544 18.7041C9.06372 18.9313 9.4231 19.0399 9.90357 19.0399H10.0598C10.2043 19.0399 10.3137 19.0794 10.3879 19.1585C10.4583 19.2276 10.5051 19.4103 10.5286 19.7115C10.5286 19.8992 10.4895 20.0622 10.4192 20.2054C10.345 20.3338 10.2317 20.4029 10.0754 20.4029C9.01294 20.3338 8.02857 20.3041 7.12232 20.3041C6.12231 20.3041 5.07935 20.3338 3.99731 20.4029Z" fill="black"/>
</svg>
