<svg width="16" height="21" viewBox="0 0 16 21" fill="none" xmlns="http://www.w3.org/2000/svg">
<path d="M4.90418 20.2474C4.75574 20.2474 4.64246 20.1783 4.56043 20.0499C4.48621 19.9067 4.45105 19.7437 4.45105 19.5561C4.47058 19.24 4.52136 19.0524 4.6073 18.9832C4.70105 18.9191 4.8573 18.8845 5.07605 18.8845C5.56433 18.8845 5.92371 18.7758 6.15418 18.5487C6.38074 18.3265 6.52918 18.0549 6.59168 17.7388C6.65418 17.4129 6.68933 16.9832 6.70105 16.4549V12.5042C6.70105 12.1635 6.28699 10.9388 5.46668 8.83016C4.64246 6.71164 3.97058 5.05732 3.45105 3.87214C3.11511 3.11164 2.74793 2.54374 2.34168 2.17337C1.94324 1.80794 1.45496 1.55115 0.872925 1.403C0.810425 1.39312 0.708863 1.37337 0.57605 1.34374C0.439331 1.30424 0.349487 1.24004 0.310425 1.14621C0.267456 1.04251 0.247925 0.884484 0.247925 0.672138C0.247925 0.425225 0.298706 0.257323 0.404175 0.178311C0.517456 0.0894211 0.693237 0.0400391 0.935425 0.0400391C2.26746 0.0400391 3.31043 0.272138 4.06043 0.731397C4.81043 1.18078 5.47449 2.04992 6.06043 3.3388C6.34168 4.04004 6.7323 5.03757 7.2323 6.34127C7.95886 8.19806 8.44324 9.39806 8.68543 9.93633H8.74793L11.5292 3.02275C11.6737 2.603 11.7479 2.29189 11.7479 2.09436C11.7479 1.84745 11.6425 1.67955 11.4354 1.60053C11.2245 1.51164 10.8925 1.46226 10.4354 1.46226H10.2792C10.1112 1.46226 9.99011 1.43263 9.9198 1.3635C9.8573 1.28448 9.81824 1.10177 9.81043 0.810409C9.81043 0.612879 9.84558 0.449916 9.9198 0.316582C9.99011 0.188188 10.0956 0.119051 10.2323 0.119051C11.3143 0.173373 12.2206 0.198064 12.9511 0.198064C13.5643 0.198064 14.4081 0.173373 15.4823 0.119051C15.6268 0.119051 15.7362 0.188188 15.8104 0.316582C15.8925 0.449916 15.9354 0.612879 15.9354 0.810409C15.912 1.10177 15.8651 1.28448 15.7948 1.3635C15.7323 1.43263 15.6151 1.46226 15.4511 1.46226C14.7714 1.46226 14.2245 1.63016 13.8104 1.95609C13.3925 2.28695 13.0175 2.84004 12.6854 3.61535L9.8573 10.3511C9.80261 10.4845 9.70105 10.7462 9.5448 11.1413C9.39636 11.5265 9.29871 11.882 9.24793 12.2079C9.20496 12.524 9.18543 12.9191 9.18543 13.3931V16.4549C9.19324 16.9832 9.22449 17.4129 9.27918 17.7388C9.34168 18.0549 9.48621 18.3265 9.71668 18.5487C9.95496 18.7758 10.3182 18.8845 10.8104 18.8845H10.9511C11.1151 18.8845 11.2323 18.924 11.2948 19.003C11.3651 19.0721 11.412 19.2549 11.4354 19.5561C11.4354 19.7437 11.3925 19.9067 11.3104 20.0499C11.2362 20.1783 11.1307 20.2474 10.9979 20.2474C9.93543 20.1783 8.93543 20.1487 7.99793 20.1487C7.01746 20.1487 5.98621 20.1783 4.90418 20.2474Z" fill="black"/>
</svg>
