<svg width="16" height="22" viewBox="0 0 16 22" fill="none" xmlns="http://www.w3.org/2000/svg">
<path d="M7.93115 21.7807C6.48193 21.7807 5.16943 21.3955 3.99365 20.6351C2.82568 19.8597 1.8999 18.6894 1.2124 17.119C0.524902 15.5536 0.181152 13.6178 0.181152 11.3116C0.181152 9.19308 0.54834 7.32147 1.29053 5.70172C2.04053 4.07209 3.07178 2.80789 4.38428 1.90913C5.70459 1.0153 7.21631 0.565918 8.91553 0.565918C9.74756 0.565918 10.5718 0.723943 11.3843 1.03999C12.2046 1.35604 12.8843 1.85975 13.4155 2.54123C13.9468 3.21283 14.2124 4.04246 14.2124 5.03012C14.2124 5.95357 13.9937 6.75851 13.5562 7.43999C13.1265 8.1116 12.5562 8.4474 11.8374 8.4474C11.4819 8.4474 11.1421 8.3437 10.8218 8.13135C10.4976 7.92394 10.3257 7.6474 10.3062 7.30172C10.3062 7.29184 10.4194 7.17826 10.6499 6.96592C10.8765 6.75851 11.0874 6.47209 11.2749 6.11654C11.4624 5.7511 11.5562 5.31653 11.5562 4.81283C11.5562 3.93382 11.2788 3.21283 10.728 2.65975C10.1851 2.10666 9.48193 1.83012 8.61865 1.83012C7.57568 1.83012 6.63818 2.20049 5.80615 2.93629C4.97021 3.66221 4.31396 4.72888 3.8374 6.13629C3.35693 7.53382 3.11865 9.19802 3.11865 11.1338C3.11865 13.0054 3.35303 14.6252 3.82178 15.9931C4.29834 17.3659 4.96631 18.4178 5.82178 19.1536C6.68506 19.8795 7.68115 20.24 8.80615 20.24C9.34521 20.24 9.81396 20.2005 10.2124 20.1215C10.6069 20.0425 11.0405 19.9141 11.5093 19.7264V16.5067C11.5093 15.7709 11.4858 15.2573 11.4468 14.9659C11.4038 14.6647 11.2671 14.4425 11.0405 14.2943C10.8218 14.1511 10.4468 14.077 9.91553 14.077C9.72803 14.077 9.59131 14.0375 9.50928 13.9585C9.42334 13.8795 9.37646 13.6968 9.36865 13.4054C9.36865 13.2227 9.40771 13.0647 9.49365 12.9314C9.5874 12.7881 9.71631 12.7141 9.88428 12.7141C10.9351 12.7832 11.853 12.8128 12.6343 12.8128C13.3843 12.8128 14.2827 12.7832 15.3374 12.7141C15.4819 12.7141 15.5952 12.7881 15.6812 12.9314C15.7632 13.0647 15.8062 13.2227 15.8062 13.4054C15.7944 13.6968 15.7476 13.8795 15.6655 13.9585C15.5796 14.0375 15.4468 14.077 15.2593 14.077C14.7593 14.077 14.3999 14.1659 14.1812 14.3338C13.9702 14.4918 13.8413 14.7289 13.7905 15.0449C13.7358 15.3511 13.7124 15.8351 13.7124 16.5067V20.24C12.7319 20.8227 11.8296 21.2178 11.0093 21.4449C10.1968 21.6672 9.16943 21.7807 7.93115 21.7807Z" fill="black"/>
</svg>
