<svg width="12" height="23" viewBox="0 0 12 23" fill="none" xmlns="http://www.w3.org/2000/svg">
<path d="M5.7074 22.166C3.9574 22.166 2.61755 21.7808 1.69177 21.0203C0.762085 20.245 0.301147 19.1141 0.301147 17.6228C0.301147 16.8623 0.504272 16.2351 0.910522 15.7462C1.32459 15.2475 1.85584 14.9956 2.50427 14.9956C2.88709 15.0104 3.18005 15.129 3.37927 15.3512C3.57459 15.5783 3.67615 15.7808 3.67615 15.9635C3.67615 15.9931 3.59021 16.0722 3.42615 16.2006C3.25818 16.3191 3.10584 16.5117 2.97302 16.7734C2.84802 17.0252 2.78552 17.366 2.78552 17.8006C2.78552 18.7882 3.0199 19.5536 3.48865 20.0919C3.96521 20.6351 4.7074 20.9018 5.7074 20.9018C6.3949 20.9018 6.99255 20.7388 7.50427 20.408C8.0238 20.0672 8.41834 19.6178 8.69177 19.0648C8.97302 18.5018 9.11365 17.9141 9.11365 17.3067C9.11365 16.5462 8.94177 15.8944 8.59802 15.3512C8.25427 14.7981 7.8324 14.3388 7.3324 13.9685C6.8324 13.603 6.1488 13.1734 5.28552 12.6845C4.28552 12.1215 3.47302 11.608 2.84802 11.1438C2.23084 10.6697 1.7074 10.0524 1.2699 9.28697C0.840209 8.52648 0.629272 7.56846 0.629272 6.42278C0.629272 4.59562 1.12146 3.22278 2.11365 2.31413C3.11365 1.40549 4.41834 0.951172 6.03552 0.951172C7.29334 0.951172 8.3949 1.29685 9.3324 1.97833C10.2777 2.64994 10.7543 3.63759 10.7543 4.9413C10.7543 5.70673 10.5511 6.33883 10.1449 6.83759C9.73865 7.32648 9.2074 7.56846 8.55115 7.56846C8.17615 7.54377 7.88318 7.42525 7.67615 7.2129C7.47693 6.99068 7.37927 6.77833 7.37927 6.5808C7.37927 6.57092 7.48865 6.49685 7.7074 6.36352C7.93396 6.23512 8.13709 6.04253 8.31677 5.79068C8.49255 5.54376 8.5824 5.19315 8.5824 4.74376C8.5824 3.96846 8.34021 3.36105 7.86365 2.92648C7.3949 2.48204 6.78943 2.25488 6.05115 2.25488C5.03943 2.25488 4.2699 2.56105 3.73865 3.16352C3.21521 3.75611 2.9574 4.49685 2.9574 5.37586C2.9574 6.1166 3.11365 6.73389 3.42615 7.23265C3.74646 7.73636 4.25818 8.22031 4.9574 8.69438C5.5199 9.07957 6.13318 9.45981 6.80115 9.84006C7.87146 10.4475 8.72302 11.0055 9.34802 11.5191C9.97302 12.0228 10.4926 12.6845 10.9105 13.5141C11.3363 14.3339 11.5511 15.3512 11.5511 16.5759C11.5511 17.6327 11.2894 18.5857 10.7699 19.4401C10.2465 20.2845 9.53943 20.9512 8.6449 21.4351C7.74646 21.9191 6.7699 22.166 5.7074 22.166Z" fill="black"/>
</svg>
