<svg width="15" height="22" viewBox="0 0 15 22" fill="none" xmlns="http://www.w3.org/2000/svg">
<path d="M8.13062 21.9365C6.71265 21.9365 5.41577 21.5069 4.23999 20.6525C3.0603 19.7982 2.1228 18.5785 1.42749 16.9982C0.73999 15.418 0.39624 13.576 0.39624 11.4674C0.39624 9.34884 0.728271 7.47724 1.39624 5.85748C2.0603 4.22785 3.00952 2.96366 4.23999 2.06489C5.47827 1.17106 6.92749 0.72168 8.58374 0.72168C10.0095 0.72168 11.2791 1.09205 12.3962 1.82785C13.5212 2.55378 14.0837 3.67477 14.0837 5.18588C14.0916 6.13403 13.865 6.9439 13.3962 7.61551C12.9353 8.27724 12.3103 8.60316 11.5212 8.60316C11.2283 8.60316 10.9783 8.53896 10.7712 8.40563C10.5603 8.26242 10.4041 8.09946 10.3025 7.9118C10.197 7.71427 10.1541 7.56612 10.1775 7.45748C10.1775 7.41798 10.2908 7.30933 10.5212 7.12168C10.7595 6.92415 10.9666 6.66242 11.1462 6.33156C11.3337 5.99082 11.4275 5.576 11.4275 5.08711C11.4275 4.13896 11.1697 3.38835 10.6619 2.83526C10.1501 2.2723 9.44702 1.98588 8.55249 1.98588C7.52905 1.98588 6.6228 2.35625 5.83374 3.09205C5.04077 3.81798 4.42749 4.88464 3.98999 6.29205C3.55249 7.68958 3.33374 9.35378 3.33374 11.2896C3.33374 12.9785 3.56812 14.5093 4.03687 15.8921C4.51343 17.2649 5.1853 18.3562 6.05249 19.1711C6.91577 19.9908 7.90405 20.3958 9.02124 20.3958C9.92749 20.3958 10.697 20.1587 11.3337 19.6846C11.9783 19.2106 12.5603 18.4501 13.0837 17.3933C13.1658 17.1958 13.2791 17.097 13.4275 17.097C13.5603 17.097 13.7126 17.1661 13.8806 17.2945C14.1384 17.5217 14.2712 17.7488 14.2712 17.9859C14.2712 18.1192 14.24 18.2229 14.1775 18.3019C13.5408 19.3192 12.9431 20.0797 12.3806 20.5933C11.8259 21.1069 11.2244 21.4525 10.5681 21.6402C9.91968 21.8377 9.10718 21.9365 8.13062 21.9365Z" fill="black"/>
</svg>
