<svg width="14" height="21" viewBox="0 0 14 21" fill="none" xmlns="http://www.w3.org/2000/svg">
<path d="M0.793945 20.6328C0.657226 20.6328 0.551757 20.5637 0.481445 20.4353C0.407226 20.2921 0.37207 20.1291 0.37207 19.9414C0.379883 19.6254 0.426757 19.4377 0.512695 19.3686C0.594726 19.3044 0.754883 19.2698 0.99707 19.2698C1.47363 19.2698 1.8291 19.1612 2.05957 18.934C2.29785 18.7118 2.44238 18.4402 2.49707 18.1241C2.55957 17.7982 2.59863 17.3686 2.62207 16.8402V4.29699C2.59863 3.77353 2.55957 3.3439 2.49707 3.01304C2.44238 2.68711 2.29785 2.41057 2.05957 2.18341C1.8291 1.96119 1.47363 1.8476 0.99707 1.8476H0.84082C0.672851 1.8476 0.551757 1.81797 0.481445 1.74884C0.418945 1.66983 0.379883 1.48711 0.37207 1.19575C0.37207 0.998222 0.407226 0.835259 0.481445 0.701925C0.551757 0.573531 0.657226 0.504395 0.793945 0.504395C1.89551 0.558716 2.8877 0.583407 3.7627 0.583407H11.6221C12.0479 0.583407 12.2627 0.840197 12.2627 1.35378L12.3408 5.77847C12.3408 5.96612 12.2627 6.11427 12.1064 6.23279C11.958 6.35131 11.8135 6.41057 11.6689 6.41057C11.4697 6.41057 11.2939 6.36612 11.1377 6.2723C10.9893 6.16859 10.9072 6.02538 10.8877 5.83773C10.7627 4.81057 10.6143 4.03032 10.4502 3.48711C10.2939 2.94884 10.0596 2.54884 9.74707 2.28217C9.44238 2.02044 9.0127 1.87723 8.4502 1.8476H5.09082V9.88711H9.62207C9.73535 9.90193 9.8252 9.98094 9.8877 10.1241C9.95801 10.2575 9.99707 10.4204 9.99707 10.618C9.99707 10.776 9.95801 10.9241 9.8877 11.0525C9.8252 11.1859 9.73535 11.2501 9.62207 11.2501H5.09082V17.2155C5.12207 17.6649 5.16113 18.0204 5.21582 18.2822C5.2666 18.5488 5.41895 18.7859 5.66895 18.9933C5.91895 19.2056 6.30957 19.2995 6.84082 19.2698H9.1377C9.71973 19.2451 10.1611 19.1266 10.4658 18.9143C10.7666 18.6921 11.0049 18.3513 11.1846 17.8871C11.3604 17.413 11.5752 16.6525 11.8252 15.5958C11.9385 15.2303 12.2197 15.0822 12.6689 15.1612C12.833 15.2007 12.9814 15.2896 13.1064 15.418C13.2314 15.5365 13.2822 15.6945 13.2627 15.8921L12.7627 19.8624C12.7197 20.139 12.6455 20.3266 12.5439 20.4155C12.4385 20.4945 12.2705 20.534 12.0439 20.534H3.79395C2.89551 20.534 1.89551 20.5637 0.793945 20.6328Z" fill="black"/>
</svg>
