<svg width="13" height="22" viewBox="0 0 13 22" fill="none" xmlns="http://www.w3.org/2000/svg">
<path d="M1.24329 21.018C1.10657 21.018 1.0011 20.9489 0.930786 20.8205C0.856567 20.6773 0.821411 20.5143 0.821411 20.3267C0.829224 20.0106 0.876098 19.823 0.962036 19.7538C1.04407 19.6897 1.20422 19.6551 1.44641 19.6551C1.92297 19.6551 2.27844 19.5464 2.50891 19.3193C2.74719 19.0971 2.89172 18.8255 2.94641 18.5094C3.00891 18.1835 3.04797 17.7538 3.07141 17.2255V4.68224C3.04797 4.15879 3.00891 3.72916 2.94641 3.39829C2.89172 3.07236 2.74719 2.79582 2.50891 2.56866C2.27844 2.34644 1.92297 2.23286 1.44641 2.23286H1.29016C1.12219 2.23286 1.0011 2.20323 0.930786 2.13409C0.868286 2.05508 0.829224 1.87236 0.821411 1.58101C0.821411 1.38348 0.856567 1.22051 0.930786 1.08718C1.0011 0.958785 1.10657 0.889648 1.24329 0.889648C2.32532 0.94397 3.3136 0.968661 4.21204 0.968661H11.4464C11.8722 0.968661 12.087 1.22545 12.087 1.73903L12.1652 6.16372C12.1652 6.35138 12.087 6.49953 11.9308 6.61804C11.7823 6.73656 11.6378 6.79582 11.4933 6.79582C11.2941 6.79582 11.1105 6.75138 10.9464 6.65755C10.7902 6.55385 10.7042 6.41064 10.6964 6.22298C10.5792 5.19582 10.4386 4.41557 10.2745 3.87236C10.1183 3.33409 9.88391 2.93409 9.57141 2.66743C9.26672 2.4057 8.83704 2.26249 8.27454 2.23286H5.54016V10.4501H10.0245C10.1495 10.4798 10.2433 10.5637 10.3058 10.7069C10.3761 10.8403 10.4152 10.9983 10.4152 11.181C10.4152 11.3538 10.3761 11.5069 10.3058 11.6353C10.2433 11.7538 10.1495 11.8131 10.0245 11.8131H5.54016V17.2255C5.55969 17.7538 5.59485 18.1835 5.64954 18.5094C5.71204 18.8255 5.85657 19.0971 6.08704 19.3193C6.32532 19.5464 6.68469 19.6551 7.16516 19.6551H7.32141C7.46594 19.6551 7.57532 19.6946 7.64954 19.7736C7.73157 19.8427 7.77844 20.0255 7.79016 20.3267C7.79016 20.5143 7.7511 20.6773 7.68079 20.8205C7.60657 20.9489 7.49329 21.018 7.33704 21.018C6.27454 20.9489 5.24329 20.9193 4.24329 20.9193C3.32532 20.9193 2.32532 20.9489 1.24329 21.018Z" fill="black"/>
</svg>
