<svg width="18" height="21" viewBox="0 0 18 21" fill="none" xmlns="http://www.w3.org/2000/svg">
<path d="M1.11414 20.2477C0.965699 20.2477 0.852417 20.1785 0.770386 20.0501C0.696167 19.9069 0.661011 19.744 0.661011 19.5563C0.680542 19.2403 0.731323 19.0526 0.817261 18.9835C0.899292 18.9193 1.05554 18.8847 1.28601 18.8847C1.77429 18.8847 2.12976 18.7761 2.34851 18.5489C2.57507 18.3267 2.7157 18.065 2.77039 17.7588C2.82117 17.4575 2.85242 17.023 2.86414 16.4551L2.91101 3.91187C2.91101 3.27977 2.85632 2.80076 2.75476 2.46989C2.64929 2.14396 2.47742 1.90693 2.23914 1.75878C2.00867 1.61557 1.67664 1.49211 1.23914 1.38347C0.957886 1.31927 0.778199 1.25508 0.707886 1.18594C0.645386 1.12174 0.614136 0.943965 0.614136 0.652607C0.614136 0.405692 0.664917 0.237792 0.770386 0.158779C0.883667 0.0698912 1.05554 0.0205078 1.28601 0.0205078C2.32507 0.0205078 3.14539 0.114335 3.73914 0.297051C4.3407 0.469891 4.87195 0.78594 5.33289 1.2452C5.78992 1.7094 6.29382 2.41063 6.84851 3.35878L13.6923 14.7366H13.7704L13.7235 3.91187C13.7001 3.33409 13.6649 2.89458 13.6141 2.58841C13.5594 2.28717 13.4188 2.02545 13.1923 1.79829C12.9735 1.57606 12.6219 1.46248 12.1454 1.46248H11.9891C11.8212 1.46248 11.7001 1.43285 11.6298 1.36372C11.5555 1.28471 11.5087 1.10199 11.4891 0.810631C11.4891 0.6131 11.5282 0.450138 11.6141 0.316804C11.6962 0.18841 11.8055 0.119273 11.9423 0.119273C13.0048 0.173595 13.8055 0.198286 14.3485 0.198286C14.661 0.198286 15.2626 0.178533 16.161 0.139026L16.6923 0.119273C16.8368 0.119273 16.9462 0.18841 17.0204 0.316804C17.1024 0.450138 17.1454 0.6131 17.1454 0.810631C17.1219 1.12668 17.0712 1.31927 16.9891 1.38347C16.9032 1.43779 16.7469 1.46248 16.5204 1.46248C16.0282 1.46248 15.6688 1.57606 15.4423 1.79829C15.2235 2.02545 15.0868 2.28717 15.036 2.58841C14.993 2.89458 14.9618 3.33409 14.9423 3.91187L14.8954 19.8329C14.8719 20.1094 14.6649 20.2477 14.2704 20.2477C13.9462 20.2477 13.7001 20.1094 13.536 19.8329L4.11414 3.91187H4.03601L4.09851 16.4551C4.10632 17.023 4.13757 17.4575 4.19226 17.7588C4.24304 18.065 4.37976 18.3267 4.59851 18.5489C4.82507 18.7761 5.18054 18.8847 5.66101 18.8847H5.81726C5.98132 18.8847 6.10242 18.9242 6.17664 19.0032C6.24695 19.0724 6.29382 19.2551 6.31726 19.5563C6.31726 19.744 6.2782 19.9069 6.20789 20.0501C6.13367 20.1785 6.02039 20.2477 5.86414 20.2477C4.80164 20.1785 3.99304 20.1489 3.44226 20.1489C3.10632 20.1489 2.52429 20.1687 1.69226 20.2082L1.11414 20.2477Z" fill="black"/>
</svg>
