<svg width="8" height="21" viewBox="0 0 8 21" fill="none" xmlns="http://www.w3.org/2000/svg">
<path d="M0.819946 20.2475C0.671508 20.2475 0.558227 20.1784 0.476196 20.05C0.401977 19.9068 0.366821 19.7438 0.366821 19.5562C0.386352 19.2401 0.437134 19.0525 0.523071 18.9833C0.616821 18.9191 0.773071 18.8846 0.991821 18.8846C1.4801 18.8846 1.83948 18.7759 2.06995 18.5488C2.29651 18.3266 2.44495 18.0549 2.50745 17.7389C2.57776 17.4228 2.62463 16.9982 2.64807 16.4549V3.91173C2.62463 3.35865 2.57776 2.92408 2.50745 2.60803C2.44495 2.29198 2.29651 2.02531 2.06995 1.79815C1.83948 1.57593 1.4801 1.46235 0.991821 1.46235H0.851196C0.694946 1.46235 0.577758 1.43272 0.507446 1.36359C0.433227 1.28457 0.386352 1.10186 0.366821 0.810499C0.366821 0.612968 0.401977 0.450005 0.476196 0.316672C0.558227 0.188277 0.671508 0.119141 0.819946 0.119141C1.90198 0.173462 2.89026 0.198153 3.7887 0.198153C4.7887 0.198153 5.82776 0.173462 6.9137 0.119141C7.06995 0.119141 7.18323 0.188277 7.25745 0.316672C7.32776 0.450005 7.36682 0.612968 7.36682 0.810499C7.3551 1.12655 7.30432 1.31914 7.21057 1.38334C7.11682 1.43766 6.95276 1.46235 6.7262 1.46235C6.23401 1.46235 5.87073 1.57593 5.63245 1.79815C5.40198 2.02531 5.25745 2.30186 5.19495 2.62778C5.14026 2.95865 5.10901 3.38828 5.1012 3.91173V16.4549C5.10901 16.9833 5.14026 17.413 5.19495 17.7389C5.25745 18.0549 5.40198 18.3266 5.63245 18.5488C5.87073 18.7759 6.23401 18.8846 6.7262 18.8846H6.86682C7.03089 18.8846 7.15198 18.9241 7.2262 19.0031C7.30823 19.0722 7.3551 19.2549 7.36682 19.5562C7.36682 19.7438 7.32776 19.9068 7.25745 20.05C7.18323 20.1784 7.06995 20.2475 6.9137 20.2475C5.8512 20.1784 4.81995 20.1488 3.81995 20.1488C2.90198 20.1488 1.90198 20.1784 0.819946 20.2475Z" fill="black"/>
</svg>
