<svg width="15" height="21" viewBox="0 0 15 21" fill="none" xmlns="http://www.w3.org/2000/svg">
<path d="M4.8009 20.4029C4.65247 20.4029 4.54309 20.3338 4.47278 20.2054C4.39856 20.0622 4.3634 19.8992 4.3634 19.7115C4.37122 19.3955 4.41809 19.2078 4.50403 19.1387C4.58606 19.0745 4.74622 19.0399 4.9884 19.0399C5.46497 19.0399 5.82044 18.9313 6.0509 18.7041C6.28919 18.4819 6.43372 18.2103 6.4884 17.8943C6.5509 17.5683 6.58997 17.1387 6.6134 16.6103V1.5387H4.87903C4.31653 1.55352 3.87903 1.7066 3.56653 1.99302C3.26184 2.26957 3.02747 2.69426 2.8634 3.25722C2.70715 3.81031 2.57043 4.61031 2.45715 5.64734C2.43372 5.80537 2.33215 5.9387 2.14465 6.0424C1.96497 6.15105 1.77747 6.20043 1.58215 6.20043C1.43372 6.20043 1.3009 6.15105 1.1759 6.0424C1.0509 5.92389 0.988403 5.76586 0.988403 5.56833L1.0509 1.12389C1.0509 0.610306 1.27747 0.353516 1.7384 0.353516H13.9572C14.3947 0.353516 14.6134 0.610306 14.6134 1.12389L14.7072 5.56833C14.7072 5.76586 14.6368 5.92389 14.504 6.0424C14.3673 6.15105 14.2267 6.20043 14.0822 6.20043C13.8829 6.20043 13.6954 6.15105 13.5197 6.0424C13.34 5.9387 13.2462 5.80537 13.2384 5.64734C13.1017 4.59549 12.9572 3.79055 12.8009 3.23747C12.6525 2.68438 12.4181 2.26957 12.0978 1.99302C11.7853 1.7066 11.3478 1.55352 10.7853 1.5387H9.08215V16.6103C9.10169 17.1387 9.13684 17.5683 9.19153 17.8943C9.25403 18.2103 9.39856 18.4819 9.62903 18.7041C9.86731 18.9313 10.2267 19.0399 10.7072 19.0399H10.8634C11.0079 19.0399 11.1173 19.0794 11.1915 19.1585C11.2618 19.2276 11.3087 19.4103 11.3322 19.7115C11.3322 19.8992 11.2931 20.0622 11.2228 20.2054C11.1486 20.3338 11.0353 20.4029 10.879 20.4029C9.81653 20.3338 8.83215 20.3041 7.9259 20.3041C6.9259 20.3041 5.88294 20.3338 4.8009 20.4029Z" fill="black"/>
</svg>
