<svg width="18" height="22" viewBox="0 0 18 22" fill="none" xmlns="http://www.w3.org/2000/svg">
<path d="M0.969116 21.018C0.812866 21.018 0.695678 20.9489 0.625366 20.8205C0.551147 20.6773 0.515991 20.5143 0.515991 20.3267C0.523804 20.0106 0.570678 19.823 0.656616 19.7538C0.738647 19.6897 0.898804 19.6551 1.14099 19.6551C1.61755 19.6551 1.97302 19.5464 2.20349 19.3193C2.44177 19.0971 2.5863 18.8255 2.64099 18.5094C2.70349 18.1835 2.74255 17.7538 2.76599 17.2255V4.68224C2.74255 4.15879 2.70349 3.72916 2.64099 3.39829C2.5863 3.07236 2.44177 2.79582 2.20349 2.56866C1.97302 2.34644 1.61755 2.23286 1.14099 2.23286H0.984741C0.816772 2.23286 0.695678 2.20323 0.625366 2.13409C0.562866 2.05508 0.523804 1.87236 0.515991 1.58101C0.515991 1.38348 0.551147 1.22051 0.625366 1.08718C0.695678 0.958785 0.812866 0.889648 0.969116 0.889648C2.05115 0.94397 3.03162 0.968661 3.90662 0.968661C4.90662 0.968661 5.94568 0.94397 7.03162 0.889648C7.18787 0.889648 7.30115 0.958785 7.37537 1.08718C7.44568 1.22051 7.48474 1.38348 7.48474 1.58101C7.47302 1.89706 7.42615 2.08965 7.34412 2.15385C7.25818 2.20817 7.09802 2.23286 6.85974 2.23286C6.37927 2.23286 6.0199 2.34644 5.78162 2.56866C5.55115 2.79582 5.40662 3.07236 5.34412 3.39829C5.28943 3.72916 5.25427 4.15879 5.23474 4.68224V10.2724H13.0941V4.68224C13.0707 4.15879 13.0316 3.72916 12.9691 3.39829C12.9144 3.07236 12.7699 2.79582 12.5316 2.56866C12.3011 2.34644 11.9457 2.23286 11.4691 2.23286H11.3129C11.1449 2.23286 11.0238 2.20323 10.9535 2.13409C10.8793 2.05508 10.8324 1.87236 10.8129 1.58101C10.8129 1.38348 10.8519 1.22051 10.9379 1.08718C11.0199 0.958785 11.1293 0.889648 11.266 0.889648C12.348 0.94397 13.391 0.968661 14.391 0.968661C15.3051 0.968661 16.2972 0.94397 17.3597 0.889648C17.516 0.889648 17.6293 0.958785 17.7035 1.08718C17.7738 1.22051 17.8129 1.38348 17.8129 1.58101C17.7894 1.89706 17.7347 2.08965 17.641 2.15385C17.5551 2.20817 17.4066 2.23286 17.1879 2.23286C16.7074 2.23286 16.3441 2.34644 16.0941 2.56866C15.8519 2.79582 15.7035 3.07236 15.641 3.39829C15.5863 3.72916 15.5511 4.15879 15.5316 4.68224V17.2255C15.5511 17.7538 15.5863 18.1835 15.641 18.5094C15.7035 18.8255 15.8519 19.0971 16.0941 19.3193C16.3441 19.5464 16.7074 19.6551 17.1879 19.6551H17.3441C17.4886 19.6551 17.598 19.6946 17.6722 19.7736C17.7426 19.8427 17.7894 20.0255 17.8129 20.3267C17.8129 20.5143 17.7738 20.6773 17.7035 20.8205C17.6293 20.9489 17.516 21.018 17.3597 21.018C16.2972 20.9489 15.2972 20.9193 14.3597 20.9193C13.3793 20.9193 12.348 20.9489 11.266 21.018C11.1293 21.018 11.0199 20.9489 10.9379 20.8205C10.8519 20.6773 10.8129 20.5143 10.8129 20.3267C10.8324 20.0106 10.8832 19.823 10.9691 19.7538C11.0629 19.6897 11.2269 19.6551 11.4691 19.6551C11.9457 19.6551 12.3011 19.5464 12.5316 19.3193C12.7699 19.0971 12.9144 18.8255 12.9691 18.5094C13.0316 18.1835 13.0707 17.7538 13.0941 17.2255V11.6353H5.23474V17.2255C5.25427 17.7538 5.28943 18.1835 5.34412 18.5094C5.40662 18.8255 5.55115 19.0971 5.78162 19.3193C6.0199 19.5464 6.37927 19.6551 6.85974 19.6551H7.01599C7.18005 19.6551 7.29724 19.6946 7.35974 19.7736C7.43005 19.8427 7.47302 20.0255 7.48474 20.3267C7.48474 20.5143 7.44568 20.6773 7.37537 20.8205C7.30115 20.9489 7.18787 21.018 7.03162 21.018C5.96912 20.9489 4.93787 20.9193 3.93787 20.9193C3.03943 20.9193 2.05115 20.9489 0.969116 21.018Z" fill="black"/>
</svg>
