<svg width="8" height="21" viewBox="0 0 8 21" fill="none" xmlns="http://www.w3.org/2000/svg">
<path d="M0.73291 20.4028C0.584472 20.4028 0.471191 20.3337 0.38916 20.2053C0.314941 20.0621 0.279785 19.8991 0.279785 19.7115C0.299316 19.3954 0.350098 19.2078 0.436035 19.1386C0.529785 19.0744 0.686035 19.0398 0.904785 19.0398C1.39307 19.0398 1.75244 18.9312 1.98291 18.704C2.20947 18.4818 2.35791 18.2102 2.42041 17.8942C2.49072 17.5781 2.5376 17.1534 2.56104 16.6102V4.06701C2.5376 3.51392 2.49072 3.07935 2.42041 2.7633C2.35791 2.44725 2.20947 2.18059 1.98291 1.95343C1.75244 1.7312 1.39307 1.61762 0.904785 1.61762H0.76416C0.60791 1.61762 0.490722 1.58799 0.42041 1.51886C0.346191 1.43985 0.299316 1.25713 0.279785 0.965772C0.279785 0.768241 0.314941 0.605279 0.38916 0.471945C0.471191 0.343551 0.584472 0.274414 0.73291 0.274414C1.81494 0.328735 2.80322 0.353426 3.70166 0.353426C4.70166 0.353426 5.74072 0.328735 6.82666 0.274414C6.98291 0.274414 7.09619 0.343551 7.17041 0.471945C7.24072 0.605279 7.27979 0.768241 7.27979 0.965772C7.26807 1.28182 7.21729 1.47441 7.12354 1.53861C7.02979 1.59293 6.86572 1.61762 6.63916 1.61762C6.14697 1.61762 5.78369 1.7312 5.54541 1.95343C5.31494 2.18059 5.17041 2.45713 5.10791 2.78306C5.05322 3.11392 5.02197 3.54355 5.01416 4.06701V16.6102C5.02197 17.1386 5.05322 17.5682 5.10791 17.8942C5.17041 18.2102 5.31494 18.4818 5.54541 18.704C5.78369 18.9312 6.14697 19.0398 6.63916 19.0398H6.77979C6.94385 19.0398 7.06494 19.0794 7.13916 19.1584C7.22119 19.2275 7.26807 19.4102 7.27979 19.7115C7.27979 19.8991 7.24072 20.0621 7.17041 20.2053C7.09619 20.3337 6.98291 20.4028 6.82666 20.4028C5.76416 20.3337 4.73291 20.304 3.73291 20.304C2.81494 20.304 1.81494 20.3337 0.73291 20.4028Z" fill="black"/>
</svg>
