<svg width="17" height="21" viewBox="0 0 17 21" fill="none" xmlns="http://www.w3.org/2000/svg">
<path d="M0.838135 20.4029C0.689698 20.4029 0.576416 20.3338 0.494385 20.2054C0.420166 20.0622 0.38501 19.8992 0.38501 19.7116C0.404541 19.3955 0.455322 19.2079 0.54126 19.1387C0.623291 19.0745 0.779541 19.04 1.01001 19.04C1.49829 19.04 1.85376 18.9313 2.07251 18.7042C2.29907 18.482 2.4397 18.2202 2.49438 17.9141C2.54517 17.6128 2.57642 17.1783 2.58813 16.6103L2.63501 4.06714C2.63501 3.43504 2.58032 2.95603 2.47876 2.62516C2.37329 2.29924 2.20142 2.0622 1.96313 1.91405C1.73267 1.77084 1.40063 1.64739 0.963135 1.53874C0.681885 1.47455 0.502198 1.41035 0.431885 1.34121C0.369385 1.27702 0.338135 1.09924 0.338135 0.80788C0.338135 0.560966 0.388916 0.393065 0.494385 0.314053C0.607666 0.225165 0.779541 0.175781 1.01001 0.175781C2.04907 0.175781 2.86938 0.269609 3.46313 0.452324C4.0647 0.625164 4.59595 0.941214 5.05688 1.40047C5.51392 1.86467 6.01782 2.5659 6.57251 3.51405L13.4163 14.8918H13.4944L13.4475 4.06714C13.4241 3.48936 13.3889 3.04985 13.3381 2.74368C13.2834 2.44245 13.1428 2.18072 12.9163 1.95356C12.6975 1.73134 12.3459 1.61776 11.8694 1.61776H11.7131C11.5452 1.61776 11.4241 1.58813 11.3538 1.51899C11.2795 1.43998 11.2327 1.25726 11.2131 0.965905C11.2131 0.768374 11.2522 0.605411 11.3381 0.472078C11.4202 0.343683 11.5295 0.274547 11.6663 0.274547C12.7288 0.328868 13.5295 0.353559 14.0725 0.353559C14.385 0.353559 14.9866 0.333806 15.885 0.2943L16.4163 0.274547C16.5608 0.274547 16.6702 0.343683 16.7444 0.472078C16.8264 0.605411 16.8694 0.768374 16.8694 0.965905C16.8459 1.28195 16.7952 1.47455 16.7131 1.53874C16.6272 1.59307 16.4709 1.61776 16.2444 1.61776C15.7522 1.61776 15.3928 1.73134 15.1663 1.95356C14.9475 2.18072 14.8108 2.44245 14.76 2.74368C14.717 3.04985 14.6858 3.48936 14.6663 4.06714L14.6194 19.9881C14.5959 20.2647 14.3889 20.4029 13.9944 20.4029C13.6702 20.4029 13.4241 20.2647 13.26 19.9881L3.83813 4.06714H3.76001L3.82251 16.6103C3.83032 17.1783 3.86157 17.6128 3.91626 17.9141C3.96704 18.2202 4.10376 18.482 4.32251 18.7042C4.54907 18.9313 4.90454 19.04 5.38501 19.04H5.54126C5.70532 19.04 5.82642 19.0795 5.90063 19.1585C5.97095 19.2276 6.01782 19.4104 6.04126 19.7116C6.04126 19.8992 6.0022 20.0622 5.93188 20.2054C5.85767 20.3338 5.74438 20.4029 5.58813 20.4029C4.52563 20.3338 3.71704 20.3042 3.16626 20.3042C2.83032 20.3042 2.24829 20.3239 1.41626 20.3634L0.838135 20.4029Z" fill="black"/>
</svg>
