<svg width="18" height="21" viewBox="0 0 18 21" fill="none" xmlns="http://www.w3.org/2000/svg">
<path d="M1.18335 20.4029C1.0271 20.4029 0.913819 20.3338 0.8396 20.2054C0.769288 20.0622 0.730225 19.8992 0.730225 19.7116C0.741944 19.3955 0.788819 19.2079 0.87085 19.1387C0.956787 19.0745 1.05054 19.04 1.16772 19.04C1.29272 19.04 1.37085 19.04 1.4021 19.04C1.9021 19.04 2.26538 18.877 2.49585 18.5462C2.73413 18.2202 2.92163 17.8499 3.05835 17.44C3.20288 17.035 3.30054 16.7585 3.35522 16.6103L7.73023 3.51405C7.82398 3.198 7.87085 2.95109 7.87085 2.76344C7.87085 2.38319 7.75366 2.11158 7.5271 1.95356C7.29663 1.78566 6.97241 1.64739 6.55835 1.53874C6.26538 1.47455 6.0896 1.41035 6.0271 1.34121C5.9646 1.27702 5.93335 1.09924 5.93335 0.80788C5.93335 0.560966 5.98413 0.393065 6.0896 0.314053C6.19116 0.225165 6.36304 0.175781 6.60523 0.175781C7.43726 0.175781 8.09741 0.254794 8.5896 0.412818C9.07788 0.570843 9.50366 0.886892 9.87085 1.36097C10.2459 1.83504 10.5896 2.55603 10.9021 3.51405L15.1052 16.6103C15.3552 17.4153 15.5935 18.0128 15.824 18.4079C16.0623 18.8029 16.4099 19.0153 16.8709 19.04H17.0271C17.1912 19.04 17.3084 19.0795 17.3709 19.1585C17.4412 19.2276 17.4841 19.4104 17.4959 19.7116C17.4959 19.8992 17.4568 20.0622 17.3865 20.2054C17.3123 20.3338 17.2029 20.4029 17.0584 20.4029C15.9841 20.3338 15.0662 20.3042 14.3084 20.3042C13.3084 20.3042 12.2693 20.3338 11.199 20.4029C11.0505 20.4029 10.9373 20.3338 10.8552 20.2054C10.781 20.0622 10.7459 19.8992 10.7459 19.7116C10.7654 19.4104 10.8084 19.2276 10.8709 19.1585C10.9412 19.0795 11.0623 19.04 11.2302 19.04C11.7927 19.04 12.1873 18.9758 12.4177 18.8424C12.656 18.6992 12.7771 18.4474 12.7771 18.0918C12.7771 17.8153 12.6755 17.3215 12.4802 16.6103L11.6209 13.9832H5.44898C5.03101 15.2869 4.79273 16.0474 4.73023 16.2548C4.67554 16.4671 4.6521 16.5857 4.6521 16.6103C4.45288 17.4153 4.35523 17.9289 4.35523 18.1511C4.35523 18.5066 4.48023 18.7437 4.73023 18.8622C4.98023 18.9807 5.45288 19.04 6.1521 19.04H6.30835C6.47241 19.04 6.5896 19.0795 6.6521 19.1585C6.7146 19.2276 6.75366 19.4104 6.7771 19.7116C6.7771 19.8992 6.73804 20.0622 6.66773 20.2054C6.59351 20.3338 6.48023 20.4029 6.32398 20.4029C5.26148 20.3338 4.35523 20.3042 3.60522 20.3042C3.07397 20.3042 2.26538 20.3338 1.18335 20.4029ZM5.93335 12.6202H11.1834L8.6521 4.50171H8.57398L5.93335 12.6202Z" fill="black"/>
</svg>
