<svg width="17" height="22" viewBox="0 0 17 22" fill="none" xmlns="http://www.w3.org/2000/svg">
<path d="M5.45752 21.018C5.30908 21.018 5.1958 20.9488 5.11377 20.8204C5.03955 20.6772 5.0044 20.5142 5.0044 20.3266C5.02393 20.0105 5.07471 19.8229 5.16065 19.7538C5.2544 19.6896 5.41065 19.655 5.6294 19.655C6.11768 19.655 6.47705 19.5463 6.70752 19.3192C6.93408 19.097 7.08252 18.8254 7.14502 18.5093C7.20752 18.1834 7.24268 17.7538 7.2544 17.2254V13.2747C7.2544 12.934 6.84033 11.7093 6.02002 9.60067C5.1958 7.48215 4.52393 5.82783 4.0044 4.64265C3.66846 3.88215 3.30127 3.31425 2.89502 2.94388C2.49658 2.57845 2.0083 2.32166 1.42627 2.17351C1.36377 2.16363 1.26221 2.14388 1.12939 2.11425C0.992676 2.07474 0.902832 2.01055 0.86377 1.91672C0.820801 1.81302 0.80127 1.65499 0.80127 1.44265C0.80127 1.19573 0.852051 1.02783 0.95752 0.948818C1.0708 0.859929 1.24658 0.810547 1.48877 0.810547C2.8208 0.810547 3.86377 1.04265 4.61377 1.5019C5.36377 1.95129 6.02783 2.82042 6.61377 4.10931C6.89502 4.81055 7.28565 5.80808 7.78565 7.11178C8.51221 8.96857 8.99658 10.1686 9.23877 10.7068H9.30127L12.0825 3.79326C12.2271 3.37351 12.3013 3.0624 12.3013 2.86487C12.3013 2.61795 12.1958 2.45005 11.9888 2.37104C11.7778 2.28215 11.4458 2.23277 10.9888 2.23277H10.8325C10.6646 2.23277 10.5435 2.20314 10.4731 2.134C10.4106 2.05499 10.3716 1.87228 10.3638 1.58092C10.3638 1.38339 10.3989 1.22042 10.4731 1.08709C10.5435 0.958696 10.6489 0.889559 10.7856 0.889559C11.8677 0.943881 12.7739 0.968572 13.5044 0.968572C14.1177 0.968572 14.9614 0.943881 16.0356 0.889559C16.1802 0.889559 16.2896 0.958696 16.3638 1.08709C16.4458 1.22042 16.4888 1.38339 16.4888 1.58092C16.4653 1.87228 16.4185 2.05499 16.3481 2.134C16.2856 2.20314 16.1685 2.23277 16.0044 2.23277C15.3247 2.23277 14.7778 2.40067 14.3638 2.7266C13.9458 3.05746 13.5708 3.61055 13.2388 4.38586L10.4106 11.1217C10.356 11.255 10.2544 11.5167 10.0981 11.9118C9.94971 12.297 9.85205 12.6525 9.80127 12.9784C9.7583 13.2945 9.73877 13.6896 9.73877 14.1636V17.2254C9.74658 17.7538 9.77783 18.1834 9.83252 18.5093C9.89502 18.8254 10.0396 19.097 10.27 19.3192C10.5083 19.5463 10.8716 19.655 11.3638 19.655H11.5044C11.6685 19.655 11.7856 19.6945 11.8481 19.7735C11.9185 19.8426 11.9653 20.0254 11.9888 20.3266C11.9888 20.5142 11.9458 20.6772 11.8638 20.8204C11.7896 20.9488 11.6841 21.018 11.5513 21.018C10.4888 20.9488 9.48877 20.9192 8.55127 20.9192C7.5708 20.9192 6.53955 20.9488 5.45752 21.018Z" fill="black"/>
</svg>
