<svg width="8" height="22" viewBox="0 0 8 22" fill="none" xmlns="http://www.w3.org/2000/svg">
<path d="M1.39026 21.018C1.24182 21.018 1.12854 20.9489 1.04651 20.8205C0.97229 20.6773 0.937134 20.5143 0.937134 20.3267C0.956665 20.0106 1.00745 19.823 1.09338 19.7538C1.18713 19.6897 1.34338 19.6551 1.56213 19.6551C2.05041 19.6551 2.40979 19.5464 2.64026 19.3193C2.86682 19.0971 3.01526 18.8255 3.07776 18.5094C3.14807 18.1934 3.19495 17.7687 3.21838 17.2255V4.68224C3.19495 4.12916 3.14807 3.69459 3.07776 3.37854C3.01526 3.06249 2.86682 2.79582 2.64026 2.56866C2.40979 2.34644 2.05041 2.23286 1.56213 2.23286H1.42151C1.26526 2.23286 1.14807 2.20323 1.07776 2.13409C1.00354 2.05508 0.956665 1.87236 0.937134 1.58101C0.937134 1.38348 0.97229 1.22051 1.04651 1.08718C1.12854 0.958785 1.24182 0.889648 1.39026 0.889648C2.47229 0.94397 3.46057 0.968661 4.35901 0.968661C5.35901 0.968661 6.39807 0.94397 7.48401 0.889648C7.64026 0.889648 7.75354 0.958785 7.82776 1.08718C7.89807 1.22051 7.93713 1.38348 7.93713 1.58101C7.92542 1.89706 7.87463 2.08965 7.78088 2.15385C7.68713 2.20817 7.52307 2.23286 7.29651 2.23286C6.80432 2.23286 6.44104 2.34644 6.20276 2.56866C5.97229 2.79582 5.82776 3.07236 5.76526 3.39829C5.71057 3.72916 5.67932 4.15879 5.67151 4.68224V17.2255C5.67932 17.7538 5.71057 18.1835 5.76526 18.5094C5.82776 18.8255 5.97229 19.0971 6.20276 19.3193C6.44104 19.5464 6.80432 19.6551 7.29651 19.6551H7.43713C7.6012 19.6551 7.72229 19.6946 7.79651 19.7736C7.87854 19.8427 7.92542 20.0255 7.93713 20.3267C7.93713 20.5143 7.89807 20.6773 7.82776 20.8205C7.75354 20.9489 7.64026 21.018 7.48401 21.018C6.42151 20.9489 5.39026 20.9193 4.39026 20.9193C3.47229 20.9193 2.47229 20.9489 1.39026 21.018Z" fill="black"/>
</svg>
