<svg width="13" height="22" viewBox="0 0 13 22" fill="none" xmlns="http://www.w3.org/2000/svg">
<path d="M6.31824 21.5512C4.56824 21.5512 3.22839 21.1661 2.30261 20.4056C1.37293 19.6303 0.911987 18.4994 0.911987 17.008C0.911987 16.2475 1.11511 15.6204 1.52136 15.1315C1.93543 14.6327 2.46668 14.3809 3.11511 14.3809C3.49793 14.3957 3.79089 14.5142 3.99011 14.7364C4.18543 14.9636 4.28699 15.1661 4.28699 15.3488C4.28699 15.3784 4.20105 15.4574 4.03699 15.5858C3.86902 15.7043 3.71668 15.8969 3.58386 16.1586C3.45886 16.4105 3.39636 16.7512 3.39636 17.1858C3.39636 18.1735 3.63074 18.9389 4.09949 19.4772C4.57605 20.0204 5.31824 20.287 6.31824 20.287C7.00574 20.287 7.60339 20.1241 8.11511 19.7932C8.63464 19.4525 9.02918 19.0031 9.30261 18.45C9.58386 17.887 9.72449 17.2994 9.72449 16.692C9.72449 15.9315 9.55261 15.2796 9.20886 14.7364C8.86511 14.1833 8.44324 13.7241 7.94324 13.3537C7.44324 12.9883 6.75964 12.5586 5.89636 12.0698C4.89636 11.5068 4.08386 10.9932 3.45886 10.529C2.84168 10.0549 2.31824 9.43766 1.88074 8.67223C1.45105 7.91174 1.24011 6.95371 1.24011 5.80803C1.24011 3.98087 1.7323 2.60803 2.72449 1.69939C3.72449 0.790747 5.02918 0.336426 6.64636 0.336426C7.90418 0.336426 9.00574 0.682105 9.94324 1.36359C10.8885 2.03519 11.3651 3.02285 11.3651 4.32655C11.3651 5.09198 11.162 5.72408 10.7557 6.22285C10.3495 6.71174 9.81824 6.95371 9.16199 6.95371C8.78699 6.92902 8.49402 6.8105 8.28699 6.59815C8.08777 6.37593 7.99011 6.16359 7.99011 5.96606C7.99011 5.95618 8.09949 5.88211 8.31824 5.74877C8.5448 5.62038 8.74793 5.42778 8.92761 5.17593C9.10339 4.92902 9.19324 4.5784 9.19324 4.12902C9.19324 3.35371 8.95105 2.7463 8.47449 2.31173C8.00574 1.86729 7.40027 1.64013 6.66199 1.64013C5.65027 1.64013 4.88074 1.9463 4.34949 2.54877C3.82605 3.14136 3.56824 3.88211 3.56824 4.76112C3.56824 5.50186 3.72449 6.11914 4.03699 6.61791C4.3573 7.12161 4.86902 7.60556 5.56824 8.07964C6.13074 8.46482 6.74402 8.84507 7.41199 9.22532C8.4823 9.83272 9.33386 10.3907 9.95886 10.9043C10.5839 11.408 11.1034 12.0698 11.5214 12.8994C11.9471 13.7191 12.162 14.7364 12.162 15.9611C12.162 17.0179 11.9003 17.971 11.3807 18.8253C10.8573 19.6698 10.1503 20.3364 9.25574 20.8204C8.3573 21.3043 7.38074 21.5512 6.31824 21.5512Z" fill="black"/>
</svg>
