<svg width="17" height="21" viewBox="0 0 17 21" fill="none" xmlns="http://www.w3.org/2000/svg">
<path d="M1.23364 20.6328C1.07739 20.6328 0.960205 20.5637 0.889893 20.4353C0.815674 20.2921 0.780518 20.1291 0.780518 19.9414C0.788331 19.6254 0.835205 19.4377 0.921143 19.3686C1.00317 19.3044 1.16333 19.2698 1.40552 19.2698C1.88208 19.2698 2.23755 19.1612 2.46802 18.934C2.7063 18.7118 2.85083 18.4402 2.90552 18.1241C2.96802 17.7982 3.00708 17.3686 3.03052 16.8402V4.31674C3.00708 3.77847 2.96802 3.34884 2.90552 3.03279C2.85083 2.71674 2.7063 2.4402 2.46802 2.20316C2.23755 1.96612 1.88208 1.8476 1.40552 1.8476H1.24927C1.0813 1.8476 0.960205 1.81797 0.889893 1.74884C0.827393 1.66983 0.788331 1.48711 0.780518 1.19575C0.780518 0.998222 0.815674 0.835259 0.889893 0.701925C0.960205 0.573531 1.07739 0.504395 1.23364 0.504395C2.31567 0.558716 3.30395 0.583407 4.20239 0.583407H8.49927C9.78052 0.613037 10.8469 0.874765 11.7024 1.37353C12.5657 1.86242 13.1946 2.49452 13.593 3.26983C13.9993 4.03526 14.2024 4.85995 14.2024 5.73896C14.2024 6.89946 13.8352 7.96612 13.1086 8.93896C12.3899 9.90193 11.4055 10.5933 10.1555 11.013L10.5774 11.8822C11.2727 13.3044 11.9055 14.5291 12.468 15.5562C13.0383 16.5834 13.6594 17.5414 14.3274 18.4204C14.7961 18.9093 15.2961 19.1908 15.8274 19.2698C15.8586 19.2698 15.929 19.2797 16.0461 19.2896C16.1711 19.3044 16.2688 19.3637 16.343 19.4674C16.4133 19.576 16.4524 19.734 16.4524 19.9414C16.4524 20.1291 16.4133 20.2921 16.343 20.4353C16.2688 20.5637 16.1555 20.6328 15.9993 20.6328L15.3586 20.5933C14.6165 20.5538 14.0813 20.534 13.7493 20.534C13.0813 20.3661 12.5071 20.0698 12.0305 19.6451C11.5618 19.2106 11.093 18.5933 10.6243 17.7883C10.1438 16.9883 9.47192 15.6748 8.60864 13.8575L8.15552 12.9488C7.90552 12.4649 7.65942 12.134 7.42114 11.9612C7.19067 11.7785 6.79614 11.6846 6.23364 11.6846H5.49927V16.8402C5.5188 17.3686 5.55395 17.7982 5.60864 18.1241C5.67114 18.4402 5.81567 18.7118 6.04614 18.934C6.28442 19.1612 6.6438 19.2698 7.12427 19.2698H7.28052C7.42505 19.2698 7.53442 19.3093 7.60864 19.3883C7.69067 19.4575 7.73755 19.6402 7.74927 19.9414C7.74927 20.1291 7.7102 20.2921 7.63989 20.4353C7.56567 20.5637 7.45239 20.6328 7.29614 20.6328C6.23364 20.5637 5.19067 20.534 4.17114 20.534C3.29614 20.534 2.31567 20.5637 1.23364 20.6328ZM7.70239 10.46C10.179 10.46 11.4211 8.98835 11.4211 6.03526C11.4211 4.82538 11.0969 3.81304 10.4524 2.99328C9.80396 2.17847 8.73755 1.76859 7.24927 1.76859C6.7688 1.76859 6.40552 1.84267 6.15552 1.98588C5.90552 2.13402 5.73364 2.38094 5.63989 2.73649C5.54614 3.09205 5.49927 3.6402 5.49927 4.376V10.46H7.70239Z" fill="black"/>
</svg>
