<svg width="9" height="12" viewBox="0 0 9 12" fill="none" xmlns="http://www.w3.org/2000/svg">
<path d="M8.94763 5.64845C8.94763 5.9645 8.93201 6.29536 8.90076 6.6361H2.74451C2.78357 7.33734 2.96326 7.87561 3.27576 8.25586C3.58826 8.62623 3.97107 8.80894 4.43201 8.80894C5.10779 8.80894 5.57654 8.44351 5.83826 7.70277H8.74451C8.59607 8.45339 8.32654 9.12499 7.93201 9.71759C7.54529 10.3003 7.06091 10.7596 6.47888 11.1003C5.89294 11.4312 5.24451 11.5941 4.52576 11.5941C3.65076 11.5941 2.87341 11.367 2.19763 10.9028C1.51794 10.4287 0.986695 9.75709 0.603882 8.88796C0.228882 8.00894 0.0413818 6.98672 0.0413818 5.82623C0.0413818 4.65586 0.228882 3.63364 0.603882 2.7645C0.978882 1.89536 1.50232 1.22376 2.18201 0.749685C2.85779 0.275611 3.63904 0.0385742 4.52576 0.0385742C5.37732 0.0385742 6.13904 0.270673 6.80701 0.729932C7.48279 1.19413 8.01013 1.84598 8.38513 2.68549C8.76013 3.52993 8.94763 4.51759 8.94763 5.64845ZM6.16638 4.73981C6.16638 4.14722 6.00232 3.68302 5.68201 3.33734C5.36951 2.98178 4.97107 2.80401 4.49451 2.80401C4.03357 2.80401 3.65076 2.97685 3.33826 3.31759C3.02576 3.64845 2.83044 4.12252 2.76013 4.73981H6.16638Z" fill="white"/>
</svg>
