<svg width="16" height="21" viewBox="0 0 16 21" fill="none" xmlns="http://www.w3.org/2000/svg">
<path d="M0.726807 20.6328C0.570557 20.6328 0.453369 20.5637 0.383057 20.4353C0.308838 20.2921 0.273682 20.1291 0.273682 19.9414C0.281495 19.6254 0.328369 19.4377 0.414307 19.3686C0.496338 19.3044 0.656495 19.2698 0.898682 19.2698C1.37524 19.2698 1.73071 19.1612 1.96118 18.934C2.19946 18.7118 2.34399 18.4402 2.39868 18.1241C2.46118 17.7982 2.50024 17.3686 2.52368 16.8402V4.31674C2.50024 3.77847 2.46118 3.34884 2.39868 3.03279C2.34399 2.71674 2.19946 2.4402 1.96118 2.20316C1.73071 1.96612 1.37524 1.8476 0.898682 1.8476H0.742432C0.574463 1.8476 0.453369 1.81797 0.383057 1.74884C0.320557 1.66983 0.281495 1.48711 0.273682 1.19575C0.273682 0.998222 0.308838 0.835259 0.383057 0.701925C0.453369 0.573531 0.570557 0.504395 0.726807 0.504395C1.80884 0.558716 2.79712 0.583407 3.69556 0.583407H7.99243C9.27368 0.613037 10.3401 0.874765 11.1956 1.37353C12.0588 1.86242 12.6877 2.49452 13.0862 3.26983C13.4924 4.03526 13.6956 4.85995 13.6956 5.73896C13.6956 6.89946 13.3284 7.96612 12.6018 8.93896C11.8831 9.90193 10.8987 10.5933 9.64868 11.013L10.0706 11.8822C10.7659 13.3044 11.3987 14.5291 11.9612 15.5562C12.5315 16.5834 13.1526 17.5414 13.8206 18.4204C14.2893 18.9093 14.7893 19.1908 15.3206 19.2698C15.3518 19.2698 15.4221 19.2797 15.5393 19.2896C15.6643 19.3044 15.762 19.3637 15.8362 19.4674C15.9065 19.576 15.9456 19.734 15.9456 19.9414C15.9456 20.1291 15.9065 20.2921 15.8362 20.4353C15.762 20.5637 15.6487 20.6328 15.4924 20.6328L14.8518 20.5933C14.1096 20.5538 13.5745 20.534 13.2424 20.534C12.5745 20.3661 12.0002 20.0698 11.5237 19.6451C11.0549 19.2106 10.5862 18.5933 10.1174 17.7883C9.63696 16.9883 8.96509 15.6748 8.10181 13.8575L7.64868 12.9488C7.39868 12.4649 7.15259 12.134 6.91431 11.9612C6.68384 11.7785 6.28931 11.6846 5.72681 11.6846H4.99243V16.8402C5.01196 17.3686 5.04712 17.7982 5.10181 18.1241C5.16431 18.4402 5.30884 18.7118 5.53931 18.934C5.77759 19.1612 6.13696 19.2698 6.61743 19.2698H6.77368C6.91821 19.2698 7.02759 19.3093 7.10181 19.3883C7.18384 19.4575 7.23071 19.6402 7.24243 19.9414C7.24243 20.1291 7.20337 20.2921 7.13306 20.4353C7.05884 20.5637 6.94556 20.6328 6.78931 20.6328C5.72681 20.5637 4.68384 20.534 3.66431 20.534C2.78931 20.534 1.80884 20.5637 0.726807 20.6328ZM7.19556 10.46C9.67212 10.46 10.9143 8.98835 10.9143 6.03526C10.9143 4.82538 10.5901 3.81304 9.94556 2.99328C9.29712 2.17847 8.23071 1.76859 6.74243 1.76859C6.26196 1.76859 5.89868 1.84267 5.64868 1.98588C5.39868 2.13402 5.22681 2.38094 5.13306 2.73649C5.03931 3.09205 4.99243 3.6402 4.99243 4.376V10.46H7.19556Z" fill="black"/>
</svg>
