<svg width="18" height="22" viewBox="0 0 18 22" fill="none" xmlns="http://www.w3.org/2000/svg">
<path d="M8.67395 21.1661C7.3927 21.1661 6.29895 20.8797 5.3927 20.3167C4.48645 19.7538 3.79895 19.0081 3.3302 18.0846C2.86145 17.1513 2.62708 16.1439 2.62708 15.0624V4.29699C2.61536 3.77353 2.5802 3.3439 2.5177 3.01304C2.4552 2.68711 2.30676 2.41057 2.0802 2.18341C1.84973 1.96119 1.49036 1.8476 1.00208 1.8476H0.86145C0.693481 1.8476 0.572388 1.81797 0.502075 1.74884C0.439575 1.66983 0.396606 1.48711 0.377075 1.19575C0.377075 0.998222 0.412231 0.835259 0.48645 0.701925C0.568481 0.573531 0.681762 0.504395 0.8302 0.504395C1.8927 0.558716 2.87708 0.583407 3.78333 0.583407C4.79114 0.583407 5.83411 0.558716 6.90833 0.504395C7.05286 0.504395 7.16223 0.573531 7.23645 0.701925C7.31848 0.835259 7.36145 0.998222 7.36145 1.19575C7.33801 1.48711 7.29114 1.66983 7.22083 1.74884C7.14661 1.81797 7.02551 1.8476 6.86145 1.8476C6.31848 1.8476 5.92395 1.95625 5.67395 2.16365C5.42395 2.376 5.2677 2.63773 5.2052 2.95378C5.15051 3.26983 5.11926 3.71921 5.11145 4.29699V14.1538C5.11145 15.6056 5.38098 16.8303 5.92395 17.8279C6.46301 18.8155 7.5177 19.3093 9.0802 19.3093C10.6115 19.3093 11.6935 18.8649 12.3302 17.9661C12.9747 17.0723 13.299 15.9464 13.299 14.5883V6.2723C13.299 4.85007 13.256 3.84267 13.174 3.25007C13.088 2.65748 12.924 2.27723 12.674 2.10439C12.424 1.93649 11.9904 1.8476 11.3771 1.8476H11.2365C11.0802 1.8476 10.963 1.81797 10.8927 1.74884C10.8185 1.66983 10.7716 1.48711 10.7521 1.19575C10.7521 0.998222 10.7872 0.835259 10.8615 0.701925C10.9435 0.573531 11.0568 0.504395 11.2052 0.504395C12.2872 0.558716 13.2208 0.583407 14.0021 0.583407C14.8029 0.583407 15.7365 0.558716 16.799 0.504395C16.9552 0.504395 17.0685 0.573531 17.1427 0.701925C17.213 0.835259 17.2521 0.998222 17.2521 1.19575C17.2404 1.48711 17.1935 1.66983 17.1115 1.74884C17.0372 1.81797 16.9161 1.8476 16.7521 1.8476C16.0841 1.8476 15.6193 1.92662 15.3615 2.08464C15.1115 2.23279 14.9396 2.58835 14.8458 3.15131C14.7521 3.70439 14.7052 4.68711 14.7052 6.09452V14.9044C14.7052 16.3167 14.3966 17.4921 13.7833 18.4402C13.1661 19.3785 12.3966 20.0698 11.4708 20.5143C10.5411 20.9488 9.61145 21.1661 8.67395 21.1661Z" fill="black"/>
</svg>
