<svg width="10" height="17" viewBox="0 0 10 17" fill="none" xmlns="http://www.w3.org/2000/svg">
<path d="M3.19653 1.7966C3.46606 1.27314 3.83716 0.848451 4.30591 0.532401C4.77466 0.206476 5.32153 0.0385742 5.94653 0.0385742C6.6731 0.0385742 7.33716 0.275611 7.93091 0.749685C8.52466 1.22376 8.99341 1.89536 9.33716 2.7645C9.68091 3.63364 9.85278 4.65092 9.85278 5.80648C9.85278 6.95215 9.68091 7.96944 9.33716 8.84845C8.99341 9.7324 8.52466 10.4089 7.93091 10.883C7.33716 11.3571 6.6731 11.5941 5.94653 11.5941C5.32935 11.5941 4.78247 11.4361 4.30591 11.1201C3.83716 10.7941 3.46606 10.3793 3.19653 9.87561V16.7892H0.477783V0.196599H3.19653V1.7966ZM7.08716 5.80648C7.08716 4.93734 6.89966 4.2608 6.52466 3.77191C6.14966 3.28796 5.68481 3.04104 5.13403 3.04104C4.59106 3.04104 4.12622 3.2929 3.74341 3.79166C3.36841 4.28055 3.18091 4.95709 3.18091 5.82623C3.18091 6.68549 3.36841 7.36203 3.74341 7.8608C4.12622 8.34969 4.59106 8.59166 5.13403 8.59166C5.6731 8.59166 6.13403 8.34475 6.50903 7.84104C6.89185 7.34228 7.08716 6.66573 7.08716 5.80648Z" fill="white"/>
</svg>
