<svg width="13" height="22" viewBox="0 0 13 22" fill="none" xmlns="http://www.w3.org/2000/svg">
<path d="M0.515625 21.018C0.378906 21.018 0.273437 20.9489 0.203125 20.8205C0.128906 20.6773 0.09375 20.5143 0.09375 20.3267C0.101563 20.0106 0.148437 19.823 0.234375 19.7538C0.316406 19.6897 0.476563 19.6551 0.71875 19.6551C1.19531 19.6551 1.55078 19.5464 1.78125 19.3193C2.01953 19.0971 2.16406 18.8255 2.21875 18.5094C2.28125 18.1835 2.32031 17.7538 2.34375 17.2255V4.68224C2.32031 4.15879 2.28125 3.72916 2.21875 3.39829C2.16406 3.07236 2.01953 2.79582 1.78125 2.56866C1.55078 2.34644 1.19531 2.23286 0.71875 2.23286H0.5625C0.394531 2.23286 0.273437 2.20323 0.203125 2.13409C0.140625 2.05508 0.101563 1.87236 0.09375 1.58101C0.09375 1.38348 0.128906 1.22051 0.203125 1.08718C0.273437 0.958785 0.378906 0.889648 0.515625 0.889648C1.61719 0.94397 2.60938 0.968661 3.48438 0.968661H11.3438C11.7695 0.968661 11.9844 1.22545 11.9844 1.73903L12.0625 6.16372C12.0625 6.35138 11.9844 6.49953 11.8281 6.61804C11.6797 6.73656 11.5352 6.79582 11.3906 6.79582C11.1914 6.79582 11.0156 6.75138 10.8594 6.65755C10.7109 6.55385 10.6289 6.41064 10.6094 6.22298C10.4844 5.19582 10.3359 4.41557 10.1719 3.87236C10.0156 3.33409 9.78125 2.93409 9.46875 2.66743C9.16406 2.4057 8.73438 2.26249 8.17188 2.23286H4.8125V10.2724H9.34375C9.45703 10.2872 9.54688 10.3662 9.60938 10.5094C9.67969 10.6427 9.71875 10.8057 9.71875 11.0032C9.71875 11.1613 9.67969 11.3094 9.60938 11.4378C9.54688 11.5711 9.45703 11.6353 9.34375 11.6353H4.8125V17.6008C4.84375 18.0501 4.88281 18.4057 4.9375 18.6674C4.98828 18.9341 5.14063 19.1711 5.39063 19.3785C5.64063 19.5909 6.03125 19.6847 6.5625 19.6551H8.85938C9.44141 19.6304 9.88281 19.5119 10.1875 19.2995C10.4883 19.0773 10.7266 18.7366 10.9063 18.2724C11.082 17.7983 11.2969 17.0378 11.5469 15.981C11.6602 15.6156 11.9414 15.4674 12.3906 15.5464C12.5547 15.5859 12.7031 15.6748 12.8281 15.8032C12.9531 15.9217 13.0039 16.0798 12.9844 16.2773L12.4844 20.2477C12.4414 20.5242 12.3672 20.7119 12.2656 20.8008C12.1602 20.8798 11.9922 20.9193 11.7656 20.9193H3.51563C2.61719 20.9193 1.61719 20.9489 0.515625 21.018Z" fill="black"/>
</svg>
