<svg width="8" height="21" viewBox="0 0 8 21" fill="none" xmlns="http://www.w3.org/2000/svg">
<path d="M1.38452 20.6328C1.23608 20.6328 1.1228 20.5637 1.04077 20.4353C0.966552 20.2921 0.931396 20.1291 0.931396 19.9414C0.950927 19.6254 1.00171 19.4377 1.08765 19.3686C1.1814 19.3044 1.33765 19.2698 1.5564 19.2698C2.04468 19.2698 2.40405 19.1612 2.63452 18.934C2.86108 18.7118 3.00952 18.4402 3.07202 18.1241C3.14233 17.8081 3.18921 17.3834 3.21265 16.8402V4.29699C3.18921 3.7439 3.14233 3.30933 3.07202 2.99328C3.00952 2.67723 2.86108 2.41057 2.63452 2.18341C2.40405 1.96119 2.04468 1.8476 1.5564 1.8476H1.41577C1.25952 1.8476 1.14233 1.81797 1.07202 1.74884C0.997802 1.66983 0.950927 1.48711 0.931396 1.19575C0.931396 0.998222 0.966552 0.835259 1.04077 0.701925C1.1228 0.573531 1.23608 0.504395 1.38452 0.504395C2.46655 0.558716 3.45483 0.583407 4.35327 0.583407C5.35327 0.583407 6.39233 0.558716 7.47827 0.504395C7.63452 0.504395 7.7478 0.573531 7.82202 0.701925C7.89233 0.835259 7.9314 0.998222 7.9314 1.19575C7.91968 1.5118 7.8689 1.7044 7.77515 1.76859C7.6814 1.82291 7.51733 1.8476 7.29077 1.8476C6.79858 1.8476 6.4353 1.96119 6.19702 2.18341C5.96655 2.41057 5.82202 2.68711 5.75952 3.01304C5.70483 3.3439 5.67358 3.77353 5.66577 4.29699V16.8402C5.67358 17.3686 5.70483 17.7982 5.75952 18.1241C5.82202 18.4402 5.96655 18.7118 6.19702 18.934C6.4353 19.1612 6.79858 19.2698 7.29077 19.2698H7.4314C7.59546 19.2698 7.71655 19.3093 7.79077 19.3883C7.8728 19.4575 7.91968 19.6402 7.9314 19.9414C7.9314 20.1291 7.89233 20.2921 7.82202 20.4353C7.7478 20.5637 7.63452 20.6328 7.47827 20.6328C6.41577 20.5637 5.38452 20.534 4.38452 20.534C3.46655 20.534 2.46655 20.5637 1.38452 20.6328Z" fill="black"/>
</svg>
