<svg width="15" height="21" viewBox="0 0 15 21" fill="none" xmlns="http://www.w3.org/2000/svg">
<path d="M4.29175 20.4029C4.14331 20.4029 4.03394 20.3338 3.96362 20.2054C3.8894 20.0622 3.85425 19.8992 3.85425 19.7115C3.86206 19.3955 3.90894 19.2078 3.99487 19.1387C4.0769 19.0745 4.23706 19.0399 4.47925 19.0399C4.95581 19.0399 5.31128 18.9313 5.54175 18.7041C5.78003 18.4819 5.92456 18.2103 5.97925 17.8943C6.04175 17.5683 6.08081 17.1387 6.10425 16.6103V1.5387H4.36987C3.80737 1.55352 3.36987 1.7066 3.05737 1.99302C2.75269 2.26957 2.51831 2.69426 2.35425 3.25722C2.198 3.81031 2.06128 4.61031 1.948 5.64734C1.92456 5.80537 1.823 5.9387 1.6355 6.0424C1.45581 6.15105 1.26831 6.20043 1.073 6.20043C0.92456 6.20043 0.791748 6.15105 0.666748 6.0424C0.541748 5.92389 0.479248 5.76586 0.479248 5.56833L0.541748 1.12389C0.541748 0.610306 0.76831 0.353516 1.22925 0.353516H13.448C13.8855 0.353516 14.1042 0.610306 14.1042 1.12389L14.198 5.56833C14.198 5.76586 14.1277 5.92389 13.9949 6.0424C13.8582 6.15105 13.7175 6.20043 13.573 6.20043C13.3738 6.20043 13.1863 6.15105 13.0105 6.0424C12.8308 5.9387 12.7371 5.80537 12.7292 5.64734C12.5925 4.59549 12.448 3.79055 12.2917 3.23747C12.1433 2.68438 11.9089 2.26957 11.5886 1.99302C11.2761 1.7066 10.8386 1.55352 10.2761 1.5387H8.573V16.6103C8.59253 17.1387 8.62769 17.5683 8.68237 17.8943C8.74487 18.2103 8.88941 18.4819 9.11987 18.7041C9.35816 18.9313 9.71753 19.0399 10.198 19.0399H10.3542C10.4988 19.0399 10.6082 19.0794 10.6824 19.1585C10.7527 19.2276 10.7996 19.4103 10.823 19.7115C10.823 19.8992 10.7839 20.0622 10.7136 20.2054C10.6394 20.3338 10.5261 20.4029 10.3699 20.4029C9.30737 20.3338 8.323 20.3041 7.41675 20.3041C6.41675 20.3041 5.37378 20.3338 4.29175 20.4029Z" fill="black"/>
</svg>
