<svg width="17" height="22" viewBox="0 0 17 22" fill="none" xmlns="http://www.w3.org/2000/svg">
<path d="M1.23975 21.018C1.0835 21.018 0.966308 20.9489 0.895996 20.8205C0.821777 20.6773 0.786621 20.5143 0.786621 20.3267C0.794434 20.0106 0.841308 19.823 0.927246 19.7538C1.00928 19.6897 1.16943 19.6551 1.41162 19.6551C1.88818 19.6551 2.24365 19.5464 2.47412 19.3193C2.7124 19.0971 2.85693 18.8255 2.91162 18.5094C2.97412 18.1835 3.01318 17.7538 3.03662 17.2255V4.70199C3.01318 4.16372 2.97412 3.73409 2.91162 3.41804C2.85693 3.10199 2.7124 2.82545 2.47412 2.58841C2.24365 2.35138 1.88818 2.23286 1.41162 2.23286H1.25537C1.0874 2.23286 0.966308 2.20323 0.895996 2.13409C0.833496 2.05508 0.794434 1.87236 0.786621 1.58101C0.786621 1.38348 0.821777 1.22051 0.895996 1.08718C0.966308 0.958785 1.0835 0.889648 1.23975 0.889648C2.32178 0.94397 3.31006 0.968661 4.2085 0.968661H8.50537C9.78662 0.998291 10.853 1.26002 11.7085 1.75878C12.5718 2.24767 13.2007 2.87977 13.5991 3.65508C14.0054 4.42051 14.2085 5.2452 14.2085 6.12422C14.2085 7.28471 13.8413 8.35138 13.1147 9.32422C12.396 10.2872 11.4116 10.9785 10.1616 11.3983L10.5835 12.2674C11.2788 13.6897 11.9116 14.9143 12.4741 15.9415C13.0444 16.9687 13.6655 17.9267 14.3335 18.8057C14.8022 19.2946 15.3022 19.5761 15.8335 19.6551C15.8647 19.6551 15.9351 19.665 16.0522 19.6748C16.1772 19.6897 16.2749 19.7489 16.3491 19.8526C16.4194 19.9613 16.4585 20.1193 16.4585 20.3267C16.4585 20.5143 16.4194 20.6773 16.3491 20.8205C16.2749 20.9489 16.1616 21.018 16.0054 21.018L15.3647 20.9785C14.6226 20.939 14.0874 20.9193 13.7554 20.9193C13.0874 20.7514 12.5132 20.4551 12.0366 20.0304C11.5679 19.5958 11.0991 18.9785 10.6304 18.1736C10.1499 17.3736 9.47803 16.06 8.61475 14.2427L8.16162 13.3341C7.91162 12.8501 7.66553 12.5193 7.42725 12.3464C7.19678 12.1637 6.80225 12.0699 6.23975 12.0699H5.50537V17.2255C5.5249 17.7538 5.56006 18.1835 5.61475 18.5094C5.67725 18.8255 5.82178 19.0971 6.05225 19.3193C6.29053 19.5464 6.6499 19.6551 7.13037 19.6551H7.28662C7.43115 19.6551 7.54053 19.6946 7.61475 19.7736C7.69678 19.8427 7.74365 20.0255 7.75537 20.3267C7.75537 20.5143 7.71631 20.6773 7.646 20.8205C7.57178 20.9489 7.4585 21.018 7.30225 21.018C6.23975 20.9489 5.19678 20.9193 4.17725 20.9193C3.30225 20.9193 2.32178 20.9489 1.23975 21.018ZM7.7085 10.8452C10.1851 10.8452 11.4272 9.3736 11.4272 6.42051C11.4272 5.21064 11.103 4.19829 10.4585 3.37854C9.81006 2.56372 8.74365 2.15385 7.25537 2.15385C6.7749 2.15385 6.41162 2.22792 6.16162 2.37113C5.91162 2.51928 5.73975 2.76619 5.646 3.12175C5.55225 3.4773 5.50537 4.02545 5.50537 4.76125V10.8452H7.7085Z" fill="black"/>
</svg>
