<svg width="14" height="22" viewBox="0 0 14 22" fill="none" xmlns="http://www.w3.org/2000/svg">
<path d="M1.36084 21.018C1.22412 21.018 1.11865 20.9489 1.04834 20.8205C0.974121 20.6773 0.938965 20.5143 0.938965 20.3267C0.946778 20.0106 0.993652 19.823 1.07959 19.7538C1.16162 19.6897 1.32178 19.6551 1.56396 19.6551C2.04053 19.6551 2.396 19.5464 2.62647 19.3193C2.86475 19.0971 3.00928 18.8255 3.06397 18.5094C3.12647 18.1835 3.16553 17.7538 3.18897 17.2255V4.68224C3.16553 4.15879 3.12647 3.72916 3.06397 3.39829C3.00928 3.07236 2.86475 2.79582 2.62647 2.56866C2.396 2.34644 2.04053 2.23286 1.56396 2.23286H1.40771C1.23975 2.23286 1.11865 2.20323 1.04834 2.13409C0.98584 2.05508 0.946778 1.87236 0.938965 1.58101C0.938965 1.38348 0.974121 1.22051 1.04834 1.08718C1.11865 0.958785 1.22412 0.889648 1.36084 0.889648C2.4624 0.94397 3.45459 0.968661 4.32959 0.968661H12.189C12.6147 0.968661 12.8296 1.22545 12.8296 1.73903L12.9077 6.16372C12.9077 6.35138 12.8296 6.49953 12.6733 6.61804C12.5249 6.73656 12.3804 6.79582 12.2358 6.79582C12.0366 6.79582 11.8608 6.75138 11.7046 6.65755C11.5562 6.55385 11.4741 6.41064 11.4546 6.22298C11.3296 5.19582 11.1812 4.41557 11.0171 3.87236C10.8608 3.33409 10.6265 2.93409 10.314 2.66743C10.0093 2.4057 9.57959 2.26249 9.01709 2.23286H5.65772V10.2724H10.189C10.3022 10.2872 10.3921 10.3662 10.4546 10.5094C10.5249 10.6427 10.564 10.8057 10.564 11.0032C10.564 11.1613 10.5249 11.3094 10.4546 11.4378C10.3921 11.5711 10.3022 11.6353 10.189 11.6353H5.65772V17.6008C5.68897 18.0501 5.72803 18.4057 5.78272 18.6674C5.8335 18.9341 5.98584 19.1711 6.23584 19.3785C6.48584 19.5909 6.87647 19.6847 7.40772 19.6551H9.70459C10.2866 19.6304 10.728 19.5119 11.0327 19.2995C11.3335 19.0773 11.5718 18.7366 11.7515 18.2724C11.9272 17.7983 12.1421 17.0378 12.3921 15.981C12.5054 15.6156 12.7866 15.4674 13.2358 15.5464C13.3999 15.5859 13.5483 15.6748 13.6733 15.8032C13.7983 15.9217 13.8491 16.0798 13.8296 16.2773L13.3296 20.2477C13.2866 20.5242 13.2124 20.7119 13.1108 20.8008C13.0054 20.8798 12.8374 20.9193 12.6108 20.9193H4.36084C3.4624 20.9193 2.4624 20.9489 1.36084 21.018Z" fill="black"/>
</svg>
