<svg width="19" height="21" viewBox="0 0 19 21" fill="none" xmlns="http://www.w3.org/2000/svg">
<path d="M1.42542 20.6328C1.26917 20.6328 1.15198 20.5637 1.08167 20.4353C1.00745 20.2921 0.97229 20.1291 0.97229 19.9414C0.980103 19.6254 1.02698 19.4377 1.11292 19.3686C1.19495 19.3044 1.3551 19.2698 1.59729 19.2698C2.07385 19.2698 2.42932 19.1612 2.65979 18.934C2.89807 18.7118 3.0426 18.4402 3.09729 18.1241C3.15979 17.7982 3.19885 17.3686 3.22229 16.8402V4.29699C3.19885 3.77353 3.15979 3.3439 3.09729 3.01304C3.0426 2.68711 2.89807 2.41057 2.65979 2.18341C2.42932 1.96119 2.07385 1.8476 1.59729 1.8476H1.44104C1.27307 1.8476 1.15198 1.81797 1.08167 1.74884C1.01917 1.66983 0.980103 1.48711 0.97229 1.19575C0.97229 0.998222 1.00745 0.835259 1.08167 0.701925C1.15198 0.573531 1.26917 0.504395 1.42542 0.504395C2.50745 0.558716 3.48792 0.583407 4.36292 0.583407C5.36292 0.583407 6.40198 0.558716 7.48792 0.504395C7.64417 0.504395 7.75745 0.573531 7.83167 0.701925C7.90198 0.835259 7.94104 0.998222 7.94104 1.19575C7.92932 1.5118 7.88245 1.7044 7.80042 1.76859C7.71448 1.82291 7.55432 1.8476 7.31604 1.8476C6.83557 1.8476 6.4762 1.96119 6.23792 2.18341C6.00745 2.41057 5.86292 2.68711 5.80042 3.01304C5.74573 3.3439 5.71057 3.77353 5.69104 4.29699V9.88711H13.5504V4.29699C13.527 3.77353 13.4879 3.3439 13.4254 3.01304C13.3707 2.68711 13.2262 2.41057 12.9879 2.18341C12.7574 1.96119 12.402 1.8476 11.9254 1.8476H11.7692C11.6012 1.8476 11.4801 1.81797 11.4098 1.74884C11.3356 1.66983 11.2887 1.48711 11.2692 1.19575C11.2692 0.998222 11.3082 0.835259 11.3942 0.701925C11.4762 0.573531 11.5856 0.504395 11.7223 0.504395C12.8043 0.558716 13.8473 0.583407 14.8473 0.583407C15.7614 0.583407 16.7535 0.558716 17.816 0.504395C17.9723 0.504395 18.0856 0.573531 18.1598 0.701925C18.2301 0.835259 18.2692 0.998222 18.2692 1.19575C18.2457 1.5118 18.191 1.7044 18.0973 1.76859C18.0114 1.82291 17.8629 1.8476 17.6442 1.8476C17.1637 1.8476 16.8004 1.96119 16.5504 2.18341C16.3082 2.41057 16.1598 2.68711 16.0973 3.01304C16.0426 3.3439 16.0074 3.77353 15.9879 4.29699V16.8402C16.0074 17.3686 16.0426 17.7982 16.0973 18.1241C16.1598 18.4402 16.3082 18.7118 16.5504 18.934C16.8004 19.1612 17.1637 19.2698 17.6442 19.2698H17.8004C17.9449 19.2698 18.0543 19.3093 18.1285 19.3883C18.1989 19.4575 18.2457 19.6402 18.2692 19.9414C18.2692 20.1291 18.2301 20.2921 18.1598 20.4353C18.0856 20.5637 17.9723 20.6328 17.816 20.6328C16.7535 20.5637 15.7535 20.534 14.816 20.534C13.8356 20.534 12.8043 20.5637 11.7223 20.6328C11.5856 20.6328 11.4762 20.5637 11.3942 20.4353C11.3082 20.2921 11.2692 20.1291 11.2692 19.9414C11.2887 19.6254 11.3395 19.4377 11.4254 19.3686C11.5192 19.3044 11.6832 19.2698 11.9254 19.2698C12.402 19.2698 12.7574 19.1612 12.9879 18.934C13.2262 18.7118 13.3707 18.4402 13.4254 18.1241C13.4879 17.7982 13.527 17.3686 13.5504 16.8402V11.2501H5.69104V16.8402C5.71057 17.3686 5.74573 17.7982 5.80042 18.1241C5.86292 18.4402 6.00745 18.7118 6.23792 18.934C6.4762 19.1612 6.83557 19.2698 7.31604 19.2698H7.47229C7.63635 19.2698 7.75354 19.3093 7.81604 19.3883C7.88635 19.4575 7.92932 19.6402 7.94104 19.9414C7.94104 20.1291 7.90198 20.2921 7.83167 20.4353C7.75745 20.5637 7.64417 20.6328 7.48792 20.6328C6.42542 20.5637 5.39417 20.534 4.39417 20.534C3.49573 20.534 2.50745 20.5637 1.42542 20.6328Z" fill="black"/>
</svg>
