<svg width="21" height="21" viewBox="0 0 21 21" fill="none" xmlns="http://www.w3.org/2000/svg">
<path d="M9.77161 20.4622C9.52161 20.4622 9.34192 20.3536 9.24036 20.1462L3.61536 4.06714H3.53723L3.59973 16.6103C3.60754 17.1783 3.63879 17.6128 3.69348 17.9141C3.74426 18.2202 3.88098 18.482 4.09973 18.7042C4.32629 18.9313 4.68176 19.04 5.16223 19.04H5.31848C5.48254 19.04 5.60364 19.0795 5.67786 19.1585C5.74817 19.2276 5.79504 19.4104 5.81848 19.7116C5.81848 19.8992 5.77942 20.0622 5.70911 20.2054C5.63489 20.3338 5.52161 20.4029 5.36536 20.4029L4.74036 20.3634C3.97864 20.3239 3.43176 20.3042 3.09973 20.3042C2.52551 20.3042 1.69739 20.3338 0.615356 20.4029C0.466919 20.4029 0.353637 20.3338 0.271606 20.2054C0.197387 20.0622 0.162231 19.8992 0.162231 19.7116C0.181762 19.3955 0.232543 19.2079 0.318481 19.1387C0.400512 19.0745 0.556762 19.04 0.787231 19.04C1.27551 19.04 1.63098 18.9313 1.84973 18.7042C2.07629 18.482 2.21692 18.2202 2.27161 17.9141C2.32239 17.6128 2.35364 17.1783 2.36536 16.6103L2.41223 4.06714C2.41223 3.41035 2.35364 2.91652 2.24036 2.58566C2.12317 2.25973 1.95129 2.02763 1.72473 1.8943C1.50598 1.76591 1.17786 1.64739 0.740356 1.53874C0.677856 1.51405 0.576293 1.48936 0.443481 1.45973C0.306762 1.42023 0.216919 1.35603 0.177856 1.2622C0.134887 1.17331 0.115356 1.02023 0.115356 0.80788C0.115356 0.560966 0.166137 0.393065 0.271606 0.314053C0.384887 0.225165 0.556762 0.175781 0.787231 0.175781C1.77551 0.175781 2.58411 0.254794 3.20911 0.412818C3.84192 0.570843 4.40051 0.89677 4.88098 1.38072C5.35754 1.85479 5.75598 2.5659 6.06848 3.51405L10.3654 15.7215H10.4435L15.3654 0.353559H16.7872C17.7013 0.353559 18.6974 0.328868 19.7716 0.274547C19.9161 0.274547 20.0255 0.343683 20.0997 0.472078C20.1818 0.605411 20.2247 0.768374 20.2247 0.965905C20.2013 1.28195 20.1466 1.47455 20.0529 1.53874C19.9591 1.59307 19.8068 1.61776 19.5997 1.61776C19.1075 1.61776 18.7443 1.73134 18.506 1.95356C18.2755 2.18072 18.131 2.45726 18.0685 2.78319C18.0138 3.11405 17.9825 3.54368 17.9747 4.06714V16.6103C17.9825 17.1387 18.0138 17.5684 18.0685 17.8943C18.131 18.2104 18.2755 18.482 18.506 18.7042C18.7443 18.9313 19.1075 19.04 19.5997 19.04H19.7404C19.8966 19.04 20.0099 19.0795 20.0841 19.1585C20.1544 19.2276 20.2013 19.4104 20.2247 19.7116C20.2247 19.8992 20.1818 20.0622 20.0997 20.2054C20.0255 20.3338 19.9161 20.4029 19.7716 20.4029C18.6974 20.3338 17.6974 20.3042 16.7716 20.3042C15.8029 20.3042 14.7755 20.3338 13.6935 20.4029C13.545 20.4029 13.4318 20.3338 13.3497 20.2054C13.2755 20.0622 13.2404 19.8992 13.2404 19.7116C13.2599 19.3955 13.3107 19.2079 13.3966 19.1387C13.4786 19.0745 13.6349 19.04 13.8654 19.04C14.3536 19.04 14.713 18.9313 14.9435 18.7042C15.17 18.482 15.3185 18.2104 15.381 17.8943C15.4435 17.5684 15.4786 17.1387 15.4904 16.6103V4.06714H15.4122L10.2716 20.1462C10.1974 20.3536 10.0294 20.4622 9.77161 20.4622Z" fill="black"/>
</svg>
