<svg width="16" height="23" viewBox="0 0 16 23" fill="none" xmlns="http://www.w3.org/2000/svg">
<path d="M7.96631 22.166C6.51709 22.166 5.20459 21.7808 4.02881 21.0203C2.86084 20.245 1.93506 19.0746 1.24756 17.5043C0.560059 15.9388 0.216309 14.003 0.216309 11.6969C0.216309 9.57833 0.583497 7.70673 1.32568 6.08697C2.07568 4.45735 3.10693 3.19315 4.41943 2.29438C5.73975 1.40055 7.25146 0.951172 8.95068 0.951172C9.78271 0.951172 10.6069 1.1092 11.4194 1.42525C12.2397 1.7413 12.9194 2.245 13.4507 2.92648C13.9819 3.59809 14.2476 4.42772 14.2476 5.41537C14.2476 6.33883 14.0288 7.14377 13.5913 7.82525C13.1616 8.49685 12.5913 8.83265 11.8726 8.83265C11.5171 8.83265 11.1772 8.72895 10.8569 8.5166C10.5327 8.3092 10.3608 8.03265 10.3413 7.68697C10.3413 7.6771 10.4546 7.56352 10.6851 7.35117C10.9116 7.14377 11.1226 6.85735 11.3101 6.50179C11.4976 6.13636 11.5913 5.70179 11.5913 5.19809C11.5913 4.31907 11.314 3.59809 10.7632 3.045C10.2202 2.49191 9.51709 2.21537 8.65381 2.21537C7.61084 2.21537 6.67334 2.58574 5.84131 3.32154C5.00537 4.04747 4.34912 5.11414 3.87256 6.52154C3.39209 7.91907 3.15381 9.58327 3.15381 11.5191C3.15381 13.3907 3.38818 15.0104 3.85693 16.3783C4.3335 17.7512 5.00146 18.803 5.85693 19.5388C6.72021 20.2648 7.71631 20.6252 8.84131 20.6252C9.38037 20.6252 9.84912 20.5857 10.2476 20.5067C10.6421 20.4277 11.0757 20.2993 11.5444 20.1117V16.8919C11.5444 16.1561 11.521 15.6425 11.4819 15.3512C11.439 15.0499 11.3022 14.8277 11.0757 14.6796C10.8569 14.5364 10.4819 14.4623 9.95068 14.4623C9.76318 14.4623 9.62646 14.4228 9.54443 14.3438C9.4585 14.2648 9.41162 14.082 9.40381 13.7907C9.40381 13.608 9.44287 13.4499 9.52881 13.3166C9.62256 13.1734 9.75146 13.0993 9.91943 13.0993C10.9702 13.1685 11.8882 13.1981 12.6694 13.1981C13.4194 13.1981 14.3179 13.1685 15.3726 13.0993C15.5171 13.0993 15.6304 13.1734 15.7163 13.3166C15.7983 13.4499 15.8413 13.608 15.8413 13.7907C15.8296 14.082 15.7827 14.2648 15.7007 14.3438C15.6147 14.4228 15.4819 14.4623 15.2944 14.4623C14.7944 14.4623 14.4351 14.5512 14.2163 14.7191C14.0054 14.8771 13.8765 15.1141 13.8257 15.4302C13.771 15.7364 13.7476 16.2203 13.7476 16.8919V20.6252C12.7671 21.208 11.8647 21.603 11.0444 21.8302C10.2319 22.0524 9.20459 22.166 7.96631 22.166Z" fill="black"/>
</svg>
