<svg width="8" height="21" viewBox="0 0 8 21" fill="none" xmlns="http://www.w3.org/2000/svg">
<path d="M1.32056 20.4028C1.17212 20.4028 1.05884 20.3337 0.976807 20.2053C0.902588 20.0621 0.867432 19.8991 0.867432 19.7115C0.886963 19.3954 0.937745 19.2078 1.02368 19.1386C1.11743 19.0744 1.27368 19.0398 1.49243 19.0398C1.98071 19.0398 2.34009 18.9312 2.57056 18.704C2.79712 18.4818 2.94556 18.2102 3.00806 17.8942C3.07837 17.5781 3.12524 17.1534 3.14868 16.6102V4.06701C3.12524 3.51392 3.07837 3.07935 3.00806 2.7633C2.94556 2.44725 2.79712 2.18059 2.57056 1.95343C2.34009 1.7312 1.98071 1.61762 1.49243 1.61762H1.35181C1.19556 1.61762 1.07837 1.58799 1.00806 1.51886C0.933838 1.43985 0.886963 1.25713 0.867432 0.965772C0.867432 0.768241 0.902588 0.605279 0.976807 0.471945C1.05884 0.343551 1.17212 0.274414 1.32056 0.274414C2.40259 0.328735 3.39087 0.353426 4.28931 0.353426C5.28931 0.353426 6.32837 0.328735 7.41431 0.274414C7.57056 0.274414 7.68384 0.343551 7.75806 0.471945C7.82837 0.605279 7.86743 0.768241 7.86743 0.965772C7.85571 1.28182 7.80493 1.47441 7.71118 1.53861C7.61743 1.59293 7.45337 1.61762 7.22681 1.61762C6.73462 1.61762 6.37134 1.7312 6.13306 1.95343C5.90259 2.18059 5.75806 2.45713 5.69556 2.78306C5.64087 3.11392 5.60962 3.54355 5.60181 4.06701V16.6102C5.60962 17.1386 5.64087 17.5682 5.69556 17.8942C5.75806 18.2102 5.90259 18.4818 6.13306 18.704C6.37134 18.9312 6.73462 19.0398 7.22681 19.0398H7.36743C7.5315 19.0398 7.65259 19.0794 7.72681 19.1584C7.80884 19.2275 7.85571 19.4102 7.86743 19.7115C7.86743 19.8991 7.82837 20.0621 7.75806 20.2053C7.68384 20.3337 7.57056 20.4028 7.41431 20.4028C6.35181 20.3337 5.32056 20.304 4.32056 20.304C3.40259 20.304 2.40259 20.3337 1.32056 20.4028Z" fill="black"/>
</svg>
