<svg width="17" height="21" viewBox="0 0 17 21" fill="none" xmlns="http://www.w3.org/2000/svg">
<path d="M0.63269 20.6329C0.484253 20.6329 0.370971 20.5638 0.28894 20.4354C0.214721 20.2922 0.179565 20.1292 0.179565 19.9416C0.199096 19.6255 0.249877 19.4379 0.335815 19.3687C0.417846 19.3045 0.574096 19.27 0.804565 19.27C1.29285 19.27 1.64832 19.1613 1.86707 18.9342C2.09363 18.7119 2.23425 18.4502 2.28894 18.144C2.33972 17.8428 2.37097 17.4082 2.38269 16.8403L2.42957 4.29712C2.42957 3.66502 2.37488 3.18601 2.27332 2.85514C2.16785 2.52922 1.99597 2.29218 1.75769 2.14403C1.52722 2.00082 1.19519 1.87737 0.75769 1.76872C0.47644 1.70453 0.296753 1.64033 0.22644 1.57119C0.16394 1.507 0.13269 1.32922 0.13269 1.03786C0.13269 0.790946 0.183471 0.623046 0.28894 0.544033C0.402221 0.455145 0.574096 0.405762 0.804565 0.405762C1.84363 0.405762 2.66394 0.499589 3.25769 0.682305C3.85925 0.855145 4.3905 1.17119 4.85144 1.63045C5.30847 2.09465 5.81238 2.79589 6.36707 3.74403L13.2108 15.1218H13.2889L13.2421 4.29712C13.2186 3.71934 13.1835 3.27984 13.1327 2.97366C13.078 2.67243 12.9374 2.4107 12.7108 2.18354C12.4921 1.96132 12.1405 1.84774 11.6639 1.84774H11.5077C11.3397 1.84774 11.2186 1.81811 11.1483 1.74897C11.0741 1.66996 11.0272 1.48724 11.0077 1.19589C11.0077 0.998354 11.0468 0.835392 11.1327 0.702058C11.2147 0.573664 11.3241 0.504527 11.4608 0.504527C12.5233 0.558848 13.3241 0.58354 13.8671 0.58354C14.1796 0.58354 14.7811 0.563786 15.6796 0.52428L16.2108 0.504527C16.3553 0.504527 16.4647 0.573664 16.5389 0.702058C16.621 0.835392 16.6639 0.998354 16.6639 1.19589C16.6405 1.51193 16.5897 1.70453 16.5077 1.76872C16.4218 1.82305 16.2655 1.84774 16.0389 1.84774C15.5468 1.84774 15.1874 1.96132 14.9608 2.18354C14.7421 2.4107 14.6053 2.67243 14.5546 2.97366C14.5116 3.27984 14.4803 3.71934 14.4608 4.29712L14.4139 20.2181C14.3905 20.4947 14.1835 20.6329 13.7889 20.6329C13.4647 20.6329 13.2186 20.4947 13.0546 20.2181L3.63269 4.29712H3.55457L3.61707 16.8403C3.62488 17.4082 3.65613 17.8428 3.71082 18.144C3.7616 18.4502 3.89832 18.7119 4.11707 18.9342C4.34363 19.1613 4.6991 19.27 5.17957 19.27H5.33582C5.49988 19.27 5.62097 19.3095 5.69519 19.3885C5.7655 19.4576 5.81238 19.6403 5.83582 19.9416C5.83582 20.1292 5.79675 20.2922 5.72644 20.4354C5.65222 20.5638 5.53894 20.6329 5.38269 20.6329C4.32019 20.5638 3.5116 20.5342 2.96082 20.5342C2.62488 20.5342 2.04285 20.5539 1.21082 20.5934L0.63269 20.6329Z" fill="black"/>
</svg>
