<svg width="18" height="21" viewBox="0 0 18 21" fill="none" xmlns="http://www.w3.org/2000/svg">
<path d="M0.919678 20.6329C0.763428 20.6329 0.650147 20.5638 0.575928 20.4354C0.505616 20.2922 0.466553 20.1292 0.466553 19.9416C0.478272 19.6255 0.525147 19.4379 0.607178 19.3687C0.693115 19.3045 0.786865 19.27 0.904053 19.27C1.02905 19.27 1.10718 19.27 1.13843 19.27C1.63843 19.27 2.00171 19.107 2.23218 18.7761C2.47046 18.4502 2.65796 18.0798 2.79468 17.67C2.93921 17.265 3.03687 16.9885 3.09155 16.8403L7.46655 3.74403C7.5603 3.42798 7.60718 3.18107 7.60718 2.99342C7.60718 2.61317 7.48999 2.34156 7.26343 2.18354C7.03296 2.01564 6.70874 1.87737 6.29468 1.76872C6.00171 1.70453 5.82593 1.64033 5.76343 1.57119C5.70093 1.507 5.66968 1.32922 5.66968 1.03786C5.66968 0.790946 5.72046 0.623046 5.82593 0.544033C5.92749 0.455145 6.09937 0.405762 6.34155 0.405762C7.17358 0.405762 7.83374 0.484774 8.32593 0.642799C8.81421 0.800823 9.23999 1.11687 9.60718 1.59095C9.98218 2.06502 10.3259 2.78601 10.6384 3.74403L14.8416 16.8403C15.0916 17.6453 15.3298 18.2428 15.5603 18.6379C15.7986 19.0329 16.1462 19.2453 16.6072 19.27H16.7634C16.9275 19.27 17.0447 19.3095 17.1072 19.3885C17.1775 19.4576 17.2205 19.6403 17.2322 19.9416C17.2322 20.1292 17.1931 20.2922 17.1228 20.4354C17.0486 20.5638 16.9392 20.6329 16.7947 20.6329C15.7205 20.5638 14.8025 20.5342 14.0447 20.5342C13.0447 20.5342 12.0056 20.5638 10.9353 20.6329C10.7869 20.6329 10.6736 20.5638 10.5916 20.4354C10.5173 20.2922 10.4822 20.1292 10.4822 19.9416C10.5017 19.6403 10.5447 19.4576 10.6072 19.3885C10.6775 19.3095 10.7986 19.27 10.9666 19.27C11.5291 19.27 11.9236 19.2058 12.1541 19.0724C12.3923 18.9292 12.5134 18.6774 12.5134 18.3218C12.5134 18.0453 12.4119 17.5514 12.2166 16.8403L11.3572 14.2132H5.1853C4.76733 15.5169 4.52905 16.2774 4.46655 16.4848C4.41187 16.6971 4.38843 16.8156 4.38843 16.8403C4.18921 17.6453 4.09155 18.1588 4.09155 18.3811C4.09155 18.7366 4.21655 18.9737 4.46655 19.0922C4.71655 19.2107 5.18921 19.27 5.88843 19.27H6.04468C6.20874 19.27 6.32593 19.3095 6.38843 19.3885C6.45093 19.4576 6.48999 19.6403 6.51343 19.9416C6.51343 20.1292 6.47437 20.2922 6.40405 20.4354C6.32983 20.5638 6.21655 20.6329 6.0603 20.6329C4.9978 20.5638 4.09155 20.5342 3.34155 20.5342C2.8103 20.5342 2.00171 20.5638 0.919678 20.6329ZM5.66968 12.8502H10.9197L8.38843 4.73169H8.3103L5.66968 12.8502Z" fill="black"/>
</svg>
