<svg width="10" height="12" viewBox="0 0 10 12" fill="none" xmlns="http://www.w3.org/2000/svg">
<path d="M9.22473 5.64845C9.22473 5.9645 9.20911 6.29536 9.17786 6.6361H3.02161C3.06067 7.33734 3.24036 7.87561 3.55286 8.25586C3.86536 8.62623 4.24817 8.80894 4.70911 8.80894C5.38489 8.80894 5.85364 8.44351 6.11536 7.70277H9.02161C8.87317 8.45339 8.60364 9.12499 8.20911 9.71759C7.82239 10.3003 7.33801 10.7596 6.75598 11.1003C6.17004 11.4312 5.52161 11.5941 4.80286 11.5941C3.92786 11.5941 3.15051 11.367 2.47473 10.9028C1.79504 10.4287 1.26379 9.75709 0.880981 8.88796C0.505981 8.00894 0.318481 6.98672 0.318481 5.82623C0.318481 4.65586 0.505981 3.63364 0.880981 2.7645C1.25598 1.89536 1.77942 1.22376 2.45911 0.749685C3.13489 0.275611 3.91614 0.0385742 4.80286 0.0385742C5.65442 0.0385742 6.41614 0.270673 7.08411 0.729932C7.75989 1.19413 8.28723 1.84598 8.66223 2.68549C9.03723 3.52993 9.22473 4.51759 9.22473 5.64845ZM6.44348 4.73981C6.44348 4.14722 6.27942 3.68302 5.95911 3.33734C5.64661 2.98178 5.24817 2.80401 4.77161 2.80401C4.31067 2.80401 3.92786 2.97685 3.61536 3.31759C3.30286 3.64845 3.10754 4.12252 3.03723 4.73981H6.44348Z" fill="white"/>
</svg>
