<svg width="13" height="21" viewBox="0 0 13 21" fill="none" xmlns="http://www.w3.org/2000/svg">
<path d="M1.12292 20.2475C0.986206 20.2475 0.880737 20.1784 0.810425 20.05C0.736206 19.9068 0.70105 19.7438 0.70105 19.5562C0.708863 19.2401 0.755737 19.0525 0.841675 18.9833C0.923706 18.9191 1.08386 18.8846 1.32605 18.8846C1.80261 18.8846 2.15808 18.7759 2.38855 18.5488C2.62683 18.3266 2.77136 18.0549 2.82605 17.7389C2.88855 17.413 2.92761 16.9833 2.95105 16.4549V3.91173C2.92761 3.38828 2.88855 2.95865 2.82605 2.62778C2.77136 2.30186 2.62683 2.02531 2.38855 1.79815C2.15808 1.57593 1.80261 1.46235 1.32605 1.46235H1.1698C1.00183 1.46235 0.880737 1.43272 0.810425 1.36359C0.747925 1.28457 0.708863 1.10186 0.70105 0.810499C0.70105 0.612968 0.736206 0.450005 0.810425 0.316672C0.880737 0.188277 0.986206 0.119141 1.12292 0.119141C2.20496 0.173462 3.19324 0.198153 4.09167 0.198153H11.326C11.7518 0.198153 11.9667 0.454943 11.9667 0.968523L12.0448 5.39322C12.0448 5.58087 11.9667 5.72902 11.8104 5.84754C11.662 5.96605 11.5175 6.02531 11.3729 6.02531C11.1737 6.02531 10.9901 5.98087 10.826 5.88704C10.6698 5.78334 10.5839 5.64013 10.576 5.45247C10.4589 4.42531 10.3182 3.64507 10.1542 3.10186C9.99792 2.56359 9.76355 2.16359 9.45105 1.89692C9.14636 1.63519 8.71667 1.49198 8.15417 1.46235H5.4198V9.67964H9.90417C10.0292 9.70927 10.1229 9.79322 10.1854 9.93643C10.2557 10.0698 10.2948 10.2278 10.2948 10.4105C10.2948 10.5833 10.2557 10.7364 10.1854 10.8648C10.1229 10.9833 10.0292 11.0426 9.90417 11.0426H5.4198V16.4549C5.43933 16.9833 5.47449 17.413 5.52917 17.7389C5.59167 18.0549 5.73621 18.3266 5.96667 18.5488C6.20496 18.7759 6.56433 18.8846 7.0448 18.8846H7.20105C7.34558 18.8846 7.45496 18.9241 7.52917 19.0031C7.61121 19.0722 7.65808 19.2549 7.6698 19.5562C7.6698 19.7438 7.63074 19.9068 7.56042 20.05C7.48621 20.1784 7.37292 20.2475 7.21667 20.2475C6.15417 20.1784 5.12292 20.1488 4.12292 20.1488C3.20496 20.1488 2.20496 20.1784 1.12292 20.2475Z" fill="black"/>
</svg>
