<svg width="10" height="12" viewBox="0 0 10 12" fill="none" xmlns="http://www.w3.org/2000/svg">
<path d="M9.60229 0.196777V11.4363H6.86792V9.9153C6.59448 10.4042 6.21948 10.7992 5.74292 11.1005C5.27417 11.4067 4.75073 11.5548 4.18042 11.5548C3.50073 11.5548 2.90308 11.3671 2.38354 10.982C1.86011 10.6017 1.45386 10.0486 1.16479 9.3227C0.883545 8.60171 0.74292 7.75233 0.74292 6.77455V0.196777H3.44604V6.30048C3.44604 7.0511 3.59448 7.63875 3.89917 8.05851C4.21167 8.46838 4.62573 8.67085 5.14917 8.67085C5.68042 8.67085 6.09448 8.46838 6.39917 8.05851C6.71167 7.63875 6.86792 7.0511 6.86792 6.30048V0.196777H9.60229Z" fill="white"/>
</svg>
