<svg width="18" height="21" viewBox="0 0 18 21" fill="none" xmlns="http://www.w3.org/2000/svg">
<path d="M1.1593 20.4029C1.01086 20.4029 0.897583 20.3338 0.815552 20.2054C0.741333 20.0622 0.706177 19.8992 0.706177 19.7116C0.725708 19.3955 0.776489 19.2079 0.862427 19.1387C0.944458 19.0745 1.10071 19.04 1.33118 19.04C1.81946 19.04 2.17493 18.9313 2.39368 18.7042C2.62024 18.482 2.76086 18.2202 2.81555 17.9141C2.86633 17.6128 2.89758 17.1783 2.9093 16.6103L2.95618 4.06714C2.95618 3.43504 2.90149 2.95603 2.79993 2.62516C2.69446 2.29924 2.52258 2.0622 2.2843 1.91405C2.05383 1.77084 1.7218 1.64739 1.2843 1.53874C1.00305 1.47455 0.823365 1.41035 0.753052 1.34121C0.690552 1.27702 0.659302 1.09924 0.659302 0.80788C0.659302 0.560966 0.710083 0.393065 0.815552 0.314053C0.928833 0.225165 1.10071 0.175781 1.33118 0.175781C2.37024 0.175781 3.19055 0.269609 3.7843 0.452324C4.38586 0.625164 4.91711 0.941214 5.37805 1.40047C5.83508 1.86467 6.33899 2.5659 6.89368 3.51405L13.7374 14.8918H13.8156L13.7687 4.06714C13.7452 3.48936 13.7101 3.04985 13.6593 2.74368C13.6046 2.44245 13.464 2.18072 13.2374 1.95356C13.0187 1.73134 12.6671 1.61776 12.1906 1.61776H12.0343C11.8663 1.61776 11.7452 1.58813 11.6749 1.51899C11.6007 1.43998 11.5538 1.25726 11.5343 0.965905C11.5343 0.768374 11.5734 0.605411 11.6593 0.472078C11.7413 0.343683 11.8507 0.274547 11.9874 0.274547C13.0499 0.328868 13.8507 0.353559 14.3937 0.353559C14.7062 0.353559 15.3077 0.333806 16.2062 0.2943L16.7374 0.274547C16.882 0.274547 16.9913 0.343683 17.0656 0.472078C17.1476 0.605411 17.1906 0.768374 17.1906 0.965905C17.1671 1.28195 17.1163 1.47455 17.0343 1.53874C16.9484 1.59307 16.7921 1.61776 16.5656 1.61776C16.0734 1.61776 15.714 1.73134 15.4874 1.95356C15.2687 2.18072 15.132 2.44245 15.0812 2.74368C15.0382 3.04985 15.007 3.48936 14.9874 4.06714L14.9406 19.9881C14.9171 20.2647 14.7101 20.4029 14.3156 20.4029C13.9913 20.4029 13.7452 20.2647 13.5812 19.9881L4.1593 4.06714H4.08118L4.14368 16.6103C4.15149 17.1783 4.18274 17.6128 4.23743 17.9141C4.28821 18.2202 4.42493 18.482 4.64368 18.7042C4.87024 18.9313 5.22571 19.04 5.70618 19.04H5.86243C6.02649 19.04 6.14758 19.0795 6.2218 19.1585C6.29211 19.2276 6.33899 19.4104 6.36243 19.7116C6.36243 19.8992 6.32336 20.0622 6.25305 20.2054C6.17883 20.3338 6.06555 20.4029 5.9093 20.4029C4.8468 20.3338 4.03821 20.3042 3.48743 20.3042C3.15149 20.3042 2.56946 20.3239 1.73743 20.3634L1.1593 20.4029Z" fill="black"/>
</svg>
