<svg width="37" height="58" viewBox="0 0 37 58" fill="none" xmlns="http://www.w3.org/2000/svg">
<path d="M28.074 28.6421C30.6755 29.3532 32.7654 30.9927 34.3396 33.5606C35.9216 36.1187 36.7146 39.0421 36.7146 42.331C36.7146 47.0717 35.4021 50.8347 32.7771 53.61C30.1521 56.3903 26.488 57.7779 21.7927 57.7779H0.87085V0.987793H21.0896C25.6599 0.987793 29.2341 2.31125 31.8083 4.95816C34.3904 7.5952 35.6833 11.1754 35.6833 15.7038C35.6833 19.052 34.988 21.8273 33.6052 24.0396C32.2185 26.252 30.3748 27.7878 28.074 28.6421ZM11.8083 23.9606H18.9802C20.7693 23.9606 22.1443 23.4619 23.1052 22.4594C24.0623 21.4619 24.5427 19.9903 24.5427 18.0545C24.5427 16.1088 24.0623 14.6273 23.1052 13.61C22.1443 12.5829 20.7693 12.0693 18.9802 12.0693H11.8083V23.9606ZM19.8708 46.6174C21.7146 46.6174 23.1365 46.094 24.1365 45.0372C25.1365 43.9853 25.6365 42.4594 25.6365 40.4545C25.6365 38.4693 25.1091 36.9088 24.0583 35.773C23.0154 34.6421 21.5779 34.0742 19.7458 34.0742H11.8083V46.6174H19.8708Z" fill="#008B8B"/>
</svg>
