<svg width="15" height="21" viewBox="0 0 15 21" fill="none" xmlns="http://www.w3.org/2000/svg">
<path d="M4.28223 20.4029C4.13379 20.4029 4.02442 20.3338 3.9541 20.2054C3.87988 20.0622 3.84473 19.8992 3.84473 19.7115C3.85254 19.3955 3.89942 19.2078 3.98535 19.1387C4.06738 19.0745 4.22754 19.0399 4.46973 19.0399C4.94629 19.0399 5.30176 18.9313 5.53223 18.7041C5.77051 18.4819 5.91504 18.2103 5.96973 17.8943C6.03223 17.5683 6.07129 17.1387 6.09473 16.6103V1.5387H4.36035C3.79785 1.55352 3.36035 1.7066 3.04785 1.99302C2.74316 2.26957 2.50879 2.69426 2.34473 3.25722C2.18848 3.81031 2.05176 4.61031 1.93848 5.64734C1.91504 5.80537 1.81348 5.9387 1.62598 6.0424C1.44629 6.15105 1.25879 6.20043 1.06348 6.20043C0.915039 6.20043 0.782227 6.15105 0.657227 6.0424C0.532227 5.92389 0.469727 5.76586 0.469727 5.56833L0.532227 1.12389C0.532227 0.610306 0.758789 0.353516 1.21973 0.353516H13.4385C13.876 0.353516 14.0947 0.610306 14.0947 1.12389L14.1885 5.56833C14.1885 5.76586 14.1182 5.92389 13.9854 6.0424C13.8486 6.15105 13.708 6.20043 13.5635 6.20043C13.3643 6.20043 13.1768 6.15105 13.001 6.0424C12.8213 5.9387 12.7275 5.80537 12.7197 5.64734C12.583 4.59549 12.4385 3.79055 12.2822 3.23747C12.1338 2.68438 11.8994 2.26957 11.5791 1.99302C11.2666 1.7066 10.8291 1.55352 10.2666 1.5387H8.56348V16.6103C8.58301 17.1387 8.61817 17.5683 8.67285 17.8943C8.73535 18.2103 8.87988 18.4819 9.11035 18.7041C9.34863 18.9313 9.70801 19.0399 10.1885 19.0399H10.3447C10.4893 19.0399 10.5986 19.0794 10.6729 19.1585C10.7432 19.2276 10.79 19.4103 10.8135 19.7115C10.8135 19.8992 10.7744 20.0622 10.7041 20.2054C10.6299 20.3338 10.5166 20.4029 10.3604 20.4029C9.29785 20.3338 8.31348 20.3041 7.40723 20.3041C6.40723 20.3041 5.36426 20.3338 4.28223 20.4029Z" fill="black"/>
</svg>
