<svg width="14" height="21" viewBox="0 0 14 21" fill="none" xmlns="http://www.w3.org/2000/svg">
<path d="M0.816162 20.6328C0.679443 20.6328 0.573974 20.5637 0.503662 20.4353C0.429443 20.2921 0.394287 20.1291 0.394287 19.9414C0.4021 19.6254 0.448974 19.4377 0.534912 19.3686C0.616943 19.3044 0.7771 19.2698 1.01929 19.2698C1.49585 19.2698 1.85132 19.1612 2.08179 18.934C2.32007 18.7118 2.4646 18.4402 2.51929 18.1241C2.58179 17.7982 2.62085 17.3686 2.64429 16.8402V4.29699C2.62085 3.77353 2.58179 3.3439 2.51929 3.01304C2.4646 2.68711 2.32007 2.41057 2.08179 2.18341C1.85132 1.96119 1.49585 1.8476 1.01929 1.8476H0.863037C0.695068 1.8476 0.573974 1.81797 0.503662 1.74884C0.441162 1.66983 0.4021 1.48711 0.394287 1.19575C0.394287 0.998222 0.429443 0.835259 0.503662 0.701925C0.573974 0.573531 0.679443 0.504395 0.816162 0.504395C1.91772 0.558716 2.90991 0.583407 3.78491 0.583407H11.6443C12.0701 0.583407 12.2849 0.840197 12.2849 1.35378L12.363 5.77847C12.363 5.96612 12.2849 6.11427 12.1287 6.23279C11.9802 6.35131 11.8357 6.41057 11.6912 6.41057C11.4919 6.41057 11.3162 6.36612 11.1599 6.2723C11.0115 6.16859 10.9294 6.02538 10.9099 5.83773C10.7849 4.81057 10.6365 4.03032 10.4724 3.48711C10.3162 2.94884 10.0818 2.54884 9.76929 2.28217C9.4646 2.02044 9.03491 1.87723 8.47241 1.8476H5.11304V9.88711H9.64429C9.75757 9.90193 9.84741 9.98094 9.90991 10.1241C9.98023 10.2575 10.0193 10.4204 10.0193 10.618C10.0193 10.776 9.98023 10.9241 9.90991 11.0525C9.84741 11.1859 9.75757 11.2501 9.64429 11.2501H5.11304V17.2155C5.14429 17.6649 5.18335 18.0204 5.23804 18.2822C5.28882 18.5488 5.44116 18.7859 5.69116 18.9933C5.94116 19.2056 6.33179 19.2995 6.86304 19.2698H9.15991C9.74194 19.2451 10.1834 19.1266 10.488 18.9143C10.7888 18.6921 11.0271 18.3513 11.2068 17.8871C11.3826 17.413 11.5974 16.6525 11.8474 15.5958C11.9607 15.2303 12.2419 15.0822 12.6912 15.1612C12.8552 15.2007 13.0037 15.2896 13.1287 15.418C13.2537 15.5365 13.3044 15.6945 13.2849 15.8921L12.7849 19.8624C12.7419 20.139 12.6677 20.3266 12.5662 20.4155C12.4607 20.4945 12.2927 20.534 12.0662 20.534H3.81616C2.91772 20.534 1.91772 20.5637 0.816162 20.6328Z" fill="black"/>
</svg>
