<svg width="4" height="15" viewBox="0 0 4 15" fill="none" xmlns="http://www.w3.org/2000/svg">
<path d="M2.11841 4.70452C1.64966 4.70452 1.26685 4.52675 0.977783 4.17119C0.684814 3.80576 0.540283 3.32181 0.540283 2.72922C0.540283 2.15144 0.688721 1.67736 0.993408 1.30699C1.29419 0.941561 1.6731 0.753906 2.13403 0.753906C2.60278 0.753906 2.98169 0.941561 3.27466 1.30699C3.56372 1.67736 3.71216 2.15144 3.71216 2.72922C3.71216 3.32181 3.56372 3.80576 3.27466 4.17119C2.98169 4.52675 2.59497 4.70452 2.11841 4.70452ZM2.11841 14.6798C1.66919 14.6798 1.29419 14.4922 0.993408 14.1267C0.688721 13.7613 0.540283 13.2724 0.540283 12.665C0.540283 12.1119 0.688721 11.6527 0.993408 11.2823C1.29419 10.9169 1.6731 10.7292 2.13403 10.7292C2.60278 10.7292 2.9856 10.9169 3.29028 11.2823C3.59106 11.6527 3.74341 12.1119 3.74341 12.665C3.74341 13.2724 3.59106 13.7613 3.29028 14.1267C2.9856 14.4922 2.59497 14.6798 2.11841 14.6798Z" fill="black"/>
</svg>
