<svg width="19" height="22" viewBox="0 0 19 22" fill="none" xmlns="http://www.w3.org/2000/svg">
<path d="M1.33545 21.018C1.1792 21.018 1.06201 20.9489 0.991699 20.8205C0.91748 20.6773 0.882324 20.5143 0.882324 20.3267C0.890137 20.0106 0.937011 19.823 1.02295 19.7538C1.10498 19.6897 1.26514 19.6551 1.50732 19.6551C1.98389 19.6551 2.33936 19.5464 2.56982 19.3193C2.80811 19.0971 2.95264 18.8255 3.00732 18.5094C3.06982 18.1835 3.10889 17.7538 3.13232 17.2255V4.68224C3.10889 4.15879 3.06982 3.72916 3.00732 3.39829C2.95264 3.07236 2.80811 2.79582 2.56982 2.56866C2.33936 2.34644 1.98389 2.23286 1.50732 2.23286H1.35107C1.18311 2.23286 1.06201 2.20323 0.991699 2.13409C0.929199 2.05508 0.890137 1.87236 0.882324 1.58101C0.882324 1.38348 0.91748 1.22051 0.991699 1.08718C1.06201 0.958785 1.1792 0.889648 1.33545 0.889648C2.41748 0.94397 3.39795 0.968661 4.27295 0.968661C5.27295 0.968661 6.31201 0.94397 7.39795 0.889648C7.5542 0.889648 7.66748 0.958785 7.7417 1.08718C7.81201 1.22051 7.85107 1.38348 7.85107 1.58101C7.83935 1.89706 7.79248 2.08965 7.71045 2.15385C7.62451 2.20817 7.46435 2.23286 7.22607 2.23286C6.74561 2.23286 6.38623 2.34644 6.14795 2.56866C5.91748 2.79582 5.77295 3.07236 5.71045 3.39829C5.65576 3.72916 5.6206 4.15879 5.60107 4.68224V10.2724H13.4604V4.68224C13.437 4.15879 13.3979 3.72916 13.3354 3.39829C13.2808 3.07236 13.1362 2.79582 12.8979 2.56866C12.6675 2.34644 12.312 2.23286 11.8354 2.23286H11.6792C11.5112 2.23286 11.3901 2.20323 11.3198 2.13409C11.2456 2.05508 11.1987 1.87236 11.1792 1.58101C11.1792 1.38348 11.2183 1.22051 11.3042 1.08718C11.3862 0.958785 11.4956 0.889648 11.6323 0.889648C12.7144 0.94397 13.7573 0.968661 14.7573 0.968661C15.6714 0.968661 16.6636 0.94397 17.7261 0.889648C17.8823 0.889648 17.9956 0.958785 18.0698 1.08718C18.1401 1.22051 18.1792 1.38348 18.1792 1.58101C18.1558 1.89706 18.1011 2.08965 18.0073 2.15385C17.9214 2.20817 17.7729 2.23286 17.5542 2.23286C17.0737 2.23286 16.7104 2.34644 16.4604 2.56866C16.2183 2.79582 16.0698 3.07236 16.0073 3.39829C15.9526 3.72916 15.9175 4.15879 15.8979 4.68224V17.2255C15.9175 17.7538 15.9526 18.1835 16.0073 18.5094C16.0698 18.8255 16.2183 19.0971 16.4604 19.3193C16.7104 19.5464 17.0737 19.6551 17.5542 19.6551H17.7104C17.855 19.6551 17.9644 19.6946 18.0386 19.7736C18.1089 19.8427 18.1558 20.0255 18.1792 20.3267C18.1792 20.5143 18.1401 20.6773 18.0698 20.8205C17.9956 20.9489 17.8823 21.018 17.7261 21.018C16.6636 20.9489 15.6636 20.9193 14.7261 20.9193C13.7456 20.9193 12.7144 20.9489 11.6323 21.018C11.4956 21.018 11.3862 20.9489 11.3042 20.8205C11.2183 20.6773 11.1792 20.5143 11.1792 20.3267C11.1987 20.0106 11.2495 19.823 11.3354 19.7538C11.4292 19.6897 11.5933 19.6551 11.8354 19.6551C12.312 19.6551 12.6675 19.5464 12.8979 19.3193C13.1362 19.0971 13.2808 18.8255 13.3354 18.5094C13.3979 18.1835 13.437 17.7538 13.4604 17.2255V11.6353H5.60107V17.2255C5.6206 17.7538 5.65576 18.1835 5.71045 18.5094C5.77295 18.8255 5.91748 19.0971 6.14795 19.3193C6.38623 19.5464 6.74561 19.6551 7.22607 19.6551H7.38232C7.54639 19.6551 7.66357 19.6946 7.72607 19.7736C7.79639 19.8427 7.83935 20.0255 7.85107 20.3267C7.85107 20.5143 7.81201 20.6773 7.7417 20.8205C7.66748 20.9489 7.5542 21.018 7.39795 21.018C6.33545 20.9489 5.3042 20.9193 4.3042 20.9193C3.40576 20.9193 2.41748 20.9489 1.33545 21.018Z" fill="black"/>
</svg>
