<svg width="8" height="21" viewBox="0 0 8 21" fill="none" xmlns="http://www.w3.org/2000/svg">
<path d="M0.605957 20.6328C0.457519 20.6328 0.344238 20.5637 0.262207 20.4353C0.187988 20.2921 0.152832 20.1291 0.152832 19.9414C0.172363 19.6254 0.223145 19.4377 0.309082 19.3686C0.402832 19.3044 0.559082 19.2698 0.777832 19.2698C1.26611 19.2698 1.62549 19.1612 1.85596 18.934C2.08252 18.7118 2.23096 18.4402 2.29346 18.1241C2.36377 17.8081 2.41065 17.3834 2.43408 16.8402V4.29699C2.41065 3.7439 2.36377 3.30933 2.29346 2.99328C2.23096 2.67723 2.08252 2.41057 1.85596 2.18341C1.62549 1.96119 1.26611 1.8476 0.777832 1.8476H0.637207C0.480957 1.8476 0.363769 1.81797 0.293457 1.74884C0.219238 1.66983 0.172363 1.48711 0.152832 1.19575C0.152832 0.998222 0.187988 0.835259 0.262207 0.701925C0.344238 0.573531 0.457519 0.504395 0.605957 0.504395C1.68799 0.558716 2.67627 0.583407 3.57471 0.583407C4.57471 0.583407 5.61377 0.558716 6.69971 0.504395C6.85596 0.504395 6.96924 0.573531 7.04346 0.701925C7.11377 0.835259 7.15283 0.998222 7.15283 1.19575C7.14111 1.5118 7.09033 1.7044 6.99658 1.76859C6.90283 1.82291 6.73877 1.8476 6.51221 1.8476C6.02002 1.8476 5.65674 1.96119 5.41846 2.18341C5.18799 2.41057 5.04346 2.68711 4.98096 3.01304C4.92627 3.3439 4.89502 3.77353 4.88721 4.29699V16.8402C4.89502 17.3686 4.92627 17.7982 4.98096 18.1241C5.04346 18.4402 5.18799 18.7118 5.41846 18.934C5.65674 19.1612 6.02002 19.2698 6.51221 19.2698H6.65283C6.8169 19.2698 6.93799 19.3093 7.01221 19.3883C7.09424 19.4575 7.14111 19.6402 7.15283 19.9414C7.15283 20.1291 7.11377 20.2921 7.04346 20.4353C6.96924 20.5637 6.85596 20.6328 6.69971 20.6328C5.63721 20.5637 4.60596 20.534 3.60596 20.534C2.68799 20.534 1.68799 20.5637 0.605957 20.6328Z" fill="black"/>
</svg>
