<svg width="17" height="22" viewBox="0 0 17 22" fill="none" xmlns="http://www.w3.org/2000/svg">
<path d="M8.31824 21.9365C6.86902 21.9365 5.55652 21.5513 4.38074 20.7908C3.21277 20.0155 2.28699 18.8451 1.59949 17.2748C0.911987 15.7093 0.568237 13.7735 0.568237 11.4674C0.568237 9.34884 0.935425 7.47724 1.67761 5.85748C2.42761 4.22785 3.45886 2.96366 4.77136 2.06489C6.09168 1.17106 7.60339 0.72168 9.30261 0.72168C10.1346 0.72168 10.9589 0.879704 11.7714 1.19575C12.5917 1.5118 13.2714 2.01551 13.8026 2.69699C14.3339 3.36859 14.5995 4.19822 14.5995 5.18588C14.5995 6.10933 14.3807 6.91427 13.9432 7.59575C13.5135 8.26736 12.9432 8.60316 12.2245 8.60316C11.869 8.60316 11.5292 8.49946 11.2089 8.28711C10.8846 8.0797 10.7128 7.80316 10.6932 7.45748C10.6932 7.44761 10.8065 7.33403 11.037 7.12168C11.2635 6.91427 11.4745 6.62785 11.662 6.2723C11.8495 5.90686 11.9432 5.4723 11.9432 4.96859C11.9432 4.08958 11.6659 3.36859 11.1151 2.81551C10.5721 2.26242 9.86902 1.98588 9.00574 1.98588C7.96277 1.98588 7.02527 2.35625 6.19324 3.09205C5.3573 3.81798 4.70105 4.88464 4.22449 6.29205C3.74402 7.68958 3.50574 9.35378 3.50574 11.2896C3.50574 13.1612 3.74011 14.7809 4.20886 16.1488C4.68543 17.5217 5.35339 18.5735 6.20886 19.3093C7.07214 20.0353 8.06824 20.3958 9.19324 20.3958C9.7323 20.3958 10.201 20.3562 10.5995 20.2772C10.994 20.1982 11.4276 20.0698 11.8964 19.8822V16.6624C11.8964 15.9266 11.8729 15.413 11.8339 15.1217C11.7909 14.8204 11.6542 14.5982 11.4276 14.4501C11.2089 14.3069 10.8339 14.2328 10.3026 14.2328C10.1151 14.2328 9.97839 14.1933 9.89636 14.1143C9.81043 14.0353 9.76355 13.8525 9.75574 13.5612C9.75574 13.3785 9.7948 13.2204 9.88074 13.0871C9.97449 12.9439 10.1034 12.8698 10.2714 12.8698C11.3221 12.939 12.2401 12.9686 13.0214 12.9686C13.7714 12.9686 14.6698 12.939 15.7245 12.8698C15.869 12.8698 15.9823 12.9439 16.0682 13.0871C16.1503 13.2204 16.1932 13.3785 16.1932 13.5612C16.1815 13.8525 16.1346 14.0353 16.0526 14.1143C15.9667 14.1933 15.8339 14.2328 15.6464 14.2328C15.1464 14.2328 14.787 14.3217 14.5682 14.4896C14.3573 14.6476 14.2284 14.8846 14.1776 15.2007C14.1229 15.5069 14.0995 15.9908 14.0995 16.6624V20.3958C13.119 20.9785 12.2167 21.3735 11.3964 21.6007C10.5839 21.8229 9.55652 21.9365 8.31824 21.9365Z" fill="black"/>
</svg>
