<svg width="14" height="21" viewBox="0 0 14 21" fill="none" xmlns="http://www.w3.org/2000/svg">
<path d="M1.14673 20.4028C1.01001 20.4028 0.904541 20.3337 0.834229 20.2053C0.76001 20.0621 0.724854 19.8991 0.724854 19.7115C0.732667 19.3954 0.779541 19.2078 0.865479 19.1386C0.94751 19.0744 1.10767 19.0398 1.34985 19.0398C1.82642 19.0398 2.18188 18.9312 2.41235 18.704C2.65063 18.4818 2.79517 18.2102 2.84985 17.8942C2.91235 17.5682 2.95142 17.1386 2.97485 16.6102V4.06701C2.95142 3.54355 2.91235 3.11392 2.84985 2.78306C2.79517 2.45713 2.65063 2.18059 2.41235 1.95343C2.18188 1.7312 1.82642 1.61762 1.34985 1.61762H1.1936C1.02563 1.61762 0.904541 1.58799 0.834229 1.51886C0.771729 1.43985 0.732667 1.25713 0.724854 0.965772C0.724854 0.768241 0.76001 0.605279 0.834229 0.471945C0.904541 0.343551 1.01001 0.274414 1.14673 0.274414C2.24829 0.328735 3.24048 0.353426 4.11548 0.353426H11.9749C12.4006 0.353426 12.6155 0.610217 12.6155 1.1238L12.6936 5.54849C12.6936 5.73614 12.6155 5.88429 12.4592 6.00281C12.3108 6.12133 12.1663 6.18059 12.0217 6.18059C11.8225 6.18059 11.6467 6.13614 11.4905 6.04232C11.342 5.93861 11.26 5.7954 11.2405 5.60775C11.1155 4.58059 10.967 3.80034 10.803 3.25713C10.6467 2.71886 10.4124 2.31886 10.0999 2.05219C9.79517 1.79046 9.36548 1.64725 8.80298 1.61762H5.4436V9.65713H9.97485C10.0881 9.67195 10.178 9.75096 10.2405 9.89417C10.3108 10.0275 10.3499 10.1905 10.3499 10.388C10.3499 10.546 10.3108 10.6942 10.2405 10.8226C10.178 10.9559 10.0881 11.0201 9.97485 11.0201H5.4436V16.9855C5.47485 17.4349 5.51392 17.7905 5.5686 18.0522C5.61939 18.3189 5.77173 18.5559 6.02173 18.7633C6.27173 18.9757 6.66235 19.0695 7.1936 19.0398H9.49048C10.0725 19.0152 10.5139 18.8966 10.8186 18.6843C11.1194 18.4621 11.3577 18.1213 11.5374 17.6571C11.7131 17.1831 11.928 16.4226 12.178 15.3658C12.2913 15.0003 12.5725 14.8522 13.0217 14.9312C13.1858 14.9707 13.3342 15.0596 13.4592 15.188C13.5842 15.3065 13.635 15.4645 13.6155 15.6621L13.1155 19.6324C13.0725 19.909 12.9983 20.0966 12.8967 20.1855C12.7913 20.2645 12.6233 20.304 12.3967 20.304H4.14673C3.24829 20.304 2.24829 20.3337 1.14673 20.4028Z" fill="black"/>
</svg>
