<svg width="17" height="22" viewBox="0 0 17 22" fill="none" xmlns="http://www.w3.org/2000/svg">
<path d="M8.68225 21.9365C7.09631 21.9365 5.70178 21.4525 4.49475 20.4945C3.28381 19.5365 2.34631 18.2624 1.68225 16.6822C1.026 15.1019 0.697876 13.413 0.697876 11.6056C0.697876 9.39328 1.09241 7.46736 1.88538 5.81798C2.67444 4.17353 3.68616 2.91427 4.91663 2.04514C6.15491 1.16612 7.40881 0.72168 8.68225 0.72168C10.276 0.72168 11.6823 1.20563 12.901 2.16366C14.1276 3.12662 15.0729 4.39082 15.7291 5.95625C16.3932 7.52662 16.7291 9.21551 16.7291 11.0328C16.7291 13.2451 16.3268 15.1809 15.526 16.8402C14.7213 18.4896 13.6979 19.7538 12.4479 20.6328C11.1979 21.5019 9.94006 21.9365 8.68225 21.9365ZM8.651 20.5538C9.78381 20.5538 10.7291 20.1291 11.4791 19.2698C12.2369 18.4155 12.8073 17.2698 13.1823 15.8328C13.5573 14.3859 13.7448 12.7859 13.7448 11.0328C13.7448 9.41304 13.5494 7.92662 13.1666 6.56859C12.7916 5.20069 12.2174 4.11427 11.4479 3.30933C10.6862 2.49452 9.75256 2.08464 8.651 2.08464C6.98303 2.08464 5.72913 2.98341 4.88538 4.77106C4.04163 6.54884 3.61975 8.79575 3.61975 11.5069C3.61975 13.1562 3.80725 14.6624 4.18225 16.0303C4.55725 17.4032 5.11975 18.4995 5.86975 19.3291C6.61975 20.1488 7.54553 20.5538 8.651 20.5538Z" fill="black"/>
</svg>
