<svg width="14" height="22" viewBox="0 0 14 22" fill="none" xmlns="http://www.w3.org/2000/svg">
<path d="M0.7229 21.018C0.586181 21.018 0.480712 20.9489 0.4104 20.8205C0.336181 20.6773 0.301025 20.5143 0.301025 20.3267C0.308838 20.0106 0.355712 19.823 0.44165 19.7538C0.523681 19.6897 0.683838 19.6551 0.926025 19.6551C1.40259 19.6551 1.75806 19.5464 1.98853 19.3193C2.22681 19.0971 2.37134 18.8255 2.42603 18.5094C2.48853 18.1835 2.52759 17.7538 2.55103 17.2255V4.68224C2.52759 4.15879 2.48853 3.72916 2.42603 3.39829C2.37134 3.07236 2.22681 2.79582 1.98853 2.56866C1.75806 2.34644 1.40259 2.23286 0.926025 2.23286H0.769775C0.601806 2.23286 0.480712 2.20323 0.4104 2.13409C0.3479 2.05508 0.308838 1.87236 0.301025 1.58101C0.301025 1.38348 0.336181 1.22051 0.4104 1.08718C0.480712 0.958785 0.586181 0.889648 0.7229 0.889648C1.82446 0.94397 2.81665 0.968661 3.69165 0.968661H11.551C11.9768 0.968661 12.1917 1.22545 12.1917 1.73903L12.2698 6.16372C12.2698 6.35138 12.1917 6.49953 12.0354 6.61804C11.887 6.73656 11.7424 6.79582 11.5979 6.79582C11.3987 6.79582 11.2229 6.75138 11.0667 6.65755C10.9182 6.55385 10.8362 6.41064 10.8167 6.22298C10.6917 5.19582 10.5432 4.41557 10.3792 3.87236C10.2229 3.33409 9.98853 2.93409 9.67603 2.66743C9.37134 2.4057 8.94165 2.26249 8.37915 2.23286H5.01978V10.2724H9.55103C9.66431 10.2872 9.75415 10.3662 9.81665 10.5094C9.88696 10.6427 9.92603 10.8057 9.92603 11.0032C9.92603 11.1613 9.88696 11.3094 9.81665 11.4378C9.75415 11.5711 9.66431 11.6353 9.55103 11.6353H5.01978V17.6008C5.05103 18.0501 5.09009 18.4057 5.14478 18.6674C5.19556 18.9341 5.3479 19.1711 5.5979 19.3785C5.8479 19.5909 6.23853 19.6847 6.76978 19.6551H9.06665C9.64868 19.6304 10.0901 19.5119 10.3948 19.2995C10.6956 19.0773 10.9338 18.7366 11.1135 18.2724C11.2893 17.7983 11.5042 17.0378 11.7542 15.981C11.8674 15.6156 12.1487 15.4674 12.5979 15.5464C12.762 15.5859 12.9104 15.6748 13.0354 15.8032C13.1604 15.9217 13.2112 16.0798 13.1917 16.2773L12.6917 20.2477C12.6487 20.5242 12.5745 20.7119 12.4729 20.8008C12.3674 20.8798 12.1995 20.9193 11.9729 20.9193H3.7229C2.82446 20.9193 1.82446 20.9489 0.7229 21.018Z" fill="black"/>
</svg>
