<svg width="14" height="21" viewBox="0 0 14 21" fill="none" xmlns="http://www.w3.org/2000/svg">
<path d="M0.704468 20.6328C0.567749 20.6328 0.46228 20.5637 0.391968 20.4353C0.317749 20.2921 0.282593 20.1291 0.282593 19.9414C0.290406 19.6254 0.33728 19.4377 0.423218 19.3686C0.505249 19.3044 0.665406 19.2698 0.907593 19.2698C1.38416 19.2698 1.73962 19.1612 1.97009 18.934C2.20837 18.7118 2.35291 18.4402 2.40759 18.1241C2.47009 17.7982 2.50916 17.3686 2.53259 16.8402V4.29699C2.50916 3.77353 2.47009 3.3439 2.40759 3.01304C2.35291 2.68711 2.20837 2.41057 1.97009 2.18341C1.73962 1.96119 1.38416 1.8476 0.907593 1.8476H0.751343C0.583374 1.8476 0.46228 1.81797 0.391968 1.74884C0.329468 1.66983 0.290406 1.48711 0.282593 1.19575C0.282593 0.998222 0.317749 0.835259 0.391968 0.701925C0.46228 0.573531 0.567749 0.504395 0.704468 0.504395C1.80603 0.558716 2.79822 0.583407 3.67322 0.583407H11.5326C11.9584 0.583407 12.1732 0.840197 12.1732 1.35378L12.2513 5.77847C12.2513 5.96612 12.1732 6.11427 12.017 6.23279C11.8685 6.35131 11.724 6.41057 11.5795 6.41057C11.3802 6.41057 11.2045 6.36612 11.0482 6.2723C10.8998 6.16859 10.8177 6.02538 10.7982 5.83773C10.6732 4.81057 10.5248 4.03032 10.3607 3.48711C10.2045 2.94884 9.97009 2.54884 9.65759 2.28217C9.35291 2.02044 8.92322 1.87723 8.36072 1.8476H5.00134V9.88711H9.53259C9.64587 9.90193 9.73572 9.98094 9.79822 10.1241C9.86853 10.2575 9.90759 10.4204 9.90759 10.618C9.90759 10.776 9.86853 10.9241 9.79822 11.0525C9.73572 11.1859 9.64587 11.2501 9.53259 11.2501H5.00134V17.2155C5.03259 17.6649 5.07166 18.0204 5.12634 18.2822C5.17712 18.5488 5.32947 18.7859 5.57947 18.9933C5.82947 19.2056 6.22009 19.2995 6.75134 19.2698H9.04822C9.63025 19.2451 10.0717 19.1266 10.3763 18.9143C10.6771 18.6921 10.9154 18.3513 11.0951 17.8871C11.2709 17.413 11.4857 16.6525 11.7357 15.5958C11.849 15.2303 12.1302 15.0822 12.5795 15.1612C12.7435 15.2007 12.892 15.2896 13.017 15.418C13.142 15.5365 13.1927 15.6945 13.1732 15.8921L12.6732 19.8624C12.6302 20.139 12.556 20.3266 12.4545 20.4155C12.349 20.4945 12.181 20.534 11.9545 20.534H3.70447C2.80603 20.534 1.80603 20.5637 0.704468 20.6328Z" fill="black"/>
</svg>
