<svg width="14" height="21" viewBox="0 0 14 21" fill="none" xmlns="http://www.w3.org/2000/svg">
<path d="M0.633057 20.4028C0.496338 20.4028 0.386963 20.3337 0.304932 20.2053C0.218995 20.0621 0.179932 19.8991 0.179932 19.7115C0.199463 19.3954 0.250245 19.2078 0.336182 19.1386C0.429932 19.0744 0.593995 19.0398 0.836182 19.0398C1.31274 19.0398 1.66821 18.9312 1.89868 18.704C2.13696 18.4818 2.28149 18.2102 2.33618 17.8942C2.39868 17.5682 2.43774 17.1386 2.46118 16.6102V4.06701C2.43774 3.54355 2.39868 3.11392 2.33618 2.78306C2.28149 2.45713 2.13696 2.18059 1.89868 1.95343C1.66821 1.7312 1.31274 1.61762 0.836182 1.61762H0.679932C0.511963 1.61762 0.390869 1.58799 0.320557 1.51886C0.246338 1.43985 0.199463 1.25713 0.179932 0.965772C0.179932 0.768241 0.218995 0.605279 0.304932 0.471945C0.386963 0.343551 0.496338 0.274414 0.633057 0.274414C1.71509 0.328735 2.71509 0.353426 3.63306 0.353426H7.38306C8.82837 0.353426 10.2307 0.738612 11.5862 1.49911C12.9495 2.26454 13.6331 3.78059 13.6331 6.04232C13.6331 7.30651 13.3284 8.44232 12.7268 9.43985C12.1331 10.4275 11.3557 11.1979 10.3987 11.751C9.43774 12.2942 8.44556 12.5608 7.41431 12.5608C6.45337 12.5608 5.62134 12.3929 4.91431 12.0473V16.6102C4.92212 17.1386 4.95337 17.5682 5.00806 17.8942C5.07056 18.2102 5.21509 18.4818 5.44556 18.704C5.68384 18.9312 6.04712 19.0398 6.53931 19.0398H6.67993C6.84399 19.0398 6.96509 19.0794 7.03931 19.1584C7.12134 19.2275 7.16821 19.4102 7.17993 19.7115C7.17993 19.8991 7.14087 20.0621 7.07056 20.2053C6.99634 20.3337 6.88306 20.4028 6.72681 20.4028C5.66431 20.3337 4.62134 20.304 3.60181 20.304C2.70337 20.304 1.71509 20.3337 0.633057 20.4028ZM6.67993 11.1386C7.28149 11.1386 7.90259 10.9905 8.53931 10.6843C9.18384 10.3831 9.73071 9.85466 10.1799 9.10404C10.6252 8.35343 10.8518 7.36577 10.8518 6.14108C10.8518 4.28429 10.3831 3.05466 9.44556 2.44725C8.51587 1.84479 7.52759 1.53861 6.47681 1.53861C6.04712 1.53861 5.72681 1.59787 5.50806 1.71639C5.28931 1.82503 5.13306 2.04725 5.03931 2.38799C4.95337 2.71886 4.91431 3.24725 4.91431 3.96824V10.7831C5.30884 11.0201 5.89868 11.1386 6.67993 11.1386Z" fill="black"/>
</svg>
