<svg width="12" height="22" viewBox="0 0 12 22" fill="none" xmlns="http://www.w3.org/2000/svg">
<path d="M5.95654 21.9365C4.20654 21.9365 2.8667 21.5513 1.94092 20.7908C1.01123 20.0155 0.550293 18.8846 0.550293 17.3933C0.550293 16.6328 0.753418 16.0056 1.15967 15.5167C1.57373 15.018 2.10498 14.7661 2.75342 14.7661C3.13623 14.7809 3.4292 14.8995 3.62842 15.1217C3.82373 15.3488 3.92529 15.5513 3.92529 15.734C3.92529 15.7637 3.83935 15.8427 3.67529 15.9711C3.50732 16.0896 3.35498 16.2822 3.22217 16.5439C3.09717 16.7958 3.03467 17.1365 3.03467 17.5711C3.03467 18.5587 3.26904 19.3242 3.73779 19.8624C4.21435 20.4056 4.95654 20.6723 5.95654 20.6723C6.64404 20.6723 7.2417 20.5093 7.75342 20.1785C8.27295 19.8377 8.66748 19.3883 8.94092 18.8353C9.22217 18.2723 9.36279 17.6846 9.36279 17.0772C9.36279 16.3167 9.19092 15.6649 8.84717 15.1217C8.50342 14.5686 8.08154 14.1093 7.58154 13.739C7.08154 13.3735 6.39795 12.9439 5.53467 12.455C4.53467 11.8921 3.72217 11.3785 3.09717 10.9143C2.47998 10.4402 1.95654 9.82292 1.51904 9.05748C1.08935 8.29699 0.878418 7.33896 0.878418 6.19328C0.878418 4.36612 1.3706 2.99328 2.36279 2.08464C3.36279 1.176 4.66748 0.72168 6.28467 0.72168C7.54248 0.72168 8.64404 1.06736 9.58154 1.74884C10.5269 2.42045 11.0034 3.4081 11.0034 4.7118C11.0034 5.47724 10.8003 6.10933 10.394 6.6081C9.98779 7.09699 9.45654 7.33896 8.80029 7.33896C8.42529 7.31427 8.13232 7.19575 7.92529 6.98341C7.72607 6.76119 7.62842 6.54884 7.62842 6.35131C7.62842 6.34143 7.73779 6.26736 7.95654 6.13403C8.1831 6.00563 8.38623 5.81304 8.56592 5.56119C8.7417 5.31427 8.83154 4.96366 8.83154 4.51427C8.83154 3.73896 8.58935 3.13156 8.11279 2.69699C7.64404 2.25254 7.03857 2.02538 6.30029 2.02538C5.28857 2.02538 4.51904 2.33156 3.98779 2.93403C3.46435 3.52662 3.20654 4.26736 3.20654 5.14637C3.20654 5.88711 3.36279 6.5044 3.67529 7.00316C3.9956 7.50687 4.50732 7.99082 5.20654 8.46489C5.76904 8.85008 6.38232 9.23032 7.05029 9.61057C8.1206 10.218 8.97217 10.776 9.59717 11.2896C10.2222 11.7933 10.7417 12.455 11.1597 13.2846C11.5854 14.1044 11.8003 15.1217 11.8003 16.3464C11.8003 17.4032 11.5386 18.3562 11.019 19.2106C10.4956 20.055 9.78857 20.7217 8.89404 21.2056C7.9956 21.6896 7.01904 21.9365 5.95654 21.9365Z" fill="black"/>
</svg>
