<svg width="10" height="12" viewBox="0 0 10 12" fill="none" xmlns="http://www.w3.org/2000/svg">
<path d="M5.99573 0.078125C7.02698 0.078125 7.8551 0.507755 8.4801 1.36208C9.1051 2.22134 9.4176 3.39171 9.4176 4.87812V11.4361H6.69885V5.33245C6.69885 4.58183 6.5426 4.00405 6.2301 3.59417C5.92542 3.17442 5.51526 2.96208 4.99573 2.96208C4.48401 2.96208 4.07385 3.17442 3.76135 3.59417C3.44885 4.00405 3.2926 4.58183 3.2926 5.33245V11.4361H0.573853V0.196644H3.2926V1.69788C3.57385 1.19911 3.94885 0.804051 4.4176 0.512693C4.88635 0.226272 5.40979 0.078125 5.99573 0.078125Z" fill="white"/>
</svg>
