<svg width="18" height="21" viewBox="0 0 18 21" fill="none" xmlns="http://www.w3.org/2000/svg">
<path d="M0.828979 20.2475C0.672729 20.2475 0.555541 20.1784 0.485229 20.05C0.41101 19.9068 0.375854 19.7438 0.375854 19.5562C0.383667 19.2401 0.430541 19.0525 0.516479 18.9833C0.59851 18.9191 0.758667 18.8846 1.00085 18.8846C1.47742 18.8846 1.83289 18.7759 2.06335 18.5488C2.30164 18.3266 2.44617 18.0549 2.50085 17.7389C2.56335 17.413 2.60242 16.9833 2.62585 16.4549V3.91173C2.60242 3.38828 2.56335 2.95865 2.50085 2.62778C2.44617 2.30186 2.30164 2.02531 2.06335 1.79815C1.83289 1.57593 1.47742 1.46235 1.00085 1.46235H0.844604C0.676636 1.46235 0.555541 1.43272 0.485229 1.36359C0.422729 1.28457 0.383667 1.10186 0.375854 0.810499C0.375854 0.612968 0.41101 0.450005 0.485229 0.316672C0.555541 0.188277 0.672729 0.119141 0.828979 0.119141C1.91101 0.173462 2.89148 0.198153 3.76648 0.198153C4.76648 0.198153 5.80554 0.173462 6.89148 0.119141C7.04773 0.119141 7.16101 0.188277 7.23523 0.316672C7.30554 0.450005 7.3446 0.612968 7.3446 0.810499C7.33289 1.12655 7.28601 1.31914 7.20398 1.38334C7.11804 1.43766 6.95789 1.46235 6.7196 1.46235C6.23914 1.46235 5.87976 1.57593 5.64148 1.79815C5.41101 2.02531 5.26648 2.30186 5.20398 2.62778C5.14929 2.95865 5.11414 3.38828 5.0946 3.91173V9.50186H12.954V3.91173C12.9305 3.38828 12.8915 2.95865 12.829 2.62778C12.7743 2.30186 12.6298 2.02531 12.3915 1.79815C12.161 1.57593 11.8055 1.46235 11.329 1.46235H11.1727C11.0048 1.46235 10.8837 1.43272 10.8134 1.36359C10.7391 1.28457 10.6923 1.10186 10.6727 0.810499C10.6727 0.612968 10.7118 0.450005 10.7977 0.316672C10.8798 0.188277 10.9891 0.119141 11.1259 0.119141C12.2079 0.173462 13.2509 0.198153 14.2509 0.198153C15.1649 0.198153 16.1571 0.173462 17.2196 0.119141C17.3759 0.119141 17.4891 0.188277 17.5634 0.316672C17.6337 0.450005 17.6727 0.612968 17.6727 0.810499C17.6493 1.12655 17.5946 1.31914 17.5009 1.38334C17.4149 1.43766 17.2665 1.46235 17.0477 1.46235C16.5673 1.46235 16.204 1.57593 15.954 1.79815C15.7118 2.02531 15.5634 2.30186 15.5009 2.62778C15.4462 2.95865 15.411 3.38828 15.3915 3.91173V16.4549C15.411 16.9833 15.4462 17.413 15.5009 17.7389C15.5634 18.0549 15.7118 18.3266 15.954 18.5488C16.204 18.7759 16.5673 18.8846 17.0477 18.8846H17.204C17.3485 18.8846 17.4579 18.9241 17.5321 19.0031C17.6024 19.0722 17.6493 19.2549 17.6727 19.5562C17.6727 19.7438 17.6337 19.9068 17.5634 20.05C17.4891 20.1784 17.3759 20.2475 17.2196 20.2475C16.1571 20.1784 15.1571 20.1488 14.2196 20.1488C13.2391 20.1488 12.2079 20.1784 11.1259 20.2475C10.9891 20.2475 10.8798 20.1784 10.7977 20.05C10.7118 19.9068 10.6727 19.7438 10.6727 19.5562C10.6923 19.2401 10.743 19.0525 10.829 18.9833C10.9227 18.9191 11.0868 18.8846 11.329 18.8846C11.8055 18.8846 12.161 18.7759 12.3915 18.5488C12.6298 18.3266 12.7743 18.0549 12.829 17.7389C12.8915 17.413 12.9305 16.9833 12.954 16.4549V10.8648H5.0946V16.4549C5.11414 16.9833 5.14929 17.413 5.20398 17.7389C5.26648 18.0549 5.41101 18.3266 5.64148 18.5488C5.87976 18.7759 6.23914 18.8846 6.7196 18.8846H6.87585C7.03992 18.8846 7.1571 18.9241 7.2196 19.0031C7.28992 19.0722 7.33289 19.2549 7.3446 19.5562C7.3446 19.7438 7.30554 19.9068 7.23523 20.05C7.16101 20.1784 7.04773 20.2475 6.89148 20.2475C5.82898 20.1784 4.79773 20.1488 3.79773 20.1488C2.89929 20.1488 1.91101 20.1784 0.828979 20.2475Z" fill="black"/>
</svg>
