<svg width="14" height="21" viewBox="0 0 14 21" fill="none" xmlns="http://www.w3.org/2000/svg">
<path d="M0.770142 20.4028C0.633423 20.4028 0.527954 20.3337 0.457642 20.2053C0.383423 20.0621 0.348267 19.8991 0.348267 19.7115C0.35608 19.3954 0.402954 19.2078 0.488892 19.1386C0.570923 19.0744 0.73108 19.0398 0.973267 19.0398C1.44983 19.0398 1.8053 18.9312 2.03577 18.704C2.27405 18.4818 2.41858 18.2102 2.47327 17.8942C2.53577 17.5682 2.57483 17.1386 2.59827 16.6102V4.06701C2.57483 3.54355 2.53577 3.11392 2.47327 2.78306C2.41858 2.45713 2.27405 2.18059 2.03577 1.95343C1.8053 1.7312 1.44983 1.61762 0.973267 1.61762H0.817017C0.649048 1.61762 0.527954 1.58799 0.457642 1.51886C0.395142 1.43985 0.35608 1.25713 0.348267 0.965772C0.348267 0.768241 0.383423 0.605279 0.457642 0.471945C0.527954 0.343551 0.633423 0.274414 0.770142 0.274414C1.8717 0.328735 2.86389 0.353426 3.73889 0.353426C4.73889 0.353426 5.77795 0.328735 6.86389 0.274414C7.02014 0.274414 7.13342 0.343551 7.20764 0.471945C7.27795 0.605279 7.31702 0.768241 7.31702 0.965772C7.3053 1.28182 7.25452 1.47441 7.16077 1.53861C7.06702 1.59293 6.91077 1.61762 6.69202 1.61762C6.21155 1.61762 5.85217 1.7312 5.61389 1.95343C5.38342 2.18059 5.23889 2.45713 5.17639 2.78306C5.1217 3.11392 5.08655 3.54355 5.06702 4.06701V17.0843C5.09827 17.5189 5.13733 17.8645 5.19202 18.1115C5.2428 18.3485 5.39514 18.5757 5.64514 18.7831C5.89514 18.9806 6.28577 19.0695 6.81702 19.0398H9.06702C9.64905 19.0152 10.0905 18.8966 10.3951 18.6843C10.6959 18.4621 10.9303 18.1213 11.0983 17.6571C11.274 17.1831 11.4889 16.4226 11.7389 15.3658C11.8639 15.0003 12.149 14.8522 12.5983 14.9312C12.7428 14.9707 12.8834 15.0596 13.0201 15.188C13.153 15.3065 13.2115 15.4645 13.192 15.6621L12.692 19.6324C12.6373 19.909 12.5592 20.0966 12.4576 20.1855C12.3639 20.2645 12.1998 20.304 11.9733 20.304H3.77014C2.8717 20.304 1.8717 20.3337 0.770142 20.4028Z" fill="black"/>
</svg>
