<svg width="14" height="21" viewBox="0 0 14 21" fill="none" xmlns="http://www.w3.org/2000/svg">
<path d="M0.606567 20.6328C0.469848 20.6328 0.364379 20.5637 0.294067 20.4353C0.219848 20.2921 0.184692 20.1291 0.184692 19.9414C0.192505 19.6254 0.239379 19.4377 0.325317 19.3686C0.407348 19.3044 0.567505 19.2698 0.809692 19.2698C1.28626 19.2698 1.64172 19.1612 1.87219 18.934C2.11047 18.7118 2.25501 18.4402 2.30969 18.1241C2.37219 17.7982 2.41126 17.3686 2.43469 16.8402V4.29699C2.41126 3.77353 2.37219 3.3439 2.30969 3.01304C2.25501 2.68711 2.11047 2.41057 1.87219 2.18341C1.64172 1.96119 1.28626 1.8476 0.809692 1.8476H0.653442C0.485473 1.8476 0.364379 1.81797 0.294067 1.74884C0.231567 1.66983 0.192505 1.48711 0.184692 1.19575C0.184692 0.998222 0.219848 0.835259 0.294067 0.701925C0.364379 0.573531 0.469848 0.504395 0.606567 0.504395C1.70813 0.558716 2.70032 0.583407 3.57532 0.583407C4.57532 0.583407 5.61438 0.558716 6.70032 0.504395C6.85657 0.504395 6.96985 0.573531 7.04407 0.701925C7.11438 0.835259 7.15344 0.998222 7.15344 1.19575C7.14172 1.5118 7.09094 1.7044 6.99719 1.76859C6.90344 1.82291 6.74719 1.8476 6.52844 1.8476C6.04797 1.8476 5.6886 1.96119 5.45032 2.18341C5.21985 2.41057 5.07532 2.68711 5.01282 3.01304C4.95813 3.3439 4.92297 3.77353 4.90344 4.29699V17.3143C4.93469 17.7488 4.97376 18.0945 5.02844 18.3414C5.07922 18.5785 5.23157 18.8056 5.48157 19.013C5.73157 19.2106 6.12219 19.2995 6.65344 19.2698H8.90344C9.48547 19.2451 9.92688 19.1266 10.2316 18.9143C10.5323 18.6921 10.7667 18.3513 10.9347 17.8871C11.1105 17.413 11.3253 16.6525 11.5753 15.5958C11.7003 15.2303 11.9855 15.0822 12.4347 15.1612C12.5792 15.2007 12.7198 15.2896 12.8566 15.418C12.9894 15.5365 13.048 15.6945 13.0284 15.8921L12.5284 19.8624C12.4738 20.139 12.3956 20.3266 12.2941 20.4155C12.2003 20.4945 12.0363 20.534 11.8097 20.534H3.60657C2.70813 20.534 1.70813 20.5637 0.606567 20.6328Z" fill="black"/>
</svg>
