<svg width="8" height="22" viewBox="0 0 8 22" fill="none" xmlns="http://www.w3.org/2000/svg">
<path d="M1.14465 21.018C0.996215 21.018 0.882934 20.9489 0.800903 20.8205C0.726684 20.6773 0.691528 20.5143 0.691528 20.3267C0.711059 20.0106 0.761841 19.823 0.847778 19.7538C0.941528 19.6897 1.09778 19.6551 1.31653 19.6551C1.80481 19.6551 2.16418 19.5464 2.39465 19.3193C2.62122 19.0971 2.76965 18.8255 2.83215 18.5094C2.90247 18.1934 2.94934 17.7687 2.97278 17.2255V4.68224C2.94934 4.12916 2.90247 3.69459 2.83215 3.37854C2.76965 3.06249 2.62122 2.79582 2.39465 2.56866C2.16418 2.34644 1.80481 2.23286 1.31653 2.23286H1.1759C1.01965 2.23286 0.902465 2.20323 0.832153 2.13409C0.757934 2.05508 0.711059 1.87236 0.691528 1.58101C0.691528 1.38348 0.726684 1.22051 0.800903 1.08718C0.882934 0.958785 0.996215 0.889648 1.14465 0.889648C2.22668 0.94397 3.21497 0.968661 4.1134 0.968661C5.1134 0.968661 6.15247 0.94397 7.2384 0.889648C7.39465 0.889648 7.50794 0.958785 7.58215 1.08718C7.65247 1.22051 7.69153 1.38348 7.69153 1.58101C7.67981 1.89706 7.62903 2.08965 7.53528 2.15385C7.44153 2.20817 7.27747 2.23286 7.0509 2.23286C6.55872 2.23286 6.19544 2.34644 5.95715 2.56866C5.72669 2.79582 5.58215 3.07236 5.51965 3.39829C5.46497 3.72916 5.43372 4.15879 5.4259 4.68224V17.2255C5.43372 17.7538 5.46497 18.1835 5.51965 18.5094C5.58215 18.8255 5.72669 19.0971 5.95715 19.3193C6.19544 19.5464 6.55872 19.6551 7.0509 19.6551H7.19153C7.35559 19.6551 7.47669 19.6946 7.5509 19.7736C7.63294 19.8427 7.67981 20.0255 7.69153 20.3267C7.69153 20.5143 7.65247 20.6773 7.58215 20.8205C7.50794 20.9489 7.39465 21.018 7.2384 21.018C6.1759 20.9489 5.14465 20.9193 4.14465 20.9193C3.22668 20.9193 2.22668 20.9489 1.14465 21.018Z" fill="black"/>
</svg>
