<svg width="18" height="21" viewBox="0 0 18 21" fill="none" xmlns="http://www.w3.org/2000/svg">
<path d="M1.20715 20.6329C1.05872 20.6329 0.945434 20.5638 0.863403 20.4354C0.789184 20.2922 0.754028 20.1292 0.754028 19.9416C0.773559 19.6255 0.82434 19.4379 0.910278 19.3687C0.992309 19.3045 1.14856 19.27 1.37903 19.27C1.86731 19.27 2.22278 19.1613 2.44153 18.9342C2.66809 18.7119 2.80872 18.4502 2.8634 18.144C2.91418 17.8428 2.94543 17.4082 2.95715 16.8403L3.00403 4.29712C3.00403 3.66502 2.94934 3.18601 2.84778 2.85514C2.74231 2.52922 2.57043 2.29218 2.33215 2.14403C2.10168 2.00082 1.76965 1.87737 1.33215 1.76872C1.0509 1.70453 0.871216 1.64033 0.800903 1.57119C0.738403 1.507 0.707153 1.32922 0.707153 1.03786C0.707153 0.790946 0.757934 0.623046 0.863403 0.544033C0.976684 0.455145 1.14856 0.405762 1.37903 0.405762C2.41809 0.405762 3.2384 0.499589 3.83215 0.682305C4.43372 0.855145 4.96497 1.17119 5.4259 1.63045C5.88293 2.09465 6.38684 2.79589 6.94153 3.74403L13.7853 15.1218H13.8634L13.8165 4.29712C13.7931 3.71934 13.7579 3.27984 13.7072 2.97366C13.6525 2.67243 13.5118 2.4107 13.2853 2.18354C13.0665 1.96132 12.715 1.84774 12.2384 1.84774H12.0822C11.9142 1.84774 11.7931 1.81811 11.7228 1.74897C11.6486 1.66996 11.6017 1.48724 11.5822 1.19589C11.5822 0.998354 11.6212 0.835392 11.7072 0.702058C11.7892 0.573664 11.8986 0.504527 12.0353 0.504527C13.0978 0.558848 13.8986 0.58354 14.4415 0.58354C14.754 0.58354 15.3556 0.563786 16.254 0.52428L16.7853 0.504527C16.9298 0.504527 17.0392 0.573664 17.1134 0.702058C17.1954 0.835392 17.2384 0.998354 17.2384 1.19589C17.215 1.51193 17.1642 1.70453 17.0822 1.76872C16.9962 1.82305 16.84 1.84774 16.6134 1.84774C16.1212 1.84774 15.7618 1.96132 15.5353 2.18354C15.3165 2.4107 15.1798 2.67243 15.129 2.97366C15.0861 3.27984 15.0548 3.71934 15.0353 4.29712L14.9884 20.2181C14.965 20.4947 14.7579 20.6329 14.3634 20.6329C14.0392 20.6329 13.7931 20.4947 13.629 20.2181L4.20715 4.29712H4.12903L4.19153 16.8403C4.19934 17.4082 4.23059 17.8428 4.28528 18.144C4.33606 18.4502 4.47278 18.7119 4.69153 18.9342C4.91809 19.1613 5.27356 19.27 5.75403 19.27H5.91028C6.07434 19.27 6.19543 19.3095 6.26965 19.3885C6.33997 19.4576 6.38684 19.6403 6.41028 19.9416C6.41028 20.1292 6.37122 20.2922 6.3009 20.4354C6.22668 20.5638 6.1134 20.6329 5.95715 20.6329C4.89465 20.5638 4.08606 20.5342 3.53528 20.5342C3.19934 20.5342 2.61731 20.5539 1.78528 20.5934L1.20715 20.6329Z" fill="black"/>
</svg>
