<svg width="15" height="21" viewBox="0 0 15 21" fill="none" xmlns="http://www.w3.org/2000/svg">
<path d="M4.33765 20.6329C4.18921 20.6329 4.07983 20.5637 4.00952 20.4353C3.9353 20.2921 3.90015 20.1292 3.90015 19.9415C3.90796 19.6255 3.95483 19.4378 4.04077 19.3687C4.1228 19.3045 4.28296 19.2699 4.52515 19.2699C5.00171 19.2699 5.35718 19.1613 5.58765 18.9341C5.82593 18.7119 5.97046 18.4403 6.02515 18.1242C6.08765 17.7983 6.12671 17.3687 6.15015 16.8403V1.76868H4.41577C3.85327 1.7835 3.41577 1.93658 3.10327 2.223C2.79858 2.49955 2.56421 2.92424 2.40015 3.4872C2.2439 4.04029 2.10718 4.84029 1.9939 5.87732C1.97046 6.03535 1.8689 6.16868 1.6814 6.27239C1.50171 6.38103 1.31421 6.43041 1.1189 6.43041C0.970459 6.43041 0.837647 6.38103 0.712647 6.27239C0.587646 6.15387 0.525146 5.99584 0.525146 5.79831L0.587646 1.35387C0.587646 0.840286 0.814209 0.583496 1.27515 0.583496H13.4939C13.9314 0.583496 14.1501 0.840286 14.1501 1.35387L14.2439 5.79831C14.2439 5.99584 14.1736 6.15387 14.0408 6.27239C13.9041 6.38103 13.7634 6.43041 13.6189 6.43041C13.4197 6.43041 13.2322 6.38103 13.0564 6.27239C12.8767 6.16868 12.783 6.03535 12.7751 5.87732C12.6384 4.82547 12.4939 4.02053 12.3376 3.46745C12.1892 2.91436 11.9548 2.49955 11.6345 2.223C11.322 1.93658 10.8845 1.7835 10.322 1.76868H8.6189V16.8403C8.63843 17.3687 8.67359 17.7983 8.72827 18.1242C8.79077 18.4403 8.9353 18.7119 9.16577 18.9341C9.40405 19.1613 9.76343 19.2699 10.2439 19.2699H10.4001C10.5447 19.2699 10.6541 19.3094 10.7283 19.3884C10.7986 19.4576 10.8455 19.6403 10.8689 19.9415C10.8689 20.1292 10.8298 20.2921 10.7595 20.4353C10.6853 20.5637 10.572 20.6329 10.4158 20.6329C9.35327 20.5637 8.3689 20.5341 7.46265 20.5341C6.46265 20.5341 5.41968 20.5637 4.33765 20.6329Z" fill="black"/>
</svg>
