<svg width="18" height="21" viewBox="0 0 18 21" fill="none" xmlns="http://www.w3.org/2000/svg">
<path d="M1.16516 20.4029C1.01672 20.4029 0.903442 20.3338 0.821411 20.2054C0.747192 20.0622 0.712036 19.8992 0.712036 19.7116C0.731567 19.3955 0.782348 19.2079 0.868286 19.1387C0.950317 19.0745 1.10657 19.04 1.33704 19.04C1.82532 19.04 2.18079 18.9313 2.39954 18.7042C2.6261 18.482 2.76672 18.2202 2.82141 17.9141C2.87219 17.6128 2.90344 17.1783 2.91516 16.6103L2.96204 4.06714C2.96204 3.43504 2.90735 2.95603 2.80579 2.62516C2.70032 2.29924 2.52844 2.0622 2.29016 1.91405C2.05969 1.77084 1.72766 1.64739 1.29016 1.53874C1.00891 1.47455 0.829224 1.41035 0.758911 1.34121C0.696411 1.27702 0.665161 1.09924 0.665161 0.80788C0.665161 0.560966 0.715942 0.393065 0.821411 0.314053C0.934692 0.225165 1.10657 0.175781 1.33704 0.175781C2.3761 0.175781 3.19641 0.269609 3.79016 0.452324C4.39172 0.625164 4.92297 0.941214 5.38391 1.40047C5.84094 1.86467 6.34485 2.5659 6.89954 3.51405L13.7433 14.8918H13.8214L13.7745 4.06714C13.7511 3.48936 13.7159 3.04985 13.6652 2.74368C13.6105 2.44245 13.4698 2.18072 13.2433 1.95356C13.0245 1.73134 12.673 1.61776 12.1964 1.61776H12.0402C11.8722 1.61776 11.7511 1.58813 11.6808 1.51899C11.6066 1.43998 11.5597 1.25726 11.5402 0.965905C11.5402 0.768374 11.5792 0.605411 11.6652 0.472078C11.7472 0.343683 11.8566 0.274547 11.9933 0.274547C13.0558 0.328868 13.8566 0.353559 14.3995 0.353559C14.712 0.353559 15.3136 0.333806 16.212 0.2943L16.7433 0.274547C16.8878 0.274547 16.9972 0.343683 17.0714 0.472078C17.1534 0.605411 17.1964 0.768374 17.1964 0.965905C17.173 1.28195 17.1222 1.47455 17.0402 1.53874C16.9542 1.59307 16.798 1.61776 16.5714 1.61776C16.0792 1.61776 15.7198 1.73134 15.4933 1.95356C15.2745 2.18072 15.1378 2.44245 15.087 2.74368C15.0441 3.04985 15.0128 3.48936 14.9933 4.06714L14.9464 19.9881C14.923 20.2647 14.7159 20.4029 14.3214 20.4029C13.9972 20.4029 13.7511 20.2647 13.587 19.9881L4.16516 4.06714H4.08704L4.14954 16.6103C4.15735 17.1783 4.1886 17.6128 4.24329 17.9141C4.29407 18.2202 4.43079 18.482 4.64954 18.7042C4.8761 18.9313 5.23157 19.04 5.71204 19.04H5.86829C6.03235 19.04 6.15344 19.0795 6.22766 19.1585C6.29797 19.2276 6.34485 19.4104 6.36829 19.7116C6.36829 19.8992 6.32922 20.0622 6.25891 20.2054C6.18469 20.3338 6.07141 20.4029 5.91516 20.4029C4.85266 20.3338 4.04407 20.3042 3.49329 20.3042C3.15735 20.3042 2.57532 20.3239 1.74329 20.3634L1.16516 20.4029Z" fill="black"/>
</svg>
