<svg width="15" height="22" viewBox="0 0 15 22" fill="none" xmlns="http://www.w3.org/2000/svg">
<path d="M8.0387 21.7807C6.62073 21.7807 5.32385 21.3511 4.14807 20.4968C2.96838 19.6425 2.03088 18.4227 1.33557 16.8425C0.648071 15.2622 0.304321 13.4202 0.304321 11.3116C0.304321 9.19308 0.636352 7.32147 1.30432 5.70172C1.96838 4.07209 2.9176 2.80789 4.14807 1.90913C5.38635 1.0153 6.83557 0.565918 8.49182 0.565918C9.9176 0.565918 11.1871 0.936289 12.3043 1.67209C13.4293 2.39802 13.9918 3.51901 13.9918 5.03012C13.9996 5.97826 13.7731 6.78814 13.3043 7.45975C12.8434 8.12147 12.2184 8.4474 11.4293 8.4474C11.1364 8.4474 10.8864 8.3832 10.6793 8.24987C10.4684 8.10666 10.3121 7.9437 10.2106 7.75604C10.1051 7.55851 10.0621 7.41036 10.0856 7.30172C10.0856 7.26221 10.1989 7.15357 10.4293 6.96592C10.6676 6.76839 10.8746 6.50666 11.0543 6.17579C11.2418 5.83505 11.3356 5.42024 11.3356 4.93135C11.3356 3.9832 11.0778 3.23258 10.5699 2.6795C10.0582 2.11653 9.3551 1.83012 8.46057 1.83012C7.43713 1.83012 6.53088 2.20049 5.74182 2.93629C4.94885 3.66221 4.33557 4.72888 3.89807 6.13629C3.46057 7.53382 3.24182 9.19802 3.24182 11.1338C3.24182 12.8227 3.4762 14.3536 3.94495 15.7363C4.42151 17.1091 5.09338 18.2005 5.96057 19.0153C6.82385 19.8351 7.81213 20.24 8.92932 20.24C9.83557 20.24 10.6051 20.003 11.2418 19.5289C11.8864 19.0548 12.4684 18.2943 12.9918 17.2375C13.0739 17.04 13.1871 16.9412 13.3356 16.9412C13.4684 16.9412 13.6207 17.0104 13.7887 17.1388C14.0465 17.3659 14.1793 17.5931 14.1793 17.8301C14.1793 17.9634 14.1481 18.0672 14.0856 18.1462C13.4489 19.1635 12.8512 19.9239 12.2887 20.4375C11.734 20.9511 11.1324 21.2968 10.4762 21.4844C9.82776 21.682 9.01526 21.7807 8.0387 21.7807Z" fill="black"/>
</svg>
