<svg width="17" height="23" viewBox="0 0 17 23" fill="none" xmlns="http://www.w3.org/2000/svg">
<path d="M8.47144 22.166C6.8855 22.166 5.49097 21.682 4.28394 20.724C3.073 19.766 2.1355 18.4919 1.47144 16.9117C0.815186 15.3314 0.487061 13.6425 0.487061 11.8351C0.487061 9.62278 0.881592 7.69685 1.67456 6.04747C2.46362 4.40302 3.47534 3.14376 4.70581 2.27463C5.94409 1.39562 7.198 0.951172 8.47144 0.951172C10.0652 0.951172 11.4714 1.43512 12.6902 2.39315C13.9167 3.35611 14.8621 4.62031 15.5183 6.18574C16.1824 7.75611 16.5183 9.445 16.5183 11.2623C16.5183 13.4746 16.116 15.4104 15.3152 17.0697C14.5105 18.7191 13.4871 19.9833 12.2371 20.8623C10.9871 21.7314 9.72925 22.166 8.47144 22.166ZM8.44019 20.7833C9.573 20.7833 10.5183 20.3586 11.2683 19.4993C12.0261 18.645 12.5964 17.4993 12.9714 16.0623C13.3464 14.6154 13.5339 13.0154 13.5339 11.2623C13.5339 9.64253 13.3386 8.15611 12.9558 6.79809C12.5808 5.43018 12.0066 4.34377 11.2371 3.53883C10.4753 2.72401 9.54175 2.31413 8.44019 2.31413C6.77222 2.31413 5.51831 3.2129 4.67456 5.00055C3.83081 6.77833 3.40894 9.02525 3.40894 11.7364C3.40894 13.3857 3.59644 14.8919 3.97144 16.2598C4.34644 17.6327 4.90894 18.729 5.65894 19.5586C6.40894 20.3783 7.33472 20.7833 8.44019 20.7833Z" fill="black"/>
</svg>
