<svg width="10" height="12" viewBox="0 0 10 12" fill="none" xmlns="http://www.w3.org/2000/svg">
<path d="M5.03735 11.5941C4.16235 11.5941 3.37329 11.367 2.67798 10.9028C1.99048 10.4287 1.44751 9.75709 1.05298 8.88796C0.654542 8.00894 0.459229 6.98672 0.459229 5.82623C0.459229 4.67067 0.654542 3.65339 1.05298 2.78425C1.45923 1.90524 2.01001 1.22376 2.70923 0.749685C3.40454 0.275611 4.1936 0.0385742 5.0686 0.0385742C5.9436 0.0385742 6.72876 0.275611 7.42798 0.749685C8.12329 1.22376 8.67798 1.90524 9.08423 2.78425C9.49048 3.65339 9.6936 4.67067 9.6936 5.82623C9.6936 6.97191 9.48267 7.98919 9.0686 8.8682C8.66235 9.75215 8.10376 10.4287 7.39673 10.9028C6.69751 11.367 5.91235 11.5941 5.03735 11.5941ZM5.03735 8.61141C5.55688 8.61141 5.99829 8.37438 6.36548 7.9003C6.72876 7.41635 6.91235 6.72499 6.91235 5.82623C6.91235 4.91759 6.73267 4.22623 6.3811 3.75215C6.02563 3.2682 5.58813 3.02129 5.0686 3.02129C4.53735 3.02129 4.09204 3.25833 3.74048 3.7324C3.39673 4.20648 3.22485 4.90771 3.22485 5.82623C3.22485 6.72499 3.39673 7.41635 3.74048 7.9003C4.08423 8.37438 4.51392 8.61141 5.03735 8.61141Z" fill="white"/>
</svg>
