<svg width="5" height="10" viewBox="0 0 5 10" fill="none" xmlns="http://www.w3.org/2000/svg">
<path d="M1.29187 9.32666C1.13562 9.40567 0.998901 9.37604 0.88562 9.24765C0.768433 9.12913 0.713745 8.97604 0.713745 8.79332C0.713745 8.58098 0.795776 8.42789 0.963745 8.339C1.6825 8.00814 2.21375 7.61308 2.5575 7.15382C2.90906 6.70444 3.08875 6.16616 3.08875 5.53407C3.08875 5.17851 3.00281 4.89209 2.83875 4.66493C2.67078 4.44271 2.4364 4.20567 2.13562 3.95382C1.83093 3.70691 1.60437 3.47481 1.44812 3.26246C1.29187 3.05505 1.21375 2.78839 1.21375 2.47234C1.21375 2.0674 1.33875 1.70197 1.58875 1.38592C1.83875 1.05999 2.12781 0.89209 2.46375 0.89209C2.9325 0.89209 3.35437 1.07974 3.72937 1.44518C4.11218 1.81555 4.42078 2.29456 4.65125 2.88715C4.87781 3.46987 4.995 4.05258 4.995 4.64518C4.995 5.84024 4.63562 6.82295 3.91687 7.58839C3.19812 8.36369 2.32312 8.94147 1.29187 9.32666Z" fill="black"/>
</svg>
