<svg width="14" height="22" viewBox="0 0 14 22" fill="none" xmlns="http://www.w3.org/2000/svg">
<path d="M0.619995 21.018C0.483276 21.018 0.373901 20.9489 0.29187 20.8205C0.205932 20.6773 0.16687 20.5143 0.16687 20.3267C0.186401 20.0255 0.233276 19.8427 0.307495 19.7736C0.377808 19.6946 0.498901 19.6551 0.66687 19.6551C1.01843 19.6551 1.28406 19.6255 1.46375 19.5563C1.65125 19.4773 1.83093 19.3094 2.01062 19.0427C2.1864 18.781 2.40515 18.3514 2.66687 17.7588L8.27625 4.64274C8.58875 3.82792 8.745 3.25014 8.745 2.90446C8.745 2.61804 8.63953 2.43039 8.4325 2.35138C8.22156 2.27236 7.84265 2.23286 7.29187 2.23286H4.57312C4.01062 2.26249 3.57703 2.38595 3.27625 2.60817C2.97156 2.83533 2.72937 3.17607 2.54187 3.63533C2.36218 4.09952 2.15125 4.85508 1.90125 5.90693C1.84656 6.09459 1.745 6.22298 1.58875 6.30199C1.44031 6.38101 1.26843 6.39582 1.07312 6.3415C0.924682 6.30199 0.795776 6.22298 0.682495 6.10446C0.577026 5.97607 0.530151 5.81804 0.54187 5.63039L1.04187 1.64027C1.09265 1.36372 1.16687 1.18594 1.26062 1.10693C1.36218 1.01804 1.53406 0.968661 1.77625 0.968661H10.3544C11.3114 0.968661 12.3309 0.94397 13.4169 0.889648C13.5731 0.889648 13.6864 0.958785 13.7606 1.08718C13.8309 1.22051 13.87 1.38348 13.87 1.58101C13.8583 1.87236 13.8153 2.05014 13.745 2.11434C13.6825 2.18348 13.5927 2.22298 13.4794 2.23286C13.3739 2.23286 13.2958 2.23286 13.245 2.23286C12.6903 2.28718 12.2606 2.52422 11.9481 2.94397C11.6356 3.36866 11.327 3.93162 11.0262 4.64274L5.54187 17.7588C5.39343 18.1835 5.32312 18.4995 5.32312 18.7069C5.32312 19.3143 5.76843 19.6304 6.66687 19.6551H9.62C10.202 19.6304 10.6434 19.5119 10.9481 19.2995C11.2489 19.0773 11.4872 18.7366 11.6669 18.2724C11.8544 17.7983 12.0731 17.0378 12.3231 15.981C12.4052 15.6156 12.6825 15.4674 13.1512 15.5464C13.2958 15.5859 13.4208 15.6748 13.5262 15.8032C13.6395 15.9217 13.6864 16.0798 13.6669 16.2773L13.1669 20.2477C13.1239 20.5242 13.0497 20.7119 12.9481 20.8008C12.8427 20.8798 12.6747 20.9193 12.4481 20.9193H3.62C2.70203 20.9193 1.70203 20.9489 0.619995 21.018Z" fill="black"/>
</svg>
