<svg width="17" height="22" viewBox="0 0 17 22" fill="none" xmlns="http://www.w3.org/2000/svg">
<path d="M8.40234 21.9365C6.81641 21.9365 5.42188 21.4525 4.21484 20.4945C3.00391 19.5365 2.06641 18.2624 1.40234 16.6822C0.746094 15.1019 0.417969 13.413 0.417969 11.6056C0.417969 9.39328 0.8125 7.46736 1.60547 5.81798C2.39453 4.17353 3.40625 2.91427 4.63672 2.04514C5.875 1.16612 7.12891 0.72168 8.40234 0.72168C9.99609 0.72168 11.4023 1.20563 12.6211 2.16366C13.8477 3.12662 14.793 4.39082 15.4492 5.95625C16.1133 7.52662 16.4492 9.21551 16.4492 11.0328C16.4492 13.2451 16.0469 15.1809 15.2461 16.8402C14.4414 18.4896 13.418 19.7538 12.168 20.6328C10.918 21.5019 9.66016 21.9365 8.40234 21.9365ZM8.37109 20.5538C9.50391 20.5538 10.4492 20.1291 11.1992 19.2698C11.957 18.4155 12.5273 17.2698 12.9023 15.8328C13.2773 14.3859 13.4648 12.7859 13.4648 11.0328C13.4648 9.41304 13.2695 7.92662 12.8867 6.56859C12.5117 5.20069 11.9375 4.11427 11.168 3.30933C10.4062 2.49452 9.47266 2.08464 8.37109 2.08464C6.70312 2.08464 5.44922 2.98341 4.60547 4.77106C3.76172 6.54884 3.33984 8.79575 3.33984 11.5069C3.33984 13.1562 3.52734 14.6624 3.90234 16.0303C4.27734 17.4032 4.83984 18.4995 5.58984 19.3291C6.33984 20.1488 7.26562 20.5538 8.37109 20.5538Z" fill="black"/>
</svg>
