<svg width="15" height="22" viewBox="0 0 15 22" fill="none" xmlns="http://www.w3.org/2000/svg">
<path d="M4.33203 21.0176C4.18359 21.0176 4.07422 20.9485 4.00391 20.8201C3.92969 20.6769 3.89453 20.5139 3.89453 20.3263C3.90234 20.0102 3.94922 19.8226 4.03516 19.7534C4.11719 19.6893 4.27734 19.6547 4.51953 19.6547C4.99609 19.6547 5.35156 19.546 5.58203 19.3189C5.82031 19.0967 5.96484 18.8251 6.01953 18.509C6.08203 18.1831 6.12109 17.7534 6.14453 17.2251V2.15345H4.41016C3.84766 2.16826 3.41016 2.32135 3.09766 2.60777C2.79297 2.88431 2.55859 3.309 2.39453 3.87197C2.23828 4.42505 2.10156 5.22505 1.98828 6.26209C1.96484 6.42011 1.86328 6.55345 1.67578 6.65715C1.49609 6.76579 1.30859 6.81518 1.11328 6.81518C0.964843 6.81518 0.832031 6.76579 0.707031 6.65715C0.582031 6.53863 0.519531 6.38061 0.519531 6.18308L0.582031 1.73863C0.582031 1.22505 0.808593 0.968262 1.26953 0.968262H13.4883C13.9258 0.968262 14.1445 1.22505 14.1445 1.73863L14.2383 6.18308C14.2383 6.38061 14.168 6.53863 14.0352 6.65715C13.8984 6.76579 13.7578 6.81518 13.6133 6.81518C13.4141 6.81518 13.2266 6.76579 13.0508 6.65715C12.8711 6.55345 12.7773 6.42011 12.7695 6.26209C12.6328 5.21024 12.4883 4.4053 12.332 3.85221C12.1836 3.29913 11.9492 2.88431 11.6289 2.60777C11.3164 2.32135 10.8789 2.16826 10.3164 2.15345H8.61328V17.2251C8.63281 17.7534 8.66797 18.1831 8.72266 18.509C8.78516 18.8251 8.92969 19.0967 9.16016 19.3189C9.39844 19.546 9.75781 19.6547 10.2383 19.6547H10.3945C10.5391 19.6547 10.6484 19.6942 10.7227 19.7732C10.793 19.8423 10.8398 20.0251 10.8633 20.3263C10.8633 20.5139 10.8242 20.6769 10.7539 20.8201C10.6797 20.9485 10.5664 21.0176 10.4102 21.0176C9.34766 20.9485 8.36328 20.9189 7.45703 20.9189C6.45703 20.9189 5.41406 20.9485 4.33203 21.0176Z" fill="black"/>
</svg>
