<svg width="18" height="22" viewBox="0 0 18 22" fill="none" xmlns="http://www.w3.org/2000/svg">
<path d="M1.34778 21.0177C1.19934 21.0177 1.08606 20.9486 1.00403 20.8202C0.929809 20.6769 0.894653 20.514 0.894653 20.3263C0.914184 20.0103 0.964965 19.8226 1.0509 19.7535C1.13293 19.6893 1.28918 19.6547 1.51965 19.6547C2.00793 19.6547 2.3634 19.5461 2.58215 19.3189C2.80872 19.0967 2.94934 18.835 3.00403 18.5288C3.05481 18.2276 3.08606 17.793 3.09778 17.2251L3.14465 4.68189C3.14465 4.04979 3.08997 3.57077 2.9884 3.23991C2.88293 2.91398 2.71106 2.67695 2.47278 2.5288C2.24231 2.38559 1.91028 2.26213 1.47278 2.15349C1.19153 2.08929 1.01184 2.0251 0.941528 1.95596C0.879028 1.89176 0.847778 1.71398 0.847778 1.42263C0.847778 1.17571 0.898559 1.00781 1.00403 0.928799C1.11731 0.839911 1.28918 0.790527 1.51965 0.790527C2.55872 0.790527 3.37903 0.884355 3.97278 1.06707C4.57434 1.23991 5.10559 1.55596 5.56653 2.01522C6.02356 2.47942 6.52747 3.18065 7.08215 4.1288L13.9259 15.5066H14.004L13.9572 4.68189C13.9337 4.10411 13.8986 3.6646 13.8478 3.35843C13.7931 3.05719 13.6525 2.79546 13.4259 2.56831C13.2072 2.34608 12.8556 2.2325 12.379 2.2325H12.2228C12.0548 2.2325 11.9337 2.20287 11.8634 2.13374C11.7892 2.05472 11.7423 1.87201 11.7228 1.58065C11.7228 1.38312 11.7618 1.22016 11.8478 1.08682C11.9298 0.958429 12.0392 0.889293 12.1759 0.889293C13.2384 0.943614 14.0392 0.968305 14.5822 0.968305C14.8947 0.968305 15.4962 0.948552 16.3947 0.909046L16.9259 0.889293C17.0704 0.889293 17.1798 0.958429 17.254 1.08682C17.3361 1.22016 17.379 1.38312 17.379 1.58065C17.3556 1.8967 17.3048 2.08929 17.2228 2.15349C17.1368 2.20781 16.9806 2.2325 16.754 2.2325C16.2618 2.2325 15.9025 2.34608 15.6759 2.56831C15.4572 2.79546 15.3204 3.05719 15.2697 3.35843C15.2267 3.6646 15.1954 4.10411 15.1759 4.68189L15.129 20.6029C15.1056 20.8794 14.8986 21.0177 14.504 21.0177C14.1798 21.0177 13.9337 20.8794 13.7697 20.6029L4.34778 4.68189H4.26965L4.33215 17.2251C4.33997 17.793 4.37122 18.2276 4.4259 18.5288C4.47668 18.835 4.6134 19.0967 4.83215 19.3189C5.05872 19.5461 5.41418 19.6547 5.89465 19.6547H6.0509C6.21497 19.6547 6.33606 19.6942 6.41028 19.7732C6.48059 19.8424 6.52747 20.0251 6.5509 20.3263C6.5509 20.514 6.51184 20.6769 6.44153 20.8202C6.36731 20.9486 6.25403 21.0177 6.09778 21.0177C5.03528 20.9486 4.22668 20.9189 3.6759 20.9189C3.33997 20.9189 2.75793 20.9387 1.9259 20.9782L1.34778 21.0177Z" fill="black"/>
</svg>
