<svg width="19" height="21" viewBox="0 0 19 21" fill="none" xmlns="http://www.w3.org/2000/svg">
<path d="M1.34229 20.4028C1.18604 20.4028 1.06885 20.3337 0.998535 20.2053C0.924316 20.0621 0.88916 19.8991 0.88916 19.7115C0.896973 19.3954 0.943847 19.2078 1.02979 19.1386C1.11182 19.0744 1.27197 19.0398 1.51416 19.0398C1.99072 19.0398 2.34619 18.9312 2.57666 18.704C2.81494 18.4818 2.95947 18.2102 3.01416 17.8942C3.07666 17.5682 3.11572 17.1386 3.13916 16.6102V4.06701C3.11572 3.54355 3.07666 3.11392 3.01416 2.78306C2.95947 2.45713 2.81494 2.18059 2.57666 1.95343C2.34619 1.7312 1.99072 1.61762 1.51416 1.61762H1.35791C1.18994 1.61762 1.06885 1.58799 0.998535 1.51886C0.936035 1.43985 0.896973 1.25713 0.88916 0.965772C0.88916 0.768241 0.924316 0.605279 0.998535 0.471945C1.06885 0.343551 1.18604 0.274414 1.34229 0.274414C2.42432 0.328735 3.40479 0.353426 4.27979 0.353426C5.27979 0.353426 6.31885 0.328735 7.40479 0.274414C7.56104 0.274414 7.67432 0.343551 7.74854 0.471945C7.81885 0.605279 7.85791 0.768241 7.85791 0.965772C7.84619 1.28182 7.79932 1.47441 7.71729 1.53861C7.63135 1.59293 7.47119 1.61762 7.23291 1.61762C6.75244 1.61762 6.39307 1.7312 6.15479 1.95343C5.92432 2.18059 5.77979 2.45713 5.71729 2.78306C5.6626 3.11392 5.62744 3.54355 5.60791 4.06701V9.65713H13.4673V4.06701C13.4438 3.54355 13.4048 3.11392 13.3423 2.78306C13.2876 2.45713 13.1431 2.18059 12.9048 1.95343C12.6743 1.7312 12.3188 1.61762 11.8423 1.61762H11.686C11.5181 1.61762 11.397 1.58799 11.3267 1.51886C11.2524 1.43985 11.2056 1.25713 11.186 0.965772C11.186 0.768241 11.2251 0.605279 11.311 0.471945C11.3931 0.343551 11.5024 0.274414 11.6392 0.274414C12.7212 0.328735 13.7642 0.353426 14.7642 0.353426C15.6782 0.353426 16.6704 0.328735 17.7329 0.274414C17.8892 0.274414 18.0024 0.343551 18.0767 0.471945C18.147 0.605279 18.186 0.768241 18.186 0.965772C18.1626 1.28182 18.1079 1.47441 18.0142 1.53861C17.9282 1.59293 17.7798 1.61762 17.561 1.61762C17.0806 1.61762 16.7173 1.7312 16.4673 1.95343C16.2251 2.18059 16.0767 2.45713 16.0142 2.78306C15.9595 3.11392 15.9243 3.54355 15.9048 4.06701V16.6102C15.9243 17.1386 15.9595 17.5682 16.0142 17.8942C16.0767 18.2102 16.2251 18.4818 16.4673 18.704C16.7173 18.9312 17.0806 19.0398 17.561 19.0398H17.7173C17.8618 19.0398 17.9712 19.0794 18.0454 19.1584C18.1157 19.2275 18.1626 19.4102 18.186 19.7115C18.186 19.8991 18.147 20.0621 18.0767 20.2053C18.0024 20.3337 17.8892 20.4028 17.7329 20.4028C16.6704 20.3337 15.6704 20.304 14.7329 20.304C13.7524 20.304 12.7212 20.3337 11.6392 20.4028C11.5024 20.4028 11.3931 20.3337 11.311 20.2053C11.2251 20.0621 11.186 19.8991 11.186 19.7115C11.2056 19.3954 11.2563 19.2078 11.3423 19.1386C11.436 19.0744 11.6001 19.0398 11.8423 19.0398C12.3188 19.0398 12.6743 18.9312 12.9048 18.704C13.1431 18.4818 13.2876 18.2102 13.3423 17.8942C13.4048 17.5682 13.4438 17.1386 13.4673 16.6102V11.0201H5.60791V16.6102C5.62744 17.1386 5.6626 17.5682 5.71729 17.8942C5.77979 18.2102 5.92432 18.4818 6.15479 18.704C6.39307 18.9312 6.75244 19.0398 7.23291 19.0398H7.38916C7.55322 19.0398 7.67041 19.0794 7.73291 19.1584C7.80322 19.2275 7.84619 19.4102 7.85791 19.7115C7.85791 19.8991 7.81885 20.0621 7.74854 20.2053C7.67432 20.3337 7.56104 20.4028 7.40479 20.4028C6.34229 20.3337 5.31104 20.304 4.31104 20.304C3.4126 20.304 2.42432 20.3337 1.34229 20.4028Z" fill="black"/>
</svg>
