<svg width="15" height="21" viewBox="0 0 15 21" fill="none" xmlns="http://www.w3.org/2000/svg">
<path d="M4.7688 20.2476C4.62036 20.2476 4.51099 20.1785 4.44067 20.0501C4.36646 19.9069 4.3313 19.7439 4.3313 19.5563C4.33911 19.2402 4.38599 19.0526 4.47192 18.9834C4.55396 18.9192 4.71411 18.8847 4.9563 18.8847C5.43286 18.8847 5.78833 18.776 6.0188 18.5489C6.25708 18.3266 6.40161 18.055 6.4563 17.739C6.5188 17.4131 6.55786 16.9834 6.5813 16.455V1.38343H4.84692C4.28442 1.39824 3.84692 1.55133 3.53442 1.83775C3.22974 2.11429 2.99536 2.53898 2.8313 3.10195C2.67505 3.65503 2.53833 4.45503 2.42505 5.49207C2.40161 5.65009 2.30005 5.78343 2.11255 5.88713C1.93286 5.99577 1.74536 6.04516 1.55005 6.04516C1.40161 6.04516 1.2688 5.99577 1.1438 5.88713C1.0188 5.76861 0.956299 5.61059 0.956299 5.41306L1.0188 0.968613C1.0188 0.455032 1.24536 0.198242 1.7063 0.198242H13.9251C14.3626 0.198242 14.5813 0.455032 14.5813 0.968613L14.6751 5.41306C14.6751 5.61059 14.6047 5.76861 14.4719 5.88713C14.3352 5.99577 14.1946 6.04516 14.0501 6.04516C13.8508 6.04516 13.6633 5.99577 13.4876 5.88713C13.3079 5.78343 13.2141 5.65009 13.2063 5.49207C13.0696 4.44022 12.925 3.63528 12.7688 3.08219C12.6204 2.52911 12.386 2.11429 12.0657 1.83775C11.7532 1.55133 11.3157 1.39824 10.7532 1.38343H9.05005V16.455C9.06958 16.9834 9.10474 17.4131 9.15942 17.739C9.22192 18.055 9.36646 18.3266 9.59692 18.5489C9.83521 18.776 10.1946 18.8847 10.675 18.8847H10.8313C10.9758 18.8847 11.0852 18.9242 11.1594 19.0032C11.2297 19.0723 11.2766 19.255 11.3 19.5563C11.3 19.7439 11.261 19.9069 11.1907 20.0501C11.1165 20.1785 11.0032 20.2476 10.8469 20.2476C9.78442 20.1785 8.80005 20.1489 7.8938 20.1489C6.8938 20.1489 5.85083 20.1785 4.7688 20.2476Z" fill="black"/>
</svg>
