<svg width="17" height="22" viewBox="0 0 17 22" fill="none" xmlns="http://www.w3.org/2000/svg">
<path d="M8.07532 21.9365C6.48938 21.9365 5.09485 21.4525 3.88782 20.4945C2.67688 19.5365 1.73938 18.2624 1.07532 16.6822C0.419067 15.1019 0.0909424 13.413 0.0909424 11.6056C0.0909424 9.39328 0.485473 7.46736 1.27844 5.81798C2.06751 4.17353 3.07922 2.91427 4.30969 2.04514C5.54797 1.16612 6.80188 0.72168 8.07532 0.72168C9.66907 0.72168 11.0753 1.20563 12.2941 2.16366C13.5206 3.12662 14.4659 4.39082 15.1222 5.95625C15.7863 7.52662 16.1222 9.21551 16.1222 11.0328C16.1222 13.2451 15.7198 15.1809 14.9191 16.8402C14.1144 18.4896 13.0909 19.7538 11.8409 20.6328C10.5909 21.5019 9.33313 21.9365 8.07532 21.9365ZM8.04407 20.5538C9.17688 20.5538 10.1222 20.1291 10.8722 19.2698C11.63 18.4155 12.2003 17.2698 12.5753 15.8328C12.9503 14.3859 13.1378 12.7859 13.1378 11.0328C13.1378 9.41304 12.9425 7.92662 12.5597 6.56859C12.1847 5.20069 11.6105 4.11427 10.8409 3.30933C10.0792 2.49452 9.14563 2.08464 8.04407 2.08464C6.3761 2.08464 5.12219 2.98341 4.27844 4.77106C3.43469 6.54884 3.01282 8.79575 3.01282 11.5069C3.01282 13.1562 3.20032 14.6624 3.57532 16.0303C3.95032 17.4032 4.51282 18.4995 5.26282 19.3291C6.01282 20.1488 6.9386 20.5538 8.04407 20.5538Z" fill="black"/>
</svg>
