<svg width="14" height="21" viewBox="0 0 14 21" fill="none" xmlns="http://www.w3.org/2000/svg">
<path d="M0.879272 20.6328C0.742553 20.6328 0.633178 20.5637 0.551147 20.4353C0.46521 20.2921 0.426147 20.1291 0.426147 19.9414C0.445678 19.6254 0.49646 19.4377 0.582397 19.3686C0.676147 19.3044 0.84021 19.2698 1.0824 19.2698C1.55896 19.2698 1.91443 19.1612 2.1449 18.934C2.38318 18.7118 2.52771 18.4402 2.5824 18.1241C2.6449 17.7982 2.68396 17.3686 2.7074 16.8402V4.29699C2.68396 3.77353 2.6449 3.3439 2.5824 3.01304C2.52771 2.68711 2.38318 2.41057 2.1449 2.18341C1.91443 1.96119 1.55896 1.8476 1.0824 1.8476H0.926147C0.758178 1.8476 0.637084 1.81797 0.566772 1.74884C0.492553 1.66983 0.445678 1.48711 0.426147 1.19575C0.426147 0.998222 0.46521 0.835259 0.551147 0.701925C0.633178 0.573531 0.742553 0.504395 0.879272 0.504395C1.9613 0.558716 2.9613 0.583407 3.87927 0.583407H7.62927C9.07458 0.583407 10.4769 0.968593 11.8324 1.72909C13.1957 2.49452 13.8793 4.01057 13.8793 6.2723C13.8793 7.53649 13.5746 8.6723 12.973 9.66983C12.3793 10.6575 11.6019 11.4279 10.6449 11.9809C9.68396 12.5241 8.69177 12.7908 7.66052 12.7908C6.69958 12.7908 5.86755 12.6229 5.16052 12.2772V16.8402C5.16833 17.3686 5.19958 17.7982 5.25427 18.1241C5.31677 18.4402 5.4613 18.7118 5.69177 18.934C5.93005 19.1612 6.29333 19.2698 6.78552 19.2698H6.92615C7.09021 19.2698 7.2113 19.3093 7.28552 19.3883C7.36755 19.4575 7.41443 19.6402 7.42615 19.9414C7.42615 20.1291 7.38708 20.2921 7.31677 20.4353C7.24255 20.5637 7.12927 20.6328 6.97302 20.6328C5.91052 20.5637 4.86755 20.534 3.84802 20.534C2.94958 20.534 1.9613 20.5637 0.879272 20.6328ZM6.92615 11.3686C7.52771 11.3686 8.1488 11.2204 8.78552 10.9143C9.43005 10.613 9.97693 10.0846 10.4261 9.33403C10.8715 8.58341 11.098 7.59575 11.098 6.37106C11.098 4.51427 10.6293 3.28464 9.69177 2.67723C8.76208 2.07477 7.7738 1.76859 6.72302 1.76859C6.29333 1.76859 5.97302 1.82785 5.75427 1.94637C5.53552 2.05501 5.37927 2.27723 5.28552 2.61797C5.19958 2.94884 5.16052 3.47723 5.16052 4.19822V11.013C5.55505 11.2501 6.1449 11.3686 6.92615 11.3686Z" fill="black"/>
</svg>
