<svg width="17" height="22" viewBox="0 0 17 22" fill="none" xmlns="http://www.w3.org/2000/svg">
<path d="M1.31848 21.018C1.18176 21.018 1.07629 20.9489 1.00598 20.8205C0.931762 20.6773 0.896606 20.5143 0.896606 20.3267C0.904419 20.0106 0.951293 19.823 1.03723 19.7538C1.11926 19.6897 1.27942 19.6551 1.52161 19.6551C1.99817 19.6551 2.35364 19.5464 2.58411 19.3193C2.82239 19.0971 2.96692 18.8255 3.02161 18.5094C3.08411 18.1835 3.12317 17.7538 3.14661 17.2255V4.68224C3.12317 4.15879 3.08411 3.72916 3.02161 3.39829C2.96692 3.07236 2.82239 2.79582 2.58411 2.56866C2.35364 2.34644 1.99817 2.23286 1.52161 2.23286H1.36536C1.19739 2.23286 1.07629 2.20323 1.00598 2.13409C0.943481 2.05508 0.904419 1.87236 0.896606 1.58101C0.896606 1.38348 0.931762 1.22051 1.00598 1.08718C1.07629 0.958785 1.18176 0.889648 1.31848 0.889648C2.42004 0.94397 3.41223 0.968661 4.28723 0.968661H8.19348C9.79504 0.968661 11.2482 1.37854 12.5529 2.19335C13.8654 3.01311 14.8966 4.17854 15.6466 5.68965C16.4044 7.2057 16.7872 8.99829 16.7872 11.0625C16.7872 13.2106 16.3575 15.0279 15.506 16.5143C14.6505 18.0057 13.5372 19.1119 12.1622 19.8329C10.7872 20.5588 9.31067 20.9193 7.74036 20.9193H4.28723C3.41223 20.9193 2.42004 20.9489 1.31848 21.018ZM8.11536 19.7538C10.0607 19.7538 11.4904 18.9934 12.3966 17.4625C13.3107 15.9366 13.7716 13.8032 13.7716 11.0625C13.7716 9.33903 13.5216 7.79829 13.0216 6.44027C12.5294 5.07237 11.8185 4.01064 10.881 3.26002C9.95129 2.49953 8.84973 2.11434 7.56848 2.11434L5.61536 2.15385V17.6008C5.61536 18.4205 5.80676 18.9835 6.19348 19.2995C6.58801 19.6057 7.22864 19.7538 8.11536 19.7538Z" fill="black"/>
</svg>
