<svg width="15" height="21" viewBox="0 0 15 21" fill="none" xmlns="http://www.w3.org/2000/svg">
<path d="M4.36523 20.6329C4.2168 20.6329 4.10742 20.5637 4.03711 20.4353C3.96289 20.2921 3.92773 20.1292 3.92773 19.9415C3.93555 19.6255 3.98242 19.4378 4.06836 19.3687C4.15039 19.3045 4.31055 19.2699 4.55273 19.2699C5.0293 19.2699 5.38477 19.1613 5.61523 18.9341C5.85352 18.7119 5.99805 18.4403 6.05273 18.1242C6.11523 17.7983 6.1543 17.3687 6.17773 16.8403V1.76868H4.44336C3.88086 1.7835 3.44336 1.93658 3.13086 2.223C2.82617 2.49955 2.5918 2.92424 2.42773 3.4872C2.27148 4.04029 2.13477 4.84029 2.02148 5.87732C1.99805 6.03535 1.89648 6.16868 1.70898 6.27239C1.5293 6.38103 1.3418 6.43041 1.14648 6.43041C0.998046 6.43041 0.865234 6.38103 0.740234 6.27239C0.615234 6.15387 0.552734 5.99584 0.552734 5.79831L0.615234 1.35387C0.615234 0.840286 0.841796 0.583496 1.30273 0.583496H13.5215C13.959 0.583496 14.1777 0.840286 14.1777 1.35387L14.2715 5.79831C14.2715 5.99584 14.2012 6.15387 14.0684 6.27239C13.9316 6.38103 13.791 6.43041 13.6465 6.43041C13.4473 6.43041 13.2598 6.38103 13.084 6.27239C12.9043 6.16868 12.8105 6.03535 12.8027 5.87732C12.666 4.82547 12.5215 4.02053 12.3652 3.46745C12.2168 2.91436 11.9824 2.49955 11.6621 2.223C11.3496 1.93658 10.9121 1.7835 10.3496 1.76868H8.64649V16.8403C8.66602 17.3687 8.70117 17.7983 8.75586 18.1242C8.81836 18.4403 8.96289 18.7119 9.19336 18.9341C9.43164 19.1613 9.79102 19.2699 10.2715 19.2699H10.4277C10.5723 19.2699 10.6816 19.3094 10.7559 19.3884C10.8262 19.4576 10.873 19.6403 10.8965 19.9415C10.8965 20.1292 10.8574 20.2921 10.7871 20.4353C10.7129 20.5637 10.5996 20.6329 10.4434 20.6329C9.38086 20.5637 8.39649 20.5341 7.49024 20.5341C6.49023 20.5341 5.44727 20.5637 4.36523 20.6329Z" fill="black"/>
</svg>
