<svg width="18" height="22" viewBox="0 0 18 22" fill="none" xmlns="http://www.w3.org/2000/svg">
<path d="M1.38232 21.0177C1.22607 21.0177 1.11279 20.9486 1.03857 20.8202C0.968262 20.6769 0.929199 20.514 0.929199 20.3263C0.940918 20.0103 0.987793 19.8226 1.06982 19.7535C1.15576 19.6893 1.24951 19.6547 1.3667 19.6547C1.4917 19.6547 1.56982 19.6547 1.60107 19.6547C2.10107 19.6547 2.46436 19.4918 2.69482 19.1609C2.93311 18.835 3.12061 18.4646 3.25732 18.0547C3.40186 17.6498 3.49951 17.3732 3.5542 17.2251L7.9292 4.1288C8.02295 3.81275 8.06982 3.56584 8.06982 3.37818C8.06982 2.99794 7.95264 2.72633 7.72607 2.56831C7.4956 2.4004 7.17139 2.26213 6.75732 2.15349C6.46436 2.08929 6.28857 2.0251 6.22607 1.95596C6.16357 1.89176 6.13232 1.71398 6.13232 1.42263C6.13232 1.17571 6.1831 1.00781 6.28857 0.928799C6.39014 0.839911 6.56201 0.790527 6.8042 0.790527C7.63623 0.790527 8.29639 0.86954 8.78857 1.02756C9.27686 1.18559 9.70264 1.50164 10.0698 1.97571C10.4448 2.44979 10.7886 3.17077 11.1011 4.1288L15.3042 17.2251C15.5542 18.03 15.7925 18.6276 16.0229 19.0226C16.2612 19.4177 16.6089 19.63 17.0698 19.6547H17.2261C17.3901 19.6547 17.5073 19.6942 17.5698 19.7732C17.6401 19.8424 17.6831 20.0251 17.6948 20.3263C17.6948 20.514 17.6558 20.6769 17.5854 20.8202C17.5112 20.9486 17.4019 21.0177 17.2573 21.0177C16.1831 20.9486 15.2651 20.9189 14.5073 20.9189C13.5073 20.9189 12.4683 20.9486 11.3979 21.0177C11.2495 21.0177 11.1362 20.9486 11.0542 20.8202C10.98 20.6769 10.9448 20.514 10.9448 20.3263C10.9644 20.0251 11.0073 19.8424 11.0698 19.7732C11.1401 19.6942 11.2612 19.6547 11.4292 19.6547C11.9917 19.6547 12.3862 19.5905 12.6167 19.4572C12.855 19.314 12.9761 19.0621 12.9761 18.7066C12.9761 18.43 12.8745 17.9362 12.6792 17.2251L11.8198 14.5979H5.64795C5.22998 15.9016 4.9917 16.6621 4.9292 16.8695C4.87451 17.0819 4.85107 17.2004 4.85107 17.2251C4.65186 18.03 4.5542 18.5436 4.5542 18.7658C4.5542 19.1214 4.6792 19.3584 4.9292 19.4769C5.1792 19.5955 5.65186 19.6547 6.35107 19.6547H6.50732C6.67139 19.6547 6.78857 19.6942 6.85107 19.7732C6.91357 19.8424 6.95264 20.0251 6.97607 20.3263C6.97607 20.514 6.93701 20.6769 6.8667 20.8202C6.79248 20.9486 6.6792 21.0177 6.52295 21.0177C5.46045 20.9486 4.5542 20.9189 3.8042 20.9189C3.27295 20.9189 2.46436 20.9486 1.38232 21.0177ZM6.13232 13.235H11.3823L8.85107 5.11645H8.77295L6.13232 13.235Z" fill="black"/>
</svg>
