<svg width="21" height="21" viewBox="0 0 21 21" fill="none" xmlns="http://www.w3.org/2000/svg">
<path d="M9.79688 20.6922C9.54688 20.6922 9.36719 20.5835 9.26562 20.3761L3.64062 4.29712H3.5625L3.625 16.8403C3.63281 17.4082 3.66406 17.8428 3.71875 18.144C3.76953 18.4502 3.90625 18.7119 4.125 18.9342C4.35156 19.1613 4.70703 19.27 5.1875 19.27H5.34375C5.50781 19.27 5.62891 19.3095 5.70312 19.3885C5.77344 19.4576 5.82031 19.6403 5.84375 19.9416C5.84375 20.1292 5.80469 20.2922 5.73438 20.4354C5.66016 20.5638 5.54688 20.6329 5.39062 20.6329L4.76562 20.5934C4.00391 20.5539 3.45703 20.5342 3.125 20.5342C2.55078 20.5342 1.72266 20.5638 0.640625 20.6329C0.492188 20.6329 0.378906 20.5638 0.296875 20.4354C0.222656 20.2922 0.1875 20.1292 0.1875 19.9416C0.207031 19.6255 0.257812 19.4379 0.34375 19.3687C0.425781 19.3045 0.582031 19.27 0.8125 19.27C1.30078 19.27 1.65625 19.1613 1.875 18.9342C2.10156 18.7119 2.24219 18.4502 2.29688 18.144C2.34766 17.8428 2.37891 17.4082 2.39062 16.8403L2.4375 4.29712C2.4375 3.64033 2.37891 3.1465 2.26562 2.81564C2.14844 2.48971 1.97656 2.25761 1.75 2.12428C1.53125 1.99589 1.20312 1.87737 0.765625 1.76872C0.703125 1.74403 0.601562 1.71934 0.46875 1.68971C0.332031 1.65021 0.242188 1.58601 0.203125 1.49218C0.160156 1.40329 0.140625 1.25021 0.140625 1.03786C0.140625 0.790946 0.191406 0.623046 0.296875 0.544033C0.410156 0.455145 0.582031 0.405762 0.8125 0.405762C1.80078 0.405762 2.60938 0.484774 3.23438 0.642799C3.86719 0.800823 4.42578 1.12675 4.90625 1.6107C5.38281 2.08477 5.78125 2.79589 6.09375 3.74403L10.3906 15.9514H10.4688L15.3906 0.58354H16.8125C17.7266 0.58354 18.7227 0.558848 19.7969 0.504527C19.9414 0.504527 20.0508 0.573664 20.125 0.702058C20.207 0.835392 20.25 0.998354 20.25 1.19589C20.2266 1.51193 20.1719 1.70453 20.0781 1.76872C19.9844 1.82305 19.832 1.84774 19.625 1.84774C19.1328 1.84774 18.7695 1.96132 18.5312 2.18354C18.3008 2.4107 18.1562 2.68724 18.0938 3.01317C18.0391 3.34403 18.0078 3.77366 18 4.29712V16.8403C18.0078 17.3687 18.0391 17.7984 18.0938 18.1243C18.1562 18.4403 18.3008 18.7119 18.5312 18.9342C18.7695 19.1613 19.1328 19.27 19.625 19.27H19.7656C19.9219 19.27 20.0352 19.3095 20.1094 19.3885C20.1797 19.4576 20.2266 19.6403 20.25 19.9416C20.25 20.1292 20.207 20.2922 20.125 20.4354C20.0508 20.5638 19.9414 20.6329 19.7969 20.6329C18.7227 20.5638 17.7227 20.5342 16.7969 20.5342C15.8281 20.5342 14.8008 20.5638 13.7188 20.6329C13.5703 20.6329 13.457 20.5638 13.375 20.4354C13.3008 20.2922 13.2656 20.1292 13.2656 19.9416C13.2852 19.6255 13.3359 19.4379 13.4219 19.3687C13.5039 19.3045 13.6602 19.27 13.8906 19.27C14.3789 19.27 14.7383 19.1613 14.9688 18.9342C15.1953 18.7119 15.3438 18.4403 15.4062 18.1243C15.4688 17.7984 15.5039 17.3687 15.5156 16.8403V4.29712H15.4375L10.2969 20.3761C10.2227 20.5835 10.0547 20.6922 9.79688 20.6922Z" fill="black"/>
</svg>
