<svg width="8" height="21" viewBox="0 0 8 21" fill="none" xmlns="http://www.w3.org/2000/svg">
<path d="M0.534424 20.4028C0.385986 20.4028 0.272705 20.3337 0.190674 20.2053C0.116455 20.0621 0.0812988 19.8991 0.0812988 19.7115C0.10083 19.3954 0.151612 19.2078 0.237549 19.1386C0.331299 19.0744 0.487549 19.0398 0.706299 19.0398C1.19458 19.0398 1.55395 18.9312 1.78442 18.704C2.01099 18.4818 2.15942 18.2102 2.22192 17.8942C2.29224 17.5781 2.33911 17.1534 2.36255 16.6102V4.06701C2.33911 3.51392 2.29224 3.07935 2.22192 2.7633C2.15942 2.44725 2.01099 2.18059 1.78442 1.95343C1.55395 1.7312 1.19458 1.61762 0.706299 1.61762H0.565674C0.409424 1.61762 0.292236 1.58799 0.221924 1.51886C0.147705 1.43985 0.10083 1.25713 0.0812988 0.965772C0.0812988 0.768241 0.116455 0.605279 0.190674 0.471945C0.272705 0.343551 0.385986 0.274414 0.534424 0.274414C1.61646 0.328735 2.60474 0.353426 3.50317 0.353426C4.50317 0.353426 5.54224 0.328735 6.62817 0.274414C6.78442 0.274414 6.89771 0.343551 6.97192 0.471945C7.04224 0.605279 7.0813 0.768241 7.0813 0.965772C7.06958 1.28182 7.0188 1.47441 6.92505 1.53861C6.8313 1.59293 6.66724 1.61762 6.44067 1.61762C5.94849 1.61762 5.58521 1.7312 5.34692 1.95343C5.11646 2.18059 4.97192 2.45713 4.90942 2.78306C4.85474 3.11392 4.82349 3.54355 4.81567 4.06701V16.6102C4.82349 17.1386 4.85474 17.5682 4.90942 17.8942C4.97192 18.2102 5.11646 18.4818 5.34692 18.704C5.58521 18.9312 5.94849 19.0398 6.44067 19.0398H6.5813C6.74536 19.0398 6.86646 19.0794 6.94067 19.1584C7.02271 19.2275 7.06958 19.4102 7.0813 19.7115C7.0813 19.8991 7.04224 20.0621 6.97192 20.2053C6.89771 20.3337 6.78442 20.4028 6.62817 20.4028C5.56567 20.3337 4.53442 20.304 3.53442 20.304C2.61646 20.304 1.61646 20.3337 0.534424 20.4028Z" fill="black"/>
</svg>
