<svg width="21" height="22" viewBox="0 0 21 22" fill="none" xmlns="http://www.w3.org/2000/svg">
<path d="M10.184 21.0769C9.93396 21.0769 9.75427 20.9683 9.65271 20.7609L4.02771 4.68189H3.94958L4.01208 17.2251C4.0199 17.793 4.05115 18.2276 4.10583 18.5288C4.15662 18.835 4.29333 19.0967 4.51208 19.3189C4.73865 19.5461 5.09412 19.6547 5.57458 19.6547H5.73083C5.8949 19.6547 6.01599 19.6942 6.09021 19.7732C6.16052 19.8424 6.2074 20.0251 6.23083 20.3263C6.23083 20.514 6.19177 20.6769 6.12146 20.8202C6.04724 20.9486 5.93396 21.0177 5.77771 21.0177L5.15271 20.9782C4.39099 20.9387 3.84412 20.9189 3.51208 20.9189C2.93787 20.9189 2.10974 20.9486 1.02771 21.0177C0.879273 21.0177 0.765991 20.9486 0.68396 20.8202C0.609741 20.6769 0.574585 20.514 0.574585 20.3263C0.594116 20.0103 0.644897 19.8226 0.730835 19.7535C0.812866 19.6893 0.969116 19.6547 1.19958 19.6547C1.68787 19.6547 2.04333 19.5461 2.26208 19.3189C2.48865 19.0967 2.62927 18.835 2.68396 18.5288C2.73474 18.2276 2.76599 17.793 2.77771 17.2251L2.82458 4.68189C2.82458 4.0251 2.76599 3.53127 2.65271 3.2004C2.53552 2.87448 2.36365 2.64238 2.13708 2.50905C1.91833 2.38065 1.59021 2.26213 1.15271 2.15349C1.09021 2.1288 0.988647 2.10411 0.855835 2.07448C0.719116 2.03497 0.629273 1.97077 0.59021 1.87695C0.547241 1.78806 0.52771 1.63497 0.52771 1.42263C0.52771 1.17571 0.578491 1.00781 0.68396 0.928799C0.797241 0.839911 0.969116 0.790527 1.19958 0.790527C2.18787 0.790527 2.99646 0.86954 3.62146 1.02756C4.25427 1.18559 4.81287 1.51152 5.29333 1.99547C5.7699 2.46954 6.16833 3.18065 6.48083 4.1288L10.7777 16.3362H10.8558L15.7777 0.968305H17.1996C18.1136 0.968305 19.1097 0.943614 20.184 0.889293C20.3285 0.889293 20.4379 0.958429 20.5121 1.08682C20.5941 1.22016 20.6371 1.38312 20.6371 1.58065C20.6136 1.8967 20.559 2.08929 20.4652 2.15349C20.3715 2.20781 20.2191 2.2325 20.0121 2.2325C19.5199 2.2325 19.1566 2.34608 18.9183 2.56831C18.6879 2.79546 18.5433 3.07201 18.4808 3.39793C18.4261 3.7288 18.3949 4.15843 18.3871 4.68189V17.2251C18.3949 17.7535 18.4261 18.1831 18.4808 18.509C18.5433 18.8251 18.6879 19.0967 18.9183 19.3189C19.1566 19.5461 19.5199 19.6547 20.0121 19.6547H20.1527C20.309 19.6547 20.4222 19.6942 20.4965 19.7732C20.5668 19.8424 20.6136 20.0251 20.6371 20.3263C20.6371 20.514 20.5941 20.6769 20.5121 20.8202C20.4379 20.9486 20.3285 21.0177 20.184 21.0177C19.1097 20.9486 18.1097 20.9189 17.184 20.9189C16.2152 20.9189 15.1879 20.9486 14.1058 21.0177C13.9574 21.0177 13.8441 20.9486 13.7621 20.8202C13.6879 20.6769 13.6527 20.514 13.6527 20.3263C13.6722 20.0103 13.723 19.8226 13.809 19.7535C13.891 19.6893 14.0472 19.6547 14.2777 19.6547C14.766 19.6547 15.1254 19.5461 15.3558 19.3189C15.5824 19.0967 15.7308 18.8251 15.7933 18.509C15.8558 18.1831 15.891 17.7535 15.9027 17.2251V4.68189H15.8246L10.684 20.7609C10.6097 20.9683 10.4418 21.0769 10.184 21.0769Z" fill="black"/>
</svg>
