<svg width="14" height="22" viewBox="0 0 14 22" fill="none" xmlns="http://www.w3.org/2000/svg">
<path d="M0.667603 21.018C0.519165 21.018 0.405884 20.9489 0.323853 20.8205C0.249634 20.6773 0.214478 20.5143 0.214478 20.3267C0.234009 20.0106 0.284791 19.823 0.370728 19.7538C0.452759 19.6897 0.609009 19.6551 0.839478 19.6551C1.32776 19.6551 1.68713 19.5464 1.9176 19.3193C2.14416 19.0971 2.2926 18.8255 2.3551 18.5094C2.4176 18.1835 2.45276 17.7538 2.46448 17.2255V4.68224C2.45276 4.15879 2.4176 3.72916 2.3551 3.39829C2.2926 3.07236 2.14416 2.79582 1.9176 2.56866C1.68713 2.34644 1.32776 2.23286 0.839478 2.23286H0.698853C0.530884 2.23286 0.409791 2.20323 0.339478 2.13409C0.276978 2.05508 0.234009 1.87236 0.214478 1.58101C0.214478 1.38348 0.249634 1.22051 0.323853 1.08718C0.405884 0.958785 0.519165 0.889648 0.667603 0.889648C1.74963 0.94397 2.73401 0.968661 3.62073 0.968661H7.13635C8.05042 0.968661 8.7926 1.05755 9.3551 1.22545C9.92542 1.39829 10.4371 1.66002 10.8864 2.01557C11.3239 2.37113 11.6676 2.86496 11.9176 3.49706C12.1676 4.11928 12.2926 4.79582 12.2926 5.53162C12.2926 6.83533 11.9528 7.8773 11.277 8.65261C10.5973 9.41805 9.81213 9.93656 8.9176 10.2131V10.2921C9.78088 10.2921 10.566 10.5094 11.277 10.944C11.984 11.3785 12.5309 11.9613 12.9176 12.6822C13.3121 13.4082 13.5114 14.1934 13.5114 15.0329C13.5114 16.4699 13.1676 17.6353 12.4801 18.5292C11.7926 19.4131 10.9254 20.0403 9.88635 20.4057C8.84338 20.7761 7.76135 20.9588 6.63635 20.9588L3.63635 20.9193C2.73791 20.9193 1.74963 20.9489 0.667603 21.018ZM5.99573 9.66002C6.65979 9.66002 7.23792 9.60076 7.7301 9.48224C8.21838 9.35385 8.65588 9.01805 9.0426 8.47483C9.42542 7.92175 9.62073 7.06743 9.62073 5.90693C9.62073 3.40817 8.64417 2.15385 6.69885 2.15385H4.94885V9.66002H5.99573ZM6.74573 19.6946C7.97229 19.6699 8.95667 19.2798 9.69885 18.5292C10.4489 17.7785 10.8239 16.5538 10.8239 14.8551C10.7379 13.7094 10.316 12.7711 9.55823 12.0304C8.79651 11.2946 7.59729 10.9242 5.96448 10.9242H4.94885V17.2255C4.94885 17.9366 4.99963 18.4699 5.1051 18.8255C5.20667 19.1711 5.37854 19.3983 5.62073 19.5168C5.87073 19.6353 6.24573 19.6946 6.74573 19.6946Z" fill="black"/>
</svg>
