<svg width="21" height="21" viewBox="0 0 21 21" fill="none" xmlns="http://www.w3.org/2000/svg">
<path d="M10.5088 20.4622C10.2588 20.4622 10.0791 20.3536 9.97754 20.1462L4.35254 4.06714H4.27441L4.33691 16.6103C4.34473 17.1783 4.37598 17.6128 4.43066 17.9141C4.48145 18.2202 4.61816 18.482 4.83691 18.7042C5.06348 18.9313 5.41895 19.04 5.89941 19.04H6.05566C6.21973 19.04 6.34082 19.0795 6.41504 19.1585C6.48535 19.2276 6.53223 19.4104 6.55566 19.7116C6.55566 19.8992 6.5166 20.0622 6.44629 20.2054C6.37207 20.3338 6.25879 20.4029 6.10254 20.4029L5.47754 20.3634C4.71582 20.3239 4.16895 20.3042 3.83691 20.3042C3.2627 20.3042 2.43457 20.3338 1.35254 20.4029C1.2041 20.4029 1.09082 20.3338 1.00879 20.2054C0.93457 20.0622 0.899414 19.8992 0.899414 19.7116C0.918945 19.3955 0.969726 19.2079 1.05566 19.1387C1.1377 19.0745 1.29395 19.04 1.52441 19.04C2.0127 19.04 2.36816 18.9313 2.58691 18.7042C2.81348 18.482 2.9541 18.2202 3.00879 17.9141C3.05957 17.6128 3.09082 17.1783 3.10254 16.6103L3.14941 4.06714C3.14941 3.41035 3.09082 2.91652 2.97754 2.58566C2.86035 2.25973 2.68848 2.02763 2.46191 1.8943C2.24316 1.76591 1.91504 1.64739 1.47754 1.53874C1.41504 1.51405 1.31348 1.48936 1.18066 1.45973C1.04395 1.42023 0.954102 1.35603 0.915039 1.2622C0.87207 1.17331 0.852539 1.02023 0.852539 0.80788C0.852539 0.560966 0.90332 0.393065 1.00879 0.314053C1.12207 0.225165 1.29395 0.175781 1.52441 0.175781C2.5127 0.175781 3.32129 0.254794 3.94629 0.412818C4.5791 0.570843 5.1377 0.89677 5.61816 1.38072C6.09473 1.85479 6.49316 2.5659 6.80566 3.51405L11.1025 15.7215H11.1807L16.1025 0.353559H17.5244C18.4385 0.353559 19.4346 0.328868 20.5088 0.274547C20.6533 0.274547 20.7627 0.343683 20.8369 0.472078C20.9189 0.605411 20.9619 0.768374 20.9619 0.965905C20.9385 1.28195 20.8838 1.47455 20.79 1.53874C20.6963 1.59307 20.5439 1.61776 20.3369 1.61776C19.8447 1.61776 19.4814 1.73134 19.2432 1.95356C19.0127 2.18072 18.8682 2.45726 18.8057 2.78319C18.751 3.11405 18.7197 3.54368 18.7119 4.06714V16.6103C18.7197 17.1387 18.751 17.5684 18.8057 17.8943C18.8682 18.2104 19.0127 18.482 19.2432 18.7042C19.4814 18.9313 19.8447 19.04 20.3369 19.04H20.4775C20.6338 19.04 20.7471 19.0795 20.8213 19.1585C20.8916 19.2276 20.9385 19.4104 20.9619 19.7116C20.9619 19.8992 20.9189 20.0622 20.8369 20.2054C20.7627 20.3338 20.6533 20.4029 20.5088 20.4029C19.4346 20.3338 18.4346 20.3042 17.5088 20.3042C16.54 20.3042 15.5127 20.3338 14.4307 20.4029C14.2822 20.4029 14.1689 20.3338 14.0869 20.2054C14.0127 20.0622 13.9775 19.8992 13.9775 19.7116C13.9971 19.3955 14.0479 19.2079 14.1338 19.1387C14.2158 19.0745 14.3721 19.04 14.6025 19.04C15.0908 19.04 15.4502 18.9313 15.6807 18.7042C15.9072 18.482 16.0557 18.2104 16.1182 17.8943C16.1807 17.5684 16.2158 17.1387 16.2275 16.6103V4.06714H16.1494L11.0088 20.1462C10.9346 20.3536 10.7666 20.4622 10.5088 20.4622Z" fill="black"/>
</svg>
