<svg width="14" height="21" viewBox="0 0 14 21" fill="none" xmlns="http://www.w3.org/2000/svg">
<path d="M0.727783 20.4028C0.591064 20.4028 0.485595 20.3337 0.415283 20.2053C0.341064 20.0621 0.305908 19.8991 0.305908 19.7115C0.313721 19.3954 0.360595 19.2078 0.446533 19.1386C0.528564 19.0744 0.688721 19.0398 0.930908 19.0398C1.40747 19.0398 1.76294 18.9312 1.99341 18.704C2.23169 18.4818 2.37622 18.2102 2.43091 17.8942C2.49341 17.5682 2.53247 17.1386 2.55591 16.6102V4.06701C2.53247 3.54355 2.49341 3.11392 2.43091 2.78306C2.37622 2.45713 2.23169 2.18059 1.99341 1.95343C1.76294 1.7312 1.40747 1.61762 0.930908 1.61762H0.774658C0.606689 1.61762 0.485595 1.58799 0.415283 1.51886C0.352783 1.43985 0.313721 1.25713 0.305908 0.965772C0.305908 0.768241 0.341064 0.605279 0.415283 0.471945C0.485595 0.343551 0.591064 0.274414 0.727783 0.274414C1.82935 0.328735 2.82153 0.353426 3.69653 0.353426C4.69653 0.353426 5.7356 0.328735 6.82153 0.274414C6.97778 0.274414 7.09106 0.343551 7.16528 0.471945C7.2356 0.605279 7.27466 0.768241 7.27466 0.965772C7.26294 1.28182 7.21216 1.47441 7.11841 1.53861C7.02466 1.59293 6.86841 1.61762 6.64966 1.61762C6.16919 1.61762 5.80981 1.7312 5.57153 1.95343C5.34106 2.18059 5.19653 2.45713 5.13403 2.78306C5.07935 3.11392 5.04419 3.54355 5.02466 4.06701V17.0843C5.05591 17.5189 5.09497 17.8645 5.14966 18.1115C5.20044 18.3485 5.35278 18.5757 5.60278 18.7831C5.85278 18.9806 6.24341 19.0695 6.77466 19.0398H9.02466C9.60669 19.0152 10.0481 18.8966 10.3528 18.6843C10.6536 18.4621 10.8879 18.1213 11.0559 17.6571C11.2317 17.1831 11.4465 16.4226 11.6965 15.3658C11.8215 15.0003 12.1067 14.8522 12.5559 14.9312C12.7004 14.9707 12.8411 15.0596 12.9778 15.188C13.1106 15.3065 13.1692 15.4645 13.1497 15.6621L12.6497 19.6324C12.595 19.909 12.5168 20.0966 12.4153 20.1855C12.3215 20.2645 12.1575 20.304 11.9309 20.304H3.72778C2.82935 20.304 1.82935 20.3337 0.727783 20.4028Z" fill="black"/>
</svg>
