<svg width="18" height="22" viewBox="0 0 18 22" fill="none" xmlns="http://www.w3.org/2000/svg">
<path d="M1.36169 21.0177C1.20544 21.0177 1.09216 20.9486 1.01794 20.8202C0.947632 20.6769 0.908569 20.514 0.908569 20.3263C0.920288 20.0103 0.967163 19.8226 1.04919 19.7535C1.13513 19.6893 1.22888 19.6547 1.34607 19.6547C1.47107 19.6547 1.54919 19.6547 1.58044 19.6547C2.08044 19.6547 2.44373 19.4918 2.67419 19.1609C2.91248 18.835 3.09998 18.4646 3.23669 18.0547C3.38123 17.6498 3.47888 17.3732 3.53357 17.2251L7.90857 4.1288C8.00232 3.81275 8.04919 3.56584 8.04919 3.37818C8.04919 2.99794 7.93201 2.72633 7.70544 2.56831C7.47498 2.4004 7.15076 2.26213 6.73669 2.15349C6.44373 2.08929 6.26794 2.0251 6.20544 1.95596C6.14294 1.89176 6.11169 1.71398 6.11169 1.42263C6.11169 1.17571 6.16248 1.00781 6.26794 0.928799C6.36951 0.839911 6.54138 0.790527 6.78357 0.790527C7.6156 0.790527 8.27576 0.86954 8.76794 1.02756C9.25623 1.18559 9.68201 1.50164 10.0492 1.97571C10.4242 2.44979 10.7679 3.17077 11.0804 4.1288L15.2836 17.2251C15.5336 18.03 15.7719 18.6276 16.0023 19.0226C16.2406 19.4177 16.5883 19.63 17.0492 19.6547H17.2054C17.3695 19.6547 17.4867 19.6942 17.5492 19.7732C17.6195 19.8424 17.6625 20.0251 17.6742 20.3263C17.6742 20.514 17.6351 20.6769 17.5648 20.8202C17.4906 20.9486 17.3812 21.0177 17.2367 21.0177C16.1625 20.9486 15.2445 20.9189 14.4867 20.9189C13.4867 20.9189 12.4476 20.9486 11.3773 21.0177C11.2289 21.0177 11.1156 20.9486 11.0336 20.8202C10.9594 20.6769 10.9242 20.514 10.9242 20.3263C10.9437 20.0251 10.9867 19.8424 11.0492 19.7732C11.1195 19.6942 11.2406 19.6547 11.4086 19.6547C11.9711 19.6547 12.3656 19.5905 12.5961 19.4572C12.8344 19.314 12.9554 19.0621 12.9554 18.7066C12.9554 18.43 12.8539 17.9362 12.6586 17.2251L11.7992 14.5979H5.62732C5.20935 15.9016 4.97107 16.6621 4.90857 16.8695C4.85388 17.0819 4.83044 17.2004 4.83044 17.2251C4.63123 18.03 4.53357 18.5436 4.53357 18.7658C4.53357 19.1214 4.65857 19.3584 4.90857 19.4769C5.15857 19.5955 5.63123 19.6547 6.33044 19.6547H6.48669C6.65076 19.6547 6.76794 19.6942 6.83044 19.7732C6.89294 19.8424 6.93201 20.0251 6.95544 20.3263C6.95544 20.514 6.91638 20.6769 6.84607 20.8202C6.77185 20.9486 6.65857 21.0177 6.50232 21.0177C5.43982 20.9486 4.53357 20.9189 3.78357 20.9189C3.25232 20.9189 2.44373 20.9486 1.36169 21.0177ZM6.11169 13.235H11.3617L8.83044 5.11645H8.75232L6.11169 13.235Z" fill="black"/>
</svg>
