<svg width="8" height="21" viewBox="0 0 8 21" fill="none" xmlns="http://www.w3.org/2000/svg">
<path d="M0.486939 20.2475C0.3385 20.2475 0.22522 20.1784 0.143188 20.05C0.0689695 19.9068 0.0338135 19.7438 0.0338135 19.5562C0.0533445 19.2401 0.104126 19.0525 0.190063 18.9833C0.283814 18.9191 0.440064 18.8846 0.658814 18.8846C1.14709 18.8846 1.50647 18.7759 1.73694 18.5488C1.9635 18.3266 2.11194 18.0549 2.17444 17.7389C2.24475 17.4228 2.29163 16.9982 2.31506 16.4549V3.91173C2.29163 3.35865 2.24475 2.92408 2.17444 2.60803C2.11194 2.29198 1.9635 2.02531 1.73694 1.79815C1.50647 1.57593 1.14709 1.46235 0.658814 1.46235H0.518189C0.361939 1.46235 0.24475 1.43272 0.174438 1.36359C0.100219 1.28457 0.0533445 1.10186 0.0338135 0.810499C0.0338135 0.612968 0.0689695 0.450005 0.143188 0.316672C0.22522 0.188277 0.3385 0.119141 0.486939 0.119141C1.56897 0.173462 2.55725 0.198153 3.45569 0.198153C4.45569 0.198153 5.49475 0.173462 6.58069 0.119141C6.73694 0.119141 6.85022 0.188277 6.92444 0.316672C6.99475 0.450005 7.03381 0.612968 7.03381 0.810499C7.0221 1.12655 6.97131 1.31914 6.87756 1.38334C6.78381 1.43766 6.61975 1.46235 6.39319 1.46235C5.901 1.46235 5.53772 1.57593 5.29944 1.79815C5.06897 2.02531 4.92444 2.30186 4.86194 2.62778C4.80725 2.95865 4.776 3.38828 4.76819 3.91173V16.4549C4.776 16.9833 4.80725 17.413 4.86194 17.7389C4.92444 18.0549 5.06897 18.3266 5.29944 18.5488C5.53772 18.7759 5.901 18.8846 6.39319 18.8846H6.53381C6.69788 18.8846 6.81897 18.9241 6.89319 19.0031C6.97522 19.0722 7.0221 19.2549 7.03381 19.5562C7.03381 19.7438 6.99475 19.9068 6.92444 20.05C6.85022 20.1784 6.73694 20.2475 6.58069 20.2475C5.51819 20.1784 4.48694 20.1488 3.48694 20.1488C2.56897 20.1488 1.56897 20.1784 0.486939 20.2475Z" fill="black"/>
</svg>
