<svg width="15" height="21" viewBox="0 0 15 21" fill="none" xmlns="http://www.w3.org/2000/svg">
<path d="M4.61865 20.4029C4.47021 20.4029 4.36084 20.3338 4.29053 20.2054C4.21631 20.0622 4.18115 19.8992 4.18115 19.7115C4.18896 19.3955 4.23584 19.2078 4.32178 19.1387C4.40381 19.0745 4.56396 19.0399 4.80615 19.0399C5.28271 19.0399 5.63818 18.9313 5.86865 18.7041C6.10693 18.4819 6.25146 18.2103 6.30615 17.8943C6.36865 17.5683 6.40771 17.1387 6.43115 16.6103V1.5387H4.69678C4.13428 1.55352 3.69678 1.7066 3.38428 1.99302C3.07959 2.26957 2.84521 2.69426 2.68115 3.25722C2.5249 3.81031 2.38818 4.61031 2.2749 5.64734C2.25146 5.80537 2.1499 5.9387 1.9624 6.0424C1.78271 6.15105 1.59521 6.20043 1.3999 6.20043C1.25146 6.20043 1.11865 6.15105 0.993652 6.0424C0.868652 5.92389 0.806152 5.76586 0.806152 5.56833L0.868652 1.12389C0.868652 0.610306 1.09521 0.353516 1.55615 0.353516H13.7749C14.2124 0.353516 14.4312 0.610306 14.4312 1.12389L14.5249 5.56833C14.5249 5.76586 14.4546 5.92389 14.3218 6.0424C14.1851 6.15105 14.0444 6.20043 13.8999 6.20043C13.7007 6.20043 13.5132 6.15105 13.3374 6.0424C13.1577 5.9387 13.064 5.80537 13.0562 5.64734C12.9194 4.59549 12.7749 3.79055 12.6187 3.23747C12.4702 2.68438 12.2358 2.26957 11.9155 1.99302C11.603 1.7066 11.1655 1.55352 10.603 1.5387H8.8999V16.6103C8.91943 17.1387 8.95459 17.5683 9.00928 17.8943C9.07178 18.2103 9.21631 18.4819 9.44678 18.7041C9.68506 18.9313 10.0444 19.0399 10.5249 19.0399H10.6812C10.8257 19.0399 10.9351 19.0794 11.0093 19.1585C11.0796 19.2276 11.1265 19.4103 11.1499 19.7115C11.1499 19.8992 11.1108 20.0622 11.0405 20.2054C10.9663 20.3338 10.853 20.4029 10.6968 20.4029C9.63428 20.3338 8.6499 20.3041 7.74365 20.3041C6.74365 20.3041 5.70068 20.3338 4.61865 20.4029Z" fill="black"/>
</svg>
