<svg width="10" height="12" viewBox="0 0 10 12" fill="none" xmlns="http://www.w3.org/2000/svg">
<path d="M9.70886 5.64845C9.70886 5.9645 9.69324 6.29536 9.66199 6.6361H3.50574C3.5448 7.33734 3.72449 7.87561 4.03699 8.25586C4.34949 8.62623 4.7323 8.80894 5.19324 8.80894C5.86902 8.80894 6.33777 8.44351 6.59949 7.70277H9.50574C9.3573 8.45339 9.08777 9.12499 8.69324 9.71759C8.30652 10.3003 7.82214 10.7596 7.24011 11.1003C6.65418 11.4312 6.00574 11.5941 5.28699 11.5941C4.41199 11.5941 3.63464 11.367 2.95886 10.9028C2.27918 10.4287 1.74793 9.75709 1.36511 8.88796C0.990112 8.00894 0.802612 6.98672 0.802612 5.82623C0.802612 4.65586 0.990112 3.63364 1.36511 2.7645C1.74011 1.89536 2.26355 1.22376 2.94324 0.749685C3.61902 0.275611 4.40027 0.0385742 5.28699 0.0385742C6.13855 0.0385742 6.90027 0.270673 7.56824 0.729932C8.24402 1.19413 8.77136 1.84598 9.14636 2.68549C9.52136 3.52993 9.70886 4.51759 9.70886 5.64845ZM6.92761 4.73981C6.92761 4.14722 6.76355 3.68302 6.44324 3.33734C6.13074 2.98178 5.7323 2.80401 5.25574 2.80401C4.7948 2.80401 4.41199 2.97685 4.09949 3.31759C3.78699 3.64845 3.59168 4.12252 3.52136 4.73981H6.92761Z" fill="white"/>
</svg>
