<svg width="17" height="22" viewBox="0 0 17 22" fill="none" xmlns="http://www.w3.org/2000/svg">
<path d="M0.932373 21.0177C0.783936 21.0177 0.670654 20.9486 0.588623 20.8202C0.514404 20.6769 0.479248 20.514 0.479248 20.3263C0.498779 20.0103 0.54956 19.8226 0.635498 19.7535C0.717529 19.6893 0.873779 19.6547 1.10425 19.6547C1.59253 19.6547 1.948 19.5461 2.16675 19.3189C2.39331 19.0967 2.53394 18.835 2.58862 18.5288C2.6394 18.2276 2.67065 17.793 2.68237 17.2251L2.72925 4.68189C2.72925 4.04979 2.67456 3.57077 2.573 3.23991C2.46753 2.91398 2.29565 2.67695 2.05737 2.5288C1.8269 2.38559 1.49487 2.26213 1.05737 2.15349C0.776123 2.08929 0.596436 2.0251 0.526123 1.95596C0.463623 1.89176 0.432373 1.71398 0.432373 1.42263C0.432373 1.17571 0.483154 1.00781 0.588623 0.928799C0.701904 0.839911 0.873779 0.790527 1.10425 0.790527C2.14331 0.790527 2.96362 0.884355 3.55737 1.06707C4.15894 1.23991 4.69019 1.55596 5.15112 2.01522C5.60815 2.47942 6.11206 3.18065 6.66675 4.1288L13.5105 15.5066H13.5886L13.5417 4.68189C13.5183 4.10411 13.4832 3.6646 13.4324 3.35843C13.3777 3.05719 13.2371 2.79546 13.0105 2.56831C12.7917 2.34608 12.4402 2.2325 11.9636 2.2325H11.8074C11.6394 2.2325 11.5183 2.20287 11.448 2.13374C11.3738 2.05472 11.3269 1.87201 11.3074 1.58065C11.3074 1.38312 11.3464 1.22016 11.4324 1.08682C11.5144 0.958429 11.6238 0.889293 11.7605 0.889293C12.823 0.943614 13.6238 0.968305 14.1667 0.968305C14.4792 0.968305 15.0808 0.948552 15.9792 0.909046L16.5105 0.889293C16.655 0.889293 16.7644 0.958429 16.8386 1.08682C16.9207 1.22016 16.9636 1.38312 16.9636 1.58065C16.9402 1.8967 16.8894 2.08929 16.8074 2.15349C16.7214 2.20781 16.5652 2.2325 16.3386 2.2325C15.8464 2.2325 15.4871 2.34608 15.2605 2.56831C15.0417 2.79546 14.905 3.05719 14.8542 3.35843C14.8113 3.6646 14.78 4.10411 14.7605 4.68189L14.7136 20.6029C14.6902 20.8794 14.4832 21.0177 14.0886 21.0177C13.7644 21.0177 13.5183 20.8794 13.3542 20.6029L3.93237 4.68189H3.85425L3.91675 17.2251C3.92456 17.793 3.95581 18.2276 4.0105 18.5288C4.06128 18.835 4.198 19.0967 4.41675 19.3189C4.64331 19.5461 4.99878 19.6547 5.47925 19.6547H5.6355C5.79956 19.6547 5.92065 19.6942 5.99487 19.7732C6.06519 19.8424 6.11206 20.0251 6.1355 20.3263C6.1355 20.514 6.09644 20.6769 6.02612 20.8202C5.9519 20.9486 5.83862 21.0177 5.68237 21.0177C4.61987 20.9486 3.81128 20.9189 3.2605 20.9189C2.92456 20.9189 2.34253 20.9387 1.5105 20.9782L0.932373 21.0177Z" fill="black"/>
</svg>
