<svg width="16" height="19" viewBox="0 0 16 19" fill="none" xmlns="http://www.w3.org/2000/svg">
<path d="M7.98254 18.9519C6.60754 18.9519 5.37317 18.5865 4.27942 17.8457C3.19348 17.1099 2.34192 16.0581 1.71692 14.6852C1.09192 13.3173 0.779419 11.7173 0.779419 9.88525C0.779419 8.06796 1.09192 6.46796 1.71692 5.08525C2.34973 3.70253 3.22082 2.64574 4.32629 1.905C5.42786 1.1692 6.66223 0.798828 8.02942 0.798828C9.3927 0.798828 10.6232 1.1692 11.7169 1.905C12.8185 2.64574 13.6896 3.70253 14.3263 5.08525C14.9591 6.46796 15.2794 8.06796 15.2794 9.88525C15.2794 11.6927 14.9552 13.2828 14.3107 14.6655C13.674 16.0482 12.799 17.1099 11.6857 17.8457C10.5802 18.5865 9.34583 18.9519 7.98254 18.9519ZM7.98254 14.2704C8.79504 14.2704 9.48645 13.8951 10.0607 13.1445C10.631 12.384 10.92 11.2976 10.92 9.88525C10.92 8.46303 10.6388 7.37661 10.0763 6.62599C9.52161 5.86549 8.84192 5.48031 8.02942 5.48031C7.19348 5.48031 6.50208 5.85562 5.95129 6.60624C5.39661 7.35685 5.12317 8.45315 5.12317 9.88525C5.12317 11.2976 5.3927 12.384 5.93567 13.1445C6.47473 13.8951 7.15833 14.2704 7.98254 14.2704Z" fill="white"/>
</svg>
