<svg width="15" height="22" viewBox="0 0 15 22" fill="none" xmlns="http://www.w3.org/2000/svg">
<path d="M4.34326 21.0176C4.19482 21.0176 4.08545 20.9485 4.01514 20.8201C3.94092 20.6769 3.90576 20.5139 3.90576 20.3263C3.91357 20.0102 3.96045 19.8226 4.04639 19.7534C4.12842 19.6893 4.28857 19.6547 4.53076 19.6547C5.00732 19.6547 5.36279 19.546 5.59326 19.3189C5.83154 19.0967 5.97607 18.8251 6.03076 18.509C6.09326 18.1831 6.13232 17.7534 6.15576 17.2251V2.15345H4.42139C3.85889 2.16826 3.42139 2.32135 3.10889 2.60777C2.8042 2.88431 2.56982 3.309 2.40576 3.87197C2.24951 4.42505 2.11279 5.22505 1.99951 6.26209C1.97607 6.42011 1.87451 6.55345 1.68701 6.65715C1.50732 6.76579 1.31982 6.81518 1.12451 6.81518C0.976074 6.81518 0.843262 6.76579 0.718262 6.65715C0.593262 6.53863 0.530762 6.38061 0.530762 6.18308L0.593262 1.73863C0.593262 1.22505 0.819824 0.968262 1.28076 0.968262H13.4995C13.937 0.968262 14.1558 1.22505 14.1558 1.73863L14.2495 6.18308C14.2495 6.38061 14.1792 6.53863 14.0464 6.65715C13.9097 6.76579 13.769 6.81518 13.6245 6.81518C13.4253 6.81518 13.2378 6.76579 13.062 6.65715C12.8823 6.55345 12.7886 6.42011 12.7808 6.26209C12.644 5.21024 12.4995 4.4053 12.3433 3.85221C12.1948 3.29913 11.9605 2.88431 11.6401 2.60777C11.3276 2.32135 10.8901 2.16826 10.3276 2.15345H8.62451V17.2251C8.64404 17.7534 8.6792 18.1831 8.73389 18.509C8.79639 18.8251 8.94092 19.0967 9.17139 19.3189C9.40967 19.546 9.76904 19.6547 10.2495 19.6547H10.4058C10.5503 19.6547 10.6597 19.6942 10.7339 19.7732C10.8042 19.8423 10.8511 20.0251 10.8745 20.3263C10.8745 20.5139 10.8355 20.6769 10.7651 20.8201C10.6909 20.9485 10.5776 21.0176 10.4214 21.0176C9.35889 20.9485 8.37451 20.9189 7.46826 20.9189C6.46826 20.9189 5.42529 20.9485 4.34326 21.0176Z" fill="black"/>
</svg>
