<svg width="18" height="21" viewBox="0 0 18 21" fill="none" xmlns="http://www.w3.org/2000/svg">
<path d="M0.796265 20.2477C0.640015 20.2477 0.526734 20.1785 0.452515 20.0501C0.382203 19.9069 0.34314 19.744 0.34314 19.5563C0.354859 19.2403 0.401734 19.0526 0.483765 18.9835C0.569702 18.9193 0.663452 18.8847 0.78064 18.8847C0.90564 18.8847 0.983765 18.8847 1.01501 18.8847C1.51501 18.8847 1.8783 18.7217 2.10876 18.3909C2.34705 18.065 2.53455 17.6946 2.67126 17.2847C2.8158 16.8798 2.91345 16.6032 2.96814 16.4551L7.34314 3.35878C7.43689 3.04273 7.48376 2.79582 7.48376 2.60816C7.48376 2.22792 7.36658 1.95631 7.14001 1.79829C6.90955 1.63038 6.58533 1.49211 6.17126 1.38347C5.8783 1.31927 5.70251 1.25508 5.64001 1.18594C5.57751 1.12174 5.54626 0.943965 5.54626 0.652607C5.54626 0.405692 5.59705 0.237792 5.70251 0.158779C5.80408 0.0698912 5.97595 0.0205078 6.21814 0.0205078C7.05017 0.0205078 7.71033 0.0995202 8.20251 0.257545C8.6908 0.41557 9.11658 0.731619 9.48376 1.20569C9.85876 1.67977 10.2025 2.40076 10.515 3.35878L14.7181 16.4551C14.9681 17.26 15.2064 17.8575 15.4369 18.2526C15.6752 18.6477 16.0228 18.86 16.4838 18.8847H16.64C16.8041 18.8847 16.9213 18.9242 16.9838 19.0032C17.0541 19.0724 17.097 19.2551 17.1088 19.5563C17.1088 19.744 17.0697 19.9069 16.9994 20.0501C16.9252 20.1785 16.8158 20.2477 16.6713 20.2477C15.597 20.1785 14.6791 20.1489 13.9213 20.1489C12.9213 20.1489 11.8822 20.1785 10.8119 20.2477C10.6635 20.2477 10.5502 20.1785 10.4681 20.0501C10.3939 19.9069 10.3588 19.744 10.3588 19.5563C10.3783 19.2551 10.4213 19.0724 10.4838 19.0032C10.5541 18.9242 10.6752 18.8847 10.8431 18.8847C11.4056 18.8847 11.8002 18.8205 12.0306 18.6872C12.2689 18.544 12.39 18.2921 12.39 17.9366C12.39 17.66 12.2885 17.1662 12.0931 16.4551L11.2338 13.8279H5.06189C4.64392 15.1316 4.40564 15.8921 4.34314 16.0995C4.28845 16.3119 4.26501 16.4304 4.26501 16.4551C4.0658 17.26 3.96814 17.7736 3.96814 17.9958C3.96814 18.3514 4.09314 18.5884 4.34314 18.7069C4.59314 18.8254 5.0658 18.8847 5.76501 18.8847H5.92126C6.08533 18.8847 6.20251 18.9242 6.26501 19.0032C6.32751 19.0724 6.36658 19.2551 6.39001 19.5563C6.39001 19.744 6.35095 19.9069 6.28064 20.0501C6.20642 20.1785 6.09314 20.2477 5.93689 20.2477C4.87439 20.1785 3.96814 20.1489 3.21814 20.1489C2.68689 20.1489 1.8783 20.1785 0.796265 20.2477ZM5.54626 12.465H10.7963L8.26501 4.34643H8.18689L5.54626 12.465Z" fill="black"/>
</svg>
