<svg width="21" height="21" viewBox="0 0 21 21" fill="none" xmlns="http://www.w3.org/2000/svg">
<path d="M10.2451 20.6922C9.99512 20.6922 9.81543 20.5835 9.71387 20.3761L4.08887 4.29712H4.01074L4.07324 16.8403C4.08105 17.4082 4.1123 17.8428 4.16699 18.144C4.21777 18.4502 4.35449 18.7119 4.57324 18.9342C4.7998 19.1613 5.15527 19.27 5.63574 19.27H5.79199C5.95605 19.27 6.07715 19.3095 6.15137 19.3885C6.22168 19.4576 6.26855 19.6403 6.29199 19.9416C6.29199 20.1292 6.25293 20.2922 6.18262 20.4354C6.1084 20.5638 5.99512 20.6329 5.83887 20.6329L5.21387 20.5934C4.45215 20.5539 3.90527 20.5342 3.57324 20.5342C2.99902 20.5342 2.1709 20.5638 1.08887 20.6329C0.94043 20.6329 0.827148 20.5638 0.745117 20.4354C0.670898 20.2922 0.635742 20.1292 0.635742 19.9416C0.655273 19.6255 0.706054 19.4379 0.791992 19.3687C0.874023 19.3045 1.03027 19.27 1.26074 19.27C1.74902 19.27 2.10449 19.1613 2.32324 18.9342C2.5498 18.7119 2.69043 18.4502 2.74512 18.144C2.7959 17.8428 2.82715 17.4082 2.83887 16.8403L2.88574 4.29712C2.88574 3.64033 2.82715 3.1465 2.71387 2.81564C2.59668 2.48971 2.4248 2.25761 2.19824 2.12428C1.97949 1.99589 1.65137 1.87737 1.21387 1.76872C1.15137 1.74403 1.0498 1.71934 0.916992 1.68971C0.780273 1.65021 0.69043 1.58601 0.651367 1.49218C0.608398 1.40329 0.588867 1.25021 0.588867 1.03786C0.588867 0.790946 0.639648 0.623046 0.745117 0.544033C0.858398 0.455145 1.03027 0.405762 1.26074 0.405762C2.24902 0.405762 3.05762 0.484774 3.68262 0.642799C4.31543 0.800823 4.87402 1.12675 5.35449 1.6107C5.83105 2.08477 6.22949 2.79589 6.54199 3.74403L10.8389 15.9514H10.917L15.8389 0.58354H17.2607C18.1748 0.58354 19.1709 0.558848 20.2451 0.504527C20.3896 0.504527 20.499 0.573664 20.5732 0.702058C20.6553 0.835392 20.6982 0.998354 20.6982 1.19589C20.6748 1.51193 20.6201 1.70453 20.5264 1.76872C20.4326 1.82305 20.2803 1.84774 20.0732 1.84774C19.5811 1.84774 19.2178 1.96132 18.9795 2.18354C18.749 2.4107 18.6045 2.68724 18.542 3.01317C18.4873 3.34403 18.4561 3.77366 18.4482 4.29712V16.8403C18.4561 17.3687 18.4873 17.7984 18.542 18.1243C18.6045 18.4403 18.749 18.7119 18.9795 18.9342C19.2178 19.1613 19.5811 19.27 20.0732 19.27H20.2139C20.3701 19.27 20.4834 19.3095 20.5576 19.3885C20.6279 19.4576 20.6748 19.6403 20.6982 19.9416C20.6982 20.1292 20.6553 20.2922 20.5732 20.4354C20.499 20.5638 20.3896 20.6329 20.2451 20.6329C19.1709 20.5638 18.1709 20.5342 17.2451 20.5342C16.2764 20.5342 15.249 20.5638 14.167 20.6329C14.0186 20.6329 13.9053 20.5638 13.8232 20.4354C13.749 20.2922 13.7139 20.1292 13.7139 19.9416C13.7334 19.6255 13.7842 19.4379 13.8701 19.3687C13.9521 19.3045 14.1084 19.27 14.3389 19.27C14.8271 19.27 15.1865 19.1613 15.417 18.9342C15.6436 18.7119 15.792 18.4403 15.8545 18.1243C15.917 17.7984 15.9521 17.3687 15.9639 16.8403V4.29712H15.8857L10.7451 20.3761C10.6709 20.5835 10.5029 20.6922 10.2451 20.6922Z" fill="black"/>
</svg>
