<svg width="15" height="21" viewBox="0 0 15 21" fill="none" xmlns="http://www.w3.org/2000/svg">
<path d="M4.45801 20.2476C4.30957 20.2476 4.2002 20.1785 4.12988 20.0501C4.05566 19.9069 4.02051 19.7439 4.02051 19.5563C4.02832 19.2402 4.0752 19.0526 4.16113 18.9834C4.24316 18.9192 4.40332 18.8847 4.64551 18.8847C5.12207 18.8847 5.47754 18.776 5.70801 18.5489C5.94629 18.3266 6.09082 18.055 6.14551 17.739C6.20801 17.4131 6.24707 16.9834 6.27051 16.455V1.38343H4.53613C3.97363 1.39824 3.53613 1.55133 3.22363 1.83775C2.91895 2.11429 2.68457 2.53898 2.52051 3.10195C2.36426 3.65503 2.22754 4.45503 2.11426 5.49207C2.09082 5.65009 1.98926 5.78343 1.80176 5.88713C1.62207 5.99577 1.43457 6.04516 1.23926 6.04516C1.09082 6.04516 0.958008 5.99577 0.833008 5.88713C0.708008 5.76861 0.645508 5.61059 0.645508 5.41306L0.708008 0.968613C0.708008 0.455032 0.93457 0.198242 1.39551 0.198242H13.6143C14.0518 0.198242 14.2705 0.455032 14.2705 0.968613L14.3643 5.41306C14.3643 5.61059 14.2939 5.76861 14.1611 5.88713C14.0244 5.99577 13.8838 6.04516 13.7393 6.04516C13.54 6.04516 13.3525 5.99577 13.1768 5.88713C12.9971 5.78343 12.9033 5.65009 12.8955 5.49207C12.7588 4.44022 12.6143 3.63528 12.458 3.08219C12.3096 2.52911 12.0752 2.11429 11.7549 1.83775C11.4424 1.55133 11.0049 1.39824 10.4424 1.38343H8.73926V16.455C8.75879 16.9834 8.79395 17.4131 8.84863 17.739C8.91113 18.055 9.05567 18.3266 9.28613 18.5489C9.52442 18.776 9.88379 18.8847 10.3643 18.8847H10.5205C10.665 18.8847 10.7744 18.9242 10.8486 19.0032C10.9189 19.0723 10.9658 19.255 10.9893 19.5563C10.9893 19.7439 10.9502 19.9069 10.8799 20.0501C10.8057 20.1785 10.6924 20.2476 10.5361 20.2476C9.47363 20.1785 8.48926 20.1489 7.58301 20.1489C6.58301 20.1489 5.54004 20.1785 4.45801 20.2476Z" fill="black"/>
</svg>
