<svg width="12" height="21" viewBox="0 0 12 21" fill="none" xmlns="http://www.w3.org/2000/svg">
<path d="M0.483032 20.6328C0.346313 20.6328 0.240844 20.5637 0.170532 20.4353C0.0963132 20.2921 0.0611572 20.1291 0.0611572 19.9414C0.0689702 19.6254 0.115844 19.4377 0.201782 19.3686C0.283813 19.3044 0.44397 19.2698 0.686157 19.2698C1.16272 19.2698 1.51819 19.1612 1.74866 18.934C1.98694 18.7118 2.13147 18.4402 2.18616 18.1241C2.24866 17.7982 2.28772 17.3686 2.31116 16.8402V4.29699C2.28772 3.77353 2.24866 3.3439 2.18616 3.01304C2.13147 2.68711 1.98694 2.41057 1.74866 2.18341C1.51819 1.96119 1.16272 1.8476 0.686157 1.8476H0.529907C0.361938 1.8476 0.240844 1.81797 0.170532 1.74884C0.108032 1.66983 0.0689702 1.48711 0.0611572 1.19575C0.0611572 0.998222 0.0963132 0.835259 0.170532 0.701925C0.240844 0.573531 0.346313 0.504395 0.483032 0.504395C1.56506 0.558716 2.55334 0.583407 3.45178 0.583407H10.6862C11.1119 0.583407 11.3268 0.840197 11.3268 1.35378L11.4049 5.77847C11.4049 5.96612 11.3268 6.11427 11.1705 6.23279C11.0221 6.35131 10.8776 6.41057 10.733 6.41057C10.5338 6.41057 10.3502 6.36612 10.1862 6.2723C10.0299 6.16859 9.94397 6.02538 9.93616 5.83773C9.81897 4.81057 9.67834 4.03032 9.51428 3.48711C9.35803 2.94884 9.12366 2.54884 8.81116 2.28217C8.50647 2.02044 8.07678 1.87723 7.51428 1.8476H4.77991V10.0649H9.26428C9.38928 10.0945 9.48303 10.1785 9.54553 10.3217C9.61584 10.455 9.65491 10.613 9.65491 10.7958C9.65491 10.9686 9.61584 11.1217 9.54553 11.2501C9.48303 11.3686 9.38928 11.4279 9.26428 11.4279H4.77991V16.8402C4.79944 17.3686 4.83459 17.7982 4.88928 18.1241C4.95178 18.4402 5.09631 18.7118 5.32678 18.934C5.56506 19.1612 5.92444 19.2698 6.40491 19.2698H6.56116C6.70569 19.2698 6.81506 19.3093 6.88928 19.3883C6.97131 19.4575 7.01819 19.6402 7.02991 19.9414C7.02991 20.1291 6.99084 20.2921 6.92053 20.4353C6.84631 20.5637 6.73303 20.6328 6.57678 20.6328C5.51428 20.5637 4.48303 20.534 3.48303 20.534C2.56506 20.534 1.56506 20.5637 0.483032 20.6328Z" fill="black"/>
</svg>
