<svg width="14" height="21" viewBox="0 0 14 21" fill="none" xmlns="http://www.w3.org/2000/svg">
<path d="M1.2196 20.2475C1.08289 20.2475 0.977417 20.1784 0.907105 20.05C0.832885 19.9068 0.797729 19.7438 0.797729 19.5562C0.805542 19.2401 0.852417 19.0525 0.938355 18.9833C1.02039 18.9191 1.18054 18.8846 1.42273 18.8846C1.89929 18.8846 2.25476 18.7759 2.48523 18.5488C2.72351 18.3266 2.86804 18.0549 2.92273 17.7389C2.98523 17.413 3.02429 16.9833 3.04773 16.4549V3.91173C3.02429 3.38828 2.98523 2.95865 2.92273 2.62778C2.86804 2.30186 2.72351 2.02531 2.48523 1.79815C2.25476 1.57593 1.89929 1.46235 1.42273 1.46235H1.26648C1.09851 1.46235 0.977417 1.43272 0.907105 1.36359C0.844604 1.28457 0.805542 1.10186 0.797729 0.810499C0.797729 0.612968 0.832885 0.450005 0.907105 0.316672C0.977417 0.188277 1.08289 0.119141 1.2196 0.119141C2.32117 0.173462 3.31335 0.198153 4.18835 0.198153H12.0477C12.4735 0.198153 12.6884 0.454943 12.6884 0.968523L12.7665 5.39322C12.7665 5.58087 12.6884 5.72902 12.5321 5.84754C12.3837 5.96605 12.2391 6.02531 12.0946 6.02531C11.8954 6.02531 11.7196 5.98087 11.5634 5.88704C11.4149 5.78334 11.3329 5.64013 11.3134 5.45247C11.1884 4.42531 11.0399 3.64507 10.8759 3.10186C10.7196 2.56359 10.4852 2.16359 10.1727 1.89692C9.86804 1.63519 9.43836 1.49198 8.87586 1.46235H5.51648V9.50186H10.0477C10.161 9.51667 10.2509 9.59569 10.3134 9.7389C10.3837 9.87223 10.4227 10.0352 10.4227 10.2327C10.4227 10.3907 10.3837 10.5389 10.3134 10.6673C10.2509 10.8006 10.161 10.8648 10.0477 10.8648H5.51648V16.8303C5.54773 17.2796 5.58679 17.6352 5.64148 17.8969C5.69226 18.1636 5.8446 18.4006 6.0946 18.608C6.3446 18.8204 6.73523 18.9142 7.26648 18.8846H9.56336C10.1454 18.8599 10.5868 18.7414 10.8915 18.529C11.1923 18.3068 11.4305 17.9661 11.6102 17.5019C11.786 17.0278 12.0009 16.2673 12.2509 15.2105C12.3641 14.8451 12.6454 14.6969 13.0946 14.7759C13.2587 14.8154 13.4071 14.9043 13.5321 15.0327C13.6571 15.1512 13.7079 15.3093 13.6884 15.5068L13.1884 19.4772C13.1454 19.7537 13.0712 19.9414 12.9696 20.0303C12.8641 20.1093 12.6962 20.1488 12.4696 20.1488H4.2196C3.32117 20.1488 2.32117 20.1784 1.2196 20.2475Z" fill="black"/>
</svg>
