<svg width="18" height="22" viewBox="0 0 18 22" fill="none" xmlns="http://www.w3.org/2000/svg">
<path d="M1.36658 21.0177C1.21033 21.0177 1.09705 20.9486 1.02283 20.8202C0.952515 20.6769 0.913452 20.514 0.913452 20.3263C0.925171 20.0103 0.972046 19.8226 1.05408 19.7535C1.14001 19.6893 1.23376 19.6547 1.35095 19.6547C1.47595 19.6547 1.55408 19.6547 1.58533 19.6547C2.08533 19.6547 2.44861 19.4918 2.67908 19.1609C2.91736 18.835 3.10486 18.4646 3.24158 18.0547C3.38611 17.6498 3.48377 17.3732 3.53845 17.2251L7.91345 4.1288C8.0072 3.81275 8.05408 3.56584 8.05408 3.37818C8.05408 2.99794 7.93689 2.72633 7.71033 2.56831C7.47986 2.4004 7.15564 2.26213 6.74158 2.15349C6.44861 2.08929 6.27283 2.0251 6.21033 1.95596C6.14783 1.89176 6.11658 1.71398 6.11658 1.42263C6.11658 1.17571 6.16736 1.00781 6.27283 0.928799C6.37439 0.839911 6.54627 0.790527 6.78845 0.790527C7.62048 0.790527 8.28064 0.86954 8.77283 1.02756C9.26111 1.18559 9.68689 1.50164 10.0541 1.97571C10.4291 2.44979 10.7728 3.17077 11.0853 4.1288L15.2885 17.2251C15.5385 18.03 15.7767 18.6276 16.0072 19.0226C16.2455 19.4177 16.5931 19.63 17.0541 19.6547H17.2103C17.3744 19.6547 17.4916 19.6942 17.5541 19.7732C17.6244 19.8424 17.6674 20.0251 17.6791 20.3263C17.6791 20.514 17.64 20.6769 17.5697 20.8202C17.4955 20.9486 17.3861 21.0177 17.2416 21.0177C16.1674 20.9486 15.2494 20.9189 14.4916 20.9189C13.4916 20.9189 12.4525 20.9486 11.3822 21.0177C11.2338 21.0177 11.1205 20.9486 11.0385 20.8202C10.9642 20.6769 10.9291 20.514 10.9291 20.3263C10.9486 20.0251 10.9916 19.8424 11.0541 19.7732C11.1244 19.6942 11.2455 19.6547 11.4135 19.6547C11.976 19.6547 12.3705 19.5905 12.601 19.4572C12.8392 19.314 12.9603 19.0621 12.9603 18.7066C12.9603 18.43 12.8588 17.9362 12.6635 17.2251L11.8041 14.5979H5.6322C5.21423 15.9016 4.97595 16.6621 4.91345 16.8695C4.85877 17.0819 4.83533 17.2004 4.83533 17.2251C4.63611 18.03 4.53845 18.5436 4.53845 18.7658C4.53845 19.1214 4.66345 19.3584 4.91345 19.4769C5.16345 19.5955 5.63611 19.6547 6.33533 19.6547H6.49158C6.65564 19.6547 6.77283 19.6942 6.83533 19.7732C6.89783 19.8424 6.93689 20.0251 6.96033 20.3263C6.96033 20.514 6.92127 20.6769 6.85095 20.8202C6.77673 20.9486 6.66345 21.0177 6.5072 21.0177C5.4447 20.9486 4.53845 20.9189 3.78845 20.9189C3.2572 20.9189 2.44861 20.9486 1.36658 21.0177ZM6.11658 13.235H11.3666L8.83533 5.11645H8.7572L6.11658 13.235Z" fill="black"/>
</svg>
