<svg width="18" height="22" viewBox="0 0 18 22" fill="none" xmlns="http://www.w3.org/2000/svg">
<path d="M8.67285 21.1661C7.3916 21.1661 6.29785 20.8797 5.3916 20.3167C4.48535 19.7538 3.79785 19.0081 3.3291 18.0846C2.86035 17.1513 2.62598 16.1439 2.62598 15.0624V4.29699C2.61426 3.77353 2.5791 3.3439 2.5166 3.01304C2.4541 2.68711 2.30566 2.41057 2.0791 2.18341C1.84863 1.96119 1.48926 1.8476 1.00098 1.8476H0.860352C0.692383 1.8476 0.57129 1.81797 0.500977 1.74884C0.438477 1.66983 0.395508 1.48711 0.375977 1.19575C0.375977 0.998222 0.411133 0.835259 0.485352 0.701925C0.567383 0.573531 0.680664 0.504395 0.829102 0.504395C1.8916 0.558716 2.87598 0.583407 3.78223 0.583407C4.79004 0.583407 5.83301 0.558716 6.90723 0.504395C7.05176 0.504395 7.16113 0.573531 7.23535 0.701925C7.31738 0.835259 7.36035 0.998222 7.36035 1.19575C7.33691 1.48711 7.29004 1.66983 7.21973 1.74884C7.14551 1.81797 7.02441 1.8476 6.86035 1.8476C6.31738 1.8476 5.92285 1.95625 5.67285 2.16365C5.42285 2.376 5.2666 2.63773 5.2041 2.95378C5.14941 3.26983 5.11816 3.71921 5.11035 4.29699V14.1538C5.11035 15.6056 5.37988 16.8303 5.92285 17.8279C6.46191 18.8155 7.5166 19.3093 9.0791 19.3093C10.6104 19.3093 11.6924 18.8649 12.3291 17.9661C12.9736 17.0723 13.2979 15.9464 13.2979 14.5883V6.2723C13.2979 4.85007 13.2549 3.84267 13.1729 3.25007C13.0869 2.65748 12.9229 2.27723 12.6729 2.10439C12.4229 1.93649 11.9893 1.8476 11.376 1.8476H11.2354C11.0791 1.8476 10.9619 1.81797 10.8916 1.74884C10.8174 1.66983 10.7705 1.48711 10.751 1.19575C10.751 0.998222 10.7861 0.835259 10.8604 0.701925C10.9424 0.573531 11.0557 0.504395 11.2041 0.504395C12.2861 0.558716 13.2197 0.583407 14.001 0.583407C14.8018 0.583407 15.7354 0.558716 16.7979 0.504395C16.9541 0.504395 17.0674 0.573531 17.1416 0.701925C17.2119 0.835259 17.251 0.998222 17.251 1.19575C17.2393 1.48711 17.1924 1.66983 17.1104 1.74884C17.0361 1.81797 16.915 1.8476 16.751 1.8476C16.083 1.8476 15.6182 1.92662 15.3604 2.08464C15.1104 2.23279 14.9385 2.58835 14.8447 3.15131C14.751 3.70439 14.7041 4.68711 14.7041 6.09452V14.9044C14.7041 16.3167 14.3955 17.4921 13.7822 18.4402C13.165 19.3785 12.3955 20.0698 11.4697 20.5143C10.54 20.9488 9.61035 21.1661 8.67285 21.1661Z" fill="black"/>
</svg>
