<svg width="14" height="22" viewBox="0 0 14 22" fill="none" xmlns="http://www.w3.org/2000/svg">
<path d="M1.35986 21.018C1.22314 21.018 1.11768 20.9489 1.04736 20.8205C0.973144 20.6773 0.937988 20.5143 0.937988 20.3267C0.945801 20.0106 0.992675 19.823 1.07861 19.7538C1.16064 19.6897 1.3208 19.6551 1.56299 19.6551C2.03955 19.6551 2.39502 19.5464 2.62549 19.3193C2.86377 19.0971 3.0083 18.8255 3.06299 18.5094C3.12549 18.1835 3.16455 17.7538 3.18799 17.2255V4.68224C3.16455 4.15879 3.12549 3.72916 3.06299 3.39829C3.0083 3.07236 2.86377 2.79582 2.62549 2.56866C2.39502 2.34644 2.03955 2.23286 1.56299 2.23286H1.40674C1.23877 2.23286 1.11768 2.20323 1.04736 2.13409C0.984863 2.05508 0.945801 1.87236 0.937988 1.58101C0.937988 1.38348 0.973144 1.22051 1.04736 1.08718C1.11768 0.958785 1.22314 0.889648 1.35986 0.889648C2.46143 0.94397 3.45361 0.968661 4.32861 0.968661H12.188C12.6138 0.968661 12.8286 1.22545 12.8286 1.73903L12.9067 6.16372C12.9067 6.35138 12.8286 6.49953 12.6724 6.61804C12.5239 6.73656 12.3794 6.79582 12.2349 6.79582C12.0356 6.79582 11.8599 6.75138 11.7036 6.65755C11.5552 6.55385 11.4731 6.41064 11.4536 6.22298C11.3286 5.19582 11.1802 4.41557 11.0161 3.87236C10.8599 3.33409 10.6255 2.93409 10.313 2.66743C10.0083 2.4057 9.57861 2.26249 9.01611 2.23286H5.65674V10.2724H10.188C10.3013 10.2872 10.3911 10.3662 10.4536 10.5094C10.5239 10.6427 10.563 10.8057 10.563 11.0032C10.563 11.1613 10.5239 11.3094 10.4536 11.4378C10.3911 11.5711 10.3013 11.6353 10.188 11.6353H5.65674V17.6008C5.68799 18.0501 5.72705 18.4057 5.78174 18.6674C5.83252 18.9341 5.98486 19.1711 6.23486 19.3785C6.48486 19.5909 6.87549 19.6847 7.40674 19.6551H9.70361C10.2856 19.6304 10.7271 19.5119 11.0317 19.2995C11.3325 19.0773 11.5708 18.7366 11.7505 18.2724C11.9263 17.7983 12.1411 17.0378 12.3911 15.981C12.5044 15.6156 12.7856 15.4674 13.2349 15.5464C13.3989 15.5859 13.5474 15.6748 13.6724 15.8032C13.7974 15.9217 13.8481 16.0798 13.8286 16.2773L13.3286 20.2477C13.2856 20.5242 13.2114 20.7119 13.1099 20.8008C13.0044 20.8798 12.8364 20.9193 12.6099 20.9193H4.35986C3.46143 20.9193 2.46143 20.9489 1.35986 21.018Z" fill="black"/>
</svg>
