<svg width="17" height="22" viewBox="0 0 17 22" fill="none" xmlns="http://www.w3.org/2000/svg">
<path d="M0.617188 21.0177C0.460938 21.0177 0.347657 20.9486 0.273438 20.8202C0.203125 20.6769 0.164062 20.514 0.164062 20.3263C0.175781 20.0103 0.222657 19.8226 0.304688 19.7535C0.390625 19.6893 0.484375 19.6547 0.601562 19.6547C0.726562 19.6547 0.804688 19.6547 0.835938 19.6547C1.33594 19.6547 1.69922 19.4918 1.92969 19.1609C2.16797 18.835 2.35547 18.4646 2.49219 18.0547C2.63672 17.6498 2.73438 17.3732 2.78906 17.2251L7.16406 4.1288C7.25781 3.81275 7.30469 3.56584 7.30469 3.37818C7.30469 2.99794 7.1875 2.72633 6.96094 2.56831C6.73047 2.4004 6.40625 2.26213 5.99219 2.15349C5.69922 2.08929 5.52344 2.0251 5.46094 1.95596C5.39844 1.89176 5.36719 1.71398 5.36719 1.42263C5.36719 1.17571 5.41797 1.00781 5.52344 0.928799C5.625 0.839911 5.79688 0.790527 6.03906 0.790527C6.87109 0.790527 7.53125 0.86954 8.02344 1.02756C8.51172 1.18559 8.9375 1.50164 9.30469 1.97571C9.67969 2.44979 10.0234 3.17077 10.3359 4.1288L14.5391 17.2251C14.7891 18.03 15.0273 18.6276 15.2578 19.0226C15.4961 19.4177 15.8437 19.63 16.3047 19.6547H16.4609C16.625 19.6547 16.7422 19.6942 16.8047 19.7732C16.875 19.8424 16.918 20.0251 16.9297 20.3263C16.9297 20.514 16.8906 20.6769 16.8203 20.8202C16.7461 20.9486 16.6367 21.0177 16.4922 21.0177C15.418 20.9486 14.5 20.9189 13.7422 20.9189C12.7422 20.9189 11.7031 20.9486 10.6328 21.0177C10.4844 21.0177 10.3711 20.9486 10.2891 20.8202C10.2148 20.6769 10.1797 20.514 10.1797 20.3263C10.1992 20.0251 10.2422 19.8424 10.3047 19.7732C10.375 19.6942 10.4961 19.6547 10.6641 19.6547C11.2266 19.6547 11.6211 19.5905 11.8516 19.4572C12.0898 19.314 12.2109 19.0621 12.2109 18.7066C12.2109 18.43 12.1094 17.9362 11.9141 17.2251L11.0547 14.5979H4.88281C4.46484 15.9016 4.22656 16.6621 4.16406 16.8695C4.10938 17.0819 4.08594 17.2004 4.08594 17.2251C3.88672 18.03 3.78906 18.5436 3.78906 18.7658C3.78906 19.1214 3.91406 19.3584 4.16406 19.4769C4.41406 19.5955 4.88672 19.6547 5.58594 19.6547H5.74219C5.90625 19.6547 6.02344 19.6942 6.08594 19.7732C6.14844 19.8424 6.1875 20.0251 6.21094 20.3263C6.21094 20.514 6.17188 20.6769 6.10156 20.8202C6.02734 20.9486 5.91406 21.0177 5.75781 21.0177C4.69531 20.9486 3.78906 20.9189 3.03906 20.9189C2.50781 20.9189 1.69922 20.9486 0.617188 21.0177ZM5.36719 13.235H10.6172L8.08594 5.11645H8.00781L5.36719 13.235Z" fill="black"/>
</svg>
