<svg width="8" height="21" viewBox="0 0 8 21" fill="none" xmlns="http://www.w3.org/2000/svg">
<path d="M0.647583 20.4028C0.499145 20.4028 0.385864 20.3337 0.303833 20.2053C0.229614 20.0621 0.194458 19.8991 0.194458 19.7115C0.213989 19.3954 0.264771 19.2078 0.350708 19.1386C0.444458 19.0744 0.600708 19.0398 0.819458 19.0398C1.30774 19.0398 1.66711 18.9312 1.89758 18.704C2.12415 18.4818 2.27258 18.2102 2.33508 17.8942C2.4054 17.5781 2.45227 17.1534 2.47571 16.6102V4.06701C2.45227 3.51392 2.4054 3.07935 2.33508 2.7633C2.27258 2.44725 2.12415 2.18059 1.89758 1.95343C1.66711 1.7312 1.30774 1.61762 0.819458 1.61762H0.678833C0.522583 1.61762 0.405395 1.58799 0.335083 1.51886C0.260864 1.43985 0.213989 1.25713 0.194458 0.965772C0.194458 0.768241 0.229614 0.605279 0.303833 0.471945C0.385864 0.343551 0.499145 0.274414 0.647583 0.274414C1.72961 0.328735 2.7179 0.353426 3.61633 0.353426C4.61633 0.353426 5.6554 0.328735 6.74133 0.274414C6.89758 0.274414 7.01086 0.343551 7.08508 0.471945C7.1554 0.605279 7.19446 0.768241 7.19446 0.965772C7.18274 1.28182 7.13196 1.47441 7.03821 1.53861C6.94446 1.59293 6.7804 1.61762 6.55383 1.61762C6.06165 1.61762 5.69836 1.7312 5.46008 1.95343C5.22961 2.18059 5.08508 2.45713 5.02258 2.78306C4.9679 3.11392 4.93665 3.54355 4.92883 4.06701V16.6102C4.93665 17.1386 4.9679 17.5682 5.02258 17.8942C5.08508 18.2102 5.22961 18.4818 5.46008 18.704C5.69836 18.9312 6.06165 19.0398 6.55383 19.0398H6.69446C6.85852 19.0398 6.97961 19.0794 7.05383 19.1584C7.13586 19.2275 7.18274 19.4102 7.19446 19.7115C7.19446 19.8991 7.1554 20.0621 7.08508 20.2053C7.01086 20.3337 6.89758 20.4028 6.74133 20.4028C5.67883 20.3337 4.64758 20.304 3.64758 20.304C2.72961 20.304 1.72961 20.3337 0.647583 20.4028Z" fill="black"/>
</svg>
