<svg width="15" height="21" viewBox="0 0 15 21" fill="none" xmlns="http://www.w3.org/2000/svg">
<path d="M4.76514 20.6329C4.6167 20.6329 4.50733 20.5637 4.43701 20.4353C4.36279 20.2921 4.32764 20.1292 4.32764 19.9415C4.33545 19.6255 4.38233 19.4378 4.46826 19.3687C4.55029 19.3045 4.71045 19.2699 4.95264 19.2699C5.4292 19.2699 5.78467 19.1613 6.01514 18.9341C6.25342 18.7119 6.39795 18.4403 6.45264 18.1242C6.51514 17.7983 6.5542 17.3687 6.57764 16.8403V1.76868H4.84326C4.28076 1.7835 3.84326 1.93658 3.53076 2.223C3.22607 2.49955 2.9917 2.92424 2.82764 3.4872C2.67139 4.04029 2.53467 4.84029 2.42139 5.87732C2.39795 6.03535 2.29639 6.16868 2.10889 6.27239C1.9292 6.38103 1.7417 6.43041 1.54639 6.43041C1.39795 6.43041 1.26514 6.38103 1.14014 6.27239C1.01514 6.15387 0.952637 5.99584 0.952637 5.79831L1.01514 1.35387C1.01514 0.840286 1.2417 0.583496 1.70264 0.583496H13.9214C14.3589 0.583496 14.5776 0.840286 14.5776 1.35387L14.6714 5.79831C14.6714 5.99584 14.6011 6.15387 14.4683 6.27239C14.3315 6.38103 14.1909 6.43041 14.0464 6.43041C13.8472 6.43041 13.6597 6.38103 13.4839 6.27239C13.3042 6.16868 13.2105 6.03535 13.2026 5.87732C13.0659 4.82547 12.9214 4.02053 12.7651 3.46745C12.6167 2.91436 12.3823 2.49955 12.062 2.223C11.7495 1.93658 11.312 1.7835 10.7495 1.76868H9.04639V16.8403C9.06592 17.3687 9.10108 17.7983 9.15576 18.1242C9.21826 18.4403 9.36279 18.7119 9.59326 18.9341C9.83154 19.1613 10.1909 19.2699 10.6714 19.2699H10.8276C10.9722 19.2699 11.0815 19.3094 11.1558 19.3884C11.2261 19.4576 11.273 19.6403 11.2964 19.9415C11.2964 20.1292 11.2573 20.2921 11.187 20.4353C11.1128 20.5637 10.9995 20.6329 10.8433 20.6329C9.78076 20.5637 8.79639 20.5341 7.89014 20.5341C6.89014 20.5341 5.84717 20.5637 4.76514 20.6329Z" fill="black"/>
</svg>
