<svg width="17" height="23" viewBox="0 0 17 23" fill="none" xmlns="http://www.w3.org/2000/svg">
<path d="M8.02271 22.166C6.43677 22.166 5.04224 21.682 3.83521 20.724C2.62427 19.766 1.68677 18.4919 1.02271 16.9117C0.366455 15.3314 0.0383301 13.6425 0.0383301 11.8351C0.0383301 9.62278 0.432861 7.69685 1.22583 6.04747C2.01489 4.40302 3.02661 3.14376 4.25708 2.27463C5.49536 1.39562 6.74927 0.951172 8.02271 0.951172C9.61646 0.951172 11.0227 1.43512 12.2415 2.39315C13.468 3.35611 14.4133 4.62031 15.0696 6.18574C15.7336 7.75611 16.0696 9.445 16.0696 11.2623C16.0696 13.4746 15.6672 15.4104 14.8665 17.0697C14.0618 18.7191 13.0383 19.9833 11.7883 20.8623C10.5383 21.7314 9.28052 22.166 8.02271 22.166ZM7.99146 20.7833C9.12427 20.7833 10.0696 20.3586 10.8196 19.4993C11.5774 18.645 12.1477 17.4993 12.5227 16.0623C12.8977 14.6154 13.0852 13.0154 13.0852 11.2623C13.0852 9.64253 12.8899 8.15611 12.5071 6.79809C12.1321 5.43018 11.5579 4.34377 10.7883 3.53883C10.0266 2.72401 9.09302 2.31413 7.99146 2.31413C6.32349 2.31413 5.06958 3.2129 4.22583 5.00055C3.38208 6.77833 2.96021 9.02525 2.96021 11.7364C2.96021 13.3857 3.14771 14.8919 3.52271 16.2598C3.89771 17.6327 4.46021 18.729 5.21021 19.5586C5.96021 20.3783 6.88599 20.7833 7.99146 20.7833Z" fill="black"/>
</svg>
