<svg width="18" height="21" viewBox="0 0 18 21" fill="none" xmlns="http://www.w3.org/2000/svg">
<path d="M1.12231 20.6329C0.973877 20.6329 0.860595 20.5638 0.778564 20.4354C0.704345 20.2922 0.669189 20.1292 0.669189 19.9416C0.68872 19.6255 0.739501 19.4379 0.825439 19.3687C0.90747 19.3045 1.06372 19.27 1.29419 19.27C1.78247 19.27 2.13794 19.1613 2.35669 18.9342C2.58325 18.7119 2.72388 18.4502 2.77856 18.144C2.82935 17.8428 2.8606 17.4082 2.87231 16.8403L2.91919 4.29712C2.91919 3.66502 2.8645 3.18601 2.76294 2.85514C2.65747 2.52922 2.4856 2.29218 2.24731 2.14403C2.01685 2.00082 1.68481 1.87737 1.24731 1.76872C0.966064 1.70453 0.786377 1.64033 0.716064 1.57119C0.653564 1.507 0.622314 1.32922 0.622314 1.03786C0.622314 0.790946 0.673095 0.623046 0.778564 0.544033C0.891845 0.455145 1.06372 0.405762 1.29419 0.405762C2.33325 0.405762 3.15356 0.499589 3.74731 0.682305C4.34888 0.855145 4.88013 1.17119 5.34106 1.63045C5.7981 2.09465 6.302 2.79589 6.85669 3.74403L13.7004 15.1218H13.7786L13.7317 4.29712C13.7083 3.71934 13.6731 3.27984 13.6223 2.97366C13.5676 2.67243 13.427 2.4107 13.2004 2.18354C12.9817 1.96132 12.6301 1.84774 12.1536 1.84774H11.9973C11.8293 1.84774 11.7083 1.81811 11.6379 1.74897C11.5637 1.66996 11.5168 1.48724 11.4973 1.19589C11.4973 0.998354 11.5364 0.835392 11.6223 0.702058C11.7043 0.573664 11.8137 0.504527 11.9504 0.504527C13.0129 0.558848 13.8137 0.58354 14.3567 0.58354C14.6692 0.58354 15.2708 0.563786 16.1692 0.52428L16.7004 0.504527C16.845 0.504527 16.9543 0.573664 17.0286 0.702058C17.1106 0.835392 17.1536 0.998354 17.1536 1.19589C17.1301 1.51193 17.0793 1.70453 16.9973 1.76872C16.9114 1.82305 16.7551 1.84774 16.5286 1.84774C16.0364 1.84774 15.677 1.96132 15.4504 2.18354C15.2317 2.4107 15.095 2.67243 15.0442 2.97366C15.0012 3.27984 14.97 3.71934 14.9504 4.29712L14.9036 20.2181C14.8801 20.4947 14.6731 20.6329 14.2786 20.6329C13.9543 20.6329 13.7083 20.4947 13.5442 20.2181L4.12231 4.29712H4.04419L4.10669 16.8403C4.1145 17.4082 4.14575 17.8428 4.20044 18.144C4.25122 18.4502 4.38794 18.7119 4.60669 18.9342C4.83325 19.1613 5.18872 19.27 5.66919 19.27H5.82544C5.9895 19.27 6.1106 19.3095 6.18481 19.3885C6.25513 19.4576 6.302 19.6403 6.32544 19.9416C6.32544 20.1292 6.28638 20.2922 6.21606 20.4354C6.14185 20.5638 6.02856 20.6329 5.87231 20.6329C4.80981 20.5638 4.00122 20.5342 3.45044 20.5342C3.1145 20.5342 2.53247 20.5539 1.70044 20.5934L1.12231 20.6329Z" fill="black"/>
</svg>
