<svg width="14" height="21" viewBox="0 0 14 21" fill="none" xmlns="http://www.w3.org/2000/svg">
<path d="M1.20117 20.6328C1.06445 20.6328 0.958984 20.5637 0.888672 20.4353C0.814453 20.2921 0.779297 20.1291 0.779297 19.9414C0.78711 19.6254 0.833984 19.4377 0.919922 19.3686C1.00195 19.3044 1.16211 19.2698 1.4043 19.2698C1.88086 19.2698 2.23633 19.1612 2.4668 18.934C2.70508 18.7118 2.84961 18.4402 2.9043 18.1241C2.9668 17.7982 3.00586 17.3686 3.0293 16.8402V4.29699C3.00586 3.77353 2.9668 3.3439 2.9043 3.01304C2.84961 2.68711 2.70508 2.41057 2.4668 2.18341C2.23633 1.96119 1.88086 1.8476 1.4043 1.8476H1.24805C1.08008 1.8476 0.958984 1.81797 0.888672 1.74884C0.826172 1.66983 0.78711 1.48711 0.779297 1.19575C0.779297 0.998222 0.814453 0.835259 0.888672 0.701925C0.958984 0.573531 1.06445 0.504395 1.20117 0.504395C2.30273 0.558716 3.29492 0.583407 4.16992 0.583407C5.16992 0.583407 6.20898 0.558716 7.29492 0.504395C7.45117 0.504395 7.56445 0.573531 7.63867 0.701925C7.70898 0.835259 7.74805 0.998222 7.74805 1.19575C7.73633 1.5118 7.68555 1.7044 7.5918 1.76859C7.49805 1.82291 7.3418 1.8476 7.12305 1.8476C6.64258 1.8476 6.2832 1.96119 6.04492 2.18341C5.81445 2.41057 5.66992 2.68711 5.60742 3.01304C5.55273 3.3439 5.51758 3.77353 5.49805 4.29699V17.3143C5.5293 17.7488 5.56836 18.0945 5.62305 18.3414C5.67383 18.5785 5.82617 18.8056 6.07617 19.013C6.32617 19.2106 6.7168 19.2995 7.24805 19.2698H9.49805C10.0801 19.2451 10.5215 19.1266 10.8262 18.9143C11.127 18.6921 11.3613 18.3513 11.5293 17.8871C11.7051 17.413 11.9199 16.6525 12.1699 15.5958C12.2949 15.2303 12.5801 15.0822 13.0293 15.1612C13.1738 15.2007 13.3145 15.2896 13.4512 15.418C13.584 15.5365 13.6426 15.6945 13.623 15.8921L13.123 19.8624C13.0684 20.139 12.9902 20.3266 12.8887 20.4155C12.7949 20.4945 12.6309 20.534 12.4043 20.534H4.20117C3.30273 20.534 2.30273 20.5637 1.20117 20.6328Z" fill="black"/>
</svg>
