<svg width="10" height="12" viewBox="0 0 10 12" fill="none" xmlns="http://www.w3.org/2000/svg">
<path d="M5.80005 0.078125C6.8313 0.078125 7.65942 0.507755 8.28442 1.36208C8.90942 2.22134 9.22192 3.39171 9.22192 4.87812V11.4361H6.50317V5.33245C6.50317 4.58183 6.34692 4.00405 6.03442 3.59417C5.72974 3.17442 5.31958 2.96208 4.80005 2.96208C4.28833 2.96208 3.87817 3.17442 3.56567 3.59417C3.25317 4.00405 3.09692 4.58183 3.09692 5.33245V11.4361H0.378174V0.196644H3.09692V1.69788C3.37817 1.19911 3.75317 0.804051 4.22192 0.512693C4.69067 0.226272 5.21411 0.078125 5.80005 0.078125Z" fill="white"/>
</svg>
