<svg width="14" height="22" viewBox="0 0 14 22" fill="none" xmlns="http://www.w3.org/2000/svg">
<path d="M1.03784 21.018C0.901123 21.018 0.795654 20.9489 0.725342 20.8205C0.651123 20.6773 0.615967 20.5143 0.615967 20.3267C0.62378 20.0106 0.670654 19.823 0.756592 19.7538C0.838623 19.6897 0.99878 19.6551 1.24097 19.6551C1.71753 19.6551 2.073 19.5464 2.30347 19.3193C2.54175 19.0971 2.68628 18.8255 2.74097 18.5094C2.80347 18.1835 2.84253 17.7538 2.86597 17.2255V4.68224C2.84253 4.15879 2.80347 3.72916 2.74097 3.39829C2.68628 3.07236 2.54175 2.79582 2.30347 2.56866C2.073 2.34644 1.71753 2.23286 1.24097 2.23286H1.08472C0.916748 2.23286 0.795654 2.20323 0.725342 2.13409C0.662842 2.05508 0.62378 1.87236 0.615967 1.58101C0.615967 1.38348 0.651123 1.22051 0.725342 1.08718C0.795654 0.958785 0.901123 0.889648 1.03784 0.889648C2.1394 0.94397 3.13159 0.968661 4.00659 0.968661H11.866C12.2917 0.968661 12.5066 1.22545 12.5066 1.73903L12.5847 6.16372C12.5847 6.35138 12.5066 6.49953 12.3503 6.61804C12.2019 6.73656 12.0574 6.79582 11.9128 6.79582C11.7136 6.79582 11.5378 6.75138 11.3816 6.65755C11.2332 6.55385 11.1511 6.41064 11.1316 6.22298C11.0066 5.19582 10.8582 4.41557 10.6941 3.87236C10.5378 3.33409 10.3035 2.93409 9.99097 2.66743C9.68628 2.4057 9.25659 2.26249 8.69409 2.23286H5.33472V10.2724H9.86597C9.97925 10.2872 10.0691 10.3662 10.1316 10.5094C10.2019 10.6427 10.241 10.8057 10.241 11.0032C10.241 11.1613 10.2019 11.3094 10.1316 11.4378C10.0691 11.5711 9.97925 11.6353 9.86597 11.6353H5.33472V17.6008C5.36597 18.0501 5.40503 18.4057 5.45972 18.6674C5.5105 18.9341 5.66284 19.1711 5.91284 19.3785C6.16284 19.5909 6.55347 19.6847 7.08472 19.6551H9.38159C9.96362 19.6304 10.405 19.5119 10.7097 19.2995C11.0105 19.0773 11.2488 18.7366 11.4285 18.2724C11.6042 17.7983 11.8191 17.0378 12.0691 15.981C12.1824 15.6156 12.4636 15.4674 12.9128 15.5464C13.0769 15.5859 13.2253 15.6748 13.3503 15.8032C13.4753 15.9217 13.5261 16.0798 13.5066 16.2773L13.0066 20.2477C12.9636 20.5242 12.8894 20.7119 12.7878 20.8008C12.6824 20.8798 12.5144 20.9193 12.2878 20.9193H4.03784C3.1394 20.9193 2.1394 20.9489 1.03784 21.018Z" fill="black"/>
</svg>
