<svg width="18" height="21" viewBox="0 0 18 21" fill="none" xmlns="http://www.w3.org/2000/svg">
<path d="M1.13025 20.6329C0.973999 20.6329 0.860718 20.5638 0.786499 20.4354C0.716187 20.2922 0.677124 20.1292 0.677124 19.9416C0.688843 19.6255 0.735718 19.4379 0.817749 19.3687C0.903687 19.3045 0.997437 19.27 1.11462 19.27C1.23962 19.27 1.31775 19.27 1.349 19.27C1.849 19.27 2.21228 19.107 2.44275 18.7761C2.68103 18.4502 2.86853 18.0798 3.00525 17.67C3.14978 17.265 3.24744 16.9885 3.30212 16.8403L7.67712 3.74403C7.77087 3.42798 7.81775 3.18107 7.81775 2.99342C7.81775 2.61317 7.70056 2.34156 7.474 2.18354C7.24353 2.01564 6.91931 1.87737 6.50525 1.76872C6.21228 1.70453 6.0365 1.64033 5.974 1.57119C5.9115 1.507 5.88025 1.32922 5.88025 1.03786C5.88025 0.790946 5.93103 0.623046 6.0365 0.544033C6.13806 0.455145 6.30994 0.405762 6.55212 0.405762C7.38416 0.405762 8.04431 0.484774 8.5365 0.642799C9.02478 0.800823 9.45056 1.11687 9.81775 1.59095C10.1927 2.06502 10.5365 2.78601 10.849 3.74403L15.0521 16.8403C15.3021 17.6453 15.5404 18.2428 15.7709 18.6379C16.0092 19.0329 16.3568 19.2453 16.8177 19.27H16.974C17.1381 19.27 17.2552 19.3095 17.3177 19.3885C17.3881 19.4576 17.431 19.6403 17.4427 19.9416C17.4427 20.1292 17.4037 20.2922 17.3334 20.4354C17.2592 20.5638 17.1498 20.6329 17.0052 20.6329C15.931 20.5638 15.0131 20.5342 14.2552 20.5342C13.2552 20.5342 12.2162 20.5638 11.1459 20.6329C10.9974 20.6329 10.8842 20.5638 10.8021 20.4354C10.7279 20.2922 10.6927 20.1292 10.6927 19.9416C10.7123 19.6403 10.7552 19.4576 10.8177 19.3885C10.8881 19.3095 11.0092 19.27 11.1771 19.27C11.7396 19.27 12.1342 19.2058 12.3646 19.0724C12.6029 18.9292 12.724 18.6774 12.724 18.3218C12.724 18.0453 12.6224 17.5514 12.4271 16.8403L11.5677 14.2132H5.39587C4.97791 15.5169 4.73962 16.2774 4.67712 16.4848C4.62244 16.6971 4.599 16.8156 4.599 16.8403C4.39978 17.6453 4.30212 18.1588 4.30212 18.3811C4.30212 18.7366 4.42712 18.9737 4.67712 19.0922C4.92712 19.2107 5.39978 19.27 6.099 19.27H6.25525C6.41931 19.27 6.5365 19.3095 6.599 19.3885C6.6615 19.4576 6.70056 19.6403 6.724 19.9416C6.724 20.1292 6.68494 20.2922 6.61462 20.4354C6.5404 20.5638 6.42712 20.6329 6.27087 20.6329C5.20837 20.5638 4.30212 20.5342 3.55212 20.5342C3.02087 20.5342 2.21228 20.5638 1.13025 20.6329ZM5.88025 12.8502H11.1302L8.599 4.73169H8.52087L5.88025 12.8502Z" fill="black"/>
</svg>
