<svg width="14" height="21" viewBox="0 0 14 21" fill="none" xmlns="http://www.w3.org/2000/svg">
<path d="M1.31262 20.6328C1.1759 20.6328 1.07043 20.5637 1.00012 20.4353C0.925903 20.2921 0.890747 20.1291 0.890747 19.9414C0.89856 19.6254 0.945434 19.4377 1.03137 19.3686C1.1134 19.3044 1.27356 19.2698 1.51575 19.2698C1.99231 19.2698 2.34778 19.1612 2.57825 18.934C2.81653 18.7118 2.96106 18.4402 3.01575 18.1241C3.07825 17.7982 3.11731 17.3686 3.14075 16.8402V4.29699C3.11731 3.77353 3.07825 3.3439 3.01575 3.01304C2.96106 2.68711 2.81653 2.41057 2.57825 2.18341C2.34778 1.96119 1.99231 1.8476 1.51575 1.8476H1.3595C1.19153 1.8476 1.07043 1.81797 1.00012 1.74884C0.937622 1.66983 0.89856 1.48711 0.890747 1.19575C0.890747 0.998222 0.925903 0.835259 1.00012 0.701925C1.07043 0.573531 1.1759 0.504395 1.31262 0.504395C2.41418 0.558716 3.40637 0.583407 4.28137 0.583407H12.1407C12.5665 0.583407 12.7814 0.840197 12.7814 1.35378L12.8595 5.77847C12.8595 5.96612 12.7814 6.11427 12.6251 6.23279C12.4767 6.35131 12.3322 6.41057 12.1876 6.41057C11.9884 6.41057 11.8126 6.36612 11.6564 6.2723C11.5079 6.16859 11.4259 6.02538 11.4064 5.83773C11.2814 4.81057 11.1329 4.03032 10.9689 3.48711C10.8126 2.94884 10.5782 2.54884 10.2657 2.28217C9.96106 2.02044 9.53137 1.87723 8.96887 1.8476H5.6095V9.88711H10.1407C10.254 9.90193 10.3439 9.98094 10.4064 10.1241C10.4767 10.2575 10.5157 10.4204 10.5157 10.618C10.5157 10.776 10.4767 10.9241 10.4064 11.0525C10.3439 11.1859 10.254 11.2501 10.1407 11.2501H5.6095V17.2155C5.64075 17.6649 5.67981 18.0204 5.7345 18.2822C5.78528 18.5488 5.93762 18.7859 6.18762 18.9933C6.43762 19.2056 6.82825 19.2995 7.3595 19.2698H9.65637C10.2384 19.2451 10.6798 19.1266 10.9845 18.9143C11.2853 18.6921 11.5236 18.3513 11.7032 17.8871C11.879 17.413 12.0939 16.6525 12.3439 15.5958C12.4572 15.2303 12.7384 15.0822 13.1876 15.1612C13.3517 15.2007 13.5001 15.2896 13.6251 15.418C13.7501 15.5365 13.8009 15.6945 13.7814 15.8921L13.2814 19.8624C13.2384 20.139 13.1642 20.3266 13.0626 20.4155C12.9572 20.4945 12.7892 20.534 12.5626 20.534H4.31262C3.41418 20.534 2.41418 20.5637 1.31262 20.6328Z" fill="black"/>
</svg>
