<svg width="18" height="22" viewBox="0 0 18 22" fill="none" xmlns="http://www.w3.org/2000/svg">
<path d="M1.33032 21.0177C1.18189 21.0177 1.0686 20.9486 0.986572 20.8202C0.912353 20.6769 0.877197 20.514 0.877197 20.3263C0.896728 20.0103 0.947509 19.8226 1.03345 19.7535C1.11548 19.6893 1.27173 19.6547 1.5022 19.6547C1.99048 19.6547 2.34595 19.5461 2.5647 19.3189C2.79126 19.0967 2.93189 18.835 2.98657 18.5288C3.03735 18.2276 3.0686 17.793 3.08032 17.2251L3.1272 4.68189C3.1272 4.04979 3.07251 3.57077 2.97095 3.23991C2.86548 2.91398 2.6936 2.67695 2.45532 2.5288C2.22485 2.38559 1.89282 2.26213 1.45532 2.15349C1.17407 2.08929 0.994385 2.0251 0.924072 1.95596C0.861572 1.89176 0.830322 1.71398 0.830322 1.42263C0.830322 1.17571 0.881103 1.00781 0.986572 0.928799C1.09985 0.839911 1.27173 0.790527 1.5022 0.790527C2.54126 0.790527 3.36157 0.884355 3.95532 1.06707C4.55689 1.23991 5.08814 1.55596 5.54907 2.01522C6.0061 2.47942 6.51001 3.18065 7.0647 4.1288L13.9084 15.5066H13.9866L13.9397 4.68189C13.9163 4.10411 13.8811 3.6646 13.8303 3.35843C13.7756 3.05719 13.635 2.79546 13.4084 2.56831C13.1897 2.34608 12.8381 2.2325 12.3616 2.2325H12.2053C12.0374 2.2325 11.9163 2.20287 11.8459 2.13374C11.7717 2.05472 11.7249 1.87201 11.7053 1.58065C11.7053 1.38312 11.7444 1.22016 11.8303 1.08682C11.9124 0.958429 12.0217 0.889293 12.1584 0.889293C13.2209 0.943614 14.0217 0.968305 14.5647 0.968305C14.8772 0.968305 15.4788 0.948552 16.3772 0.909046L16.9084 0.889293C17.053 0.889293 17.1624 0.958429 17.2366 1.08682C17.3186 1.22016 17.3616 1.38312 17.3616 1.58065C17.3381 1.8967 17.2874 2.08929 17.2053 2.15349C17.1194 2.20781 16.9631 2.2325 16.7366 2.2325C16.2444 2.2325 15.885 2.34608 15.6584 2.56831C15.4397 2.79546 15.303 3.05719 15.2522 3.35843C15.2092 3.6646 15.178 4.10411 15.1584 4.68189L15.1116 20.6029C15.0881 20.8794 14.8811 21.0177 14.4866 21.0177C14.1624 21.0177 13.9163 20.8794 13.7522 20.6029L4.33032 4.68189H4.2522L4.3147 17.2251C4.32251 17.793 4.35376 18.2276 4.40845 18.5288C4.45923 18.835 4.59595 19.0967 4.8147 19.3189C5.04126 19.5461 5.39673 19.6547 5.8772 19.6547H6.03345C6.19751 19.6547 6.3186 19.6942 6.39282 19.7732C6.46314 19.8424 6.51001 20.0251 6.53345 20.3263C6.53345 20.514 6.49439 20.6769 6.42407 20.8202C6.34985 20.9486 6.23657 21.0177 6.08032 21.0177C5.01782 20.9486 4.20923 20.9189 3.65845 20.9189C3.32251 20.9189 2.74048 20.9387 1.90845 20.9782L1.33032 21.0177Z" fill="black"/>
</svg>
