<svg width="17" height="21" viewBox="0 0 17 21" fill="none" xmlns="http://www.w3.org/2000/svg">
<path d="M0.446167 20.4029C0.289917 20.4029 0.176636 20.3338 0.102417 20.2054C0.032105 20.0622 -0.00695801 19.8992 -0.00695801 19.7116C0.00476099 19.3955 0.051636 19.2079 0.133667 19.1387C0.219604 19.0745 0.313354 19.04 0.430542 19.04C0.555542 19.04 0.633667 19.04 0.664917 19.04C1.16492 19.04 1.5282 18.877 1.75867 18.5462C1.99695 18.2202 2.18445 17.8499 2.32117 17.44C2.4657 17.035 2.56335 16.7585 2.61804 16.6103L6.99304 3.51405C7.08679 3.198 7.13367 2.95109 7.13367 2.76344C7.13367 2.38319 7.01648 2.11158 6.78992 1.95356C6.55945 1.78566 6.23523 1.64739 5.82117 1.53874C5.5282 1.47455 5.35242 1.41035 5.28992 1.34121C5.22742 1.27702 5.19617 1.09924 5.19617 0.80788C5.19617 0.560966 5.24695 0.393065 5.35242 0.314053C5.45398 0.225165 5.62585 0.175781 5.86804 0.175781C6.70007 0.175781 7.36023 0.254794 7.85242 0.412818C8.3407 0.570843 8.76648 0.886892 9.13367 1.36097C9.50867 1.83504 9.85242 2.55603 10.1649 3.51405L14.368 16.6103C14.618 17.4153 14.8563 18.0128 15.0868 18.4079C15.3251 18.8029 15.6727 19.0153 16.1337 19.04H16.2899C16.454 19.04 16.5712 19.0795 16.6337 19.1585C16.704 19.2276 16.7469 19.4104 16.7587 19.7116C16.7587 19.8992 16.7196 20.0622 16.6493 20.2054C16.5751 20.3338 16.4657 20.4029 16.3212 20.4029C15.2469 20.3338 14.329 20.3042 13.5712 20.3042C12.5712 20.3042 11.5321 20.3338 10.4618 20.4029C10.3134 20.4029 10.2001 20.3338 10.118 20.2054C10.0438 20.0622 10.0087 19.8992 10.0087 19.7116C10.0282 19.4104 10.0712 19.2276 10.1337 19.1585C10.204 19.0795 10.3251 19.04 10.493 19.04C11.0555 19.04 11.4501 18.9758 11.6805 18.8424C11.9188 18.6992 12.0399 18.4474 12.0399 18.0918C12.0399 17.8153 11.9384 17.3215 11.743 16.6103L10.8837 13.9832H4.71179C4.29382 15.2869 4.05554 16.0474 3.99304 16.2548C3.93835 16.4671 3.91492 16.5857 3.91492 16.6103C3.7157 17.4153 3.61804 17.9289 3.61804 18.1511C3.61804 18.5066 3.74304 18.7437 3.99304 18.8622C4.24304 18.9807 4.7157 19.04 5.41492 19.04H5.57117C5.73523 19.04 5.85242 19.0795 5.91492 19.1585C5.97742 19.2276 6.01648 19.4104 6.03992 19.7116C6.03992 19.8992 6.00085 20.0622 5.93054 20.2054C5.85632 20.3338 5.74304 20.4029 5.58679 20.4029C4.52429 20.3338 3.61804 20.3042 2.86804 20.3042C2.33679 20.3042 1.5282 20.3338 0.446167 20.4029ZM5.19617 12.6202H10.4462L7.91492 4.50171H7.83679L5.19617 12.6202Z" fill="black"/>
</svg>
