<svg width="36" height="48" viewBox="0 0 36 48" fill="none" xmlns="http://www.w3.org/2000/svg">
<path d="M35.9985 23.3516C35.9985 24.6553 35.936 26.0084 35.811 27.401H11.0453C11.2094 30.2059 11.9243 32.354 13.186 33.8405C14.4438 35.317 15.9907 36.0528 17.8266 36.0528C20.5532 36.0528 22.4555 34.601 23.5297 31.6874H35.1703C34.5766 34.6652 33.4985 37.3368 31.936 39.7071C30.3813 42.0775 28.4282 43.9442 26.0766 45.2973C23.7328 46.6405 21.1118 47.3121 18.2172 47.3121C14.7172 47.3121 11.6 46.3738 8.87347 44.4874C6.14301 42.5911 4.00629 39.8948 2.46722 36.3886C0.935974 32.8874 0.170349 28.7837 0.170349 24.0824C0.170349 19.396 0.924255 15.3022 2.43597 11.796C3.95551 8.27997 6.08051 5.58367 8.81097 3.69725C11.5375 1.81577 14.6743 0.872559 18.2172 0.872559C21.6743 0.872559 24.7485 1.79108 27.436 3.61824C30.1235 5.45034 32.2211 8.06268 33.7328 11.4602C35.2407 14.8577 35.9985 18.8232 35.9985 23.3516ZM24.811 19.717C24.811 17.3466 24.1703 15.4652 22.8891 14.0676C21.6078 12.6602 20.0063 11.954 18.0922 11.954C16.2485 11.954 14.6938 12.6355 13.436 13.9886C12.186 15.3318 11.4086 17.2429 11.1078 19.717H24.811Z" fill="#008B8B"/>
</svg>
