<svg width="17" height="22" viewBox="0 0 17 22" fill="none" xmlns="http://www.w3.org/2000/svg">
<path d="M8.4071 21.7807C6.82117 21.7807 5.42664 21.2968 4.2196 20.3388C3.00867 19.3807 2.07117 18.1067 1.4071 16.5264C0.750854 14.9462 0.422729 13.2573 0.422729 11.4499C0.422729 9.23752 0.817261 7.3116 1.61023 5.66221C2.39929 4.01777 3.41101 2.75851 4.64148 1.88937C5.87976 1.01036 7.13367 0.565918 8.4071 0.565918C10.0009 0.565918 11.4071 1.04987 12.6259 2.00789C13.8524 2.97086 14.7977 4.23505 15.454 5.80049C16.118 7.37086 16.454 9.05975 16.454 10.877C16.454 13.0894 16.0516 15.0252 15.2509 16.6844C14.4462 18.3338 13.4227 19.598 12.1727 20.477C10.9227 21.3462 9.66492 21.7807 8.4071 21.7807ZM8.37585 20.398C9.50867 20.398 10.454 19.9733 11.204 19.1141C11.9618 18.2597 12.5321 17.1141 12.9071 15.677C13.2821 14.2301 13.4696 12.6301 13.4696 10.877C13.4696 9.25728 13.2743 7.77086 12.8915 6.41283C12.5165 5.04493 11.9423 3.95851 11.1727 3.15357C10.411 2.33876 9.47742 1.92888 8.37585 1.92888C6.70789 1.92888 5.45398 2.82765 4.61023 4.6153C3.76648 6.39308 3.3446 8.63999 3.3446 11.3511C3.3446 13.0005 3.5321 14.5067 3.9071 15.8746C4.2821 17.2474 4.8446 18.3437 5.5946 19.1733C6.3446 19.9931 7.27039 20.398 8.37585 20.398Z" fill="black"/>
</svg>
