<svg width="18" height="22" viewBox="0 0 18 22" fill="none" xmlns="http://www.w3.org/2000/svg">
<path d="M8.14221 21.2352C7.64221 19.5118 6.84924 16.7661 5.76721 12.9982C4.68127 9.22042 3.89221 6.48956 3.39221 4.80067C3.11096 3.89203 2.83362 3.25993 2.56409 2.90437C2.30237 2.54882 1.91174 2.30684 1.39221 2.17351C1.32971 2.16363 1.22815 2.14388 1.09534 2.11425C0.958618 2.07474 0.868774 2.01055 0.829712 1.91672C0.786743 1.81302 0.767212 1.65499 0.767212 1.44265C0.767212 1.19573 0.817993 1.02783 0.923462 0.948818C1.03674 0.859929 1.21252 0.810547 1.45471 0.810547C2.70471 0.810547 3.65002 1.05746 4.29846 1.54141C4.94299 2.0303 5.45862 2.8945 5.84534 4.12907L9.47034 16.455H9.54846L13.0016 3.79326C13.0953 3.43771 13.1422 3.16116 13.1422 2.96363C13.1422 2.67721 13.0485 2.48462 12.861 2.39079C12.6735 2.28709 12.3492 2.23277 11.8922 2.23277H11.7516C11.5836 2.23277 11.4625 2.20314 11.3922 2.134C11.3297 2.05499 11.2867 1.87228 11.2672 1.58092C11.2672 1.38339 11.3024 1.22042 11.3766 1.08709C11.4586 0.958696 11.568 0.889559 11.7047 0.889559C12.7867 0.943881 13.693 0.968572 14.4235 0.968572C14.736 0.968572 15.3453 0.948818 16.2516 0.909312L16.7672 0.889559C16.9235 0.889559 17.0367 0.958696 17.111 1.08709C17.1813 1.22042 17.2203 1.38339 17.2203 1.58092C17.2086 1.87228 17.1656 2.05499 17.0953 2.134C17.0328 2.20314 16.9156 2.23277 16.7516 2.23277C16.0328 2.23277 15.486 2.38586 15.111 2.68709C14.736 2.97845 14.4117 3.54635 14.1422 4.38586C13.6422 6.11425 12.8375 8.90931 11.736 12.7809C10.6305 16.6525 9.82971 19.4723 9.32971 21.2352H8.14221Z" fill="black"/>
</svg>
