<svg width="17" height="21" viewBox="0 0 17 21" fill="none" xmlns="http://www.w3.org/2000/svg">
<path d="M0.552124 20.6328C0.415405 20.6328 0.309936 20.5637 0.239624 20.4353C0.165405 20.2921 0.130249 20.1291 0.130249 19.9414C0.138062 19.6254 0.184936 19.4377 0.270874 19.3686C0.352905 19.3044 0.513062 19.2698 0.755249 19.2698C1.23181 19.2698 1.58728 19.1612 1.81775 18.934C2.05603 18.7118 2.20056 18.4402 2.25525 18.1241C2.31775 17.7982 2.35681 17.3686 2.38025 16.8402V4.29699C2.35681 3.77353 2.31775 3.3439 2.25525 3.01304C2.20056 2.68711 2.05603 2.41057 1.81775 2.18341C1.58728 1.96119 1.23181 1.8476 0.755249 1.8476H0.598999C0.43103 1.8476 0.309936 1.81797 0.239624 1.74884C0.177124 1.66983 0.138062 1.48711 0.130249 1.19575C0.130249 0.998222 0.165405 0.835259 0.239624 0.701925C0.309936 0.573531 0.415405 0.504395 0.552124 0.504395C1.65369 0.558716 2.64587 0.583407 3.52087 0.583407H7.42712C9.02869 0.583407 10.4818 0.993284 11.7865 1.8081C13.099 2.62785 14.1302 3.79328 14.8802 5.3044C15.6381 6.82045 16.0209 8.61304 16.0209 10.6772C16.0209 12.8254 15.5912 14.6427 14.7396 16.1291C13.8842 17.6204 12.7709 18.7266 11.3959 19.4476C10.0209 20.1735 8.54431 20.534 6.974 20.534H3.52087C2.64587 20.534 1.65369 20.5637 0.552124 20.6328ZM7.349 19.3686C9.29431 19.3686 10.724 18.6081 11.6302 17.0772C12.5443 15.5513 13.0052 13.418 13.0052 10.6772C13.0052 8.95378 12.7552 7.41304 12.2552 6.05501C11.7631 4.68711 11.0521 3.62538 10.1146 2.87477C9.18494 2.11427 8.08337 1.72909 6.80212 1.72909L4.849 1.76859V17.2155C4.849 18.0353 5.04041 18.5982 5.42712 18.9143C5.82166 19.2204 6.46228 19.3686 7.349 19.3686Z" fill="black"/>
</svg>
