<svg width="10" height="12" viewBox="0 0 10 12" fill="none" xmlns="http://www.w3.org/2000/svg">
<path d="M5.27979 11.5941C4.40479 11.5941 3.61572 11.367 2.92041 10.9028C2.23291 10.4287 1.68994 9.75709 1.29541 8.88796C0.896973 8.00894 0.70166 6.98672 0.70166 5.82623C0.70166 4.67067 0.896973 3.65339 1.29541 2.78425C1.70166 1.90524 2.25244 1.22376 2.95166 0.749685C3.64697 0.275611 4.43604 0.0385742 5.31104 0.0385742C6.18604 0.0385742 6.97119 0.275611 7.67041 0.749685C8.36572 1.22376 8.92041 1.90524 9.32666 2.78425C9.73291 3.65339 9.93604 4.67067 9.93604 5.82623C9.93604 6.97191 9.7251 7.98919 9.31104 8.8682C8.90479 9.75215 8.34619 10.4287 7.63916 10.9028C6.93994 11.367 6.15479 11.5941 5.27979 11.5941ZM5.27979 8.61141C5.79932 8.61141 6.24072 8.37438 6.60791 7.9003C6.97119 7.41635 7.15479 6.72499 7.15479 5.82623C7.15479 4.91759 6.9751 4.22623 6.62354 3.75215C6.26807 3.2682 5.83057 3.02129 5.31104 3.02129C4.77979 3.02129 4.33447 3.25833 3.98291 3.7324C3.63916 4.20648 3.46729 4.90771 3.46729 5.82623C3.46729 6.72499 3.63916 7.41635 3.98291 7.9003C4.32666 8.37438 4.75635 8.61141 5.27979 8.61141Z" fill="white"/>
</svg>
