<svg width="17" height="21" viewBox="0 0 17 21" fill="none" xmlns="http://www.w3.org/2000/svg">
<path d="M0.787354 20.4028C0.650635 20.4028 0.545166 20.3337 0.474854 20.2053C0.400635 20.0621 0.365479 19.8991 0.365479 19.7115C0.373292 19.3954 0.420166 19.2078 0.506104 19.1386C0.588135 19.0744 0.748292 19.0398 0.990479 19.0398C1.46704 19.0398 1.82251 18.9312 2.05298 18.704C2.29126 18.4818 2.43579 18.2102 2.49048 17.8942C2.55298 17.5682 2.59204 17.1386 2.61548 16.6102V4.06701C2.59204 3.54355 2.55298 3.11392 2.49048 2.78306C2.43579 2.45713 2.29126 2.18059 2.05298 1.95343C1.82251 1.7312 1.46704 1.61762 0.990479 1.61762H0.834229C0.66626 1.61762 0.545166 1.58799 0.474854 1.51886C0.412354 1.43985 0.373292 1.25713 0.365479 0.965772C0.365479 0.768241 0.400635 0.605279 0.474854 0.471945C0.545166 0.343551 0.650635 0.274414 0.787354 0.274414C1.88892 0.328735 2.8811 0.353426 3.7561 0.353426H7.66235C9.26392 0.353426 10.717 0.763303 12.0217 1.57812C13.3342 2.39787 14.3655 3.5633 15.1155 5.07441C15.8733 6.59046 16.2561 8.38306 16.2561 10.4473C16.2561 12.5954 15.8264 14.4127 14.9749 15.8991C14.1194 17.3905 13.0061 18.4966 11.6311 19.2176C10.2561 19.9436 8.77954 20.304 7.20923 20.304H3.7561C2.8811 20.304 1.88892 20.3337 0.787354 20.4028ZM7.58423 19.1386C9.52954 19.1386 10.9592 18.3781 11.8655 16.8473C12.7795 15.3213 13.2405 13.188 13.2405 10.4473C13.2405 8.7238 12.9905 7.18306 12.4905 5.82503C11.9983 4.45713 11.2874 3.3954 10.3499 2.64478C9.42017 1.88429 8.3186 1.49911 7.03735 1.49911L5.08423 1.53861V16.9855C5.08423 17.8053 5.27563 18.3682 5.66235 18.6843C6.05688 18.9905 6.69751 19.1386 7.58423 19.1386Z" fill="black"/>
</svg>
