<svg width="8" height="21" viewBox="0 0 8 21" fill="none" xmlns="http://www.w3.org/2000/svg">
<path d="M1.00781 20.6328C0.859375 20.6328 0.746094 20.5637 0.664063 20.4353C0.589844 20.2921 0.554688 20.1291 0.554688 19.9414C0.574219 19.6254 0.625001 19.4377 0.710938 19.3686C0.804688 19.3044 0.960938 19.2698 1.17969 19.2698C1.66797 19.2698 2.02734 19.1612 2.25781 18.934C2.48437 18.7118 2.63281 18.4402 2.69531 18.1241C2.76562 17.8081 2.8125 17.3834 2.83594 16.8402V4.29699C2.8125 3.7439 2.76562 3.30933 2.69531 2.99328C2.63281 2.67723 2.48437 2.41057 2.25781 2.18341C2.02734 1.96119 1.66797 1.8476 1.17969 1.8476H1.03906C0.882813 1.8476 0.765625 1.81797 0.695313 1.74884C0.621094 1.66983 0.574219 1.48711 0.554688 1.19575C0.554688 0.998222 0.589844 0.835259 0.664063 0.701925C0.746094 0.573531 0.859375 0.504395 1.00781 0.504395C2.08984 0.558716 3.07812 0.583407 3.97656 0.583407C4.97656 0.583407 6.01562 0.558716 7.10156 0.504395C7.25781 0.504395 7.37109 0.573531 7.44531 0.701925C7.51563 0.835259 7.55469 0.998222 7.55469 1.19575C7.54297 1.5118 7.49219 1.7044 7.39844 1.76859C7.30469 1.82291 7.14063 1.8476 6.91406 1.8476C6.42188 1.8476 6.05859 1.96119 5.82031 2.18341C5.58984 2.41057 5.44531 2.68711 5.38281 3.01304C5.32812 3.3439 5.29688 3.77353 5.28906 4.29699V16.8402C5.29688 17.3686 5.32812 17.7982 5.38281 18.1241C5.44531 18.4402 5.58984 18.7118 5.82031 18.934C6.05859 19.1612 6.42188 19.2698 6.91406 19.2698H7.05469C7.21875 19.2698 7.33984 19.3093 7.41406 19.3883C7.49609 19.4575 7.54297 19.6402 7.55469 19.9414C7.55469 20.1291 7.51563 20.2921 7.44531 20.4353C7.37109 20.5637 7.25781 20.6328 7.10156 20.6328C6.03906 20.5637 5.00781 20.534 4.00781 20.534C3.08984 20.534 2.08984 20.5637 1.00781 20.6328Z" fill="black"/>
</svg>
