<svg width="14" height="22" viewBox="0 0 14 22" fill="none" xmlns="http://www.w3.org/2000/svg">
<path d="M1.33008 21.018C1.19336 21.018 1.08789 20.9489 1.01758 20.8205C0.943359 20.6773 0.908203 20.5143 0.908203 20.3267C0.916016 20.0106 0.96289 19.823 1.04883 19.7538C1.13086 19.6897 1.29102 19.6551 1.5332 19.6551C2.00977 19.6551 2.36523 19.5464 2.5957 19.3193C2.83398 19.0971 2.97852 18.8255 3.0332 18.5094C3.0957 18.1835 3.13477 17.7538 3.1582 17.2255V4.68224C3.13477 4.15879 3.0957 3.72916 3.0332 3.39829C2.97852 3.07236 2.83398 2.79582 2.5957 2.56866C2.36523 2.34644 2.00977 2.23286 1.5332 2.23286H1.37695C1.20898 2.23286 1.08789 2.20323 1.01758 2.13409C0.955078 2.05508 0.916016 1.87236 0.908203 1.58101C0.908203 1.38348 0.943359 1.22051 1.01758 1.08718C1.08789 0.958785 1.19336 0.889648 1.33008 0.889648C2.43164 0.94397 3.42383 0.968661 4.29883 0.968661H12.1582C12.584 0.968661 12.7988 1.22545 12.7988 1.73903L12.877 6.16372C12.877 6.35138 12.7988 6.49953 12.6426 6.61804C12.4941 6.73656 12.3496 6.79582 12.2051 6.79582C12.0059 6.79582 11.8301 6.75138 11.6738 6.65755C11.5254 6.55385 11.4434 6.41064 11.4238 6.22298C11.2988 5.19582 11.1504 4.41557 10.9863 3.87236C10.8301 3.33409 10.5957 2.93409 10.2832 2.66743C9.97852 2.4057 9.54883 2.26249 8.98633 2.23286H5.62695V10.2724H10.1582C10.2715 10.2872 10.3613 10.3662 10.4238 10.5094C10.4941 10.6427 10.5332 10.8057 10.5332 11.0032C10.5332 11.1613 10.4941 11.3094 10.4238 11.4378C10.3613 11.5711 10.2715 11.6353 10.1582 11.6353H5.62695V17.6008C5.6582 18.0501 5.69727 18.4057 5.75195 18.6674C5.80273 18.9341 5.95508 19.1711 6.20508 19.3785C6.45508 19.5909 6.8457 19.6847 7.37695 19.6551H9.67383C10.2559 19.6304 10.6973 19.5119 11.002 19.2995C11.3027 19.0773 11.541 18.7366 11.7207 18.2724C11.8965 17.7983 12.1113 17.0378 12.3613 15.981C12.4746 15.6156 12.7559 15.4674 13.2051 15.5464C13.3691 15.5859 13.5176 15.6748 13.6426 15.8032C13.7676 15.9217 13.8184 16.0798 13.7988 16.2773L13.2988 20.2477C13.2559 20.5242 13.1816 20.7119 13.0801 20.8008C12.9746 20.8798 12.8066 20.9193 12.5801 20.9193H4.33008C3.43164 20.9193 2.43164 20.9489 1.33008 21.018Z" fill="black"/>
</svg>
