<svg width="11" height="15" viewBox="0 0 11 15" fill="none" xmlns="http://www.w3.org/2000/svg">
<path d="M4.1814 0.312988C5.35718 0.312988 6.38452 0.609285 7.25952 1.20188C8.14233 1.78459 8.82593 2.60435 9.3064 3.67101C9.79468 4.73768 10.0408 5.97225 10.0408 7.36484C10.0408 8.74756 9.79468 9.98212 9.3064 11.0587C8.82593 12.1253 8.14233 12.955 7.25952 13.5476C6.3728 14.1401 5.34546 14.4364 4.1814 14.4364H-0.00610352V0.312988H4.1814ZM4.00952 11.4537C5.04077 11.4537 5.84155 11.0982 6.41577 10.3871C6.98608 9.67595 7.27515 8.66854 7.27515 7.36484C7.27515 6.06114 6.98608 5.04879 6.41577 4.32287C5.84155 3.60188 5.04077 3.23645 4.00952 3.23645H2.71265V11.4537H4.00952Z" fill="white"/>
</svg>
