<svg width="17" height="22" viewBox="0 0 17 22" fill="none" xmlns="http://www.w3.org/2000/svg">
<path d="M8.05432 21.9365C6.46838 21.9365 5.07385 21.4525 3.86682 20.4945C2.65588 19.5365 1.71838 18.2624 1.05432 16.6822C0.398071 15.1019 0.0699463 13.413 0.0699463 11.6056C0.0699463 9.39328 0.464477 7.46736 1.25745 5.81798C2.04651 4.17353 3.05823 2.91427 4.2887 2.04514C5.52698 1.16612 6.78088 0.72168 8.05432 0.72168C9.64807 0.72168 11.0543 1.20563 12.2731 2.16366C13.4996 3.12662 14.4449 4.39082 15.1012 5.95625C15.7653 7.52662 16.1012 9.21551 16.1012 11.0328C16.1012 13.2451 15.6989 15.1809 14.8981 16.8402C14.0934 18.4896 13.0699 19.7538 11.8199 20.6328C10.5699 21.5019 9.31213 21.9365 8.05432 21.9365ZM8.02307 20.5538C9.15588 20.5538 10.1012 20.1291 10.8512 19.2698C11.609 18.4155 12.1793 17.2698 12.5543 15.8328C12.9293 14.3859 13.1168 12.7859 13.1168 11.0328C13.1168 9.41304 12.9215 7.92662 12.5387 6.56859C12.1637 5.20069 11.5895 4.11427 10.8199 3.30933C10.0582 2.49452 9.12463 2.08464 8.02307 2.08464C6.3551 2.08464 5.1012 2.98341 4.25745 4.77106C3.4137 6.54884 2.99182 8.79575 2.99182 11.5069C2.99182 13.1562 3.17932 14.6624 3.55432 16.0303C3.92932 17.4032 4.49182 18.4995 5.24182 19.3291C5.99182 20.1488 6.9176 20.5538 8.02307 20.5538Z" fill="black"/>
</svg>
