<svg width="21" height="21" viewBox="0 0 21 21" fill="none" xmlns="http://www.w3.org/2000/svg">
<path d="M10.1216 20.3069C9.87158 20.3069 9.6919 20.1983 9.59033 19.9909L3.96533 3.91187H3.88721L3.94971 16.4551C3.95752 17.023 3.98877 17.4575 4.04346 17.7588C4.09424 18.065 4.23096 18.3267 4.44971 18.5489C4.67627 18.7761 5.03174 18.8847 5.51221 18.8847H5.66846C5.83252 18.8847 5.95361 18.9242 6.02783 19.0032C6.09815 19.0724 6.14502 19.2551 6.16846 19.5563C6.16846 19.744 6.1294 19.9069 6.05908 20.0501C5.98486 20.1785 5.87158 20.2477 5.71533 20.2477L5.09033 20.2082C4.32861 20.1687 3.78174 20.1489 3.44971 20.1489C2.87549 20.1489 2.04736 20.1785 0.965332 20.2477C0.816895 20.2477 0.703613 20.1785 0.621582 20.0501C0.547363 19.9069 0.512207 19.744 0.512207 19.5563C0.531738 19.2403 0.582519 19.0526 0.668457 18.9835C0.750488 18.9193 0.906738 18.8847 1.13721 18.8847C1.62549 18.8847 1.98096 18.7761 2.19971 18.5489C2.42627 18.3267 2.5669 18.065 2.62158 17.7588C2.67236 17.4575 2.70361 17.023 2.71533 16.4551L2.76221 3.91187C2.76221 3.25508 2.70361 2.76125 2.59033 2.43038C2.47315 2.10446 2.30127 1.87236 2.07471 1.73903C1.85596 1.61063 1.52783 1.49211 1.09033 1.38347C1.02783 1.35878 0.926269 1.33409 0.793457 1.30446C0.656738 1.26495 0.566895 1.20076 0.527832 1.10693C0.484863 1.01804 0.465332 0.864953 0.465332 0.652607C0.465332 0.405692 0.516113 0.237792 0.621582 0.158779C0.734863 0.0698912 0.906738 0.0205078 1.13721 0.0205078C2.12549 0.0205078 2.93408 0.0995202 3.55908 0.257545C4.1919 0.41557 4.75049 0.741496 5.23096 1.22545C5.70752 1.69952 6.10596 2.41063 6.41846 3.35878L10.7153 15.5662H10.7935L15.7153 0.198286H17.1372C18.0513 0.198286 19.0474 0.173595 20.1216 0.119273C20.2661 0.119273 20.3755 0.18841 20.4497 0.316804C20.5317 0.450138 20.5747 0.6131 20.5747 0.810631C20.5513 1.12668 20.4966 1.31927 20.4028 1.38347C20.3091 1.43779 20.1567 1.46248 19.9497 1.46248C19.4575 1.46248 19.0942 1.57606 18.856 1.79829C18.6255 2.02545 18.481 2.30199 18.4185 2.62792C18.3638 2.95878 18.3325 3.38841 18.3247 3.91187V16.4551C18.3325 16.9835 18.3638 17.4131 18.4185 17.739C18.481 18.0551 18.6255 18.3267 18.856 18.5489C19.0942 18.7761 19.4575 18.8847 19.9497 18.8847H20.0903C20.2466 18.8847 20.3599 18.9242 20.4341 19.0032C20.5044 19.0724 20.5513 19.2551 20.5747 19.5563C20.5747 19.744 20.5317 19.9069 20.4497 20.0501C20.3755 20.1785 20.2661 20.2477 20.1216 20.2477C19.0474 20.1785 18.0474 20.1489 17.1216 20.1489C16.1528 20.1489 15.1255 20.1785 14.0435 20.2477C13.895 20.2477 13.7817 20.1785 13.6997 20.0501C13.6255 19.9069 13.5903 19.744 13.5903 19.5563C13.6099 19.2403 13.6606 19.0526 13.7466 18.9835C13.8286 18.9193 13.9849 18.8847 14.2153 18.8847C14.7036 18.8847 15.063 18.7761 15.2935 18.5489C15.52 18.3267 15.6685 18.0551 15.731 17.739C15.7935 17.4131 15.8286 16.9835 15.8403 16.4551V3.91187H15.7622L10.6216 19.9909C10.5474 20.1983 10.3794 20.3069 10.1216 20.3069Z" fill="black"/>
</svg>
