<svg width="14" height="21" viewBox="0 0 14 21" fill="none" xmlns="http://www.w3.org/2000/svg">
<path d="M0.758911 20.6328C0.622192 20.6328 0.516723 20.5637 0.446411 20.4353C0.372192 20.2921 0.337036 20.1291 0.337036 19.9414C0.344849 19.6254 0.391723 19.4377 0.477661 19.3686C0.559692 19.3044 0.719849 19.2698 0.962036 19.2698C1.4386 19.2698 1.79407 19.1612 2.02454 18.934C2.26282 18.7118 2.40735 18.4402 2.46204 18.1241C2.52454 17.7982 2.5636 17.3686 2.58704 16.8402V4.29699C2.5636 3.77353 2.52454 3.3439 2.46204 3.01304C2.40735 2.68711 2.26282 2.41057 2.02454 2.18341C1.79407 1.96119 1.4386 1.8476 0.962036 1.8476H0.805786C0.637817 1.8476 0.516723 1.81797 0.446411 1.74884C0.383911 1.66983 0.344849 1.48711 0.337036 1.19575C0.337036 0.998222 0.372192 0.835259 0.446411 0.701925C0.516723 0.573531 0.622192 0.504395 0.758911 0.504395C1.86047 0.558716 2.85266 0.583407 3.72766 0.583407H11.587C12.0128 0.583407 12.2277 0.840197 12.2277 1.35378L12.3058 5.77847C12.3058 5.96612 12.2277 6.11427 12.0714 6.23279C11.923 6.35131 11.7784 6.41057 11.6339 6.41057C11.4347 6.41057 11.2589 6.36612 11.1027 6.2723C10.9542 6.16859 10.8722 6.02538 10.8527 5.83773C10.7277 4.81057 10.5792 4.03032 10.4152 3.48711C10.2589 2.94884 10.0245 2.54884 9.71204 2.28217C9.40735 2.02044 8.97766 1.87723 8.41516 1.8476H5.05579V9.88711H9.58704C9.70032 9.90193 9.79016 9.98094 9.85266 10.1241C9.92297 10.2575 9.96204 10.4204 9.96204 10.618C9.96204 10.776 9.92297 10.9241 9.85266 11.0525C9.79016 11.1859 9.70032 11.2501 9.58704 11.2501H5.05579V17.2155C5.08704 17.6649 5.1261 18.0204 5.18079 18.2822C5.23157 18.5488 5.38391 18.7859 5.63391 18.9933C5.88391 19.2056 6.27454 19.2995 6.80579 19.2698H9.10266C9.68469 19.2451 10.1261 19.1266 10.4308 18.9143C10.7316 18.6921 10.9699 18.3513 11.1495 17.8871C11.3253 17.413 11.5402 16.6525 11.7902 15.5958C11.9034 15.2303 12.1847 15.0822 12.6339 15.1612C12.798 15.2007 12.9464 15.2896 13.0714 15.418C13.1964 15.5365 13.2472 15.6945 13.2277 15.8921L12.7277 19.8624C12.6847 20.139 12.6105 20.3266 12.5089 20.4155C12.4034 20.4945 12.2355 20.534 12.0089 20.534H3.75891C2.86047 20.534 1.86047 20.5637 0.758911 20.6328Z" fill="black"/>
</svg>
