<svg width="17" height="21" viewBox="0 0 17 21" fill="none" xmlns="http://www.w3.org/2000/svg">
<path d="M0.641602 20.6328C0.504883 20.6328 0.399414 20.5637 0.329102 20.4353C0.254883 20.2921 0.219727 20.1291 0.219727 19.9414C0.22754 19.6254 0.274414 19.4377 0.360352 19.3686C0.442383 19.3044 0.60254 19.2698 0.844727 19.2698C1.32129 19.2698 1.67676 19.1612 1.90723 18.934C2.14551 18.7118 2.29004 18.4402 2.34473 18.1241C2.40723 17.7982 2.44629 17.3686 2.46973 16.8402V4.29699C2.44629 3.77353 2.40723 3.3439 2.34473 3.01304C2.29004 2.68711 2.14551 2.41057 1.90723 2.18341C1.67676 1.96119 1.32129 1.8476 0.844727 1.8476H0.688477C0.520508 1.8476 0.399414 1.81797 0.329102 1.74884C0.266602 1.66983 0.22754 1.48711 0.219727 1.19575C0.219727 0.998222 0.254883 0.835259 0.329102 0.701925C0.399414 0.573531 0.504883 0.504395 0.641602 0.504395C1.74316 0.558716 2.73535 0.583407 3.61035 0.583407H7.5166C9.11816 0.583407 10.5713 0.993284 11.876 1.8081C13.1885 2.62785 14.2197 3.79328 14.9697 5.3044C15.7275 6.82045 16.1104 8.61304 16.1104 10.6772C16.1104 12.8254 15.6807 14.6427 14.8291 16.1291C13.9736 17.6204 12.8604 18.7266 11.4854 19.4476C10.1104 20.1735 8.63379 20.534 7.06348 20.534H3.61035C2.73535 20.534 1.74316 20.5637 0.641602 20.6328ZM7.43848 19.3686C9.38379 19.3686 10.8135 18.6081 11.7197 17.0772C12.6338 15.5513 13.0947 13.418 13.0947 10.6772C13.0947 8.95378 12.8447 7.41304 12.3447 6.05501C11.8525 4.68711 11.1416 3.62538 10.2041 2.87477C9.27441 2.11427 8.17285 1.72909 6.8916 1.72909L4.93848 1.76859V17.2155C4.93848 18.0353 5.12988 18.5982 5.5166 18.9143C5.91113 19.2204 6.55176 19.3686 7.43848 19.3686Z" fill="black"/>
</svg>
