<svg width="37" height="48" viewBox="0 0 37 48" fill="none" xmlns="http://www.w3.org/2000/svg">
<path d="M36.3824 23.3516C36.3824 24.6553 36.3199 26.0084 36.1949 27.401H11.4293C11.5934 30.2059 12.3082 32.354 13.5699 33.8405C14.8278 35.317 16.3746 36.0528 18.2106 36.0528C20.9371 36.0528 22.8395 34.601 23.9137 31.6874H35.5543C34.9606 34.6652 33.8824 37.3368 32.3199 39.7071C30.7653 42.0775 28.8121 43.9442 26.4606 45.2973C24.1168 46.6405 21.4957 47.3121 18.6012 47.3121C15.1012 47.3121 11.984 46.3738 9.25745 44.4874C6.52698 42.5911 4.39026 39.8948 2.8512 36.3886C1.31995 32.8874 0.554321 28.7837 0.554321 24.0824C0.554321 19.396 1.30823 15.3022 2.81995 11.796C4.33948 8.27997 6.46448 5.58367 9.19495 3.69725C11.9215 1.81577 15.0582 0.872559 18.6012 0.872559C22.0582 0.872559 25.1324 1.79108 27.8199 3.61824C30.5074 5.45034 32.6051 8.06268 34.1168 11.4602C35.6246 14.8577 36.3824 18.8232 36.3824 23.3516ZM25.1949 19.717C25.1949 17.3466 24.5543 15.4652 23.2731 14.0676C21.9918 12.6602 20.3903 11.954 18.4762 11.954C16.6324 11.954 15.0778 12.6355 13.8199 13.9886C12.5699 15.3318 11.7926 17.2429 11.4918 19.717H25.1949Z" fill="#008B8B"/>
</svg>
