<svg width="19" height="21" viewBox="0 0 19 21" fill="none" xmlns="http://www.w3.org/2000/svg">
<path d="M1.36829 20.6328C1.21204 20.6328 1.09485 20.5637 1.02454 20.4353C0.950317 20.2921 0.915161 20.1291 0.915161 19.9414C0.922974 19.6254 0.969848 19.4377 1.05579 19.3686C1.13782 19.3044 1.29797 19.2698 1.54016 19.2698C2.01672 19.2698 2.37219 19.1612 2.60266 18.934C2.84094 18.7118 2.98547 18.4402 3.04016 18.1241C3.10266 17.7982 3.14172 17.3686 3.16516 16.8402V4.29699C3.14172 3.77353 3.10266 3.3439 3.04016 3.01304C2.98547 2.68711 2.84094 2.41057 2.60266 2.18341C2.37219 1.96119 2.01672 1.8476 1.54016 1.8476H1.38391C1.21594 1.8476 1.09485 1.81797 1.02454 1.74884C0.962036 1.66983 0.922974 1.48711 0.915161 1.19575C0.915161 0.998222 0.950317 0.835259 1.02454 0.701925C1.09485 0.573531 1.21204 0.504395 1.36829 0.504395C2.45032 0.558716 3.43079 0.583407 4.30579 0.583407C5.30579 0.583407 6.34485 0.558716 7.43079 0.504395C7.58704 0.504395 7.70032 0.573531 7.77454 0.701925C7.84485 0.835259 7.88391 0.998222 7.88391 1.19575C7.87219 1.5118 7.82532 1.7044 7.74329 1.76859C7.65735 1.82291 7.49719 1.8476 7.25891 1.8476C6.77844 1.8476 6.41907 1.96119 6.18079 2.18341C5.95032 2.41057 5.80579 2.68711 5.74329 3.01304C5.6886 3.3439 5.65344 3.77353 5.63391 4.29699V9.88711H13.4933V4.29699C13.4698 3.77353 13.4308 3.3439 13.3683 3.01304C13.3136 2.68711 13.1691 2.41057 12.9308 2.18341C12.7003 1.96119 12.3448 1.8476 11.8683 1.8476H11.712C11.5441 1.8476 11.423 1.81797 11.3527 1.74884C11.2784 1.66983 11.2316 1.48711 11.212 1.19575C11.212 0.998222 11.2511 0.835259 11.337 0.701925C11.4191 0.573531 11.5284 0.504395 11.6652 0.504395C12.7472 0.558716 13.7902 0.583407 14.7902 0.583407C15.7042 0.583407 16.6964 0.558716 17.7589 0.504395C17.9152 0.504395 18.0284 0.573531 18.1027 0.701925C18.173 0.835259 18.212 0.998222 18.212 1.19575C18.1886 1.5118 18.1339 1.7044 18.0402 1.76859C17.9542 1.82291 17.8058 1.8476 17.587 1.8476C17.1066 1.8476 16.7433 1.96119 16.4933 2.18341C16.2511 2.41057 16.1027 2.68711 16.0402 3.01304C15.9855 3.3439 15.9503 3.77353 15.9308 4.29699V16.8402C15.9503 17.3686 15.9855 17.7982 16.0402 18.1241C16.1027 18.4402 16.2511 18.7118 16.4933 18.934C16.7433 19.1612 17.1066 19.2698 17.587 19.2698H17.7433C17.8878 19.2698 17.9972 19.3093 18.0714 19.3883C18.1417 19.4575 18.1886 19.6402 18.212 19.9414C18.212 20.1291 18.173 20.2921 18.1027 20.4353C18.0284 20.5637 17.9152 20.6328 17.7589 20.6328C16.6964 20.5637 15.6964 20.534 14.7589 20.534C13.7784 20.534 12.7472 20.5637 11.6652 20.6328C11.5284 20.6328 11.4191 20.5637 11.337 20.4353C11.2511 20.2921 11.212 20.1291 11.212 19.9414C11.2316 19.6254 11.2823 19.4377 11.3683 19.3686C11.462 19.3044 11.6261 19.2698 11.8683 19.2698C12.3448 19.2698 12.7003 19.1612 12.9308 18.934C13.1691 18.7118 13.3136 18.4402 13.3683 18.1241C13.4308 17.7982 13.4698 17.3686 13.4933 16.8402V11.2501H5.63391V16.8402C5.65344 17.3686 5.6886 17.7982 5.74329 18.1241C5.80579 18.4402 5.95032 18.7118 6.18079 18.934C6.41907 19.1612 6.77844 19.2698 7.25891 19.2698H7.41516C7.57922 19.2698 7.69641 19.3093 7.75891 19.3883C7.82922 19.4575 7.87219 19.6402 7.88391 19.9414C7.88391 20.1291 7.84485 20.2921 7.77454 20.4353C7.70032 20.5637 7.58704 20.6328 7.43079 20.6328C6.36829 20.5637 5.33704 20.534 4.33704 20.534C3.4386 20.534 2.45032 20.5637 1.36829 20.6328Z" fill="black"/>
</svg>
