<svg width="14" height="22" viewBox="0 0 14 22" fill="none" xmlns="http://www.w3.org/2000/svg">
<path d="M1.02783 21.018C0.891113 21.018 0.785644 20.9489 0.715332 20.8205C0.641113 20.6773 0.605957 20.5143 0.605957 20.3267C0.61377 20.0106 0.660644 19.823 0.746582 19.7538C0.828613 19.6897 0.98877 19.6551 1.23096 19.6551C1.70752 19.6551 2.06299 19.5464 2.29346 19.3193C2.53174 19.0971 2.67627 18.8255 2.73096 18.5094C2.79346 18.1835 2.83252 17.7538 2.85596 17.2255V4.68224C2.83252 4.15879 2.79346 3.72916 2.73096 3.39829C2.67627 3.07236 2.53174 2.79582 2.29346 2.56866C2.06299 2.34644 1.70752 2.23286 1.23096 2.23286H1.07471C0.906738 2.23286 0.785644 2.20323 0.715332 2.13409C0.652832 2.05508 0.61377 1.87236 0.605957 1.58101C0.605957 1.38348 0.641113 1.22051 0.715332 1.08718C0.785644 0.958785 0.891113 0.889648 1.02783 0.889648C2.12939 0.94397 3.12158 0.968661 3.99658 0.968661C4.99658 0.968661 6.03564 0.94397 7.12158 0.889648C7.27783 0.889648 7.39111 0.958785 7.46533 1.08718C7.53565 1.22051 7.57471 1.38348 7.57471 1.58101C7.56299 1.89706 7.51221 2.08965 7.41846 2.15385C7.32471 2.20817 7.16846 2.23286 6.94971 2.23286C6.46924 2.23286 6.10986 2.34644 5.87158 2.56866C5.64111 2.79582 5.49658 3.07236 5.43408 3.39829C5.37939 3.72916 5.34424 4.15879 5.32471 4.68224V17.6995C5.35596 18.1341 5.39502 18.4798 5.44971 18.7267C5.50049 18.9637 5.65283 19.1909 5.90283 19.3983C6.15283 19.5958 6.54346 19.6847 7.07471 19.6551H9.32471C9.90674 19.6304 10.3481 19.5119 10.6528 19.2995C10.9536 19.0773 11.188 18.7366 11.356 18.2724C11.5317 17.7983 11.7466 17.0378 11.9966 15.981C12.1216 15.6156 12.4067 15.4674 12.856 15.5464C13.0005 15.5859 13.1411 15.6748 13.2778 15.8032C13.4106 15.9217 13.4692 16.0798 13.4497 16.2773L12.9497 20.2477C12.895 20.5242 12.8169 20.7119 12.7153 20.8008C12.6216 20.8798 12.4575 20.9193 12.231 20.9193H4.02783C3.12939 20.9193 2.12939 20.9489 1.02783 21.018Z" fill="black"/>
</svg>
