<svg width="11" height="12" viewBox="0 0 11 12" fill="none" xmlns="http://www.w3.org/2000/svg">
<path d="M0.7229 5.80648C0.7229 4.65092 0.894775 3.63364 1.23853 2.7645C1.58228 1.89536 2.05103 1.22376 2.64478 0.749685C3.23853 0.275611 3.89868 0.0385742 4.62915 0.0385742C5.25415 0.0385742 5.80103 0.206476 6.26978 0.532401C6.74634 0.848451 7.11353 1.27314 7.36353 1.7966V0.196599H10.0979V11.4361H7.36353V9.8361C7.10181 10.3645 6.73071 10.7941 6.25415 11.1201C5.7854 11.4361 5.23853 11.5941 4.61353 11.5941C3.89478 11.5941 3.23853 11.3571 2.64478 10.883C2.05103 10.4089 1.58228 9.7324 1.23853 8.84845C0.894775 7.96944 0.7229 6.95215 0.7229 5.80648ZM7.36353 5.82623C7.36353 4.95709 7.17603 4.28055 6.80103 3.79166C6.42603 3.2929 5.96509 3.04104 5.42603 3.04104C4.88306 3.04104 4.42603 3.28796 4.05103 3.77191C3.67603 4.2608 3.48853 4.93734 3.48853 5.80648C3.48853 6.66573 3.67603 7.34228 4.05103 7.84104C4.42603 8.34475 4.88306 8.59166 5.42603 8.59166C5.96509 8.59166 6.42603 8.34969 6.80103 7.8608C7.17603 7.36203 7.36353 6.68549 7.36353 5.82623Z" fill="white"/>
</svg>
