<svg width="17" height="21" viewBox="0 0 17 21" fill="none" xmlns="http://www.w3.org/2000/svg">
<path d="M0.656738 20.4029C0.500488 20.4029 0.387207 20.3338 0.312988 20.2054C0.242676 20.0622 0.203613 19.8992 0.203613 19.7116C0.215332 19.3955 0.262207 19.2079 0.344238 19.1387C0.430176 19.0745 0.523926 19.04 0.641113 19.04C0.766113 19.04 0.844238 19.04 0.875488 19.04C1.37549 19.04 1.73877 18.877 1.96924 18.5462C2.20752 18.2202 2.39502 17.8499 2.53174 17.44C2.67627 17.035 2.77393 16.7585 2.82861 16.6103L7.20361 3.51405C7.29736 3.198 7.34424 2.95109 7.34424 2.76344C7.34424 2.38319 7.22705 2.11158 7.00049 1.95356C6.77002 1.78566 6.4458 1.64739 6.03174 1.53874C5.73877 1.47455 5.56299 1.41035 5.50049 1.34121C5.43799 1.27702 5.40674 1.09924 5.40674 0.80788C5.40674 0.560966 5.45752 0.393065 5.56299 0.314053C5.66455 0.225165 5.83643 0.175781 6.07861 0.175781C6.91065 0.175781 7.5708 0.254794 8.06299 0.412818C8.55127 0.570843 8.97705 0.886892 9.34424 1.36097C9.71924 1.83504 10.063 2.55603 10.3755 3.51405L14.5786 16.6103C14.8286 17.4153 15.0669 18.0128 15.2974 18.4079C15.5356 18.8029 15.8833 19.0153 16.3442 19.04H16.5005C16.6646 19.04 16.7817 19.0795 16.8442 19.1585C16.9146 19.2276 16.9575 19.4104 16.9692 19.7116C16.9692 19.8992 16.9302 20.0622 16.8599 20.2054C16.7856 20.3338 16.6763 20.4029 16.5317 20.4029C15.4575 20.3338 14.5396 20.3042 13.7817 20.3042C12.7817 20.3042 11.7427 20.3338 10.6724 20.4029C10.5239 20.4029 10.4106 20.3338 10.3286 20.2054C10.2544 20.0622 10.2192 19.8992 10.2192 19.7116C10.2388 19.4104 10.2817 19.2276 10.3442 19.1585C10.4146 19.0795 10.5356 19.04 10.7036 19.04C11.2661 19.04 11.6606 18.9758 11.8911 18.8424C12.1294 18.6992 12.2505 18.4474 12.2505 18.0918C12.2505 17.8153 12.1489 17.3215 11.9536 16.6103L11.0942 13.9832H4.92236C4.5044 15.2869 4.26611 16.0474 4.20361 16.2548C4.14893 16.4671 4.12549 16.5857 4.12549 16.6103C3.92627 17.4153 3.82861 17.9289 3.82861 18.1511C3.82861 18.5066 3.95361 18.7437 4.20361 18.8622C4.45361 18.9807 4.92627 19.04 5.62549 19.04H5.78174C5.9458 19.04 6.06299 19.0795 6.12549 19.1585C6.18799 19.2276 6.22705 19.4104 6.25049 19.7116C6.25049 19.8992 6.21143 20.0622 6.14111 20.2054C6.0669 20.3338 5.95361 20.4029 5.79736 20.4029C4.73486 20.3338 3.82861 20.3042 3.07861 20.3042C2.54736 20.3042 1.73877 20.3338 0.656738 20.4029ZM5.40674 12.6202H10.6567L8.12549 4.50171H8.04736L5.40674 12.6202Z" fill="black"/>
</svg>
