<svg width="8" height="21" viewBox="0 0 8 21" fill="none" xmlns="http://www.w3.org/2000/svg">
<path d="M1.20703 20.4028C1.05859 20.4028 0.945312 20.3337 0.863281 20.2053C0.789062 20.0621 0.753906 19.8991 0.753906 19.7115C0.773437 19.3954 0.824219 19.2078 0.910156 19.1386C1.00391 19.0744 1.16016 19.0398 1.37891 19.0398C1.86719 19.0398 2.22656 18.9312 2.45703 18.704C2.68359 18.4818 2.83203 18.2102 2.89453 17.8942C2.96484 17.5781 3.01172 17.1534 3.03516 16.6102V4.06701C3.01172 3.51392 2.96484 3.07935 2.89453 2.7633C2.83203 2.44725 2.68359 2.18059 2.45703 1.95343C2.22656 1.7312 1.86719 1.61762 1.37891 1.61762H1.23828C1.08203 1.61762 0.964843 1.58799 0.894531 1.51886C0.820312 1.43985 0.773437 1.25713 0.753906 0.965772C0.753906 0.768241 0.789062 0.605279 0.863281 0.471945C0.945312 0.343551 1.05859 0.274414 1.20703 0.274414C2.28906 0.328735 3.27734 0.353426 4.17578 0.353426C5.17578 0.353426 6.21484 0.328735 7.30078 0.274414C7.45703 0.274414 7.57031 0.343551 7.64453 0.471945C7.71484 0.605279 7.75391 0.768241 7.75391 0.965772C7.74219 1.28182 7.69141 1.47441 7.59766 1.53861C7.50391 1.59293 7.33984 1.61762 7.11328 1.61762C6.62109 1.61762 6.25781 1.7312 6.01953 1.95343C5.78906 2.18059 5.64453 2.45713 5.58203 2.78306C5.52734 3.11392 5.49609 3.54355 5.48828 4.06701V16.6102C5.49609 17.1386 5.52734 17.5682 5.58203 17.8942C5.64453 18.2102 5.78906 18.4818 6.01953 18.704C6.25781 18.9312 6.62109 19.0398 7.11328 19.0398H7.25391C7.41797 19.0398 7.53906 19.0794 7.61328 19.1584C7.69531 19.2275 7.74219 19.4102 7.75391 19.7115C7.75391 19.8991 7.71484 20.0621 7.64453 20.2053C7.57031 20.3337 7.45703 20.4028 7.30078 20.4028C6.23828 20.3337 5.20703 20.304 4.20703 20.304C3.28906 20.304 2.28906 20.3337 1.20703 20.4028Z" fill="black"/>
</svg>
