<svg width="17" height="23" viewBox="0 0 17 23" fill="none" xmlns="http://www.w3.org/2000/svg">
<path d="M7.97961 22.166C6.39368 22.166 4.99915 21.682 3.79211 20.724C2.58118 19.766 1.64368 18.4919 0.979614 16.9117C0.323364 15.3314 -0.00476074 13.6425 -0.00476074 11.8351C-0.00476074 9.62278 0.38977 7.69685 1.18274 6.04747C1.9718 4.40302 2.98352 3.14376 4.21399 2.27463C5.45227 1.39562 6.70618 0.951172 7.97961 0.951172C9.57336 0.951172 10.9796 1.43512 12.1984 2.39315C13.4249 3.35611 14.3702 4.62031 15.0265 6.18574C15.6906 7.75611 16.0265 9.445 16.0265 11.2623C16.0265 13.4746 15.6241 15.4104 14.8234 17.0697C14.0187 18.7191 12.9952 19.9833 11.7452 20.8623C10.4952 21.7314 9.23743 22.166 7.97961 22.166ZM7.94836 20.7833C9.08118 20.7833 10.0265 20.3586 10.7765 19.4993C11.5343 18.645 12.1046 17.4993 12.4796 16.0623C12.8546 14.6154 13.0421 13.0154 13.0421 11.2623C13.0421 9.64253 12.8468 8.15611 12.464 6.79809C12.089 5.43018 11.5148 4.34377 10.7452 3.53883C9.98352 2.72401 9.04993 2.31413 7.94836 2.31413C6.2804 2.31413 5.02649 3.2129 4.18274 5.00055C3.33899 6.77833 2.91711 9.02525 2.91711 11.7364C2.91711 13.3857 3.10461 14.8919 3.47961 16.2598C3.85461 17.6327 4.41711 18.729 5.16711 19.5586C5.91711 20.3783 6.8429 20.7833 7.94836 20.7833Z" fill="black"/>
</svg>
