<svg width="10" height="17" viewBox="0 0 10 17" fill="none" xmlns="http://www.w3.org/2000/svg">
<path d="M2.72559 1.7966C2.99512 1.27314 3.36621 0.848451 3.83496 0.532401C4.30371 0.206476 4.85059 0.0385742 5.47559 0.0385742C6.20215 0.0385742 6.86621 0.275611 7.45996 0.749685C8.05371 1.22376 8.52246 1.89536 8.86621 2.7645C9.20996 3.63364 9.38184 4.65092 9.38184 5.80648C9.38184 6.95215 9.20996 7.96944 8.86621 8.84845C8.52246 9.7324 8.05371 10.4089 7.45996 10.883C6.86621 11.3571 6.20215 11.5941 5.47559 11.5941C4.8584 11.5941 4.31152 11.4361 3.83496 11.1201C3.36621 10.7941 2.99512 10.3793 2.72559 9.87561V16.7892H0.00683594V0.196599H2.72559V1.7966ZM6.61621 5.80648C6.61621 4.93734 6.42871 4.2608 6.05371 3.77191C5.67871 3.28796 5.21387 3.04104 4.66309 3.04104C4.12012 3.04104 3.65527 3.2929 3.27246 3.79166C2.89746 4.28055 2.70996 4.95709 2.70996 5.82623C2.70996 6.68549 2.89746 7.36203 3.27246 7.8608C3.65527 8.34969 4.12012 8.59166 4.66309 8.59166C5.20215 8.59166 5.66309 8.34475 6.03809 7.84104C6.4209 7.34228 6.61621 6.66573 6.61621 5.80648Z" fill="white"/>
</svg>
