<svg width="31" height="40" viewBox="0 0 31 40" fill="none" xmlns="http://www.w3.org/2000/svg">
<path d="M29.7617 34.558L24.8281 28.3259C26.5469 25.3728 27.4844 21.8272 27.4844 18.0938C27.4844 13.4617 26.0586 9.10616 23.4688 5.83209C18.1172 -0.928405 9.41406 -0.928405 4.06641 5.83209C-1.28516 12.5926 -1.28516 23.5951 4.06641 30.3605C6.74219 33.7432 10.2539 35.4321 13.7656 35.4321C16.6133 35.4321 19.4531 34.3012 21.8555 32.079L26.7891 38.316C27.1992 38.8346 27.7383 39.0913 28.2734 39.0913C28.8125 39.0913 29.3516 38.8346 29.7617 38.316C30.582 37.279 30.582 35.5951 29.7617 34.558ZM7.03516 26.6025C3.32812 21.9111 3.32812 14.2815 7.03516 9.59011C8.89062 7.24443 11.3281 6.06913 13.7656 6.06913C16.2031 6.06913 18.6406 7.24443 20.4961 9.59011C22.293 11.8617 23.2852 14.8839 23.2852 18.0938C23.2852 21.3086 22.293 24.3309 20.4961 26.6025C16.7852 31.2938 10.7461 31.2938 7.03516 26.6025Z" fill="#E3FEF7"/>
</svg>
